<svg width="282" height="55" viewBox="0 0 282 55" fill="none" xmlns="http://www.w3.org/2000/svg">
<path d="M69.7968 24.5676C72.0111 24.5676 73.7557 23.6859 75.1648 21.9225L77.983 24.9067C75.7016 27.4839 73.0847 28.7725 69.9981 28.7725C66.9116 28.7725 64.4289 27.823 62.4159 25.8562C60.4029 23.8893 59.4635 21.4477 59.4635 18.4636C59.4635 15.4794 60.47 12.97 62.483 11.0032C64.496 9.03632 66.9787 8.01899 69.931 8.01899C73.2189 8.01899 75.97 9.30761 78.1172 11.817L75.3661 15.0047C73.957 13.2413 72.2124 12.3596 70.1323 12.3596C68.4549 12.3596 67.0458 12.9022 65.838 13.9873C64.6302 15.0725 64.0263 16.5646 64.0263 18.4636C64.0263 20.3626 64.5631 21.8547 65.7038 23.0076C66.8445 23.9572 68.1865 24.5676 69.7968 24.5676ZM81.5393 28.5012V8.3581H85.9678V24.4997H94.4895V28.5012H81.5393ZM113.948 25.7205C111.935 27.6874 109.453 28.7047 106.5 28.7047C103.548 28.7047 101.065 27.6874 99.0522 25.7205C97.0392 23.7537 96.0327 21.2443 96.0327 18.3279C96.0327 15.4116 97.0392 12.9022 99.0522 10.9353C101.065 8.9685 103.548 7.95117 106.5 7.95117C109.453 7.95117 111.935 8.9685 113.948 10.9353C115.961 12.9022 116.968 15.4116 116.968 18.3279C116.968 21.2443 115.961 23.7537 113.948 25.7205ZM112.405 18.3279C112.405 16.5646 111.801 15.0047 110.728 13.716C109.587 12.4274 108.178 11.817 106.5 11.817C104.823 11.817 103.414 12.4274 102.273 13.716C101.132 15.0047 100.528 16.4967 100.528 18.3279C100.528 20.1591 101.132 21.6512 102.273 22.9398C103.414 24.2284 104.823 24.8388 106.5 24.8388C108.178 24.8388 109.587 24.2284 110.728 22.9398C111.868 21.6512 112.405 20.1591 112.405 18.3279ZM126.026 23.3468C126.764 24.2963 127.771 24.771 129.046 24.771C130.321 24.771 131.327 24.2963 131.998 23.3468C132.736 22.3972 133.072 21.1086 133.072 19.5487V8.3581H137.5V19.6165C137.5 22.5329 136.695 24.771 135.085 26.3309C133.474 27.8908 131.461 28.7047 128.979 28.7047C126.496 28.7047 124.416 27.8908 122.805 26.3309C121.195 24.771 120.39 22.5329 120.39 19.6165V8.3581H124.818V19.4809C124.886 21.1086 125.288 22.3972 126.026 23.3468ZM157.362 11.0032C159.24 12.7665 160.247 15.2081 160.247 18.3279C160.247 21.4477 159.308 23.9572 157.496 25.7883C155.617 27.6195 152.799 28.5012 149.041 28.5012H142.13V8.3581H149.176C152.732 8.3581 155.483 9.23979 157.362 11.0032ZM154.141 23.0076C155.214 21.9903 155.751 20.4304 155.751 18.4636C155.751 16.4967 155.214 14.9368 154.141 13.9195C153.067 12.8344 151.39 12.2918 149.108 12.2918H146.626V24.5676H149.444C151.457 24.5676 153 24.025 154.141 23.0076ZM185.543 8.3581H190.039V28.5012H185.543L176.082 15.8863V28.5012H171.587V8.3581H175.814L185.543 21.3799V8.3581ZM209.095 28.5012L207.217 24.1606H198.829L196.95 28.5012H192.186L200.775 8.3581H205.069L213.658 28.5012H209.095ZM203.124 14.3943L200.641 20.2269H205.606L203.124 14.3943ZM223.186 12.2918V28.5012H218.691V12.2918H213.054V8.3581H228.823V12.2918H223.186ZM232.043 8.3581H236.472V28.5012H232.043V8.3581ZM248.751 21.1765L253.851 8.3581H258.682L250.63 28.5012H246.872L238.888 8.3581H243.719L248.751 21.1765ZM275.39 8.3581V12.3596H265.459V16.5646H274.383V20.3626H265.459V24.5676H275.725V28.5012H261.03V8.3581H275.39ZM64.6973 45.6602C65.9051 45.6602 66.9116 45.1854 67.7168 44.1681L69.3271 45.8636C68.0523 47.2879 66.5761 48.0339 64.8315 48.0339C63.0869 48.0339 61.6778 47.4914 60.6042 46.4062C59.4635 45.3211 58.9267 43.8968 58.9267 42.2691C58.9267 40.5735 59.4635 39.2171 60.6042 38.0641C61.7449 36.9111 63.154 36.3686 64.7644 36.3686C66.5761 36.3686 68.1194 37.0468 69.3942 38.4711L67.851 40.2344C67.0458 39.2171 66.1064 38.7423 64.8986 38.7423C63.9592 38.7423 63.154 39.0814 62.483 39.6918C61.812 40.3022 61.4765 41.1161 61.4765 42.2013C61.4765 43.2864 61.812 44.1003 62.4159 44.7107C63.0198 45.3889 63.825 45.6602 64.6973 45.6602ZM80.3986 46.3384C79.2579 47.4235 77.8488 48.0339 76.2384 48.0339C74.628 48.0339 73.2189 47.4914 72.0782 46.3384C70.9375 45.2532 70.4007 43.829 70.4007 42.2013C70.4007 40.5735 70.9375 39.1493 72.0782 38.0641C73.2189 36.979 74.628 36.3686 76.2384 36.3686C77.8488 36.3686 79.2579 36.9111 80.3986 38.0641C81.5393 39.1493 82.076 40.5735 82.076 42.2013C82.076 43.829 81.5393 45.2532 80.3986 46.3384ZM79.5934 42.2013C79.5934 41.1839 79.2579 40.3022 78.654 39.624C77.983 38.9458 77.2449 38.5389 76.3055 38.5389C75.3661 38.5389 74.5609 38.878 73.957 39.624C73.286 40.3022 73.0176 41.1839 73.0176 42.2013C73.0176 43.2186 73.3531 44.0325 73.957 44.7785C74.628 45.4567 75.3661 45.8636 76.3055 45.8636C77.2449 45.8636 78.0501 45.5245 78.654 44.7785C79.2579 44.1003 79.5934 43.2186 79.5934 42.2013ZM94.2211 40.777L91.2016 47.0166H89.7254L86.7059 40.777V47.8983H84.2232V36.6399H87.5782L90.4635 42.8117L93.3488 36.6399H96.7037V47.8983H94.2211V40.777ZM107.171 37.6572C107.976 38.3354 108.379 39.3527 108.379 40.777C108.379 42.2013 107.976 43.2186 107.171 43.829C106.366 44.5072 105.158 44.7785 103.481 44.7785H102.005V47.8983H99.5219V36.6399H103.481C105.158 36.6399 106.366 36.979 107.171 37.6572ZM105.36 42.0656C105.628 41.7265 105.829 41.2518 105.829 40.5735C105.829 39.8953 105.628 39.4884 105.225 39.2171C104.823 38.9458 104.219 38.8102 103.414 38.8102H102.005V42.6082H103.682C104.487 42.6082 105.024 42.4047 105.36 42.0656ZM113.277 44.982C113.68 45.5245 114.284 45.7958 114.955 45.7958C115.626 45.7958 116.23 45.5245 116.632 44.982C117.035 44.4394 117.236 43.7612 117.236 42.8117V36.572H119.719V42.8795C119.719 44.5072 119.249 45.7958 118.377 46.6775C117.505 47.5592 116.364 47.9661 114.955 47.9661C113.546 47.9661 112.405 47.4914 111.533 46.6097C110.66 45.728 110.191 44.4394 110.191 42.8117V36.5042H112.673V42.8795C112.673 43.7612 112.875 44.5072 113.277 44.982ZM127.033 38.8102V47.8983H124.55V38.8102H121.396V36.6399H130.186V38.8102H127.033ZM132.065 36.6399H134.548V47.9661H132.065V36.6399ZM145.082 36.6399H147.565V47.8983H145.082L139.782 40.8448V47.8983H137.299V36.6399H139.58L145.082 43.8968V36.6399ZM157.63 42.2013H160.113V46.2028C158.972 47.4235 157.496 48.1018 155.483 48.1018C153.872 48.1018 152.463 47.5592 151.323 46.474C150.182 45.3889 149.645 43.9646 149.645 42.3369C149.645 40.6414 150.182 39.2849 151.323 38.1319C152.463 36.979 153.805 36.4364 155.416 36.4364C157.026 36.4364 158.435 36.979 159.576 38.0641L158.301 39.9631C157.831 39.4884 157.362 39.2171 156.892 39.0815C156.489 38.9458 156.02 38.8102 155.55 38.8102C154.611 38.8102 153.805 39.1493 153.134 39.7597C152.463 40.4379 152.128 41.2518 152.128 42.3369C152.128 43.4221 152.463 44.2359 153.067 44.9141C153.671 45.5245 154.409 45.8636 155.282 45.8636C156.154 45.8636 156.892 45.728 157.429 45.3889L157.63 42.2013ZM174.204 36.6399V38.8102H169.037V41.2518H174.002V43.4899H169.037V47.8983H166.554V36.6399H174.204ZM185.745 46.3384C184.604 47.4235 183.195 48.0339 181.585 48.0339C179.907 48.0339 178.565 47.4914 177.424 46.3384C176.284 45.2532 175.747 43.829 175.747 42.2013C175.747 40.5735 176.284 39.1493 177.424 38.0641C178.565 36.979 179.974 36.3686 181.585 36.3686C183.262 36.3686 184.604 36.9111 185.745 38.0641C186.885 39.1493 187.422 40.5735 187.422 42.2013C187.422 43.829 186.885 45.2532 185.745 46.3384ZM184.872 42.2013C184.872 41.1839 184.537 40.3022 183.933 39.624C183.262 38.9458 182.524 38.5389 181.585 38.5389C180.645 38.5389 179.84 38.878 179.236 39.624C178.565 40.3022 178.297 41.1839 178.297 42.2013C178.297 43.2186 178.632 44.0325 179.236 44.7785C179.907 45.4567 180.645 45.8636 181.585 45.8636C182.524 45.8636 183.329 45.5245 183.933 44.7785C184.604 44.1003 184.872 43.2186 184.872 42.2013ZM192.522 44.982C192.924 45.5245 193.528 45.7958 194.199 45.7958C194.87 45.7958 195.474 45.5245 195.877 44.982C196.279 44.4394 196.481 43.7612 196.481 42.8117V36.572H198.963V42.8795C198.963 44.5072 198.494 45.7958 197.621 46.6775C196.749 47.5592 195.608 47.9661 194.199 47.9661C192.79 47.9661 191.65 47.4914 190.777 46.6097C189.905 45.728 189.435 44.4394 189.435 42.8117V36.5042H191.918V42.8795C191.851 43.7612 192.119 44.5072 192.522 44.982ZM209.364 36.6399H211.846V47.8983H209.364L204.063 40.8448V47.8983H201.58V36.6399H203.862L209.364 43.8968V36.6399ZM223.119 38.1319C224.193 39.1493 224.73 40.5057 224.73 42.2691C224.73 44.0325 224.193 45.3889 223.186 46.4062C222.18 47.4235 220.569 47.9661 218.422 47.9661H214.598V36.6399H218.556C220.569 36.6399 222.113 37.1146 223.119 38.1319ZM221.307 44.8463C221.911 44.2359 222.247 43.4221 222.247 42.3369C222.247 41.2518 221.911 40.3701 221.307 39.7597C220.704 39.1493 219.764 38.878 218.489 38.878H217.08V45.728H218.691C219.831 45.6602 220.704 45.3889 221.307 44.8463ZM234.526 47.8983L233.52 45.4567H228.823L227.816 47.8983H225.132L229.963 36.572H232.379L237.21 47.8983H234.526ZM231.171 39.9631L229.762 43.2186H232.58L231.171 39.9631ZM242.444 38.8102V47.8983H239.894V38.8102H236.74V36.6399H245.597V38.8102H242.444ZM247.409 36.6399H249.892V47.9661H247.409V36.6399ZM262.037 46.3384C260.896 47.4235 259.487 48.0339 257.877 48.0339C256.199 48.0339 254.857 47.4914 253.717 46.3384C252.576 45.2532 252.039 43.829 252.039 42.2013C252.039 40.5735 252.576 39.1493 253.717 38.0641C254.857 36.979 256.266 36.3686 257.877 36.3686C259.554 36.3686 260.896 36.9111 262.037 38.0641C263.178 39.1493 263.714 40.5735 263.714 42.2013C263.714 43.829 263.178 45.2532 262.037 46.3384ZM261.232 42.2013C261.232 41.1839 260.896 40.3022 260.292 39.624C259.621 38.9458 258.883 38.5389 257.944 38.5389C257.004 38.5389 256.199 38.878 255.595 39.624C254.924 40.3022 254.656 41.1839 254.656 42.2013C254.656 43.2186 254.991 44.0325 255.595 44.7785C256.266 45.4567 257.004 45.8636 257.944 45.8636C258.883 45.8636 259.688 45.5245 260.292 44.7785C260.896 44.1003 261.232 43.2186 261.232 42.2013ZM273.645 36.6399H276.195V47.8983H273.645L268.344 40.8448V47.8983H265.862V36.6399H268.21L273.645 43.8968V36.6399Z" fill="#1C1438"/>
<path d="M11.6216 34.5361H5.51559V49.05H19.8078V42.8104H11.6216V34.5361ZM42.3532 34.604V42.8104H34.1671V42.7426V49.05H48.4593V34.5361H42.2861L42.3532 34.604ZM5.51559 20.0901H11.6887L11.6216 20.0222V11.8158H19.8078V5.57617H5.51559V20.0901ZM34.1671 5.57617V11.8158H42.3532V20.0901H48.4593V5.57617H34.1671Z" fill="#446CA9"/>
<path d="M33.3619 20.0901L25.1757 11.8158H34.1671V5.57617H19.8078V11.8158L27.9939 20.0901H33.3619ZM25.9809 34.5361H20.613L27.39 41.3862L28.732 42.8104H19.8078V49.05H34.1671V42.7426L30.074 38.6733L25.9809 34.5361ZM42.3532 20.0901V29.1104L40.9441 27.6861L34.1671 20.8361V26.3297L38.193 30.399L42.2861 34.5361H48.4593V20.0901H42.3532ZM19.8078 28.2965L11.6887 20.0901H5.51559V34.5361H11.6216V25.5158L19.8078 33.7901V28.2965Z" fill="#76C4D5"/>
</svg>
