<svg width="58" height="58" viewBox="0 0 58 58" fill="none" xmlns="http://www.w3.org/2000/svg">
<g clip-path="url(#clip0)">
<path d="M29.0001 54.3271L24.3369 57.4446C23.5584 57.9601 22.6153 58.1327 21.7148 57.9242C20.8143 57.7158 20.0301 57.1434 19.5345 56.3329L19.3953 56.0429L16.8433 50.9437L11.3217 51.1854C10.4062 51.2249 9.51273 50.8867 8.83515 50.2442C8.15757 49.6017 7.75057 48.7068 7.70249 47.7537V47.4154L7.93449 41.6637L3.03929 39.0054C2.22169 38.5623 1.60619 37.7996 1.32783 36.8844C1.04947 35.9692 1.13098 34.9764 1.55449 34.1237L1.69369 33.8579L4.68649 29.0004L1.69369 24.1429C1.19873 23.332 1.03311 22.3496 1.23323 21.4115C1.43334 20.4735 1.98282 19.6566 2.76089 19.1404L3.03929 18.9954L7.93449 16.3371L7.70249 10.5854C7.66458 9.63177 7.98924 8.70106 8.60601 7.99524C9.22278 7.28943 10.0819 6.86547 10.9969 6.81539H11.3217L16.8433 7.05705L19.3953 1.95789C19.8206 1.10622 20.5529 0.465071 21.4315 0.175113C22.31 -0.114844 23.2631 -0.0299328 24.0817 0.411218L24.3369 0.556218L29.0001 3.67372L33.6633 0.556218C34.4417 0.0406383 35.3849 -0.131884 36.2854 0.0765695C37.1859 0.285023 37.9701 0.857393 38.4657 1.66788L38.6049 1.95789L41.1569 7.05705L46.6785 6.81539C47.594 6.77589 48.4874 7.11408 49.165 7.75655C49.8426 8.39903 50.2496 9.29393 50.2977 10.2471V10.5854L50.0657 16.3371L54.9609 18.9954C55.7785 19.4384 56.394 20.2012 56.6724 21.1164C56.9507 22.0316 56.8692 23.0244 56.4457 23.8771L56.3065 24.1429L53.3137 29.0004L56.3065 33.8579C57.3273 35.5496 56.8401 37.7729 55.2393 38.8604L54.9609 39.0054L50.0657 41.6637L50.2977 47.4154C50.3356 48.369 50.0109 49.2997 49.3942 50.0055C48.7774 50.7113 47.9183 51.1353 47.0033 51.1854H46.6785L41.1569 50.9437L38.6049 56.0429C38.1796 56.8946 37.4473 57.5357 36.5687 57.8257C35.6902 58.1156 34.737 58.0307 33.9185 57.5896L33.6633 57.4446L29.0001 54.3271Z" fill="#BEB0F4"/>
<path d="M25.6796 34.4983V34.9983H26.1796H30.5402H31.0402V34.4983V33.9383C31.0402 33.3269 31.1376 32.8672 31.302 32.5329C31.4949 32.1958 31.8968 31.7687 32.5652 31.2546L32.5674 31.253L34.0075 30.133L34.0075 30.133L34.0101 30.1309C35.4263 29.0145 36.5108 27.8809 37.2432 26.7261C37.9982 25.5357 38.3611 24.0907 38.3611 22.4183C38.3611 20.0079 37.5852 18.0181 36.0078 16.4982C34.4244 14.9726 32.26 14.2383 29.5801 14.2383C26.5565 14.2383 24.1151 15.0508 22.319 16.7318C20.5134 18.3948 19.6389 20.7284 19.6389 23.6583V24.1583H20.1389H24.7395H25.2395V23.6583C25.2395 22.1135 25.6308 21.0359 26.3304 20.3346C27.0729 19.6169 28.0718 19.2383 29.38 19.2383C30.3885 19.2383 31.1431 19.5458 31.7 20.1249L31.6999 20.1249L31.7069 20.1319C32.2884 20.7134 32.6005 21.5096 32.6005 22.5783C32.6005 24.2361 31.856 25.6278 30.2854 26.7745L30.2854 26.7744L30.283 26.7762L28.4447 28.1347C28.4444 28.135 28.4441 28.1352 28.4438 28.1354C27.3181 28.9591 26.5281 29.8119 26.1577 30.7071L26.1549 30.714L26.1522 30.7209C25.8282 31.5749 25.6796 32.6968 25.6796 34.0583V34.4983ZM25.5789 43.0846L25.5789 43.0846L25.5861 43.0919C26.3455 43.8512 27.2724 44.2383 28.3399 44.2383C29.4075 44.2383 30.3343 43.8512 31.0938 43.0919C31.8532 42.3325 32.2403 41.4058 32.2403 40.3383C32.2403 39.272 31.8538 38.3558 31.0901 37.6211C30.3314 36.8641 29.4058 36.4783 28.3399 36.4783C27.2724 36.4783 26.3455 36.8653 25.5861 37.6247C24.849 38.3617 24.4795 39.2769 24.4795 40.3383C24.4795 41.3993 24.8485 42.3238 25.5789 43.0846Z" fill="#7356B6" stroke="white"/>
</g>
<defs>
<clipPath id="clip0">
<rect width="58" height="58" fill="white"/>
</clipPath>
</defs>
</svg>
