<svg width="23" height="23" viewBox="0 0 23 23" fill="none" xmlns="http://www.w3.org/2000/svg">
<path d="M11.1358 0.171876C5.05764 0.169263 0.134613 5.40001 0.134613 11.8561C0.134613 16.9615 3.21427 21.3013 7.50318 22.895C8.08076 23.0492 7.99228 22.6129 7.99228 22.315V20.2901C4.65701 20.7055 4.52183 18.3593 4.29817 17.9674C3.84593 17.147 2.77678 16.9379 3.09629 16.546C3.85576 16.1306 4.62998 16.6505 5.52708 18.0588C6.17595 19.0804 7.44173 18.908 8.08322 18.7381C8.22332 18.1241 8.52317 17.5755 8.93609 17.1496C5.48038 16.4912 4.0401 14.2494 4.0401 11.5844C4.0401 10.2911 4.44072 9.10228 5.22723 8.1434C4.72583 6.56268 5.27393 5.20927 5.34766 5.00809C6.77566 4.87223 8.26019 6.095 8.3757 6.19167C9.18679 5.95914 10.1134 5.83634 11.1506 5.83634C12.1927 5.83634 13.1218 5.96436 13.9402 6.19951C14.218 5.97481 15.5943 4.92448 16.9216 5.05251C16.9928 5.25369 17.5286 6.57575 17.0567 8.13556C17.8531 9.09706 18.2586 10.2963 18.2586 11.5922C18.2586 14.2625 16.8085 16.5068 13.343 17.1548C13.6398 17.4651 13.8755 17.8352 14.0363 18.2434C14.1971 18.6517 14.2797 19.0899 14.2794 19.5324V22.4718C14.2991 22.7069 14.2794 22.9395 14.6481 22.9395C19.0009 21.3796 22.1346 17.0085 22.1346 11.8587C22.1346 5.40001 17.2091 0.171876 11.1358 0.171876Z" fill="#1C1438"/>
</svg>
