<svg width="19" height="20" viewBox="0 0 19 20" fill="none" xmlns="http://www.w3.org/2000/svg">
<path d="M9.50106 0.603516C4.2517 0.601336 0 4.9665 0 10.3543C0 14.6148 2.6597 18.2364 6.36376 19.5665C6.86259 19.6951 6.78617 19.331 6.78617 19.0824V17.3926C3.90571 17.7393 3.78896 15.7813 3.5958 15.4542C3.20523 14.7696 2.28187 14.5951 2.55781 14.2681C3.21372 13.9214 3.88236 14.3553 4.65713 15.5305C5.21752 16.3831 6.31069 16.2392 6.86471 16.0974C6.9857 15.585 7.24467 15.1272 7.60127 14.7718C4.6168 14.2223 3.37292 12.3515 3.37292 10.1275C3.37292 9.0482 3.71891 8.05612 4.39817 7.25591C3.96514 5.93677 4.4385 4.80733 4.50218 4.63944C5.73545 4.52605 7.01754 5.54648 7.11731 5.62716C7.81779 5.4331 8.61803 5.33062 9.5138 5.33062C10.4138 5.33062 11.2162 5.43746 11.923 5.6337C12.1629 5.44618 13.3516 4.56966 14.4978 4.6765C14.5594 4.84439 15.0221 5.94768 14.6146 7.24937C15.3023 8.05176 15.6526 9.05256 15.6526 10.134C15.6526 12.3624 14.4002 14.2354 11.4072 14.7761C11.6636 15.0351 11.8671 15.3439 12.006 15.6846C12.1448 16.0253 12.2162 16.3909 12.216 16.7603V19.2132C12.2329 19.4095 12.216 19.6035 12.5344 19.6035C16.2936 18.3018 19 14.654 19 10.3564C19 4.9665 14.7462 0.603516 9.50106 0.603516Z" fill="white"/>
</svg>
