<svg width="59" height="58" viewBox="0 0 59 58" fill="none" xmlns="http://www.w3.org/2000/svg">
<g clip-path="url(#clip0)">
<path d="M29.5001 54.3271L24.7565 57.4446C23.9647 57.9601 23.0053 58.1327 22.0892 57.9242C21.1732 57.7158 20.3754 57.1434 19.8713 56.3329L19.7297 56.0429L17.1337 50.9437L11.5169 51.1854C10.5857 51.2249 9.67679 50.8867 8.98753 50.2442C8.29827 49.6017 7.88425 48.7068 7.83534 47.7537V47.4154L8.07134 41.6637L3.09174 39.0054C2.26004 38.5623 1.63393 37.7996 1.35077 36.8844C1.06761 35.9692 1.15053 34.9764 1.58134 34.1237L1.72294 33.8579L4.76734 29.0004L1.72294 24.1429C1.21945 23.332 1.05097 22.3496 1.25454 21.4115C1.4581 20.4735 2.01705 19.6566 2.80854 19.1404L3.09174 18.9954L8.07134 16.3371L7.83534 10.5854C7.79677 9.63177 8.12703 8.70106 8.75444 7.99524C9.38185 7.28943 10.2558 6.86547 11.1865 6.81539H11.5169L17.1337 7.05705L19.7297 1.95789C20.1624 1.10622 20.9073 0.465071 21.801 0.175113C22.6947 -0.114844 23.6643 -0.0299328 24.4969 0.411218L24.7565 0.556218L29.5001 3.67372L34.2437 0.556218C35.0356 0.0406383 35.995 -0.131884 36.9111 0.0765695C37.8271 0.285023 38.6248 0.857393 39.1289 1.66788L39.2705 1.95789L41.8665 7.05705L47.4833 6.81539C48.4146 6.77589 49.3235 7.11408 50.0128 7.75655C50.702 8.39903 51.116 9.29393 51.1649 10.2471V10.5854L50.9289 16.3371L55.9085 18.9954C56.7402 19.4384 57.3664 20.2012 57.6495 21.1164C57.9327 22.0316 57.8498 23.0244 57.4189 23.8771L57.2773 24.1429L54.2329 29.0004L57.2773 33.8579C58.3157 35.5496 57.8201 37.7729 56.1917 38.8604L55.9085 39.0054L50.9289 41.6637L51.1649 47.4154C51.2035 48.369 50.8732 49.2997 50.2458 50.0055C49.6184 50.7113 48.7445 51.1353 47.8137 51.1854H47.4833L41.8665 50.9437L39.2705 56.0429C38.8379 56.8946 38.093 57.5357 37.1993 57.8257C36.3055 58.1156 35.336 58.0307 34.5033 57.5896L34.2437 57.4446L29.5001 54.3271Z" fill="#87BBFD"/>
<path d="M39.8049 33.7483L39.805 33.7483C40.3681 33.1056 40.663 32.2854 40.663 31.2492C40.663 30.213 40.3681 29.3928 39.805 28.75L39.8004 28.7448L39.8004 28.7448C39.2813 28.1354 38.509 27.7997 37.3986 27.7997C36.3731 27.7997 35.6072 28.1282 35.0429 28.7545L39.8049 33.7483ZM39.8049 33.7483L39.8004 33.7536M39.8049 33.7483L39.8004 33.7536M39.8004 33.7536C39.2813 34.363 38.509 34.6986 37.3986 34.6986M39.8004 33.7536L37.3986 34.6986M37.3986 34.6986C36.3715 34.6986 35.6055 34.3777 35.0426 33.7702C34.4835 33.1295 34.1888 32.3027 34.1888 31.2492C34.1888 30.193 34.4848 29.3766 35.0424 28.7551L37.3986 34.6986ZM25.7431 37.615L25.8523 37.9669H26.2207H29.6305H30.3317L30.1032 37.304L23.6655 18.6242L23.5493 18.2871H23.1928H20.4377H20.0811L19.965 18.6242L13.5273 37.304L13.2988 37.9669H14H17.4098H17.7782L17.8874 37.615L18.5147 35.5919H25.1157L25.7431 37.615ZM41.0267 24.5315H40.5267V25.0315V25.3877C40.2537 25.1625 39.949 24.9661 39.6142 24.7981C38.8301 24.4047 37.9705 24.2113 37.044 24.2113C34.9986 24.2113 33.3211 24.8773 32.0672 26.2394C30.8251 27.5709 30.2154 29.2543 30.2154 31.2492C30.2154 33.2545 30.7932 34.9446 31.9784 36.278C33.1839 37.6342 34.8693 38.2871 36.9622 38.2871C37.8392 38.2871 38.6929 38.0916 39.5193 37.7066L39.5193 37.7067L39.5237 37.7046C39.8962 37.5266 40.2316 37.3212 40.5267 37.0871V37.4669V37.9669H41.0267H44H44.5V37.4669V25.0315V24.5315H44H41.0267ZM21.8016 24.7903L23.9624 31.8433H19.6408L21.8016 24.7903Z" fill="#555ABF" stroke="white"/>
</g>
<defs>
<clipPath id="clip0">
<rect width="59" height="58" fill="white"/>
</clipPath>
</defs>
</svg>
