<svg width="24" height="25" viewBox="0 0 24 25" fill="none" xmlns="http://www.w3.org/2000/svg">
<path d="M4.87677 15.7209C4.87677 17.1123 3.79093 18.2369 2.44736 18.2369C1.10379 18.2369 0.0179443 17.1123 0.0179443 15.7209C0.0179443 14.3296 1.10379 13.2051 2.44745 13.2051H4.87668V15.721L4.87677 15.7209ZM6.09153 15.7209C6.09153 14.3296 7.17738 13.2051 8.52094 13.2051C9.86451 13.2051 10.9504 14.3296 10.9504 15.721V22.0108C10.9504 23.4022 9.86451 24.5268 8.52085 24.5268C7.17747 24.5268 6.09153 23.4022 6.09153 22.0108V15.721V15.7209Z" fill="#E01E5A"/>
<path d="M8.52136 5.61778C7.1778 5.61778 6.09186 4.49327 6.09186 3.10186C6.09186 1.71045 7.17789 0.585938 8.52136 0.585938C9.86483 0.585938 10.9508 1.71045 10.9508 3.10186V5.61788H8.52127L8.52136 5.61778ZM8.52136 6.89483C9.86492 6.89483 10.9508 8.01935 10.9508 9.41076C10.9508 10.8022 9.86492 11.9267 8.52127 11.9267H2.4295C1.08585 11.9267 0 10.8022 0 9.41066C0 8.01944 1.08585 6.89483 2.42941 6.89483H8.52127H8.52136Z" fill="#36C5F0"/>
<path d="M18.2574 9.41076C18.2574 8.01935 19.3433 6.89474 20.6867 6.89474C22.0303 6.89474 23.1163 8.01935 23.1163 9.41076C23.1163 10.8022 22.0303 11.9267 20.6867 11.9267H18.2574V9.41066V9.41076ZM17.0427 9.41076C17.0427 10.8022 15.9567 11.9267 14.6132 11.9267C13.2697 11.9267 12.1838 10.8022 12.1838 9.41066V3.10195C12.1838 1.71045 13.2697 0.585938 14.6132 0.585938C15.9566 0.585938 17.0426 1.71045 17.0426 3.10186V9.41066L17.0427 9.41076Z" fill="#2EB67D"/>
<path d="M14.6132 19.495C15.9567 19.495 17.0427 20.6195 17.0427 22.0108C17.0427 23.4022 15.9567 24.5268 14.6132 24.5268C13.2697 24.5268 12.1838 23.4022 12.1838 22.0108V19.495H14.6132H14.6132ZM14.6132 18.2369C13.2697 18.2369 12.1838 17.1123 12.1838 15.7209C12.1838 14.3296 13.2697 13.2051 14.6132 13.2051H20.7051C22.0487 13.2051 23.1346 14.3296 23.1346 15.721C23.1346 17.1123 22.0487 18.2369 20.7051 18.2369H14.6132H14.6132Z" fill="#ECB22E"/>
</svg>
