<svg width="58" height="58" viewBox="0 0 58 58" fill="none" xmlns="http://www.w3.org/2000/svg">
<g clip-path="url(#clip0)">
<path d="M29.0001 54.3271L24.3369 57.4446C23.5584 57.9601 22.6153 58.1327 21.7148 57.9242C20.8143 57.7158 20.0301 57.1434 19.5345 56.3329L19.3953 56.0429L16.8433 50.9437L11.3217 51.1854C10.4062 51.2249 9.51273 50.8867 8.83515 50.2442C8.15757 49.6017 7.75057 48.7068 7.70249 47.7537V47.4154L7.93449 41.6637L3.03929 39.0054C2.22169 38.5623 1.60619 37.7996 1.32783 36.8844C1.04947 35.9692 1.13098 34.9764 1.55449 34.1237L1.69369 33.8579L4.68649 29.0004L1.69369 24.1429C1.19873 23.332 1.03311 22.3496 1.23323 21.4115C1.43334 20.4735 1.98282 19.6566 2.76089 19.1404L3.03929 18.9954L7.93449 16.3371L7.70249 10.5854C7.66458 9.63177 7.98924 8.70106 8.60601 7.99524C9.22278 7.28943 10.0819 6.86547 10.9969 6.81539H11.3217L16.8433 7.05705L19.3953 1.95789C19.8206 1.10622 20.5529 0.465071 21.4315 0.175113C22.31 -0.114844 23.2631 -0.0299328 24.0817 0.411218L24.3369 0.556218L29.0001 3.67372L33.6633 0.556218C34.4417 0.0406383 35.3849 -0.131884 36.2854 0.0765695C37.1859 0.285023 37.9701 0.857393 38.4657 1.66788L38.6049 1.95789L41.1569 7.05705L46.6785 6.81539C47.594 6.77589 48.4874 7.11408 49.165 7.75655C49.8426 8.39903 50.2496 9.29393 50.2977 10.2471V10.5854L50.0657 16.3371L54.9609 18.9954C55.7785 19.4384 56.394 20.2012 56.6724 21.1164C56.9507 22.0316 56.8692 23.0244 56.4457 23.8771L56.3065 24.1429L53.3137 29.0004L56.3065 33.8579C57.3273 35.5496 56.8401 37.7729 55.2393 38.8604L54.9609 39.0054L50.0657 41.6637L50.2977 47.4154C50.3356 48.369 50.0109 49.2997 49.3942 50.0055C48.7774 50.7113 47.9183 51.1353 47.0033 51.1854H46.6785L41.1569 50.9437L38.6049 56.0429C38.1796 56.8946 37.4473 57.5357 36.5687 57.8257C35.6902 58.1156 34.737 58.0307 33.9185 57.5896L33.6633 57.4446L29.0001 54.3271Z" fill="#FCD669"/>
<path d="M30.0295 33.1024L29.6922 32.9559L29.4519 33.2342L22.9467 40.7656C22.9386 40.7749 22.9302 40.7839 22.9215 40.7926C22.2651 41.4482 21.3752 41.8164 20.4474 41.8161C19.5194 41.8159 18.6296 41.4472 17.9734 40.791C17.3172 40.1348 16.9485 39.245 16.9482 38.317C16.948 37.3891 17.3162 36.4992 17.9719 35.8427C17.9802 35.8344 17.9894 35.8257 17.9996 35.8169C17.9997 35.8168 17.9999 35.8166 18.0001 35.8165L25.5303 29.3123L25.8095 29.0711L25.6614 28.7332C24.9779 27.1741 24.7782 25.4457 25.0881 23.7718C25.398 22.0978 26.2032 20.5555 27.3994 19.3443C28.5957 18.1331 30.128 17.3089 31.7979 16.9783C33.4679 16.6477 35.1986 16.826 36.7661 17.49C36.8414 17.522 36.9077 17.572 36.9592 17.6356C37.0108 17.6993 37.046 17.7747 37.0616 17.8551C37.0773 17.9355 37.0729 18.0186 37.049 18.0969C37.025 18.1753 36.9822 18.2466 36.9243 18.3045C36.9243 18.3045 36.9243 18.3045 36.9243 18.3045L32.0575 23.1712L31.8683 23.3604L31.9208 23.6228L32.3922 25.9799L32.4576 26.3067L32.7844 26.3721L35.1414 26.8435L35.4038 26.896L35.5931 26.7068L40.4598 21.8401C40.4598 21.84 40.4599 21.84 40.4599 21.84C40.5178 21.7821 40.5891 21.7393 40.6674 21.7154C40.7458 21.6914 40.8288 21.6871 40.9092 21.7027C40.9897 21.7184 41.065 21.7535 41.1287 21.8051C41.1924 21.8567 41.2424 21.9231 41.2744 21.9985L41.2748 21.9995C41.94 23.5576 42.1225 25.2793 41.7987 26.9422C41.4748 28.6049 40.6596 30.1323 39.4584 31.3268C38.2449 32.5323 36.6976 33.3459 35.0166 33.6625C33.3356 33.979 31.5984 33.7839 30.0295 33.1024Z" fill="#CE7C3A" stroke="white"/>
</g>
<defs>
<clipPath id="clip0">
<rect width="58" height="58" fill="white"/>
</clipPath>
</defs>
</svg>
