<svg width="23" height="23" viewBox="0 0 23 23" fill="none" xmlns="http://www.w3.org/2000/svg">
<path d="M11.1346 0.173828C5.06009 0.173828 0.134644 5.27101 0.134644 11.5574C0.134644 17.8437 5.06009 22.9409 11.1346 22.9409C17.2092 22.9409 22.1346 17.8437 22.1346 11.5574C22.1346 5.27101 17.2092 0.173828 11.1346 0.173828ZM16.421 8.75468C16.4284 8.87411 16.4284 8.99862 16.4284 9.12058C16.4284 12.8507 13.6833 17.1475 8.66701 17.1475C7.12013 17.1475 5.68621 16.6825 4.47817 15.8821C4.69915 15.9075 4.91031 15.9177 5.13621 15.9177C6.41299 15.9177 7.58665 15.4705 8.52214 14.7133C7.32393 14.6878 6.31723 13.8747 5.97348 12.7567C6.39335 12.8202 6.77147 12.8202 7.20362 12.7059C6.58665 12.5762 6.0321 12.2294 5.63419 11.7245C5.23628 11.2196 5.01954 10.5878 5.0208 9.93623V9.90066C5.38174 10.1116 5.80652 10.2412 6.25094 10.2589C5.87734 10.0013 5.57095 9.65218 5.35893 9.24263C5.14692 8.83307 5.03584 8.3757 5.03554 7.91108C5.03554 7.3851 5.16813 6.90486 5.4063 6.48814C6.0911 7.36055 6.94563 8.07406 7.91436 8.58232C8.88308 9.09057 9.94431 9.38218 11.0291 9.4382C10.6436 7.51977 12.0284 5.96724 13.6931 5.96724C14.4788 5.96724 15.186 6.30773 15.6844 6.85658C16.3007 6.73715 16.89 6.4983 17.4154 6.17814C17.2117 6.83117 16.7844 7.38256 16.2172 7.73067C16.7672 7.66969 17.2976 7.51215 17.7887 7.29108C17.4179 7.85518 16.9538 8.35575 16.421 8.75468Z" fill="#55ACEE"/>
</svg>
