<svg width="22" height="22" viewBox="0 0 22 22" fill="none" xmlns="http://www.w3.org/2000/svg">
<path d="M8.73108 13.957L14.678 10.7731L8.73108 7.5625V13.957V13.957Z" fill="#FAFDFF"/>
<path opacity="0.12" d="M8.73108 7.5625L13.9475 11.1646L14.678 10.7732L8.73108 7.5625V7.5625Z" fill="white"/>
<path d="M21.7681 6.45057C21.7681 6.45057 21.5533 4.88536 20.8918 4.19169C20.0586 3.28458 19.1222 3.28458 18.6841 3.23122C15.6174 3 11.0043 3 11.0043 3H10.9957C10.9957 3 6.38266 3 3.29871 3.23122C2.8692 3.28458 1.93282 3.28458 1.09098 4.19169C0.438109 4.88536 0.223352 6.45057 0.223352 6.45057C0.223352 6.45057 0 8.30036 0 10.1413V11.8665C0 13.7074 0.223352 15.5483 0.223352 15.5483C0.223352 15.5483 0.438109 17.1136 1.09957 17.8072C1.93282 18.7143 3.03239 18.6877 3.52206 18.7766C5.28309 18.9545 10.9957 19.0078 10.9957 19.0078C10.9957 19.0078 15.6173 18.9989 18.6927 18.7677C19.1222 18.7143 20.0586 18.7143 20.9004 17.8072C21.5619 17.1136 21.7766 15.5483 21.7766 15.5483C21.7766 15.5483 22 13.7074 22 11.8665V10.1413C21.9914 8.30036 21.7681 6.45057 21.7681 6.45057ZM8.7279 13.9565V7.56223L14.6724 10.7727L8.7279 13.9565Z" fill="url(#paint0_linear_1603_669)"/>
<defs>
<linearGradient id="paint0_linear_1603_669" x1="10.9956" y1="3" x2="10.9956" y2="19.0126" gradientUnits="userSpaceOnUse">
<stop stop-color="#E52D27"/>
<stop offset="1" stop-color="#BF171D"/>
</linearGradient>
</defs>
</svg>
