<svg width="52" height="43" viewBox="0 0 52 43" fill="none" xmlns="http://www.w3.org/2000/svg">
<path d="M23.2972 25.1323L3.56689 36.9915V40.035L41.2435 61.3396L60.6591 49.9002V46.8567L23.2972 25.1323Z" fill="white"/>
<path fill-rule="evenodd" clip-rule="evenodd" d="M1.37153 35.8167C1.50741 35.5763 1.81244 35.4916 2.05284 35.6274L41.4006 57.8675C41.641 58.0034 41.7257 58.3084 41.5898 58.5488C41.454 58.7892 41.1489 58.8739 40.9085 58.738L1.56078 36.498C1.32038 36.3621 1.23565 36.0571 1.37153 35.8167Z" fill="#004BA4"/>
<path fill-rule="evenodd" clip-rule="evenodd" d="M1.95356 39.2959C2.08944 39.0555 2.39447 38.9708 2.63487 39.1067L43.2246 62.0487C43.465 62.1846 43.5498 62.4896 43.4139 62.73C43.278 62.9704 42.973 63.0552 42.7326 62.9193L2.14281 39.9773C1.90241 39.8414 1.81768 39.5363 1.95356 39.2959Z" fill="#004BA4"/>
<path fill-rule="evenodd" clip-rule="evenodd" d="M21.6691 23.9812C21.8076 23.7423 22.1136 23.6608 22.3525 23.7993L60.8697 46.1257C61.1086 46.2642 61.19 46.5701 61.0515 46.809C60.913 47.0479 60.6071 47.1293 60.3682 46.9908L21.851 24.6645C21.6121 24.526 21.5307 24.2201 21.6691 23.9812Z" fill="#004BA4"/>
<path fill-rule="evenodd" clip-rule="evenodd" d="M1.15412 37.8749C1.01345 37.6373 1.09204 37.3306 1.32967 37.19L23.0638 24.3233C23.3015 24.1826 23.6081 24.2612 23.7488 24.4988C23.8895 24.7364 23.8109 25.0431 23.5733 25.1838L1.83909 38.0505C1.60147 38.1911 1.2948 38.1125 1.15412 37.8749Z" fill="#004BA4"/>
<path fill-rule="evenodd" clip-rule="evenodd" d="M3.06006 36.7804C3.33175 36.731 3.59204 36.9112 3.64144 37.1829C3.82388 38.1863 3.82363 39.1673 3.82339 40.1238C3.82338 40.1586 3.82337 40.1934 3.82337 40.2282C3.82337 40.5043 3.59952 40.7282 3.32337 40.7282C3.04723 40.7282 2.82337 40.5043 2.82337 40.2282C2.82337 40.2042 2.82338 40.1804 2.82338 40.1565C2.82348 39.1755 2.82357 38.2747 2.65757 37.3617C2.60817 37.0901 2.78837 36.8298 3.06006 36.7804Z" fill="#004BA4"/>
<path fill-rule="evenodd" clip-rule="evenodd" d="M6.47821 38.5913C6.75395 38.5763 6.98964 38.7877 7.00465 39.0634C7.0181 39.3106 7.0242 39.5918 7.0301 39.8637C7.03453 40.0679 7.03885 40.2669 7.04608 40.4423C7.06456 40.8904 7.10304 41.3087 7.20035 41.698C7.26733 41.9659 7.10445 42.2374 6.83655 42.3043C6.56865 42.3713 6.29719 42.2084 6.23021 41.9405C6.10847 41.4536 6.06642 40.9563 6.04693 40.4835C6.03738 40.252 6.0333 40.0456 6.02935 39.8459C6.02456 39.6041 6.01998 39.3723 6.00612 39.1178C5.99112 38.842 6.20248 38.6063 6.47821 38.5913Z" fill="#004BA4"/>
<path fill-rule="evenodd" clip-rule="evenodd" d="M9.66651 40.5932C9.9379 40.5422 10.1993 40.7208 10.2503 40.9922C10.2947 41.2284 10.3316 41.5133 10.3671 41.7879C10.3901 41.9653 10.4125 42.1384 10.436 42.2913C10.5026 42.7239 10.5883 43.0946 10.7308 43.3797C10.8543 43.6267 10.7542 43.9271 10.5072 44.0505C10.2602 44.174 9.9599 44.0739 9.83641 43.8269C9.62095 43.396 9.5174 42.8965 9.44767 42.4433C9.41497 42.2308 9.39066 42.0395 9.3678 41.8596C9.33727 41.6194 9.30934 41.3996 9.26748 41.1769C9.21647 40.9055 9.39512 40.6442 9.66651 40.5932Z" fill="#004BA4"/>
<path fill-rule="evenodd" clip-rule="evenodd" d="M13.8175 42.3698C14.093 42.351 14.3316 42.5591 14.3504 42.8346C14.4107 43.7156 14.4565 44.5982 14.4565 45.4924C14.4565 45.7685 14.2327 45.9924 13.9565 45.9924C13.6804 45.9924 13.4565 45.7685 13.4565 45.4924C13.4565 44.6312 13.4123 43.7742 13.3527 42.9028C13.3339 42.6273 13.542 42.3887 13.8175 42.3698Z" fill="#004BA4"/>
<path d="M16.5106 36.6119V10.3077L22.5808 9.90308V32.3627V37.8259C22.1087 38.4104 20.5709 39.512 18.1968 39.2423C15.8226 38.9725 16.0834 37.3762 16.5106 36.6119Z" fill="white"/>
<path d="M19.6805 14.6243C17.8458 14.6243 16.2407 15.0964 16.2407 16.5128V36.8816C15.926 37.3312 15.8226 38.4194 17.9269 39.1748C20.0312 39.9302 21.9287 38.7701 22.4458 37.8933V16.5128C22.4458 14.9615 20.7596 14.6243 19.6805 14.6243Z" fill="#6938C0"/>
<path fill-rule="evenodd" clip-rule="evenodd" d="M16.1753 9.4134C16.4514 9.4134 16.6753 9.63726 16.6753 9.9134L16.6753 37.2505C16.6753 37.8266 16.8052 38.1154 17.001 38.3094C17.2207 38.5273 17.5962 38.7017 18.261 38.8778C20.8586 39.2475 21.8782 38.1164 22.0099 37.5023L22.01 10.1109C22.01 9.83472 22.2338 9.61087 22.51 9.61087C22.7861 9.61087 23.01 9.83472 23.01 10.1109L23.0099 37.5895L23.0033 37.6298C22.7748 39.0177 21.0149 40.2899 18.0892 39.8634L18.0616 39.8593L18.0347 39.8523C17.3315 39.6682 16.7211 39.44 16.297 39.0197C15.846 38.5727 15.6753 37.9837 15.6753 37.2505L15.6753 9.9134C15.6753 9.63726 15.8991 9.4134 16.1753 9.4134Z" fill="#004BA4"/>
<path d="M28.9271 42.896V16.5919L34.9973 16.1873V38.6469V44.1101C34.5252 44.6946 32.9874 45.7962 30.6133 45.5264C28.2391 45.2567 28.4999 43.6604 28.9271 42.896Z" fill="white"/>
<path d="M32.097 20.9084C30.2623 20.9084 28.6572 21.3806 28.6572 22.797V43.1658C28.3425 43.6154 28.2391 44.7035 30.3434 45.4589C32.4477 46.2143 34.3452 45.0543 34.8623 44.1775V22.797C34.8623 21.2457 33.1762 20.9084 32.097 20.9084Z" fill="#6938C0"/>
<path fill-rule="evenodd" clip-rule="evenodd" d="M28.5918 15.6976C28.8679 15.6976 29.0918 15.9214 29.0918 16.1976L29.0918 43.5347C29.0918 44.1108 29.2217 44.3996 29.4175 44.5936C29.6373 44.8114 30.0127 44.9859 30.6775 45.162C33.2751 45.5317 34.2947 44.4006 34.4265 43.7865L34.4265 16.395C34.4265 16.1189 34.6503 15.895 34.9265 15.895C35.2026 15.895 35.4265 16.1189 35.4265 16.395L35.4265 43.8736L35.4198 43.914C35.1913 45.3019 33.4314 46.574 30.5057 46.1475L30.4781 46.1435L30.4512 46.1365C29.748 45.9523 29.1376 45.7242 28.7135 45.3039C28.2625 44.8568 28.0918 44.2679 28.0918 43.5347L28.0918 16.1976C28.0918 15.9214 28.3156 15.6976 28.5918 15.6976Z" fill="#004BA4"/>
<path d="M41.5506 48.9488V22.6447L47.6208 22.24V44.6996V50.1628C47.1487 50.7473 45.6109 51.849 43.2368 51.5792C40.8627 51.3094 41.1235 49.7132 41.5506 48.9488Z" fill="white"/>
<path d="M44.7205 26.9612C42.8858 26.9612 41.2808 27.4333 41.2808 28.8497V49.2185C40.966 49.6681 40.8626 50.7563 42.9669 51.5117C45.0713 52.2671 46.9688 51.107 47.4858 50.2302V28.8497C47.4858 27.2984 45.7997 26.9612 44.7205 26.9612Z" fill="#6938C0"/>
<path fill-rule="evenodd" clip-rule="evenodd" d="M41.2153 21.7503C41.4915 21.7503 41.7153 21.9742 41.7153 22.2503L41.7153 49.5874C41.7153 50.1635 41.8452 50.4523 42.041 50.6464C42.2608 50.8642 42.6363 51.0387 43.301 51.2147C45.8986 51.5844 46.9183 50.4533 47.05 49.8392L47.05 22.4478C47.05 22.1716 47.2739 21.9478 47.55 21.9478C47.8261 21.9478 48.05 22.1716 48.05 22.4478L48.05 49.9264L48.0433 49.9667C47.8149 51.3546 46.0549 52.6268 43.1292 52.2003L43.1017 52.1963L43.0747 52.1892C42.3715 52.0051 41.7612 51.7769 41.3371 51.3566C40.886 50.9096 40.7153 50.3206 40.7153 49.5874L40.7153 22.2503C40.7153 21.9742 40.9392 21.7503 41.2153 21.7503Z" fill="#004BA4"/>
<path d="M7.97723 37.5618L6.50537 37.0098V19.9778L9.5543 21.0028V37.0098L7.97723 37.5618Z" fill="white"/>
<path fill-rule="evenodd" clip-rule="evenodd" d="M6.57165 18.9803C6.84773 18.9862 7.06681 19.2147 7.06098 19.4908C7.00086 22.3384 7.03446 25.1869 7.06817 28.0449C7.06934 28.1442 7.07051 28.2435 7.07168 28.3428C7.10642 31.2979 7.13779 34.2628 7.06093 37.2295C7.05378 37.5056 6.8242 37.7236 6.54815 37.7164C6.2721 37.7093 6.05411 37.4797 6.06127 37.2036C6.13757 34.2584 6.10651 31.3116 6.07175 28.3546C6.07056 28.2533 6.06936 28.152 6.06817 28.0507C6.0345 25.1973 6.00072 22.3342 6.06121 19.4697C6.06704 19.1936 6.29557 18.9745 6.57165 18.9803Z" fill="#004BA4"/>
<path fill-rule="evenodd" clip-rule="evenodd" d="M9.94094 36.8591C10.0967 37.0871 10.0382 37.3982 9.81019 37.554C8.33971 38.5588 7.02203 38.0157 6.38947 37.5412C6.16856 37.3755 6.1238 37.0621 6.28949 36.8412C6.45519 36.6203 6.76859 36.5755 6.9895 36.7412C7.4082 37.0553 8.24581 37.4118 9.24602 36.7283C9.47402 36.5725 9.78514 36.6311 9.94094 36.8591Z" fill="#004BA4"/>
<path fill-rule="evenodd" clip-rule="evenodd" d="M9.60449 21.0286C9.88063 21.0286 10.1045 21.2524 10.1045 21.5286H9.60449H9.10449C9.10449 21.2524 9.32835 21.0286 9.60449 21.0286ZM9.60449 21.5286C9.10449 21.5286 9.10449 21.5285 9.10449 21.5286L9.1045 37.0098C9.1045 37.2859 9.32835 37.5098 9.6045 37.5098C9.88064 37.5098 10.1045 37.2859 10.1045 37.0098L10.1045 21.5286C10.1045 21.5285 10.1045 21.5286 9.60449 21.5286Z" fill="#004BA4"/>
<path d="M23.2972 6.25562L3.56689 18.1147V21.1583L41.2435 42.4629L60.6591 31.0235V27.98L23.2972 6.25562Z" fill="white"/>
<path fill-rule="evenodd" clip-rule="evenodd" d="M1.37153 16.94C1.50741 16.6996 1.81244 16.6149 2.05284 16.7507L41.4006 38.9908C41.641 39.1266 41.7257 39.4317 41.5898 39.6721C41.454 39.9125 41.1489 39.9972 40.9085 39.8613L1.56078 17.6213C1.32038 17.4854 1.23565 17.1804 1.37153 16.94Z" fill="#004BA4"/>
<path fill-rule="evenodd" clip-rule="evenodd" d="M1.95356 20.4192C2.08944 20.1788 2.39447 20.0941 2.63487 20.23L43.2246 43.172C43.465 43.3079 43.5498 43.6129 43.4139 43.8533C43.278 44.0937 42.973 44.1785 42.7326 44.0426L2.14281 21.1005C1.90241 20.9647 1.81768 20.6596 1.95356 20.4192Z" fill="#004BA4"/>
<path fill-rule="evenodd" clip-rule="evenodd" d="M21.6691 5.10446C21.8076 4.86555 22.1136 4.78414 22.3525 4.92262L60.8697 27.249C61.1086 27.3875 61.19 27.6934 61.0515 27.9323C60.913 28.1712 60.6071 28.2526 60.3682 28.1141L21.851 5.78779C21.6121 5.6493 21.5307 5.34337 21.6691 5.10446Z" fill="#004BA4"/>
<path fill-rule="evenodd" clip-rule="evenodd" d="M1.15412 18.9982C1.01345 18.7606 1.09204 18.4539 1.32967 18.3132L23.0638 5.44654C23.3015 5.30587 23.6081 5.38446 23.7488 5.62209C23.8895 5.85971 23.8109 6.16638 23.5733 6.30706L1.83909 19.1738C1.60147 19.3144 1.2948 19.2358 1.15412 18.9982Z" fill="#004BA4"/>
<path fill-rule="evenodd" clip-rule="evenodd" d="M40.8472 39.7229C40.704 39.4867 40.7795 39.1793 41.0156 39.0361L62.0071 26.3141C62.2432 26.171 62.5507 26.2464 62.6938 26.4825C62.8369 26.7187 62.7615 27.0262 62.5254 27.1693L41.5339 39.8913C41.2978 40.0345 40.9903 39.959 40.8472 39.7229Z" fill="#004BA4"/>
<path fill-rule="evenodd" clip-rule="evenodd" d="M39.0308 43.8664C38.8876 43.6303 38.963 43.3228 39.1992 43.1797L62.1505 29.2699C62.3867 29.1267 62.6941 29.2022 62.8373 29.4383C62.9804 29.6745 62.905 29.9819 62.6688 30.1251L39.7175 44.0349C39.4813 44.178 39.1739 44.1026 39.0308 43.8664Z" fill="#004BA4"/>
<path fill-rule="evenodd" clip-rule="evenodd" d="M3.06006 17.9037C3.33175 17.8543 3.59204 18.0345 3.64144 18.3062C3.82388 19.3096 3.82363 20.2906 3.82339 21.247C3.82338 21.2819 3.82337 21.3167 3.82337 21.3514C3.82337 21.6276 3.59952 21.8514 3.32337 21.8514C3.04723 21.8514 2.82337 21.6276 2.82337 21.3514C2.82337 21.3275 2.82338 21.3037 2.82338 21.2798C2.82348 20.2987 2.82357 19.398 2.65757 18.485C2.60817 18.2133 2.78837 17.9531 3.06006 17.9037Z" fill="#004BA4"/>
<path fill-rule="evenodd" clip-rule="evenodd" d="M41.2275 39.4558C41.5037 39.4558 41.7275 39.6797 41.7275 39.9558V42.7378C41.7275 43.0139 41.5037 43.2378 41.2275 43.2378C40.9514 43.2378 40.7275 43.0139 40.7275 42.7378V39.9558C40.7275 39.6797 40.9514 39.4558 41.2275 39.4558Z" fill="#004BA4"/>
<path fill-rule="evenodd" clip-rule="evenodd" d="M6.47821 19.7146C6.75395 19.6996 6.98964 19.911 7.00465 20.1867C7.0181 20.4339 7.0242 20.7151 7.0301 20.987C7.03453 21.1912 7.03885 21.3902 7.04608 21.5656C7.06456 22.0137 7.10304 22.432 7.20035 22.8213C7.26733 23.0892 7.10445 23.3606 6.83655 23.4276C6.56865 23.4946 6.29719 23.3317 6.23021 23.0638C6.10847 22.5768 6.06642 22.0796 6.04693 21.6068C6.03738 21.3753 6.0333 21.1689 6.02935 20.9692C6.02456 20.7274 6.01998 20.4956 6.00612 20.2411C5.99112 19.9653 6.20248 19.7296 6.47821 19.7146Z" fill="#004BA4"/>
<path fill-rule="evenodd" clip-rule="evenodd" d="M9.66651 21.7165C9.9379 21.6654 10.1993 21.8441 10.2503 22.1155C10.2947 22.3517 10.3316 22.6366 10.3671 22.9112C10.3901 23.0886 10.4125 23.2617 10.436 23.4145C10.5026 23.8472 10.5883 24.2179 10.7308 24.503C10.8543 24.75 10.7542 25.0503 10.5072 25.1738C10.2602 25.2973 9.9599 25.1972 9.83641 24.9502C9.62095 24.5193 9.5174 24.0198 9.44767 23.5666C9.41497 23.3541 9.39066 23.1627 9.3678 22.9829C9.33727 22.7427 9.30934 22.5229 9.26748 22.3002C9.21647 22.0288 9.39512 21.7675 9.66651 21.7165Z" fill="#004BA4"/>
<path fill-rule="evenodd" clip-rule="evenodd" d="M13.8175 23.4931C14.093 23.4743 14.3316 23.6824 14.3504 23.9579C14.4107 24.8388 14.4565 25.7215 14.4565 26.6157C14.4565 26.8918 14.2327 27.1157 13.9565 27.1157C13.6804 27.1157 13.4565 26.8918 13.4565 26.6157C13.4565 25.7545 13.4123 24.8975 13.3527 24.0261C13.3339 23.7506 13.542 23.512 13.8175 23.4931Z" fill="#004BA4"/>
<path fill-rule="evenodd" clip-rule="evenodd" d="M16.9214 25.6262C17.1782 25.5247 17.4687 25.6507 17.5701 25.9075C17.9041 26.7529 18.0249 27.5203 18.0249 28.4001C18.0249 28.6762 17.8011 28.9001 17.5249 28.9001C17.2488 28.9001 17.0249 28.6762 17.0249 28.4001C17.0249 27.6273 16.9214 26.987 16.6401 26.2749C16.5386 26.0181 16.6646 25.7276 16.9214 25.6262Z" fill="#004BA4"/>
<path fill-rule="evenodd" clip-rule="evenodd" d="M20.0139 27.4986C20.2798 27.4242 20.5557 27.5795 20.6301 27.8454C20.9315 28.9229 21.1733 29.9567 21.1733 31.1286C21.1733 31.4047 20.9495 31.6286 20.6733 31.6286C20.3972 31.6286 20.1733 31.4047 20.1733 31.1286C20.1733 30.0971 19.9622 29.1701 19.667 28.1148C19.5927 27.8489 19.7479 27.573 20.0139 27.4986Z" fill="#004BA4"/>
<path fill-rule="evenodd" clip-rule="evenodd" d="M23.9018 29.3698C24.1776 29.356 24.4124 29.5684 24.4261 29.8442C24.4293 29.9074 24.4325 29.9707 24.4357 30.0341C24.4833 30.9832 24.5317 31.9463 24.5317 32.9127C24.5317 33.1888 24.3079 33.4127 24.0317 33.4127C23.7556 33.4127 23.5317 33.1888 23.5317 32.9127C23.5317 31.9724 23.4846 31.0329 23.4366 30.0782C23.4335 30.0169 23.4305 29.9555 23.4274 29.8941C23.4136 29.6183 23.626 29.3836 23.9018 29.3698Z" fill="#004BA4"/>
<path fill-rule="evenodd" clip-rule="evenodd" d="M26.3442 30.639C26.6145 30.5828 26.8793 30.7564 26.9354 31.0268C27.2162 32.3781 27.3876 33.6391 27.2587 35.0569C27.2337 35.3319 26.9905 35.5346 26.7155 35.5096C26.4405 35.4846 26.2378 35.2414 26.2628 34.9664C26.3789 33.6894 26.2282 32.5384 25.9564 31.2302C25.9002 30.9599 26.0738 30.6952 26.3442 30.639Z" fill="#004BA4"/>
<path fill-rule="evenodd" clip-rule="evenodd" d="M29.8841 33.0431C30.1599 33.0292 30.3947 33.2416 30.4086 33.5174C30.4136 33.6185 30.4188 33.7199 30.424 33.8215C30.4687 34.6975 30.5141 35.5883 30.5141 36.4811C30.5141 36.7572 30.2903 36.9811 30.0141 36.9811C29.738 36.9811 29.5141 36.7572 29.5141 36.4811C29.5141 35.6154 29.4701 34.7508 29.4252 33.8713C29.4201 33.7702 29.4149 33.669 29.4098 33.5676C29.3959 33.2918 29.6083 33.057 29.8841 33.0431Z" fill="#004BA4"/>
<path fill-rule="evenodd" clip-rule="evenodd" d="M32.9609 34.9409C33.2318 34.8876 33.4946 35.0642 33.5478 35.3351C33.7155 36.1887 33.8084 37.0096 33.6554 37.9275C33.61 38.1999 33.3524 38.3839 33.08 38.3385C32.8076 38.2931 32.6236 38.0355 32.669 37.7631C32.7936 37.0155 32.7241 36.3297 32.5666 35.5279C32.5134 35.2569 32.6899 34.9941 32.9609 34.9409Z" fill="#004BA4"/>
<path fill-rule="evenodd" clip-rule="evenodd" d="M35.6027 36.3019C35.8754 36.2586 36.1317 36.4445 36.175 36.7172C36.3297 37.69 36.4304 38.6273 36.495 39.5961C36.5133 39.8716 36.3049 40.1099 36.0293 40.1282C35.7538 40.1466 35.5155 39.9381 35.4972 39.6626C35.4344 38.7209 35.3368 37.814 35.1874 36.8742C35.1441 36.6015 35.33 36.3453 35.6027 36.3019Z" fill="#004BA4"/>
<path fill-rule="evenodd" clip-rule="evenodd" d="M38.8329 37.8701C39.1091 37.872 39.3314 38.0973 39.3296 38.3735C39.324 39.2016 39.2815 40.0058 39.2234 40.8196C39.2037 41.095 38.9644 41.3023 38.689 41.2827C38.4136 41.263 38.2062 41.0238 38.2259 40.7483C38.2832 39.9462 38.3242 39.1653 38.3296 38.3668C38.3314 38.0906 38.5568 37.8683 38.8329 37.8701Z" fill="#004BA4"/>
<path fill-rule="evenodd" clip-rule="evenodd" d="M43.9606 37.3591C44.2291 37.2947 44.499 37.4601 44.5635 37.7286C44.5663 37.7406 44.5692 37.7525 44.5721 37.7645C44.7276 38.4124 44.8921 39.0975 44.8921 39.8394C44.8921 40.1155 44.6683 40.3394 44.3921 40.3394C44.116 40.3394 43.8921 40.1155 43.8921 39.8394C43.8921 39.2216 43.7537 38.6395 43.5911 37.962C43.5266 37.6935 43.6921 37.4236 43.9606 37.3591Z" fill="#004BA4"/>
<path fill-rule="evenodd" clip-rule="evenodd" d="M46.8101 36.1909C47.0862 36.1933 47.3081 36.4191 47.3057 36.6953C47.3049 36.7914 47.3049 36.8906 47.3048 36.9923C47.3048 37.5179 47.3047 38.1099 47.1911 38.6781C47.1369 38.9488 46.8735 39.1244 46.6027 39.0703C46.3319 39.0161 46.1563 38.7527 46.2105 38.4819C46.303 38.0196 46.3037 37.5447 46.3044 37.0199C46.3046 36.911 46.3048 36.8 46.3057 36.6866C46.3081 36.4104 46.5339 36.1885 46.8101 36.1909Z" fill="#004BA4"/>
<path fill-rule="evenodd" clip-rule="evenodd" d="M49.3877 34.4085C49.6629 34.3853 49.9048 34.5896 49.9279 34.8648C50.0008 35.7296 50.0347 36.5675 50.0347 37.4255C50.0347 37.7017 49.8108 37.9255 49.5347 37.9255C49.2585 37.9255 49.0347 37.7017 49.0347 37.4255C49.0347 36.5946 49.0019 35.7848 48.9315 34.9488C48.9083 34.6736 49.1126 34.4317 49.3877 34.4085Z" fill="#004BA4"/>
<path fill-rule="evenodd" clip-rule="evenodd" d="M51.9614 33.0828C52.2152 32.974 52.5091 33.0916 52.6179 33.3454C52.6442 33.4067 52.6735 33.4725 52.7044 33.5417C52.8194 33.7995 52.9557 34.1051 53.0336 34.404C53.14 34.8125 53.1612 35.2784 52.9204 35.76C52.7969 36.007 52.4966 36.1071 52.2496 35.9836C52.0026 35.8601 51.9025 35.5598 52.026 35.3128C52.1269 35.1109 52.1318 34.9091 52.0659 34.6561C52.0108 34.4447 51.9211 34.2429 51.8132 34.0001C51.7769 33.9184 51.7385 33.8322 51.6988 33.7393C51.59 33.4855 51.7076 33.1916 51.9614 33.0828Z" fill="#004BA4"/>
<path fill-rule="evenodd" clip-rule="evenodd" d="M19.4867 14.1808C17.4717 14.1499 15.5475 14.6435 14.5808 15.7378C14.398 15.9448 14.082 15.9644 13.875 15.7815C13.6681 15.5987 13.6485 15.2828 13.8313 15.0758C15.0957 13.6444 17.4021 13.1487 19.502 13.1809C20.5708 13.1973 21.6291 13.3501 22.5426 13.6119C23.4448 13.8705 24.2542 14.2491 24.7802 14.75C24.9801 14.9404 24.9878 15.2569 24.7974 15.4569C24.607 15.6569 24.2905 15.6646 24.0905 15.4742C23.7324 15.1331 23.1001 14.8119 22.2671 14.5732C21.4455 14.3378 20.4753 14.196 19.4867 14.1808Z" fill="#004BA4"/>
<path fill-rule="evenodd" clip-rule="evenodd" d="M32.013 21.9303C29.9981 21.8994 28.0738 22.393 27.1072 23.4873C26.9244 23.6943 26.6084 23.7139 26.4014 23.5311C26.1945 23.3482 26.1749 23.0323 26.3577 22.8253C27.6221 21.3939 29.9284 20.8982 32.0284 20.9304C33.0972 20.9468 34.1555 21.0997 35.069 21.3614C35.9712 21.62 36.7806 21.9986 37.3065 22.4995C37.5065 22.69 37.5142 23.0064 37.3238 23.2064C37.1333 23.4064 36.8168 23.4141 36.6169 23.2237C36.2588 22.8827 35.6264 22.5615 34.7935 22.3228C33.9719 22.0873 33.0017 21.9455 32.013 21.9303Z" fill="#004BA4"/>
<path fill-rule="evenodd" clip-rule="evenodd" d="M44.5535 28.9034C42.5386 28.8725 40.6144 29.3661 39.6477 30.4605C39.4649 30.6674 39.1489 30.687 38.9419 30.5042C38.735 30.3214 38.7154 30.0054 38.8982 29.7984C40.1626 28.367 42.469 27.8713 44.5689 27.9036C45.6377 27.92 46.696 28.0728 47.6095 28.3346C48.5117 28.5931 49.3211 28.9718 49.847 29.4727C50.047 29.6631 50.0547 29.9796 49.8643 30.1796C49.6739 30.3795 49.3574 30.3872 49.1574 30.1968C48.7993 29.8558 48.167 29.5346 47.334 29.2959C46.5124 29.0604 45.5422 28.9186 44.5535 28.9034Z" fill="#004BA4"/>
<path d="M16.3223 14.1303V5.39805L22.7436 4.96997V9.6354V15.4146C22.2442 16.0329 20.6175 17.1983 18.106 16.9129C15.5945 16.6275 15.8704 14.9389 16.3223 14.1303Z" fill="white"/>
<path d="M19.6754 9.96436C17.7345 9.96436 16.0366 10.4638 16.0366 11.9621L16.0366 17.1953C16.0366 18.2655 16.9201 17.1953 19.2852 17.1953C21.1929 17.1953 22.0537 18.1228 22.6007 17.1953V11.9621C22.6007 10.3211 20.8169 9.96436 19.6754 9.96436Z" fill="#6938C0"/>
<path d="M18.1029 6.12809C17.6512 6.08292 16.4278 5.37526 15.8726 5.02708L15.4774 4.40597C15.6091 4.34009 15.7935 3.94297 15.4774 2.88148C15.1612 1.81999 17.096 0.933544 18.1029 0.623007C21.6261 0.419743 23.0527 1.78048 23.3256 2.48625C23.3539 2.84385 23.3934 3.64939 23.3256 4.01075C23.2409 4.46245 22.7045 4.71653 22.1117 5.42231C21.5188 6.12809 18.6675 6.18455 18.1029 6.12809Z" fill="#6938C0"/>
<path fill-rule="evenodd" clip-rule="evenodd" d="M17.1639 1.44147C16.5658 1.70946 16.1587 2.07543 15.9676 2.42409C15.8649 2.61136 15.8773 2.90499 16.2674 3.30577C16.6424 3.69098 17.2749 4.05435 18.0338 4.25757C21.2712 4.72018 22.5714 3.27829 22.7055 2.46347C22.7252 2.34414 22.6958 2.22493 22.5628 2.07873C22.4182 1.91978 22.1707 1.75598 21.8214 1.60584C21.1267 1.30724 20.1751 1.12401 19.3163 1.07249C18.4995 1.02349 17.7548 1.17674 17.1639 1.44147ZM16.755 0.528877C17.4959 0.19696 18.4017 0.0158275 19.3762 0.0742875C20.3087 0.130229 21.3828 0.328842 22.2163 0.687117C22.6311 0.865422 23.0233 1.09882 23.3026 1.40591C23.5935 1.72575 23.772 2.14144 23.6923 2.62592C23.4292 4.22402 21.3768 5.75552 17.8616 5.24308L17.8341 5.23906L17.8071 5.23201C16.9011 4.9948 16.0837 4.5507 15.5509 4.00328C15.0288 3.46694 14.6772 2.69781 15.0907 1.94345C15.4157 1.35048 16.0215 0.857536 16.755 0.528877Z" fill="#004BA4"/>
<path fill-rule="evenodd" clip-rule="evenodd" d="M23.225 2.45331C23.5012 2.45331 23.725 2.67717 23.725 2.95331L23.725 3.94441L23.7184 3.98475C23.4553 5.58285 21.4029 7.11435 17.8877 6.60192L17.8602 6.5979L17.8332 6.59084C16.9273 6.35364 16.1098 5.90953 15.577 5.36212C15.0549 4.82578 14.7033 4.05664 15.1168 3.30228C15.2495 3.06013 15.5534 2.97142 15.7956 3.10415C16.0377 3.23688 16.1264 3.54078 15.9937 3.78293C15.8911 3.9702 15.9034 4.26383 16.2935 4.66461C16.6685 5.04981 17.301 5.41319 18.0599 5.61641C21.2499 6.07225 22.559 4.67892 22.725 3.85848L22.725 2.95331C22.725 2.67717 22.9489 2.45331 23.225 2.45331Z" fill="#004BA4"/>
<path fill-rule="evenodd" clip-rule="evenodd" d="M17.5706 10.7857C17.0566 11.016 16.7134 11.3277 16.5549 11.6169C16.4849 11.7447 16.4743 11.9713 16.8068 12.3129C17.1242 12.639 17.6646 12.9511 18.3175 13.1265C21.1269 13.5268 22.2152 12.2732 22.3242 11.6107C22.3376 11.5295 22.3213 11.4441 22.2151 11.3273C22.0973 11.1978 21.8902 11.0591 21.5891 10.9297C20.9909 10.6726 20.1672 10.5135 19.4215 10.4687C18.7178 10.4265 18.0774 10.5586 17.5706 10.7857ZM17.1617 9.8731C17.8185 9.57886 18.62 9.41884 19.4814 9.47052C20.3008 9.51967 21.247 9.69417 21.984 10.011C22.3506 10.1685 22.7024 10.3768 22.9549 10.6545C23.219 10.9449 23.3844 11.3268 23.3109 11.7732C23.073 13.2188 21.2327 14.5621 18.1453 14.112L18.1177 14.108L18.0908 14.101C17.2907 13.8915 16.5654 13.4986 16.0902 13.0104C15.6257 12.5332 15.2971 11.8312 15.678 11.1363C15.9704 10.6028 16.5123 10.1641 17.1617 9.8731Z" fill="#004BA4"/>
<path fill-rule="evenodd" clip-rule="evenodd" d="M15.9675 4.4809C16.2436 4.4809 16.4675 4.70476 16.4675 4.9809L16.4675 17.093C16.4675 17.3692 16.2436 17.593 15.9675 17.593C15.6913 17.593 15.4675 17.3692 15.4675 17.093L15.4675 4.9809C15.4675 4.70476 15.6913 4.4809 15.9675 4.4809ZM22.6686 4.68979C22.9447 4.68979 23.1686 4.91365 23.1686 5.18979L23.1686 17.093C23.1686 17.3692 22.9447 17.593 22.6686 17.593C22.3924 17.593 22.1686 17.3692 22.1686 17.093L22.1686 5.18979C22.1686 4.91365 22.3924 4.68979 22.6686 4.68979Z" fill="#004BA4"/>
<path d="M28.8721 21.3242V12.5919L35.2934 12.1638V16.8293V22.6084C34.794 23.2268 33.1673 24.3921 30.6558 24.1068C28.1444 23.8214 28.4202 22.1328 28.8721 21.3242Z" fill="white"/>
<path d="M32.2252 17.1582C30.2843 17.1582 28.5864 17.6576 28.5864 19.156L28.5864 24.3891C28.5864 25.4593 29.3693 25.1939 31.7344 25.1939C33.6421 25.1939 34.6035 25.3166 35.1505 24.3891V19.156C35.1505 17.5149 33.3668 17.1582 32.2252 17.1582Z" fill="#6938C0"/>
<path d="M30.6527 13.3219C30.201 13.2768 28.9776 12.5691 28.4224 12.2209L28.0272 11.5998C28.1589 11.5339 28.3434 11.1368 28.0272 10.0753C27.711 9.01384 29.6458 8.12739 30.6527 7.81685C34.1759 7.61359 35.6025 8.97433 35.8754 9.6801C35.9037 10.0377 35.9432 10.8432 35.8754 11.2046C35.7907 11.6563 35.2544 11.9104 34.6615 12.6162C34.0686 13.3219 31.2173 13.3784 30.6527 13.3219Z" fill="#6938C0"/>
<path fill-rule="evenodd" clip-rule="evenodd" d="M29.7137 8.63532C29.1156 8.9033 28.7085 9.26928 28.5174 9.61794C28.4148 9.80521 28.4271 10.0988 28.8172 10.4996C29.1922 10.8848 29.8247 11.2482 30.5836 11.4514C33.821 11.914 35.1212 10.4721 35.2554 9.65732C35.275 9.53798 35.2456 9.41878 35.1126 9.27258C34.968 9.11363 34.7205 8.94982 34.3712 8.79969C33.6765 8.50108 32.7249 8.31786 31.8661 8.26634C31.0493 8.21734 30.3046 8.37058 29.7137 8.63532ZM29.3048 7.72273C30.0457 7.39081 30.9515 7.20968 31.926 7.26814C32.8585 7.32408 33.9326 7.52269 34.7661 7.88096C35.1809 8.05927 35.5731 8.29267 35.8524 8.59976C36.1433 8.9196 36.3218 9.33528 36.2421 9.81976C35.979 11.4179 33.9266 12.9494 30.4114 12.4369L30.3839 12.4329L30.3569 12.4259C29.451 12.1886 28.6335 11.7445 28.1007 11.1971C27.5786 10.6608 27.227 9.89165 27.6405 9.13729C27.9655 8.54433 28.5713 8.05138 29.3048 7.72273Z" fill="#004BA4"/>
<path fill-rule="evenodd" clip-rule="evenodd" d="M35.7748 9.64716C36.051 9.64716 36.2748 9.87102 36.2748 10.1472L36.2748 11.1383L36.2682 11.1786C36.0051 12.7767 33.9527 14.3082 30.4375 13.7958L30.41 13.7917L30.383 13.7847C29.4771 13.5475 28.6596 13.1034 28.1268 12.556C27.6047 12.0196 27.2531 11.2505 27.6666 10.4961C27.7993 10.254 28.1032 10.1653 28.3454 10.298C28.5875 10.4307 28.6762 10.7346 28.5435 10.9768C28.4409 11.164 28.4532 11.4577 28.8433 11.8585C29.2183 12.2437 29.8508 12.607 30.6097 12.8103C33.7997 13.2661 35.1088 11.8728 35.2748 11.0523L35.2748 10.1472C35.2748 9.87102 35.4987 9.64716 35.7748 9.64716Z" fill="#004BA4"/>
<path fill-rule="evenodd" clip-rule="evenodd" d="M30.1204 17.9795C29.6064 18.2099 29.2632 18.5216 29.1047 18.8108C29.0347 18.9386 29.0241 19.1651 29.3566 19.5067C29.674 19.8328 30.2144 20.1449 30.8673 20.3204C33.6767 20.7206 34.765 19.467 34.874 18.8046C34.8874 18.7234 34.8711 18.6379 34.7649 18.5212C34.6471 18.3917 34.44 18.2529 34.1389 18.1235C33.5407 17.8664 32.717 17.7073 31.9713 17.6626C31.2676 17.6204 30.6272 17.7525 30.1204 17.9795ZM29.7115 17.0669C30.3683 16.7727 31.1698 16.6127 32.0312 16.6644C32.8506 16.7135 33.7968 16.888 34.5338 17.2048C34.9004 17.3624 35.2522 17.5707 35.5047 17.8484C35.7688 18.1388 35.9342 18.5207 35.8607 18.967C35.6228 20.4126 33.7825 21.756 30.6951 21.3059L30.6675 21.3019L30.6406 21.2948C29.8405 21.0853 29.1153 20.6925 28.64 20.2042C28.1755 19.7271 27.8469 19.025 28.2278 18.3301C28.5202 17.7966 29.0621 17.3579 29.7115 17.0669Z" fill="#004BA4"/>
<path fill-rule="evenodd" clip-rule="evenodd" d="M28.5173 11.6747C28.7934 11.6747 29.0173 11.8986 29.0173 12.1747L29.0173 24.2869C29.0173 24.563 28.7934 24.7869 28.5173 24.7869C28.2411 24.7869 28.0173 24.563 28.0173 24.2869L28.0173 12.1747C28.0173 11.8986 28.2411 11.6747 28.5173 11.6747ZM35.2184 11.8836C35.4945 11.8836 35.7184 12.1075 35.7184 12.3836L35.7184 24.2869C35.7184 24.563 35.4945 24.7869 35.2184 24.7869C34.9422 24.7869 34.7184 24.563 34.7184 24.2869L34.7184 12.3836C34.7184 12.1075 34.9422 11.8836 35.2184 11.8836Z" fill="#004BA4"/>
<path d="M41.4219 28.1303V19.3981L47.8433 18.97V23.6354V29.4146C47.3438 30.0329 45.7171 31.1983 43.2056 30.9129C40.6942 30.6275 40.97 28.9389 41.4219 28.1303Z" fill="white"/>
<path d="M44.775 23.9644C42.8341 23.9644 41.1362 24.4638 41.1362 25.9621L41.1362 31.1953C41.1362 32.2602 42.0414 32.2602 44.3804 32.2601H44.4156C46.3232 32.2601 47.1533 32.1228 47.7003 31.1953V25.9621C47.7003 24.3211 45.9166 23.9644 44.775 23.9644Z" fill="#6938C0"/>
<path d="M43.2025 20.1281C42.7508 20.0829 41.5274 19.3753 40.9722 19.0271L40.577 18.406C40.7087 18.3401 40.8932 17.943 40.577 16.8815C40.2608 15.82 42.1956 14.9335 43.2025 14.623C46.7258 14.4197 48.1524 15.7805 48.4252 16.4863C48.4535 16.8439 48.493 17.6494 48.4252 18.0107C48.3406 18.4624 47.8042 18.7165 47.2113 19.4223C46.6184 20.1281 43.7671 20.1845 43.2025 20.1281Z" fill="#6938C0"/>
<path fill-rule="evenodd" clip-rule="evenodd" d="M42.2635 15.4415C41.6654 15.7095 41.2583 16.0754 41.0672 16.4241C40.9646 16.6114 40.9769 16.905 41.367 17.3058C41.742 17.691 42.3745 18.0543 43.1334 18.2576C46.3708 18.7202 47.671 17.2783 47.8052 16.4635C47.8248 16.3441 47.7954 16.2249 47.6624 16.0787C47.5179 15.9198 47.2703 15.756 46.921 15.6058C46.2263 15.3072 45.2747 15.124 44.4159 15.0725C43.5991 15.0235 42.8544 15.1767 42.2635 15.4415ZM41.8546 14.5289C42.5955 14.197 43.5013 14.0158 44.4758 14.0743C45.4083 14.1302 46.4824 14.3288 47.3159 14.6871C47.7308 14.8654 48.1229 15.0988 48.4022 15.4059C48.6931 15.7258 48.8716 16.1414 48.7919 16.6259C48.5288 18.224 46.4764 19.7555 42.9612 19.2431L42.9337 19.2391L42.9067 19.232C42.0008 18.9948 41.1833 18.5507 40.6505 18.0033C40.1284 17.4669 39.7768 16.6978 40.1903 15.9434C40.5153 15.3505 41.1211 14.8575 41.8546 14.5289Z" fill="#004BA4"/>
<path fill-rule="evenodd" clip-rule="evenodd" d="M48.3246 16.4533C48.6008 16.4533 48.8246 16.6772 48.8246 16.9533L48.8246 17.9444L48.818 17.9848C48.5549 19.5829 46.5025 21.1144 42.9874 20.6019L42.9598 20.5979L42.9328 20.5908C42.0269 20.3536 41.2094 19.9095 40.6766 19.3621C40.1545 18.8258 39.8029 18.0566 40.2164 17.3023C40.3491 17.0601 40.653 16.9714 40.8952 17.1041C41.1373 17.2369 41.226 17.5408 41.0933 17.7829C40.9907 17.9702 41.003 18.2638 41.3932 18.6646C41.7681 19.0498 42.4006 19.4132 43.1595 19.6164C46.3495 20.0722 47.6586 18.6789 47.8246 17.8585L47.8246 16.9533C47.8246 16.6772 48.0485 16.4533 48.3246 16.4533Z" fill="#004BA4"/>
<path fill-rule="evenodd" clip-rule="evenodd" d="M42.6702 24.7857C42.1562 25.016 41.813 25.3277 41.6545 25.6169C41.5845 25.7447 41.5739 25.9713 41.9064 26.3129C42.2238 26.639 42.7642 26.9511 43.4171 27.1265C46.2265 27.5268 47.3148 26.2732 47.4238 25.6107C47.4372 25.5295 47.4209 25.4441 47.3147 25.3273C47.1969 25.1978 46.9898 25.0591 46.6887 24.9297C46.0905 24.6726 45.2668 24.5135 44.5211 24.4687C43.8174 24.4265 43.177 24.5586 42.6702 24.7857ZM42.2613 23.8731C42.9181 23.5789 43.7196 23.4188 44.581 23.4705C45.4004 23.5197 46.3466 23.6942 47.0836 24.011C47.4502 24.1685 47.802 24.3768 48.0545 24.6545C48.3186 24.9449 48.484 25.3268 48.4106 25.7732C48.1726 27.2188 46.3324 28.5621 43.2449 28.112L43.2173 28.108L43.1904 28.101C42.3903 27.8915 41.6651 27.4986 41.1898 27.0104C40.7253 26.5332 40.3967 25.8312 40.7776 25.1363C41.07 24.6028 41.6119 24.1641 42.2613 23.8731Z" fill="#004BA4"/>
<path fill-rule="evenodd" clip-rule="evenodd" d="M41.0671 18.4809C41.3432 18.4809 41.5671 18.7048 41.5671 18.9809L41.5671 31.093C41.5671 31.3692 41.3432 31.593 41.0671 31.593C40.7909 31.593 40.5671 31.3692 40.5671 31.093L40.5671 18.9809C40.5671 18.7048 40.7909 18.4809 41.0671 18.4809ZM47.7682 18.6898C48.0443 18.6898 48.2682 18.9136 48.2682 19.1898L48.2682 31.093C48.2682 31.3692 48.0443 31.593 47.7682 31.593C47.492 31.593 47.2682 31.3692 47.2682 31.093L47.2682 19.1898C47.2682 18.9136 47.492 18.6898 47.7682 18.6898Z" fill="#004BA4"/>
<path d="M41.2824 55.3865L39.8105 54.8345V37.8025L42.8595 38.8275V54.8345L41.2824 55.3865Z" fill="white"/>
<path fill-rule="evenodd" clip-rule="evenodd" d="M39.8768 36.805C40.1529 36.8109 40.372 37.0394 40.3662 37.3155C40.306 40.1632 40.3396 43.0116 40.3733 45.8696C40.3745 45.9689 40.3757 46.0682 40.3769 46.1675C40.4116 49.1226 40.443 52.0875 40.3661 55.0542C40.359 55.3303 40.1294 55.5483 39.8533 55.5411C39.5773 55.534 39.3593 55.3044 39.3664 55.0283C39.4427 52.0831 39.4117 49.1363 39.3769 46.1793C39.3757 46.078 39.3745 45.9767 39.3733 45.8754C39.3397 43.022 39.3059 40.1589 39.3664 37.2944C39.3722 37.0183 39.6007 36.7992 39.8768 36.805Z" fill="#004BA4"/>
<path fill-rule="evenodd" clip-rule="evenodd" d="M42.9097 38.8533C43.1858 38.8533 43.4097 39.0771 43.4097 39.3533H42.9097H42.4097C42.4097 39.0771 42.6335 38.8533 42.9097 38.8533ZM42.9097 39.3533C42.4097 39.3533 42.4097 39.3532 42.4097 39.3533L42.4097 54.8345C42.4097 55.1106 42.6335 55.3345 42.9097 55.3345C43.1858 55.3345 43.4097 55.1106 43.4097 54.8345L43.4097 39.3533C43.4097 39.3532 43.4097 39.3533 42.9097 39.3533Z" fill="#004BA4"/>
<path fill-rule="evenodd" clip-rule="evenodd" d="M22.2178 12.218C22.3282 11.9649 22.6228 11.8492 22.876 11.9595C23.7006 12.319 24.2693 12.7861 24.6588 13.3029C25.0466 13.8176 25.2382 14.357 25.3444 14.8351L25.3673 14.9382L25.3466 15.0417C25.0557 16.4961 23.636 17.2464 22.3934 17.636C21.1079 18.0391 19.7606 18.1377 19.2155 18.1377C17.8263 18.1377 16.1299 17.8479 14.6685 16.7784C13.9525 16.2544 13.5299 15.6949 13.4068 15.0971C13.2814 14.4881 13.4892 13.9514 13.7928 13.53C14.377 12.7194 15.4304 12.1703 15.8959 11.9616C16.1479 11.8486 16.4437 11.9613 16.5567 12.2133C16.6696 12.4653 16.5569 12.7611 16.3049 12.8741C15.8622 13.0726 15.0232 13.533 14.6041 14.1146C14.4061 14.3894 14.3346 14.6445 14.3862 14.8955C14.4402 15.1577 14.651 15.5264 15.2591 15.9714C16.4897 16.872 17.9508 17.1377 19.2155 17.1377C19.6879 17.1377 20.9296 17.047 22.0943 16.6818C23.2552 16.3178 24.1242 15.7524 24.3428 14.9445C24.2548 14.5949 24.112 14.239 23.8601 13.9047C23.584 13.5383 23.1584 13.1735 22.4764 12.8762C22.2232 12.7658 22.1075 12.4712 22.2178 12.218Z" fill="#004BA4"/>
<path fill-rule="evenodd" clip-rule="evenodd" d="M34.7442 19.9676C34.8545 19.7144 35.1492 19.5987 35.4023 19.709C36.227 20.0685 36.7957 20.5357 37.1851 21.0524C37.5729 21.5671 37.7646 22.1066 37.8708 22.5847L37.8937 22.6877L37.873 22.7912C37.5821 24.2456 36.1623 24.9959 34.9198 25.3855C33.6342 25.7886 32.287 25.8872 31.7419 25.8872C30.3526 25.8872 28.6562 25.5974 27.1949 24.5279C26.4789 24.0039 26.0562 23.4444 25.9332 22.8466C25.8078 22.2376 26.0156 21.7009 26.3192 21.2795C26.9033 20.4689 27.9567 19.9198 28.4223 19.7111C28.6742 19.5982 28.9701 19.7109 29.083 19.9628C29.196 20.2148 29.0833 20.5107 28.8313 20.6236C28.3886 20.8221 27.5496 21.2826 27.1305 21.8642C26.9325 22.1389 26.8609 22.394 26.9126 22.645C26.9666 22.9072 27.1774 23.2759 27.7854 23.7209C29.0161 24.6215 30.4772 24.8872 31.7419 24.8872C32.2143 24.8872 33.4559 24.7965 34.6206 24.4313C35.7815 24.0673 36.6506 23.5019 36.8692 22.694C36.7811 22.3444 36.6383 21.9885 36.3865 21.6542C36.1104 21.2878 35.6848 20.923 35.0027 20.6257C34.7496 20.5154 34.6339 20.2207 34.7442 19.9676Z" fill="#004BA4"/>
<path fill-rule="evenodd" clip-rule="evenodd" d="M47.2847 26.9407C47.3951 26.6876 47.6897 26.5718 47.9429 26.6822C48.7675 27.0416 49.3362 27.5088 49.7257 28.0256C50.1135 28.5402 50.3051 29.0797 50.4113 29.5578L50.4342 29.6608L50.4135 29.7643C50.1226 31.2187 48.7028 31.9691 47.4603 32.3587C46.1748 32.7617 44.8275 32.8604 44.2824 32.8604C42.8932 32.8604 41.1968 32.5705 39.7354 31.501C39.0194 30.977 38.5968 30.4176 38.4737 29.8198C38.3483 29.2107 38.5561 28.674 38.8597 28.2527C39.4439 27.442 40.4973 26.8929 40.9628 26.6843C41.2148 26.5713 41.5106 26.684 41.6236 26.936C41.7365 27.188 41.6238 27.4838 41.3718 27.5968C40.9291 27.7952 40.0901 28.2557 39.671 28.8373C39.473 29.1121 39.4015 29.3672 39.4531 29.6181C39.5071 29.8803 39.7179 30.2491 40.326 30.6941C41.5566 31.5947 43.0177 31.8604 44.2824 31.8604C44.7548 31.8604 45.9965 31.7696 47.1612 31.4045C48.3221 31.0405 49.1911 30.4751 49.4097 29.6672C49.3217 29.3176 49.1789 28.9616 48.927 28.6274C48.6509 28.261 48.2253 27.8962 47.5433 27.5989C47.2901 27.4885 47.1744 27.1938 47.2847 26.9407Z" fill="#004BA4"/>
</svg>
