<svg width="47" height="42" viewBox="0 0 47 42" fill="none" xmlns="http://www.w3.org/2000/svg">
<g clip-path="url(#clip0_1838_24912)">
<path d="M33.6783 24.2063L21.723 16.2361C20.6879 15.5633 19.3423 16.2879 19.3423 17.53V33.4704C19.3423 34.7125 20.7397 35.437 21.723 34.7642L33.6783 26.794C34.6098 26.173 34.6098 24.8274 33.6783 24.2063Z" fill="#0278D5"/>
<path d="M25.4998 0.916748C11.9402 0.916748 0.916504 11.9404 0.916504 25.5001C0.916504 39.0597 11.9402 50.0834 25.4998 50.0834C39.0595 50.0834 50.0832 39.0597 50.0832 25.5001C50.0832 11.9404 39.0595 0.916748 25.4998 0.916748ZM25.4998 46.2536C14.0621 46.2536 4.74633 36.9378 4.74633 25.5001C4.74633 14.0624 14.0621 4.74657 25.4998 4.74657C36.9376 4.74657 46.2533 14.0624 46.2533 25.5001C46.2533 36.9378 36.9376 46.2536 25.4998 46.2536Z" fill="#0278D5"/>
</g>
<defs>
<clipPath id="clip0_1838_24912">
<rect width="49.1667" height="49.1667" fill="white" transform="translate(0.916504 0.916748)"/>
</clipPath>
</defs>
</svg>
