<svg fill="none" viewBox="0 0 222 220" xmlns="http://www.w3.org/2000/svg"><path clip-rule="evenodd" d="m116.069 60.8779c-.003.0663.027.1298.08.1695l101.195 75.5276c.534.399.536 1.197.006 1.599l-107.323 81.308c-.356.27-.849.271-1.206.002l-107.80383-81.341c-.519433-.392-.532122-1.168-.025783-1.577l23.429913-18.912c.0723-.058.1752-.059.2485-.002l8.4324 6.562c.1569.122.1538.36-.0062.478l-14.9675 11.036c-.1076.079-.1086.24-.002.32l84.1255 63.685c.131.1.32.006.32-.16v-39.737l-102.172405-76.7103c-.532965-.4002-.532758-1.1999.000408-1.5997l108.434997-81.326001c.35-.2630733.832-.266967 1.187-.009608l110.725 80.275809c.566.4102.547 1.2592-.036 1.6442l-27.838 18.3806-8.991-8.7965c-.093-.0916-.075-.2469.037-.3144l16.474-9.907c.124-.0747.13-.2524.012-.3353l-82.316-57.5434c-.129-.0903-.307-.0026-.314.1548zm-10.491-40.5626c0-.1648-.188-.2589-.319-.1601l-81.4958 61.0767c-.1065.0798-.1068.2394-.0006.3196l85.3874 64.5065c.165.125.391.135.566.025l41.643-26.013c.072-.045.166-.039.232.015l10.383 8.494c.106.087.096.252-.02.324l-48.462 30.449c-.058.037-.094.101-.094.17v40.565c0 .167.191.26.322.159l81.328-62.743c.104-.08.103-.238-.001-.317l-84.754-64.7113c-.072-.0554-.173-.0547-.245.0018l-36.8032 28.9875c-.0767.061-.1857.057-.2581-.009l-9.0871-8.2365c-.0918-.0831-.0867-.2288.0106-.3054l41.5918-32.7169c.048-.0379.076-.0959.076-.1572z" fill="#f3f3fa" fill-rule="evenodd"/></svg>