<svg width="23" height="17" viewBox="0 0 23 17" fill="none" xmlns="http://www.w3.org/2000/svg">
<path d="M21.9027 4.00331C21.9027 4.00331 21.6879 2.4381 21.0265 1.74443C20.1932 0.837318 19.2569 0.837318 18.8187 0.783958C15.7521 0.552734 11.1389 0.552734 11.1389 0.552734H11.1303C11.1303 0.552734 6.51731 0.552734 3.43335 0.783958C3.00384 0.837318 2.06746 0.837318 1.22562 1.74443C0.572753 2.4381 0.357995 4.00331 0.357995 4.00331C0.357995 4.00331 0.134644 5.8531 0.134644 7.694V9.41928C0.134644 11.2602 0.357995 13.1011 0.357995 13.1011C0.357995 13.1011 0.572753 14.6663 1.23421 15.36C2.06746 16.2671 3.16703 16.2404 3.65671 16.3293C5.41774 16.5072 11.1303 16.5605 11.1303 16.5605C11.1303 16.5605 15.752 16.5517 18.8273 16.3204C19.2569 16.2671 20.1932 16.2671 21.0351 15.36C21.6965 14.6663 21.9113 13.1011 21.9113 13.1011C21.9113 13.1011 22.1346 11.2602 22.1346 9.41928V7.694C22.126 5.8531 21.9027 4.00331 21.9027 4.00331ZM8.86254 11.5092V5.11496L14.807 8.32542L8.86254 11.5092Z" fill="url(#paint0_linear)"/>
<defs>
<linearGradient id="paint0_linear" x1="11.1302" y1="0.552734" x2="11.1302" y2="16.5653" gradientUnits="userSpaceOnUse">
<stop stop-color="#E52D27"/>
<stop offset="1" stop-color="#BF171D"/>
</linearGradient>
</defs>
</svg>
