<svg width="24" height="23" viewBox="0 0 24 23" fill="none" xmlns="http://www.w3.org/2000/svg">
<path d="M1 14.8333H0.5V15.3333V22V22.5H1H7.81278H8.31278V22V15.3333V14.8333H7.81278H1ZM14.2759 5.64264L13.9107 6L14.2759 6.35736L18.1297 10.1286L18.4794 10.4708L18.8291 10.1286L22.683 6.35737L23.0482 6L22.683 5.64264L18.8291 1.8714L18.4794 1.5292L18.1297 1.8714L14.2759 5.64264ZM4.40639 9.16667C6.47796 9.16667 8.5 7.71632 8.5 5.52056C8.5 3.39402 6.55429 1.5 4.40639 1.5C2.25922 1.5 0.5 3.20608 0.5 5.33333C0.5 7.46059 2.25922 9.16667 4.40639 9.16667ZM18.0319 22.5C20.1791 22.5 21.9383 20.7939 21.9383 18.6667C21.9383 16.5394 20.1791 14.8333 18.0319 14.8333C15.8848 14.8333 14.1256 16.5394 14.1256 18.6667C14.1256 20.7939 15.8848 22.5 18.0319 22.5Z" stroke="#5B44BA"/>
</svg>
