<svg width="15" height="16" viewBox="0 0 15 16" fill="none" xmlns="http://www.w3.org/2000/svg">
<g clip-path="url(#clip0)">
<path d="M0.450451 1.91895H14.5495C14.7973 1.91895 15 2.12165 15 2.3694C15 2.61714 14.7973 2.81985 14.5495 2.81985H0.450451C0.202703 2.81985 0 2.61714 0 2.3694C0 2.12165 0.202703 1.91895 0.450451 1.91895Z" fill="white"/>
<path d="M0.450312 5.65723H10.3152C10.5629 5.65723 10.7656 5.85993 10.7656 6.10768C10.7656 6.35542 10.5629 6.55813 10.3152 6.55813H0.450312C0.202564 6.55813 -0.000139236 6.35542 -0.000139236 6.10768C-0.000139236 5.85993 0.202564 5.65723 0.450312 5.65723Z" fill="white"/>
<path d="M0.450451 9.44141H14.5495C14.7973 9.44141 15 9.64411 15 9.89185C15 10.1396 14.7973 10.3423 14.5495 10.3423H0.450451C0.202703 10.3423 0 10.1396 0 9.89185C0 9.64411 0.202703 9.44141 0.450451 9.44141Z" fill="white"/>
<path d="M0.450639 13.1797H6.80199C7.04974 13.1797 7.25244 13.3824 7.25244 13.6301C7.25244 13.8779 7.04974 14.0806 6.80199 14.0806H0.450639C0.202891 14.0806 0.000188828 13.8779 0.000188828 13.6301C0.000188828 13.3824 0.202891 13.1797 0.450639 13.1797Z" fill="white"/>
</g>
<defs>
<clipPath id="clip0">
<rect width="15" height="15" fill="white" transform="matrix(-1 0 0 1 15 0.5)"/>
</clipPath>
</defs>
</svg>
