<svg width="15" height="15" viewBox="0 0 15 15" fill="none" xmlns="http://www.w3.org/2000/svg">
<g opacity="0.6" clip-path="url(#clip0)">
<path d="M0.450451 1.41895H14.5495C14.7973 1.41895 15 1.62165 15 1.8694C15 2.11714 14.7973 2.31985 14.5495 2.31985H0.450451C0.202703 2.31985 0 2.11714 0 1.8694C0 1.62165 0.202703 1.41895 0.450451 1.41895Z" fill="black"/>
<path d="M0.450312 5.15723H10.3152C10.5629 5.15723 10.7656 5.35993 10.7656 5.60768C10.7656 5.85542 10.5629 6.05813 10.3152 6.05813H0.450312C0.202564 6.05813 -0.000139236 5.85542 -0.000139236 5.60768C-0.000139236 5.35993 0.202564 5.15723 0.450312 5.15723Z" fill="black"/>
<path d="M0.450451 8.94141H14.5495C14.7973 8.94141 15 9.14411 15 9.39185C15 9.6396 14.7973 9.8423 14.5495 9.8423H0.450451C0.202703 9.8423 0 9.6396 0 9.39185C0 9.14411 0.202703 8.94141 0.450451 8.94141Z" fill="black"/>
<path d="M0.450151 12.6797H6.8015C7.04925 12.6797 7.25195 12.8824 7.25195 13.1301C7.25195 13.3779 7.04925 13.5806 6.8015 13.5806H0.450151C0.202403 13.5806 -0.000299454 13.3779 -0.000299454 13.1301C-0.000299454 12.8824 0.202403 12.6797 0.450151 12.6797Z" fill="black"/>
</g>
<defs>
<clipPath id="clip0">
<rect width="15" height="15" fill="white" transform="matrix(-1 0 0 1 15 0)"/>
</clipPath>
</defs>
</svg>
