<svg width="80" height="80" viewBox="0 0 80 80" fill="none" xmlns="http://www.w3.org/2000/svg">
<g clip-path="url(#clip0)">
<path d="M31.9663 55.9998C31.5397 55.9998 31.113 55.8365 30.7863 55.5132L16.9197 41.6465C16.293 41.0199 16.2663 40.0165 16.853 39.3565L32.9197 21.3598C33.0197 21.2165 33.153 21.0765 33.303 20.9565C44.7263 7.85652 62.3063 -0.363482 78.3697 -0.000148445C79.263 0.0198516 79.9797 0.739852 79.9997 1.62985C80.2297 12.4999 76.5597 24.1832 69.653 34.5265C69.1397 35.2932 68.0997 35.4932 67.343 34.9865C66.5797 34.4765 66.3697 33.4399 66.8797 32.6732C72.9697 23.5532 76.4897 12.9532 76.6697 3.32652C62.2063 3.57985 45.9363 11.4565 35.693 23.2899C35.623 23.3732 35.543 23.4465 35.4597 23.5132L20.393 40.4032L33.143 53.1532C33.793 53.8032 33.793 54.8599 33.143 55.5098C32.8197 55.8365 32.393 55.9998 31.9663 55.9998Z" fill="#109B67"/>
<path d="M21.8034 38.039C21.7234 38.039 21.6434 38.0356 21.5634 38.0223L5.60671 35.7356C4.98004 35.6456 4.46338 35.2123 4.26338 34.6123C4.06338 34.0123 4.22004 33.3523 4.66671 32.9056C12.7 24.8723 23.23 20.5156 34.4367 20.5156C35.3567 20.5156 36.1034 21.2623 36.1034 22.1823C36.1034 23.1023 35.3567 23.849 34.4367 23.849C25.22 23.849 16.5 27.0523 9.54671 32.9323L22.04 34.7223C22.95 34.8556 23.5834 35.6956 23.4534 36.609C23.33 37.439 22.6167 38.039 21.8034 38.039Z" fill="#109B67"/>
<path d="M57.1101 31.2246C54.8835 31.2246 52.7901 30.358 51.2168 28.7846C47.9668 25.5346 47.9668 20.248 51.2168 16.998C54.3601 13.8513 59.8501 13.848 63.0001 16.998C66.2501 20.248 66.2501 25.5346 63.0001 28.7846C61.4268 30.358 59.3335 31.2246 57.1101 31.2246ZM57.1101 17.8946C55.7735 17.8946 54.5201 18.4146 53.5735 19.358C51.6235 21.308 51.6235 24.4813 53.5735 26.4313C55.4568 28.318 58.7535 28.3213 60.6435 26.4313C62.5935 24.4813 62.5935 21.308 60.6435 19.358C59.7001 18.4113 58.4435 17.8946 57.1101 17.8946ZM61.8235 27.608H61.8568H61.8235Z" fill="#109B67"/>
<path d="M1.66738 79.999C1.23072 79.999 0.804051 79.829 0.487385 79.5124C0.0540516 79.079 -0.105948 78.4424 0.0707182 77.8557C0.614052 76.0324 5.51072 59.919 9.07738 56.3523C13.0941 52.3357 19.6307 52.3357 23.6474 56.3523C27.664 60.369 27.664 66.9057 23.6474 70.9224C20.0807 74.489 3.97072 79.3857 2.14405 79.9324C1.99072 79.9757 1.82738 79.999 1.66738 79.999ZM16.364 56.669C14.5807 56.669 12.7941 57.349 11.4341 58.7057C9.51072 60.6323 6.31072 69.2357 4.20072 75.7957C10.7607 73.6824 19.3674 70.4824 21.2907 68.559C24.0074 65.8424 24.0074 61.419 21.2907 58.7023C19.934 57.349 18.1474 56.669 16.364 56.669Z" fill="#109B67"/>
<path d="M58.3337 80.0013C46.387 80.0013 36.667 70.2813 36.667 58.3346C36.667 46.388 46.387 36.668 58.3337 36.668C70.2803 36.668 80.0003 46.388 80.0003 58.3346C80.0003 70.2813 70.2803 80.0013 58.3337 80.0013ZM58.3337 40.0013C48.227 40.0013 40.0003 48.2246 40.0003 58.3346C40.0003 68.4446 48.227 76.668 58.3337 76.668C68.4403 76.668 76.667 68.4446 76.667 58.3346C76.667 48.2246 68.4403 40.0013 58.3337 40.0013Z" fill="#109B67"/>
<path d="M55.0002 66.6673C54.5568 66.6673 54.1335 66.4907 53.8202 66.1807L47.1535 59.514C46.5035 58.864 46.5035 57.8073 47.1535 57.1573C47.8035 56.5073 48.8602 56.5073 49.5102 57.1573L54.9169 62.564L65.4102 50.5707C66.0168 49.874 67.0702 49.8073 67.7602 50.414C68.4535 51.0207 68.5235 52.074 67.9168 52.7673L56.2502 66.1007C55.9468 66.4473 55.5135 66.654 55.0535 66.6673C55.0369 66.6673 55.0202 66.6673 55.0002 66.6673Z" fill="#109B67"/>
</g>
<defs>
<clipPath id="clip0">
<rect width="80" height="80" fill="white"/>
</clipPath>
</defs>
</svg>
