<svg width="13" height="15" viewBox="0 0 13 15" fill="none" xmlns="http://www.w3.org/2000/svg">
<path d="M3.50514 14.3007H3.50505C3.06379 14.3 2.64215 14.1177 2.33916 13.7967C2.03488 13.4766 1.86166 13.0316 1.86166 12.5592V4.80715C1.2723 4.63143 0.894318 4.05291 0.97432 3.43922L0.974321 3.43921C1.05612 2.81284 1.58976 2.34428 2.22153 2.34415H2.22154H3.79033V1.99908V1.99893H3.84033L3.50514 14.3007ZM3.50514 14.3007H9.48727H9.48736M3.50514 14.3007H9.48736M9.48736 14.3007C9.92873 14.3 10.3504 14.1177 10.6532 13.7967C10.9575 13.4766 11.1307 13.0316 11.1307 12.5592V4.80715C11.7201 4.63143 12.0981 4.05291 12.0181 3.43922L12.0181 3.43921M9.48736 14.3007L12.0181 3.43921M12.0181 3.43921C11.9363 2.81284 11.4026 2.34428 10.7709 2.34415H9.20208L12.0181 3.43921ZM8.82255 1.07725L8.82256 1.07726C9.06726 1.32145 9.20396 1.65337 9.20208 1.99904V1.99893H9.15208L9.20208 1.99921L8.82255 1.07725ZM8.82255 1.07725C8.57785 0.833194 8.24543 0.697271 7.89977 0.700042M8.82255 1.07725L7.89977 0.700042M5.09244 1.38239C4.92768 1.37955 4.76885 1.4434 4.65214 1.55962C4.5353 1.67584 4.47058 1.8343 4.47268 1.99893L5.09244 1.38239ZM5.09244 1.38239H7.89997H5.09244ZM7.89977 0.700042H7.89997V0.750042C8.23233 0.747324 8.55196 0.877994 8.78724 1.11266L7.89977 0.700042ZM7.89977 0.700042H5.09264H5.09244H7.89977ZM9.15208 2.34415V2.39415H9.20208L9.15208 2.34415ZM4.52268 1.99893H4.52269L4.52268 1.9983C4.52075 1.8472 4.58015 1.70176 4.6874 1.59507L4.68742 1.59505C4.79452 1.4884 4.9403 1.42978 5.09157 1.43238V1.43239H5.09244L7.89997 1.4324L7.90084 1.43238C8.05211 1.42978 8.19789 1.4884 8.30499 1.59505L8.30503 1.59509C8.41225 1.70164 8.47166 1.84718 8.46973 1.9983H8.46973V1.99893V2.34415H4.52268V1.99893ZM8.36169 5.59066C8.15944 5.59066 7.99551 5.75459 7.99551 5.95684V11.9326C7.99551 12.1347 8.15942 12.2988 8.36169 12.2988C8.56395 12.2988 8.72786 12.1347 8.72786 11.9326V5.95684C8.72786 5.75459 8.56394 5.59066 8.36169 5.59066ZM4.63074 5.59066C4.42849 5.59066 4.26456 5.75459 4.26456 5.95684V11.9326C4.26456 12.1347 4.42847 12.2988 4.63074 12.2988C4.833 12.2988 4.99692 12.1347 4.99692 11.9326V5.95684C4.99692 5.75459 4.83299 5.59066 4.63074 5.59066ZM9.48727 13.5684H3.50514C2.99665 13.5684 2.59401 13.1311 2.59401 12.5592V4.84709H10.3984V12.5592C10.3984 13.1311 9.99576 13.5684 9.48727 13.5684ZM2.22154 3.0765H10.7709C11.0576 3.0765 11.29 3.30891 11.29 3.59562C11.29 3.88233 11.0576 4.11474 10.7709 4.11474H2.22154C1.93483 4.11474 1.70242 3.88233 1.70242 3.59562C1.70242 3.30891 1.93483 3.0765 2.22154 3.0765ZM6.49621 5.59066C6.29396 5.59066 6.13004 5.75459 6.13004 5.95684V11.9326C6.13004 12.1347 6.29395 12.2988 6.49621 12.2988C6.69847 12.2988 6.86238 12.1347 6.86238 11.9326V5.95684C6.86238 5.75459 6.69846 5.59066 6.49621 5.59066Z" fill="#CA2C2C" stroke="#CA2C2C" stroke-width="0.1"/>
</svg>
