<svg width="76" height="94" viewBox="0 0 76 94" fill="none" xmlns="http://www.w3.org/2000/svg">
<path d="M17.6347 93.2451H17.6353L58.3139 93.2451L58.3144 93.2451C61.3158 93.2399 64.183 92.0006 66.2425 89.8176C68.3116 87.6409 69.4895 84.6152 69.4895 81.4026V28.6887C73.4971 27.4938 76.0674 23.5599 75.5234 19.3868L75.5234 19.3867C74.9671 15.1274 71.3384 11.9412 67.0424 11.9403H56.3745L56.3745 9.59475C56.3745 9.59452 56.3745 9.59429 56.3745 9.59406C56.3874 7.24329 55.4579 4.98607 53.7938 3.32548L53.7937 3.32542C52.1298 1.66582 49.8694 0.741539 47.5188 0.76038H28.4303C26.0798 0.741539 23.8194 1.66582 22.1554 3.32542L22.1554 3.32548C20.4914 4.98599 19.5618 7.24307 19.5746 9.59371V11.9403H8.90685H8.90678C4.61077 11.9412 0.982026 15.1274 0.425776 19.3867L0.425766 19.3868C-0.11825 23.5599 2.45202 27.4938 6.45969 28.6887V81.4026C6.45969 84.6153 7.63761 87.6411 9.70687 89.8178C11.7672 92.0007 14.6342 93.2399 17.6347 93.2451ZM24.5547 9.59285L24.5546 9.58852C24.5415 8.56106 24.9454 7.57206 25.6747 6.84659L25.6748 6.84646C26.4032 6.12122 27.3945 5.72258 28.4231 5.74032V5.74037H28.429L47.5202 5.74042L47.5261 5.74032C48.5547 5.72258 49.546 6.12122 50.2743 6.84646L50.2746 6.84672C51.0037 7.57122 51.4077 8.56096 51.3945 9.58852V9.59285V11.9403H24.5546L24.5547 9.59285ZM50.6599 34.0166C49.2846 34.0166 48.1699 35.1313 48.1699 36.5066V77.1416C48.1699 78.516 49.2845 79.6316 50.6599 79.6316C52.0353 79.6316 53.1499 78.516 53.1499 77.1416V36.5066C53.1499 35.1313 52.0352 34.0166 50.6599 34.0166ZM25.2894 34.0166C23.9141 34.0166 22.7994 35.1313 22.7994 36.5066V77.1416C22.7994 78.516 23.914 79.6316 25.2894 79.6316C26.6648 79.6316 27.7794 78.516 27.7794 77.1416V36.5066C27.7794 35.1313 26.6647 34.0166 25.2894 34.0166ZM58.3139 88.2651H17.6353C14.1776 88.2651 11.4397 85.2916 11.4397 81.4026V28.9603H64.5095V81.4026C64.5095 85.2916 61.7715 88.2651 58.3139 88.2651ZM8.90685 16.9203H67.0423C68.9919 16.9203 70.5723 18.5007 70.5723 20.4503C70.5723 22.3999 68.9919 23.9803 67.0423 23.9803H8.90685C6.95723 23.9803 5.37686 22.3999 5.37686 20.4503C5.37686 18.5007 6.95723 16.9203 8.90685 16.9203ZM37.9746 34.0166C36.5993 34.0166 35.4846 35.1313 35.4846 36.5066V77.1416C35.4846 78.516 36.5992 79.6316 37.9746 79.6316C39.35 79.6316 40.4646 78.516 40.4646 77.1416V36.5066C40.4646 35.1313 39.3499 34.0166 37.9746 34.0166Z" fill="#CA2C2C" stroke="#CA2C2C" stroke-width="0.68"/>
</svg>
