<svg width="20" height="20" viewBox="0 0 20 20" fill="none" xmlns="http://www.w3.org/2000/svg">
<g clip-path="url(#clip0)">
<path d="M12.7584 7.24609C12.4997 7.24609 12.29 7.45577 12.29 7.71448V16.5669C12.29 16.8255 12.4997 17.0353 12.7584 17.0353C13.0171 17.0353 13.2268 16.8255 13.2268 16.5669V7.71448C13.2268 7.45577 13.0171 7.24609 12.7584 7.24609Z" fill="#CA2C2C"/>
<path d="M7.23206 7.24609C6.97335 7.24609 6.76367 7.45577 6.76367 7.71448V16.5669C6.76367 16.8255 6.97335 17.0353 7.23206 17.0353C7.49077 17.0353 7.70044 16.8255 7.70044 16.5669V7.71448C7.70044 7.45577 7.49077 7.24609 7.23206 7.24609Z" fill="#CA2C2C"/>
<path d="M3.20333 5.95419V17.4942C3.20333 18.1762 3.45344 18.8168 3.89035 19.2764C4.32525 19.7373 4.93049 19.9989 5.56391 20H14.4259C15.0594 19.9989 15.6647 19.7373 16.0994 19.2764C16.5363 18.8168 16.7864 18.1762 16.7864 17.4942V5.95419C17.6549 5.72366 18.2177 4.8846 18.1016 3.99339C17.9852 3.10236 17.2261 2.43583 16.3274 2.43565H13.9293V1.85017C13.932 1.35782 13.7374 0.885049 13.3888 0.537238C13.0403 0.18961 12.5668 -0.00396362 12.0744 6.15416e-05H7.91533C7.42298 -0.00396362 6.94948 0.18961 6.60093 0.537238C6.25239 0.885049 6.05772 1.35782 6.06046 1.85017V2.43565H3.66238C2.76367 2.43583 2.00456 3.10236 1.8882 3.99339C1.77202 4.8846 2.33481 5.72366 3.20333 5.95419ZM14.4259 19.0632H5.56391C4.76308 19.0632 4.14009 18.3753 4.14009 17.4942V5.99536H15.8497V17.4942C15.8497 18.3753 15.2267 19.0632 14.4259 19.0632ZM6.99723 1.85017C6.99412 1.60628 7.08999 1.37154 7.26307 1.19938C7.43597 1.02721 7.67126 0.932619 7.91533 0.936827H12.0744C12.3185 0.932619 12.5538 1.02721 12.7267 1.19938C12.8998 1.37136 12.9956 1.60628 12.9925 1.85017V2.43565H6.99723V1.85017ZM3.66238 3.37242H16.3274C16.793 3.37242 17.1705 3.74987 17.1705 4.21551C17.1705 4.68114 16.793 5.05859 16.3274 5.05859H3.66238C3.19674 5.05859 2.81929 4.68114 2.81929 4.21551C2.81929 3.74987 3.19674 3.37242 3.66238 3.37242Z" fill="#CA2C2C"/>
<path d="M9.99572 7.24609C9.73702 7.24609 9.52734 7.45577 9.52734 7.71448V16.5669C9.52734 16.8255 9.73702 17.0353 9.99572 17.0353C10.2544 17.0353 10.4641 16.8255 10.4641 16.5669V7.71448C10.4641 7.45577 10.2544 7.24609 9.99572 7.24609Z" fill="#CA2C2C"/>
</g>
<defs>
<clipPath id="clip0">
<rect width="20" height="20" fill="white"/>
</clipPath>
</defs>
</svg>
