<svg width="15" height="15" viewBox="0 0 15 15" fill="none" xmlns="http://www.w3.org/2000/svg">
<path d="M4.21875 7.29492H3.28125C3.03855 7.29492 2.8418 7.49168 2.8418 7.73438C2.8418 7.97707 3.03855 8.17383 3.28125 8.17383H4.21875C4.46145 8.17383 4.6582 7.97707 4.6582 7.73438C4.6582 7.49168 4.46145 7.29492 4.21875 7.29492Z" fill="black" fill-opacity="0.4"/>
<path d="M4.21875 9.16992H3.28125C3.03855 9.16992 2.8418 9.36668 2.8418 9.60938C2.8418 9.85207 3.03855 10.0488 3.28125 10.0488H4.21875C4.46145 10.0488 4.6582 9.85207 4.6582 9.60938C4.6582 9.36668 4.46145 9.16992 4.21875 9.16992Z" fill="black" fill-opacity="0.4"/>
<path d="M4.21875 11.0449H3.28125C3.03855 11.0449 2.8418 11.2417 2.8418 11.4844C2.8418 11.7271 3.03855 11.9238 3.28125 11.9238H4.21875C4.46145 11.9238 4.6582 11.7271 4.6582 11.4844C4.6582 11.2417 4.46145 11.0449 4.21875 11.0449Z" fill="black" fill-opacity="0.4"/>
<path d="M7.96875 7.29492H7.03125C6.78855 7.29492 6.5918 7.49168 6.5918 7.73438C6.5918 7.97707 6.78855 8.17383 7.03125 8.17383H7.96875C8.21145 8.17383 8.4082 7.97707 8.4082 7.73438C8.4082 7.49168 8.21145 7.29492 7.96875 7.29492Z" fill="black" fill-opacity="0.4"/>
<path d="M7.96875 9.16992H7.03125C6.78855 9.16992 6.5918 9.36668 6.5918 9.60938C6.5918 9.85207 6.78855 10.0488 7.03125 10.0488H7.96875C8.21145 10.0488 8.4082 9.85207 8.4082 9.60938C8.4082 9.36668 8.21145 9.16992 7.96875 9.16992Z" fill="black" fill-opacity="0.4"/>
<path d="M7.96875 11.0449H7.03125C6.78855 11.0449 6.5918 11.2417 6.5918 11.4844C6.5918 11.7271 6.78855 11.9238 7.03125 11.9238H7.96875C8.21145 11.9238 8.4082 11.7271 8.4082 11.4844C8.4082 11.2417 8.21145 11.0449 7.96875 11.0449Z" fill="black" fill-opacity="0.4"/>
<path d="M11.7188 7.29492H10.7812C10.5386 7.29492 10.3418 7.49168 10.3418 7.73438C10.3418 7.97707 10.5386 8.17383 10.7812 8.17383H11.7188C11.9614 8.17383 12.1582 7.97707 12.1582 7.73438C12.1582 7.49168 11.9614 7.29492 11.7188 7.29492Z" fill="black" fill-opacity="0.4"/>
<path d="M11.7188 9.16992H10.7812C10.5386 9.16992 10.3418 9.36668 10.3418 9.60938C10.3418 9.85207 10.5386 10.0488 10.7812 10.0488H11.7188C11.9614 10.0488 12.1582 9.85207 12.1582 9.60938C12.1582 9.36668 11.9614 9.16992 11.7188 9.16992Z" fill="black" fill-opacity="0.4"/>
<path d="M11.7188 11.0449H10.7812C10.5386 11.0449 10.3418 11.2417 10.3418 11.4844C10.3418 11.7271 10.5386 11.9238 10.7812 11.9238H11.7188C11.9614 11.9238 12.1582 11.7271 12.1582 11.4844C12.1582 11.2417 11.9614 11.0449 11.7188 11.0449Z" fill="black" fill-opacity="0.4"/>
<path d="M13.6816 1.9043H12.627V1.17188C12.627 0.92918 12.4302 0.732422 12.1875 0.732422C11.9448 0.732422 11.748 0.92918 11.748 1.17188V1.9043H7.93945V1.17188C7.93945 0.92918 7.7427 0.732422 7.5 0.732422C7.2573 0.732422 7.06055 0.92918 7.06055 1.17188V1.9043H3.25195V1.17188C3.25195 0.92918 3.0552 0.732422 2.8125 0.732422C2.5698 0.732422 2.37305 0.92918 2.37305 1.17188V1.9043H1.31836C0.591416 1.9043 0 2.49571 0 3.22266V12.9492C0 13.6762 0.591416 14.2676 1.31836 14.2676H13.6816C14.4086 14.2676 15 13.6762 15 12.9492C15 12.6656 15 3.46948 15 3.22266C15 2.49571 14.4086 1.9043 13.6816 1.9043ZM0.878906 3.22266C0.878906 2.98034 1.07604 2.7832 1.31836 2.7832H2.37305V3.51562C2.37305 3.75832 2.5698 3.95508 2.8125 3.95508C3.0552 3.95508 3.25195 3.75832 3.25195 3.51562V2.7832H7.06055V3.51562C7.06055 3.75832 7.2573 3.95508 7.5 3.95508C7.7427 3.95508 7.93945 3.75832 7.93945 3.51562V2.7832H11.748V3.51562C11.748 3.75832 11.9448 3.95508 12.1875 3.95508C12.4302 3.95508 12.627 3.75832 12.627 3.51562V2.7832H13.6816C13.924 2.7832 14.1211 2.98034 14.1211 3.22266V4.95117H0.878906V3.22266ZM13.6816 13.3887H1.31836C1.07604 13.3887 0.878906 13.1915 0.878906 12.9492V5.83008H14.1211V12.9492C14.1211 13.1915 13.924 13.3887 13.6816 13.3887Z" fill="black" fill-opacity="0.4"/>
</svg>
