<svg width="80" height="74" viewBox="0 0 80 74" fill="none" xmlns="http://www.w3.org/2000/svg">
<path d="M22.5 35.9062H17.5C16.2056 35.9062 15.1562 36.9556 15.1562 38.25C15.1562 39.5444 16.2056 40.5938 17.5 40.5938H22.5C23.7944 40.5938 24.8438 39.5444 24.8438 38.25C24.8438 36.9556 23.7944 35.9062 22.5 35.9062Z" fill="#5B44BA"/>
<path d="M22.5 45.9062H17.5C16.2056 45.9062 15.1562 46.9556 15.1562 48.25C15.1562 49.5444 16.2056 50.5938 17.5 50.5938H22.5C23.7944 50.5938 24.8438 49.5444 24.8438 48.25C24.8438 46.9556 23.7944 45.9062 22.5 45.9062Z" fill="#5B44BA"/>
<path d="M22.5 55.9062H17.5C16.2056 55.9062 15.1562 56.9556 15.1562 58.25C15.1562 59.5444 16.2056 60.5938 17.5 60.5938H22.5C23.7944 60.5938 24.8438 59.5444 24.8438 58.25C24.8438 56.9556 23.7944 55.9062 22.5 55.9062Z" fill="#5B44BA"/>
<path d="M42.5 35.9062H37.5C36.2056 35.9062 35.1562 36.9556 35.1562 38.25C35.1562 39.5444 36.2056 40.5938 37.5 40.5938H42.5C43.7944 40.5938 44.8438 39.5444 44.8438 38.25C44.8438 36.9556 43.7944 35.9062 42.5 35.9062Z" fill="#5B44BA"/>
<path d="M42.5 45.9062H37.5C36.2056 45.9062 35.1562 46.9556 35.1562 48.25C35.1562 49.5444 36.2056 50.5938 37.5 50.5938H42.5C43.7944 50.5938 44.8438 49.5444 44.8438 48.25C44.8438 46.9556 43.7944 45.9062 42.5 45.9062Z" fill="#5B44BA"/>
<path d="M42.5 55.9062H37.5C36.2056 55.9062 35.1562 56.9556 35.1562 58.25C35.1562 59.5444 36.2056 60.5938 37.5 60.5938H42.5C43.7944 60.5938 44.8438 59.5444 44.8438 58.25C44.8438 56.9556 43.7944 55.9062 42.5 55.9062Z" fill="#5B44BA"/>
<path d="M62.5 35.9062H57.5C56.2056 35.9062 55.1562 36.9556 55.1562 38.25C55.1562 39.5444 56.2056 40.5938 57.5 40.5938H62.5C63.7944 40.5938 64.8438 39.5444 64.8438 38.25C64.8438 36.9556 63.7944 35.9062 62.5 35.9062Z" fill="#5B44BA"/>
<path d="M62.5 45.9062H57.5C56.2056 45.9062 55.1562 46.9556 55.1562 48.25C55.1562 49.5444 56.2056 50.5938 57.5 50.5938H62.5C63.7944 50.5938 64.8438 49.5444 64.8438 48.25C64.8438 46.9556 63.7944 45.9062 62.5 45.9062Z" fill="#5B44BA"/>
<path d="M62.5 55.9062H57.5C56.2056 55.9062 55.1562 56.9556 55.1562 58.25C55.1562 59.5444 56.2056 60.5938 57.5 60.5938H62.5C63.7944 60.5938 64.8438 59.5444 64.8438 58.25C64.8438 56.9556 63.7944 55.9062 62.5 55.9062Z" fill="#5B44BA"/>
<path d="M72.9688 7.15625H67.3438V3.25C67.3438 1.95562 66.2944 0.90625 65 0.90625C63.7056 0.90625 62.6562 1.95562 62.6562 3.25V7.15625H42.3438V3.25C42.3438 1.95562 41.2944 0.90625 40 0.90625C38.7056 0.90625 37.6562 1.95562 37.6562 3.25V7.15625H17.3438V3.25C17.3438 1.95562 16.2944 0.90625 15 0.90625C13.7056 0.90625 12.6562 1.95562 12.6562 3.25V7.15625H7.03125C3.15422 7.15625 0 10.3105 0 14.1875V66.0625C0 69.9395 3.15422 73.0938 7.03125 73.0938H72.9688C76.8458 73.0938 80 69.9395 80 66.0625C80 64.5497 80 15.5039 80 14.1875C80 10.3105 76.8458 7.15625 72.9688 7.15625ZM4.6875 14.1875C4.6875 12.8952 5.73891 11.8438 7.03125 11.8438H12.6562V15.75C12.6562 17.0444 13.7056 18.0938 15 18.0938C16.2944 18.0938 17.3438 17.0444 17.3438 15.75V11.8438H37.6562V15.75C37.6562 17.0444 38.7056 18.0938 40 18.0938C41.2944 18.0938 42.3438 17.0444 42.3438 15.75V11.8438H62.6562V15.75C62.6562 17.0444 63.7056 18.0938 65 18.0938C66.2944 18.0938 67.3438 17.0444 67.3438 15.75V11.8438H72.9688C74.2611 11.8438 75.3125 12.8952 75.3125 14.1875V23.4062H4.6875V14.1875ZM72.9688 68.4062H7.03125C5.73891 68.4062 4.6875 67.3548 4.6875 66.0625V28.0938H75.3125V66.0625C75.3125 67.3548 74.2611 68.4062 72.9688 68.4062Z" fill="#5B44BA"/>
</svg>
