<svg width="112" height="112" viewBox="0 0 112 112" fill="none" xmlns="http://www.w3.org/2000/svg">
<path d="M31.5 54.4688H24.5C22.6879 54.4688 21.2188 55.9379 21.2188 57.75C21.2188 59.5621 22.6879 61.0312 24.5 61.0312H31.5C33.3121 61.0312 34.7812 59.5621 34.7812 57.75C34.7812 55.9379 33.3121 54.4688 31.5 54.4688Z" fill="#CED1F1"/>
<path d="M31.5 68.4688H24.5C22.6879 68.4688 21.2188 69.9379 21.2188 71.75C21.2188 73.5621 22.6879 75.0312 24.5 75.0312H31.5C33.3121 75.0312 34.7812 73.5621 34.7812 71.75C34.7812 69.9379 33.3121 68.4688 31.5 68.4688Z" fill="#CED1F1"/>
<path d="M31.5 82.4688H24.5C22.6879 82.4688 21.2188 83.9379 21.2188 85.75C21.2188 87.5621 22.6879 89.0312 24.5 89.0312H31.5C33.3121 89.0312 34.7812 87.5621 34.7812 85.75C34.7812 83.9379 33.3121 82.4688 31.5 82.4688Z" fill="#CED1F1"/>
<path d="M59.5 54.4688H52.5C50.6879 54.4688 49.2188 55.9379 49.2188 57.75C49.2188 59.5621 50.6879 61.0312 52.5 61.0312H59.5C61.3121 61.0312 62.7812 59.5621 62.7812 57.75C62.7812 55.9379 61.3121 54.4688 59.5 54.4688Z" fill="#CED1F1"/>
<path d="M59.5 68.4688H52.5C50.6879 68.4688 49.2188 69.9379 49.2188 71.75C49.2188 73.5621 50.6879 75.0312 52.5 75.0312H59.5C61.3121 75.0312 62.7812 73.5621 62.7812 71.75C62.7812 69.9379 61.3121 68.4688 59.5 68.4688Z" fill="#CED1F1"/>
<path d="M59.5 82.4688H52.5C50.6879 82.4688 49.2188 83.9379 49.2188 85.75C49.2188 87.5621 50.6879 89.0312 52.5 89.0312H59.5C61.3121 89.0312 62.7812 87.5621 62.7812 85.75C62.7812 83.9379 61.3121 82.4688 59.5 82.4688Z" fill="#CED1F1"/>
<path d="M87.5 54.4688H80.5C78.6879 54.4688 77.2188 55.9379 77.2188 57.75C77.2188 59.5621 78.6879 61.0312 80.5 61.0312H87.5C89.3121 61.0312 90.7812 59.5621 90.7812 57.75C90.7812 55.9379 89.3121 54.4688 87.5 54.4688Z" fill="#CED1F1"/>
<path d="M87.5 68.4688H80.5C78.6879 68.4688 77.2188 69.9379 77.2188 71.75C77.2188 73.5621 78.6879 75.0312 80.5 75.0312H87.5C89.3121 75.0312 90.7812 73.5621 90.7812 71.75C90.7812 69.9379 89.3121 68.4688 87.5 68.4688Z" fill="#CED1F1"/>
<path d="M87.5 82.4688H80.5C78.6879 82.4688 77.2188 83.9379 77.2188 85.75C77.2188 87.5621 78.6879 89.0312 80.5 89.0312H87.5C89.3121 89.0312 90.7812 87.5621 90.7812 85.75C90.7812 83.9379 89.3121 82.4688 87.5 82.4688Z" fill="#CED1F1"/>
<path d="M102.156 14.2188H94.2812V8.75C94.2812 6.93787 92.8121 5.46875 91 5.46875C89.1879 5.46875 87.7188 6.93787 87.7188 8.75V14.2188H59.2812V8.75C59.2812 6.93787 57.8121 5.46875 56 5.46875C54.1879 5.46875 52.7188 6.93787 52.7188 8.75V14.2188H24.2812V8.75C24.2812 6.93787 22.8121 5.46875 21 5.46875C19.1879 5.46875 17.7188 6.93787 17.7188 8.75V14.2188H9.84375C4.41591 14.2188 0 18.6347 0 24.0625V96.6875C0 102.115 4.41591 106.531 9.84375 106.531H102.156C107.584 106.531 112 102.115 112 96.6875C112 94.5696 112 25.9055 112 24.0625C112 18.6347 107.584 14.2188 102.156 14.2188ZM6.5625 24.0625C6.5625 22.2532 8.03447 20.7812 9.84375 20.7812H17.7188V26.25C17.7188 28.0621 19.1879 29.5312 21 29.5312C22.8121 29.5312 24.2812 28.0621 24.2812 26.25V20.7812H52.7188V26.25C52.7188 28.0621 54.1879 29.5312 56 29.5312C57.8121 29.5312 59.2812 28.0621 59.2812 26.25V20.7812H87.7188V26.25C87.7188 28.0621 89.1879 29.5312 91 29.5312C92.8121 29.5312 94.2812 28.0621 94.2812 26.25V20.7812H102.156C103.966 20.7812 105.438 22.2532 105.438 24.0625V36.9688H6.5625V24.0625ZM102.156 99.9688H9.84375C8.03447 99.9688 6.5625 98.4968 6.5625 96.6875V43.5312H105.438V96.6875C105.438 98.4968 103.966 99.9688 102.156 99.9688Z" fill="#CED1F1"/>
</svg>
