<svg width="15" height="15" viewBox="0 0 15 15" fill="none" xmlns="http://www.w3.org/2000/svg">
<path d="M4.21875 7.29688H3.28125C3.03855 7.29688 2.8418 7.49363 2.8418 7.73633C2.8418 7.97902 3.03855 8.17578 3.28125 8.17578H4.21875C4.46145 8.17578 4.6582 7.97902 4.6582 7.73633C4.6582 7.49363 4.46145 7.29688 4.21875 7.29688Z" fill="black" fill-opacity="0.4"/>
<path d="M4.21875 9.17188H3.28125C3.03855 9.17188 2.8418 9.36863 2.8418 9.61133C2.8418 9.85402 3.03855 10.0508 3.28125 10.0508H4.21875C4.46145 10.0508 4.6582 9.85402 4.6582 9.61133C4.6582 9.36863 4.46145 9.17188 4.21875 9.17188Z" fill="black" fill-opacity="0.4"/>
<path d="M4.21875 11.0469H3.28125C3.03855 11.0469 2.8418 11.2436 2.8418 11.4863C2.8418 11.729 3.03855 11.9258 3.28125 11.9258H4.21875C4.46145 11.9258 4.6582 11.729 4.6582 11.4863C4.6582 11.2436 4.46145 11.0469 4.21875 11.0469Z" fill="black" fill-opacity="0.4"/>
<path d="M7.96875 7.29688H7.03125C6.78855 7.29688 6.5918 7.49363 6.5918 7.73633C6.5918 7.97902 6.78855 8.17578 7.03125 8.17578H7.96875C8.21145 8.17578 8.4082 7.97902 8.4082 7.73633C8.4082 7.49363 8.21145 7.29688 7.96875 7.29688Z" fill="black" fill-opacity="0.4"/>
<path d="M7.96875 9.17188H7.03125C6.78855 9.17188 6.5918 9.36863 6.5918 9.61133C6.5918 9.85402 6.78855 10.0508 7.03125 10.0508H7.96875C8.21145 10.0508 8.4082 9.85402 8.4082 9.61133C8.4082 9.36863 8.21145 9.17188 7.96875 9.17188Z" fill="black" fill-opacity="0.4"/>
<path d="M7.96875 11.0469H7.03125C6.78855 11.0469 6.5918 11.2436 6.5918 11.4863C6.5918 11.729 6.78855 11.9258 7.03125 11.9258H7.96875C8.21145 11.9258 8.4082 11.729 8.4082 11.4863C8.4082 11.2436 8.21145 11.0469 7.96875 11.0469Z" fill="black" fill-opacity="0.4"/>
<path d="M11.7188 7.29688H10.7812C10.5386 7.29688 10.3418 7.49363 10.3418 7.73633C10.3418 7.97902 10.5386 8.17578 10.7812 8.17578H11.7188C11.9614 8.17578 12.1582 7.97902 12.1582 7.73633C12.1582 7.49363 11.9614 7.29688 11.7188 7.29688Z" fill="black" fill-opacity="0.4"/>
<path d="M11.7188 9.17188H10.7812C10.5386 9.17188 10.3418 9.36863 10.3418 9.61133C10.3418 9.85402 10.5386 10.0508 10.7812 10.0508H11.7188C11.9614 10.0508 12.1582 9.85402 12.1582 9.61133C12.1582 9.36863 11.9614 9.17188 11.7188 9.17188Z" fill="black" fill-opacity="0.4"/>
<path d="M11.7188 11.0469H10.7812C10.5386 11.0469 10.3418 11.2436 10.3418 11.4863C10.3418 11.729 10.5386 11.9258 10.7812 11.9258H11.7188C11.9614 11.9258 12.1582 11.729 12.1582 11.4863C12.1582 11.2436 11.9614 11.0469 11.7188 11.0469Z" fill="black" fill-opacity="0.4"/>
<path d="M13.6816 1.90625H12.627V1.17383C12.627 0.931133 12.4302 0.734375 12.1875 0.734375C11.9448 0.734375 11.748 0.931133 11.748 1.17383V1.90625H7.93945V1.17383C7.93945 0.931133 7.7427 0.734375 7.5 0.734375C7.2573 0.734375 7.06055 0.931133 7.06055 1.17383V1.90625H3.25195V1.17383C3.25195 0.931133 3.0552 0.734375 2.8125 0.734375C2.5698 0.734375 2.37305 0.931133 2.37305 1.17383V1.90625H1.31836C0.591416 1.90625 0 2.49767 0 3.22461V12.9512C0 13.6781 0.591416 14.2695 1.31836 14.2695H13.6816C14.4086 14.2695 15 13.6781 15 12.9512C15 12.6675 15 3.47144 15 3.22461C15 2.49767 14.4086 1.90625 13.6816 1.90625ZM0.878906 3.22461C0.878906 2.9823 1.07604 2.78516 1.31836 2.78516H2.37305V3.51758C2.37305 3.76027 2.5698 3.95703 2.8125 3.95703C3.0552 3.95703 3.25195 3.76027 3.25195 3.51758V2.78516H7.06055V3.51758C7.06055 3.76027 7.2573 3.95703 7.5 3.95703C7.7427 3.95703 7.93945 3.76027 7.93945 3.51758V2.78516H11.748V3.51758C11.748 3.76027 11.9448 3.95703 12.1875 3.95703C12.4302 3.95703 12.627 3.76027 12.627 3.51758V2.78516H13.6816C13.924 2.78516 14.1211 2.9823 14.1211 3.22461V4.95312H0.878906V3.22461ZM13.6816 13.3906H1.31836C1.07604 13.3906 0.878906 13.1935 0.878906 12.9512V5.83203H14.1211V12.9512C14.1211 13.1935 13.924 13.3906 13.6816 13.3906Z" fill="black" fill-opacity="0.4"/>
</svg>
