<svg width="20" height="20" viewBox="0 0 20 20" fill="none" xmlns="http://www.w3.org/2000/svg">
<path d="M5.625 9.72656H4.375C4.05141 9.72656 3.78906 9.98891 3.78906 10.3125C3.78906 10.6361 4.05141 10.8984 4.375 10.8984H5.625C5.94859 10.8984 6.21094 10.6361 6.21094 10.3125C6.21094 9.98891 5.94859 9.72656 5.625 9.72656Z" fill="#5B44BA"/>
<path d="M5.625 12.2266H4.375C4.05141 12.2266 3.78906 12.4889 3.78906 12.8125C3.78906 13.1361 4.05141 13.3984 4.375 13.3984H5.625C5.94859 13.3984 6.21094 13.1361 6.21094 12.8125C6.21094 12.4889 5.94859 12.2266 5.625 12.2266Z" fill="#5B44BA"/>
<path d="M5.625 14.7266H4.375C4.05141 14.7266 3.78906 14.9889 3.78906 15.3125C3.78906 15.6361 4.05141 15.8984 4.375 15.8984H5.625C5.94859 15.8984 6.21094 15.6361 6.21094 15.3125C6.21094 14.9889 5.94859 14.7266 5.625 14.7266Z" fill="#5B44BA"/>
<path d="M10.625 9.72656H9.375C9.05141 9.72656 8.78906 9.98891 8.78906 10.3125C8.78906 10.6361 9.05141 10.8984 9.375 10.8984H10.625C10.9486 10.8984 11.2109 10.6361 11.2109 10.3125C11.2109 9.98891 10.9486 9.72656 10.625 9.72656Z" fill="#5B44BA"/>
<path d="M10.625 12.2266H9.375C9.05141 12.2266 8.78906 12.4889 8.78906 12.8125C8.78906 13.1361 9.05141 13.3984 9.375 13.3984H10.625C10.9486 13.3984 11.2109 13.1361 11.2109 12.8125C11.2109 12.4889 10.9486 12.2266 10.625 12.2266Z" fill="#5B44BA"/>
<path d="M10.625 14.7266H9.375C9.05141 14.7266 8.78906 14.9889 8.78906 15.3125C8.78906 15.6361 9.05141 15.8984 9.375 15.8984H10.625C10.9486 15.8984 11.2109 15.6361 11.2109 15.3125C11.2109 14.9889 10.9486 14.7266 10.625 14.7266Z" fill="#5B44BA"/>
<path d="M15.625 9.72656H14.375C14.0514 9.72656 13.7891 9.98891 13.7891 10.3125C13.7891 10.6361 14.0514 10.8984 14.375 10.8984H15.625C15.9486 10.8984 16.2109 10.6361 16.2109 10.3125C16.2109 9.98891 15.9486 9.72656 15.625 9.72656Z" fill="#5B44BA"/>
<path d="M15.625 12.2266H14.375C14.0514 12.2266 13.7891 12.4889 13.7891 12.8125C13.7891 13.1361 14.0514 13.3984 14.375 13.3984H15.625C15.9486 13.3984 16.2109 13.1361 16.2109 12.8125C16.2109 12.4889 15.9486 12.2266 15.625 12.2266Z" fill="#5B44BA"/>
<path d="M15.625 14.7266H14.375C14.0514 14.7266 13.7891 14.9889 13.7891 15.3125C13.7891 15.6361 14.0514 15.8984 14.375 15.8984H15.625C15.9486 15.8984 16.2109 15.6361 16.2109 15.3125C16.2109 14.9889 15.9486 14.7266 15.625 14.7266Z" fill="#5B44BA"/>
<path d="M18.2422 2.53906H16.8359V1.5625C16.8359 1.23891 16.5736 0.976562 16.25 0.976562C15.9264 0.976562 15.6641 1.23891 15.6641 1.5625V2.53906H10.5859V1.5625C10.5859 1.23891 10.3236 0.976562 10 0.976562C9.67641 0.976562 9.41406 1.23891 9.41406 1.5625V2.53906H4.33594V1.5625C4.33594 1.23891 4.07359 0.976562 3.75 0.976562C3.42641 0.976562 3.16406 1.23891 3.16406 1.5625V2.53906H1.75781C0.788555 2.53906 0 3.32762 0 4.29688V17.2656C0 18.2349 0.788555 19.0234 1.75781 19.0234H18.2422C19.2114 19.0234 20 18.2349 20 17.2656C20 16.8874 20 4.62598 20 4.29688C20 3.32762 19.2114 2.53906 18.2422 2.53906ZM1.17188 4.29688C1.17188 3.97379 1.43473 3.71094 1.75781 3.71094H3.16406V4.6875C3.16406 5.01109 3.42641 5.27344 3.75 5.27344C4.07359 5.27344 4.33594 5.01109 4.33594 4.6875V3.71094H9.41406V4.6875C9.41406 5.01109 9.67641 5.27344 10 5.27344C10.3236 5.27344 10.5859 5.01109 10.5859 4.6875V3.71094H15.6641V4.6875C15.6641 5.01109 15.9264 5.27344 16.25 5.27344C16.5736 5.27344 16.8359 5.01109 16.8359 4.6875V3.71094H18.2422C18.5653 3.71094 18.8281 3.97379 18.8281 4.29688V6.60156H1.17188V4.29688ZM18.2422 17.8516H1.75781C1.43473 17.8516 1.17188 17.5887 1.17188 17.2656V7.77344H18.8281V17.2656C18.8281 17.5887 18.5653 17.8516 18.2422 17.8516Z" fill="#5B44BA"/>
</svg>
