<svg width="112" height="112" viewBox="0 0 112 112" fill="none" xmlns="http://www.w3.org/2000/svg">
<g clip-path="url(#clip0)">
<path d="M51.332 107.261C23.0296 107.261 0 84.2321 0 55.9297C0 27.6272 23.0296 4.59766 51.332 4.59766C61.1738 4.59766 70.7489 7.40201 79.0227 12.7125C80.647 13.7584 81.123 15.9236 80.0771 17.5522C79.0278 19.1808 76.8669 19.6516 75.2383 18.6066C68.0983 14.019 59.8297 11.5974 51.332 11.5974C26.8883 11.5974 6.99978 31.486 6.99978 55.9297C6.99978 80.3725 26.8883 100.261 51.332 100.261C75.7749 100.261 95.6634 80.3725 95.6634 55.9297C95.6634 54.4685 95.5933 53.0219 95.4583 51.5993C95.272 49.6716 96.6811 47.9635 98.6036 47.7772C100.536 47.5995 102.239 49 102.426 50.9225C102.584 52.5699 102.663 54.2404 102.663 55.9297C102.663 84.2321 79.6345 107.261 51.332 107.261Z" fill="#109B67"/>
<path d="M57.1645 67.5957C56.269 67.5957 55.3727 67.2548 54.6917 66.5695L33.6924 45.5701C32.3252 44.2021 32.3252 41.9857 33.6924 40.6185C35.0595 39.2514 37.276 39.2514 38.6431 40.6185L57.1696 59.145L106.023 10.291C107.391 8.92384 109.607 8.92384 110.974 10.291C112.342 11.6581 112.342 13.8746 110.974 15.2418L59.6425 66.5738C58.9563 67.2548 58.0609 67.5957 57.1645 67.5957Z" fill="#109B67"/>
</g>
<defs>
<clipPath id="clip0">
<rect width="112" height="112" fill="white"/>
</clipPath>
</defs>
</svg>
