<svg width="36" height="37" viewBox="0 0 36 37" fill="none" xmlns="http://www.w3.org/2000/svg">
<rect x="0.5" y="0.871094" width="35" height="35" rx="2.5" stroke="#777777"/>
<g clip-path="url(#clip0)">
<path d="M19.65 18.3714L22.7436 15.2778C23.0854 14.936 23.0854 14.3818 22.7436 14.0405L22.3312 13.6281C21.9893 13.2862 21.4351 13.2862 21.0938 13.6281L18.0003 16.7216L14.9067 13.6275C14.5649 13.2856 14.0107 13.2856 13.6694 13.6275L13.2564 14.0399C12.9145 14.3818 12.9145 14.936 13.2564 15.2772L16.3505 18.3714L13.257 21.4649C12.9151 21.8068 12.9151 22.361 13.257 22.7023L13.6694 23.1147C14.0112 23.4565 14.5654 23.4565 14.9067 23.1147L18.0003 20.0211L21.0938 23.1147C21.4358 23.4565 21.9899 23.4565 22.3312 23.1147L22.7436 22.7023C23.0854 22.3604 23.0854 21.8062 22.7436 21.4649L19.65 18.3714Z" fill="#777777"/>
</g>
<defs>
<clipPath id="clip0">
<rect width="10" height="10" fill="white" transform="translate(13 13.3711)"/>
</clipPath>
</defs>
</svg>
