<svg width="20" height="20" viewBox="0 0 20 20" fill="none" xmlns="http://www.w3.org/2000/svg">
<rect width="20" height="20" rx="10" fill="#BA3B34"/>
<path d="M11.65 10.0003L14.7436 6.90668C15.0854 6.56487 15.0854 6.0107 14.7436 5.66942L14.3312 5.257C13.9893 4.91508 13.4351 4.91508 13.0938 5.257L10.0003 8.35052L6.90668 5.25636C6.56487 4.91455 6.0107 4.91455 5.66942 5.25636L5.25636 5.66878C4.91455 6.0107 4.91455 6.56487 5.25636 6.90615L8.35052 10.0003L5.257 13.0938C4.91508 13.4358 4.91508 13.9899 5.257 14.3312L5.66942 14.7436C6.01124 15.0854 6.5654 15.0854 6.90668 14.7436L10.0003 11.65L13.0938 14.7436C13.4358 15.0854 13.9899 15.0854 14.3312 14.7436L14.7436 14.3312C15.0854 13.9893 15.0854 13.4351 14.7436 13.0938L11.65 10.0003Z" fill="white"/>
</svg>
