<svg xmlns="http://www.w3.org/2000/svg" width="36" height="36" fill="none" viewBox="0 0 36 36"><rect width="35" height="35" x=".5" y=".5" stroke="#000" stroke-opacity=".4" rx="2.5"/><path fill="#000" fill-opacity=".4" d="M19.65 18.0003L22.7436 14.9067C23.0854 14.5649 23.0854 14.0107 22.7436 13.6694L22.3312 13.257C21.9893 12.9151 21.4351 12.9151 21.0938 13.257L18.0003 16.3505L14.9067 13.2564C14.5649 12.9145 14.0107 12.9145 13.6694 13.2564L13.2564 13.6688C12.9145 14.0107 12.9145 14.5649 13.2564 14.9061L16.3505 18.0003L13.257 21.0938C12.9151 21.4358 12.9151 21.9899 13.257 22.3312L13.6694 22.7436C14.0112 23.0854 14.5654 23.0854 14.9067 22.7436L18.0003 19.65L21.0938 22.7436C21.4358 23.0854 21.9899 23.0854 22.3312 22.7436L22.7436 22.3312C23.0854 21.9893 23.0854 21.4351 22.7436 21.0938L19.65 18.0003Z"/></svg>