<svg width="22" height="22" viewBox="0 0 22 22" fill="none" xmlns="http://www.w3.org/2000/svg">
<path d="M17.9037 0H4.09634C1.8376 0 0 1.83764 0 4.09638V17.9037C0 20.1624 1.8376 22 4.09634 22H17.9037C20.1624 22 22 20.1624 22 17.9037V4.09638C22 1.83764 20.1624 0 17.9037 0ZM20.7109 17.9037C20.7109 19.4516 19.4516 20.7109 17.9037 20.7109H4.09634C2.54839 20.7109 1.28906 19.4516 1.28906 17.9037V4.09638C1.28906 2.54843 2.54839 1.28906 4.09634 1.28906H17.9037C19.4516 1.28906 20.7109 2.54843 20.7109 4.09638V17.9037Z" fill="black" fill-opacity="0.6"/>
<path d="M11.99 11.0002L13.8462 9.14401C14.0513 8.93892 14.0513 8.60642 13.8462 8.40165L13.5987 8.1542C13.3936 7.94905 13.0611 7.94905 12.8563 8.1542L11.0002 10.0103L9.14401 8.15382C8.93892 7.94873 8.60642 7.94873 8.40165 8.15382L8.15382 8.40127C7.94873 8.60642 7.94873 8.93892 8.15382 9.14369L10.0103 11.0002L8.1542 12.8563C7.94905 13.0615 7.94905 13.394 8.1542 13.5987L8.40165 13.8462C8.60674 14.0513 8.93924 14.0513 9.14401 13.8462L11.0002 11.99L12.8563 13.8462C13.0615 14.0513 13.394 14.0513 13.5987 13.8462L13.8462 13.5987C14.0513 13.3936 14.0513 13.0611 13.8462 12.8563L11.99 11.0002Z" fill="black" fill-opacity="0.6"/>
</svg>
