<svg width="19" height="19" viewBox="0 0 19 19" fill="none" xmlns="http://www.w3.org/2000/svg">
<path d="M16.8275 12.3546C15.9298 12.3546 15.1713 12.9606 14.9374 13.7853H13.0404V11.691H14.9773C17.081 11.691 18.7925 9.97761 18.7925 7.87158C18.7925 6.18302 17.6738 4.69965 16.0857 4.21651C15.6056 2.29214 13.8704 0.911956 11.8607 0.911956C11.0817 0.911956 10.3354 1.11307 9.67682 1.49731C8.97931 0.858736 8.06472 0.5 7.10375 0.5C5.04252 0.5 3.35782 2.14493 3.29058 4.19226C1.65922 4.64875 0.5 6.14403 0.5 7.87158C0.5 9.97761 2.2115 11.691 4.31525 11.691H6.25215V13.7853H4.35515C4.12124 12.9606 3.36275 12.3546 2.46502 12.3546C1.38151 12.3546 0.5 13.2371 0.5 14.3217C0.5 15.4064 1.38151 16.2889 2.46502 16.2889C3.36275 16.2889 4.12121 15.6829 4.35515 14.8582H6.78806C7.08403 14.8582 7.32397 14.618 7.32397 14.3217V11.691H9.11036V14.9332C8.28658 15.1674 7.68125 15.9267 7.68125 16.8254C7.68125 17.9101 8.56276 18.7925 9.64627 18.7925C10.7298 18.7925 11.6113 17.9101 11.6113 16.8254C11.6113 15.9267 11.006 15.1674 10.1822 14.9332V11.691H11.9686V14.3217C11.9686 14.618 12.2085 14.8582 12.5045 14.8582H14.9374C15.1713 15.6829 15.9298 16.2889 16.8275 16.2889C17.911 16.2889 18.7925 15.4064 18.7925 14.3217C18.7925 13.2371 17.911 12.3546 16.8275 12.3546ZM2.46502 15.2159C1.97251 15.2159 1.57183 14.8148 1.57183 14.3217C1.57183 13.8287 1.97251 13.4276 2.46502 13.4276C2.95752 13.4276 3.35821 13.8287 3.35821 14.3217C3.35821 14.8148 2.95752 15.2159 2.46502 15.2159ZM10.5395 16.8254C10.5395 17.3184 10.1388 17.7196 9.64627 17.7196C9.15376 17.7196 8.75308 17.3184 8.75308 16.8254C8.75308 16.3324 9.15376 15.9312 9.64627 15.9312C10.1388 15.9312 10.5395 16.3324 10.5395 16.8254ZM4.31525 10.618C2.80254 10.618 1.57183 9.38596 1.57183 7.87158C1.57183 6.51808 2.5796 5.34984 3.91592 5.1542C4.19792 5.11293 4.39828 4.85791 4.37198 4.57386C4.36423 4.49005 4.3603 4.40443 4.3603 4.31934C4.3603 2.80503 5.59101 1.57303 7.10371 1.57303C7.9108 1.57303 8.67191 1.92425 9.19181 2.53664C9.37435 2.75163 9.692 2.78833 9.91869 2.62066C10.4808 2.20477 11.1523 1.98495 11.8607 1.98495C13.4909 1.98495 14.8466 3.18237 15.1 4.74003C15.1358 4.96027 15.3041 5.13532 15.5226 5.17959C16.7963 5.43772 17.7207 6.56983 17.7207 7.87158C17.7207 9.38596 16.49 10.618 14.9773 10.618H4.31525ZM16.8275 15.2159C16.335 15.2159 15.9343 14.8148 15.9343 14.3217C15.9343 13.8287 16.335 13.4276 16.8275 13.4276C17.32 13.4276 17.7207 13.8287 17.7207 14.3217C17.7207 14.8148 17.32 15.2159 16.8275 15.2159Z" fill="white"/>
</svg>