<svg width="22" height="15" viewBox="0 0 22 15" fill="none" xmlns="http://www.w3.org/2000/svg">
<path d="M6.90644 0.000313692C5.90865 -0.0112081 4.9379 0.294984 4.16263 0.865762C3.38736 1.43654 2.85649 2.23588 2.66214 3.1251H0V4.37502H2.66214C2.85982 5.26739 3.39541 6.06864 4.17583 6.63951C4.95624 7.21037 5.93215 7.51477 6.93395 7.4998H10.229V0.000313692H6.90644ZM8.92196 6.24989H6.90644C6.15045 6.26865 5.41651 6.01736 4.86219 5.54997C4.30786 5.08259 3.97735 4.43637 3.94162 3.75006C3.97207 3.06206 4.30098 2.41297 4.8565 1.94457C5.41202 1.47618 6.14899 1.22656 6.90644 1.25023H8.92196V6.24989Z" fill="#CA2C2C"/>
<path d="M21.8682 10.6247H19.268C19.0679 9.73341 18.5316 8.93356 17.7517 8.3631C16.9719 7.79264 15.9973 7.48734 14.9962 7.49988H11.6049V8.7498H8.16543C7.98299 8.7498 7.80802 8.81564 7.67902 8.93284C7.55001 9.05005 7.47754 9.20901 7.47754 9.37476C7.47754 9.5405 7.55001 9.69947 7.67902 9.81667C7.80802 9.93387 7.98299 9.99971 8.16543 9.99971H11.6049V12.4995H8.16543C7.98299 12.4995 7.80802 12.5654 7.67902 12.6826C7.55001 12.7998 7.47754 12.9588 7.47754 13.1245C7.47754 13.2902 7.55001 13.4492 7.67902 13.5664C7.80802 13.6836 7.98299 13.7495 8.16543 13.7495H11.6049V14.9994H15.0031C16.0061 15.0158 16.9836 14.7121 17.7654 14.1411C18.5473 13.5701 19.0839 12.768 19.2818 11.8746H21.8682V10.6247ZM14.9893 13.7495H12.9807V8.7498H15.0031C15.7605 8.72613 16.4975 8.97575 17.053 9.44414C17.6085 9.91254 17.9374 10.5616 17.9679 11.2496C17.9374 11.9376 17.6085 12.5867 17.053 13.0551C16.4975 13.5235 15.7605 13.7731 15.0031 13.7495H14.9893Z" fill="#CA2C2C"/>
</svg>
