<svg width="17" height="17" viewBox="0 0 17 17" fill="none" xmlns="http://www.w3.org/2000/svg">
<path d="M8.67436 10.295C9.80403 10.295 10.7198 9.37923 10.7198 8.24956C10.7198 7.11988 9.80403 6.2041 8.67436 6.2041C7.54469 6.2041 6.62891 7.11988 6.62891 8.24956C6.62891 9.37923 7.54469 10.295 8.67436 10.295Z" stroke="#777777" stroke-width="1.5" stroke-linecap="round" stroke-linejoin="round"/>
<path d="M13.7203 10.2955C13.6295 10.5011 13.6024 10.7292 13.6425 10.9504C13.6826 11.1716 13.7881 11.3757 13.9453 11.5364L13.9862 11.5773C14.113 11.7039 14.2135 11.8543 14.2822 12.0199C14.3508 12.1854 14.3861 12.3628 14.3861 12.542C14.3861 12.7212 14.3508 12.8987 14.2822 13.0642C14.2135 13.2298 14.113 13.3802 13.9862 13.5068C13.8595 13.6336 13.7091 13.7342 13.5436 13.8028C13.378 13.8714 13.2006 13.9068 13.0214 13.9068C12.8422 13.9068 12.6647 13.8714 12.4992 13.8028C12.3337 13.7342 12.1833 13.6336 12.0566 13.5068L12.0157 13.4659C11.855 13.3087 11.6509 13.2033 11.4298 13.1632C11.2086 13.1231 10.9805 13.1501 10.7748 13.2409C10.5731 13.3273 10.4012 13.4708 10.28 13.6538C10.1589 13.8367 10.0939 14.0511 10.093 14.2705V14.3864C10.093 14.748 9.94932 15.0949 9.69359 15.3506C9.43785 15.6063 9.09101 15.75 8.72935 15.75C8.36769 15.75 8.02085 15.6063 7.76511 15.3506C7.50938 15.0949 7.36571 14.748 7.36571 14.3864V14.325C7.36043 14.0993 7.28739 13.8805 7.15606 13.6968C7.02474 13.5132 6.84122 13.3734 6.62935 13.2955C6.4237 13.2047 6.19558 13.1776 5.9744 13.2177C5.75322 13.2578 5.54913 13.3633 5.38844 13.5205L5.34753 13.5614C5.22089 13.6882 5.07049 13.7887 4.90495 13.8574C4.73941 13.926 4.56196 13.9613 4.38276 13.9613C4.20356 13.9613 4.02611 13.926 3.86057 13.8574C3.69503 13.7887 3.54463 13.6882 3.41799 13.5614C3.2912 13.4347 3.19062 13.2843 3.122 13.1188C3.05337 12.9532 3.01805 12.7758 3.01805 12.5966C3.01805 12.4174 3.05337 12.2399 3.122 12.0744C3.19062 11.9089 3.2912 11.7585 3.41799 11.6318L3.4589 11.5909C3.61608 11.4302 3.72152 11.2261 3.76163 11.0049C3.80173 10.7838 3.77466 10.5556 3.6839 10.35C3.59747 10.1483 3.45396 9.97635 3.27103 9.85521C3.08811 9.73407 2.87375 9.66906 2.65435 9.66818H2.53844C2.17678 9.66818 1.82994 9.52451 1.5742 9.26878C1.31847 9.01305 1.1748 8.6662 1.1748 8.30455C1.1748 7.94289 1.31847 7.59604 1.5742 7.34031C1.82994 7.08458 2.17678 6.94091 2.53844 6.94091H2.5998C2.82548 6.93563 3.04435 6.86258 3.22796 6.73126C3.41157 6.59993 3.55143 6.41641 3.62935 6.20455C3.72011 5.9989 3.74718 5.77078 3.70708 5.5496C3.66698 5.32842 3.56153 5.12433 3.40435 4.96364L3.36344 4.92273C3.23666 4.79608 3.13607 4.64569 3.06745 4.48015C2.99883 4.3146 2.9635 4.13716 2.9635 3.95795C2.9635 3.77875 2.99883 3.60131 3.06745 3.43576C3.13607 3.27022 3.23666 3.11983 3.36344 2.99318C3.49009 2.8664 3.64048 2.76582 3.80602 2.69719C3.97157 2.62857 4.14901 2.59325 4.32821 2.59325C4.50742 2.59325 4.68486 2.62857 4.85041 2.69719C5.01595 2.76582 5.16634 2.8664 5.29299 2.99318L5.3339 3.03409C5.49459 3.19128 5.69868 3.29672 5.91986 3.33682C6.14104 3.37693 6.36916 3.34985 6.5748 3.25909H6.62935C6.83101 3.17266 7.003 3.02915 7.12414 2.84623C7.24528 2.6633 7.31029 2.44895 7.31117 2.22955V2.11364C7.31117 1.75198 7.45484 1.40513 7.71057 1.1494C7.9663 0.893668 8.31315 0.75 8.6748 0.75C9.03646 0.75 9.38331 0.893668 9.63904 1.1494C9.89477 1.40513 10.0384 1.75198 10.0384 2.11364V2.175C10.0393 2.3944 10.1043 2.60876 10.2255 2.79168C10.3466 2.97461 10.5186 3.11812 10.7203 3.20455C10.9259 3.29531 11.154 3.32238 11.3752 3.28228C11.5964 3.24217 11.8005 3.13673 11.9612 2.97955L12.0021 2.93864C12.1287 2.81185 12.2791 2.71127 12.4447 2.64265C12.6102 2.57402 12.7876 2.5387 12.9669 2.5387C13.1461 2.5387 13.3235 2.57402 13.489 2.64265C13.6546 2.71127 13.805 2.81185 13.9316 2.93864C14.0584 3.06528 14.159 3.21567 14.2276 3.38122C14.2962 3.54676 14.3316 3.72421 14.3316 3.90341C14.3316 4.08261 14.2962 4.26006 14.2276 4.4256C14.159 4.59114 14.0584 4.74154 13.9316 4.86818L13.8907 4.90909C13.7335 5.06978 13.6281 5.27387 13.588 5.49505C13.5479 5.71623 13.575 5.94435 13.6657 6.15V6.20455C13.7521 6.40621 13.8957 6.57819 14.0786 6.69934C14.2615 6.82048 14.4759 6.88549 14.6953 6.88636H14.8112C15.1728 6.88636 15.5197 7.03003 15.7754 7.28576C16.0311 7.5415 16.1748 7.88834 16.1748 8.25C16.1748 8.61166 16.0311 8.9585 15.7754 9.21424C15.5197 9.46997 15.1728 9.61364 14.8112 9.61364H14.7498C14.5304 9.61451 14.316 9.67952 14.1331 9.80066C13.9502 9.92181 13.8067 10.0938 13.7203 10.2955V10.2955Z" stroke="#777777" stroke-width="1.5" stroke-linecap="round" stroke-linejoin="round"/>
</svg>
