<svg width="48" height="49" viewBox="0 0 48 49" fill="none" xmlns="http://www.w3.org/2000/svg">
<path d="M12.0002 26.7474C12.0002 26.9444 11.9614 27.1395 11.886 27.3215C11.8106 27.5035 11.7002 27.6688 11.5609 27.8081C11.4216 27.9474 11.2562 28.0579 11.0742 28.1333C10.8922 28.2087 10.6972 28.2474 10.5002 28.2474H10.5001L2.24982 28.2467C1.97117 28.2467 1.69804 28.169 1.46105 28.0225C1.22406 27.8759 1.03258 27.6662 0.908073 27.417C0.783566 27.1677 0.730955 26.8886 0.75614 26.6111C0.781325 26.3336 0.88331 26.0686 1.05066 25.8458C2.3801 24.0646 4.15323 22.663 6.19327 21.7807C5.31668 20.9794 4.64295 19.9814 4.22756 18.8688C3.81217 17.7561 3.66699 16.5608 3.80398 15.3811C3.94097 14.2014 4.35621 13.0711 5.0155 12.0833C5.6748 11.0954 6.5593 10.2783 7.59618 9.69925C8.63306 9.12016 9.79266 8.79563 10.9795 8.75239C12.1663 8.70916 13.3465 8.94844 14.4228 9.45055C15.499 9.95265 16.4406 10.7032 17.1701 11.6404C17.8995 12.5777 18.3959 13.6748 18.6183 14.8414C18.6759 15.1444 18.6386 15.4578 18.5116 15.7388C18.3846 16.0199 18.1741 16.255 17.9086 16.412C15.4802 17.8487 13.6319 20.0908 12.6851 22.7488C12.2302 24.0328 11.9986 25.3852 12.0002 26.7474ZM46.9501 25.8455C45.6207 24.0642 43.8476 22.6626 41.8076 21.7803C42.6841 20.979 43.3579 19.981 43.7732 18.8684C44.1886 17.7558 44.3338 16.5604 44.1968 15.3808C44.0598 14.2011 43.6446 13.0708 42.9853 12.083C42.326 11.0951 41.4416 10.278 40.4047 9.69894C39.3678 9.11984 38.2082 8.7953 37.0214 8.75205C35.8346 8.70879 34.6544 8.94805 33.5782 9.45013C32.5019 9.95221 31.5603 10.7028 30.8308 11.64C30.1014 12.5772 29.605 13.6742 29.3825 14.8408C29.325 15.1438 29.3622 15.4572 29.4892 15.7382C29.6162 16.0193 29.8267 16.2544 30.0921 16.4115C32.5205 17.8482 34.3688 20.0904 35.3157 22.7484C35.7706 24.0324 36.0022 25.3849 36.0005 26.7471C36.0006 26.9441 36.0394 27.1391 36.1148 27.3211C36.1902 27.5031 36.3007 27.6685 36.44 27.8078C36.5793 27.9471 36.7447 28.0575 36.9267 28.1329C37.1087 28.2083 37.3037 28.2471 37.5007 28.2471L45.7509 28.2463C46.0296 28.2463 46.3027 28.1686 46.5397 28.0221C46.7767 27.8755 46.9682 27.6659 47.0927 27.4166C47.2172 27.1673 47.2698 26.8883 47.2446 26.6108C47.2194 26.3332 47.1174 26.0682 46.9501 25.8454L46.9501 25.8455ZM29.4684 33.8889C30.963 32.7457 32.0617 31.1628 32.61 29.3628C33.1583 27.5627 33.1286 25.6361 32.5252 23.8538C31.9217 22.0716 30.7748 20.5232 29.2457 19.4266C27.7166 18.33 25.8822 17.7402 24.0006 17.7402C22.1189 17.7402 20.2845 18.33 18.7554 19.4266C17.2263 20.5232 16.0794 22.0716 15.4759 23.8538C14.8725 25.6361 14.8428 27.5627 15.3911 29.3628C15.9394 31.1628 17.0381 32.7457 18.5327 33.8889C15.6124 35.1781 13.2465 37.4649 11.8586 40.3397C11.7472 40.5684 11.6957 40.8217 11.7091 41.0757C11.7224 41.3298 11.8002 41.5762 11.935 41.792C12.0699 42.0077 12.2574 42.1856 12.4799 42.3089C12.7024 42.4322 12.9526 42.4969 13.207 42.4969H34.7941C35.0485 42.4969 35.2987 42.4322 35.5212 42.3088C35.7437 42.1855 35.9312 42.0076 36.066 41.7919C36.2008 41.5762 36.2786 41.3297 36.292 41.0757C36.3054 40.8217 36.2539 40.5684 36.1425 40.3397C34.7546 37.4649 32.3887 35.1781 29.4684 33.8889Z" fill="white"/>
</svg>
