<svg width="19" height="22" viewBox="0 0 19 22" fill="none" xmlns="http://www.w3.org/2000/svg">
<path d="M15.9862 7.85413H8.49343C7.57384 7.85413 6.82837 8.73115 6.82837 9.81302V18.6281C6.82837 19.7099 7.57384 20.587 8.49343 20.587H15.9862C16.9058 20.587 17.6513 19.7099 17.6513 18.6281V9.81302C17.6513 8.73115 16.9058 7.85413 15.9862 7.85413Z" stroke="#5B44BA" stroke-width="0.834512" stroke-linecap="round" stroke-linejoin="round"/>
<path d="M3.4976 13.7328H2.66506C2.22346 13.7328 1.79995 13.5265 1.48769 13.1591C1.17543 12.7917 1 12.2935 1 11.7739V2.9589C1 2.43937 1.17543 1.94111 1.48769 1.57375C1.79995 1.20638 2.22346 1 2.66506 1H10.1578C10.5995 1 11.023 1.20638 11.3352 1.57375C11.6475 1.94111 11.8229 2.43937 11.8229 2.9589V3.93835" stroke="#5B44BA" stroke-width="0.834512" stroke-linecap="round" stroke-linejoin="round"/>
</svg>
