<svg width="108" height="22" viewBox="0 0 108 22" fill="none" xmlns="http://www.w3.org/2000/svg">
<path d="M15.986 7.85547H8.49319C7.5736 7.85547 6.82812 8.7325 6.82812 9.81437V18.6294C6.82812 19.7113 7.5736 20.5883 8.49319 20.5883H15.986C16.9056 20.5883 17.651 19.7113 17.651 18.6294V9.81437C17.651 8.7325 16.9056 7.85547 15.986 7.85547Z" stroke="#5B44BA" stroke-width="0.834512" stroke-linecap="round" stroke-linejoin="round"/>
<path d="M3.4976 13.7328H2.66506C2.22346 13.7328 1.79995 13.5265 1.48769 13.1591C1.17543 12.7917 1 12.2935 1 11.7739V2.9589C1 2.43937 1.17543 1.94111 1.48769 1.57375C1.79995 1.20638 2.22346 1 2.66506 1H10.1578C10.5995 1 11.023 1.20638 11.3352 1.57375C11.6475 1.94111 11.8229 2.43937 11.8229 2.9589V3.93835" stroke="#5B44BA" stroke-width="0.834512" stroke-linecap="round" stroke-linejoin="round"/>
<path d="M28.608 15.18C28.024 15.18 27.492 15.084 27.012 14.892C26.532 14.7 26.12 14.42 25.776 14.052C25.432 13.684 25.164 13.232 24.972 12.696C24.788 12.152 24.696 11.532 24.696 10.836C24.696 10.14 24.8 9.524 25.008 8.988C25.224 8.444 25.512 7.988 25.872 7.62C26.232 7.252 26.652 6.972 27.132 6.78C27.612 6.588 28.124 6.492 28.668 6.492C29.012 6.492 29.32 6.516 29.592 6.564C29.872 6.612 30.112 6.668 30.312 6.732C30.52 6.796 30.688 6.86 30.816 6.924C30.944 6.988 31.032 7.036 31.08 7.068L30.744 8.028C30.672 7.98 30.568 7.928 30.432 7.872C30.296 7.816 30.14 7.76 29.964 7.704C29.796 7.648 29.608 7.604 29.4 7.572C29.2 7.532 28.996 7.512 28.788 7.512C28.348 7.512 27.952 7.588 27.6 7.74C27.248 7.892 26.948 8.112 26.7 8.4C26.452 8.688 26.26 9.04 26.124 9.456C25.996 9.864 25.932 10.324 25.932 10.836C25.932 11.332 25.988 11.784 26.1 12.192C26.22 12.6 26.396 12.952 26.628 13.248C26.86 13.536 27.148 13.76 27.492 13.92C27.844 14.08 28.252 14.16 28.716 14.16C29.252 14.16 29.696 14.104 30.048 13.992C30.4 13.88 30.664 13.78 30.84 13.692L31.14 14.652C31.084 14.692 30.984 14.744 30.84 14.808C30.696 14.864 30.516 14.92 30.3 14.976C30.084 15.032 29.832 15.08 29.544 15.12C29.256 15.16 28.944 15.18 28.608 15.18ZM37.7336 11.88C37.7336 12.376 37.6616 12.824 37.5176 13.224C37.3736 13.624 37.1696 13.968 36.9056 14.256C36.6496 14.544 36.3416 14.768 35.9816 14.928C35.6216 15.08 35.2296 15.156 34.8056 15.156C34.3816 15.156 33.9896 15.08 33.6296 14.928C33.2696 14.768 32.9576 14.544 32.6936 14.256C32.4376 13.968 32.2376 13.624 32.0936 13.224C31.9496 12.824 31.8776 12.376 31.8776 11.88C31.8776 11.392 31.9496 10.948 32.0936 10.548C32.2376 10.14 32.4376 9.792 32.6936 9.504C32.9576 9.216 33.2696 8.996 33.6296 8.844C33.9896 8.684 34.3816 8.604 34.8056 8.604C35.2296 8.604 35.6216 8.684 35.9816 8.844C36.3416 8.996 36.6496 9.216 36.9056 9.504C37.1696 9.792 37.3736 10.14 37.5176 10.548C37.6616 10.948 37.7336 11.392 37.7336 11.88ZM36.5696 11.88C36.5696 11.176 36.4096 10.62 36.0896 10.212C35.7776 9.796 35.3496 9.588 34.8056 9.588C34.2616 9.588 33.8296 9.796 33.5096 10.212C33.1976 10.62 33.0416 11.176 33.0416 11.88C33.0416 12.584 33.1976 13.144 33.5096 13.56C33.8296 13.968 34.2616 14.172 34.8056 14.172C35.3496 14.172 35.7776 13.968 36.0896 13.56C36.4096 13.144 36.5696 12.584 36.5696 11.88ZM43.6358 11.892C43.6358 11.164 43.4558 10.604 43.0958 10.212C42.7358 9.82 42.2558 9.624 41.6558 9.624C41.3198 9.624 41.0558 9.636 40.8638 9.66C40.6798 9.684 40.5318 9.712 40.4198 9.744V13.68C40.5558 13.792 40.7518 13.9 41.0078 14.004C41.2638 14.108 41.5438 14.16 41.8478 14.16C42.1678 14.16 42.4398 14.104 42.6638 13.992C42.8958 13.872 43.0838 13.712 43.2278 13.512C43.3718 13.304 43.4758 13.064 43.5398 12.792C43.6038 12.512 43.6358 12.212 43.6358 11.892ZM44.7998 11.892C44.7998 12.364 44.7358 12.8 44.6078 13.2C44.4878 13.6 44.3078 13.944 44.0678 14.232C43.8278 14.52 43.5318 14.744 43.1798 14.904C42.8358 15.064 42.4398 15.144 41.9918 15.144C41.6318 15.144 41.3118 15.096 41.0318 15C40.7598 14.904 40.5558 14.812 40.4198 14.724V17.22H39.3038V8.952C39.5678 8.888 39.8958 8.82 40.2878 8.748C40.6878 8.668 41.1478 8.628 41.6678 8.628C42.1478 8.628 42.5798 8.704 42.9638 8.856C43.3478 9.008 43.6758 9.224 43.9478 9.504C44.2198 9.784 44.4278 10.128 44.5718 10.536C44.7238 10.936 44.7998 11.388 44.7998 11.892ZM45.4741 16.164C45.5621 16.204 45.6741 16.24 45.8101 16.272C45.9541 16.312 46.0941 16.332 46.2301 16.332C46.6701 16.332 47.0141 16.232 47.2621 16.032C47.5101 15.84 47.7341 15.524 47.9341 15.084C47.4301 14.124 46.9581 13.108 46.5181 12.036C46.0861 10.956 45.7261 9.864 45.4381 8.76H46.6381C46.7261 9.12 46.8301 9.508 46.9501 9.924C47.0781 10.34 47.2181 10.768 47.3701 11.208C47.5221 11.648 47.6861 12.088 47.8621 12.528C48.0381 12.968 48.2221 13.392 48.4141 13.8C48.7181 12.96 48.9821 12.128 49.2061 11.304C49.4301 10.48 49.6421 9.632 49.8421 8.76H50.9941C50.7061 9.936 50.3861 11.068 50.0341 12.156C49.6821 13.236 49.3021 14.248 48.8941 15.192C48.7341 15.552 48.5661 15.86 48.3901 16.116C48.2221 16.38 48.0341 16.596 47.8261 16.764C47.6181 16.932 47.3821 17.056 47.1181 17.136C46.8621 17.216 46.5701 17.256 46.2421 17.256C46.1541 17.256 46.0621 17.248 45.9661 17.232C45.8701 17.224 45.7741 17.208 45.6781 17.184C45.5901 17.168 45.5061 17.148 45.4261 17.124C45.3541 17.1 45.3021 17.08 45.2701 17.064L45.4741 16.164ZM57.2283 6.6C58.3963 6.6 59.2923 6.824 59.9163 7.272C60.5483 7.712 60.8643 8.372 60.8643 9.252C60.8643 9.732 60.7763 10.144 60.6003 10.488C60.4323 10.824 60.1843 11.1 59.8563 11.316C59.5363 11.524 59.1443 11.676 58.6803 11.772C58.2163 11.868 57.6923 11.916 57.1083 11.916H56.1843V15H55.0203V6.804C55.3483 6.724 55.7123 6.672 56.1123 6.648C56.5203 6.616 56.8923 6.6 57.2283 6.6ZM57.3243 7.62C56.8283 7.62 56.4483 7.632 56.1843 7.656V10.92H57.0603C57.4603 10.92 57.8203 10.896 58.1403 10.848C58.4603 10.792 58.7283 10.704 58.9443 10.584C59.1683 10.456 59.3403 10.284 59.4603 10.068C59.5803 9.852 59.6403 9.576 59.6403 9.24C59.6403 8.92 59.5763 8.656 59.4483 8.448C59.3283 8.24 59.1603 8.076 58.9443 7.956C58.7363 7.828 58.4923 7.74 58.2123 7.692C57.9323 7.644 57.6363 7.62 57.3243 7.62ZM64.5531 8.628C64.6491 8.628 64.7571 8.636 64.8771 8.652C65.0051 8.66 65.1291 8.676 65.2491 8.7C65.3691 8.716 65.4771 8.736 65.5731 8.76C65.6771 8.776 65.7531 8.792 65.8011 8.808L65.6091 9.78C65.5211 9.748 65.3731 9.712 65.1651 9.672C64.9651 9.624 64.7051 9.6 64.3851 9.6C64.1771 9.6 63.9691 9.624 63.7611 9.672C63.5611 9.712 63.4291 9.74 63.3651 9.756V15H62.2491V9.024C62.5131 8.928 62.8411 8.84 63.2331 8.76C63.6251 8.672 64.0651 8.628 64.5531 8.628ZM72.386 11.88C72.386 12.376 72.314 12.824 72.17 13.224C72.026 13.624 71.822 13.968 71.558 14.256C71.302 14.544 70.994 14.768 70.634 14.928C70.274 15.08 69.882 15.156 69.458 15.156C69.034 15.156 68.642 15.08 68.282 14.928C67.922 14.768 67.61 14.544 67.346 14.256C67.09 13.968 66.89 13.624 66.746 13.224C66.602 12.824 66.53 12.376 66.53 11.88C66.53 11.392 66.602 10.948 66.746 10.548C66.89 10.14 67.09 9.792 67.346 9.504C67.61 9.216 67.922 8.996 68.282 8.844C68.642 8.684 69.034 8.604 69.458 8.604C69.882 8.604 70.274 8.684 70.634 8.844C70.994 8.996 71.302 9.216 71.558 9.504C71.822 9.792 72.026 10.14 72.17 10.548C72.314 10.948 72.386 11.392 72.386 11.88ZM71.222 11.88C71.222 11.176 71.062 10.62 70.742 10.212C70.43 9.796 70.002 9.588 69.458 9.588C68.914 9.588 68.482 9.796 68.162 10.212C67.85 10.62 67.694 11.176 67.694 11.88C67.694 12.584 67.85 13.144 68.162 13.56C68.482 13.968 68.914 14.172 69.458 14.172C70.002 14.172 70.43 13.968 70.742 13.56C71.062 13.144 71.222 12.584 71.222 11.88ZM72.9361 17.244C72.8401 17.244 72.7161 17.232 72.5641 17.208C72.4121 17.184 72.2841 17.152 72.1801 17.112L72.3241 16.2C72.4041 16.224 72.4961 16.244 72.6001 16.26C72.7041 16.276 72.8001 16.284 72.8881 16.284C73.2721 16.284 73.5441 16.164 73.7041 15.924C73.8721 15.692 73.9561 15.348 73.9561 14.892V8.76H75.0721V14.88C75.0721 15.68 74.8881 16.272 74.5201 16.656C74.1601 17.048 73.6321 17.244 72.9361 17.244ZM74.5081 7.632C74.3081 7.632 74.1361 7.568 73.9921 7.44C73.8561 7.304 73.7881 7.124 73.7881 6.9C73.7881 6.676 73.8561 6.5 73.9921 6.372C74.1361 6.236 74.3081 6.168 74.5081 6.168C74.7081 6.168 74.8761 6.236 75.0121 6.372C75.1561 6.5 75.2281 6.676 75.2281 6.9C75.2281 7.124 75.1561 7.304 75.0121 7.44C74.8761 7.568 74.7081 7.632 74.5081 7.632ZM76.6433 11.892C76.6433 11.34 76.7233 10.86 76.8833 10.452C77.0433 10.036 77.2553 9.692 77.5193 9.42C77.7833 9.148 78.0873 8.944 78.4313 8.808C78.7753 8.672 79.1273 8.604 79.4873 8.604C80.3273 8.604 80.9713 8.868 81.4193 9.396C81.8673 9.916 82.0912 10.712 82.0912 11.784C82.0912 11.832 82.0912 11.896 82.0912 11.976C82.0912 12.048 82.0872 12.116 82.0793 12.18H77.8073C77.8553 12.828 78.0433 13.32 78.3713 13.656C78.6993 13.992 79.2113 14.16 79.9073 14.16C80.2993 14.16 80.6273 14.128 80.8913 14.064C81.1633 13.992 81.3673 13.924 81.5033 13.86L81.6593 14.796C81.5233 14.868 81.2833 14.944 80.9393 15.024C80.6033 15.104 80.2193 15.144 79.7873 15.144C79.2433 15.144 78.7713 15.064 78.3713 14.904C77.9793 14.736 77.6553 14.508 77.3993 14.22C77.1433 13.932 76.9513 13.592 76.8232 13.2C76.7033 12.8 76.6433 12.364 76.6433 11.892ZM80.9273 11.28C80.9353 10.776 80.8073 10.364 80.5433 10.044C80.2873 9.716 79.9313 9.552 79.4753 9.552C79.2193 9.552 78.9913 9.604 78.7913 9.708C78.5993 9.804 78.4353 9.932 78.2993 10.092C78.1633 10.252 78.0553 10.436 77.9753 10.644C77.9033 10.852 77.8553 11.064 77.8313 11.28H80.9273ZM86.4064 15.144C85.9024 15.144 85.4584 15.064 85.0744 14.904C84.6984 14.744 84.3784 14.52 84.1144 14.232C83.8584 13.944 83.6664 13.604 83.5384 13.212C83.4104 12.812 83.3464 12.372 83.3464 11.892C83.3464 11.412 83.4144 10.972 83.5504 10.572C83.6944 10.172 83.8944 9.828 84.1504 9.54C84.4064 9.244 84.7184 9.016 85.0864 8.856C85.4624 8.688 85.8784 8.604 86.3344 8.604C86.6144 8.604 86.8944 8.628 87.1744 8.676C87.4544 8.724 87.7224 8.8 87.9784 8.904L87.7264 9.852C87.5584 9.772 87.3624 9.708 87.1384 9.66C86.9224 9.612 86.6904 9.588 86.4424 9.588C85.8184 9.588 85.3384 9.784 85.0024 10.176C84.6744 10.568 84.5104 11.14 84.5104 11.892C84.5104 12.228 84.5464 12.536 84.6184 12.816C84.6984 13.096 84.8184 13.336 84.9784 13.536C85.1464 13.736 85.3584 13.892 85.6144 14.004C85.8704 14.108 86.1824 14.16 86.5504 14.16C86.8464 14.16 87.1144 14.132 87.3544 14.076C87.5944 14.02 87.7824 13.96 87.9184 13.896L88.0744 14.832C88.0104 14.872 87.9184 14.912 87.7984 14.952C87.6784 14.984 87.5424 15.012 87.3904 15.036C87.2384 15.068 87.0744 15.092 86.8984 15.108C86.7304 15.132 86.5664 15.144 86.4064 15.144ZM90.3165 8.76H92.6805V9.696H90.3165V12.576C90.3165 12.888 90.3405 13.148 90.3885 13.356C90.4365 13.556 90.5085 13.716 90.6045 13.836C90.7005 13.948 90.8205 14.028 90.9645 14.076C91.1085 14.124 91.2765 14.148 91.4685 14.148C91.8045 14.148 92.0725 14.112 92.2725 14.04C92.4805 13.96 92.6245 13.904 92.7045 13.872L92.9205 14.796C92.8085 14.852 92.6125 14.92 92.3325 15C92.0525 15.088 91.7325 15.132 91.3725 15.132C90.9485 15.132 90.5965 15.08 90.3165 14.976C90.0445 14.864 89.8245 14.7 89.6565 14.484C89.4885 14.268 89.3685 14.004 89.2965 13.692C89.2325 13.372 89.2005 13.004 89.2005 12.588V7.02L90.3165 6.828V8.76ZM96.95 6.684H98.114V15H96.95V6.684ZM107.001 10.836C107.001 11.556 106.889 12.184 106.665 12.72C106.441 13.248 106.125 13.688 105.717 14.04C105.309 14.384 104.821 14.644 104.253 14.82C103.685 14.988 103.061 15.072 102.381 15.072C102.045 15.072 101.673 15.056 101.265 15.024C100.865 15 100.501 14.948 100.173 14.868V6.804C100.501 6.724 100.865 6.672 101.265 6.648C101.673 6.616 102.045 6.6 102.381 6.6C103.061 6.6 103.685 6.688 104.253 6.864C104.821 7.032 105.309 7.292 105.717 7.644C106.125 7.988 106.441 8.428 106.665 8.964C106.889 9.492 107.001 10.116 107.001 10.836ZM102.477 14.052C103.581 14.052 104.405 13.772 104.949 13.212C105.493 12.644 105.765 11.852 105.765 10.836C105.765 9.82 105.493 9.032 104.949 8.472C104.405 7.904 103.581 7.62 102.477 7.62C102.149 7.62 101.893 7.624 101.709 7.632C101.533 7.64 101.409 7.648 101.337 7.656V14.016C101.409 14.024 101.533 14.032 101.709 14.04C101.893 14.048 102.149 14.052 102.477 14.052Z" fill="#5B44BA"/>
</svg>
