<svg width="18" height="20" viewBox="0 0 18 20" fill="none" xmlns="http://www.w3.org/2000/svg">
<path d="M17.1586 3.76562H13.9789V0.585938C13.9789 0.262344 13.7165 0 13.3929 0H0.84082C0.517227 0 0.254883 0.262344 0.254883 0.585938V15.6485C0.254883 15.9721 0.517227 16.2344 0.84082 16.2344H4.02051V19.4141C4.02051 19.7377 4.28285 20 4.60645 20H17.1586C17.4822 20 17.7445 19.7377 17.7445 19.4141V4.35156C17.7445 4.02797 17.4822 3.76562 17.1586 3.76562ZM1.42676 15.0625V1.17188H12.807V4.34176C12.8069 4.34504 12.8065 4.34824 12.8065 4.35156C12.8065 4.35488 12.8069 4.35809 12.807 4.36141V15.0625H1.42676ZM16.5726 18.8281H5.19238V16.2344H13.3929C13.7165 16.2344 13.9789 15.9721 13.9789 15.6485V4.9375H16.5726V18.8281Z" fill="#5B44BA"/>
</svg>
