<svg width="17" height="20" viewBox="0 0 17 20" fill="none" xmlns="http://www.w3.org/2000/svg">
<path d="M14.5002 7.17578H7.75044C6.92204 7.17578 6.25049 7.96584 6.25049 8.94043V16.8813C6.25049 17.8559 6.92204 18.646 7.75044 18.646H14.5002C15.3286 18.646 16.0002 17.8559 16.0002 16.8813V8.94043C16.0002 7.96584 15.3286 7.17578 14.5002 7.17578Z" stroke="#1C0732" stroke-width="1.5" stroke-linecap="round" stroke-linejoin="round"/>
<path d="M3.24992 12.4702H2.49995C2.10214 12.4702 1.72062 12.2843 1.43933 11.9534C1.15803 11.6224 1 11.1736 1 10.7056V2.76465C1 2.29663 1.15803 1.84779 1.43933 1.51685C1.72062 1.18592 2.10214 1 2.49995 1H9.24972C9.64754 1 10.0291 1.18592 10.3103 1.51685C10.5916 1.84779 10.7497 2.29663 10.7497 2.76465V3.64697" stroke="#1C0732" stroke-width="1.5" stroke-linecap="round" stroke-linejoin="round"/>
</svg>
