<svg width="10" height="10" viewBox="0 0 10 10" fill="none" xmlns="http://www.w3.org/2000/svg">
<path d="M6.64999 5.00031L9.74362 1.90668C10.0854 1.56487 10.0854 1.0107 9.74362 0.669421L9.3312 0.257001C8.98928 -0.0849194 8.43511 -0.0849194 8.09383 0.257001L5.00031 3.35052L1.90668 0.25636C1.56487 -0.0854535 1.0107 -0.0854535 0.669421 0.25636L0.25636 0.66878C-0.0854535 1.0107 -0.0854535 1.56487 0.25636 1.90615L3.35052 5.00031L0.257001 8.09383C-0.0849194 8.43575 -0.0849194 8.98992 0.257001 9.3312L0.669421 9.74362C1.01124 10.0854 1.5654 10.0854 1.90668 9.74362L5.00031 6.64999L8.09383 9.74362C8.43575 10.0854 8.98992 10.0854 9.3312 9.74362L9.74362 9.3312C10.0854 8.98928 10.0854 8.43511 9.74362 8.09383L6.64999 5.00031Z" fill="#BBBBBB"/>
</svg>
