<svg width="89" height="89" viewBox="0 0 89 89" fill="none" xmlns="http://www.w3.org/2000/svg">
<circle cx="44.5" cy="44.5" r="44.5" fill="white"/>
<g clip-path="url(#clip0)">
<path d="M17.6912 74.7576H24.4723C24.7355 74.7671 24.9913 74.6685 25.1818 74.4832C25.3723 74.2978 25.4818 74.0419 25.4848 73.7734V71.1675H64.7043V73.7734C64.7077 74.0419 64.8167 74.2978 65.0073 74.4832C65.1978 74.6685 65.4536 74.7671 65.7168 74.7576H72.4979C72.7606 74.7671 73.0155 74.668 73.205 74.4827C73.3941 74.2968 73.5021 74.0414 73.5035 73.7734V66.4275C73.504 65.86 73.0543 65.3997 72.4979 65.3977H70.1096V23.5988H72.4979C73.0543 23.5973 73.504 23.1365 73.5035 22.5695V15.2231C73.5021 14.9556 73.3941 14.6997 73.205 14.5144C73.0155 14.3291 72.7606 14.2299 72.4979 14.2389H65.7168C65.4536 14.2294 65.1978 14.3286 65.0073 14.5139C64.8167 14.6992 64.7077 14.9546 64.7043 15.2231V17.829H25.4848V15.2231C25.4818 14.9546 25.3723 14.6992 25.1818 14.5139C24.9913 14.3286 24.7355 14.2294 24.4723 14.2389H17.6912C17.429 14.2299 17.1741 14.3291 16.9846 14.5144C16.795 14.6997 16.6875 14.9556 16.6855 15.2231V22.5695C16.6855 23.1365 17.1353 23.5973 17.6912 23.5988H20.0795V65.3977H17.6912C17.1353 65.3997 16.6855 65.86 16.6855 66.4275V73.7734C16.6875 74.0414 16.795 74.2968 16.9846 74.4827C17.1741 74.668 17.429 74.7671 17.6912 74.7576ZM71.4923 72.7061H66.7156V67.4492H71.4923V72.7061ZM66.7156 16.2904H71.4923V21.5473H66.7156V16.2904ZM18.6968 16.2904H23.4735V21.5473H18.6968V16.2904ZM22.0908 23.5988H24.4723C25.0301 23.5978 25.4818 23.138 25.4848 22.5695V19.8805H64.7043V22.5695C64.7072 23.138 65.1595 23.5978 65.7168 23.5988H68.0983V65.3977H65.7168C65.1595 65.3992 64.7072 65.859 64.7043 66.4275V69.116H25.4848V66.4275C25.4818 65.859 25.0301 65.3992 24.4723 65.3977H22.0908V23.5988ZM18.6968 67.4492H23.4735V72.7061H18.6968V67.4492Z" fill="#878EDE"/>
<path d="M28.7536 62.1898C28.8297 62.1898 28.9058 62.1808 28.9799 62.1633L40.086 59.5443C40.4499 59.4592 40.7823 59.2714 41.046 59.0019L61.571 38.0233C62.725 36.8413 62.724 34.9296 61.5691 33.7486L55.632 27.6928C54.4737 26.5148 52.5999 26.5138 51.4406 27.6903L30.8738 48.6268C30.6102 48.8953 30.4255 49.2338 30.3416 49.6045L27.774 60.9337C27.7047 61.2382 27.7759 61.5583 27.9665 61.8032C28.1575 62.0476 28.4472 62.1903 28.7536 62.1903V62.1898ZM30.6666 57.278L32.5635 59.2128L30.0961 59.7948L30.6666 57.278ZM31.9674 51.5388L38.1897 57.8855L34.8733 58.6679L31.2004 54.9215L31.9674 51.5388ZM32.838 49.5258L49.3749 32.6918L52.3107 35.6858L35.7905 52.5364L32.838 49.5258ZM40.1651 56.9985L37.213 53.9874L53.7327 37.1363L56.6681 40.1304L40.1651 56.9985ZM52.8612 29.1427C53.2343 28.7641 53.8368 28.7646 54.2095 29.1432L60.1466 35.1995C60.5178 35.5792 60.5183 36.1942 60.1471 36.5744L58.0887 38.6784L50.7979 31.2418L52.8612 29.1427Z" fill="#878EDE"/>
</g>
<defs>
<clipPath id="clip0">
<rect width="59.3333" height="60.52" fill="white" transform="translate(15.4258 14.2383)"/>
</clipPath>
</defs>
</svg>
