<svg width="67" height="67" viewBox="0 0 67 67" fill="none" xmlns="http://www.w3.org/2000/svg">
<g clip-path="url(#clip0)">
<path d="M2.55702 66.9993H10.2143C10.5115 67.0098 10.8004 66.9006 11.0156 66.6954C11.2307 66.4903 11.3544 66.2069 11.3577 65.9097V63.0248H55.6449V65.9097C55.6488 66.2069 55.7719 66.4903 55.987 66.6954C56.2021 66.9006 56.491 67.0098 56.7882 66.9993H64.4455C64.7422 67.0098 65.03 66.9 65.244 66.6949C65.4575 66.4892 65.5794 66.2064 65.5811 65.9097V57.7772C65.5817 57.149 65.0738 56.6394 64.4455 56.6372H61.7486V10.3628H64.4455C65.0738 10.3611 65.5817 9.85098 65.5811 9.22331V1.09024C65.5794 0.794151 65.4575 0.510813 65.244 0.305656C65.03 0.1005 64.7422 -0.00928665 64.4455 0.000693927H56.7882C56.491 -0.00984114 56.2021 0.0999454 55.987 0.305102C55.7719 0.510258 55.6488 0.793042 55.6449 1.09024V3.97519H11.3577V1.09024C11.3544 0.793042 11.2307 0.510258 11.0156 0.305102C10.8004 0.0999454 10.5115 -0.00984114 10.2143 0.000693927H2.55702C2.26093 -0.00928665 1.97315 0.1005 1.75912 0.305656C1.5451 0.510813 1.42367 0.794151 1.42145 1.09024V9.22331C1.42145 9.85098 1.92935 10.3611 2.55702 10.3628H5.25399V56.6372H2.55702C1.92935 56.6394 1.42145 57.149 1.42145 57.7772V65.9097C1.42367 66.2064 1.5451 66.4892 1.75912 66.6949C1.97315 66.9 2.26093 67.0098 2.55702 66.9993ZM63.31 64.7281H57.916V58.9083H63.31V64.7281ZM57.916 2.27183H63.31V8.09163H57.916V2.27183ZM3.69259 2.27183H9.08654V8.09163H3.69259V2.27183ZM7.52513 10.3628H10.2143C10.8442 10.3617 11.3544 9.85264 11.3577 9.22331V6.24633H55.6449V9.22331C55.6482 9.85264 56.1589 10.3617 56.7882 10.3628H59.4774V56.6372H56.7882C56.1589 56.6389 55.6482 57.1479 55.6449 57.7772V60.7536H11.3577V57.7772C11.3544 57.1479 10.8442 56.6389 10.2143 56.6372H7.52513V10.3628ZM3.69259 58.9083H9.08654V64.7281H3.69259V58.9083Z" fill="black"/>
<path d="M15.0501 53.0856C15.1361 53.0856 15.222 53.0756 15.3057 53.0562L27.8469 50.1568C28.2578 50.0626 28.6332 49.8547 28.9309 49.5563L52.1081 26.3315C53.4111 25.023 53.41 22.9065 52.1058 21.5991L45.4017 14.8949C44.0936 13.5907 41.9778 13.5896 40.6686 14.8921L17.4444 38.0704C17.1466 38.3676 16.9381 38.7424 16.8433 39.1527L13.9439 51.695C13.8658 52.0321 13.9462 52.3864 14.1613 52.6575C14.377 52.9281 14.7041 53.0861 15.0501 53.0861V53.0856ZM17.2104 47.6478L19.3523 49.7898L16.5661 50.4341L17.2104 47.6478ZM18.6792 41.2941L25.7055 48.3204L21.9606 49.1865L17.8131 45.039L18.6792 41.2941ZM19.6623 39.0656L38.336 20.4291L41.6512 23.7438L22.9963 42.3986L19.6623 39.0656ZM27.9362 47.3384L24.6027 44.0049L43.2569 25.3495L46.5716 28.6642L27.9362 47.3384ZM42.2727 16.5001C42.6941 16.0809 43.3745 16.0815 43.7953 16.5006L50.4995 23.2054C50.9187 23.6257 50.9193 24.3066 50.5001 24.7274L48.1757 27.0568L39.9428 18.8239L42.2727 16.5001Z" fill="black"/>
</g>
<defs>
<clipPath id="clip0">
<rect width="67" height="67" fill="white"/>
</clipPath>
</defs>
</svg>