<svg width="60" height="60" viewBox="0 0 60 60" fill="none" xmlns="http://www.w3.org/2000/svg">
<path d="M55.5954 14.3481L58.5054 11.4386C58.9888 10.9547 59.1481 10.2342 58.9133 9.59198C58.6784 8.94928 58.092 8.50159 57.41 8.44391L52.0116 7.98843L51.5561 2.59003C51.4989 1.90842 51.0507 1.32202 50.4085 1.08719C49.7662 0.851898 49.0457 1.0112 48.5619 1.49506L45.6519 4.4046C40.946 1.51932 35.5655 0 30 0C21.9868 0 14.453 3.12057 8.78677 8.78677C3.12057 14.453 0 21.9868 0 30C0 38.0132 3.12057 45.547 8.78677 51.2132C14.453 56.8794 21.9868 60 30 60C38.0132 60 45.547 56.8794 51.2132 51.2132C56.8794 45.547 60 38.0132 60 30C60 24.4345 58.4807 19.0544 55.5954 14.3481ZM48.6328 9.76318C48.7051 10.6174 49.3826 11.2949 50.2368 11.3672L53.3427 11.629L49.1386 15.8331L44.5537 15.4463L44.1669 10.8614L48.371 6.65726L48.6328 9.76318ZM35.9766 30C35.9766 33.2954 33.2954 35.9766 30 35.9766C26.7046 35.9766 24.0234 33.2954 24.0234 30C24.0234 26.7046 26.7046 24.0234 30 24.0234C31.0094 24.0234 31.9601 24.2757 32.7946 24.7192L28.7572 28.7572C28.0705 29.4434 28.0705 30.5562 28.7572 31.2428C29.1 31.5862 29.55 31.7578 30 31.7578C30.45 31.7578 30.9 31.5862 31.2428 31.2428L35.2808 27.2054C35.7243 28.0399 35.9766 28.9906 35.9766 30ZM35.3499 22.164C33.8255 21.1203 31.983 20.5078 30 20.5078C24.7659 20.5078 20.5078 24.7659 20.5078 30C20.5078 35.2341 24.7659 39.4922 30 39.4922C35.2341 39.4922 39.4922 35.2341 39.4922 30C39.4922 28.017 38.8797 26.1745 37.836 24.6501L42.8549 19.6312C45.1479 22.4684 46.5234 26.0765 46.5234 30C46.5234 39.1109 39.1109 46.5234 30 46.5234C20.8891 46.5234 13.4766 39.1109 13.4766 30C13.4766 20.8891 20.8891 13.4766 30 13.4766C33.9235 13.4766 37.5316 14.8521 40.3688 17.1451L35.3499 22.164ZM48.7271 48.7271C43.7251 53.7296 37.0743 56.4844 30 56.4844C22.9257 56.4844 16.2749 53.7296 11.2729 48.7271C6.27045 43.7251 3.51562 37.0743 3.51562 30C3.51562 22.9257 6.27045 16.2749 11.2729 11.2729C16.2749 6.27045 22.9257 3.51562 30 3.51562C34.628 3.51562 39.1109 4.70444 43.0865 6.96991L41.104 8.95248C40.7835 9.27292 40.6009 9.7023 40.5894 10.1505C40.5881 10.2145 40.5899 10.2786 40.5949 10.3432L40.8316 13.1479C37.7065 11.1319 33.9876 9.96094 30 9.96094C18.9505 9.96094 9.96094 18.9505 9.96094 30C9.96094 41.0495 18.9505 50.0391 30 50.0391C41.0495 50.0391 50.0391 41.0495 50.0391 30C50.0391 26.0124 48.8681 22.2935 46.8521 19.1684L49.6568 19.4051C49.7063 19.4087 49.7557 19.411 49.8047 19.411C49.8129 19.411 49.8216 19.4101 49.8299 19.4096C49.8532 19.4096 49.8761 19.4078 49.8994 19.4064C49.9374 19.4041 49.9759 19.4019 50.0134 19.3973C50.0368 19.3941 50.0601 19.3904 50.0835 19.3867C50.1205 19.3808 50.1572 19.3739 50.1938 19.3657C50.2171 19.3602 50.24 19.3542 50.2629 19.3483C50.2986 19.3387 50.3339 19.3277 50.3691 19.3158C50.392 19.308 50.4144 19.3002 50.4369 19.2915C50.4712 19.2783 50.5051 19.2636 50.5389 19.2476C50.5605 19.238 50.582 19.2284 50.6035 19.2174C50.6374 19.2 50.6703 19.1808 50.7028 19.1615C50.7225 19.1496 50.7422 19.1386 50.7614 19.1267C50.7962 19.1039 50.8296 19.0791 50.863 19.054C50.8786 19.0421 50.8946 19.0315 50.9097 19.0192C50.9573 18.9807 51.0036 18.94 51.0475 18.896L53.0301 16.9135C55.2956 20.8891 56.4844 25.372 56.4844 30C56.4844 37.0743 53.7296 43.7251 48.7271 48.7271Z" fill="#5B44BA" fill-opacity="0.6"/>
</svg>
