<svg width="38" height="38" viewBox="0 0 38 38" fill="none" xmlns="http://www.w3.org/2000/svg">
<path opacity="0.7" d="M33.918 24.6262C32.0531 24.6262 30.4775 25.885 29.9915 27.5981H26.0508V23.2475H30.0744C34.4446 23.2475 38 19.6883 38 15.3134C38 11.8056 35.6761 8.72413 32.3769 7.7205C31.3796 3.72291 27.775 0.855778 23.6002 0.855778C21.9819 0.855778 20.4316 1.27356 19.0635 2.07176C17.6145 0.74522 15.7146 0 13.7183 0C9.43639 0 5.93668 3.41709 5.797 7.67012C2.4081 8.6184 0 11.7246 0 15.3134C0 19.6883 3.55538 23.2475 7.9256 23.2475H11.9492V27.5981H8.0085C7.52259 25.885 5.94693 24.6262 4.08203 24.6262C1.8312 24.6262 0 26.4593 0 28.7126C0 30.9659 1.8312 32.7991 4.08203 32.7991C5.94693 32.7991 7.52252 31.5402 8.0085 29.8271H13.0625C13.6773 29.8271 14.1758 29.3281 14.1758 28.7126V23.2475H17.8867V29.9828C16.1755 30.4693 14.918 32.0466 14.918 33.9135C14.918 36.1668 16.7492 38 19 38C21.2508 38 23.082 36.1668 23.082 33.9135C23.082 32.0466 21.8245 30.4693 20.1133 29.9828V23.2475H23.8242V28.7126C23.8242 29.3281 24.3227 29.8271 24.9375 29.8271H29.9915C30.4774 31.5402 32.0531 32.7991 33.918 32.7991C36.1688 32.7991 38 30.9659 38 28.7126C38 26.4593 36.1688 24.6262 33.918 24.6262ZM4.08203 30.5701C3.05893 30.5701 2.22656 29.7368 2.22656 28.7126C2.22656 27.6884 3.05893 26.8551 4.08203 26.8551C5.10514 26.8551 5.9375 27.6884 5.9375 28.7126C5.9375 29.7368 5.10514 30.5701 4.08203 30.5701ZM20.8555 33.9135C20.8555 34.9378 20.0231 35.771 19 35.771C17.9769 35.771 17.1445 34.9378 17.1445 33.9135C17.1445 32.8893 17.9769 32.0561 19 32.0561C20.0231 32.0561 20.8555 32.8893 20.8555 33.9135ZM7.9256 21.0186C4.78318 21.0186 2.22656 18.4593 2.22656 15.3134C2.22656 12.5016 4.32005 10.0748 7.09606 9.6684C7.68186 9.58266 8.09808 9.05291 8.04346 8.46282C8.02735 8.28874 8.01919 8.11087 8.01919 7.93411C8.01919 4.78836 10.5758 2.22905 13.7182 2.22905C15.3948 2.22905 16.9759 2.95867 18.0559 4.23082C18.4351 4.67743 19.095 4.75366 19.5659 4.40534C20.7335 3.54139 22.1285 3.08475 23.6002 3.08475C26.9866 3.08475 29.8028 5.57221 30.3293 8.80801C30.4037 9.26555 30.7534 9.62917 31.2072 9.72115C33.853 10.2574 35.7734 12.6092 35.7734 15.3134C35.7734 18.4593 33.2168 21.0186 30.0743 21.0186H7.9256ZM33.918 30.5701C32.8949 30.5701 32.0625 29.7368 32.0625 28.7126C32.0625 27.6884 32.8949 26.8551 33.918 26.8551C34.9411 26.8551 35.7734 27.6884 35.7734 28.7126C35.7734 29.7368 34.9411 30.5701 33.918 30.5701Z" fill="#DBA017"/>
</svg>
