<svg width="210" height="201" viewBox="0 0 210 201" fill="none" xmlns="http://www.w3.org/2000/svg">
<path opacity="0.7" d="M191.05 138.468C182.393 138.468 175.079 144.311 172.823 152.264H154.53V132.068H173.208C193.495 132.068 210 115.546 210 95.2366C210 78.9533 199.212 64.6487 183.897 59.9898C179.267 41.4325 162.534 28.123 143.154 28.123C135.642 28.123 128.445 30.0624 122.094 33.7677C115.368 27.6098 106.548 24.1504 97.2814 24.1504C77.4043 24.1504 61.1583 40.0129 60.5099 59.7559C44.7783 64.1579 33.5996 78.5774 33.5996 95.2366C33.5996 115.546 50.104 132.068 70.3911 132.068H89.0691V152.264H70.7759C68.5203 144.311 61.2059 138.468 52.5488 138.468C42.1002 138.468 33.5996 146.977 33.5996 157.437C33.5996 167.897 42.1002 176.407 52.5488 176.407C61.2059 176.407 68.5199 170.563 70.7759 162.611H94.2371C97.0912 162.611 99.4051 160.295 99.4051 157.437V132.068H116.632V163.334C108.688 165.592 102.85 172.914 102.85 181.581C102.85 192.041 111.351 200.55 121.8 200.55C132.248 200.55 140.749 192.041 140.749 181.581C140.749 172.914 134.911 165.592 126.968 163.334V132.068H144.194V157.437C144.194 160.295 146.508 162.611 149.362 162.611H172.823C175.079 170.563 182.393 176.407 191.05 176.407C201.499 176.407 210 167.897 210 157.437C210 146.977 201.499 138.468 191.05 138.468ZM52.5488 166.06C47.7995 166.06 43.9355 162.192 43.9355 157.437C43.9355 152.683 47.7995 148.815 52.5488 148.815C57.2982 148.815 61.1621 152.683 61.1621 157.437C61.1621 162.192 57.2982 166.06 52.5488 166.06ZM130.413 181.581C130.413 186.335 126.549 190.203 121.8 190.203C117.05 190.203 113.186 186.335 113.186 181.581C113.186 176.826 117.05 172.958 121.8 172.958C126.549 172.958 130.413 176.826 130.413 181.581ZM70.3911 121.721C55.8036 121.721 43.9355 109.84 43.9355 95.2366C43.9355 82.1844 53.6537 70.9187 66.5402 69.0321C69.2596 68.6341 71.1918 66.1749 70.9382 63.4357C70.8634 62.6276 70.8255 61.8019 70.8255 60.9814C70.8255 46.3784 82.6936 34.4979 97.281 34.4979C105.064 34.4979 112.404 37.8848 117.417 43.7903C119.177 45.8635 122.241 46.2174 124.427 44.6005C129.847 40.5899 136.323 38.4701 143.154 38.4701C158.874 38.4701 171.948 50.0172 174.391 65.0381C174.737 67.162 176.36 68.85 178.467 69.277C190.749 71.7662 199.663 82.6834 199.663 95.2366C199.663 109.84 187.795 121.721 173.208 121.721H70.3911ZM191.05 166.06C186.301 166.06 182.437 162.192 182.437 157.437C182.437 152.683 186.301 148.815 191.05 148.815C195.8 148.815 199.664 152.683 199.664 157.437C199.664 162.192 195.8 166.06 191.05 166.06Z" fill="#109B67"/>
<circle opacity="0.2" cx="16.8" cy="16.8" r="12.3" fill="#1C2126" stroke="#109B67" stroke-width="9"/>
<circle opacity="0.2" cx="201.6" cy="38.8492" r="6.4" fill="#1C2126" stroke="#109B67" stroke-width="4"/>
<circle opacity="0.2" cx="8.4" cy="128.099" r="6.4" fill="#1C2126" stroke="#109B67" stroke-width="4"/>
</svg>