<svg width="43" height="47" viewBox="0 0 43 47" fill="none" xmlns="http://www.w3.org/2000/svg">
<path d="M28.5428 20.4209V2.75391H31.3599V0H11.64V2.75391H14.4571V20.4209L0.710864 40.5778C-0.155309 41.8478 -0.235597 43.4727 0.501176 44.8184C1.23786 46.1641 2.66539 47 4.22674 47H38.7732C40.3346 47 41.7621 46.1641 42.4989 44.8184C43.2356 43.4726 43.1552 41.8477 42.2892 40.5777L28.5428 20.4209ZM17.2743 21.2548V2.75391H25.7257V21.2548L29.3461 26.5635C28.6407 26.4322 27.8903 26.3457 27.1342 26.3457C24.0204 26.3457 20.9972 27.8058 20.8701 27.868C20.1692 28.2106 17.904 29.0996 15.8657 29.0996C14.6054 29.0996 13.3174 28.7733 12.363 28.4564L17.2743 21.2548ZM40.015 43.519C39.8954 43.7375 39.5347 44.2461 38.7731 44.2461H4.22674C3.46527 44.2461 3.10458 43.7375 2.98485 43.519C2.86522 43.3003 2.63234 42.7248 3.05472 42.1054L10.7538 30.8159C11.9389 31.262 13.8832 31.8535 15.8657 31.8535C18.9796 31.8535 22.0027 30.3934 22.1299 30.3312C22.8307 29.9887 25.0958 29.0996 27.1342 29.0996C29.0632 29.0996 31.058 29.8637 31.818 30.188L39.9452 42.1053C40.3675 42.7248 40.1347 43.3002 40.015 43.519Z" fill="#5B44BA"/>
<path d="M25.7258 33.2305H28.5429V35.9844H25.7258V33.2305Z" fill="#5B44BA"/>
<path d="M20.0915 38.7383H22.9086V41.4922H20.0915V38.7383Z" fill="#5B44BA"/>
<path d="M14.4572 35.9844H17.2744V38.7383H14.4572V35.9844Z" fill="#5B44BA"/>
<path d="M20.0915 22.2148H22.9086V24.9688H20.0915V22.2148Z" fill="#5B44BA"/>
</svg>
