<svg width="59" height="63" viewBox="0 0 59 63" fill="none" xmlns="http://www.w3.org/2000/svg">
<path d="M14.8001 41.3007L42.1001 37.8008L56.8002 59.5007H2.90015L14.8001 41.3007Z" fill="url(#paint0_linear)"/>
<path d="M38.9014 27.3728V3.69141H42.6619V0H16.3381V3.69141H20.0987V27.3728L1.74897 54.3915C0.592729 56.0939 0.485554 58.2719 1.46906 60.0758C2.45244 61.8795 4.35803 63 6.44225 63H52.5578C54.642 63 56.5476 61.8795 57.5311 60.0757C58.5146 58.2718 58.4073 56.0937 57.2512 54.3914L38.9014 27.3728ZM23.8592 28.4905V3.69141H35.1408V28.4905L39.9736 35.6064C39.0321 35.4304 38.0304 35.3145 37.0211 35.3145C32.8644 35.3145 28.8289 37.2716 28.6592 37.3549C27.7235 37.8142 24.6998 39.0059 21.9789 39.0059C20.2966 39.0059 18.5773 38.5684 17.3032 38.1437L23.8592 28.4905ZM54.2154 58.3339C54.0557 58.6269 53.5742 59.3086 52.5576 59.3086H6.44225C5.42578 59.3086 4.9443 58.6269 4.78448 58.3339C4.62478 58.0408 4.31391 57.2695 4.87774 56.4391L15.1552 41.3065C16.7371 41.9044 19.3325 42.6973 21.9789 42.6973C26.1356 42.6973 30.1711 40.7401 30.3409 40.6568C31.2764 40.1976 34.3001 39.0059 37.0211 39.0059C39.5961 39.0059 42.2589 40.0301 43.2734 40.4648L54.1223 56.439C54.686 57.2695 54.3752 58.0407 54.2154 58.3339Z" fill="white"/>
<path d="M38.9014 27.3728V3.69141H42.6619V0H16.3381V3.69141H20.0987V27.3728L1.74897 54.3915C0.592729 56.0939 0.485554 58.2719 1.46906 60.0758C2.45244 61.8795 4.35803 63 6.44225 63H52.5578C54.642 63 56.5476 61.8795 57.5311 60.0757C58.5146 58.2718 58.4073 56.0937 57.2512 54.3914L38.9014 27.3728ZM23.8592 28.4905V3.69141H35.1408V28.4905L39.9736 35.6064C39.0321 35.4304 38.0304 35.3145 37.0211 35.3145C32.8644 35.3145 28.8289 37.2716 28.6592 37.3549C27.7235 37.8142 24.6998 39.0059 21.9789 39.0059C20.2966 39.0059 18.5773 38.5684 17.3032 38.1437L23.8592 28.4905ZM54.2154 58.3339C54.0557 58.6269 53.5742 59.3086 52.5576 59.3086H6.44225C5.42578 59.3086 4.9443 58.6269 4.78448 58.3339C4.62478 58.0408 4.31391 57.2695 4.87774 56.4391L15.1552 41.3065C16.7371 41.9044 19.3325 42.6973 21.9789 42.6973C26.1356 42.6973 30.1711 40.7401 30.3409 40.6568C31.2764 40.1976 34.3001 39.0059 37.0211 39.0059C39.5961 39.0059 42.2589 40.0301 43.2734 40.4648L54.1223 56.439C54.686 57.2695 54.3752 58.0407 54.2154 58.3339Z" fill="url(#paint1_linear)"/>
<path d="M35.1409 44.543H38.9015V48.2344H35.1409V44.543Z" fill="white"/>
<path d="M35.1409 44.543H38.9015V48.2344H35.1409V44.543Z" fill="url(#paint2_linear)"/>
<path d="M27.6199 51.9258H31.3804V55.6172H27.6199V51.9258Z" fill="white"/>
<path d="M27.6199 51.9258H31.3804V55.6172H27.6199V51.9258Z" fill="url(#paint3_linear)"/>
<path d="M20.0988 48.2344H23.8593V51.9258H20.0988V48.2344Z" fill="white"/>
<path d="M20.0988 48.2344H23.8593V51.9258H20.0988V48.2344Z" fill="url(#paint4_linear)"/>
<path d="M27.6199 29.7773H31.3804V33.4687H27.6199V29.7773Z" fill="white"/>
<path d="M27.6199 29.7773H31.3804V33.4687H27.6199V29.7773Z" fill="url(#paint5_linear)"/>
<defs>
<linearGradient id="paint0_linear" x1="28.0002" y1="45.501" x2="29.8501" y2="59.5007" gradientUnits="userSpaceOnUse">
<stop stop-color="#2DA660"/>
<stop offset="1" stop-color="#52F995"/>
</linearGradient>
<linearGradient id="paint1_linear" x1="29.5" y1="0" x2="29.5" y2="63" gradientUnits="userSpaceOnUse">
<stop stop-color="white"/>
<stop offset="1" stop-color="white" stop-opacity="0"/>
</linearGradient>
<linearGradient id="paint2_linear" x1="29.5" y1="0" x2="29.5" y2="63" gradientUnits="userSpaceOnUse">
<stop stop-color="white"/>
<stop offset="1" stop-color="white" stop-opacity="0"/>
</linearGradient>
<linearGradient id="paint3_linear" x1="29.5" y1="0" x2="29.5" y2="63" gradientUnits="userSpaceOnUse">
<stop stop-color="white"/>
<stop offset="1" stop-color="white" stop-opacity="0"/>
</linearGradient>
<linearGradient id="paint4_linear" x1="29.5" y1="0" x2="29.5" y2="63" gradientUnits="userSpaceOnUse">
<stop stop-color="white"/>
<stop offset="1" stop-color="white" stop-opacity="0"/>
</linearGradient>
<linearGradient id="paint5_linear" x1="29.5" y1="0" x2="29.5" y2="63" gradientUnits="userSpaceOnUse">
<stop stop-color="white"/>
<stop offset="1" stop-color="white" stop-opacity="0"/>
</linearGradient>
</defs>
</svg>
