<svg width="76" height="94" viewBox="0 0 76 94" fill="none" xmlns="http://www.w3.org/2000/svg">
<path d="M17.6377 93.602H17.6382L58.3168 93.602L58.3174 93.602C61.3188 93.5968 64.1859 92.3576 66.2454 90.1745C68.3146 87.9978 69.4924 84.9721 69.4924 81.7596V29.0457C73.5001 27.8508 76.0704 23.9168 75.5263 19.7437L75.5263 19.7437C74.9701 15.4843 71.3413 12.2982 67.0453 12.2973H56.3775L56.3775 9.95168C56.3775 9.95145 56.3775 9.95122 56.3775 9.95099C56.3904 7.60023 55.4608 5.34301 53.7967 3.68242L53.7967 3.68235C52.1327 2.02275 49.8723 1.09847 47.5218 1.11731H28.4333C26.0827 1.09847 23.8223 2.02275 22.1584 3.68235L22.1583 3.68242C20.4943 5.34292 19.5648 7.6 19.5776 9.95064V12.2973H8.90978H8.90971C4.6137 12.2982 0.984956 15.4843 0.428705 19.7437L0.428695 19.7437C-0.11532 23.9168 2.45495 27.8508 6.46262 29.0457V81.7596C6.46262 84.9722 7.64054 87.998 9.7098 90.1747C11.7701 92.3576 14.6371 93.5968 17.6377 93.602ZM24.5576 9.94979L24.5575 9.94545C24.5444 8.91799 24.9483 7.92899 25.6776 7.20352L25.6778 7.2034C26.4061 6.47815 27.3974 6.07951 28.426 6.09725V6.0973H28.4319L47.5231 6.09735L47.529 6.09725C48.5576 6.07951 49.5489 6.47815 50.2773 7.2034L50.2775 7.20365C51.0067 7.92815 51.4106 8.91789 51.3975 9.94545V9.94979V12.2973H24.5576L24.5576 9.94979ZM50.6628 34.3735C49.2875 34.3735 48.1728 35.4882 48.1728 36.8635V77.4985C48.1728 78.8729 49.2874 79.9885 50.6628 79.9885C52.0382 79.9885 53.1528 78.8729 53.1528 77.4985V36.8635C53.1528 35.4882 52.0381 34.3735 50.6628 34.3735ZM25.2924 34.3735C23.917 34.3735 22.8024 35.4882 22.8024 36.8635V77.4985C22.8024 78.8729 23.9169 79.9885 25.2924 79.9885C26.6678 79.9885 27.7824 78.8729 27.7824 77.4985V36.8635C27.7824 35.4882 26.6677 34.3735 25.2924 34.3735ZM58.3168 88.622H17.6382C14.1806 88.622 11.4426 85.6485 11.4426 81.7596V29.3172H64.5124V81.7596C64.5124 85.6485 61.7745 88.622 58.3168 88.622ZM8.90978 17.2773H67.0452C68.9949 17.2773 70.5752 18.8576 70.5752 20.8072C70.5752 22.7569 68.9949 24.3372 67.0452 24.3372H8.90978C6.96016 24.3372 5.37979 22.7569 5.37979 20.8072C5.37979 18.8576 6.96016 17.2773 8.90978 17.2773ZM37.9775 34.3735C36.6022 34.3735 35.4876 35.4882 35.4876 36.8635V77.4985C35.4876 78.8729 36.6022 79.9885 37.9775 79.9885C39.3529 79.9885 40.4675 78.8729 40.4675 77.4985V36.8635C40.4675 35.4882 39.3528 34.3735 37.9775 34.3735Z" fill="#CA2C2C" stroke="#CA2C2C" stroke-width="0.68"/>
</svg>
