<svg width="11" height="13" viewBox="0 0 11 13" fill="none" xmlns="http://www.w3.org/2000/svg">
<path fill-rule="evenodd" clip-rule="evenodd" d="M3.93161 1.11243C3.75636 1.11243 3.5883 1.17908 3.46438 1.2977C3.34046 1.41632 3.27085 1.57721 3.27085 1.74497V2.37751H7.07595V1.74497C7.07595 1.57721 7.00634 1.41632 6.88242 1.2977C6.7585 1.17908 6.59044 1.11243 6.41519 1.11243H3.93161ZM8.23802 2.37751V1.74497C8.23802 1.28218 8.04597 0.838337 7.70412 0.511091C7.36228 0.183845 6.89863 0 6.41519 0H3.93161C3.44816 0 2.98452 0.183845 2.64268 0.511091C2.30083 0.838337 2.10878 1.28218 2.10878 1.74497V2.37751H0.827126C0.506231 2.37751 0.246094 2.62654 0.246094 2.93373V11.255C0.246094 11.7178 0.438141 12.1617 0.779987 12.4889C1.12183 12.8162 1.58547 13 2.06892 13H8.27788C8.76132 13 9.22496 12.8162 9.56681 12.4889C9.90866 12.1617 10.1007 11.7178 10.1007 11.255V2.93373C10.1007 2.62654 9.84057 2.37751 9.51967 2.37751H8.23802ZM1.40816 3.48995V11.255C1.40816 11.4228 1.47777 11.5837 1.60169 11.7023C1.72561 11.8209 1.89367 11.8876 2.06892 11.8876H8.27788C8.45312 11.8876 8.62119 11.8209 8.74511 11.7023C8.86902 11.5837 8.93864 11.4228 8.93864 11.255V3.48995H1.40816Z" fill="#CA2C2C"/>
<path fill-rule="evenodd" clip-rule="evenodd" d="M3.93259 5.35156C4.25349 5.35156 4.51362 5.60059 4.51362 5.90778V9.47405C4.51362 9.78124 4.25349 10.0303 3.93259 10.0303C3.6117 10.0303 3.35156 9.78124 3.35156 9.47405V5.90778C3.35156 5.60059 3.6117 5.35156 3.93259 5.35156Z" fill="#CA2C2C"/>
<path fill-rule="evenodd" clip-rule="evenodd" d="M6.40916 5.35156C6.73005 5.35156 6.99019 5.60059 6.99019 5.90778V9.47405C6.99019 9.78124 6.73005 10.0303 6.40916 10.0303C6.08826 10.0303 5.82812 9.78124 5.82812 9.47405V5.90778C5.82812 5.60059 6.08826 5.35156 6.40916 5.35156Z" fill="#CA2C2C"/>
</svg>
