<svg width="35" height="34" viewBox="0 0 35 34" fill="none" xmlns="http://www.w3.org/2000/svg">
<path d="M14.4915 23.5507H14.4914C14.0501 23.55 13.6285 23.3677 13.3255 23.0467C13.0212 22.7266 12.848 22.2816 12.848 21.8092V14.0572C12.2586 13.8814 11.8806 13.3029 11.9606 12.6892L11.9606 12.6892C12.0425 12.0628 12.5761 11.5943 13.2079 11.5942H13.2079H14.7767V11.2491V11.2489H14.8267L14.4915 23.5507ZM14.4915 23.5507H20.4736H20.4737M14.4915 23.5507H20.4737M20.4737 23.5507C20.9151 23.55 21.3367 23.3677 21.6396 23.0467C21.9439 22.7266 22.1171 22.2816 22.1171 21.8092V14.0572C22.7064 13.8814 23.0844 13.3029 23.0044 12.6892L23.0044 12.6892M20.4737 23.5507L23.0044 12.6892M23.0044 12.6892C22.9226 12.0628 22.389 11.5943 21.7572 11.5942H20.1884L23.0044 12.6892ZM19.8089 10.3273L19.8089 10.3273C20.0536 10.5714 20.1903 10.9034 20.1884 11.249V11.2489H20.1384L20.1884 11.2492L19.8089 10.3273ZM19.8089 10.3273C19.5642 10.0832 19.2318 9.94727 18.8861 9.95004M19.8089 10.3273L18.8861 9.95004M16.0788 10.6324C15.914 10.6296 15.7552 10.6934 15.6385 10.8096C15.5216 10.9258 15.4569 11.0843 15.459 11.2489L16.0788 10.6324ZM16.0788 10.6324H18.8863H16.0788ZM18.8861 9.95004H18.8863V10C19.2187 9.99732 19.5383 10.128 19.7736 10.3627L18.8861 9.95004ZM18.8861 9.95004H16.079H16.0788H18.8861ZM20.1384 11.5942V11.6442H20.1884L20.1384 11.5942ZM15.509 11.2489H15.509L15.509 11.2483C15.5071 11.0972 15.5665 10.9518 15.6737 10.8451L15.6737 10.8451C15.7809 10.7384 15.9266 10.6798 16.0779 10.6824V10.6824H16.0788L18.8863 10.6824L18.8872 10.6824C19.0384 10.6798 19.1842 10.7384 19.2913 10.8451L19.2914 10.8451C19.3986 10.9516 19.458 11.0972 19.4561 11.2483H19.4561V11.2489V11.5942H15.509V11.2489ZM19.348 14.8407C19.1458 14.8407 18.9818 15.0046 18.9818 15.2068V21.1826C18.9818 21.3847 19.1458 21.5488 19.348 21.5488C19.5503 21.5488 19.7142 21.3847 19.7142 21.1826V15.2068C19.7142 15.0046 19.5503 14.8407 19.348 14.8407ZM15.6171 14.8407C15.4148 14.8407 15.2509 15.0046 15.2509 15.2068V21.1826C15.2509 21.3847 15.4148 21.5488 15.6171 21.5488C15.8193 21.5488 15.9832 21.3847 15.9832 21.1826V15.2068C15.9832 15.0046 15.8193 14.8407 15.6171 14.8407ZM20.4736 22.8184H14.4915C13.983 22.8184 13.5803 22.3811 13.5803 21.8092V14.0971H21.3847V21.8092C21.3847 22.3811 20.9821 22.8184 20.4736 22.8184ZM13.2079 12.3265H21.7572C22.0439 12.3265 22.2763 12.5589 22.2763 12.8456C22.2763 13.1323 22.0439 13.3647 21.7572 13.3647H13.2079C12.9212 13.3647 12.6888 13.1323 12.6888 12.8456C12.6888 12.5589 12.9212 12.3265 13.2079 12.3265ZM17.4825 14.8407C17.2803 14.8407 17.1164 15.0046 17.1164 15.2068V21.1826C17.1164 21.3847 17.2803 21.5488 17.4825 21.5488C17.6848 21.5488 17.8487 21.3847 17.8487 21.1826V15.2068C17.8487 15.0046 17.6848 14.8407 17.4825 14.8407Z" fill="#CA2C2C" stroke="#CA2C2C" stroke-width="0.1"/>
<rect x="0.5" y="0.5" width="33.9651" height="32.5007" rx="2.5" stroke="#CA2C2C"/>
</svg>
