<svg width="22" height="24" viewBox="0 0 22 24" fill="none" xmlns="http://www.w3.org/2000/svg">
<path d="M1.52539 5.49609H3.6691H20.8188" stroke="#CA2C2C" stroke-width="1.70732" stroke-linecap="round" stroke-linejoin="round"/>
<path d="M6.88546 5.49933V3.40299C6.88546 2.847 7.11132 2.31379 7.51334 1.92065C7.91536 1.5275 8.46062 1.30664 9.02916 1.30664H13.3165C13.8851 1.30664 14.4303 1.5275 14.8324 1.92065C15.2344 2.31379 15.4602 2.847 15.4602 3.40299V5.49933M18.6758 5.49933V20.1737C18.6758 20.7297 18.4499 21.2629 18.0479 21.6561C17.6459 22.0492 17.1006 22.2701 16.5321 22.2701H5.81362C5.24507 22.2701 4.69982 22.0492 4.2978 21.6561C3.89577 21.2629 3.66992 20.7297 3.66992 20.1737V5.49933H18.6758Z" stroke="#CA2C2C" stroke-width="1.70732" stroke-linecap="round" stroke-linejoin="round"/>
<path d="M9.02734 10.7378V17.0268" stroke="#CA2C2C" stroke-width="1.70732" stroke-linecap="round" stroke-linejoin="round"/>
<path d="M13.3164 10.7378V17.0268" stroke="#CA2C2C" stroke-width="1.70732" stroke-linecap="round" stroke-linejoin="round"/>
</svg>
