<svg width="31" height="33" viewBox="0 0 31 33" fill="none" xmlns="http://www.w3.org/2000/svg">
<path d="M6.77656 26.53C6.77656 27.13 6.68323 27.6533 6.49656 28.1C6.3099 28.54 6.04656 28.9067 5.70656 29.2C5.36656 29.4867 4.9599 29.7033 4.48656 29.85C4.01323 29.99 3.49323 30.06 2.92656 30.06C2.64656 30.06 2.33656 30.0467 1.99656 30.02C1.66323 30 1.3599 29.9567 1.08656 29.89V23.17C1.3599 23.1033 1.66323 23.06 1.99656 23.04C2.33656 23.0133 2.64656 23 2.92656 23C3.49323 23 4.01323 23.0733 4.48656 23.22C4.9599 23.36 5.36656 23.5767 5.70656 23.87C6.04656 24.1567 6.3099 24.5233 6.49656 24.97C6.68323 25.41 6.77656 25.93 6.77656 26.53ZM3.00656 29.21C3.92656 29.21 4.61323 28.9767 5.06656 28.51C5.5199 28.0367 5.74656 27.3767 5.74656 26.53C5.74656 25.6833 5.5199 25.0267 5.06656 24.56C4.61323 24.0867 3.92656 23.85 3.00656 23.85C2.73323 23.85 2.5199 23.8533 2.36656 23.86C2.2199 23.8667 2.11656 23.8733 2.05656 23.88V29.18C2.11656 29.1867 2.2199 29.1933 2.36656 29.2C2.5199 29.2067 2.73323 29.21 3.00656 29.21ZM7.86547 27.41C7.86547 26.95 7.93214 26.55 8.06547 26.21C8.1988 25.8633 8.37547 25.5767 8.59547 25.35C8.81547 25.1233 9.0688 24.9533 9.35547 24.84C9.64214 24.7267 9.93547 24.67 10.2355 24.67C10.9355 24.67 11.4721 24.89 11.8455 25.33C12.2188 25.7633 12.4055 26.4267 12.4055 27.32C12.4055 27.36 12.4055 27.4133 12.4055 27.48C12.4055 27.54 12.4021 27.5967 12.3955 27.65H8.83547C8.87547 28.19 9.03214 28.6 9.30547 28.88C9.5788 29.16 10.0055 29.3 10.5855 29.3C10.9121 29.3 11.1855 29.2733 11.4055 29.22C11.6321 29.16 11.8021 29.1033 11.9155 29.05L12.0455 29.83C11.9321 29.89 11.7321 29.9533 11.4455 30.02C11.1655 30.0867 10.8455 30.12 10.4855 30.12C10.0321 30.12 9.6388 30.0533 9.30547 29.92C8.9788 29.78 8.7088 29.59 8.49547 29.35C8.28214 29.11 8.12214 28.8267 8.01547 28.5C7.91547 28.1667 7.86547 27.8033 7.86547 27.41ZM11.4355 26.9C11.4421 26.48 11.3355 26.1367 11.1155 25.87C10.9021 25.5967 10.6055 25.46 10.2255 25.46C10.0121 25.46 9.82214 25.5033 9.65547 25.59C9.49547 25.67 9.3588 25.7767 9.24547 25.91C9.13214 26.0433 9.04214 26.1967 8.97547 26.37C8.91547 26.5433 8.87547 26.72 8.85547 26.9H11.4355ZM15.3014 30.1C14.7281 30.0867 14.3214 29.9633 14.0814 29.73C13.8414 29.4967 13.7214 29.1333 13.7214 28.64V22.4L14.6514 22.24V28.49C14.6514 28.6433 14.6647 28.77 14.6914 28.87C14.7181 28.97 14.7614 29.05 14.8214 29.11C14.8814 29.17 14.9614 29.2167 15.0614 29.25C15.1614 29.2767 15.2847 29.3 15.4314 29.32L15.3014 30.1ZM16.1858 27.41C16.1858 26.95 16.2524 26.55 16.3858 26.21C16.5191 25.8633 16.6958 25.5767 16.9158 25.35C17.1358 25.1233 17.3891 24.9533 17.6758 24.84C17.9624 24.7267 18.2558 24.67 18.5558 24.67C19.2558 24.67 19.7924 24.89 20.1658 25.33C20.5391 25.7633 20.7258 26.4267 20.7258 27.32C20.7258 27.36 20.7258 27.4133 20.7258 27.48C20.7258 27.54 20.7224 27.5967 20.7158 27.65H17.1558C17.1958 28.19 17.3524 28.6 17.6258 28.88C17.8991 29.16 18.3258 29.3 18.9058 29.3C19.2324 29.3 19.5058 29.2733 19.7258 29.22C19.9524 29.16 20.1224 29.1033 20.2358 29.05L20.3658 29.83C20.2524 29.89 20.0524 29.9533 19.7658 30.02C19.4858 30.0867 19.1658 30.12 18.8058 30.12C18.3524 30.12 17.9591 30.0533 17.6258 29.92C17.2991 29.78 17.0291 29.59 16.8158 29.35C16.6024 29.11 16.4424 28.8267 16.3358 28.5C16.2358 28.1667 16.1858 27.8033 16.1858 27.41ZM19.7558 26.9C19.7624 26.48 19.6558 26.1367 19.4358 25.87C19.2224 25.5967 18.9258 25.46 18.5458 25.46C18.3324 25.46 18.1424 25.5033 17.9758 25.59C17.8158 25.67 17.6791 25.7767 17.5658 25.91C17.4524 26.0433 17.3624 26.1967 17.2958 26.37C17.2358 26.5433 17.1958 26.72 17.1758 26.9H19.7558ZM22.9317 24.8H24.9017V25.58H22.9317V27.98C22.9317 28.24 22.9517 28.4567 22.9917 28.63C23.0317 28.7967 23.0917 28.93 23.1717 29.03C23.2517 29.1233 23.3517 29.19 23.4717 29.23C23.5917 29.27 23.7317 29.29 23.8917 29.29C24.1717 29.29 24.3951 29.26 24.5617 29.2C24.7351 29.1333 24.8551 29.0867 24.9217 29.06L25.1017 29.83C25.0084 29.8767 24.8451 29.9333 24.6117 30C24.3784 30.0733 24.1117 30.11 23.8117 30.11C23.4584 30.11 23.1651 30.0667 22.9317 29.98C22.7051 29.8867 22.5217 29.75 22.3817 29.57C22.2417 29.39 22.1417 29.17 22.0817 28.91C22.0284 28.6433 22.0017 28.3367 22.0017 27.99V23.35L22.9317 23.19V24.8ZM25.6975 27.41C25.6975 26.95 25.7642 26.55 25.8975 26.21C26.0308 25.8633 26.2075 25.5767 26.4275 25.35C26.6475 25.1233 26.9008 24.9533 27.1875 24.84C27.4742 24.7267 27.7675 24.67 28.0675 24.67C28.7675 24.67 29.3042 24.89 29.6775 25.33C30.0508 25.7633 30.2375 26.4267 30.2375 27.32C30.2375 27.36 30.2375 27.4133 30.2375 27.48C30.2375 27.54 30.2342 27.5967 30.2275 27.65H26.6675C26.7075 28.19 26.8642 28.6 27.1375 28.88C27.4108 29.16 27.8375 29.3 28.4175 29.3C28.7442 29.3 29.0175 29.2733 29.2375 29.22C29.4642 29.16 29.6342 29.1033 29.7475 29.05L29.8775 29.83C29.7642 29.89 29.5642 29.9533 29.2775 30.02C28.9975 30.0867 28.6775 30.12 28.3175 30.12C27.8642 30.12 27.4708 30.0533 27.1375 29.92C26.8108 29.78 26.5408 29.59 26.3275 29.35C26.1142 29.11 25.9542 28.8267 25.8475 28.5C25.7475 28.1667 25.6975 27.8033 25.6975 27.41ZM29.2675 26.9C29.2742 26.48 29.1675 26.1367 28.9475 25.87C28.7342 25.5967 28.4375 25.46 28.0575 25.46C27.8442 25.46 27.6542 25.5033 27.4875 25.59C27.3275 25.67 27.1908 25.7767 27.0775 25.91C26.9642 26.0433 26.8742 26.1967 26.8075 26.37C26.7475 26.5433 26.7075 26.72 26.6875 26.9H29.2675Z" fill="#CA2C2C"/>
<path d="M12.5051 14.3007H12.505C12.0638 14.3 11.6422 14.1177 11.3392 13.7967C11.0349 13.4766 10.8617 13.0316 10.8617 12.5592V4.80715C10.2723 4.63143 9.89432 4.05291 9.97432 3.43922L9.97432 3.43921C10.0561 2.81284 10.5898 2.34428 11.2215 2.34415H11.2215H12.7903V1.99908V1.99893H12.8403L12.5051 14.3007ZM12.5051 14.3007H18.4873H18.4874M12.5051 14.3007H18.4874M18.4874 14.3007C18.9287 14.3 19.3504 14.1177 19.6532 13.7967C19.9575 13.4766 20.1307 13.0316 20.1307 12.5592V4.80715C20.7201 4.63143 21.0981 4.05291 21.0181 3.43922L21.0181 3.43921M18.4874 14.3007L21.0181 3.43921M21.0181 3.43921C20.9363 2.81284 20.4026 2.34428 19.7709 2.34415H18.2021L21.0181 3.43921ZM17.8226 1.07725L17.8226 1.07726C18.0673 1.32145 18.204 1.65337 18.2021 1.99904V1.99893H18.1521L18.2021 1.99921L17.8226 1.07725ZM17.8226 1.07725C17.5778 0.833194 17.2454 0.697271 16.8998 0.700042M17.8226 1.07725L16.8998 0.700042M14.0924 1.38239C13.9277 1.37955 13.7688 1.4434 13.6521 1.55962C13.5353 1.67584 13.4706 1.8343 13.4727 1.99893L14.0924 1.38239ZM14.0924 1.38239H16.9H14.0924ZM16.8998 0.700042H16.9V0.750042C17.2323 0.747324 17.552 0.877994 17.7872 1.11266L16.8998 0.700042ZM16.8998 0.700042H14.0926H14.0924H16.8998ZM18.1521 2.34415V2.39415H18.2021L18.1521 2.34415ZM13.5227 1.99893H13.5227L13.5227 1.9983C13.5208 1.8472 13.5801 1.70176 13.6874 1.59507L13.6874 1.59505C13.7945 1.4884 13.9403 1.42978 14.0916 1.43238V1.43239H14.0924L16.9 1.4324L16.9008 1.43238C17.0521 1.42978 17.1979 1.4884 17.305 1.59505L17.305 1.59509C17.4123 1.70164 17.4717 1.84718 17.4697 1.9983H17.4697V1.99893V2.34415H13.5227V1.99893ZM17.3617 5.59066C17.1594 5.59066 16.9955 5.75459 16.9955 5.95684V11.9326C16.9955 12.1347 17.1594 12.2988 17.3617 12.2988C17.564 12.2988 17.7279 12.1347 17.7279 11.9326V5.95684C17.7279 5.75459 17.5639 5.59066 17.3617 5.59066ZM13.6307 5.59066C13.4285 5.59066 13.2646 5.75459 13.2646 5.95684V11.9326C13.2646 12.1347 13.4285 12.2988 13.6307 12.2988C13.833 12.2988 13.9969 12.1347 13.9969 11.9326V5.95684C13.9969 5.75459 13.833 5.59066 13.6307 5.59066ZM18.4873 13.5684H12.5051C11.9967 13.5684 11.594 13.1311 11.594 12.5592V4.84709H19.3984V12.5592C19.3984 13.1311 18.9958 13.5684 18.4873 13.5684ZM11.2215 3.0765H19.7709C20.0576 3.0765 20.29 3.30891 20.29 3.59562C20.29 3.88233 20.0576 4.11474 19.7709 4.11474H11.2215C10.9348 4.11474 10.7024 3.88233 10.7024 3.59562C10.7024 3.30891 10.9348 3.0765 11.2215 3.0765ZM15.4962 5.59066C15.294 5.59066 15.13 5.75459 15.13 5.95684V11.9326C15.13 12.1347 15.2939 12.2988 15.4962 12.2988C15.6985 12.2988 15.8624 12.1347 15.8624 11.9326V5.95684C15.8624 5.75459 15.6985 5.59066 15.4962 5.59066Z" fill="#CA2C2C" stroke="#CA2C2C" stroke-width="0.1"/>
</svg>
