<svg width="10" height="10" viewBox="0 0 10 10" fill="none" xmlns="http://www.w3.org/2000/svg">
<g clip-path="url(#clip0)">
<path d="M6.3797 3.62305C6.25035 3.62305 6.14551 3.72788 6.14551 3.85724V8.28347C6.14551 8.41273 6.25035 8.51766 6.3797 8.51766C6.50905 8.51766 6.61389 8.41273 6.61389 8.28347V3.85724C6.61389 3.72788 6.50905 3.62305 6.3797 3.62305Z" fill="black"/>
<path d="M3.61603 3.62305C3.48667 3.62305 3.38184 3.72788 3.38184 3.85724V8.28347C3.38184 8.41273 3.48667 8.51766 3.61603 8.51766C3.74538 8.51766 3.85022 8.41273 3.85022 8.28347V3.85724C3.85022 3.72788 3.74538 3.62305 3.61603 3.62305Z" fill="black"/>
<path d="M1.60166 2.9771V8.74708C1.60166 9.08812 1.72672 9.40839 1.94518 9.63819C2.16263 9.86863 2.46525 9.99945 2.78195 10H7.21293C7.52972 9.99945 7.83234 9.86863 8.0497 9.63819C8.26816 9.40839 8.39321 9.08812 8.39321 8.74708V2.9771C8.82747 2.86183 9.10887 2.4423 9.05078 1.99669C8.9926 1.55118 8.61304 1.21792 8.16369 1.21783H6.96465V0.925086C6.96602 0.678911 6.86868 0.442524 6.69441 0.268619C6.52014 0.0948051 6.28339 -0.00198181 6.03721 3.07708e-05H3.95767C3.71149 -0.00198181 3.47474 0.0948051 3.30047 0.268619C3.1262 0.442524 3.02886 0.678911 3.03023 0.925086V1.21783H1.83119C1.38184 1.21792 1.00228 1.55118 0.9441 1.99669C0.886009 2.4423 1.1674 2.86183 1.60166 2.9771ZM7.21293 9.53162H2.78195C2.38154 9.53162 2.07005 9.18765 2.07005 8.74708V2.99768H7.92483V8.74708C7.92483 9.18765 7.61334 9.53162 7.21293 9.53162ZM3.49861 0.925086C3.49706 0.803142 3.545 0.685772 3.63154 0.599689C3.71799 0.513605 3.83563 0.466309 3.95767 0.468413H6.03721C6.15925 0.466309 6.27689 0.513605 6.36334 0.599689C6.44988 0.685681 6.49782 0.803142 6.49626 0.925086V1.21783H3.49861V0.925086ZM1.83119 1.68621H8.16369C8.39651 1.68621 8.58523 1.87493 8.58523 2.10775C8.58523 2.34057 8.39651 2.5293 8.16369 2.5293H1.83119C1.59837 2.5293 1.40965 2.34057 1.40965 2.10775C1.40965 1.87493 1.59837 1.68621 1.83119 1.68621Z" fill="black"/>
<path d="M4.99786 3.62305C4.86851 3.62305 4.76367 3.72788 4.76367 3.85724V8.28347C4.76367 8.41273 4.86851 8.51766 4.99786 8.51766C5.12721 8.51766 5.23205 8.41273 5.23205 8.28347V3.85724C5.23205 3.72788 5.12721 3.62305 4.99786 3.62305Z" fill="black"/>
</g>
<defs>
<clipPath id="clip0">
<rect width="10" height="10" fill="white"/>
</clipPath>
</defs>
</svg>
