<svg width="12" height="12" viewBox="0 0 12 12" fill="none" xmlns="http://www.w3.org/2000/svg">
<path fill-rule="evenodd" clip-rule="evenodd" d="M1.08342 1.73584C0.89012 2.07918 0.779785 2.47594 0.779785 2.89861C0.779785 4.20438 1.83283 5.26292 3.13184 5.26292C3.55231 5.26292 3.94702 5.15201 4.28858 4.95771L3.60177 4.26732C3.45449 4.3184 3.29639 4.34615 3.13184 4.34615C2.33653 4.34615 1.69181 3.69806 1.69181 2.89861C1.69181 2.7332 1.7194 2.57427 1.77023 2.42622L1.08342 1.73584ZM4.32962 3.70244C4.48264 3.4725 4.57187 3.19603 4.57187 2.89861C4.57187 2.09916 3.92714 1.45108 3.13184 1.45108C2.83596 1.45108 2.56093 1.54077 2.33218 1.69459L1.67963 1.03864C2.07951 0.722725 2.58378 0.534302 3.13184 0.534302C4.43084 0.534302 5.48389 1.59284 5.48389 2.89861C5.48389 3.44952 5.29644 3.95642 4.98216 4.35839L4.32962 3.70244ZM6.84354 7.52598C6.65025 7.86933 6.53991 8.26609 6.53991 8.68876C6.53991 9.99453 7.59296 11.0531 8.89196 11.0531C9.31244 11.0531 9.70715 10.9422 10.0487 10.7479L9.3619 10.0575C9.21462 10.1086 9.05651 10.1363 8.89196 10.1363C8.09666 10.1363 7.45193 9.48821 7.45193 8.68876C7.45193 8.52335 7.47953 8.36442 7.53035 8.21637L6.84354 7.52598ZM8.0923 7.48474L7.43975 6.82879C7.83964 6.51287 8.34391 6.32445 8.89196 6.32445C10.191 6.32445 11.244 7.38299 11.244 8.68876C11.244 9.23967 11.0566 9.74657 10.7423 10.1485L10.0897 9.49258C10.2428 9.26264 10.332 8.98618 10.332 8.68876C10.332 7.88931 9.68727 7.24122 8.89196 7.24122C8.59609 7.24122 8.32105 7.33092 8.0923 7.48474ZM5.48389 11.0531V6.32445H0.779785V11.0531H5.48389ZM9.08114 0.253906L6.16214 3.18812L9.08114 6.12233L12.0001 3.18812L9.08114 0.253906ZM9.08114 1.55042L7.45193 3.18812L9.08114 4.82582L10.7104 3.18812L9.08114 1.55042ZM4.57187 10.1363V7.24122H1.69181V10.1363H4.57187Z" fill="black" fill-opacity="0.8"/>
<path d="M0.221868 0.222015C0.344464 0.0993993 0.543231 0.0993994 0.665827 0.222015L11.776 11.334C11.8986 11.4566 11.8986 11.6554 11.776 11.778C11.6534 11.9006 11.4547 11.9006 11.3321 11.778L0.221868 0.666044C0.0992722 0.543429 0.0992721 0.34463 0.221868 0.222015Z" fill="black" fill-opacity="0.8"/>
</svg>
