<svg width="149" height="102" viewBox="0 0 149 102" fill="none" xmlns="http://www.w3.org/2000/svg">
<path d="M46.9638 0.00213311C40.1788 -0.0762149 33.5777 2.00589 28.3059 5.88718C23.034 9.76847 19.4242 15.204 18.1026 21.2507H0V29.7501H18.1026C19.4468 35.8183 23.0888 41.2667 28.3956 45.1486C33.7024 49.0305 40.3386 51.1004 47.1509 50.9986H69.5569V0.00213311H46.9638ZM60.6693 42.4992H46.9638C41.8231 42.6268 36.8323 40.918 33.0628 37.7398C29.2934 34.5616 27.046 30.1673 26.803 25.5004C27.0101 20.822 29.2466 16.4082 33.0242 13.2231C36.8017 10.038 41.8131 8.34057 46.9638 8.50155H60.6693V42.4992Z" fill="#CA2C2C"/>
<path d="M148.704 72.2476H131.023C129.662 66.1871 126.015 60.7481 120.712 56.869C115.409 52.9898 108.782 50.9138 101.974 50.9991H78.9134V59.4985H55.5251C54.2845 59.4985 53.0947 59.9463 52.2175 60.7432C51.3402 61.5402 50.8474 62.6211 50.8474 63.7482C50.8474 64.8753 51.3402 65.9563 52.2175 66.7532C53.0947 67.5502 54.2845 67.9979 55.5251 67.9979H78.9134V84.9968H55.5251C54.2845 84.9968 53.0947 85.4445 52.2175 86.2415C51.3402 87.0385 50.8474 88.1194 50.8474 89.2465C50.8474 90.3736 51.3402 91.4545 52.2175 92.2515C53.0947 93.0485 54.2845 93.4962 55.5251 93.4962H78.9134V101.996H102.021C108.841 102.107 115.489 100.042 120.805 96.1594C126.122 92.2766 129.771 86.8225 131.116 80.7471H148.704V72.2476ZM101.928 93.4962H88.2687V59.4985H102.021C107.172 59.3375 112.183 61.035 115.961 64.2201C119.738 67.4051 121.975 71.819 122.182 76.4974C121.975 81.1757 119.738 85.5896 115.961 88.7746C112.183 91.9597 107.172 93.6572 102.021 93.4962H101.928Z" fill="#CA2C2C"/>
</svg>
