<svg width="20" height="20" viewBox="0 0 20 20" fill="none" xmlns="http://www.w3.org/2000/svg">
<g clip-path="url(#clip0)">
<path d="M17.4455 4.85906L12.7581 0.17168C12.6487 0.0622266 12.4994 0 12.3438 0H4.14062C3.17137 0 2.38281 0.788555 2.38281 1.75781V18.2422C2.38281 19.2114 3.17137 20 4.14062 20H15.8594C16.8286 20 17.6172 19.2114 17.6172 18.2422V5.27344C17.6172 5.11367 17.5501 4.96363 17.4455 4.85906ZM12.9297 2.00051L15.6167 4.6875H13.5156C13.1925 4.6875 12.9297 4.42465 12.9297 4.10156V2.00051ZM15.8594 18.8281H4.14062C3.81754 18.8281 3.55469 18.5653 3.55469 18.2422V1.75781C3.55469 1.43473 3.81754 1.17188 4.14062 1.17188H11.7578V4.10156C11.7578 5.07082 12.5464 5.85938 13.5156 5.85938H16.4453V18.2422C16.4453 18.5653 16.1825 18.8281 15.8594 18.8281Z" fill="#5B44BA"/>
<path d="M13.5156 8.28125H6.48438C6.16078 8.28125 5.89844 8.54359 5.89844 8.86719C5.89844 9.19078 6.16078 9.45312 6.48438 9.45312H13.5156C13.8392 9.45312 14.1016 9.19078 14.1016 8.86719C14.1016 8.54359 13.8392 8.28125 13.5156 8.28125Z" fill="#5B44BA"/>
<path d="M13.5156 10.625H6.48438C6.16078 10.625 5.89844 10.8873 5.89844 11.2109C5.89844 11.5345 6.16078 11.7969 6.48438 11.7969H13.5156C13.8392 11.7969 14.1016 11.5345 14.1016 11.2109C14.1016 10.8873 13.8392 10.625 13.5156 10.625Z" fill="#5B44BA"/>
<path d="M13.5156 12.9688H6.48438C6.16078 12.9688 5.89844 13.2311 5.89844 13.5547C5.89844 13.8783 6.16078 14.1406 6.48438 14.1406H13.5156C13.8392 14.1406 14.1016 13.8783 14.1016 13.5547C14.1016 13.2311 13.8392 12.9688 13.5156 12.9688Z" fill="#5B44BA"/>
<path d="M11.1719 15.3125H6.48438C6.16078 15.3125 5.89844 15.5748 5.89844 15.8984C5.89844 16.222 6.16078 16.4844 6.48438 16.4844H11.1719C11.4955 16.4844 11.7578 16.222 11.7578 15.8984C11.7578 15.5748 11.4955 15.3125 11.1719 15.3125Z" fill="#5B44BA"/>
</g>
<defs>
<clipPath id="clip0">
<rect width="20" height="20" fill="white"/>
</clipPath>
</defs>
</svg>
