<svg width="15" height="15" viewBox="0 0 15 15" fill="none" xmlns="http://www.w3.org/2000/svg">
<path d="M13.928 9.64258C13.6321 9.64258 13.3923 9.88242 13.3923 10.1783V13.3926C13.3923 13.6885 13.1524 13.9283 12.8566 13.9283H2.14233C1.84645 13.9283 1.60661 13.6885 1.60661 13.3926V10.1783C1.60661 9.88242 1.36676 9.64258 1.07088 9.64258C0.775003 9.64258 0.535156 9.88242 0.535156 10.1783V13.3926C0.535156 14.2802 1.2547 14.9997 2.1423 14.9997H12.8566C13.7442 14.9997 14.4637 14.2802 14.4637 13.3926V10.1783C14.4637 9.88242 14.2239 9.64258 13.928 9.64258Z" fill="#1C0732"/>
<path d="M10.5449 9.2641C10.3373 9.06362 10.0082 9.06362 9.80061 9.2641L8.03543 11.0282V0.535724C8.03543 0.239847 7.79558 0 7.49971 0C7.20383 0 6.96398 0.239847 6.96398 0.535724V11.0282L5.19987 9.2641C4.98705 9.05857 4.64792 9.06447 4.44238 9.27726C4.24186 9.48487 4.24186 9.81398 4.44238 10.0216L7.12093 12.7002C7.32989 12.9096 7.66908 12.9101 7.87855 12.7011C7.87886 12.7008 7.87917 12.7005 7.87952 12.7002L10.5581 10.0216C10.7636 9.80877 10.7577 9.46964 10.5449 9.2641Z" fill="#1C0732"/>
</svg>
