<svg width="12" height="12" viewBox="0 0 12 12" fill="none" xmlns="http://www.w3.org/2000/svg">
<path d="M11.1425 7.71387C10.9058 7.71387 10.714 7.90574 10.714 8.14245V10.7139C10.714 10.9506 10.5221 11.1425 10.2854 11.1425H1.71399C1.47729 11.1425 1.28541 10.9506 1.28541 10.7139V8.14245C1.28541 7.90574 1.09353 7.71387 0.856833 7.71387C0.620131 7.71387 0.428253 7.90574 0.428253 8.14245V10.7139C0.428253 11.424 1.00389 11.9996 1.71397 11.9996H10.2854C10.9955 11.9996 11.5711 11.424 11.5711 10.7139V8.14245C11.5711 7.90574 11.3792 7.71387 11.1425 7.71387Z" fill="#5B44BA"/>
<path d="M8.436 7.41128C8.26991 7.2509 8.00661 7.2509 7.84055 7.41128L6.42841 8.82256V0.428579C6.42841 0.191878 6.23653 0 5.99983 0C5.76313 0 5.57125 0.191878 5.57125 0.428579V8.82258L4.15996 7.41128C3.9897 7.24685 3.71839 7.25157 3.55396 7.42181C3.39355 7.58789 3.39355 7.85119 3.55396 8.01728L5.69681 10.1601C5.86397 10.3277 6.13533 10.328 6.3029 10.1609C6.30315 10.1607 6.3034 10.1604 6.30368 10.1601L8.44652 8.01728C8.61097 7.84702 8.60625 7.57571 8.436 7.41128Z" fill="#5B44BA"/>
</svg>
