<svg width="15" height="15" viewBox="0 0 15 15" fill="none" xmlns="http://www.w3.org/2000/svg">
<path d="M1.14134 14.25C1.17096 14.25 1.20058 14.2465 1.22944 14.2398L5.5518 13.2405C5.69341 13.2081 5.82278 13.1364 5.92541 13.0336L13.9135 5.02905C14.3626 4.57805 14.3622 3.84861 13.9127 3.39799L11.6021 1.08737C11.1513 0.637895 10.4221 0.637512 9.97086 1.08641L1.96652 9.07489C1.8639 9.17732 1.79204 9.30651 1.75937 9.44792L0.76009 13.7707C0.733144 13.8869 0.760854 14.009 0.835002 14.1024C0.909341 14.1957 1.02209 14.2501 1.14134 14.2501V14.25ZM1.88588 12.3758L2.62411 13.114L1.66381 13.3361L1.88588 12.3758ZM2.39211 10.186L4.81376 12.6076L3.52305 12.9061L2.0936 11.4767L2.39211 10.186ZM2.73093 9.41792L9.16689 2.99476L10.3095 4.13718L3.88003 10.5666L2.73093 9.41792ZM5.58257 12.2692L4.43366 11.1203L10.8629 4.69061L12.0053 5.83302L5.58257 12.2692ZM10.5237 1.64061C10.669 1.49614 10.9034 1.49633 11.0485 1.6408L13.3591 3.95162C13.5036 4.09647 13.5038 4.33115 13.3593 4.47619L12.5582 5.27902L9.72071 2.44152L10.5237 1.64061Z" fill="black"/>
</svg>
