<svg width="21" height="21" viewBox="0 0 21 21" fill="none" xmlns="http://www.w3.org/2000/svg">
<path d="M2.02179 19.4999C2.06128 19.4999 2.10078 19.4953 2.13925 19.4864L7.9024 18.1541C8.09121 18.1107 8.26371 18.0152 8.40054 17.8781L19.0513 7.2054C19.6501 6.60407 19.6496 5.63148 19.0503 5.03066L15.9695 1.94982C15.3684 1.35053 14.3961 1.35002 13.7945 1.94855L3.12203 12.5999C2.9852 12.7364 2.88939 12.9087 2.84582 13.0972L1.51345 18.8609C1.47753 19.0158 1.51447 19.1786 1.61334 19.3032C1.71245 19.4276 1.86279 19.5002 2.02179 19.5002V19.4999ZM3.0145 17.0011L3.99881 17.9854L2.71842 18.2815L3.0145 17.0011ZM3.68948 14.0813L6.91835 17.3102L5.1974 17.7082L3.29147 15.8022L3.68948 14.0813ZM4.14124 13.0572L12.7225 4.49302L14.246 6.01624L5.67338 14.5889L4.14124 13.0572ZM7.94342 16.8589L6.41154 15.327L14.9839 6.75415L16.5071 8.27736L7.94342 16.8589ZM14.5316 2.68748C14.7253 2.49485 15.0379 2.4951 15.2313 2.68774L18.3121 5.76882C18.5048 5.96196 18.505 6.27486 18.3124 6.46826L17.2443 7.53869L13.4609 3.75536L14.5316 2.68748Z" fill="#5B44BA"/>
</svg>
