<svg width="20" height="20" viewBox="0 0 20 20" fill="none" xmlns="http://www.w3.org/2000/svg">
<rect width="20" height="20" rx="10" fill="#CA2C2C"/>
<path d="M10.6321 7.92888C10.6321 8.71288 10.6041 9.42687 10.5481 10.0709C10.4921 10.7055 10.4221 11.3402 10.3381 11.9749H9.52614C9.44214 11.3402 9.37214 10.7055 9.31614 10.0709C9.26014 9.42687 9.23214 8.71288 9.23214 7.92888V5.29688H10.6321V7.92888ZM10.8701 14.2429C10.8701 14.4949 10.7861 14.7142 10.6181 14.9009C10.4501 15.0875 10.2215 15.1809 9.93214 15.1809C9.64281 15.1809 9.41414 15.0875 9.24614 14.9009C9.07814 14.7142 8.99414 14.4949 8.99414 14.2429C8.99414 13.9909 9.07814 13.7715 9.24614 13.5849C9.41414 13.3982 9.64281 13.3049 9.93214 13.3049C10.2215 13.3049 10.4501 13.3982 10.6181 13.5849C10.7861 13.7715 10.8701 13.9909 10.8701 14.2429Z" fill="white"/>
</svg>
