<svg width="16" height="16" viewBox="0 0 16 16" fill="none" xmlns="http://www.w3.org/2000/svg">
<rect width="16" height="16" rx="8" fill="#FFA600"/>
<path d="M12.7054 10.5948L8.89909 4.01788C8.80777 3.86037 8.67667 3.72962 8.51892 3.63873C8.36117 3.54784 8.1823 3.5 8.00023 3.5C7.81817 3.5 7.6393 3.54784 7.48155 3.63873C7.3238 3.72962 7.1927 3.86037 7.10138 4.01788V4.01822L3.29504 10.5948C3.20366 10.7526 3.15545 10.9317 3.15527 11.1141C3.1551 11.2965 3.20296 11.4757 3.29404 11.6337C3.38512 11.7917 3.51621 11.9229 3.67412 12.0142C3.83202 12.1054 4.01118 12.1535 4.19356 12.1535H11.8069C11.9893 12.1535 12.1684 12.1054 12.3264 12.0142C12.4843 11.9229 12.6153 11.7917 12.7064 11.6337C12.7975 11.4757 12.8454 11.2965 12.8452 11.1141C12.845 10.9317 12.7968 10.7526 12.7054 10.5948V10.5948ZM7.65374 6.96154C7.65374 6.86973 7.69021 6.78169 7.75513 6.71677C7.82005 6.65185 7.90809 6.61538 7.9999 6.61538C8.0917 6.61538 8.17975 6.65185 8.24466 6.71677C8.30958 6.78169 8.34605 6.86973 8.34605 6.96154V8.69231C8.34605 8.78411 8.30958 8.87216 8.24466 8.93708C8.17975 9.00199 8.0917 9.03846 7.9999 9.03846C7.90809 9.03846 7.82005 9.00199 7.75513 8.93708C7.69021 8.87216 7.65374 8.78411 7.65374 8.69231V6.96154ZM8.00015 10.7694C7.89746 10.7694 7.79707 10.7389 7.71168 10.6818C7.62629 10.6248 7.55974 10.5437 7.52044 10.4488C7.48114 10.3539 7.47086 10.2495 7.4909 10.1488C7.51093 10.0481 7.56038 9.95559 7.633 9.88297C7.70561 9.81036 7.79813 9.76091 7.89885 9.74087C7.99957 9.72084 8.10397 9.73112 8.19885 9.77042C8.29373 9.80972 8.37482 9.87627 8.43187 9.96166C8.48893 10.047 8.51938 10.1474 8.51938 10.2501C8.51937 10.3878 8.46467 10.5199 8.36729 10.6173C8.26992 10.7146 8.13786 10.7693 8.00015 10.7694V10.7694Z" fill="white"/>
</svg>
