<svg width="30" height="30" viewBox="0 0 30 30" fill="none" xmlns="http://www.w3.org/2000/svg">
<path d="M14.902 0.770988C14.6508 0.783658 14.4046 0.846019 14.178 0.954412L4.29813 5.6804C4.04242 5.80266 3.81773 5.98055 3.64076 6.20086C3.46379 6.42118 3.33909 6.67825 3.27591 6.95298L0.838482 17.5688C0.782198 17.8133 0.775899 18.0667 0.819958 18.3137C0.864016 18.5608 0.957538 18.7965 1.09499 19.007C1.12831 19.0585 1.16416 19.1083 1.20239 19.1563L8.04082 27.6684C8.21783 27.8887 8.44253 28.0665 8.69825 28.1887C8.95397 28.3109 9.23413 28.3743 9.51793 28.3743L20.4844 28.3717C20.7681 28.3719 21.0482 28.3087 21.3039 28.1867C21.5596 28.0648 21.7844 27.8872 21.9615 27.6671L28.7974 19.1538C28.9745 18.9334 29.0993 18.6763 29.1626 18.4014C29.2258 18.1266 29.2258 17.8411 29.1626 17.5662L26.7214 6.95045C26.6582 6.67572 26.5335 6.41865 26.3565 6.19833C26.1796 5.97802 25.9549 5.80013 25.6992 5.67787L15.8181 0.954412C15.533 0.818062 15.218 0.754991 14.902 0.770988Z" fill="#326CE5"/>
<path d="M14.896 0.00261461C14.6311 0.0165067 14.3716 0.0827352 14.1328 0.197423L3.70207 5.18527C3.43213 5.31434 3.19495 5.50213 3.00813 5.73471C2.82132 5.96728 2.68968 6.23866 2.62298 6.52868L0.0503591 17.7352C-0.00923752 17.9935 -0.0160131 18.2611 0.0304342 18.5221C0.0768816 18.783 0.175606 19.0321 0.32076 19.2545C0.356072 19.3085 0.394022 19.3609 0.434475 19.4113L7.65324 28.3978C7.8401 28.6303 8.0773 28.818 8.34724 28.947C8.61718 29.076 8.91291 29.1429 9.21248 29.1429L20.7893 29.1403C21.0888 29.1405 21.3844 29.0738 21.6544 28.945C21.9243 28.8162 22.1615 28.6288 22.3485 28.3965L29.5648 19.4088C29.7515 19.1763 29.8832 18.905 29.9499 18.615C30.0166 18.3251 30.0167 18.0239 29.9502 17.7339L27.3737 6.52615C27.3069 6.23636 27.1752 5.96523 26.9884 5.73289C26.8015 5.50054 26.5645 5.31294 26.2947 5.184L15.8639 0.196158C15.5627 0.0521176 15.2299 -0.0144362 14.896 0.00261461ZM14.9011 0.771727C15.2171 0.75573 15.5321 0.818801 15.8172 0.95515L25.6982 5.67861C25.954 5.80087 26.1786 5.97876 26.3556 6.19907C26.5326 6.41938 26.6573 6.67645 26.7205 6.95119L29.1617 17.567C29.2249 17.8418 29.2249 18.1273 29.1616 18.4021C29.0984 18.677 28.9736 18.9342 28.7965 19.1545L21.9606 27.6679C21.7835 27.8879 21.5587 28.0655 21.303 28.1875C21.0473 28.3095 20.7672 28.3727 20.4835 28.3725L9.51701 28.375C9.23321 28.3751 8.95305 28.3116 8.69733 28.1894C8.44161 28.0673 8.2169 27.8894 8.0399 27.6692L1.20147 19.1571C1.16324 19.1091 1.12739 19.0593 1.09407 19.0078C0.956618 18.7973 0.863097 18.5615 0.819039 18.3145C0.77498 18.0674 0.781279 17.8141 0.837563 17.5695L3.27498 6.95373C3.33816 6.679 3.46287 6.42193 3.63984 6.20162C3.81681 5.9813 4.0415 5.80341 4.29721 5.68115L14.177 0.955162C14.4037 0.846769 14.6498 0.784409 14.9011 0.771739L14.9011 0.771727Z" fill="white"/>
<path fill-rule="evenodd" clip-rule="evenodd" d="M8.97656 10.3472L14.9995 8.59863L21.0224 10.3472L14.9995 12.0957L8.97656 10.3472Z" fill="white"/>
<path fill-rule="evenodd" clip-rule="evenodd" d="M8.97656 11.0166V17.4325L14.5882 20.5445L14.616 12.6957L8.97656 11.0166Z" fill="white"/>
<path fill-rule="evenodd" clip-rule="evenodd" d="M21.0242 11.0166V17.4325L15.4125 20.5445L15.3848 12.6957L21.0242 11.0166Z" fill="white"/>
</svg>
