<svg width="188" height="188" viewBox="0 0 188 188" fill="none" xmlns="http://www.w3.org/2000/svg">
<path d="M166.974 132.568C165.973 132.568 165.161 131.757 165.161 130.756V90.4355C165.161 89.4345 164.35 88.623 163.349 88.623H101.056C100.055 88.623 99.2432 87.8116 99.2432 86.8105V57.4766C99.2432 56.4755 100.055 55.6641 101.056 55.6641H119.403C120.404 55.6641 121.216 54.8526 121.216 53.8516V1.8125C121.216 0.811485 120.404 0 119.403 0H68.0967C67.0957 0 66.2842 0.811484 66.2842 1.8125V53.8516C66.2842 54.8526 67.0957 55.6641 68.0967 55.6641H86.4443C87.4454 55.6641 88.2568 56.4755 88.2568 57.4766V86.8105C88.2568 87.8116 87.4454 88.623 86.4443 88.623H24.1514C23.1504 88.623 22.3389 89.4345 22.3389 90.4355V130.756C22.3389 131.757 21.5274 132.568 20.5264 132.568H1.8125C0.811483 132.568 0 133.38 0 134.381V185.688C0 186.689 0.811484 187.5 1.8125 187.5H53.4854C54.4864 187.5 55.2979 186.689 55.2979 185.688V134.381C55.2979 133.38 54.4864 132.568 53.4854 132.568H35.1377C34.1367 132.568 33.3252 131.757 33.3252 130.756V101.422C33.3252 100.421 34.1367 99.6094 35.1377 99.6094H86.4443C87.4454 99.6094 88.2568 100.421 88.2568 101.422V130.756C88.2568 131.757 87.4454 132.568 86.4443 132.568H68.0967C67.0957 132.568 66.2842 133.38 66.2842 134.381V185.688C66.2842 186.689 67.0957 187.5 68.0967 187.5H119.403C120.404 187.5 121.216 186.689 121.216 185.688V134.381C121.216 133.38 120.404 132.568 119.403 132.568H101.056C100.055 132.568 99.2432 131.757 99.2432 130.756V101.422C99.2432 100.421 100.055 99.6094 101.056 99.6094H152.362C153.363 99.6094 154.175 100.421 154.175 101.422V130.756C154.175 131.757 153.363 132.568 152.362 132.568H134.015C133.014 132.568 132.202 133.38 132.202 134.381V185.688C132.202 186.689 133.014 187.5 134.015 187.5H185.688C186.689 187.5 187.5 186.689 187.5 185.688V134.381C187.5 133.38 186.689 132.568 185.688 132.568H166.974ZM77.2705 12.7988C77.2705 11.7978 78.082 10.9863 79.083 10.9863H108.417C109.418 10.9863 110.229 11.7978 110.229 12.7988V42.8652C110.229 43.8662 109.418 44.6777 108.417 44.6777H79.083C78.082 44.6777 77.2705 43.8662 77.2705 42.8652V12.7988ZM44.3115 174.701C44.3115 175.702 43.5 176.514 42.499 176.514H12.7988C11.7978 176.514 10.9863 175.702 10.9863 174.701V145.367C10.9863 144.366 11.7978 143.555 12.7988 143.555H42.499C43.5 143.555 44.3115 144.366 44.3115 145.367V174.701ZM110.229 174.701C110.229 175.702 109.418 176.514 108.417 176.514H79.083C78.082 176.514 77.2705 175.702 77.2705 174.701V145.367C77.2705 144.366 78.082 143.555 79.083 143.555H108.417C109.418 143.555 110.229 144.366 110.229 145.367V174.701ZM176.514 174.701C176.514 175.702 175.702 176.514 174.701 176.514H145.001C144 176.514 143.188 175.702 143.188 174.701V145.367C143.188 144.366 144 143.555 145.001 143.555H174.701C175.702 143.555 176.514 144.366 176.514 145.367V174.701Z" fill="url(#paint0_radial)" fill-opacity="0.3"/>
<defs>
<radialGradient id="paint0_radial" cx="0" cy="0" r="1" gradientUnits="userSpaceOnUse" gradientTransform="translate(109.267 69.6121) rotate(118.051) scale(133.824)">
<stop stop-color="#5B44BA"/>
<stop offset="1" stop-color="#5B44BA" stop-opacity="0"/>
</radialGradient>
</defs>
</svg>
