<svg width="15" height="15" viewBox="0 0 15 15" fill="none" xmlns="http://www.w3.org/2000/svg">
<g opacity="0.6">
<path d="M13.928 8.85742C13.6321 8.85742 13.3923 9.09727 13.3923 9.39315V12.6074C13.3923 12.9033 13.1524 13.1432 12.8566 13.1432H2.14233C1.84645 13.1432 1.60661 12.9033 1.60661 12.6074V9.39315C1.60661 9.09727 1.36676 8.85742 1.07088 8.85742C0.775003 8.85742 0.535156 9.09727 0.535156 9.39315V12.6074C0.535156 13.495 1.2547 14.2146 2.1423 14.2146H12.8566C13.7442 14.2146 14.4637 13.495 14.4637 12.6074V9.39315C14.4637 9.09727 14.2239 8.85742 13.928 8.85742Z" fill="black"/>
<path d="M10.5459 9.2641C10.3383 9.06362 10.0092 9.06362 9.80159 9.2641L8.03641 11.0282V0.535724C8.03641 0.239847 7.79656 0 7.50068 0C7.20481 0 6.96496 0.239847 6.96496 0.535724V11.0282L5.20084 9.2641C4.98802 9.05857 4.64889 9.06447 4.44336 9.27726C4.24284 9.48487 4.24284 9.81398 4.44336 10.0216L7.12191 12.7002C7.33087 12.9096 7.67006 12.9101 7.87952 12.7011C7.87984 12.7008 7.88015 12.7005 7.8805 12.7002L10.559 10.0216C10.7646 9.80877 10.7587 9.46964 10.5459 9.2641Z" fill="black"/>
</g>
</svg>
