<svg width="12" height="14" viewBox="0 0 12 14" fill="none" xmlns="http://www.w3.org/2000/svg">
<path d="M11.2119 3.40134L7.93069 0.120176C7.8541 0.0435586 7.74956 0 7.64062 0H1.89844C1.21996 0 0.667969 0.551988 0.667969 1.23047V12.7695C0.667969 13.448 1.21996 14 1.89844 14H10.1016C10.78 14 11.332 13.448 11.332 12.7695V3.69141C11.332 3.57957 11.2851 3.47454 11.2119 3.40134ZM8.05078 1.40036L9.93167 3.28125H8.46094C8.23478 3.28125 8.05078 3.09725 8.05078 2.87109V1.40036ZM10.1016 13.1797H1.89844C1.67228 13.1797 1.48828 12.9957 1.48828 12.7695V1.23047C1.48828 1.00431 1.67228 0.820312 1.89844 0.820312H7.23047V2.87109C7.23047 3.54957 7.78246 4.10156 8.46094 4.10156H10.5117V12.7695C10.5117 12.9957 10.3277 13.1797 10.1016 13.1797Z" fill="#1C0732"/>
<path d="M8.46094 5.79688H3.53906C3.31255 5.79688 3.12891 5.98052 3.12891 6.20703C3.12891 6.43355 3.31255 6.61719 3.53906 6.61719H8.46094C8.68745 6.61719 8.87109 6.43355 8.87109 6.20703C8.87109 5.98052 8.68745 5.79688 8.46094 5.79688Z" fill="#1C0732"/>
<path d="M8.46094 7.4375H3.53906C3.31255 7.4375 3.12891 7.62114 3.12891 7.84766C3.12891 8.07417 3.31255 8.25781 3.53906 8.25781H8.46094C8.68745 8.25781 8.87109 8.07417 8.87109 7.84766C8.87109 7.62114 8.68745 7.4375 8.46094 7.4375Z" fill="#1C0732"/>
<path d="M8.46094 9.07812H3.53906C3.31255 9.07812 3.12891 9.26177 3.12891 9.48828C3.12891 9.7148 3.31255 9.89844 3.53906 9.89844H8.46094C8.68745 9.89844 8.87109 9.7148 8.87109 9.48828C8.87109 9.26177 8.68745 9.07812 8.46094 9.07812Z" fill="#1C0732"/>
<path d="M6.82031 10.7188H3.53906C3.31255 10.7188 3.12891 10.9024 3.12891 11.1289C3.12891 11.3554 3.31255 11.5391 3.53906 11.5391H6.82031C7.04683 11.5391 7.23047 11.3554 7.23047 11.1289C7.23047 10.9024 7.04683 10.7188 6.82031 10.7188Z" fill="#1C0732"/>
</svg>
