<svg width="48" height="49" viewBox="0 0 48 49" fill="none" xmlns="http://www.w3.org/2000/svg">
<path fill-rule="evenodd" clip-rule="evenodd" d="M7.50005 9.49707H40.5C41.2954 9.4981 42.0578 9.81451 42.6202 10.3769C43.1826 10.9393 43.499 11.7017 43.5 12.4971V36.4971C43.499 37.2924 43.1826 38.0549 42.6202 38.6172C42.0578 39.1796 41.2954 39.496 40.5 39.4971L15.3838 39.5674L9.43071 44.5728C8.89399 45.0286 8.213 45.2793 7.50884 45.2803C7.0684 45.2796 6.63343 45.1826 6.23442 44.9961C5.71427 44.7576 5.27398 44.3741 4.96634 43.8916C4.65871 43.4091 4.49681 42.8481 4.50005 42.2759V12.4971C4.50108 11.7017 4.81748 10.9393 5.37987 10.3769C5.94226 9.81451 6.70472 9.4981 7.50005 9.49707ZM14.3229 34.1746L16.2582 28.1749L20.3226 32.2392L14.3229 34.1746ZM27.0604 17.3409L17.6177 26.7836L21.7232 30.8891L31.1659 21.4464L27.0604 17.3409ZM30.6775 15.1102L33.3871 17.8198C33.7742 18.2069 33.7742 18.7875 33.3871 19.1745L32.5162 20.0455L28.4518 15.9812L29.3228 15.1102C29.7098 14.7232 30.2905 14.7232 30.6775 15.1102Z" fill="white"/>
</svg>
