<svg width="112" height="112" viewBox="0 0 112 112" fill="none" xmlns="http://www.w3.org/2000/svg">
<g clip-path="url(#clip0)">
<path d="M51.332 107.26C23.0296 107.26 0 84.2317 0 55.9292C0 27.6267 23.0296 4.59717 51.332 4.59717C61.1738 4.59717 70.7489 7.40152 79.0227 12.712C80.647 13.7579 81.123 15.9231 80.0771 17.5517C79.0278 19.1803 76.8669 19.6511 75.2383 18.6061C68.0983 14.0185 59.8297 11.597 51.332 11.597C26.8883 11.597 6.99978 31.4855 6.99978 55.9292C6.99978 80.372 26.8883 100.261 51.332 100.261C75.7749 100.261 95.6634 80.372 95.6634 55.9292C95.6634 54.4681 95.5933 53.0215 95.4583 51.5988C95.272 49.6711 96.6811 47.963 98.6036 47.7767C100.536 47.599 102.239 48.9995 102.426 50.922C102.584 52.5694 102.663 54.2399 102.663 55.9292C102.663 84.2317 79.6345 107.26 51.332 107.26Z" fill="#5B44BA"/>
<path d="M57.1645 67.5952C56.269 67.5952 55.3727 67.2543 54.6917 66.569L33.6924 45.5697C32.3252 44.2017 32.3252 41.9852 33.6924 40.618C35.0595 39.2509 37.276 39.2509 38.6431 40.618L57.1696 59.1446L106.023 10.2905C107.391 8.92335 109.607 8.92335 110.974 10.2905C112.342 11.6576 112.342 13.8741 110.974 15.2413L59.6425 66.5733C58.9563 67.2543 58.0609 67.5952 57.1645 67.5952Z" fill="#5B44BA"/>
</g>
<defs>
<clipPath id="clip0">
<rect width="112" height="112" fill="white"/>
</clipPath>
</defs>
</svg>
