<svg width="78" height="75" viewBox="0 0 78 75" fill="none" xmlns="http://www.w3.org/2000/svg">
<g clip-path="url(#clip0)">
<path d="M38.391 1.98234C37.7437 2.01494 37.1095 2.17543 36.5256 2.45438L11.071 14.6169C10.4121 14.9315 9.83325 15.3893 9.37731 15.9563C8.92136 16.5233 8.60006 17.1848 8.43728 17.8919L2.15745 45.2119C2.01244 45.8413 1.99621 46.4933 2.10972 47.129C2.22324 47.7648 2.46419 48.3716 2.81832 48.9134C2.90418 49.0458 2.99653 49.174 3.09502 49.2975L20.7137 71.2037C21.1697 71.7705 21.7487 72.2281 22.4075 72.5426C23.0664 72.8571 23.7882 73.0204 24.5194 73.0202L52.7737 73.0137C53.5046 73.0142 54.2262 72.8515 54.8851 72.5376C55.5439 72.2237 56.123 71.7666 56.5793 71.2004L74.1915 49.291C74.6478 48.7239 74.9693 48.0621 75.1322 47.3547C75.2951 46.6474 75.2951 45.9127 75.1323 45.2054L68.8427 17.8854C68.68 17.1783 68.3587 16.5168 67.9027 15.9498C67.4468 15.3828 66.8679 14.925 66.2091 14.6104L40.7512 2.45438C40.0167 2.10348 39.2051 1.94117 38.391 1.98234Z" fill="#326CE5"/>
<path d="M38.3784 0.00672878C37.6959 0.0424804 37.0274 0.212921 36.4121 0.508074L9.53808 13.3444C8.84261 13.6766 8.23153 14.1599 7.75022 14.7584C7.2689 15.357 6.92974 16.0554 6.7579 16.8018L0.129746 45.6421C-0.0237997 46.3069 -0.0412566 46.9954 0.0784114 47.667C0.198079 48.3386 0.452435 48.9796 0.826413 49.5519C0.91739 49.6911 1.01517 49.8258 1.11939 49.9556L19.718 73.0825C20.1994 73.6808 20.8105 74.1639 21.506 74.4959C22.2015 74.8278 22.9634 75.0001 23.7352 75L53.5619 74.9935C54.3335 74.994 55.0953 74.8222 55.7907 74.4908C56.4862 74.1594 57.0975 73.677 57.5792 73.0792L76.1713 49.9491C76.6525 49.3507 76.9916 48.6525 77.1635 47.9063C77.3354 47.1601 77.3357 46.3851 77.1642 45.6388L70.5263 16.7952C70.354 16.0495 70.0146 15.3517 69.5333 14.7538C69.0521 14.1558 68.4412 13.673 67.7461 13.3412L40.8721 0.504818C40.0961 0.134126 39.2386 -0.037152 38.3784 0.00672878ZM38.3914 1.98606C39.2056 1.94489 40.0172 2.10721 40.7516 2.45811L66.2095 14.6141C66.8683 14.9287 67.4472 15.3865 67.9032 15.9535C68.3591 16.5205 68.6804 17.1821 68.8432 17.8891L75.1328 45.2091C75.2956 45.9165 75.2956 46.6511 75.1327 47.3584C74.9698 48.0658 74.6482 48.7276 74.192 49.2947L56.5798 71.2041C56.1234 71.7704 55.5443 72.2274 54.8855 72.5413C54.2267 72.8552 53.505 73.018 52.7741 73.0174L24.5198 73.0239C23.7886 73.0241 23.0668 72.8609 22.408 72.5464C21.7491 72.2319 21.1702 71.7742 20.7142 71.2074L3.09549 49.3013C2.99699 49.1778 2.90464 49.0496 2.81878 48.9171C2.46465 48.3753 2.2237 47.7686 2.11019 47.1328C1.99667 46.497 2.0129 45.8451 2.15791 45.2156L8.43774 17.8956C8.60052 17.1886 8.92181 16.527 9.37776 15.96C9.83371 15.3931 10.4126 14.9353 11.0714 14.6206L36.526 2.45814C37.1099 2.17919 37.7441 2.0187 38.3914 1.98609L38.3914 1.98606Z" fill="white"/>
<path fill-rule="evenodd" clip-rule="evenodd" d="M23.1289 26.6303L38.6465 22.1304L54.164 26.6303L38.6465 31.1302L23.1289 26.6303Z" fill="white"/>
<path fill-rule="evenodd" clip-rule="evenodd" d="M23.1289 28.3569V44.8685L37.5869 52.8772L37.6585 32.6783L23.1289 28.3569Z" fill="white"/>
<path fill-rule="evenodd" clip-rule="evenodd" d="M54.1644 28.3569V44.8685L39.7063 52.8772L39.6348 32.6783L54.1644 28.3569Z" fill="white"/>
</g>
<defs>
<clipPath id="clip0">
<rect width="77.2926" height="75" fill="white"/>
</clipPath>
</defs>
</svg>
