<svg width="78" height="75" viewBox="0 0 78 75" fill="none" xmlns="http://www.w3.org/2000/svg">
<g clip-path="url(#clip0)">
<path d="M38.391 1.98234C37.7437 2.01494 37.1095 2.17543 36.5256 2.45438L11.071 14.6169C10.4121 14.9315 9.83325 15.3893 9.37731 15.9563C8.92136 16.5233 8.60006 17.1848 8.43728 17.8919L2.15745 45.2119C2.01244 45.8413 1.99621 46.4933 2.10972 47.129C2.22324 47.7648 2.46419 48.3716 2.81832 48.9134C2.90418 49.0458 2.99653 49.174 3.09502 49.2975L20.7137 71.2037C21.1697 71.7705 21.7487 72.2281 22.4075 72.5426C23.0664 72.8571 23.7882 73.0204 24.5194 73.0202L52.7737 73.0137C53.5046 73.0142 54.2262 72.8515 54.8851 72.5376C55.5439 72.2237 56.123 71.7666 56.5793 71.2004L74.1915 49.291C74.6478 48.7239 74.9693 48.0621 75.1322 47.3547C75.2951 46.6474 75.2951 45.9127 75.1323 45.2054L68.8427 17.8854C68.68 17.1783 68.3587 16.5168 67.9027 15.9498C67.4468 15.3828 66.8679 14.925 66.2091 14.6104L40.7512 2.45438C40.0167 2.10348 39.2051 1.94117 38.391 1.98234Z" fill="#326CE5"/>
<path d="M38.3784 0.00672878C37.6959 0.0424804 37.0274 0.212921 36.4121 0.508074L9.53808 13.3444C8.84261 13.6766 8.23153 14.1599 7.75022 14.7584C7.2689 15.357 6.92974 16.0554 6.7579 16.8018L0.129746 45.6421C-0.0237997 46.3069 -0.0412566 46.9954 0.0784114 47.667C0.198079 48.3386 0.452435 48.9796 0.826413 49.5519C0.91739 49.6911 1.01517 49.8258 1.11939 49.9556L19.718 73.0825C20.1994 73.6808 20.8105 74.1639 21.506 74.4959C22.2015 74.8278 22.9634 75.0001 23.7352 75L53.5619 74.9935C54.3335 74.994 55.0953 74.8222 55.7907 74.4908C56.4862 74.1594 57.0975 73.677 57.5792 73.0792L76.1713 49.9491C76.6525 49.3507 76.9916 48.6525 77.1635 47.9063C77.3354 47.1601 77.3357 46.3851 77.1642 45.6388L70.5263 16.7952C70.354 16.0495 70.0146 15.3517 69.5333 14.7538C69.0521 14.1558 68.4412 13.673 67.7461 13.3412L40.8721 0.504818C40.0961 0.134126 39.2386 -0.037152 38.3784 0.00672878ZM38.3914 1.98606C39.2056 1.94489 40.0172 2.10721 40.7516 2.45811L66.2095 14.6141C66.8683 14.9287 67.4472 15.3865 67.9032 15.9535C68.3591 16.5205 68.6804 17.1821 68.8432 17.8891L75.1328 45.2091C75.2956 45.9165 75.2956 46.6511 75.1327 47.3584C74.9698 48.0658 74.6482 48.7276 74.192 49.2947L56.5798 71.2041C56.1234 71.7704 55.5443 72.2274 54.8855 72.5413C54.2267 72.8552 53.505 73.018 52.7741 73.0174L24.5198 73.0239C23.7886 73.0241 23.0668 72.8609 22.408 72.5464C21.7491 72.2319 21.1702 71.7742 20.7142 71.2074L3.09549 49.3013C2.99699 49.1778 2.90464 49.0496 2.81878 48.9171C2.46465 48.3753 2.2237 47.7686 2.11019 47.1328C1.99667 46.497 2.0129 45.8451 2.15791 45.2156L8.43774 17.8956C8.60052 17.1886 8.92181 16.527 9.37776 15.96C9.83371 15.3931 10.4126 14.9353 11.0714 14.6206L36.526 2.45814C37.1099 2.17919 37.7441 2.0187 38.3914 1.98609L38.3914 1.98606Z" fill="white"/>
<path d="M38.5689 16.4395C37.9761 16.4206 21.4474 24.5473 21.2313 24.9641C20.712 25.9656 16.9504 43.3144 17.1715 43.6883C17.3 43.9054 20.0094 47.3391 23.191 51.3181L28.9758 58.5523L38.495 58.5563L48.0161 58.5603L54.0726 50.993L60.1309 43.4279L58.0105 34.1342C56.8439 29.0225 55.8005 24.7547 55.6939 24.6518C55.3961 24.3652 38.8902 16.45 38.5689 16.4397V16.4395ZM39.4095 20.5012L43.3048 21.6308L39.4095 22.7604L35.5142 21.6308L39.4095 20.5012ZM35.5142 22.0634L39.1618 23.1486L39.1446 28.2198L35.5155 26.2083L35.5142 22.0634ZM43.3048 22.0634V26.2083L39.6758 28.2198L39.6586 23.1486L43.3048 22.0634ZM33.8872 28.9833L37.7826 30.1129L33.8872 31.2425L29.992 30.1129L33.8872 28.9833ZM43.3529 28.9833L47.2483 30.1129L43.3529 31.2425L39.4576 30.1129L43.3529 28.9833ZM29.992 30.5455L33.6395 31.6289L33.6224 36.7L29.9932 34.6904L29.992 30.5455ZM37.7826 30.5455V34.6904L34.1535 36.7L34.1364 31.6289L37.7826 30.5455ZM39.4576 30.5455L43.1052 31.6289L43.088 36.7L39.4589 34.6904L39.4576 30.5455ZM47.2483 30.5455V34.6904L43.6191 36.7L43.602 31.6289L47.2483 30.5455ZM32.4643 37.0383C33.6242 37.0795 32.7262 38.2465 34.0432 38.8723C35.4478 39.5398 35.7377 37.8637 36.6203 39.144C37.5031 40.4244 35.8344 40.1008 35.9585 41.6509C36.0828 43.2011 37.6798 42.6146 37.0123 44.0192C36.3448 45.4238 35.7895 43.815 34.5091 44.6977C33.2288 45.5803 34.5348 46.67 32.9857 46.7942C31.4354 46.9184 32.5507 45.6352 31.1462 44.9676C29.7415 44.3001 29.4517 45.9744 28.569 44.694C27.6864 43.4136 29.3569 43.7391 29.2327 42.1889C29.1084 40.6387 27.5114 41.2253 28.179 39.8207C28.8465 38.4161 29.3999 40.0248 30.6803 39.1422C31.9608 38.2595 30.6546 37.1699 32.2056 37.0457C32.302 37.038 32.3873 37.0358 32.4644 37.038L32.4643 37.0383ZM42.4754 38.5931C44.5468 38.6513 42.5379 40.5954 44.4294 41.4421C46.3213 42.2887 46.4314 39.4959 47.8552 41.0021C49.279 42.5082 46.484 42.4619 47.223 44.3982C47.962 46.3345 50.0156 44.4376 49.9573 46.5095C49.8986 48.5812 47.9549 46.5719 47.1083 48.4636C46.2617 50.3554 49.0545 50.4656 47.5483 51.8894C46.0423 53.3131 46.0903 50.5181 44.154 51.2571C42.2176 51.9961 44.1154 54.0497 42.0427 53.9914C39.9711 53.9332 41.9801 51.9891 40.0886 51.1425C38.1969 50.2958 38.0848 53.0886 36.661 51.5825C35.2373 50.0764 38.0323 50.1245 37.2933 48.1882C36.5543 46.2519 34.5007 48.1487 34.559 46.0769C34.6177 44.0052 36.5613 46.0126 37.408 44.1209C38.2545 42.2292 35.4618 42.1189 36.9679 40.6952C38.4741 39.2714 38.4278 42.0664 40.3641 41.3274C42.3005 40.5884 40.4026 38.5349 42.4754 38.5931ZM32.5549 39.6802C31.2965 39.6806 30.2767 40.7012 30.2773 41.9597C30.2777 43.2175 31.2972 44.237 32.5549 44.2374C33.8134 44.2381 34.8341 43.2182 34.8345 41.9597C34.8351 40.7005 33.8142 39.6795 32.5549 39.6802ZM42.2591 41.7397C39.7439 41.7389 37.7047 43.778 37.7056 46.2932C37.7058 48.8076 39.7447 50.8457 42.2591 50.8448C44.7728 50.8446 46.8105 48.8069 46.8107 46.2932C46.8115 43.7788 44.7735 41.74 42.2591 41.7397Z" fill="white"/>
</g>
<defs>
<clipPath id="clip0">
<rect width="77.2926" height="75" fill="white"/>
</clipPath>
</defs>
</svg>
