<svg width="32" height="32" viewBox="0 0 32 32" fill="none" xmlns="http://www.w3.org/2000/svg">
<path d="M16.0018 1.37512e-06C7.16076 -0.00367088 0 7.34818 0 16.4223C0 23.5979 4.4795 29.6975 10.7179 31.9376C11.558 32.1542 11.4293 31.541 11.4293 31.1223V28.2763C6.57804 28.8602 6.38141 25.5625 6.05608 25.0117C5.39828 23.8586 3.84315 23.5648 4.3079 23.014C5.41258 22.4301 6.53871 23.1609 7.84359 25.1402C8.7874 26.5761 10.6285 26.3337 11.5616 26.095C11.7654 25.232 12.2015 24.4609 12.8021 23.8623C7.77567 22.9369 5.68071 19.7861 5.68071 16.0404C5.68071 14.2226 6.26343 12.5518 7.40744 11.204C6.67814 8.98233 7.47537 7.0801 7.58262 6.79734C9.6597 6.60638 11.819 8.325 11.987 8.46087C13.1668 8.13404 14.5146 7.96144 16.0232 7.96144C17.539 7.96144 18.8904 8.14138 20.0809 8.47188C20.4849 8.15607 22.4869 6.67983 24.4174 6.85977C24.5211 7.14253 25.3004 9.00069 24.614 11.193C25.7723 12.5444 26.3622 14.23 26.3622 16.0514C26.3622 19.8045 24.2529 22.9589 19.2122 23.8696C19.6439 24.3058 19.9867 24.8259 20.2206 25.3997C20.4545 25.9735 20.5747 26.5894 20.5742 27.2114V31.3427C20.6028 31.6732 20.5742 32 21.1105 32C27.4419 29.8077 32 23.664 32 16.426C32 7.34818 24.8357 1.37512e-06 16.0018 1.37512e-06Z" fill="#1C1438"/>
</svg>
