<svg width="15" height="15" viewBox="0 0 15 15" fill="none" xmlns="http://www.w3.org/2000/svg">
<g clip-path="url(#clip0)">
<path d="M7.5 0.3125C3.35625 0.3125 0 3.6125 0 7.6825C0 10.9394 2.14875 13.7013 5.12813 14.675C5.50313 14.7444 5.64062 14.5163 5.64062 14.3206C5.64062 14.1456 5.63438 13.6819 5.63125 13.0675C3.545 13.5119 3.105 12.0788 3.105 12.0788C2.76375 11.2281 2.27062 11.0006 2.27062 11.0006C1.59125 10.5438 2.32312 10.5531 2.32312 10.5531C3.07625 10.6044 3.47187 11.3125 3.47187 11.3125C4.14062 12.4394 5.2275 12.1138 5.65625 11.9256C5.72375 11.4488 5.91688 11.1244 6.13125 10.94C4.46563 10.7556 2.715 10.1219 2.715 7.29813C2.715 6.49375 3.00563 5.83625 3.48688 5.32063C3.4025 5.13438 3.14937 4.385 3.5525 3.37C3.5525 3.37 4.18062 3.1725 5.615 4.12563C6.215 3.96188 6.8525 3.88063 7.49 3.87688C8.1275 3.88063 8.765 3.96188 9.365 4.12563C10.79 3.1725 11.4181 3.37 11.4181 3.37C11.8212 4.385 11.5681 5.13438 11.4931 5.32063C11.9712 5.83625 12.2619 6.49375 12.2619 7.29813C12.2619 10.1294 10.5087 10.7525 8.84 10.9338C9.1025 11.155 9.34625 11.6069 9.34625 12.2975C9.34625 13.2838 9.33687 14.0763 9.33687 14.3156C9.33687 14.5088 9.46813 14.7394 9.8525 14.6656C12.8531 13.6981 15 10.9344 15 7.6825C15 3.6125 11.6419 0.3125 7.5 0.3125Z" fill="black"/>
</g>
<defs>
<clipPath id="clip0">
<rect width="15" height="15" fill="white"/>
</clipPath>
</defs>
</svg>
