<svg width="103" height="103" viewBox="0 0 103 103" fill="none" xmlns="http://www.w3.org/2000/svg">
<g clip-path="url(#clip0)">
<g clip-path="url(#clip1)">
<path d="M51.5006 -0.192383C41.8466 -0.192383 34.0273 7.49583 34.0273 16.978C34.0273 24.5657 39.0334 31.0002 45.9747 33.2688C46.8483 33.4305 47.1687 32.899 47.1687 32.4432C47.1687 32.0355 47.1541 30.9551 47.1468 29.5237C42.2864 30.559 41.2613 27.2202 41.2613 27.2202C40.4662 25.2384 39.3174 24.7084 39.3174 24.7084C37.7346 23.644 39.4397 23.6658 39.4397 23.6658C41.1943 23.7852 42.116 25.435 42.116 25.435C43.674 28.0604 46.2062 27.3017 47.2051 26.8634C47.3623 25.7524 47.8123 24.9967 48.3117 24.5672C44.4312 24.1376 40.3526 22.6611 40.3526 16.0825C40.3526 14.2085 41.0297 12.6766 42.1509 11.4754C41.9544 11.0414 41.3646 9.29557 42.3038 6.93086C42.3038 6.93086 43.7672 6.47074 47.109 8.69129C48.5068 8.30979 49.992 8.1205 51.4773 8.11176C52.9625 8.1205 54.4477 8.30979 55.8456 8.69129C59.1655 6.47074 60.6289 6.93086 60.6289 6.93086C61.568 9.29557 60.9783 11.0414 60.8036 11.4754C61.9175 12.6766 62.5946 14.2085 62.5946 16.0825C62.5946 22.6786 58.5102 24.1303 54.6224 24.5526C55.234 25.0681 55.8019 26.1208 55.8019 27.7298C55.8019 30.0275 55.78 31.8739 55.78 32.4316C55.78 32.8815 56.0858 33.4188 56.9813 33.247C63.9721 30.9929 68.9738 24.5541 68.9738 16.978C68.9738 7.49583 61.1501 -0.192383 51.5006 -0.192383Z" fill="#858CDD"/>
</g>
<g clip-path="url(#clip2)">
<path d="M51.5006 68.7812C41.8466 68.7812 34.0273 76.4695 34.0273 85.9516C34.0273 93.5393 39.0334 99.9739 45.9747 102.242C46.8483 102.404 47.1687 101.873 47.1687 101.417C47.1687 101.009 47.1541 99.9287 47.1468 98.4974C42.2864 99.5327 41.2613 96.1938 41.2613 96.1938C40.4662 94.2121 39.3174 93.682 39.3174 93.682C37.7346 92.6176 39.4397 92.6395 39.4397 92.6395C41.1943 92.7589 42.116 94.4086 42.116 94.4086C43.674 97.034 46.2062 96.2754 47.2051 95.8371C47.3623 94.7261 47.8123 93.9703 48.3117 93.5408C44.4312 93.1112 40.3526 91.6348 40.3526 85.0561C40.3526 83.1821 41.0297 81.6503 42.1509 80.449C41.9544 80.0151 41.3646 78.2692 42.3038 75.9045C42.3038 75.9045 43.7672 75.4444 47.109 77.6649C48.5068 77.2834 49.992 77.0941 51.4773 77.0854C52.9625 77.0941 54.4477 77.2834 55.8456 77.6649C59.1655 75.4444 60.6289 75.9045 60.6289 75.9045C61.568 78.2692 60.9783 80.0151 60.8036 80.449C61.9175 81.6503 62.5946 83.1821 62.5946 85.0561C62.5946 91.6522 58.5102 93.104 54.6224 93.5262C55.234 94.0417 55.8019 95.0945 55.8019 96.7035C55.8019 99.0012 55.78 100.848 55.78 101.405C55.78 101.855 56.0858 102.392 56.9813 102.221C63.9721 99.9666 68.9738 93.5277 68.9738 85.9516C68.9738 76.4695 61.1501 68.7812 51.5006 68.7812Z" fill="#858CDD"/>
</g>
<path d="M94.9195 34.6016H76.8813C72.4257 34.6016 68.8008 38.2265 68.8008 42.682V60.7203C68.8008 65.1759 72.4257 68.8008 76.8813 68.8008H94.9195C99.3751 68.8008 103 65.1759 103 60.7203V42.682C103 38.2265 99.3751 34.6016 94.9195 34.6016ZM98.9768 60.7203H98.9766C98.9766 62.9573 97.1566 64.7773 94.9195 64.7773H76.8813C74.6442 64.7773 72.8242 62.9573 72.8242 60.7203V42.682C72.8242 40.445 74.6442 38.625 76.8813 38.625H77.6523V51.8681C77.6544 53.6224 78.2056 55.2901 79.2476 56.6902C79.7486 57.3642 80.3501 57.9536 81.034 58.4445C81.7261 58.9393 82.4885 59.3198 83.2972 59.575C83.4944 59.6376 83.6996 59.6696 83.905 59.6696C84.7861 59.6696 85.5566 59.1043 85.8219 58.2614C85.9831 57.7504 85.9366 57.2052 85.6894 56.7287C85.4399 56.2519 85.0215 55.8998 84.5085 55.7387C82.8106 55.2016 81.6718 53.6467 81.676 51.8683V38.625H94.9197C97.1568 38.625 98.9768 40.445 98.9768 42.682V60.7203Z" fill="#858CDD"/>
<path d="M10.8633 29.9738C11.9742 29.9738 12.875 29.073 12.875 27.9621V21.7183C12.875 17.3575 16.4227 13.8801 20.7833 13.8801H23.1062L21.279 15.6723C20.4934 16.4579 20.4934 17.7142 21.279 18.4998C21.6718 18.8925 22.1866 19.0802 22.7014 19.0802C23.2162 19.0802 23.731 18.8794 24.1239 18.4867L29.3854 13.2231C29.7626 12.8457 29.9746 12.3331 29.9746 11.7994C29.9746 11.2657 29.7626 10.7535 29.3854 10.3763L24.1239 5.11442C23.3382 4.32905 22.0647 4.32905 21.2788 5.11442C20.4932 5.9 20.4932 7.20902 21.2788 7.9946L23.106 9.85665H20.7833C14.2039 9.85665 8.85156 15.1392 8.85156 21.7183V27.9621C8.85156 29.073 9.75241 29.9738 10.8633 29.9738Z" fill="#858CDD"/>
<path d="M75.0879 12.875H81.3317C85.6925 12.875 89.321 16.4728 89.321 20.8334V23.1563L87.4533 21.329C86.6675 20.5437 85.3738 20.5437 84.588 21.329C83.8025 22.1146 83.7922 23.3884 84.578 24.1742L89.8344 29.4357C90.2118 29.8129 90.7208 30.0249 91.2545 30.0249C91.7882 30.0249 92.2985 29.8129 92.6757 29.4357L97.9364 24.1742C98.722 23.3886 98.7214 22.1148 97.9358 21.329C97.15 20.5437 95.917 20.5437 95.1312 21.329L93.3444 23.1561V20.8334C93.3444 14.254 87.9108 8.85156 81.3317 8.85156H75.0879C73.977 8.85156 73.0762 9.75241 73.0762 10.8633C73.0762 11.9742 73.977 12.875 75.0879 12.875Z" fill="#858CDD"/>
<path d="M92.136 73.377C91.0252 73.377 90.1243 74.2778 90.1243 75.3887V81.6326C90.1243 85.9932 86.5266 89.5218 82.166 89.5218H79.8432L81.6705 87.7042C82.456 86.9186 82.456 85.6494 81.6705 84.8639C80.8851 84.0789 79.6117 84.0809 78.8253 84.8663L73.5638 90.1287C73.1866 90.5059 72.9746 91.0183 72.9746 91.5518C72.9746 92.0853 73.1866 92.5973 73.5638 92.9747L78.8253 98.2364C79.2182 98.6291 79.733 98.8256 80.2478 98.8256C80.7626 98.8256 81.2774 98.6293 81.6703 98.2366C82.4558 97.451 82.4558 96.1677 81.6703 95.3819L79.843 93.5452H82.166C88.7451 93.5452 94.1478 88.2118 94.1478 81.6326V75.3887C94.1478 74.2778 93.2469 73.377 92.136 73.377Z" fill="#858CDD"/>
<path d="M27.863 90.3254H21.6193C17.2587 90.3254 13.68 86.8779 13.68 82.5173V80.1944L15.5225 82.0216C15.9154 82.4143 16.4379 82.6109 16.9529 82.6109C17.4679 82.6109 17.9863 82.4143 18.3794 82.0216C19.165 81.236 19.167 79.9622 18.3814 79.1764L13.121 73.9152C12.3354 73.13 11.0624 73.1296 10.2764 73.9152L5.01494 79.1764C4.22936 79.962 4.22936 81.2358 5.01514 82.0216C5.80092 82.807 7.05905 82.8074 7.84482 82.0216L9.65658 80.1944V82.5173C9.65658 89.0964 15.0401 94.3488 21.6193 94.3488H27.863C28.9739 94.3488 29.8747 93.448 29.8747 92.3371C29.8747 91.2262 28.9739 90.3254 27.863 90.3254Z" fill="#858CDD"/>
<path d="M26.1187 34.4004H8.08047C3.62492 34.4004 0 38.0253 0 42.4809V60.5191C0 64.9747 3.62492 68.5996 8.08047 68.5996H26.1187C30.5743 68.5996 34.1992 64.9747 34.1992 60.5191V42.4809C34.1992 38.0253 30.5743 34.4004 26.1187 34.4004ZM30.176 60.5191H30.1758C30.1758 62.7562 28.3558 64.5762 26.1187 64.5762H8.08047C5.84344 64.5762 4.02344 62.7562 4.02344 60.5191V42.4809C4.02344 40.2438 5.84344 38.4238 8.08047 38.4238H8.85156V51.667C8.85357 53.4212 9.40479 55.0889 10.4469 56.4891C10.9478 57.163 11.5493 57.7524 12.2333 58.2433C12.9253 58.7382 13.6877 59.1186 14.4964 59.3739C14.6936 59.4364 14.8988 59.4684 15.102 59.4684C15.9853 59.4684 16.7558 58.9031 17.0212 58.0624C17.1823 57.5492 17.1358 57.0041 16.8886 56.5275C16.6391 56.0507 16.2207 55.6987 15.7077 55.5375C14.0098 55.0004 12.871 53.4455 12.8752 51.6672V38.4238H26.1189C28.356 38.4238 30.176 40.2438 30.176 42.4809V60.5191Z" fill="#858CDD"/>
<path d="M23.1211 55.7246C22.0106 55.7246 21.1094 56.6279 21.1094 57.7363C21.1094 58.8448 22.0106 59.748 23.1211 59.748C24.2296 59.748 25.1328 58.8448 25.1328 57.7363C25.1328 56.6279 24.2293 55.7246 23.1211 55.7246Z" fill="#858CDD"/>
<path d="M91.9219 55.9258C90.8114 55.9258 89.9102 56.829 89.9102 57.9375C89.9102 59.046 90.8114 59.9492 91.9219 59.9492C93.0303 59.9492 93.9336 59.046 93.9336 57.9375C93.9336 56.829 93.0301 55.9258 91.9219 55.9258Z" fill="#858CDD"/>
</g>
<defs>
<clipPath id="clip0">
<rect width="103" height="103" fill="white"/>
</clipPath>
<clipPath id="clip1">
<rect width="34.9464" height="34.9464" fill="white" transform="translate(34.0273 -0.919922)"/>
</clipPath>
<clipPath id="clip2">
<rect width="34.9464" height="34.9464" fill="white" transform="translate(34.0273 68.0537)"/>
</clipPath>
</defs>
</svg>
