<svg width="22" height="22" viewBox="0 0 22 22" fill="none" xmlns="http://www.w3.org/2000/svg">
<circle cx="11" cy="11" r="10.5" stroke="#5B44BA"/>
<path d="M15.8402 10.8172L12.2288 7.16163C12.1257 7.05728 11.9883 7 11.8418 7C11.6952 7 11.5578 7.05736 11.4548 7.16163L11.1269 7.4936C11.0239 7.59779 10.9671 7.73695 10.9671 7.88533C10.9671 8.03362 11.0239 8.17747 11.1269 8.28166L13.2337 10.4189H6.54024C6.23845 10.4189 6 10.6581 6 10.9636V11.433C6 11.7385 6.23845 12.0018 6.54024 12.0018H13.2576L11.1269 14.151C11.0239 14.2553 10.9672 14.3907 10.9672 14.5391C10.9672 14.6873 11.0239 14.8247 11.1269 14.9289L11.4548 15.2598C11.5579 15.3642 11.6952 15.4211 11.8419 15.4211C11.9884 15.4211 12.1258 15.3634 12.2289 15.2591L15.8402 11.6036C15.9436 11.4989 16.0004 11.3592 16 11.2106C16.0003 11.0616 15.9436 10.9218 15.8402 10.8172Z" fill="#5B44BA"/>
</svg>
