<svg width="16" height="20" viewBox="0 0 16 20" fill="none" xmlns="http://www.w3.org/2000/svg">
<path d="M15.4455 4.85906L10.7581 0.17168C10.6487 0.0622266 10.4994 0 10.3438 0H2.14062C1.17137 0 0.382812 0.788555 0.382812 1.75781V18.2422C0.382812 19.2114 1.17137 20 2.14062 20H13.8594C14.8286 20 15.6172 19.2114 15.6172 18.2422V5.27344C15.6172 5.11367 15.5501 4.96363 15.4455 4.85906ZM10.9297 2.00051L13.6167 4.6875H11.5156C11.1925 4.6875 10.9297 4.42465 10.9297 4.10156V2.00051ZM13.8594 18.8281H2.14062C1.81754 18.8281 1.55469 18.5653 1.55469 18.2422V1.75781C1.55469 1.43473 1.81754 1.17188 2.14062 1.17188H9.75781V4.10156C9.75781 5.07082 10.5464 5.85938 11.5156 5.85938H14.4453V18.2422C14.4453 18.5653 14.1825 18.8281 13.8594 18.8281Z" fill="#5B44BA"/>
<path d="M11.5156 8.28125H4.48438C4.16078 8.28125 3.89844 8.54359 3.89844 8.86719C3.89844 9.19078 4.16078 9.45312 4.48438 9.45312H11.5156C11.8392 9.45312 12.1016 9.19078 12.1016 8.86719C12.1016 8.54359 11.8392 8.28125 11.5156 8.28125Z" fill="#5B44BA"/>
<path d="M11.5156 10.625H4.48438C4.16078 10.625 3.89844 10.8873 3.89844 11.2109C3.89844 11.5345 4.16078 11.7969 4.48438 11.7969H11.5156C11.8392 11.7969 12.1016 11.5345 12.1016 11.2109C12.1016 10.8873 11.8392 10.625 11.5156 10.625Z" fill="#5B44BA"/>
<path d="M11.5156 12.9688H4.48438C4.16078 12.9688 3.89844 13.2311 3.89844 13.5547C3.89844 13.8783 4.16078 14.1406 4.48438 14.1406H11.5156C11.8392 14.1406 12.1016 13.8783 12.1016 13.5547C12.1016 13.2311 11.8392 12.9688 11.5156 12.9688Z" fill="#5B44BA"/>
<path d="M9.17188 15.3125H4.48438C4.16078 15.3125 3.89844 15.5748 3.89844 15.8984C3.89844 16.222 4.16078 16.4844 4.48438 16.4844H9.17188C9.49547 16.4844 9.75781 16.222 9.75781 15.8984C9.75781 15.5748 9.49547 15.3125 9.17188 15.3125Z" fill="#5B44BA"/>
</svg>
