<svg width="10" height="14" viewBox="0 0 10 14" fill="none" xmlns="http://www.w3.org/2000/svg">
<path d="M0.999999 2C0.447715 2 -5.68248e-07 1.55229 -5.68248e-07 1C-5.68248e-07 0.447716 0.447715 9.34104e-07 1 9.09963e-07L9 5.60272e-07C9.55228 5.36131e-07 10 0.447715 10 1C10 1.55229 9.55228 2 9 2L0.999999 2Z" fill="#5B44BA"/>
<path d="M1.29289 6.29289L5 2.58578L8.70711 6.29289C9.09763 6.68342 9.09763 7.31658 8.70711 7.7071C8.31658 8.09763 7.68342 8.09763 7.29289 7.7071L6 6.41421L6 13C6 13.5523 5.55228 14 5 14C4.44772 14 4 13.5523 4 13L4 6.41421L2.70711 7.70711C2.31658 8.09763 1.68342 8.09763 1.29289 7.70711C0.902368 7.31658 0.902368 6.68342 1.29289 6.29289Z" fill="#5B44BA"/>
</svg>
