<svg width="23" height="23" viewBox="0 0 23 23" fill="none" xmlns="http://www.w3.org/2000/svg">
<path d="M11.5 0C5.15865 0 0 5.15865 0 11.5C0 17.8414 5.15865 23 11.5 23C17.8414 23 23 17.8414 23 11.5C23 5.15865 17.8414 0 11.5 0ZM11.5 4.79173C12.0291 4.79173 12.4583 5.22094 12.4583 5.75C12.4583 6.27906 12.0291 6.70827 11.5 6.70827C10.9709 6.70827 10.5417 6.27906 10.5417 5.75C10.5417 5.22094 10.9709 4.79173 11.5 4.79173ZM13.6562 18.2083H9.34375C8.81381 18.2083 8.38548 17.7791 8.38548 17.25C8.38548 16.7209 8.81381 16.2917 9.34375 16.2917H10.5417V10.5417H9.82298C9.29304 10.5417 8.86452 10.1123 8.86452 9.58327C8.86452 9.05439 9.29304 8.625 9.82298 8.625H11.5C12.0299 8.625 12.4583 9.05439 12.4583 9.58327V16.2917H13.6562C14.1862 16.2917 14.6145 16.7209 14.6145 17.25C14.6145 17.7791 14.1862 18.2083 13.6562 18.2083Z" fill="black" fill-opacity="0.4"/>
</svg>
