<svg width="20" height="20" viewBox="0 0 20 20" fill="none" xmlns="http://www.w3.org/2000/svg">
<path d="M17.8516 12.9611C16.87 12.9611 16.0408 13.6237 15.785 14.5253H13.7109V12.2355H15.8286C18.1287 12.2355 20 10.3623 20 8.05966C20 6.21348 18.7769 4.59165 17.0405 4.06342C16.5156 1.95943 14.6184 0.450409 12.4212 0.450409C11.5694 0.450409 10.7535 0.670296 10.0334 1.0904C9.27078 0.392221 8.27082 0 7.22016 0C4.96652 0 3.12457 1.79847 3.05105 4.03691C1.26742 4.536 0 6.17086 0 8.05966C0 10.3623 1.87125 12.2355 4.17137 12.2355H6.28906V14.5253H4.215C3.95926 13.6237 3.12996 12.9611 2.14844 12.9611C0.963789 12.9611 0 13.926 0 15.1119C0 16.2978 0.963789 17.2627 2.14844 17.2627C3.12996 17.2627 3.95922 16.6001 4.215 15.6985H6.875C7.19859 15.6985 7.46094 15.4358 7.46094 15.1119V12.2355H9.41406V15.7804C8.5134 16.0365 7.85156 16.8666 7.85156 17.8492C7.85156 19.0352 8.81535 20 10 20C11.1846 20 12.1484 19.0352 12.1484 17.8492C12.1484 16.8666 11.4866 16.0365 10.5859 15.7804V12.2355H12.5391V15.1119C12.5391 15.4358 12.8014 15.6985 13.125 15.6985H15.785C16.0407 16.6001 16.87 17.2627 17.8516 17.2627C19.0362 17.2627 20 16.2978 20 15.1119C20 13.926 19.0362 12.9611 17.8516 12.9611ZM2.14844 16.0895C1.60996 16.0895 1.17188 15.651 1.17188 15.1119C1.17188 14.5728 1.60996 14.1343 2.14844 14.1343C2.68691 14.1343 3.125 14.5728 3.125 15.1119C3.125 15.651 2.68691 16.0895 2.14844 16.0895ZM10.9766 17.8492C10.9766 18.3883 10.5385 18.8269 10 18.8269C9.46152 18.8269 9.02344 18.3883 9.02344 17.8492C9.02344 17.3102 9.46152 16.8716 10 16.8716C10.5385 16.8716 10.9766 17.3102 10.9766 17.8492ZM4.17137 11.0624C2.51746 11.0624 1.17188 9.7154 1.17188 8.05966C1.17188 6.57982 2.27371 5.30254 3.73477 5.08863C4.04309 5.0435 4.26215 4.76469 4.2334 4.45412C4.22492 4.36249 4.22062 4.26888 4.22062 4.17585C4.22062 2.52019 5.56621 1.17318 7.22012 1.17318C8.10254 1.17318 8.93469 1.55719 9.50313 2.22675C9.70269 2.4618 10.05 2.50193 10.2979 2.3186C10.9124 1.86389 11.6466 1.62355 12.4211 1.62355C14.2035 1.62355 15.6857 2.93274 15.9628 4.6358C16.002 4.87661 16.186 5.06798 16.4248 5.1164C17.8174 5.39862 18.8281 6.6364 18.8281 8.05966C18.8281 9.7154 17.4825 11.0624 15.8286 11.0624H4.17137ZM17.8516 16.0895C17.3131 16.0895 16.875 15.651 16.875 15.1119C16.875 14.5728 17.3131 14.1343 17.8516 14.1343C18.39 14.1343 18.8281 14.5728 18.8281 15.1119C18.8281 15.651 18.39 16.0895 17.8516 16.0895Z" fill="#5B44BA"/>
</svg>
