<svg width="112" height="112" viewBox="0 0 112 112" fill="none" xmlns="http://www.w3.org/2000/svg">
<path d="M105.437 62.7812C105.437 57.3534 101.021 52.9375 95.5935 52.9375H80.9738C82.7851 48.0403 83.9083 42.2236 84.565 37.8173C85.2283 33.3692 83.9265 28.8667 80.9935 25.4638C78.0692 22.071 73.8229 20.125 69.3435 20.125C67.5314 20.125 66.0623 21.5941 66.0623 23.4062C66.0623 31.3331 61.5068 43.2996 56.1905 45.9651C50.2064 48.9648 38.4342 52.2891 36.0894 52.9375C34.6255 52.9375 4.69613 52.9375 3.28125 52.9375C1.46913 52.9375 2.44254e-08 54.4066 2.44254e-08 56.2188V102.156C-0.000218726 103.968 1.46891 105.438 3.28103 105.438H13.1248V108.719C13.1248 110.531 14.5939 112 16.406 112H29.9685C33.9762 112 37.4297 109.591 38.964 106.147L61.9852 111.902C62.2455 111.967 62.5128 112 62.781 112H82.4685C87.8964 112 92.3123 107.584 92.3123 102.156C92.3123 100.876 92.0666 99.6524 91.6202 98.5296C95.7957 97.3899 98.8748 93.5633 98.8748 89.0312C98.8748 87.7511 98.6291 86.5274 98.1827 85.4046C102.358 84.2649 105.437 80.4383 105.437 75.9062C105.437 73.3873 104.486 71.0865 102.925 69.3438C104.486 67.601 105.437 65.3002 105.437 62.7812ZM13.1246 98.875H6.56206V59.5H13.1246V98.875ZM33.2496 102.156C33.2496 103.966 31.7776 105.438 29.9683 105.438H19.6871V59.5H33.2496V102.156ZM75.906 72.625H95.5935C97.4028 72.625 98.8748 74.097 98.8748 75.9062C98.8748 77.7155 97.4028 79.1875 95.5935 79.1875C93.1195 79.1875 77.9282 79.1875 75.906 79.1875C74.0939 79.1875 72.6248 80.6566 72.6248 82.4688C72.6248 84.2809 74.0939 85.75 75.906 85.75H89.031C90.8403 85.75 92.3123 87.222 92.3123 89.0312C92.3123 90.8405 90.8403 92.3125 89.031 92.3125C87.64 92.3125 77.2971 92.3125 75.906 92.3125C74.0939 92.3125 72.6248 93.7816 72.6248 95.5938C72.6248 97.4059 74.0939 98.875 75.906 98.875H82.4685C84.2778 98.875 85.7498 100.347 85.7498 102.156C85.7498 103.966 84.2778 105.438 82.4685 105.438H63.1851L39.8123 99.5945V58.7073C44.2393 57.4361 53.6296 54.5899 59.1314 51.8317C66.6673 48.0537 71.2819 36.1038 72.3734 27.2237C73.7693 27.7342 75.0293 28.5957 76.0231 29.7485C77.7083 31.7034 78.456 34.2917 78.0745 36.8495C76.5203 47.2738 74.5706 51.5528 72.9713 54.7512C72.4627 55.7683 72.5169 56.9763 73.1148 57.9436C73.7126 58.9109 74.7687 59.5 75.906 59.5H95.5935C97.4028 59.5 98.8748 60.972 98.8748 62.7812C98.8748 64.5905 97.4028 66.0625 95.5935 66.0625H75.906C74.0939 66.0625 72.6248 67.5316 72.6248 69.3438C72.6248 71.1559 74.0939 72.625 75.906 72.625Z" fill="#CED1F1"/>
<path d="M72.625 0C70.8129 0 69.3438 1.46912 69.3438 3.28125V10.2812C69.3438 12.0934 70.8129 13.5625 72.625 13.5625C74.4371 13.5625 75.9062 12.0934 75.9062 10.2812V3.28125C75.9062 1.46912 74.4371 0 72.625 0Z" fill="#CED1F1"/>
<path d="M54.064 16.6112L49.4237 11.9708C48.1425 10.6894 46.0648 10.6894 44.7833 11.9708C43.5019 13.2523 43.5019 15.3298 44.7833 16.6112L49.4237 21.2515C50.7049 22.533 52.7828 22.533 54.064 21.2515C55.3455 19.9701 55.3455 17.8926 54.064 16.6112Z" fill="#CED1F1"/>
<path d="M43.0938 36.5312H36.5312C34.7191 36.5312 33.25 38.0004 33.25 39.8125C33.25 41.6246 34.7191 43.0938 36.5312 43.0938H43.0938C44.9059 43.0938 46.375 41.6246 46.375 39.8125C46.375 38.0004 44.9059 36.5312 43.0938 36.5312Z" fill="#CED1F1"/>
<path d="M108.719 36.5312H102.156C100.344 36.5312 98.875 38.0004 98.875 39.8125C98.875 41.6246 100.344 43.0938 102.156 43.0938H108.719C110.531 43.0938 112 41.6246 112 39.8125C112 38.0004 110.531 36.5312 108.719 36.5312Z" fill="#CED1F1"/>
<path d="M100.467 11.9708C99.1861 10.6894 97.1085 10.6894 95.827 11.9708L91.1867 16.6112C89.9052 17.8926 89.9052 19.9701 91.1867 21.2515C92.4679 22.533 94.5458 22.533 95.827 21.2515L100.467 16.6112C101.749 15.3298 101.749 13.2523 100.467 11.9708Z" fill="#CED1F1"/>
</svg>
