<svg width="104" height="41" viewBox="0 0 104 41" fill="none" xmlns="http://www.w3.org/2000/svg">
<path d="M50.2907 27.3431V29.2953H41.9902V10.7852H44.432V27.3431H50.2907Z" fill="white"/>
<path d="M55.6604 29.2963H53.222V15.6249H55.6604V29.2963ZM54.4398 13.2093C54.0381 13.2093 53.6888 13.0797 53.3919 12.8205C53.1125 12.5439 52.9775 12.1814 52.9775 11.732C52.9775 11.2827 53.1125 10.9279 53.3919 10.6687C53.6888 10.3922 54.0381 10.2539 54.4398 10.2539C54.8415 10.2539 55.182 10.3922 55.4616 10.6687C55.7585 10.9279 55.9069 11.2823 55.9069 11.7316C55.9069 12.181 55.7585 12.5439 55.4616 12.8205C55.182 13.0797 54.8415 13.2093 54.4398 13.2093Z" fill="white"/>
<path d="M61.0359 15.6263H64.4533V17.5447H61.0359L61.0345 24.7879C61.0345 25.7212 61.2005 26.378 61.5324 26.7582C61.8817 27.1211 62.3446 27.3026 62.9209 27.3026C63.2179 27.3026 63.4973 27.2594 63.7593 27.173C64.0387 27.0866 64.2744 26.9828 64.4666 26.8619L64.912 28.6507C64.1959 29.0655 63.2493 29.2729 62.4459 29.2729C61.1535 29.2729 60.1841 28.9186 59.5379 28.21C58.9091 27.4841 58.5947 26.2916 58.5947 24.6323L58.5961 11.9709L61.0359 11.582V15.6263Z" fill="white"/>
<path d="M67.3828 15.3479C68.0065 15.1518 68.6838 14.9912 69.4144 14.8663C70.1449 14.7236 70.8131 14.6523 71.4191 14.6523C72.0428 14.6523 72.604 14.7326 73.1029 14.8931C73.6197 15.0536 74.0742 15.3211 74.4662 15.6957C74.9295 15.3925 75.4284 15.1427 75.963 14.9466C76.4976 14.7504 77.0858 14.6523 77.7273 14.6523C78.3688 14.6523 78.9478 14.7504 79.4647 14.9466C79.9993 15.125 80.4536 15.437 80.8278 15.8829C81.202 16.3288 81.4961 16.9352 81.71 17.7021C81.9238 18.4512 82.0307 19.3875 82.0307 20.511V29.3002H79.732V20.6983C79.732 19.3072 79.5716 18.2906 79.2507 17.6486C78.93 17.0066 78.3241 16.6855 77.4332 16.6855C77.0946 16.6855 76.7472 16.7479 76.3907 16.8728C76.0521 16.9976 75.7314 17.1671 75.4284 17.381C75.571 17.7913 75.6779 18.2549 75.7492 18.7721C75.8205 19.2894 75.8561 19.869 75.8561 20.511V29.3002H73.5574V20.6983C73.5574 19.3072 73.397 18.2906 73.0763 17.6486C72.7555 17.0066 72.1497 16.6855 71.2587 16.6855C70.7953 16.6855 70.2697 16.7747 69.6816 16.9531L69.6816 29.3002H67.3828V15.3479Z" fill="white"/>
<path d="M93.7195 28.6225C93.4925 28.7089 93.2129 28.7953 92.881 28.8817C92.5667 28.9508 92.2262 29.0113 91.8594 29.0632C91.5101 29.1324 91.152 29.1841 90.7852 29.2188C90.4359 29.2705 90.1127 29.2965 89.8158 29.2965C89.0997 29.2965 88.4448 29.2101 87.8509 29.0372C87.2571 28.8817 86.7506 28.5965 86.3314 28.1818C85.9122 27.767 85.5892 27.2052 85.362 26.4967C85.1349 25.7708 85.0215 24.8634 85.0215 23.7745V15.625H87.2745V23.6967C87.2745 25.0275 87.4754 25.9695 87.8771 26.5226C88.2963 27.0583 88.9251 27.3262 89.7634 27.3262C90.0428 27.3262 90.3223 27.3176 90.6017 27.3002C90.8813 27.2657 91.1694 27.2052 91.4663 27.1188V15.625H93.7195V28.6225Z" fill="white"/>
<path d="M99.4095 27.333C100.119 27.333 100.651 27.147 101.006 26.7747C101.379 26.3848 101.566 25.8797 101.566 25.2594C101.566 24.8695 101.491 24.5416 101.342 24.2758C101.192 23.9923 100.996 23.7441 100.754 23.5314C100.511 23.3188 100.231 23.1327 99.9135 22.9733C99.5962 22.796 99.2789 22.6098 98.9615 22.415C98.6442 22.2377 98.3361 22.0339 98.0374 21.8035C97.7388 21.5554 97.4682 21.2807 97.2255 20.9795C97.0015 20.6604 96.8149 20.3059 96.6655 19.916C96.5349 19.5084 96.4694 19.0387 96.4694 18.5071C96.4694 17.3551 96.8428 16.4247 97.5894 15.7158C98.3548 15.0068 99.3816 14.6523 100.67 14.6523C101.211 14.6523 101.724 14.7233 102.21 14.865C102.695 14.989 103.096 15.1308 103.414 15.2904L102.882 17.1247C102.546 16.9474 102.21 16.8146 101.874 16.726C101.538 16.6373 101.174 16.593 100.782 16.593C100.184 16.593 99.7082 16.7614 99.3535 17.0981C98.9989 17.4171 98.8216 17.8868 98.8216 18.5071C98.8216 18.8616 98.8869 19.1717 99.0175 19.4375C99.1482 19.6856 99.3162 19.916 99.5215 20.1287C99.7455 20.3237 99.9882 20.5098 100.25 20.687C100.53 20.8642 100.819 21.0325 101.118 21.1921C101.472 21.387 101.818 21.5996 102.154 21.8301C102.508 22.0605 102.816 22.3352 103.078 22.6542C103.358 22.9555 103.582 23.3188 103.75 23.7441C103.918 24.1517 104.002 24.648 104.002 25.2328C104.002 26.4557 103.619 27.4394 102.854 28.1838C102.107 28.9281 101.006 29.3002 99.5496 29.3002C98.8029 29.3002 98.1308 29.2028 97.5335 29.0078C96.9361 28.8129 96.4881 28.6357 96.1895 28.4761L96.6934 26.5887C96.9734 26.7305 97.3468 26.8899 97.8134 27.0672C98.2988 27.2444 98.8309 27.333 99.4095 27.333Z" fill="white"/>
<path fill-rule="evenodd" clip-rule="evenodd" d="M31.7371 0H0V37.0347C0 38.6932 1.33211 40.0376 2.97535 40.0376H28.7617C30.405 40.0376 31.7371 38.6932 31.7371 37.0347V0Z" fill="#858CDD"/>
<path d="M4.88477 4.88281H9.7674V16.1129H4.88477V4.88281Z" fill="#4028A0"/>
<path d="M4.88477 15.1367H9.7674V35.1555H4.88477V15.1367Z" fill="white"/>
<path d="M12.209 30.2695H26.8569V35.1522H12.209V30.2695Z" fill="white"/>
</svg>
