<svg width="128" height="47" viewBox="0 0 128 47" fill="none" xmlns="http://www.w3.org/2000/svg">
<path d="M65.2226 31.3221V33.6448H55.9019V12.7409H58.6166V31.3221H65.2226Z" fill="black"/>
<path d="M70.8933 33.6448H68.2992V17.8085H70.8933V33.6448ZM69.5962 15.0032C69.1337 15.0032 68.7315 14.8524 68.3897 14.5507C68.0679 14.229 67.907 13.8067 67.907 13.2838C67.907 12.761 68.0679 12.3487 68.3897 12.0471C68.7315 11.7253 69.1337 11.5645 69.5962 11.5645C70.0588 11.5645 70.4509 11.7253 70.7727 12.0471C71.1145 12.3487 71.2855 12.761 71.2855 13.2838C71.2855 13.8067 71.1145 14.229 70.7727 14.5507C70.4509 14.8524 70.0588 15.0032 69.5962 15.0032Z" fill="black"/>
<path d="M78.0178 17.8085H81.9995V20.0406H78.0178V28.7581C78.0178 29.8441 78.2088 30.6082 78.5909 31.0506C78.9931 31.4729 79.526 31.6841 80.1896 31.6841C80.5315 31.6841 80.8532 31.6338 81.1549 31.5333C81.4766 31.4327 81.7481 31.3121 81.9693 31.1713L82.4821 33.2526C81.6576 33.7353 80.7828 33.9766 79.8578 33.9766C78.3697 33.9766 77.2536 33.5643 76.5095 32.7398C75.7856 31.8952 75.4236 30.5077 75.4236 28.5772V13.5553L78.0178 13.1028V17.8085Z" fill="black"/>
<path d="M85.2961 18.2609C85.9999 18.0397 86.7641 17.8588 87.5886 17.718C88.4131 17.5571 89.1672 17.4767 89.8509 17.4767C90.5548 17.4767 91.1882 17.5672 91.7513 17.7482C92.3344 17.9291 92.8472 18.2308 93.2897 18.6531C93.8125 18.3112 94.3756 18.0297 94.9789 17.8085C95.5821 17.5873 96.2458 17.4767 96.9697 17.4767C97.6937 17.4767 98.3472 17.5873 98.9304 17.8085C99.5337 18.0096 100.046 18.3615 100.469 18.8642C100.891 19.367 101.223 20.0507 101.464 20.9154C101.706 21.76 101.826 22.8158 101.826 24.0827V33.6448H99.232V24.2938C99.232 22.7253 99.051 21.579 98.6891 20.8551C98.3271 20.1311 97.6434 19.7692 96.6379 19.7692C96.2558 19.7692 95.8637 19.8395 95.4615 19.9803C95.0794 20.1211 94.7174 20.3121 94.3756 20.5534C94.5364 21.016 94.6571 21.5388 94.7375 22.122C94.818 22.7052 94.8582 23.3587 94.8582 24.0827V33.6448H92.2641V24.2938C92.2641 22.7253 92.0831 21.579 91.7211 20.8551C91.3591 20.1311 90.6754 19.7692 89.6699 19.7692C89.1471 19.7692 88.5538 19.8697 87.8902 20.0708V33.6448H85.2961V18.2609Z" fill="black"/>
<path d="M116.162 33.1923C115.9 33.2929 115.578 33.3934 115.196 33.494C114.834 33.5744 114.442 33.6448 114.02 33.7051C113.618 33.7855 113.205 33.8459 112.783 33.8861C112.381 33.9464 112.009 33.9766 111.667 33.9766C110.843 33.9766 110.088 33.876 109.405 33.6749C108.721 33.494 108.138 33.1621 107.655 32.6795C107.173 32.1969 106.801 31.5433 106.539 30.7188C106.278 29.8742 106.147 28.8185 106.147 27.5516V17.8085H108.741V27.4611C108.741 29.0095 108.972 30.1055 109.435 30.749C109.918 31.3724 110.641 31.6841 111.607 31.6841C111.928 31.6841 112.25 31.674 112.572 31.6539C112.894 31.6137 113.226 31.5433 113.567 31.4428V17.8085H116.162V33.1923Z" fill="black"/>
<path d="M123.053 31.8048C123.817 31.8048 124.39 31.5936 124.773 31.1713C125.175 30.7289 125.376 30.1558 125.376 29.4519C125.376 29.0095 125.295 28.6375 125.135 28.3358C124.974 28.0141 124.762 27.7326 124.501 27.4912C124.24 27.2499 123.938 27.0388 123.596 26.8578C123.254 26.6567 122.912 26.4455 122.571 26.2243C122.229 26.0232 121.897 25.792 121.575 25.5306C121.253 25.249 120.962 24.9373 120.7 24.5955C120.459 24.2335 120.258 23.8313 120.097 23.3889C119.956 22.9264 119.886 22.3935 119.886 21.7902C119.886 20.4831 120.288 19.4273 121.092 18.6229C121.917 17.8185 123.023 17.4163 124.411 17.4163C124.994 17.4163 125.547 17.4968 126.07 17.6577C126.592 17.7984 127.025 17.9593 127.367 18.1403L126.794 20.2216C126.432 20.0205 126.07 19.8697 125.708 19.7692C125.346 19.6686 124.954 19.6183 124.531 19.6183C123.888 19.6183 123.375 19.8094 122.993 20.1915C122.611 20.5534 122.42 21.0863 122.42 21.7902C122.42 22.1924 122.49 22.5443 122.631 22.8459C122.772 23.1275 122.953 23.3889 123.174 23.6302C123.415 23.8514 123.677 24.0626 123.958 24.2637C124.26 24.4648 124.571 24.6558 124.893 24.8368C125.275 25.058 125.647 25.2993 126.009 25.5607C126.391 25.8221 126.723 26.1338 127.005 26.4958C127.306 26.8377 127.548 27.2499 127.729 27.7326C127.91 28.1951 128 28.7582 128 29.4218C128 30.8093 127.588 31.9254 126.763 32.77C125.959 33.6146 124.773 34.0369 123.204 34.0369C122.4 34.0369 121.676 33.9263 121.032 33.7051C120.389 33.4839 119.906 33.2828 119.584 33.1018L120.127 30.9601C120.429 31.121 120.831 31.302 121.334 31.5031C121.857 31.7042 122.43 31.8048 123.053 31.8048Z" fill="black"/>
<path d="M0 0H37.1254V42.9262C37.1254 44.8485 35.5671 46.4067 33.6449 46.4067H3.4805C1.55828 46.4067 0 44.8485 0 42.9262V0Z" fill="#858CDD"/>
<path d="M5.80127 2.31934H11.6021V18.5617H5.80127V2.31934Z" fill="#5B44BA"/>
<path d="M5.80127 18.5625H11.6021V41.7659H5.80127V18.5625Z" fill="#F0F0F0"/>
<path d="M15.082 41.7666L15.082 35.9658L32.4846 35.9658L32.4846 41.7666L15.082 41.7666Z" fill="#F0F0F0"/>
</svg>
