<svg width="102" height="102" viewBox="0 0 102 102" fill="none" xmlns="http://www.w3.org/2000/svg">
<g clip-path="url(#clip0)">
<path d="M79.6875 102H22.3125C17.0425 102 12.75 97.7118 12.75 92.4375V47.8125C12.75 42.5382 17.0425 38.25 22.3125 38.25H79.6875C84.9575 38.25 89.25 42.5382 89.25 47.8125V92.4375C89.25 97.7118 84.9575 102 79.6875 102ZM22.3125 44.625C20.5573 44.625 19.125 46.053 19.125 47.8125V92.4375C19.125 94.197 20.5573 95.625 22.3125 95.625H79.6875C81.4427 95.625 82.875 94.197 82.875 92.4375V47.8125C82.875 46.053 81.4427 44.625 79.6875 44.625H22.3125Z" fill="#5B44BA"/>
<path d="M73.3125 44.625C71.553 44.625 70.125 43.197 70.125 41.4375V25.5C70.125 14.9558 61.5443 6.375 51 6.375C40.4558 6.375 31.875 14.9558 31.875 25.5V41.4375C31.875 43.197 30.447 44.625 28.6875 44.625C26.928 44.625 25.5 43.197 25.5 41.4375V25.5C25.5 11.4368 36.9368 0 51 0C65.0633 0 76.5 11.4368 76.5 25.5V41.4375C76.5 43.197 75.072 44.625 73.3125 44.625Z" fill="#5B44BA"/>
<path d="M51 72.25C46.3122 72.25 42.5 68.4377 42.5 63.75C42.5 59.0622 46.3122 55.25 51 55.25C55.6877 55.25 59.5 59.0622 59.5 63.75C59.5 68.4377 55.6877 72.25 51 72.25ZM51 61.625C49.8312 61.625 48.875 62.577 48.875 63.75C48.875 64.923 49.8312 65.875 51 65.875C52.1687 65.875 53.125 64.923 53.125 63.75C53.125 62.577 52.1687 61.625 51 61.625Z" fill="#5B44BA"/>
<path d="M51 85C49.2405 85 47.8125 83.572 47.8125 81.8125V70.125C47.8125 68.3655 49.2405 66.9375 51 66.9375C52.7595 66.9375 54.1875 68.3655 54.1875 70.125V81.8125C54.1875 83.572 52.7595 85 51 85Z" fill="#5B44BA"/>
</g>
<defs>
<clipPath id="clip0">
<rect width="102" height="102" fill="white"/>
</clipPath>
</defs>
</svg>
