<svg xmlns="http://www.w3.org/2000/svg" xmlns:xlink="http://www.w3.org/1999/xlink" id="Layer_1" x="0" y="0" version="1.1" viewBox="0 0 78.032 17.519" xml:space="preserve" style="enable-background:new 0 0 78.0320206 17.5191631"><style type="text/css">.st0{fill:#fff}</style><g><g><path d="M58.0257301,5.3987966c-0.4140549-0.3903837-0.91119-0.6819057-1.4776344-0.8668242 c-0.5648079-0.1843228-1.4289513-0.2739534-2.6417885-0.2739534h-1.9724655v8.6393566h2.866684 c1.1325874,0,2.0130348-0.1861095,2.6170006-0.552969c0.6047058-0.3674545,1.0772018-0.8840942,1.4044571-1.5347338 c0.3239784-0.6437902,0.4882774-1.3385,0.4882774-2.0641785c0-0.7188301-0.1106262-1.3638115-0.3288956-1.9173756 C58.7611618,6.2700872,58.43964,5.7891798,58.0257301,5.3987966z M57.8915825,8.6558628 c0,0.4886494-0.0786133,0.9231043-0.2336044,1.29175c-0.1530571,0.3638811-0.3786201,0.6756525-0.670517,0.9269743 c-0.2902565,0.2498341-0.6367149,0.4210548-1.0298538,0.5091963c-0.412941,0.0926085-1.0917931,0.1396561-2.0177994,0.1396561 h-0.6207886V5.6542878h0.2630844c0.8985367,0,1.5950317,0.0455594,2.0700607,0.1357856 c0.4539566,0.0860567,0.8540192,0.2593622,1.1890907,0.5157466c0.3325386,0.2543001,0.5929451,0.5892978,0.7739182,0.9954634 C57.7986031,7.7131066,57.8915825,8.1690006,57.8915825,8.6558628z" class="st0"/><path d="M69.998024,4.245492h-1.3285828v2.1837239h-1.0078278v1.2249155h1.0078278v3.9941688 c0,0.4224377,0.1040421,0.7426224,0.3091888,0.9522715c0.2063599,0.2110758,0.5152664,0.3178997,0.9179993,0.3178997 c0.1925812,0,0.46035-0.0291338,0.8187408-0.0885439l0.1832962-0.0305614v-1.1667757h-0.7340546 c-0.0803299,0-0.1323166-0.0039978-0.1620941-0.0062828c-0.0024261-0.0219936-0.0044937-0.0528412-0.0044937-0.0959702V7.6541314 h1.1579208V6.4292159H69.998024V4.245492z" class="st0"/><polygon points="27.658 4.254 24.594 10.479 21.509 4.254 20.932 4.254 19.701 12.918 21.096 12.918 21.785 7.834 24.307 12.918 24.883 12.918 27.372 7.88 28.06 12.918 29.478 12.918 28.235 4.254" class="st0"/><path d="M35.2696419,7.1203094c-0.536541-0.469018-1.1714249-0.7063284-1.8935127-0.7063284 c-0.8939781,0-1.6621552,0.3208036-2.2831707,0.9531651c-0.6201725,0.6312404-0.9346733,1.4003291-0.9346733,2.2856908 c0,0.8848019,0.3122597,1.6566916,0.9280205,2.2946558c0.6178608,0.6404867,1.3723087,0.9652128,2.2425442,0.9652128 c0.7135429,0,1.3644638-0.2476768,1.9407921-0.7374277v0.7431936l1.2822304-0.0057659V6.4292159h-1.2822304V7.1203094z M34.7523613,8.2569904c0.3764191,0.3860855,0.5593758,0.8528614,0.5593758,1.4272261 c0,0.5735245-0.1857567,1.0380592-0.5680618,1.4202213c-0.3821602,0.3824425-0.8243523,0.5682011-1.3517876,0.5682011 c-0.5327568,0-0.9773979-0.1933231-1.359211-0.5914555c-0.384264-0.400094-0.5710735-0.8587456-0.5710735-1.40201 c0-0.5441055,0.1837959-1.0033169,0.5618267-1.4036913c0.3746681-0.3967314,0.8205719-0.5897741,1.363205-0.5897741 C33.9306717,7.685708,34.3774147,7.8725867,34.7523613,8.2569904z" class="st0"/><path d="M49.4867592,7.1203094c-0.536541-0.469018-1.1714211-0.7063284-1.8935127-0.7063284 c-0.8939743,0-1.6621552,0.3208036-2.2831688,0.9531651c-0.6201706,0.6312404-0.9346733,1.4003291-0.9346733,2.2856908 c0,0.8848019,0.3122597,1.6566916,0.9280205,2.2946558c0.6178627,0.6404867,1.3723106,0.9652128,2.2425423,0.9652128 c0.7135429,0,1.3644676-0.2476768,1.9407921-0.7374277v0.7431936l1.2822342-0.0057659V6.4292159h-1.2822342V7.1203094z M48.9694824,8.2569904c0.3764191,0.3860855,0.5593758,0.8528614,0.5593758,1.4272261 c0,0.5735245-0.1857605,1.0380592-0.5680618,1.4202213c-0.382164,0.3824425-0.8243523,0.5682011-1.3517876,0.5682011 c-0.5327606,0-0.9774017-0.1933231-1.3592148-0.5914555c-0.3842621-0.400094-0.5710716-0.8587456-0.5710716-1.40201 c0-0.5441055,0.1837959-1.0033169,0.5618286-1.4036913c0.3746681-0.3967314,0.8205681-0.5897741,1.363205-0.5897741 C48.147789,7.685708,48.594532,7.8725867,48.9694824,8.2569904z" class="st0"/><path d="M65.2761536,7.1203094c-0.5365372-0.469018-1.1714249-0.7063284-1.8935127-0.7063284 c-0.8939781,0-1.6621552,0.3208036-2.2831688,0.9531651c-0.6201744,0.6312404-0.9346733,1.4003291-0.9346733,2.2856908 c0,0.8848019,0.3122597,1.6566916,0.9280205,2.2946558c0.6178627,0.6404867,1.3723106,0.9652128,2.2425423,0.9652128 c0.7135429,0,1.3644676-0.2476768,1.9407921-0.7374277v0.7431936l1.2822342-0.0057659V6.4292159h-1.2822342V7.1203094z M64.758873,8.2569904c0.3764191,0.3860855,0.5593796,0.8528614,0.5593796,1.4272261 c0,0.5735245-0.1857605,1.0380592-0.5680618,1.4202213c-0.382164,0.3824425-0.8243523,0.5682011-1.3517876,0.5682011 c-0.5327606,0-0.9774017-0.1933231-1.3592148-0.5914555c-0.3842621-0.400094-0.5710716-0.8587456-0.5710716-1.40201 c0-0.5441055,0.1837959-1.0033169,0.5618248-1.4036913c0.3746681-0.3967314,0.8205719-0.5897741,1.3632088-0.5897741 C63.9371834,7.685708,64.3839264,7.8725867,64.758873,8.2569904z" class="st0"/><path d="M76.7497864,7.1203094c-0.5365372-0.469018-1.1714249-0.7063284-1.8935089-0.7063284 c-0.8939819,0-1.6621552,0.3208036-2.2831726,0.9531651c-0.6201706,0.6312404-0.9346695,1.4003291-0.9346695,2.2856908 c0,0.8848019,0.3122559,1.6566916,0.9280167,2.2946558c0.6178589,0.6404867,1.3723068,0.9652128,2.2425461,0.9652128 c0.7135391,0,1.3644638-0.2476768,1.9407883-0.7374277v0.7431936l1.2822342-0.0057659V6.4292159h-1.2822342V7.1203094z M76.2325058,8.2569904c0.3764191,0.3860855,0.5593796,0.8528614,0.5593796,1.4272261 c0,0.5735245-0.1857605,1.0380592-0.5680618,1.4202213c-0.382164,0.3824425-0.8243561,0.5682011-1.3517914,0.5682011 c-0.532753,0-0.9774017-0.1933231-1.3592072-0.5914555c-0.3842697-0.400094-0.5710754-0.8587456-0.5710754-1.40201 c0-0.5441055,0.1837997-1.0033169,0.5618286-1.4036913c0.3746643-0.3967314,0.8205719-0.5897741,1.363205-0.5897741 C75.41082,7.685708,75.8575592,7.8725867,76.2325058,8.2569904z" class="st0"/><polygon points="40.881 10.522 39.045 6.429 37.615 6.429 40.159 12.16 38.912 15.009 40.342 15.009 44.097 6.429 42.655 6.429" class="st0"/></g><g><g><g><path d="M3.0011311,6.2960529v8.2825069c0,0.210988,0.1127613,0.3735409,0.2956731,0.4787035l4.044199,2.3727922 c0.1819668,0.1046181,0.4058299,0.1244984,0.5877967,0.0198784l4.0434031-2.3854628 c0.183404-0.1054468,0.2964697-0.274354,0.2964697-0.4859114V6.2887392L7.634902,9.0470705L3.0011311,6.2960529z" class="st0"/><path d="M1.6314133,13.7121954V5.7169232c0-0.1222005,0.0308442-0.2766004,0.2697879-0.394865l5.5653439-3.3123403 c0.104363-0.059459,0.2323503-0.0594586,0.3367133,0.000001l5.6692929,3.373642 c0.1061764,0.0604925,0.1678724,0.1001101,0.1657667,0.2392359l-0.0000143,8.0895987 c0,0.1677923,0.1852312,0.24683,0.3319855,0.1654825l1.1395817-0.676774 c0.1081266-0.0599356,0.1598606-0.1502457,0.1598606-0.2738724V4.6512656c0-0.1458154-0.0487528-0.1957269-0.1535482-0.2565937 L7.8052058,0.0460061C7.6998639-0.015178,7.5698428-0.0153456,7.4643435,0.0455668L0.1672539,4.3903179 C0.0620314,4.4510708,0,4.5547051,0,4.6762066v8.2508249c0,0.1192341,0.0502608,0.2081995,0.152388,0.2697372 l1.1507611,0.6831942C1.4499955,13.9684467,1.6314133,13.8836403,1.6314133,13.7121954z" class="st0"/></g></g><polygon points="10.937 5.52 7.635 3.559 7.635 3.559 7.635 3.559 7.635 3.559 7.635 3.559 4.332 5.52 7.635 7.48 7.635 7.48 7.635 7.48" class="st0"/></g></g></svg>