<svg width="33" height="32" viewBox="0 0 33 32" fill="none" xmlns="http://www.w3.org/2000/svg">
<path d="M31.201 0H1.76096C1.05296 0 0.480957 0.572 0.480957 1.28V30.72C0.480957 31.428 1.05296 32 1.76096 32H31.201C31.909 32 32.481 31.428 32.481 30.72V1.28C32.481 0.572 31.909 0 31.201 0ZM26.721 8.228L25.089 9.792C24.945 9.9 24.877 10.076 24.905 10.248V21.756C24.877 21.932 24.945 22.108 25.089 22.212L26.689 23.776V24.124H18.657V23.792L20.309 22.188C20.473 22.024 20.473 21.976 20.473 21.732V12.42L15.873 24.084H15.253L9.90096 12.42V20.24C9.85296 20.568 9.96896 20.9 10.201 21.136L12.353 23.74V24.088H6.24096V23.74L8.39296 21.136C8.50634 21.0189 8.59072 20.8768 8.63934 20.7212C8.68797 20.5657 8.69948 20.4008 8.67296 20.24V11.2C8.70096 10.948 8.60496 10.704 8.41296 10.532L6.50096 8.228V7.88H12.441L17.025 17.94L21.061 7.888H26.721V8.228Z" fill="black"/>
</svg>
