<svg width="34" height="32" viewBox="0 0 34 32" fill="none" xmlns="http://www.w3.org/2000/svg">
<path fill-rule="evenodd" clip-rule="evenodd" d="M23.6044 29.833C23.4907 29.6751 23.4097 29.496 23.366 29.3063C23.3224 29.1166 23.317 28.9201 23.3502 28.7284C23.3834 28.5366 23.4545 28.3533 23.5594 28.1894C23.6643 28.0254 23.8008 27.884 23.961 27.7734C24.1212 27.6628 24.3018 27.5853 24.4923 27.5454C24.6828 27.5055 24.8793 27.5039 25.0704 27.5409C25.2615 27.5778 25.4433 27.6525 25.6052 27.7606C25.7671 27.8687 25.9058 28.0079 26.0132 28.1702C26.2274 28.4898 26.3071 28.8808 26.2352 29.2587C26.1633 29.6366 25.9455 29.971 25.629 30.1896C25.3124 30.4082 24.9225 30.4934 24.5437 30.4267C24.1648 30.3601 23.8274 30.147 23.6044 29.8335V29.833ZM15.2013 31.6102C15.1339 31.5126 15.0863 31.4027 15.0614 31.2868C15.0364 31.1708 15.0346 31.0511 15.0559 30.9344C15.0772 30.8177 15.1213 30.7064 15.1857 30.6068C15.2501 30.5071 15.3334 30.4212 15.431 30.3537C15.5286 30.2863 15.6385 30.2388 15.7544 30.2138C15.8704 30.1889 15.9901 30.187 16.1068 30.2083C16.2235 30.2297 16.3348 30.2738 16.4344 30.3381C16.5341 30.4025 16.62 30.4858 16.6875 30.5834C16.8236 30.7805 16.8759 31.0236 16.8328 31.2592C16.7898 31.4949 16.6549 31.7037 16.4578 31.8399C16.2607 31.9761 16.0176 32.0283 15.782 31.9853C15.5463 31.9422 15.3375 31.8073 15.2013 31.6102ZM5.82249 26.6563C5.73913 26.6743 5.65303 26.6758 5.56912 26.6605C5.4852 26.6453 5.40511 26.6136 5.33342 26.5674C5.26173 26.5212 5.19985 26.4614 5.15129 26.3912C5.10274 26.3211 5.06848 26.2421 5.05046 26.1587C5.03244 26.0754 5.03101 25.9893 5.04626 25.9054C5.06152 25.8215 5.09315 25.7414 5.13935 25.6697C5.18556 25.598 5.24543 25.5361 5.31555 25.4875C5.38567 25.439 5.46467 25.4047 5.54804 25.3867C5.7164 25.3503 5.89232 25.3823 6.03711 25.4756C6.18189 25.5689 6.28368 25.7159 6.32007 25.8843C6.35647 26.0526 6.32449 26.2286 6.23118 26.3734C6.13786 26.5181 5.99086 26.6199 5.82249 26.6563ZM2.18786 14.166C2.33916 14.2698 2.46852 14.4024 2.56857 14.5562C2.66862 14.71 2.7374 14.8821 2.77097 15.0624C2.80455 15.2428 2.80226 15.4281 2.76425 15.6076C2.72624 15.7871 2.65324 15.9573 2.54943 16.1086C2.44561 16.2599 2.31302 16.3893 2.15921 16.4893C2.0054 16.5894 1.83339 16.6582 1.653 16.6917C1.47261 16.7253 1.28737 16.723 1.10787 16.685C0.92836 16.647 0.758099 16.574 0.606804 16.4702C0.455476 16.3664 0.326085 16.2337 0.226017 16.0799C0.125949 15.926 0.0571645 15.754 0.02359 15.5735C-0.0442166 15.2091 0.0355124 14.8327 0.245238 14.5271C0.454964 14.2215 0.777507 14.0117 1.14191 13.9439C1.50631 13.8761 1.88273 13.9558 2.18835 14.1655L2.18786 14.166ZM7.59723 5.62081C7.67647 5.73548 7.73235 5.86465 7.76168 6.00092C7.791 6.13719 7.7932 6.27791 7.76814 6.41503C7.74308 6.55215 7.69127 6.683 7.61564 6.80009C7.54002 6.91719 7.44207 7.01824 7.32739 7.09748C7.21272 7.17673 7.08355 7.2326 6.94728 7.26193C6.81101 7.29125 6.67029 7.29345 6.53317 7.26839C6.39605 7.24334 6.26521 7.19152 6.14811 7.1159C6.03101 7.04027 5.92996 6.94232 5.85072 6.82765C5.69068 6.59605 5.6292 6.31035 5.67981 6.03342C5.73041 5.75649 5.88895 5.51101 6.12055 5.35097C6.35216 5.19093 6.63785 5.12946 6.91478 5.18006C7.19171 5.23066 7.43719 5.38921 7.59723 5.62081ZM9.60798 0.0197061C9.70411 -0.00288459 9.80378 -0.00608845 9.90116 0.0102819C9.99855 0.0266523 10.0917 0.0622687 10.1751 0.115049C10.2586 0.16783 10.3307 0.236716 10.3872 0.317682C10.4438 0.398648 10.4836 0.49007 10.5044 0.586604C10.5252 0.683139 10.5265 0.78285 10.5084 0.87991C10.4902 0.976971 10.4528 1.06943 10.3985 1.15189C10.3442 1.23436 10.2739 1.30516 10.1919 1.36017C10.1099 1.41519 10.0178 1.4533 9.92088 1.47229C9.72984 1.50973 9.53173 1.47071 9.36916 1.3636C9.2066 1.2565 9.09255 1.08987 9.05156 0.899561C9.01056 0.709248 9.04589 0.510448 9.14994 0.345911C9.254 0.181374 9.41847 0.0642426 9.60798 0.0197061ZM18.0593 1.09516C18.374 0.917733 18.7455 0.870103 19.0947 0.9624C19.444 1.0547 19.7435 1.27964 19.9294 1.58936C20.1154 1.89908 20.1732 2.26914 20.0905 2.6208C20.0077 2.97247 19.7911 3.27798 19.4866 3.47234C19.3305 3.56606 19.1575 3.62812 18.9775 3.65498C18.7974 3.68184 18.6139 3.67298 18.4372 3.6289C18.2606 3.58482 18.0944 3.50638 17.9481 3.39807C17.8018 3.28976 17.6783 3.15369 17.5846 2.99763C17.4908 2.84158 17.4288 2.66859 17.4019 2.48855C17.3751 2.30851 17.3839 2.12494 17.428 1.94832C17.4721 1.77171 17.5505 1.6055 17.6588 1.4592C17.7671 1.3129 17.9032 1.18936 18.0593 1.09564V1.09516ZM25.6823 7.46464C26.4951 8.6385 26.8779 10.0569 26.766 11.4803C27.4838 11.6944 28.1417 12.127 28.607 12.7864C29.6503 14.2643 29.3578 16.2658 28.0001 17.4109C29.6912 20.1048 28.9821 23.6762 26.3383 25.502C25.2361 26.2636 23.9704 26.5794 22.7275 26.5337C22.491 27.4593 21.9489 28.3113 21.1007 28.8968C19.5119 29.9946 17.4408 29.7912 16.0607 28.56C16.0227 28.5902 15.9877 28.6223 15.9522 28.6549C15.9056 28.6996 15.856 28.7411 15.8037 28.779C13.3283 30.489 9.93402 29.869 8.22304 27.3936C7.62167 26.5233 7.2887 25.4958 7.26535 24.4383C5.90035 24.2144 4.62928 23.4587 3.82002 22.2046C2.45551 20.0902 2.86963 17.3529 4.6648 15.7091C3.34215 13.5796 3.89204 10.7718 5.97724 9.33135C6.6084 8.89533 7.30915 8.65737 8.02011 8.56151C8.52638 7.2256 9.42775 6.07571 10.6041 5.26508C13.0188 3.5974 16.0952 3.65969 18.4213 5.14926C21.0248 4.20569 24.0341 5.08016 25.6823 7.46464ZM30.0542 8.98828C30.1493 9.11558 30.2177 9.26075 30.2554 9.41511C30.2931 9.56947 30.2992 9.72984 30.2735 9.88664C30.2478 10.0434 30.1907 10.1934 30.1056 10.3277C30.0206 10.4619 29.9094 10.5776 29.7786 10.6678C29.6478 10.758 29.5002 10.821 29.3445 10.8529C29.1889 10.8847 29.0284 10.8849 28.8726 10.8533C28.7169 10.8217 28.5692 10.759 28.4382 10.669C28.3073 10.579 28.1959 10.4635 28.1106 10.3294C27.9465 10.0715 27.8888 9.76001 27.9496 9.46042C28.0104 9.16083 28.1849 8.89646 28.4365 8.72284C28.6881 8.54923 28.9972 8.47988 29.2989 8.52938C29.6005 8.57888 29.8713 8.74336 30.0542 8.98828ZM30.9958 16.8663C31.2199 16.8265 31.4507 16.8751 31.6396 17.0019C31.8286 17.1288 31.961 17.3239 32.0091 17.5463C32.0572 17.7688 32.0172 18.0012 31.8974 18.1947C31.7777 18.3882 31.5876 18.5278 31.3671 18.5841C31.141 18.6292 30.9061 18.5835 30.7133 18.457C30.5205 18.3305 30.3852 18.1333 30.3365 17.9079C30.2877 17.6825 30.3296 17.447 30.4529 17.2521C30.5763 17.0573 30.7712 16.9187 30.9958 16.8663ZM32.7535 12.8039C32.8382 12.7837 32.926 12.7806 33.0119 12.7947C33.0978 12.8089 33.18 12.8401 33.2537 12.8865C33.3274 12.9329 33.391 12.9935 33.441 13.0648C33.4909 13.1361 33.526 13.2167 33.5444 13.3018C33.5627 13.3869 33.5639 13.4748 33.5478 13.5604C33.5317 13.6459 33.4987 13.7274 33.4507 13.8C33.4027 13.8726 33.3406 13.9349 33.2682 13.9832C33.1958 14.0315 33.1144 14.0649 33.0289 14.0813C32.8612 14.1136 32.6875 14.0789 32.5451 13.9847C32.4026 13.8905 32.3027 13.7443 32.2667 13.5773C32.2307 13.4103 32.2615 13.2359 32.3525 13.0914C32.4434 12.9468 32.5874 12.8437 32.7535 12.8039ZM22.2574 21.2265C22.8822 21.3131 23.5003 21.3988 23.5986 22.0275C23.8604 23.7001 20.6155 23.0777 19.8739 22.7146C18.7109 22.1443 18.0053 20.8426 18.307 19.5564C18.4233 19.06 19.053 17.7714 19.6462 16.5588C20.2009 15.424 20.7236 14.3553 20.7625 14.0638C20.8442 13.4477 20.5158 13.3952 20.3099 13.385C20.0452 13.3713 19.8364 13.5003 19.5766 13.8925C19.4136 14.1383 18.0958 16.752 17.2145 18.4994C16.8159 19.2902 16.5069 19.9034 16.4344 20.0396C16.0198 20.8216 15.4977 21.01 14.9731 20.9822C14.2081 20.9423 13.8582 20.5326 13.9687 19.7958C13.9983 19.5973 14.3711 18.6853 14.774 17.698C15.2504 16.531 15.7692 15.26 15.8169 14.9359C15.8709 14.5665 15.7974 14.1748 15.4315 13.9864C15.0646 13.7986 14.6319 14.0867 14.502 14.3047C14.4173 14.4483 13.828 15.9446 13.2066 17.5247C12.5219 19.2644 11.7978 21.1039 11.664 21.3477C11.2212 22.1526 10.755 22.4085 10.0537 22.4416C8.39579 22.5205 7.16656 21.1569 7.70867 19.4854C7.75344 19.3472 7.84492 19.0401 7.9695 18.6226C8.51599 16.7904 9.69703 12.8283 10.3559 11.6579C10.8995 10.692 12.409 9.95862 13.4558 10.4117C13.7993 10.5601 14.2271 10.7654 14.5507 10.9212C14.7375 11.0107 14.8894 11.0832 14.9706 11.1192C15.4183 11.3178 15.8947 10.8715 16.1512 10.6311C16.1877 10.5971 16.2198 10.5669 16.2466 10.5435C16.2724 10.5216 16.2977 10.4997 16.3225 10.4774C16.5123 10.3105 16.7011 10.145 16.9337 10.0452C17.1965 9.93234 17.6106 9.88562 17.9303 9.93234C18.25 9.97954 18.4408 10.1002 18.5605 10.1961C18.7571 10.3528 18.8914 10.4817 19.0607 10.6438L19.1649 10.7431C19.4715 11.035 19.6997 10.8968 19.8647 10.7971L19.908 10.7718L19.9162 10.7669C20.2029 10.6 20.434 10.4657 21.2856 10.4813C22.1703 10.4963 23.1879 10.8127 23.399 12.3222C23.5129 13.1363 22.8686 14.5733 22.2 16.0663C21.4915 17.6469 20.7552 19.2897 20.8627 20.3204C20.9382 21.044 21.6014 21.1355 22.2574 21.2265Z" fill="#FF1154"/>
</svg>
