<svg width="68" height="67" viewBox="0 0 68 67" fill="none" xmlns="http://www.w3.org/2000/svg">
<path d="M36.5 10.4003C38.2808 9.48993 39.5 7.63734 39.5 5.5C39.5 2.46243 37.0376 0 34 0C30.9624 0 28.5 2.46243 28.5 5.5C28.5 7.63734 29.7192 9.48993 31.5 10.4003V20C31.5 20.5523 31.9477 21 32.5 21H35.5C36.0523 21 36.5 20.5523 36.5 20V10.4003Z" fill="black"/>
<path d="M42.5 33.5C42.5 38.1944 38.6944 42 34 42C29.3056 42 25.5 38.1944 25.5 33.5C25.5 28.8056 29.3056 25 34 25C38.6944 25 42.5 28.8056 42.5 33.5Z" fill="black"/>
<path d="M36.5 56.5997V47C36.5 46.4477 36.0523 46 35.5 46H32.5C31.9477 46 31.5 46.4477 31.5 47V56.5997C29.7192 57.5101 28.5 59.3627 28.5 61.5C28.5 64.5376 30.9624 67 34 67C37.0376 67 39.5 64.5376 39.5 61.5C39.5 59.3627 38.2808 57.5101 36.5 56.5997Z" fill="black"/>
<path d="M57.0997 31H47.5C46.9477 31 46.5 31.4477 46.5 32V35C46.5 35.5523 46.9477 36 47.5 36H57.0997C58.0101 37.7808 59.8627 39 62 39C65.0376 39 67.5 36.5376 67.5 33.5C67.5 30.4624 65.0376 28 62 28C59.8627 28 58.0101 29.2192 57.0997 31Z" fill="black"/>
<path d="M10.9003 31C9.98994 29.2192 8.13734 28 6 28C2.96243 28 0.5 30.4624 0.5 33.5C0.5 36.5376 2.96243 39 6 39C8.13734 39 9.98994 37.7808 10.9003 36H20.5C21.0523 36 21.5 35.5523 21.5 35V32C21.5 31.4477 21.0523 31 20.5 31H10.9003Z" fill="black"/>
<path d="M19.511 15.6973C20.1265 13.7943 19.6786 11.6222 18.1673 10.1109C16.0194 7.96303 12.537 7.96303 10.3891 10.1109C8.2412 12.2588 8.2412 15.7412 10.3891 17.8891C11.9004 19.4004 14.0725 19.8483 15.9754 19.2328L22.7635 26.0208C23.154 26.4113 23.7871 26.4113 24.1777 26.0208L26.299 23.8995C26.6895 23.509 26.6895 22.8758 26.299 22.4853L19.511 15.6973Z" fill="black"/>
<path d="M52.0246 47.7672L45.2365 40.9792C44.846 40.5887 44.2129 40.5887 43.8223 40.9792L41.701 43.1005C41.3105 43.491 41.3105 44.1242 41.701 44.5147L48.489 51.3027C47.8735 53.2057 48.3214 55.3778 49.8327 56.8891C51.9806 59.037 55.463 59.037 57.6109 56.8891C59.7588 54.7412 59.7588 51.2588 57.6109 49.1109C56.0996 47.5996 53.9275 47.1517 52.0246 47.7672Z" fill="black"/>
<path d="M51.8027 19.011C53.7057 19.6265 55.8778 19.1786 57.3891 17.6673C59.537 15.5194 59.537 12.037 57.3891 9.88909C55.2412 7.7412 51.7588 7.7412 49.6109 9.88909C48.0996 11.4004 47.6517 13.5725 48.2672 15.4754L41.4792 22.2635C41.0887 22.654 41.0887 23.2871 41.4792 23.6777L43.6005 25.799C43.991 26.1895 44.6242 26.1895 45.0147 25.799L51.8027 19.011Z" fill="black"/>
<path d="M16.1973 47.989C14.2943 47.3735 12.1222 47.8214 10.6109 49.3327C8.46303 51.4806 8.46303 54.963 10.6109 57.1109C12.7588 59.2588 16.2412 59.2588 18.3891 57.1109C19.9004 55.5996 20.3483 53.4275 19.7328 51.5246L26.5208 44.7365C26.9113 44.346 26.9113 43.7129 26.5208 43.3223L24.3995 41.201C24.009 40.8105 23.3758 40.8105 22.9853 41.201L16.1973 47.989Z" fill="black"/>
</svg>
