<svg width="111" height="111" viewBox="0 0 111 111" fill="none" xmlns="http://www.w3.org/2000/svg">
<path fill-rule="evenodd" clip-rule="evenodd" d="M0 56.8437C0 26.7257 24.8363 2.30566 55.5 2.30566C67.5808 2.30566 78.7606 6.09951 87.8727 12.5408L70.9645 29.449C70.4272 29.783 69.8728 30.1404 69.301 30.5228C64.861 29.311 60.1435 28.7098 55.426 28.682C50.7085 28.7098 45.991 29.311 41.551 30.5228C30.9366 23.4697 26.2885 24.9312 26.2885 24.9312C23.3054 32.4422 25.1785 37.9875 25.8029 39.3658C22.2416 43.1814 20.091 48.0469 20.091 53.9993C20.091 63.4623 22.7478 69.6016 26.7999 73.6136L21.1435 79.27C20.0252 78.6516 18.7059 78.1894 17.1911 78.0863C17.1911 78.0863 11.7752 78.0169 16.8026 81.3978C16.8026 81.3978 17.3306 81.6414 18.1238 82.2896L11.6258 88.7877C11.4102 89.0033 11.2042 89.225 11.0081 89.4522C4.09415 80.3594 0 69.0731 0 56.8437ZM29.8146 105.196C32.4118 106.53 35.1297 107.667 37.9481 108.588C40.7231 109.102 41.7406 107.413 41.7406 105.966C41.7406 105.39 41.7315 104.392 41.7193 103.061C41.7041 101.399 41.6841 99.2178 41.6712 96.6927C40.2641 96.9924 38.9581 97.1767 37.7466 97.2641L29.8146 105.196ZM89.1941 45.8165C90.1906 48.2707 90.7379 50.9967 90.7379 53.9993C90.7379 74.9505 77.7647 79.5617 65.416 80.9029C67.3585 82.5402 69.1623 85.884 69.1623 90.9947C69.1623 95.8841 69.1311 100.13 69.1106 102.933C69.1004 104.314 69.0929 105.344 69.0929 105.929C69.0929 107.358 70.0641 109.065 72.9085 108.519C95.1131 101.359 111 80.9075 111 56.8437C111 47.3954 108.554 38.5079 104.251 30.7592L89.1941 45.8165Z" fill="#CED1F1"/>
<rect x="101.533" y="7.06738" width="12.348" height="133.596" rx="6.17398" transform="rotate(45 101.533 7.06738)" fill="#CED1F1"/>
</svg>
