<svg width="13" height="7" viewBox="0 0 13 7" fill="none" xmlns="http://www.w3.org/2000/svg">
<path d="M9.2641 0.165041C9.06362 0.372651 9.06362 0.701769 9.2641 0.909347L11.0282 2.67453L0.535724 2.67453C0.239847 2.67453 -1.53147e-07 2.91438 -1.40214e-07 3.21025C-1.27281e-07 3.50613 0.239847 3.74598 0.535724 3.74598L11.0282 3.74598L9.2641 5.51009C9.05857 5.72291 9.06447 6.06204 9.27726 6.26758C9.48487 6.4681 9.81398 6.4681 10.0216 6.26758L12.7002 3.58903C12.9096 3.38007 12.9101 3.04088 12.7011 2.83141C12.7008 2.8311 12.7005 2.83079 12.7002 2.83044L10.0216 0.151888C9.80877 -0.0536804 9.46964 -0.047779 9.2641 0.165041Z" fill="white"/>
</svg>
