<svg width="18" height="18" viewBox="0 0 18 18" fill="none" xmlns="http://www.w3.org/2000/svg">
<rect width="18" height="18" rx="9" fill="#A93DDB"/>
<g clip-path="url(#clip0)">
<path fill-rule="evenodd" clip-rule="evenodd" d="M7.06452 12.5384V12.5412V12.5377C7.06406 12.3973 7.0079 12.2629 6.90839 12.1639C6.80888 12.0649 6.67415 12.0094 6.53377 12.0096C6.3934 12.0098 6.25885 12.0658 6.15967 12.1651C6.06049 12.2645 6.00478 12.3991 6.00478 12.5395C6.00478 12.6799 6.06049 12.8145 6.15967 12.9138C6.25885 13.0132 6.3934 13.0691 6.53377 13.0694C6.67415 13.0696 6.80888 13.0141 6.90839 12.9151C7.0079 12.8161 7.06406 12.6816 7.06452 12.5412V12.5384ZM7.38245 11.1961C7.6868 11.388 7.91705 11.6774 8.03556 12.0171C8.15408 12.3568 8.15385 12.7267 8.03491 13.0663C7.91597 13.4058 7.68535 13.695 7.38076 13.8865C7.07617 14.078 6.71563 14.1605 6.35807 14.1205C6.0005 14.0806 5.66708 13.9205 5.4123 13.6664C5.15752 13.4124 4.99645 13.0794 4.95543 12.722C4.91441 12.3646 4.99586 12.0038 5.18648 11.6986C5.37708 11.3935 5.66558 11.162 6.00478 11.0421V7.32874C5.65105 7.20376 5.3529 6.95769 5.16303 6.63412C4.97316 6.31055 4.90381 5.93024 4.96722 5.56046C5.03063 5.19075 5.22273 4.85524 5.50956 4.61348C5.79639 4.37165 6.15949 4.23897 6.53465 4.23897C6.90982 4.23897 7.27291 4.37165 7.55974 4.61348C7.84658 4.85524 8.03867 5.19075 8.10209 5.56046C8.1655 5.93024 8.09614 6.31055 7.90627 6.63412C7.7164 6.95769 7.41826 7.20376 7.06452 7.32874V9.805C7.44481 9.38674 7.90841 9.05267 8.42552 8.82429C8.94264 8.59591 9.50182 8.47826 10.0671 8.47891H11.0407C11.1656 8.12518 11.4117 7.82703 11.7353 7.63713C12.0589 7.44729 12.4392 7.37792 12.8089 7.44136C13.1787 7.50473 13.5142 7.6969 13.7559 7.98369C13.9978 8.27053 14.1304 8.63362 14.1304 9.00878C14.1304 9.38395 13.9978 9.74705 13.7559 10.0339C13.5142 10.3207 13.1787 10.5128 12.8089 10.5762C12.4392 10.6396 12.0589 10.5703 11.7353 10.3804C11.4117 10.1905 11.1656 9.89239 11.0407 9.53865H10.0671C9.50991 9.53861 8.96367 9.69362 8.48953 9.98633C8.01541 10.279 7.63208 10.6979 7.38245 11.1961ZM12.5398 8.47891C12.6804 8.47891 12.8152 8.53474 12.9145 8.63411C13.0139 8.73348 13.0697 8.86826 13.0697 9.00878C13.0697 9.14931 13.0139 9.28409 12.9145 9.38346C12.8152 9.48283 12.6804 9.53865 12.5398 9.53865C12.3993 9.53865 12.2645 9.48283 12.1652 9.38346C12.0658 9.28409 12.01 9.14931 12.01 9.00878C12.01 8.86826 12.0658 8.73348 12.1652 8.63411C12.2645 8.53474 12.3993 8.47891 12.5398 8.47891ZM6.53465 5.2997C6.67518 5.2997 6.80996 5.35551 6.90933 5.45491C7.0087 5.55425 7.06452 5.68904 7.06452 5.82957C7.06452 5.97009 7.0087 6.10489 6.90933 6.20422C6.80996 6.30362 6.67518 6.35944 6.53465 6.35944C6.39413 6.35944 6.25935 6.30362 6.15998 6.20422C6.06061 6.10489 6.00478 5.97009 6.00478 5.82957C6.00478 5.68904 6.06061 5.55425 6.15998 5.45491C6.25935 5.35551 6.39413 5.2997 6.53465 5.2997Z" fill="white"/>
</g>
<defs>
<clipPath id="clip0">
<rect width="11.3039" height="11.3039" fill="white" transform="translate(3.53223 3.53223)"/>
</clipPath>
</defs>
</svg>
