<svg width="18" height="18" viewBox="0 0 18 18" fill="none" xmlns="http://www.w3.org/2000/svg">
<rect width="18" height="18" rx="9" fill="#777777"/>
<path d="M9 4.5C6.51874 4.5 4.5 6.51874 4.5 9C4.5 11.4813 6.51874 13.5 9 13.5C11.4813 13.5 13.5 11.4813 13.5 9C13.5 6.51874 11.4813 4.5 9 4.5ZM9 12.9375C6.82882 12.9375 5.0625 11.1712 5.0625 9C5.0625 6.82882 6.82882 5.0625 9 5.0625C11.1712 5.0625 12.9375 6.82882 12.9375 9C12.9375 11.1712 11.1712 12.9375 9 12.9375Z" fill="white"/>
<path d="M9.28125 6.1875H8.71875V9.11645L10.4886 10.8863L10.8864 10.4886L9.28125 8.88354V6.1875Z" fill="white"/>
</svg>
