<svg width="23" height="23" viewBox="0 0 23 23" fill="none" xmlns="http://www.w3.org/2000/svg">
<path d="M11.4793 14.3375C13.0578 14.3375 14.3375 13.0578 14.3375 11.4793C14.3375 9.90075 13.0578 8.62109 11.4793 8.62109C9.90075 8.62109 8.62109 9.90075 8.62109 11.4793C8.62109 13.0578 9.90075 14.3375 11.4793 14.3375Z" stroke="#5B44BA" stroke-width="1.5" stroke-linecap="round" stroke-linejoin="round"/>
<path d="M18.5302 14.3382C18.4034 14.6255 18.3655 14.9443 18.4216 15.2534C18.4776 15.5624 18.6249 15.8476 18.8446 16.0721L18.9017 16.1293C19.0789 16.3063 19.2195 16.5164 19.3153 16.7477C19.4112 16.9791 19.4606 17.227 19.4606 17.4774C19.4606 17.7278 19.4112 17.9758 19.3153 18.2071C19.2195 18.4384 19.0789 18.6486 18.9017 18.8255C18.7248 19.0027 18.5146 19.1432 18.2833 19.2391C18.052 19.335 17.804 19.3844 17.5536 19.3844C17.3032 19.3844 17.0553 19.335 16.824 19.2391C16.5926 19.1432 16.3825 19.0027 16.2055 18.8255L16.1484 18.7684C15.9238 18.5487 15.6386 18.4014 15.3296 18.3453C15.0205 18.2893 14.7018 18.3271 14.4144 18.454C14.1326 18.5747 13.8923 18.7753 13.723 19.0309C13.5537 19.2865 13.4629 19.586 13.4617 19.8926V20.0545C13.4617 20.5599 13.2609 21.0446 12.9036 21.4019C12.5462 21.7592 12.0616 21.96 11.5562 21.96C11.0509 21.96 10.5662 21.7592 10.2089 21.4019C9.85152 21.0446 9.65076 20.5599 9.65076 20.0545V19.9688C9.64339 19.6535 9.54131 19.3476 9.35781 19.0911C9.17431 18.8345 8.91786 18.6391 8.62182 18.5302C8.33446 18.4034 8.0157 18.3655 7.70664 18.4216C7.39758 18.4776 7.11239 18.6249 6.88785 18.8446L6.83069 18.9017C6.65373 19.0789 6.44358 19.2195 6.21226 19.3153C5.98094 19.4112 5.73299 19.4606 5.48258 19.4606C5.23218 19.4606 4.98422 19.4112 4.75291 19.3153C4.52159 19.2195 4.31144 19.0789 4.13447 18.9017C3.95731 18.7248 3.81677 18.5146 3.72088 18.2833C3.62498 18.052 3.57563 17.804 3.57563 17.5536C3.57563 17.3032 3.62498 17.0553 3.72088 16.824C3.81677 16.5926 3.95731 16.3825 4.13447 16.2055L4.19164 16.1484C4.41127 15.9238 4.55861 15.6386 4.61465 15.3296C4.67069 15.0205 4.63286 14.7018 4.50604 14.4144C4.38527 14.1326 4.18473 13.8923 3.92913 13.723C3.67352 13.5537 3.37399 13.4629 3.06742 13.4617H2.90545C2.4001 13.4617 1.91544 13.2609 1.55809 12.9036C1.20075 12.5462 1 12.0616 1 11.5562C1 11.0509 1.20075 10.5662 1.55809 10.2089C1.91544 9.85152 2.4001 9.65076 2.90545 9.65076H2.9912C3.30655 9.64339 3.61238 9.54131 3.86895 9.35781C4.12551 9.17431 4.32094 8.91786 4.42982 8.62182C4.55664 8.33446 4.59447 8.0157 4.53843 7.70664C4.48239 7.39758 4.33506 7.11239 4.11542 6.88785L4.05825 6.83069C3.88109 6.65373 3.74055 6.44358 3.64466 6.21226C3.54877 5.98094 3.49941 5.73299 3.49941 5.48258C3.49941 5.23218 3.54877 4.98422 3.64466 4.75291C3.74055 4.52159 3.88109 4.31144 4.05825 4.13447C4.23522 3.95731 4.44537 3.81677 4.67669 3.72088C4.90801 3.62498 5.15596 3.57563 5.40636 3.57563C5.65677 3.57563 5.90472 3.62498 6.13604 3.72088C6.36736 3.81677 6.57751 3.95731 6.75447 4.13447L6.81164 4.19164C7.03617 4.41127 7.32136 4.55861 7.63042 4.61465C7.93948 4.67069 8.25824 4.63286 8.5456 4.50604H8.62182C8.90361 4.38527 9.14393 4.18473 9.31321 3.92913C9.48248 3.67352 9.57332 3.37399 9.57455 3.06742V2.90545C9.57455 2.4001 9.7753 1.91544 10.1326 1.55809C10.49 1.20075 10.9746 1 11.48 1C11.9854 1 12.47 1.20075 12.8274 1.55809C13.1847 1.91544 13.3855 2.4001 13.3855 2.90545V2.9912C13.3867 3.29777 13.4775 3.5973 13.6468 3.85291C13.8161 4.10852 14.0564 4.30905 14.3382 4.42982C14.6255 4.55664 14.9443 4.59447 15.2534 4.53843C15.5624 4.48239 15.8476 4.33506 16.0721 4.11542L16.1293 4.05825C16.3063 3.88109 16.5164 3.74055 16.7477 3.64466C16.9791 3.54877 17.227 3.49941 17.4774 3.49941C17.7278 3.49941 17.9758 3.54877 18.2071 3.64466C18.4384 3.74055 18.6486 3.88109 18.8255 4.05825C19.0027 4.23522 19.1432 4.44537 19.2391 4.67669C19.335 4.90801 19.3844 5.15596 19.3844 5.40636C19.3844 5.65677 19.335 5.90472 19.2391 6.13604C19.1432 6.36736 19.0027 6.57751 18.8255 6.75447L18.7684 6.81164C18.5487 7.03617 18.4014 7.32136 18.3453 7.63042C18.2893 7.93948 18.3271 8.25824 18.454 8.5456V8.62182C18.5747 8.90361 18.7753 9.14393 19.0309 9.31321C19.2865 9.48248 19.586 9.57332 19.8926 9.57455H20.0545C20.5599 9.57455 21.0446 9.7753 21.4019 10.1326C21.7592 10.49 21.96 10.9746 21.96 11.48C21.96 11.9854 21.7592 12.47 21.4019 12.8274C21.0446 13.1847 20.5599 13.3855 20.0545 13.3855H19.9688C19.6622 13.3867 19.3627 13.4775 19.1071 13.6468C18.8515 13.8161 18.651 14.0564 18.5302 14.3382V14.3382Z" stroke="#5B44BA" stroke-width="1.5" stroke-linecap="round" stroke-linejoin="round"/>
</svg>
