<svg width="23" height="23" viewBox="0 0 23 23" fill="none" xmlns="http://www.w3.org/2000/svg">
<ellipse cx="11.3699" cy="11.4237" rx="11.0788" ry="11.08" fill="#5B44BA"/>
<g clip-path="url(#clip0)">
<path d="M9.52323 10.6328H7.94098C7.79574 10.6328 7.6783 10.7503 7.67676 10.8971V14.8531C7.67676 14.9999 7.79574 15.1174 7.94098 15.1174H9.52323C9.67002 15.1174 9.78745 14.9984 9.78745 14.8531V10.8971C9.78745 10.7503 9.66848 10.6328 9.52323 10.6328Z" fill="white"/>
<path d="M12.1609 7.73047H10.5787C10.4334 7.73047 10.3145 7.84791 10.3145 7.99317V14.8513C10.3145 14.9981 10.4334 15.1156 10.5787 15.1156H12.1609C12.3077 15.1156 12.4251 14.9966 12.4251 14.8513V7.99472C12.4251 7.84791 12.3062 7.73047 12.1609 7.73047Z" fill="white"/>
<path d="M14.7976 9.83984H13.2154C13.0686 9.83984 12.9512 9.95729 12.9512 10.1041V14.8513C12.9512 14.9981 13.0701 15.1156 13.2154 15.1156H14.7976C14.9444 15.1156 15.0619 14.9966 15.0619 14.8513V10.1041C15.0619 9.95729 14.9429 9.83984 14.7976 9.83984Z" fill="white"/>
</g>
<defs>
<clipPath id="clip0">
<rect width="7.38589" height="7.38667" fill="white" transform="translate(7.67676 7.73047)"/>
</clipPath>
</defs>
</svg>
