<svg width="22" height="21" viewBox="0 0 22 21" fill="none" xmlns="http://www.w3.org/2000/svg">
<path d="M21 2.99805V8.99805H15" stroke="black" stroke-width="2" stroke-linecap="round" stroke-linejoin="round"/>
<path d="M1 18.998V12.998H7" stroke="black" stroke-width="2" stroke-linecap="round" stroke-linejoin="round"/>
<path d="M1 6.99763C1.50717 5.56442 2.36913 4.28304 3.50547 3.27305C4.6418 2.26307 6.01547 1.5574 7.49829 1.22189C8.98111 0.886385 10.5248 0.931975 11.9852 1.35441C13.4456 1.77684 14.7753 2.56235 15.85 3.63763L20.49 7.99763M1 12.9979L5.64 17.3579C6.71475 18.4332 8.04437 19.2187 9.50481 19.6411C10.9652 20.0635 12.5089 20.1091 13.9917 19.7736C15.4745 19.4381 16.8482 18.7325 17.9845 17.7225C19.1209 16.7125 19.9828 15.4311 20.49 13.9979" stroke="black" stroke-width="2" stroke-linecap="round" stroke-linejoin="round"/>
</svg>
