<svg width="15" height="15" viewBox="0 0 15 15" fill="none" xmlns="http://www.w3.org/2000/svg">
<g clip-path="url(#clip0)">
<path d="M1.80164 8.19168C1.77269 7.95044 1.75781 7.7108 1.75781 7.5C1.75781 4.35345 4.35345 1.75781 7.5 1.75781C8.96771 1.75781 10.3418 2.34959 11.3525 3.27244L10.8457 3.78811C10.7315 3.90232 10.6875 4.06929 10.7315 4.22756C10.7842 4.37691 10.9073 4.49123 11.0654 4.52637C11.1539 4.54411 14.06 5.48058 13.8749 5.44338C14.1103 5.52177 14.4585 5.27069 14.3936 4.92485C14.3757 4.83627 13.7323 1.60801 13.7695 1.79295C13.7344 1.63479 13.6201 1.50295 13.4619 1.45901C13.3126 1.41506 13.1455 1.45901 13.0313 1.57322L12.6006 1.99505C11.2735 0.755882 9.4511 0 7.5 0C3.37795 0 0 3.37795 0 7.5V7.51751C0 7.76527 0.0113297 7.95673 0.0244904 8.10322C0.0419998 8.29731 0.185051 8.45627 0.376167 8.49461L1.27899 8.67508C1.57288 8.7339 1.83712 8.48751 1.80164 8.19168Z" fill="#696F8C"/>
<path d="M14.6271 6.50408L13.7216 6.3196C13.4274 6.25963 13.1613 6.50625 13.1975 6.80346C13.2289 7.05992 13.2428 7.30928 13.2428 7.49937C13.2428 10.6458 10.6472 13.2416 7.50064 13.2416C6.03294 13.2416 4.65884 12.6498 3.6481 11.7181L4.15496 11.2113C4.26917 11.097 4.31312 10.9301 4.26917 10.7718C4.21641 10.6223 4.09339 10.5081 3.93523 10.473C3.84677 10.4552 0.940658 9.51879 1.12571 9.55599C0.976249 9.52967 0.826789 9.57361 0.730201 9.67901C0.624686 9.77571 0.580741 9.93387 0.607062 10.0745C0.624915 10.163 1.26842 13.3619 1.23122 13.177C1.26624 13.3353 1.38057 13.4671 1.53873 13.511C1.72217 13.557 1.8753 13.5013 1.96937 13.3967L2.39131 12.9749C3.71837 14.2142 5.54072 14.9994 7.50064 14.9994C11.6227 14.9994 15.0006 11.6214 15.0006 7.49937V7.47293C15.0006 7.27816 14.9935 7.08693 14.9773 6.89684C14.9606 6.70263 14.8181 6.5431 14.6271 6.50408Z" fill="#696F8C"/>
</g>
<defs>
<clipPath id="clip0">
<rect width="15" height="15" fill="white"/>
</clipPath>
</defs>
</svg>
