<svg width="38" height="34" viewBox="0 0 38 34" fill="none" xmlns="http://www.w3.org/2000/svg">
<path d="M0.974432 31H1.85511V28.1591H3.44602C3.50994 28.1591 3.57031 28.1591 3.63068 28.1555L5.16477 31H6.1875L4.54332 27.9957C5.47017 27.6797 5.90341 26.9233 5.90341 25.9574C5.90341 24.6719 5.13636 23.7273 3.43182 23.7273H0.974432V31ZM1.85511 27.3636V24.5085H3.40341C4.58239 24.5085 5.03693 25.0838 5.03693 25.9574C5.03693 26.831 4.58239 27.3636 3.41761 27.3636H1.85511ZM9.48562 31.1136C10.5936 31.1136 11.4032 30.5597 11.6589 29.7358L10.8493 29.5085C10.6362 30.0767 10.1426 30.3608 9.48562 30.3608C8.50195 30.3608 7.82369 29.7251 7.78462 28.5568H11.7441V28.2017C11.7441 26.1705 10.5368 25.4744 9.40039 25.4744C7.92312 25.4744 6.943 26.6392 6.943 28.3153C6.943 29.9915 7.90891 31.1136 9.48562 31.1136ZM7.78462 27.8324C7.84144 26.9837 8.44158 26.2273 9.40039 26.2273C10.3095 26.2273 10.8919 26.9091 10.8919 27.8324H7.78462ZM13.019 31H13.8571V27.5909C13.8571 26.7919 14.4395 26.2273 15.0929 26.2273C15.7285 26.2273 16.1724 26.6428 16.1724 27.2642V31H17.0247V27.4489C17.0247 26.7457 17.465 26.2273 18.2321 26.2273C18.8287 26.2273 19.34 26.5433 19.34 27.3494V31H20.1781V27.3494C20.1781 26.0675 19.4892 25.4744 18.5162 25.4744C17.7349 25.4744 17.1632 25.8331 16.8826 26.3977H16.8258C16.5559 25.8153 16.0801 25.4744 15.3627 25.4744C14.6525 25.4744 14.127 25.8153 13.8997 26.3977H13.8287V25.5455H13.019V31ZM23.9263 31.1136C25.4036 31.1136 26.3979 29.9915 26.3979 28.3011C26.3979 26.5966 25.4036 25.4744 23.9263 25.4744C22.449 25.4744 21.4547 26.5966 21.4547 28.3011C21.4547 29.9915 22.449 31.1136 23.9263 31.1136ZM23.9263 30.3608C22.8042 30.3608 22.2928 29.3949 22.2928 28.3011C22.2928 27.2074 22.8042 26.2273 23.9263 26.2273C25.0485 26.2273 25.5598 27.2074 25.5598 28.3011C25.5598 29.3949 25.0485 30.3608 23.9263 30.3608ZM31.9421 25.5455H31.033L29.5273 29.892H29.4705L27.9648 25.5455H27.0558L29.0728 31H29.9251L31.9421 25.5455ZM35.1399 31.1136C36.2479 31.1136 37.0575 30.5597 37.3132 29.7358L36.5036 29.5085C36.2905 30.0767 35.7969 30.3608 35.1399 30.3608C34.1562 30.3608 33.478 29.7251 33.4389 28.5568H37.3984V28.2017C37.3984 26.1705 36.1911 25.4744 35.0547 25.4744C33.5774 25.4744 32.5973 26.6392 32.5973 28.3153C32.5973 29.9915 33.5632 31.1136 35.1399 31.1136ZM33.4389 27.8324C33.4957 26.9837 34.0959 26.2273 35.0547 26.2273C35.9638 26.2273 36.5462 26.9091 36.5462 27.8324H33.4389Z" fill="#CA2C2C"/>
<path d="M16.5056 14.3007H16.5055C16.0643 14.3 15.6426 14.1177 15.3397 13.7967C15.0354 13.4766 14.8621 13.0316 14.8621 12.5592V4.80715C14.2728 4.63143 13.8948 4.05291 13.9748 3.43922L13.9748 3.43921C14.0566 2.81284 14.5903 2.34428 15.222 2.34415H15.222H16.7908V1.99908V1.99893H16.8408L16.5056 14.3007ZM16.5056 14.3007H22.4878H22.4878M16.5056 14.3007H22.4878M22.4878 14.3007C22.9292 14.3 23.3508 14.1177 23.6537 13.7967C23.958 13.4766 24.1312 13.0316 24.1312 12.5592V4.80715C24.7206 4.63143 25.0986 4.05291 25.0186 3.43922L25.0186 3.43921M22.4878 14.3007L25.0186 3.43921M25.0186 3.43921C24.9368 2.81284 24.4031 2.34428 23.7714 2.34415H22.2026L25.0186 3.43921ZM21.823 1.07725L21.823 1.07726C22.0677 1.32145 22.2044 1.65337 22.2026 1.99904V1.99893H22.1526L22.2026 1.99921L21.823 1.07725ZM21.823 1.07725C21.5783 0.833194 21.2459 0.697271 20.9003 0.700042M21.823 1.07725L20.9003 0.700042M18.0929 1.38239C17.9282 1.37955 17.7693 1.4434 17.6526 1.55962C17.5358 1.67584 17.4711 1.8343 17.4732 1.99893L18.0929 1.38239ZM18.0929 1.38239H20.9005H18.0929ZM20.9003 0.700042H20.9005V0.750042C21.2328 0.747324 21.5525 0.877994 21.7877 1.11266L20.9003 0.700042ZM20.9003 0.700042H18.0931H18.0929H20.9003ZM22.1526 2.34415V2.39415H22.2026L22.1526 2.34415ZM17.5232 1.99893H17.5232L17.5232 1.9983C17.5212 1.8472 17.5806 1.70176 17.6879 1.59507L17.6879 1.59505C17.795 1.4884 17.9408 1.42978 18.0921 1.43238V1.43239H18.0929L20.9005 1.4324L20.9013 1.43238C21.0526 1.42978 21.1984 1.4884 21.3055 1.59505L21.3055 1.59509C21.4127 1.70164 21.4721 1.84718 21.4702 1.9983H21.4702V1.99893V2.34415H17.5232V1.99893ZM21.3622 5.59066C21.1599 5.59066 20.996 5.75459 20.996 5.95684V11.9326C20.996 12.1347 21.1599 12.2988 21.3622 12.2988C21.5644 12.2988 21.7284 12.1347 21.7284 11.9326V5.95684C21.7284 5.75459 21.5644 5.59066 21.3622 5.59066ZM17.6312 5.59066C17.429 5.59066 17.2651 5.75459 17.2651 5.95684V11.9326C17.2651 12.1347 17.429 12.2988 17.6312 12.2988C17.8335 12.2988 17.9974 12.1347 17.9974 11.9326V5.95684C17.9974 5.75459 17.8335 5.59066 17.6312 5.59066ZM22.4878 13.5684H16.5056C15.9971 13.5684 15.5945 13.1311 15.5945 12.5592V4.84709H23.3989V12.5592C23.3989 13.1311 22.9962 13.5684 22.4878 13.5684ZM15.222 3.0765H23.7714C24.0581 3.0765 24.2905 3.30891 24.2905 3.59562C24.2905 3.88233 24.0581 4.11474 23.7714 4.11474H15.222C14.9353 4.11474 14.7029 3.88233 14.7029 3.59562C14.7029 3.30891 14.9353 3.0765 15.222 3.0765ZM19.4967 5.59066C19.2944 5.59066 19.1305 5.75459 19.1305 5.95684V11.9326C19.1305 12.1347 19.2944 12.2988 19.4967 12.2988C19.699 12.2988 19.8629 12.1347 19.8629 11.9326V5.95684C19.8629 5.75459 19.6989 5.59066 19.4967 5.59066Z" fill="#CA2C2C" stroke="#CA2C2C" stroke-width="0.1"/>
</svg>
