<svg width="48" height="48" viewBox="0 0 48 48" fill="none" xmlns="http://www.w3.org/2000/svg">
<path fill-rule="evenodd" clip-rule="evenodd" d="M18.7049 6.05388C16.4676 6.34958 14.5124 7.33328 13.0189 8.91463C11.716 10.2942 10.9865 11.7244 10.5479 13.7592C10.5056 13.9561 10.4453 13.994 10.0975 14.0421C6.17225 14.5861 2.96847 17.5666 2.15429 21.4317C1.96625 22.3243 1.94612 24.2527 2.1158 25.1069C2.46888 26.8838 3.31191 28.5032 4.56833 29.8182C6.26902 31.5981 8.37591 32.5711 10.8591 32.7231L11.7685 32.7789V31.0633L11.2398 31.0626C10.028 31.0612 8.54788 30.6425 7.42004 29.9823C6.54182 29.4682 5.25977 28.2062 4.78471 27.3881C4.03854 26.1029 3.73791 25.109 3.67311 23.7128C3.52203 20.4584 5.3573 17.5407 8.36432 16.2551C9.10964 15.9364 9.76877 15.7802 10.7705 15.6849C11.9257 15.575 11.9815 15.52 12.1942 14.2838C12.3835 13.1836 12.5849 12.5754 13.0376 11.7373C14.7202 8.62154 18.2927 7.0412 21.691 7.90931C23.6617 8.41278 25.4734 9.77159 26.5079 11.5224C27.0495 12.439 27.179 12.4913 28.1626 12.1899C29.2228 11.865 29.9512 11.772 31.0128 11.8258C34.4634 12.0008 37.3635 14.4675 38.1283 17.8779C38.305 18.6652 38.4817 18.8577 39.0986 18.9341C40.8509 19.1513 41.9071 19.6508 43.0246 20.7908C44.84 22.6426 45.2589 25.2614 44.124 27.6622C43.8077 28.3312 43.6415 28.5572 42.9667 29.2362C42.2808 29.9263 42.0746 30.0784 41.3751 30.4103C40.3196 30.911 39.954 30.9943 38.5413 31.0548L37.357 31.1055V32.7108L38.5413 32.7076C39.891 32.704 40.6829 32.5586 41.7116 32.1251C43.9796 31.1698 45.6175 29.2302 46.247 26.7544C46.372 26.2633 46.4062 25.8451 46.3991 24.8957C46.3913 23.8234 46.3616 23.5757 46.1611 22.9102C45.7389 21.5085 45.172 20.5639 44.1303 19.5268C42.9174 18.3191 41.8546 17.7662 39.937 17.3448C39.762 17.3064 39.6989 17.2067 39.5709 16.767C39.1821 15.4309 38.3258 14.0028 37.2759 12.9394C35.349 10.9875 32.881 10.0155 30.1669 10.1396C29.6086 10.1651 28.8641 10.2571 28.5124 10.3439L27.8729 10.5018L27.4973 9.95704C26.5036 8.51602 24.85 7.24287 23.1302 6.59451C21.8695 6.11927 19.9678 5.88693 18.7049 6.05388Z" fill="#858CDD"/>
<path d="M12.3285 28.8011C12.3285 28.6715 12.4346 28.5664 12.5654 28.5664H35.777C35.9078 28.5664 36.0138 28.6715 36.0138 28.8011V34.6683C36.0138 34.7979 35.9078 34.903 35.777 34.903H12.5654C12.4346 34.903 12.3285 34.7979 12.3285 34.6683V28.8011Z" fill="#858CDD"/>
<path d="M23.5791 30.496C23.5791 30.3635 23.6857 30.2562 23.8172 30.2562H34.9298C35.0613 30.2562 35.1679 30.3635 35.1679 30.496V32.9735C35.1679 33.1059 35.0613 33.2133 34.9298 33.2133H23.8172C23.6857 33.2133 23.5791 33.1059 23.5791 32.9735V30.496Z" fill="white"/>
<path d="M16.3889 31.7347C16.3889 32.5513 15.7261 33.2133 14.9086 33.2133C14.091 33.2133 13.4282 32.5513 13.4282 31.7347C13.4282 30.9182 14.091 30.2562 14.9086 30.2562C15.7261 30.2562 16.3889 30.9182 16.3889 31.7347Z" fill="white"/>
<path d="M21.2105 31.7347C21.2105 32.5513 20.5478 33.2133 19.7302 33.2133C18.9126 33.2133 18.2499 32.5513 18.2499 31.7347C18.2499 30.9182 18.9126 30.2562 19.7302 30.2562C20.5478 30.2562 21.2105 30.9182 21.2105 31.7347Z" fill="white"/>
<path d="M12.3285 35.8981C12.3285 35.7685 12.4346 35.6634 12.5654 35.6634H35.777C35.9078 35.6634 36.0138 35.7685 36.0138 35.8981V41.7653C36.0138 41.8949 35.9078 42 35.777 42H12.5654C12.4346 42 12.3285 41.8949 12.3285 41.7653V35.8981Z" fill="#858CDD"/>
<path d="M23.5791 37.5929C23.5791 37.4605 23.6857 37.3532 23.8172 37.3532H34.9298C35.0613 37.3532 35.1679 37.4605 35.1679 37.5929V40.0705C35.1679 40.2029 35.0613 40.3102 34.9298 40.3102H23.8172C23.6857 40.3102 23.5791 40.2029 23.5791 40.0705V37.5929Z" fill="white"/>
<path d="M16.3889 38.8317C16.3889 39.6483 15.7261 40.3102 14.9086 40.3102C14.091 40.3102 13.4282 39.6483 13.4282 38.8317C13.4282 38.0151 14.091 37.3532 14.9086 37.3532C15.7261 37.3532 16.3889 38.0151 16.3889 38.8317Z" fill="white"/>
<path d="M21.2105 38.8317C21.2105 39.6483 20.5478 40.3102 19.7302 40.3102C18.9126 40.3102 18.2499 39.6483 18.2499 38.8317C18.2499 38.0151 18.9126 37.3532 19.7302 37.3532C20.5478 37.3532 21.2105 38.0151 21.2105 38.8317Z" fill="white"/>
</svg>
