<svg width="10" height="10" viewBox="0 0 10 10" fill="none" xmlns="http://www.w3.org/2000/svg">
<g clip-path="url(#clip0)">
<path d="M2.91686 3.77002H0.965927C0.786837 3.77002 0.642042 3.91483 0.640137 4.09584V8.97368C0.640137 9.15469 0.786837 9.2995 0.965927 9.2995H2.91686C3.09785 9.2995 3.24265 9.15279 3.24265 8.97368V4.09584C3.24265 3.91483 3.09595 3.77002 2.91686 3.77002Z" fill="white"/>
<path d="M6.16929 0.193848H4.21837C4.03928 0.193848 3.89258 0.338658 3.89258 0.517766V8.97395C3.89258 9.15496 4.03928 9.29977 4.21837 9.29977H6.16929C6.35029 9.29977 6.49508 9.15306 6.49508 8.97395V0.519672C6.49508 0.338658 6.34838 0.193848 6.16929 0.193848Z" fill="white"/>
<path d="M9.42027 2.79492H7.46934C7.28835 2.79492 7.14355 2.93973 7.14355 3.12075V8.97415C7.14355 9.15516 7.29026 9.29997 7.46934 9.29997H9.42027C9.60127 9.29997 9.74606 9.15326 9.74606 8.97415V3.12075C9.74606 2.93973 9.59936 2.79492 9.42027 2.79492Z" fill="white"/>
</g>
<defs>
<clipPath id="clip0">
<rect width="9.10688" height="9.10783" fill="white" transform="translate(0.640625 0.194824)"/>
</clipPath>
</defs>
</svg>
