<svg width="17" height="17" viewBox="0 0 17 17" fill="none" xmlns="http://www.w3.org/2000/svg">
<path d="M8.532 1.15413C6.54357 1.14875 4.63138 1.91887 3.20171 3.30085V1.15409C3.20171 0.829517 2.9386 0.566406 2.61403 0.566406C2.28945 0.566406 2.02638 0.829517 2.02638 1.15409V4.68014C2.02631 4.93319 2.18825 5.15788 2.42836 5.23783L5.95441 6.41317C6.26273 6.51575 6.59584 6.34892 6.69839 6.04059C6.80097 5.73227 6.63413 5.39916 6.32581 5.29661L3.72243 4.43039C6.12733 1.81151 10.2 1.63803 12.8188 4.04294C15.4377 6.44785 15.6112 10.5205 13.2063 13.1393C10.8014 15.7582 6.72876 15.9317 4.10988 13.5268C2.50429 12.0524 1.75383 9.86567 2.11573 7.71605C2.17265 7.3965 1.95978 7.09135 1.64027 7.0344C1.32075 6.97744 1.01557 7.19035 0.958612 7.50986C0.957992 7.51334 0.957407 7.51685 0.956856 7.52033C0.886507 7.94118 0.851109 8.36713 0.851074 8.7938C0.855861 13.0111 4.27347 16.4288 8.49078 16.4336C12.7101 16.445 16.1398 13.0338 16.1512 8.8145C16.1625 4.59519 12.7513 1.16552 8.532 1.15413Z" fill="#5B44BA"/>
</svg>
