<svg width="18" height="18" viewBox="0 0 18 18" fill="none" xmlns="http://www.w3.org/2000/svg">
<rect width="18" height="18" rx="9" fill="#5252F6"/>
<path d="M9.00063 14.4003C8.27177 14.4003 7.564 14.258 6.89843 13.9764C6.25501 13.7042 5.67804 13.314 5.18228 12.8183C4.68653 12.3226 4.29626 11.7457 4.02412 11.1023C3.74249 10.4368 3.6001 9.72913 3.6001 9.00034C3.6001 8.79046 3.76992 8.62065 3.97982 8.62065C4.18973 8.62065 4.35955 8.79046 4.35955 9.00034C4.35955 9.62683 4.4819 10.2343 4.7245 10.807C4.95867 11.3597 5.29304 11.8564 5.71917 12.2825C6.14531 12.7086 6.64211 13.044 7.19482 13.2771C7.76652 13.5186 8.37408 13.641 9.00063 13.641C9.62717 13.641 10.2347 13.5186 10.8075 13.276C11.3602 13.0419 11.857 12.7076 12.2831 12.2815C12.7093 11.8554 13.0447 11.3586 13.2778 10.806C13.5193 10.2343 13.6417 9.62683 13.6417 9.00034C13.6417 8.37386 13.5193 7.76636 13.2767 7.19366C13.0434 6.64233 12.7056 6.14131 12.2821 5.71815C11.8594 5.29408 11.3582 4.95628 10.8064 4.72358C10.2347 4.48206 9.62717 4.35972 9.00063 4.35972C8.79072 4.35972 8.6209 4.18991 8.6209 3.98003C8.6209 3.77015 8.79072 3.60034 9.00063 3.60034C9.72949 3.60034 10.4373 3.74272 11.1028 4.02433C11.7462 4.29644 12.3232 4.68667 12.819 5.18237C13.3147 5.67808 13.7039 6.25604 13.9761 6.89835C14.2577 7.56386 14.4001 8.27155 14.4001 9.00034C14.4001 9.72913 14.2577 10.4368 13.9761 11.1023C13.705 11.7457 13.3147 12.3226 12.819 12.8183C12.3232 13.314 11.7452 13.7032 11.1028 13.9753C10.4373 14.258 9.72949 14.4003 9.00063 14.4003Z" fill="white"/>
</svg>
