<svg width="19" height="19" viewBox="0 0 19 19" fill="none" xmlns="http://www.w3.org/2000/svg">
<rect width="19" height="19" rx="9.5" fill="#5B44BA"/>
<path d="M10.9741 8.34488V4.58594H11.5637V4H7.43628V4.58594H8.02591V8.34488L5.14879 12.6336C4.96749 12.9038 4.95069 13.2495 5.1049 13.5358C5.25909 13.8221 5.55787 14 5.88467 14H13.1153C13.4421 14 13.7409 13.8221 13.8951 13.5358C14.0493 13.2495 14.0325 12.9038 13.8512 12.6336L10.9741 8.34488ZM8.61555 8.52231V4.58594H10.3844V8.52231L11.1422 9.65182C10.9946 9.62387 10.8375 9.60547 10.6793 9.60547C10.0275 9.60547 9.39476 9.91613 9.36815 9.92936C9.22145 10.0022 8.74735 10.1914 8.32073 10.1914C8.05695 10.1914 7.78737 10.122 7.5876 10.0546L8.61555 8.52231ZM13.3752 13.2594C13.3502 13.3059 13.2747 13.4141 13.1153 13.4141H5.88467C5.72529 13.4141 5.6498 13.3059 5.62474 13.2594C5.5997 13.2128 5.55095 13.0904 5.63936 12.9586L7.2508 10.5566C7.49884 10.6515 7.90579 10.7773 8.32073 10.7773C8.97247 10.7773 9.60522 10.4667 9.63184 10.4535C9.77852 10.3806 10.2526 10.1914 10.6793 10.1914C11.083 10.1914 11.5005 10.354 11.6596 10.423L13.3606 12.9586C13.449 13.0904 13.4003 13.2128 13.3752 13.2594Z" fill="white"/>
<path d="M10.3845 11.0703H10.9741V11.6562H10.3845V11.0703Z" fill="white"/>
<path d="M9.2052 12.2422H9.79483V12.8281H9.2052V12.2422Z" fill="white"/>
<path d="M8.02593 11.6562H8.61557V12.2422H8.02593V11.6562Z" fill="white"/>
<path d="M9.2052 8.72656H9.79483V9.3125H9.2052V8.72656Z" fill="white"/>
</svg>
