<svg width="10" height="15" viewBox="0 0 10 15" fill="none" xmlns="http://www.w3.org/2000/svg">
<path d="M1 2C0.447715 2 0 1.55228 0 1C0 0.447715 0.447716 0 1 0H9C9.55229 0 10 0.447715 10 1C10 1.55228 9.55228 2 9 2H1Z" fill="#5B44BA"/>
<path d="M1.29289 10.7071L5 14.4142L8.70711 10.7071C9.09763 10.3166 9.09763 9.68342 8.70711 9.2929C8.31658 8.90237 7.68342 8.90237 7.29289 9.2929L6 10.5858L6 4C6 3.44772 5.55229 3 5 3C4.44772 3 4 3.44771 4 4L4 10.5858L2.70711 9.2929C2.31658 8.90237 1.68342 8.90237 1.29289 9.2929C0.902369 9.68342 0.902369 10.3166 1.29289 10.7071Z" fill="#5B44BA"/>
</svg>
