<svg width="12" height="13" viewBox="0 0 12 13" fill="none" xmlns="http://www.w3.org/2000/svg">
<g clip-path="url(#clip0)">
<path d="M11.5 6.5C11.5 9.53757 9.03757 12 6 12C2.96243 12 0.5 9.53757 0.5 6.5C0.5 3.46243 2.96243 1 6 1C9.03757 1 11.5 3.46243 11.5 6.5Z" stroke="#949AB7"/>
<path d="M5.92702 9.55131C5.09841 9.55131 4.30373 9.22214 3.71782 8.63622C3.1319 8.05031 2.80273 7.25563 2.80273 6.42702C2.80273 5.59841 3.1319 4.80373 3.71782 4.21782C4.30373 3.6319 5.09841 3.30273 5.92702 3.30273C6.75563 3.30273 7.55031 3.6319 8.13622 4.21782C8.72214 4.80373 9.05131 5.59841 9.05131 6.42702C9.05131 7.25563 8.72214 8.05031 8.13622 8.63622C7.55031 9.22214 6.75563 9.55131 5.92702 9.55131ZM5.92702 8.65816C6.51876 8.65816 7.08626 8.4231 7.50468 8.00468C7.9231 7.58626 8.15816 7.01876 8.15816 6.42702C8.15816 5.83528 7.9231 5.26778 7.50468 4.84936C7.08626 4.43094 6.51876 4.19588 5.92702 4.19588C5.33528 4.19588 4.76778 4.43094 4.34936 4.84936C3.93094 5.26778 3.69588 5.83528 3.69588 6.42702C3.69588 7.01876 3.93094 7.58626 4.34936 8.00468C4.76778 8.4231 5.33528 8.65816 5.92702 8.65816Z" fill="#949AB7"/>
<path d="M5.95447 4.64258H5.89875C5.66774 4.64258 5.48047 4.82985 5.48047 5.06086V6.45544C5.48047 6.68645 5.66774 6.87372 5.89875 6.87372H5.95447C6.18548 6.87372 6.37275 6.68645 6.37275 6.45544V5.06086C6.37275 4.82985 6.18548 4.64258 5.95447 4.64258Z" fill="#949AB7"/>
<path d="M6.84761 5.98047H5.89875C5.66774 5.98047 5.48047 6.16774 5.48047 6.39875V6.45447C5.48047 6.68548 5.66774 6.87275 5.89875 6.87275H6.84761C7.07862 6.87275 7.2659 6.68548 7.2659 6.45447V6.39875C7.2659 6.16774 7.07862 5.98047 6.84761 5.98047Z" fill="#949AB7"/>
</g>
<defs>
<clipPath id="clip0">
<rect width="12" height="12" fill="white" transform="translate(0 0.5)"/>
</clipPath>
</defs>
</svg>
