<svg width="20" height="20" viewBox="0 0 20 20" fill="none" xmlns="http://www.w3.org/2000/svg">
<path d="M0.5 10C0.5 7.48044 1.50089 5.06408 3.28249 3.28249C5.06408 1.50089 7.48044 0.5 10 0.5C12.5196 0.5 14.9359 1.50089 16.7175 3.28249C18.4991 5.06408 19.5 7.48044 19.5 10C19.5 12.5196 18.4991 14.9359 16.7175 16.7175C14.9359 18.4991 12.5196 19.5 10 19.5C7.48044 19.5 5.06408 18.4991 3.28249 16.7175C1.50089 14.9359 0.5 12.5196 0.5 10Z" stroke="#3A97D4"/>
<path fill-rule="evenodd" clip-rule="evenodd" d="M10 4.28516C13.1429 4.28516 15.7143 6.85658 15.7143 9.99944C15.7143 13.1423 13.1429 15.7137 10 15.7137C8.14288 15.7137 6.42859 14.7137 5.28574 13.2852L10 9.99944V4.28516Z" fill="#3A97D4"/>
</svg>
