<svg width="12" height="13" viewBox="0 0 12 13" fill="none" xmlns="http://www.w3.org/2000/svg">
<g clip-path="url(#clip0)">
<path d="M1.93414 10.5659C0.855802 9.48753 0.25 8.02499 0.25 6.5C0.25 4.97501 0.855802 3.51247 1.93414 2.43414C3.01247 1.3558 4.47501 0.75 6 0.75C7.52499 0.75 8.98753 1.3558 10.0659 2.43414C11.1442 3.51247 11.75 4.97501 11.75 6.5C11.75 8.02499 11.1442 9.48753 10.0659 10.5659C8.98753 11.6442 7.52499 12.25 6 12.25C4.47501 12.25 3.01247 11.6442 1.93414 10.5659Z" stroke="#A93DDB" stroke-width="0.5"/>
<path fill-rule="evenodd" clip-rule="evenodd" d="M4.45723 3.75723L8.65723 7.95723C8.82866 8.12866 8.82866 8.3858 8.65723 8.55723L8.05723 9.15723C7.8858 9.32866 7.62866 9.32866 7.45723 9.15723L3.25723 4.95723C3.0858 4.7858 3.0858 4.52866 3.25723 4.35723L3.85723 3.75723C4.02866 3.5858 4.2858 3.5858 4.45723 3.75723Z" fill="#A93DDB"/>
</g>
<defs>
<clipPath id="clip0">
<rect width="12" height="12" fill="white" transform="translate(0 0.5)"/>
</clipPath>
</defs>
</svg>
