<svg width="20" height="20" viewBox="0 0 20 20" fill="none" xmlns="http://www.w3.org/2000/svg">
<path fill-rule="evenodd" clip-rule="evenodd" d="M0 10C0 7.34784 1.05357 4.8043 2.92893 2.92893C4.8043 1.05357 7.34784 0 10 0C12.6522 0 15.1957 1.05357 17.0711 2.92893C18.9464 4.8043 20 7.34784 20 10C20 12.6522 18.9464 15.1957 17.0711 17.0711C15.1957 18.9464 12.6522 20 10 20C7.34784 20 4.8043 18.9464 2.92893 17.0711C1.05357 15.1957 0 12.6522 0 10H0Z" fill="#DD2B0E"/>
<path fill-rule="evenodd" clip-rule="evenodd" d="M18.5714 10.0011C18.5714 8.8755 18.3497 7.76091 17.919 6.72097C17.4882 5.68104 16.8569 4.73613 16.0609 3.9402C15.265 3.14427 14.3201 2.5129 13.2802 2.08215C12.2402 1.65139 11.1256 1.42969 10 1.42969C8.8744 1.42969 7.75981 1.65139 6.71987 2.08215C5.67994 2.5129 4.73503 3.14427 3.9391 3.9402C3.14317 4.73613 2.5118 5.68104 2.08105 6.72097C1.6503 7.76091 1.42859 8.8755 1.42859 10.0011C1.42859 12.2744 2.33165 14.4546 3.9391 16.062C5.54656 17.6695 7.72673 18.5725 10 18.5725C12.2733 18.5725 14.4535 17.6695 16.0609 16.062C17.6684 14.4546 18.5714 12.2744 18.5714 10.0011Z" fill="white"/>
<path fill-rule="evenodd" clip-rule="evenodd" d="M9.99993 8.52826L7.9985 6.52683C7.95958 6.48811 7.91335 6.45752 7.8625 6.43682C7.81166 6.41612 7.7572 6.40574 7.7023 6.40627C7.64741 6.4068 7.59316 6.41824 7.54273 6.43992C7.49229 6.46159 7.44666 6.49308 7.4085 6.53255L6.53136 7.40969C6.45303 7.48753 6.40852 7.59309 6.40745 7.70352C6.40638 7.81394 6.44884 7.92034 6.52564 7.99969L8.52564 10.0011L6.52564 12.0025C6.48692 12.0415 6.45633 12.0877 6.43563 12.1385C6.41493 12.1894 6.40455 12.2438 6.40508 12.2987C6.40561 12.3536 6.41705 12.4079 6.43873 12.4583C6.4604 12.5088 6.49189 12.5544 6.53136 12.5925L7.4085 13.4697C7.56993 13.6325 7.83707 13.6368 7.9985 13.4754L9.99993 11.4754L12.0014 13.4754C12.0403 13.5141 12.0865 13.5447 12.1374 13.5654C12.1882 13.5861 12.2427 13.5965 12.2976 13.596C12.3524 13.5954 12.4067 13.584 12.4571 13.5623C12.5076 13.5406 12.5532 13.5092 12.5914 13.4697L13.4685 12.5925C13.5468 12.5147 13.5913 12.4091 13.5924 12.2987C13.5935 12.1883 13.551 12.0819 13.4742 12.0025L11.4742 10.0011L13.4742 7.99969C13.5129 7.96077 13.5435 7.91454 13.5642 7.86369C13.5849 7.81285 13.5953 7.75839 13.5948 7.70349C13.5942 7.6486 13.5828 7.59435 13.5611 7.54392C13.5395 7.49348 13.508 7.44785 13.4685 7.40969L12.5914 6.53255C12.5135 6.45422 12.408 6.40971 12.2975 6.40864C12.1871 6.40757 12.0807 6.45003 12.0014 6.52683L9.99993 8.52683V8.52826Z" fill="#DD2B0E"/>
</svg>
