<svg width="20" height="20" viewBox="0 0 20 20" fill="none" xmlns="http://www.w3.org/2000/svg">
<path fill-rule="evenodd" clip-rule="evenodd" d="M0 10C0 7.34784 1.05357 4.8043 2.92893 2.92893C4.8043 1.05357 7.34784 0 10 0C12.6522 0 15.1957 1.05357 17.0711 2.92893C18.9464 4.8043 20 7.34784 20 10C20 12.6522 18.9464 15.1957 17.0711 17.0711C15.1957 18.9464 12.6522 20 10 20C7.34784 20 4.8043 18.9464 2.92893 17.0711C1.05357 15.1957 0 12.6522 0 10H0Z" fill="#09825D"/>
<path fill-rule="evenodd" clip-rule="evenodd" d="M18.5714 10.0011C18.5714 8.8755 18.3497 7.76091 17.919 6.72097C17.4882 5.68104 16.8569 4.73613 16.0609 3.9402C15.265 3.14427 14.3201 2.5129 13.2802 2.08215C12.2402 1.65139 11.1256 1.42969 10 1.42969C8.8744 1.42969 7.75981 1.65139 6.71987 2.08215C5.67994 2.5129 4.73503 3.14427 3.9391 3.9402C3.14317 4.73613 2.5118 5.68104 2.08105 6.72097C1.6503 7.76091 1.42859 8.8755 1.42859 10.0011C1.42859 12.2744 2.33165 14.4546 3.9391 16.062C5.54656 17.6695 7.72673 18.5725 10 18.5725C12.2733 18.5725 14.4535 17.6695 16.0609 16.062C17.6684 14.4546 18.5714 12.2744 18.5714 10.0011Z" fill="white"/>
<path fill-rule="evenodd" clip-rule="evenodd" d="M8.96852 10.9965L7.20709 9.23509C7.16798 9.19533 7.12139 9.16371 7.07 9.14204C7.01862 9.12037 6.96345 9.10907 6.90768 9.10881C6.85192 9.10854 6.79665 9.11931 6.74506 9.14049C6.69347 9.16167 6.64658 9.19285 6.60709 9.23223L5.73138 10.1094C5.65254 10.1895 5.6086 10.2976 5.60914 10.41C5.60967 10.5224 5.65464 10.63 5.73423 10.7094L8.4628 13.4365C8.59557 13.5696 8.77547 13.6451 8.96348 13.6464C9.15149 13.6477 9.33244 13.5749 9.46709 13.4437L9.84566 13.0651L14.2814 8.62937C14.3561 8.54995 14.3966 8.44434 14.3942 8.33531C14.3918 8.22628 14.3467 8.12256 14.2685 8.04652L13.3914 7.16937C13.3155 7.09087 13.2117 7.04548 13.1026 7.04307C12.9934 7.04066 12.8878 7.08143 12.8085 7.15652L8.96852 10.9965Z" fill="#09825D"/>
</svg>
