<svg width="20" height="20" viewBox="0 0 20 20" fill="none" xmlns="http://www.w3.org/2000/svg">
<path d="M5.53545 8.28462C5.24615 8.13997 4.89408 8.25719 4.74936 8.54665L3.94104 10.1633L3.344 9.56625C3.11522 9.33743 2.7442 9.33743 2.51537 9.56625C2.28654 9.79508 2.28654 10.1661 2.51537 10.3949L3.68725 11.5668C3.97049 11.85 4.44721 11.7713 4.62561 11.4145L5.79748 9.07075C5.94221 8.78133 5.8249 8.42934 5.53545 8.28462Z" fill="#5B44BA"/>
<path d="M5.53545 12.9721C5.24615 12.8275 4.89408 12.9447 4.74936 13.2341L3.94104 14.8508L3.344 14.2538C3.11522 14.0249 2.7442 14.0249 2.51537 14.2538C2.28654 14.4826 2.28654 14.8536 2.51537 15.0824L3.68725 16.2543C3.9699 16.537 4.44686 16.4595 4.62561 16.102L5.79748 13.7583C5.94221 13.4688 5.8249 13.1168 5.53545 12.9721Z" fill="#5B44BA"/>
<path d="M12.3047 8.22266H8.78906C8.46547 8.22266 8.20312 8.485 8.20312 8.80859C8.20312 9.13219 8.46547 9.39453 8.78906 9.39453H12.3047C12.6283 9.39453 12.8906 9.13219 12.8906 8.80859C12.8906 8.485 12.6283 8.22266 12.3047 8.22266Z" fill="#5B44BA"/>
<path d="M12.3047 10.5664H7.61719C7.29359 10.5664 7.03125 10.8287 7.03125 11.1523C7.03125 11.4759 7.29359 11.7383 7.61719 11.7383H12.3047C12.6283 11.7383 12.8906 11.4759 12.8906 11.1523C12.8906 10.8287 12.6283 10.5664 12.3047 10.5664Z" fill="#5B44BA"/>
<path d="M12.3047 12.9102H8.78906C8.46547 12.9102 8.20312 13.1725 8.20312 13.4961C8.20312 13.8197 8.46547 14.082 8.78906 14.082H12.3047C12.6283 14.082 12.8906 13.8197 12.8906 13.4961C12.8906 13.1725 12.6283 12.9102 12.3047 12.9102Z" fill="#5B44BA"/>
<path d="M12.3047 15.2539H7.61719C7.29359 15.2539 7.03125 15.5162 7.03125 15.8398C7.03125 16.1634 7.29359 16.4258 7.61719 16.4258H12.3047C12.6283 16.4258 12.8906 16.1634 12.8906 15.8398C12.8906 15.5162 12.6283 15.2539 12.3047 15.2539Z" fill="#5B44BA"/>
<path d="M13.4766 3.53516H12.7898C12.548 2.85316 11.8967 2.36328 11.1328 2.36328H10.488C10.2157 1.0277 9.03199 0.0195312 7.61719 0.0195312C6.20238 0.0195312 5.01863 1.0277 4.74637 2.36328H4.10156C3.3377 2.36328 2.68641 2.85316 2.44453 3.53516H1.75781C0.788555 3.53516 0 4.32371 0 5.29297V18.2227C0 19.1919 0.788555 19.9805 1.75781 19.9805H13.4766C14.4458 19.9805 15.2344 19.1919 15.2344 18.2227V5.29297C15.2344 4.32371 14.4458 3.53516 13.4766 3.53516ZM3.51562 4.12109C3.51562 3.79801 3.77848 3.53516 4.10156 3.53516H5.27344C5.59703 3.53516 5.85938 3.27281 5.85938 2.94922C5.85938 1.97996 6.64793 1.19141 7.61719 1.19141C8.58644 1.19141 9.375 1.97996 9.375 2.94922C9.375 3.27281 9.63734 3.53516 9.96094 3.53516H11.1328C11.4559 3.53516 11.7188 3.79801 11.7188 4.12109V4.70703H3.51562V4.12109ZM14.0625 18.2227C14.0625 18.5457 13.7996 18.8086 13.4766 18.8086H1.75781C1.43473 18.8086 1.17188 18.5457 1.17188 18.2227V5.29297C1.17188 4.96988 1.43473 4.70703 1.75781 4.70703H2.34375V5.29297C2.34375 5.61656 2.60609 5.87891 2.92969 5.87891H12.3047C12.6283 5.87891 12.8906 5.61656 12.8906 5.29297V4.70703H13.4766C13.7996 4.70703 14.0625 4.96988 14.0625 5.29297V18.2227Z" fill="#5B44BA"/>
<path d="M19.9381 6.20218L18.7662 3.85843C18.5505 3.42691 17.9333 3.42789 17.7181 3.85843L16.5463 6.20218C16.5055 6.28355 16.4844 6.37328 16.4844 6.46421V18.222C16.4844 19.1913 17.2729 19.9798 18.2422 19.9798C19.2114 19.9798 20 19.1913 20 18.222V6.46421C20 6.37324 19.9788 6.28355 19.9381 6.20218ZM18.8281 18.222C18.8281 18.5451 18.5653 18.808 18.2422 18.808C17.9191 18.808 17.6562 18.5451 17.6562 18.222V16.4252H18.8281V18.222ZM18.8281 15.2533H17.6562V6.60253L18.2422 5.43066L18.8281 6.60253V15.2533Z" fill="#5B44BA"/>
<path d="M7.61719 3.53516C7.94079 3.53516 8.20312 3.27282 8.20312 2.94922C8.20312 2.62561 7.94079 2.36328 7.61719 2.36328C7.29358 2.36328 7.03125 2.62561 7.03125 2.94922C7.03125 3.27282 7.29358 3.53516 7.61719 3.53516Z" fill="#5B44BA"/>
</svg>
