<svg width="16" height="16" viewBox="0 0 16 16" fill="none" xmlns="http://www.w3.org/2000/svg">
<path d="M11.0104 6.23218H14.0104V3.23218" stroke="#5B44BA" stroke-width="0.78" stroke-linecap="round" stroke-linejoin="round"/>
<path d="M4.1109 4.11091C4.62162 3.60019 5.22794 3.19506 5.89523 2.91866C6.56252 2.64226 7.27772 2.5 7.99999 2.5C8.72226 2.5 9.43746 2.64226 10.1047 2.91866C10.772 3.19506 11.3784 3.60019 11.8891 4.11091L14.0104 6.23223" stroke="#5B44BA" stroke-width="0.78" stroke-linecap="round" stroke-linejoin="round"/>
<path d="M4.98956 9.76782H1.98956V12.7678" stroke="#5B44BA" stroke-width="0.78" stroke-linecap="round" stroke-linejoin="round"/>
<path d="M11.8891 11.8891C11.3783 12.3999 10.772 12.805 10.1047 13.0814C9.43744 13.3578 8.72224 13.5001 7.99997 13.5001C7.2777 13.5001 6.5625 13.3578 5.89521 13.0814C5.22792 12.805 4.6216 12.3999 4.11088 11.8891L1.98956 9.76782" stroke="#5B44BA" stroke-width="0.78" stroke-linecap="round" stroke-linejoin="round"/>
</svg>
