<svg width="112" height="94" viewBox="0 0 112 94" fill="none" xmlns="http://www.w3.org/2000/svg">
<path d="M105.859 7.10605C101.92 3.16485 96.5765 0.951306 91.005 0.953183C85.4356 0.940045 80.0919 3.15288 76.1622 7.09925L49.0472 34.2145C43.6824 39.5877 41.6314 47.4361 43.6819 54.747C44.2823 56.8754 46.4944 58.1141 48.6228 57.5138C50.7512 56.9134 51.9899 54.7013 51.3895 52.5729C50.1255 48.0517 51.3938 43.2003 54.7088 39.8763L81.8238 12.7651C86.8932 7.69445 95.1135 7.69351 100.184 12.7632C105.255 17.8326 105.256 26.0529 100.186 31.1235L73.0712 58.2385C71.2943 60.0178 69.0376 61.2408 66.5767 61.7581C64.4118 62.2088 63.0222 64.3292 63.4729 66.4942C63.8604 68.3558 65.5039 69.6879 67.4054 69.682C67.6853 69.6823 67.9645 69.6527 68.2382 69.5941C72.2151 68.7553 75.8616 66.7771 78.7328 63.9003L105.848 36.7893C114.048 28.5953 114.052 15.3059 105.859 7.10605Z" fill="black"/>
<path d="M68.2016 39.3631C67.6013 37.2348 65.3891 35.996 63.2608 36.5964C61.1324 37.1968 59.8936 39.4089 60.494 41.5373C61.7581 46.0584 60.4898 50.9099 57.1748 54.2339L30.0595 81.3491C24.9901 86.4197 16.7698 86.4206 11.6992 81.351C6.6286 76.2815 6.62766 68.0613 11.6971 62.9907L38.8123 35.8714C40.5864 34.0926 42.8406 32.8696 45.2988 32.3518C47.4673 31.918 48.8736 29.8087 48.4398 27.6404C48.006 25.4721 45.8966 24.0657 43.7283 24.4995C43.7018 24.5048 43.6756 24.5102 43.6493 24.5161C39.6717 25.3558 36.024 27.334 33.1507 30.2098L6.03551 57.3251C-2.09981 65.5859 -1.99799 78.8775 6.26285 87.0128C14.4336 95.0592 27.5492 95.0601 35.7211 87.0147L62.8361 59.8955C68.2012 54.5222 70.2521 46.6738 68.2016 39.3631Z" fill="black"/>
</svg>
