<svg width="15" height="13" viewBox="0 0 15 13" fill="none" xmlns="http://www.w3.org/2000/svg">
<path d="M14.1775 1.15706C13.65 0.629221 12.9344 0.332764 12.1882 0.333016C11.4423 0.331256 10.7266 0.627618 10.2003 1.15615L6.56882 4.78765C5.85032 5.50729 5.57564 6.55841 5.85026 7.53755C5.93066 7.8226 6.22693 7.9885 6.51198 7.9081C6.79703 7.82769 6.96293 7.53142 6.88253 7.24637C6.71323 6.64086 6.88309 5.99111 7.32707 5.54593L10.9585 1.91496C11.6375 1.23586 12.7384 1.23574 13.4175 1.91471C14.0966 2.59366 14.0967 3.69458 13.4178 4.37368L9.78632 8.00515C9.54834 8.24345 9.2461 8.40725 8.91653 8.47653C8.62658 8.53689 8.44047 8.82087 8.50083 9.11083C8.55274 9.36015 8.77284 9.53856 9.02751 9.53777C9.06499 9.5378 9.10238 9.53385 9.13905 9.52599C9.67167 9.41366 10.16 9.14872 10.5446 8.76344L14.1761 5.1325C15.2742 4.03509 15.2749 2.25525 14.1775 1.15706Z" fill="#777777"/>
<path d="M9.13415 5.47721C9.05374 5.19216 8.75747 5.02625 8.47242 5.10666C8.18737 5.18707 8.02147 5.48333 8.10188 5.76838C8.27117 6.3739 8.10131 7.02365 7.65733 7.46882L4.02583 11.1003C3.34689 11.7794 2.24596 11.7796 1.56686 11.1006C0.887759 10.4216 0.887633 9.32071 1.56658 8.64161L5.19808 5.00957C5.43569 4.77134 5.73758 4.60754 6.06681 4.53819C6.35723 4.48009 6.54557 4.19759 6.48747 3.9072C6.42937 3.61681 6.14687 3.42844 5.85647 3.48653C5.85292 3.48726 5.84941 3.48798 5.84589 3.48876C5.31318 3.60122 4.82464 3.86616 4.43983 4.25132L0.808327 7.88282C-0.281225 8.98918 -0.267588 10.7693 0.838774 11.8589C1.93307 12.9365 3.68963 12.9366 4.78408 11.8591L8.41555 8.22707C9.13409 7.50744 9.40877 6.45631 9.13415 5.47721Z" fill="#777777"/>
</svg>
