<svg width="20" height="20" viewBox="0 0 20 20" fill="none" xmlns="http://www.w3.org/2000/svg">
<path d="M17.4571 16.5767L14.9791 14.0999C15.8151 13.1007 16.3236 11.8872 16.449 10.5918H18.0336C18.3574 10.5918 18.62 10.3294 18.62 10.0057C18.62 9.68203 18.3574 9.41961 18.0336 9.41961H16.4573C16.3485 8.08758 15.8361 6.83801 14.979 5.81367L17.4051 3.38879C17.6518 3.51328 17.9259 3.57961 18.2103 3.57961C18.6883 3.57961 19.1378 3.39355 19.4758 3.05566C19.8138 2.71781 20 2.26859 20 1.79074C20 1.31289 19.8139 0.863711 19.4758 0.525859C19.1378 0.187969 18.6883 0.001875 18.2103 0.001875C17.7322 0.001875 17.2828 0.18793 16.9447 0.52582C16.6067 0.863672 16.4205 1.31289 16.4205 1.79074C16.4205 2.0568 16.4784 2.31391 16.5879 2.54789L14.1495 4.98504C13.1119 4.11953 11.8651 3.62934 10.5903 3.51457V1.93176C10.5903 1.60809 10.3277 1.34566 10.0039 1.34566C9.68008 1.34566 9.41752 1.60809 9.41752 1.93176V3.51469C8.14318 3.62965 6.8969 4.11984 5.85963 4.985L3.41439 2.54094C3.52237 2.30824 3.57951 2.05301 3.57951 1.78887C3.57951 1.31105 3.39336 0.861836 3.05531 0.523945C2.71725 0.186055 2.26777 0 1.78972 0C1.31167 0 0.862225 0.186055 0.524244 0.523945C0.186186 0.861797 0 1.31102 0 1.78883C0 2.26664 0.186186 2.71586 0.524244 3.05375C0.862225 3.3916 1.31171 3.5777 1.78976 3.5777C2.07603 3.5777 2.35179 3.51051 2.59981 3.38445L5.03046 5.81391C4.15362 6.86406 3.66186 8.12867 3.55528 9.41961H1.91681C1.59298 9.41961 1.33043 9.68203 1.33043 10.0057C1.33043 10.3294 1.59298 10.5918 1.91681 10.5918H3.56368C3.68659 11.8487 4.1757 13.076 5.03039 14.0996L2.54193 16.5869C2.30939 16.4792 2.05434 16.4223 1.79046 16.4223C1.31241 16.4223 0.862967 16.6083 0.524948 16.9462C0.186929 17.2841 0.000742556 17.7333 0.000742556 18.2111C0.000742556 18.6889 0.18689 19.1382 0.524948 19.4761C0.862928 19.8139 1.31241 20 1.79046 20C2.26851 20 2.71795 19.8139 3.05601 19.4761C3.39407 19.1382 3.58025 18.689 3.58025 18.2111C3.58025 17.9246 3.51288 17.6487 3.38641 17.4005L5.85966 14.9285C6.89694 15.7938 8.1431 16.284 9.41756 16.3989V18.0014C9.41756 18.3251 9.68012 18.5875 10.0039 18.5875C10.3278 18.5875 10.5903 18.3251 10.5903 18.0014V16.3989C11.865 16.284 13.112 15.7938 14.1496 14.9285L16.6137 17.3914C16.2742 18.0626 16.3841 18.9045 16.9445 19.4645C17.2934 19.8133 17.7516 19.9877 18.21 19.9877C18.6683 19.9877 19.1267 19.8132 19.4756 19.4645C19.8136 19.1267 19.9998 18.6775 19.9998 18.1996C19.9998 17.7218 19.8137 17.2727 19.4756 16.9347C18.9307 16.3902 18.1189 16.2708 17.4571 16.5767ZM17.774 1.35469C17.8906 1.2382 18.0455 1.17406 18.2103 1.17406C18.3751 1.17406 18.53 1.2382 18.6465 1.35465L18.6465 1.35469C18.763 1.47113 18.8272 1.62602 18.8272 1.7907C18.8272 1.95543 18.763 2.11027 18.6465 2.22676C18.53 2.3432 18.3751 2.40734 18.2103 2.40734C18.0455 2.40734 17.8906 2.3432 17.774 2.22676C17.6575 2.11027 17.5933 1.95543 17.5933 1.7907C17.5933 1.62602 17.6575 1.47117 17.774 1.35469ZM2.22599 2.22488C2.10948 2.34137 1.95452 2.40551 1.78972 2.40551C1.62495 2.40547 1.46999 2.34137 1.35348 2.22488C1.23698 2.1084 1.17277 1.95355 1.17277 1.78883C1.17277 1.62414 1.23698 1.46926 1.35352 1.35277C1.47003 1.23633 1.62495 1.17219 1.78972 1.17219C1.95452 1.17219 2.10945 1.23633 2.22599 1.35281C2.34249 1.46926 2.40666 1.62414 2.40666 1.78883C2.4067 1.95359 2.34249 2.10844 2.22599 2.22488ZM2.22673 18.6472C2.11019 18.7637 1.95527 18.8278 1.79046 18.8278C1.62569 18.8278 1.47073 18.7637 1.35423 18.6472C1.23772 18.5307 1.17355 18.3759 1.17355 18.2112C1.17355 18.0465 1.23772 17.8916 1.35427 17.7751C1.47077 17.6587 1.62569 17.5945 1.79046 17.5945C1.95527 17.5945 2.11019 17.6587 2.22673 17.7752C2.34323 17.8916 2.40744 18.0465 2.40744 18.2112C2.40748 18.3759 2.34323 18.5307 2.22673 18.6472ZM10.0046 4.65961C11.1783 4.65961 12.3518 5.04598 13.3162 5.81797L11.1944 7.93875C10.463 7.50816 9.54622 7.50816 8.81488 7.93875L6.69301 5.81797C7.65735 5.04598 8.83087 4.65961 10.0046 4.65961ZM10.8323 10.784C10.6112 11.005 10.3172 11.1267 10.0046 11.1267C9.69196 11.1267 9.39798 11.005 9.1769 10.7841C8.72054 10.3279 8.72054 9.5857 9.1769 9.12957C9.40514 8.90145 9.70482 8.78746 10.0046 8.78746C10.3043 8.78746 10.6041 8.90152 10.8323 9.12953C11.2886 9.58566 11.2886 10.3279 10.8323 10.784ZM5.86373 6.64684L7.98556 8.76762C7.55476 9.49859 7.55476 10.415 7.98556 11.146L5.86373 13.2668C4.31894 11.339 4.31894 8.57461 5.86373 6.64684ZM6.69297 14.0956L8.81449 11.9751C9.17123 12.1861 9.57917 12.2989 10.0046 12.2989C10.4299 12.2989 10.8379 12.1861 11.1946 11.9752L13.3161 14.0956C11.3874 15.6396 8.62174 15.6396 6.69297 14.0956ZM14.1457 13.267L12.0236 11.1459C12.4544 10.415 12.4544 9.49859 12.0236 8.76758L14.1457 6.64652C14.898 7.58305 15.3069 8.7384 15.3069 9.95672C15.3069 11.1751 14.898 12.3305 14.1457 13.267ZM18.6463 18.6357C18.4058 18.8762 18.0144 18.8762 17.7737 18.6357C17.5332 18.3953 17.5332 18.0041 17.7737 17.7637C17.894 17.6434 18.052 17.5834 18.21 17.5834C18.368 17.5834 18.526 17.6435 18.6463 17.7637C18.7628 17.8802 18.827 18.035 18.827 18.1997C18.827 18.3644 18.7628 18.5193 18.6463 18.6357Z" fill="#5B44BA"/>
</svg>
