<svg width="20" height="20" viewBox="0 0 20 20" fill="none" xmlns="http://www.w3.org/2000/svg">
<path d="M17.0703 10.4755H15.1126C14.8461 10.4755 14.5882 10.5119 14.3427 10.5788C13.8584 9.6268 12.8696 8.97266 11.7303 8.97266H8.26973C7.13039 8.97266 6.14164 9.6268 5.65734 10.5788C5.41184 10.5119 5.15387 10.4755 4.88742 10.4755H2.92969C1.31426 10.4755 0 11.7897 0 13.4052V16.5348C0 17.504 0.788555 18.2926 1.75781 18.2926H18.2422C19.2114 18.2926 20 17.504 20 16.5348V13.4052C20 11.7897 18.6857 10.4755 17.0703 10.4755ZM5.34004 11.9024V17.1207H1.75781C1.43473 17.1207 1.17188 16.8579 1.17188 16.5348V13.4052C1.17188 12.4359 1.96043 11.6474 2.92969 11.6474H4.88742C5.04648 11.6474 5.20051 11.669 5.34715 11.7088C5.34293 11.7729 5.34004 11.8373 5.34004 11.9024ZM13.4881 17.1207H6.51191V11.9024C6.51191 10.9331 7.30047 10.1446 8.26973 10.1446H11.7303C12.6995 10.1446 13.4881 10.9331 13.4881 11.9024V17.1207ZM18.8281 16.5348C18.8281 16.8579 18.5653 17.1207 18.2422 17.1207H14.66V11.9024C14.66 11.8373 14.6571 11.7728 14.6529 11.7088C14.7995 11.669 14.9535 11.6473 15.1126 11.6473H17.0703C18.0396 11.6473 18.8281 12.4359 18.8281 13.4052V16.5348Z" fill="#5B44BA"/>
<path d="M3.9086 4.94141C2.47309 4.94141 1.30524 6.10926 1.30524 7.54477C1.3052 8.98027 2.47309 10.1481 3.9086 10.1481C5.34406 10.1481 6.51196 8.98027 6.51196 7.54477C6.51196 6.10926 5.3441 4.94141 3.9086 4.94141ZM3.90856 8.97625C3.11922 8.97625 2.47707 8.3341 2.47707 7.54477C2.47707 6.75543 3.11922 6.11328 3.90856 6.11328C4.69789 6.11328 5.34004 6.75543 5.34004 7.54477C5.34004 8.3341 4.69789 8.97625 3.90856 8.97625Z" fill="#5B44BA"/>
<path d="M10 1.70898C8.08221 1.70898 6.52197 3.26922 6.52197 5.18703C6.52197 7.10484 8.08221 8.66508 10 8.66508C11.9178 8.66508 13.4781 7.10484 13.4781 5.18703C13.4781 3.26926 11.9178 1.70898 10 1.70898ZM10 7.4932C8.72838 7.4932 7.69385 6.45867 7.69385 5.18703C7.69385 3.91543 8.72838 2.88086 10 2.88086C11.2717 2.88086 12.3062 3.91539 12.3062 5.18703C12.3062 6.45867 11.2717 7.4932 10 7.4932Z" fill="#5B44BA"/>
<path d="M16.0914 4.94141C14.6559 4.94141 13.488 6.10926 13.488 7.54477C13.4881 8.98027 14.6559 10.1481 16.0914 10.1481C17.5269 10.1481 18.6948 8.98027 18.6948 7.54477C18.6948 6.10926 17.5269 4.94141 16.0914 4.94141ZM16.0914 8.97625C15.3021 8.97625 14.6599 8.3341 14.6599 7.54477C14.66 6.75543 15.3021 6.11328 16.0914 6.11328C16.8807 6.11328 17.5229 6.75543 17.5229 7.54477C17.5229 8.3341 16.8807 8.97625 16.0914 8.97625Z" fill="#5B44BA"/>
</svg>
