<svg width="83" height="82" viewBox="0 0 83 82" fill="none" xmlns="http://www.w3.org/2000/svg">
<path d="M74.9238 57.9766C73.9228 57.9766 73.1113 57.1651 73.1113 56.1641V40.5703C73.1113 39.5693 72.2998 38.7578 71.2988 38.7578H45.7441C44.7431 38.7578 43.9316 37.9463 43.9316 36.9453V26.1562C43.9316 25.1552 44.7431 24.3438 45.7441 24.3438H51.8457C52.8467 24.3438 53.6582 23.5323 53.6582 22.5312V1.8125C53.6582 0.811484 52.8467 0 51.8457 0H31.1543C30.1533 0 29.3418 0.811484 29.3418 1.8125V22.5312C29.3418 23.5323 30.1533 24.3438 31.1543 24.3438H37.2559C38.2569 24.3438 39.0684 25.1552 39.0684 26.1562V36.9453C39.0684 37.9463 38.2569 38.7578 37.2559 38.7578H11.7012C10.7002 38.7578 9.88867 39.5693 9.88867 40.5703V56.1641C9.88867 57.1651 9.07719 57.9766 8.07617 57.9766H1.8125C0.811484 57.9766 0 58.788 0 59.7891V80.1875C0 81.1885 0.811484 82 1.8125 82H22.666C23.667 82 24.4785 81.1885 24.4785 80.1875V59.7891C24.4785 58.788 23.667 57.9766 22.666 57.9766H16.5645C15.5634 57.9766 14.752 57.1651 14.752 56.1641V45.375C14.752 44.374 15.5634 43.5625 16.5645 43.5625H37.2559C38.2569 43.5625 39.0684 44.374 39.0684 45.375V56.1641C39.0684 57.1651 38.2569 57.9766 37.2559 57.9766H31.1543C30.1533 57.9766 29.3418 58.788 29.3418 59.7891V80.1875C29.3418 81.1885 30.1533 82 31.1543 82H51.8457C52.8467 82 53.6582 81.1885 53.6582 80.1875V59.7891C53.6582 58.788 52.8467 57.9766 51.8457 57.9766H45.7441C44.7431 57.9766 43.9316 57.1651 43.9316 56.1641V45.375C43.9316 44.374 44.7431 43.5625 45.7441 43.5625H66.4355C67.4366 43.5625 68.248 44.374 68.248 45.375V56.1641C68.248 57.1651 67.4366 57.9766 66.4355 57.9766H60.334C59.333 57.9766 58.5215 58.788 58.5215 59.7891V80.1875C58.5215 81.1885 59.333 82 60.334 82H81.1875C82.1885 82 83 81.1885 83 80.1875V59.7891C83 58.788 82.1885 57.9766 81.1875 57.9766H74.9238ZM34.2051 6.61719C34.2051 5.61617 35.0166 4.80469 36.0176 4.80469H46.9824C47.9834 4.80469 48.7949 5.61617 48.7949 6.61719V17.7266C48.7949 18.7276 47.9834 19.5391 46.9824 19.5391H36.0176C35.0166 19.5391 34.2051 18.7276 34.2051 17.7266V6.61719ZM19.6152 75.3828C19.6152 76.3838 18.8038 77.1953 17.8027 77.1953H6.67578C5.67477 77.1953 4.86328 76.3838 4.86328 75.3828V64.5938C4.86328 63.5927 5.67477 62.7812 6.67578 62.7812H17.8027C18.8038 62.7812 19.6152 63.5927 19.6152 64.5938V75.3828ZM48.7949 75.3828C48.7949 76.3838 47.9834 77.1953 46.9824 77.1953H36.0176C35.0166 77.1953 34.2051 76.3838 34.2051 75.3828V64.5938C34.2051 63.5927 35.0166 62.7812 36.0176 62.7812H46.9824C47.9834 62.7812 48.7949 63.5927 48.7949 64.5938V75.3828ZM78.1367 75.3828C78.1367 76.3838 77.3252 77.1953 76.3242 77.1953H65.1973C64.1963 77.1953 63.3848 76.3838 63.3848 75.3828V64.5938C63.3848 63.5927 64.1963 62.7812 65.1973 62.7812H76.3242C77.3252 62.7812 78.1367 63.5927 78.1367 64.5938V75.3828Z" fill="url(#paint0_radial)" fill-opacity="0.3"/>
<defs>
<radialGradient id="paint0_radial" cx="0" cy="0" r="1" gradientUnits="userSpaceOnUse" gradientTransform="translate(48.369 30.4437) rotate(118.34) scale(58.6841 59.0791)">
<stop stop-color="#5B44BA"/>
<stop offset="1" stop-color="#5B44BA" stop-opacity="0"/>
</radialGradient>
</defs>
</svg>
