<svg width="39" height="38" viewBox="0 0 39 38" fill="none" xmlns="http://www.w3.org/2000/svg">
<rect x="0.970215" width="37.9694" height="38" fill="#5B44BA"/>
<g clip-path="url(#clip0)">
<rect x="20.3857" y="26.1777" width="9.79495" height="1.48408" rx="0.742042" fill="white"/>
<path d="M10.4834 28.053C10.1742 27.7435 10.1742 27.2433 10.4834 26.9338L18.6237 18.7869L10.4834 10.6401C10.1742 10.3306 10.1742 9.83038 10.4834 9.52091C10.7926 9.21145 11.2924 9.21145 11.6016 9.52091L20.3011 18.2274C20.4553 18.3817 20.5328 18.5843 20.5328 18.787C20.5328 18.9896 20.4553 19.1922 20.3011 19.3466L11.6016 28.053C11.2924 28.3625 10.7926 28.3625 10.4834 28.053Z" fill="white"/>
</g>
<defs>
<clipPath id="clip0">
<rect width="21.9379" height="21.9556" fill="white" transform="translate(8.56396 8.44434)"/>
</clipPath>
</defs>
</svg>
