<svg width="32" height="32" viewBox="0 0 32 32" fill="none" xmlns="http://www.w3.org/2000/svg">
<path d="M16.02 0C7.48198 0 0.559082 7.16429 0.559082 16C0.559082 24.8357 7.48198 32 16.02 32C24.558 32 31.4809 24.8357 31.4809 16C31.4809 7.16429 24.558 0 16.02 0ZM23.4502 12.0607C23.4606 12.2286 23.4606 12.4036 23.4606 12.575C23.4606 17.8179 19.6022 23.8571 12.5516 23.8571C10.3775 23.8571 8.36201 23.2036 6.66407 22.0786C6.97467 22.1143 7.27147 22.1286 7.58897 22.1286C9.38354 22.1286 11.0332 21.5 12.348 20.4357C10.6639 20.4 9.24894 19.2571 8.76579 17.6857C9.35593 17.775 9.8874 17.775 10.4948 17.6143C9.62762 17.432 8.84818 16.9446 8.2889 16.2349C7.72962 15.5253 7.42499 14.6372 7.42676 13.7214V13.6714C7.93408 13.9679 8.53112 14.15 9.15576 14.175C8.63065 13.8128 8.20001 13.3222 7.90202 12.7465C7.60403 12.1709 7.4479 11.528 7.44747 10.875C7.44747 10.1357 7.63383 9.46071 7.96859 8.875C8.93111 10.1012 10.1322 11.1041 11.4938 11.8184C12.8553 12.5328 14.3469 12.9427 15.8716 13.0214C15.3298 10.325 17.2762 8.14286 19.616 8.14286C20.7204 8.14286 21.7143 8.62143 22.4149 9.39286C23.2811 9.225 24.1094 8.88929 24.8479 8.43929C24.5615 9.35714 23.961 10.1321 23.1638 10.6214C23.9368 10.5357 24.6822 10.3143 25.3725 10.0036C24.8514 10.7964 24.1991 11.5 23.4502 12.0607Z" fill="#55ACEE"/>
</svg>
