<svg width="59" height="45" viewBox="0 0 59 45" fill="none" xmlns="http://www.w3.org/2000/svg">
<path fill-rule="evenodd" clip-rule="evenodd" d="M13.403 10.6179C15.6259 5.62333 21.1938 0.898926 29.5 0.898926C38.4366 0.898926 46.0531 6.44059 47.723 15.4085C50.081 15.7301 52.5497 16.5532 54.5826 17.9294C57.1092 19.6399 59 22.2463 59 25.7265C59 29.1009 57.4412 31.7854 54.9034 33.5849C52.4157 35.3488 49.1049 36.1869 45.6328 36.1869H36.875C35.8567 36.1869 35.0312 35.4346 35.0312 34.5065C35.0312 33.5785 35.8567 32.8261 36.875 32.8261H45.6328C48.4986 32.8261 50.9495 32.1304 52.6391 30.9324C54.2785 29.7699 55.3125 28.0644 55.3125 25.7265C55.3125 23.4945 54.1496 21.8228 52.3837 20.6273C50.5724 19.401 48.1717 18.7228 46.0025 18.6249C45.0943 18.5839 44.3545 17.9455 44.26 17.1212C43.3311 9.02085 36.9431 4.25969 29.5 4.25969C22.4717 4.25969 17.9781 8.48543 16.5057 12.6705C16.2805 13.3106 15.6585 13.7668 14.9244 13.8303C8.57086 14.3804 3.6875 17.9453 3.6875 23.332C3.6875 28.7473 8.82179 32.8261 15.6719 32.8261H22.125C23.1433 32.8261 23.9688 33.5785 23.9688 34.5065C23.9688 35.4346 23.1433 36.1869 22.125 36.1869H15.6719C7.31102 36.1869 0 31.0488 0 23.332C0 15.993 6.37534 11.6084 13.403 10.6179Z" fill="#858CDD"/>
<path fill-rule="evenodd" clip-rule="evenodd" d="M28.1963 14.8345C28.9163 14.1782 30.0837 14.1782 30.8037 14.8345L38.1787 21.556C38.8988 22.2122 38.8988 23.2762 38.1787 23.9324C37.4587 24.5886 36.2913 24.5886 35.5713 23.9324L29.5 18.3991L23.4287 23.9324C22.7087 24.5886 21.5413 24.5886 20.8213 23.9324C20.1012 23.2762 20.1012 22.2122 20.8213 21.556L28.1963 14.8345Z" fill="#858CDD"/>
<path fill-rule="evenodd" clip-rule="evenodd" d="M29.5 16.0225C30.5183 16.0225 31.3438 16.7748 31.3438 17.7028V42.9526C31.3438 43.8807 30.5183 44.633 29.5 44.633C28.4817 44.633 27.6562 43.8807 27.6562 42.9526V17.7028C27.6562 16.7748 28.4817 16.0225 29.5 16.0225Z" fill="#858CDD"/>
</svg>
