<svg width="89" height="89" viewBox="0 0 89 89" fill="none" xmlns="http://www.w3.org/2000/svg">
<circle cx="44.5" cy="44.5" r="44.5" fill="white"/>
<path d="M48.6049 70.0001V55.2411H59.6741L44.9152 36.7925L30.1562 55.2411H41.2254V70.0001H48.6049Z" fill="#858CDD"/>
<path d="M26.4662 70H33.8457V62.6205H26.4662C20.3634 62.6205 15.397 57.6542 15.397 51.5513C15.397 46.371 19.821 41.3824 25.2597 40.4268L27.4034 40.0504L28.1119 37.9916C30.7057 30.4239 37.148 25.7232 44.9149 25.7232C55.0875 25.7232 63.3636 33.9993 63.3636 44.1719V47.8616H67.0533C71.1231 47.8616 74.4328 51.1713 74.4328 55.2411C74.4328 59.3108 71.1231 62.6205 67.0533 62.6205H55.9841V70H67.0533C75.1928 70 81.8122 63.3806 81.8122 55.2411C81.8122 48.3044 76.9971 42.4672 70.5364 40.8954C68.924 28.1953 58.0503 18.3438 44.9149 18.3438C34.746 18.3438 25.9128 24.2879 21.8799 33.6561C13.9544 36.0249 8.01758 43.5077 8.01758 51.5513C8.01758 61.7239 16.2936 70 26.4662 70Z" fill="#858CDD"/>
</svg>
