<svg width="78" height="64" viewBox="0 0 78 64" fill="none" xmlns="http://www.w3.org/2000/svg">
<path fill-rule="evenodd" clip-rule="evenodd" d="M18.1138 14.3014C21.0269 7.11955 28.3237 0.326172 39.2092 0.326172C50.9208 0.326172 60.9024 8.29471 63.0908 21.1899C66.181 21.6524 69.4164 22.8359 72.0804 24.8148C75.3916 27.2745 77.8695 31.0223 77.8695 36.0266C77.8695 40.8787 75.8267 44.7389 72.5009 47.3264C69.2407 49.8627 64.9018 51.0679 60.3516 51.0679H48.8743C47.5398 51.0679 46.458 49.9861 46.458 48.6516C46.458 47.3172 47.5398 46.2353 48.8743 46.2353H60.3516C64.1073 46.2353 67.3192 45.2349 69.5334 43.5122C71.682 41.8407 73.037 39.3883 73.037 36.0266C73.037 32.8171 71.513 30.4132 69.1988 28.6942C66.825 26.9309 63.6788 25.9557 60.8361 25.8149C59.6459 25.7559 58.6763 24.838 58.5525 23.6527C57.3351 12.0049 48.9635 5.15872 39.2092 5.15872C29.9984 5.15872 24.1094 11.235 22.1799 17.2529C21.8848 18.1733 21.0697 18.8292 20.1075 18.9206C11.7811 19.7116 5.38137 24.8377 5.38137 32.5834C5.38137 40.3703 12.11 46.2353 21.0871 46.2353H29.5441C30.8786 46.2353 31.9604 47.3172 31.9604 48.6516C31.9604 49.9861 30.8786 51.0679 29.5441 51.0679H21.0871C10.1301 51.0679 0.548828 43.6797 0.548828 32.5834C0.548828 22.0304 8.90384 15.7256 18.1138 14.3014Z" fill="#858CDD"/>
<path fill-rule="evenodd" clip-rule="evenodd" d="M37.4998 20.364C38.4434 19.4203 39.9733 19.4203 40.9169 20.364L50.582 30.029C51.5256 30.9727 51.5256 32.5026 50.582 33.4462C49.6384 34.3898 48.1085 34.3898 47.1648 33.4462L39.2083 25.4896L31.2518 33.4462C30.3082 34.3898 28.7783 34.3898 27.8347 33.4462C26.891 32.5026 26.891 30.9727 27.8347 30.029L37.4998 20.364Z" fill="#858CDD"/>
<path fill-rule="evenodd" clip-rule="evenodd" d="M39.2092 22.0723C40.5437 22.0723 41.6255 23.1541 41.6255 24.4885V60.796C41.6255 62.1305 40.5437 63.2123 39.2092 63.2123C37.8748 63.2123 36.793 62.1305 36.793 60.796V24.4885C36.793 23.1541 37.8748 22.0723 39.2092 22.0723Z" fill="#858CDD"/>
</svg>
