<svg width="16" height="16" viewBox="0 0 16 16" fill="none" xmlns="http://www.w3.org/2000/svg">
<path d="M13.3334 11.4469L11.0868 9.19353C11.5134 9.3402 11.9068 9.51354 12.2668 9.7002C12.9134 10.0402 13.3201 10.7135 13.3334 11.4469ZM14.1268 14.1269L13.1868 15.0669L11.4468 13.3335H2.66676V11.4802C2.66676 10.7335 3.07342 10.0469 3.74009 9.70687C4.60009 9.26687 5.65342 8.89353 6.85342 8.7402L0.926758 2.81354L1.86676 1.87354L14.1268 14.1269ZM10.1134 12.0002L8.11342 10.0002C8.07342 10.0002 8.04009 10.0002 8.00009 10.0002C6.42009 10.0002 5.14009 10.4869 4.34676 10.8935C4.13342 11.0002 4.00009 11.2269 4.00009 11.4802V12.0002H10.1134ZM8.00009 4.0002C8.73342 4.0002 9.33342 4.6002 9.33342 5.33354C9.33342 5.90687 8.97342 6.39354 8.46676 6.5802L9.45342 7.56687C10.1868 7.09354 10.6668 6.26687 10.6668 5.33354C10.6668 3.8602 9.47342 2.66687 8.00009 2.66687C7.06676 2.66687 6.24009 3.14687 5.76676 3.8802L6.75342 4.86687C6.94009 4.3602 7.42676 4.0002 8.00009 4.0002Z" fill="#1C0732"/>
</svg>
