<svg width="100" height="100" viewBox="0 0 100 100" fill="none" xmlns="http://www.w3.org/2000/svg">
<path d="M49.2874 48.1705C55.9051 48.1705 61.6348 45.7969 66.3177 41.114C70.9991 36.4319 73.3734 30.703 73.3734 24.0845C73.3734 17.4683 70.9999 11.7386 66.317 7.0549C61.634 2.3735 55.9044 0 49.2874 0C42.6689 0 36.94 2.3735 32.2578 7.05566C27.5757 11.7378 25.2014 17.4675 25.2014 24.0845C25.2014 30.703 27.5757 36.4326 32.2578 41.1148C36.9415 45.7962 42.6712 48.1705 49.2874 48.1705ZM36.4021 11.1992C39.9948 7.6065 44.2093 5.86014 49.2874 5.86014C54.3648 5.86014 58.58 7.6065 62.1734 11.1992C65.7661 14.7926 67.5133 19.0079 67.5133 24.0845C67.5133 29.1626 65.7661 33.3771 62.1734 36.9705C58.58 40.5639 54.3648 42.3103 49.2874 42.3103C44.2108 42.3103 39.9963 40.5632 36.4021 36.9705C32.8087 33.3778 31.0616 29.1626 31.0616 24.0845C31.0616 19.0079 32.8087 14.7926 36.4021 11.1992Z" fill="#5B44BA"/>
<path d="M91.4314 76.8919C91.2964 74.9434 91.0232 72.8178 90.6212 70.5733C90.2153 68.3119 89.6927 66.1742 89.0671 64.2203C88.4201 62.2008 87.5419 60.2064 86.4548 58.2953C85.3279 56.3116 84.0034 54.5843 82.5172 53.163C80.9631 51.676 79.0603 50.4805 76.86 49.6085C74.6673 48.741 72.2374 48.3015 69.638 48.3015C68.6172 48.3015 67.63 48.7204 65.7234 49.9617C64.55 50.7269 63.1775 51.6119 61.6455 52.5908C60.3355 53.4254 58.5609 54.2075 56.369 54.9155C54.2305 55.6074 52.0592 55.9584 49.9153 55.9584C47.773 55.9584 45.6016 55.6074 43.4616 54.9155C41.272 54.2082 39.4966 53.4262 38.1889 52.5916C36.6714 51.6219 35.2981 50.7368 34.1072 49.9609C32.2021 48.7196 31.2149 48.3008 30.1941 48.3008C27.594 48.3008 25.1648 48.741 22.9729 49.6092C20.7741 50.4797 18.8705 51.6753 17.3149 53.1638C15.8287 54.5859 14.5042 56.3124 13.3781 58.2953C12.2925 60.2064 11.4136 62.2 10.7666 64.221C10.1418 66.1749 9.61914 68.3119 9.21326 70.5733C8.81042 72.8148 8.53806 74.9411 8.40302 76.8942C8.27026 78.8039 8.20312 80.7913 8.20312 82.7994C8.20312 88.0194 9.86252 92.2453 13.1348 95.3619C16.3666 98.4373 20.6421 99.9968 25.843 99.9968H73.9937C79.1931 99.9968 83.4686 98.4373 86.7012 95.3619C89.9742 92.2476 91.6336 88.0202 91.6336 82.7986C91.6328 80.7837 91.5649 78.7962 91.4314 76.8919ZM82.6607 91.1162C80.5252 93.1486 77.6901 94.1366 73.9929 94.1366H25.843C22.1451 94.1366 19.31 93.1486 17.1753 91.1169C15.081 89.1234 14.0633 86.402 14.0633 82.7994C14.0633 80.9256 14.1251 79.0755 14.2487 77.2993C14.3692 75.5568 14.6156 73.6426 14.9811 71.6086C15.3419 69.5998 15.8012 67.7145 16.3475 66.0078C16.8716 64.3713 17.5865 62.7508 18.4731 61.1899C19.3191 59.7021 20.2927 58.4257 21.3669 57.3973C22.3717 56.4352 23.6381 55.6479 25.1305 55.0574C26.5106 54.5111 28.0617 54.212 29.7455 54.167C29.9507 54.2761 30.3162 54.4844 30.9082 54.8705C32.1129 55.6555 33.5014 56.5512 35.0365 57.5316C36.7668 58.6348 38.9961 59.6312 41.6595 60.491C44.3825 61.3715 47.1596 61.8185 49.9161 61.8185C52.6726 61.8185 55.4504 61.3715 58.1718 60.4918C60.8375 59.6304 63.0661 58.6348 64.7987 57.5301C66.3696 56.526 67.7192 55.6563 68.9239 54.8705C69.516 54.4852 69.8814 54.2761 70.0867 54.167C71.7712 54.212 73.3223 54.5111 74.7032 55.0574C76.1947 55.6479 77.4612 56.436 78.466 57.3973C79.5402 58.425 80.5137 59.7014 81.3598 61.1906C82.2471 62.7508 82.9628 64.3721 83.4862 66.0071C84.0332 67.7161 84.4932 69.6005 84.8533 71.6078C85.218 73.6456 85.4652 75.5606 85.5858 77.3001V77.3016C85.7101 79.0709 85.7727 80.9202 85.7734 82.7994C85.7727 86.4027 84.7549 89.1234 82.6607 91.1162Z" fill="#5B44BA"/>
</svg>
