<svg width="20" height="20" viewBox="0 0 20 20" fill="none" xmlns="http://www.w3.org/2000/svg">
<path d="M9.85723 9.63408C11.1808 9.63408 12.3267 9.15938 13.2633 8.22279C14.1996 7.28636 14.6744 6.14058 14.6744 4.81689C14.6744 3.49365 14.1997 2.34771 13.2631 1.41098C12.3266 0.4747 11.1806 0 9.85723 0C8.53353 0 7.38775 0.4747 6.45132 1.41113C5.51489 2.34756 5.04004 3.49349 5.04004 4.81689C5.04004 6.14058 5.51489 7.28652 6.45132 8.22295C7.38806 9.15922 8.53399 9.63408 9.85723 9.63408ZM7.28018 2.23983C7.99871 1.5213 8.84161 1.17203 9.85723 1.17203C10.8727 1.17203 11.7157 1.5213 12.4344 2.23983C13.153 2.95852 13.5024 3.80157 13.5024 4.81689C13.5024 5.83251 13.153 6.6754 12.4344 7.39409C11.7157 8.11278 10.8727 8.46205 9.85723 8.46205C8.84191 8.46205 7.99902 8.11263 7.28018 7.39409C6.56149 6.67555 6.21206 5.83251 6.21206 4.81689C6.21206 3.80157 6.56149 2.95852 7.28018 2.23983Z" fill="#5B44BA"/>
<path d="M18.2863 15.3784C18.2592 14.9887 18.2046 14.5636 18.1242 14.1146C18.043 13.6624 17.9385 13.2348 17.8134 12.844C17.684 12.4401 17.5084 12.0413 17.2909 11.6591C17.0656 11.2623 16.8007 10.9169 16.5034 10.6326C16.1926 10.3352 15.812 10.0961 15.372 9.92169C14.9334 9.7482 14.4475 9.66031 13.9276 9.66031C13.7234 9.66031 13.526 9.74408 13.1447 9.99234C12.91 10.1454 12.6355 10.3224 12.3291 10.5182C12.0671 10.6851 11.7122 10.8415 11.2738 10.9831C10.8461 11.1215 10.4118 11.1917 9.98305 11.1917C9.55458 11.1917 9.12032 11.1215 8.69231 10.9831C8.25438 10.8416 7.89931 10.6852 7.63778 10.5183C7.33428 10.3244 7.05962 10.1474 6.82143 9.99219C6.44042 9.74393 6.24297 9.66016 6.03881 9.66016C5.51879 9.66016 5.03295 9.7482 4.59457 9.92184C4.15481 10.0959 3.77411 10.3351 3.46298 10.6327C3.16574 10.9172 2.90085 11.2625 2.67563 11.6591C2.45849 12.0413 2.28271 12.44 2.15332 12.8442C2.02835 13.235 1.92383 13.6624 1.84265 14.1146C1.76208 14.5629 1.70761 14.9882 1.6806 15.3788C1.65405 15.7608 1.64062 16.1583 1.64062 16.5599C1.64062 17.6039 1.9725 18.449 2.62695 19.0724C3.27331 19.6875 4.12841 19.9993 5.1686 19.9993H14.7987C15.8386 19.9993 16.6937 19.6875 17.3402 19.0724C17.9948 18.4495 18.3267 17.604 18.3267 16.5597C18.3265 16.1567 18.313 15.7592 18.2863 15.3784ZM16.5321 18.2232C16.105 18.6297 15.538 18.8273 14.7986 18.8273H5.1686C4.42901 18.8273 3.862 18.6297 3.43506 18.2234C3.0162 17.8247 2.81265 17.2804 2.81265 16.5599C2.81265 16.1851 2.82501 15.8151 2.84973 15.4599C2.87384 15.1113 2.92312 14.7285 2.99621 14.3217C3.06839 13.9199 3.16025 13.5429 3.2695 13.2016C3.37433 12.8743 3.5173 12.5502 3.69461 12.238C3.86383 11.9404 4.05853 11.6851 4.27337 11.4795C4.47433 11.287 4.72763 11.1296 5.02609 11.0115C5.30212 10.9022 5.61233 10.8424 5.94909 10.8334C5.99013 10.8552 6.06322 10.8969 6.18163 10.9741C6.42257 11.1311 6.70028 11.3102 7.00728 11.5063C7.35335 11.727 7.79921 11.9262 8.3319 12.0982C8.87648 12.2743 9.4319 12.3637 9.9832 12.3637C10.5345 12.3637 11.0901 12.2743 11.6344 12.0984C12.1675 11.9261 12.6132 11.727 12.9597 11.506C13.2739 11.3052 13.5438 11.1313 13.7848 10.9741C13.9032 10.897 13.9763 10.8552 14.0173 10.8334C14.3542 10.8424 14.6644 10.9022 14.9406 11.0115C15.2389 11.1296 15.4922 11.2872 15.6932 11.4795C15.908 11.685 16.1027 11.9403 16.2719 12.2381C16.4494 12.5502 16.5925 12.8744 16.6972 13.2014C16.8066 13.5432 16.8986 13.9201 16.9706 14.3216C17.0436 14.7291 17.093 15.1121 17.1171 15.46V15.4603C17.142 15.8142 17.1545 16.184 17.1547 16.5599C17.1545 17.2805 16.951 17.8247 16.5321 18.2232Z" fill="#5B44BA"/>
</svg>
