<svg width="16" height="17" viewBox="0 0 16 17" fill="none" xmlns="http://www.w3.org/2000/svg">
<path d="M5.5 10.5C7.29493 10.5 8.75 9.04493 8.75 7.25C8.75 5.45507 7.29493 4 5.5 4C3.70507 4 2.25 5.45507 2.25 7.25C2.25 9.04493 3.70507 10.5 5.5 10.5Z" stroke="#1C0732" stroke-miterlimit="10"/>
<path d="M9.71289 4.12132C10.1599 3.99537 10.6287 3.96668 11.0878 4.03718C11.5468 4.10767 11.9854 4.27572 12.374 4.52999C12.7626 4.78427 13.0922 5.11887 13.3407 5.51127C13.5891 5.90366 13.7505 6.34473 13.8141 6.80477C13.8777 7.26481 13.842 7.73314 13.7093 8.17821C13.5767 8.62329 13.3502 9.03477 13.0452 9.38494C12.7401 9.73511 12.3636 10.0158 11.9409 10.2082C11.5182 10.4006 11.0592 10.5002 10.5947 10.5003" stroke="#1C0732" stroke-linecap="round" stroke-linejoin="round"/>
<path d="M1 12.8373C1.50758 12.1153 2.18143 11.526 2.96466 11.1192C3.74788 10.7124 4.61748 10.5 5.50005 10.5C6.38262 10.5 7.25224 10.7123 8.0355 11.119C8.81875 11.5258 9.49264 12.115 10.0003 12.837" stroke="#1C0732" stroke-linecap="round" stroke-linejoin="round"/>
<path d="M10.5947 10.5C11.4774 10.4994 12.3472 10.7114 13.1305 11.1182C13.9138 11.525 14.5876 12.1146 15.0947 12.837" stroke="#1C0732" stroke-linecap="round" stroke-linejoin="round"/>
</svg>
