<svg width="102" height="102" viewBox="0 0 102 102" fill="none" xmlns="http://www.w3.org/2000/svg">
<g clip-path="url(#clip0)">
<path d="M81.2158 55.9C76.8946 52.7948 72.19 50.4047 67.2343 48.7723C73.8234 43.8253 78.0937 35.9488 78.0937 27.0938C78.0937 12.1543 65.9395 0 50.9999 0C36.0603 0 23.9062 12.1543 23.9062 27.0938C23.9062 35.9598 28.187 43.8449 34.7901 48.7909C28.7402 50.7826 23.0635 53.8819 18.095 57.9687C8.98429 65.4627 2.64973 75.9155 0.258509 87.4018C-0.490952 91.0009 0.406927 94.6976 2.72145 97.5437C5.02462 100.376 8.43983 102 12.0911 102H53.1913C55.3919 102 57.1757 100.216 57.1757 98.0156C57.1757 95.8151 55.3919 94.0312 53.1913 94.0312H12.0911C10.3902 94.0312 9.364 93.0818 8.90381 92.516C8.10912 91.5388 7.80153 90.2668 8.05992 89.0259C12.1949 69.1648 29.7132 54.6565 49.9437 54.1672C50.2941 54.1807 50.6461 54.1875 50.9999 54.1875C51.3561 54.1875 51.7109 54.1805 52.0639 54.1668C60.9224 54.3764 69.3727 57.2021 76.5655 62.371C78.3523 63.6552 80.8421 63.2474 82.1263 61.4608C83.4104 59.6738 83.0028 57.1842 81.2158 55.9ZM51.9699 46.1944C51.647 46.1885 51.3237 46.1855 50.9999 46.1855C50.6784 46.1855 50.3568 46.1887 50.0357 46.1946C39.9363 45.6908 31.8749 37.3161 31.8749 27.0938C31.8749 16.5481 40.4543 7.96875 50.9999 7.96875C61.5456 7.96875 70.1249 16.5481 70.1249 27.0938C70.1249 37.3141 62.0665 45.6876 51.9699 46.1944Z" fill="#5B44BA"/>
<path d="M90.7014 85.0667L100.833 74.935C102.389 73.3789 102.389 70.856 100.833 69.3001C99.2769 67.744 96.7542 67.744 95.1983 69.3001L85.0665 79.4318L74.9346 69.2999C73.3785 67.7438 70.8558 67.7438 69.2999 69.2999C67.744 70.856 67.7438 73.3789 69.2999 74.9348L79.4316 85.0667L69.2999 95.1983C67.7438 96.7544 67.7438 99.2773 69.2999 100.833C70.0778 101.611 71.0974 102 72.1172 102C73.137 102 74.1566 101.611 74.9346 100.833L85.0665 90.7016L95.1983 100.833C95.9763 101.611 96.9959 102 98.0157 102C99.0355 102 100.055 101.611 100.833 100.833C102.389 99.2773 102.389 96.7544 100.833 95.1985L90.7014 85.0667Z" fill="#5B44BA"/>
</g>
<defs>
<clipPath id="clip0">
<rect width="102" height="102" fill="white"/>
</clipPath>
</defs>
</svg>
