<svg width="12" height="12" viewBox="0 0 12 12" fill="none" xmlns="http://www.w3.org/2000/svg">
<path d="M7.11642 7.00293H4.88667C4.70008 7.00293 4.54883 7.15256 4.54883 7.33716V11.6654C4.54883 11.85 4.70008 11.9996 4.88667 11.9996H7.11642C7.30301 11.9996 7.45427 11.85 7.45427 11.6654V7.33716C7.45427 7.15256 7.30301 7.00293 7.11642 7.00293ZM6.77858 11.3312H5.22451V7.67139H6.77858V11.3312Z" fill="#1C0732"/>
<path d="M11.5415 4.37744H9.29487C9.10828 4.37744 8.95703 4.52708 8.95703 4.71167V11.6636C8.95703 11.8482 9.10828 11.9979 9.29487 11.9979H11.5415C11.7281 11.9979 11.8794 11.8482 11.8794 11.6636V4.71167C11.8794 4.52711 11.7281 4.37744 11.5415 4.37744ZM11.2037 11.3294H9.63272V5.0459H11.2037V11.3294Z" fill="#1C0732"/>
<path d="M2.70755 8.62451H0.46089C0.274299 8.62451 0.123047 8.77415 0.123047 8.95874V11.666C0.123047 11.8506 0.274299 12.0002 0.46089 12.0002H2.70755C2.89414 12.0002 3.04539 11.8506 3.04539 11.666V8.95874C3.04539 8.77418 2.89414 8.62451 2.70755 8.62451ZM2.36971 11.3318H0.798732V9.29297H2.36971V11.3318Z" fill="#1C0732"/>
<path d="M11.9129 0.335185C11.8615 0.265134 11.7807 0.222079 11.6933 0.218209L8.61893 0.000954961C8.43233 -0.0128953 8.26973 0.125543 8.25573 0.310107C8.24173 0.494702 8.38164 0.655564 8.56823 0.669414L10.7441 0.815593L6.7439 3.91146L3.68643 1.53843C3.55587 1.43614 3.36948 1.44324 3.24723 1.55513L0.105313 4.52974C-0.0282527 4.65509 -0.0357539 4.8632 0.0884354 4.99767C0.148703 5.07505 0.243179 5.11867 0.341826 5.11464C0.430934 5.1134 0.515936 5.07735 0.578306 5.01437L3.50065 2.24025L6.52433 4.59656C6.64774 4.69431 6.82321 4.69431 6.94662 4.59656L11.2711 1.26744L11.1021 3.34325C11.1012 3.52474 11.2404 3.6769 11.423 3.69418H11.4399C11.6141 3.69504 11.7603 3.56479 11.7778 3.39337L11.9974 0.569136C12.0097 0.482164 11.9782 0.394712 11.9129 0.335185Z" fill="#1C0732"/>
</svg>
