<svg xmlns="http://www.w3.org/2000/svg" width="22" height="22" viewBox="0 0 22 22">
  <path fill="#262B3E" d="M0 0L9 0C9.55228475 0 10 .44771525 10 1L10 9C10 9.55228475 9.55228475 10 9 10L1 10C.44771525 10 0 9.55228475 0 9L0 0zM2 2L2 8 8 8 8 2 2 2zM1 10.5707843L9 10.5707843C9.55228475 10.5707843 10 11.0184996 10 11.5707843L10 19.5707843C10 20.1230691 9.55228475 20.5707843 9 20.5707843L1 20.5707843C.44771525 20.5707843 0 20.1230691 0 19.5707843L0 11.5707843C0 11.0184996.44771525 10.5707843 1 10.5707843zM2 12.5707843L2 18.5707843 8 18.5707843 8 12.5707843 2 12.5707843zM11.6916806 0L19.6916806 0C20.2439654 0 20.6916806.44771525 20.6916806 1L20.6916806 9C20.6916806 9.55228475 20.2439654 10 19.6916806 10L11.6916806 10C11.1393959 10 10.6916806 9.55228475 10.6916806 9L10.6916806 1C10.6916806.44771525 11.1393959 0 11.6916806 0zM12.6916806 2L12.6916806 8 18.6916806 8 18.6916806 2 12.6916806 2zM11.6916806 10.5707843L19.6916806 10.5707843C20.2439654 10.5707843 20.6916806 11.0184996 20.6916806 11.5707843L20.6916806 19.5707843C20.6916806 20.1230691 20.2439654 20.5707843 19.6916806 20.5707843L11.6916806 20.5707843C11.1393959 20.5707843 10.6916806 20.1230691 10.6916806 19.5707843L10.6916806 11.5707843C10.6916806 11.0184996 11.1393959 10.5707843 11.6916806 10.5707843zM12.6916806 18.5707843L18.6916806 18.5707843 18.6916806 12.5707843 12.6916806 12.5707843 12.6916806 18.5707843z" transform="translate(.91 .68)"/>
</svg>
