<svg width="16" height="16" viewBox="0 0 16 16" fill="none" xmlns="http://www.w3.org/2000/svg">
<path d="M14.7966 11.7478L9.29857 2.2478C9.16667 2.02029 8.97731 1.83143 8.74944 1.70015C8.52157 1.56886 8.26321 1.49976 8.00023 1.49976C7.73725 1.49976 7.47889 1.56886 7.25102 1.70015C7.02316 1.83143 6.83379 2.02029 6.70189 2.2478V2.24829L1.20384 11.7478C1.07184 11.9758 1.00221 12.2345 1.00195 12.4979C1.0017 12.7614 1.07083 13.0202 1.20239 13.2484C1.33395 13.4767 1.52331 13.6662 1.75139 13.798C1.97948 13.9298 2.23826 13.9992 2.5017 13.9993H13.4988C13.7622 13.9992 14.021 13.9298 14.2491 13.798C14.4772 13.6662 14.6665 13.4767 14.7981 13.2484C14.9296 13.0202 14.9988 12.7614 14.9985 12.4979C14.9983 12.2345 14.9286 11.9758 14.7966 11.7478ZM7.49974 6.49975C7.49974 6.36715 7.55242 6.23997 7.64619 6.1462C7.73996 6.05243 7.86713 5.99975 7.99974 5.99975C8.13235 5.99975 8.25953 6.05243 8.3533 6.1462C8.44706 6.23997 8.49974 6.36715 8.49974 6.49975V8.99975C8.49974 9.13236 8.44706 9.25954 8.3533 9.35331C8.25953 9.44708 8.13235 9.49975 7.99974 9.49975C7.86713 9.49975 7.73996 9.44708 7.64619 9.35331C7.55242 9.25954 7.49974 9.13236 7.49974 8.99975V6.49975ZM8.00011 11.9999C7.85177 11.9999 7.70677 11.9559 7.58343 11.8735C7.46009 11.7911 7.36396 11.674 7.3072 11.5369C7.25043 11.3999 7.23558 11.2491 7.26452 11.1036C7.29346 10.9581 7.36489 10.8245 7.46978 10.7196C7.57467 10.6147 7.7083 10.5433 7.85379 10.5143C7.99928 10.4854 8.15008 10.5003 8.28712 10.557C8.42417 10.6138 8.5413 10.7099 8.62371 10.8333C8.70612 10.9566 8.75011 11.1016 8.75011 11.2499C8.7501 11.4488 8.67108 11.6396 8.53043 11.7803C8.38978 11.9209 8.19902 11.9999 8.00011 11.9999Z" fill="#DBA017"/>
</svg>
