<svg width="19" height="19" viewBox="0 0 19 19" fill="none" xmlns="http://www.w3.org/2000/svg">
<path d="M1 11.6667H0.5V12.1667V17.5V18H1H6.10958H6.60958V17.5V12.1667V11.6667H6.10958H1ZM10.8581 4.3541L10.5267 4.7L10.8581 5.0459L13.7485 8.06289L14.1096 8.43974L14.4706 8.06289L17.361 5.0459L17.6924 4.7L17.361 4.3541L14.4706 1.33711L14.1096 0.960257L13.7485 1.33711L10.8581 4.3541ZM3.55479 7.33333C5.26189 7.33333 6.60958 5.89516 6.60958 4.16667C6.60958 2.43818 5.26189 1 3.55479 1C1.8477 1 0.5 2.43818 0.5 4.16667C0.5 5.89516 1.8477 7.33333 3.55479 7.33333ZM13.774 18C15.4811 18 16.8287 16.5618 16.8287 14.8333C16.8287 13.1048 15.4811 11.6667 13.774 11.6667C12.0669 11.6667 10.7192 13.1048 10.7192 14.8333C10.7192 16.5618 12.0669 18 13.774 18Z" stroke="#1C0732"/>
</svg>
