<svg width="156" height="151" viewBox="0 0 156 151" fill="none" xmlns="http://www.w3.org/2000/svg">
<path d="M53.7646 32.6171C53.7646 46.3234 42.6313 57.4469 28.8823 57.4469C15.1333 57.4469 4.00004 46.3234 4.00004 32.6171C4.00004 18.9109 15.1333 7.7874 28.8823 7.7874C42.6313 7.7874 53.7646 18.9109 53.7646 32.6171ZM147.753 119.5C147.753 133.206 136.62 144.33 122.871 144.33C109.122 144.33 97.9883 133.206 97.9883 119.5C97.9883 105.794 109.122 94.6703 122.871 94.6703C136.62 94.6703 147.753 105.794 147.753 119.5ZM4 96.8405H53.7645V146.5H4V96.8405ZM122.871 5.65171L149.885 32.6171L122.871 59.5825L95.8561 32.6171L122.871 5.65171Z" stroke="#858CDD" stroke-width="8"/>
</svg>
