<svg width="33" height="24" viewBox="0 0 33 24" fill="none" xmlns="http://www.w3.org/2000/svg">
<path d="M32.1436 5.37692C32.1436 5.37692 31.8312 3.10026 30.8691 2.09128C29.6571 0.77185 28.2951 0.77185 27.6578 0.694236C23.1972 0.35791 16.4872 0.35791 16.4872 0.35791H16.4747C16.4747 0.35791 9.76483 0.35791 5.27908 0.694236C4.65433 0.77185 3.29233 0.77185 2.06783 2.09128C1.11821 3.10026 0.805832 5.37692 0.805832 5.37692C0.805832 5.37692 0.480957 8.06753 0.480957 10.7452V13.2547C0.480957 15.9324 0.805832 18.6101 0.805832 18.6101C0.805832 18.6101 1.11821 20.8867 2.08033 21.8957C3.29233 23.2151 4.89171 23.1763 5.60396 23.3057C8.16546 23.5644 16.4747 23.642 16.4747 23.642C16.4747 23.642 23.1971 23.6291 27.6703 23.2927C28.2951 23.2151 29.6571 23.2151 30.8816 21.8957C31.8437 20.8867 32.1561 18.6101 32.1561 18.6101C32.1561 18.6101 32.481 15.9324 32.481 13.2547V10.7452C32.4685 8.06753 32.1436 5.37692 32.1436 5.37692ZM13.1761 16.2946V6.99388L21.8226 11.6636L13.1761 16.2946Z" fill="url(#paint0_linear)"/>
<defs>
<linearGradient id="paint0_linear" x1="16.4746" y1="0.35791" x2="16.4746" y2="23.649" gradientUnits="userSpaceOnUse">
<stop stop-color="#E52D27"/>
<stop offset="1" stop-color="#BF171D"/>
</linearGradient>
</defs>
</svg>
