<svg width="100" height="100" viewBox="0 0 100 100" fill="none" xmlns="http://www.w3.org/2000/svg">
<circle cx="50" cy="50" r="50" fill="#F2F2F2"/>
<path d="M49.6431 49.0852C52.9519 49.0852 55.8168 47.8984 58.1582 45.557C60.4989 43.2159 61.6861 40.3515 61.6861 37.0422C61.6861 33.7341 60.4993 30.8693 58.1578 28.5274C55.8164 26.1868 52.9516 25 49.6431 25C46.3338 25 43.4694 26.1868 41.1283 28.5278C38.7872 30.8689 37.6001 33.7337 37.6001 37.0422C37.6001 40.3515 38.7872 43.2163 41.1283 45.5574C43.4701 47.8981 46.335 49.0852 49.6431 49.0852ZM43.2004 30.5996C44.9968 28.8032 47.104 27.9301 49.6431 27.9301C52.1818 27.9301 54.2894 28.8032 56.0861 30.5996C57.8824 32.3963 58.756 34.5039 58.756 37.0422C58.756 39.5813 57.8824 41.6885 56.0861 43.4852C54.2894 45.2819 52.1818 46.1551 49.6431 46.1551C47.1048 46.1551 44.9975 45.2816 43.2004 43.4852C41.4037 41.6889 40.5302 39.5813 40.5302 37.0422C40.5302 34.5039 41.4037 32.3963 43.2004 30.5996Z" fill="#C2C2C2"/>
<path d="M70.7156 63.444C70.6481 62.4697 70.5116 61.4069 70.3105 60.2847C70.1076 59.154 69.8463 58.0851 69.5335 57.1082C69.21 56.0984 68.7709 55.1013 68.2273 54.1457C67.6639 53.1539 67.0017 52.2902 66.2586 51.5795C65.4815 50.8361 64.5301 50.2383 63.43 49.8023C62.3336 49.3685 61.1186 49.1488 59.819 49.1488C59.3086 49.1488 58.815 49.3582 57.8617 49.9789C57.275 50.3615 56.5887 50.804 55.8227 51.2934C55.1677 51.7108 54.2804 52.1018 53.1845 52.4558C52.1152 52.8018 51.0296 52.9772 49.9576 52.9772C48.8865 52.9772 47.8008 52.8018 46.7308 52.4558C45.636 52.1022 44.7483 51.7111 44.0944 51.2938C43.3357 50.809 42.6491 50.3665 42.0536 49.9785C41.1011 49.3579 40.6074 49.1484 40.097 49.1484C38.797 49.1484 37.5824 49.3685 36.4864 49.8027C35.387 50.2379 34.4353 50.8357 33.6574 51.5799C32.9143 52.291 32.2521 53.1542 31.6891 54.1457C31.1462 55.1013 30.7068 56.098 30.3833 57.1086C30.0709 58.0855 29.8096 59.154 29.6066 60.2847C29.4052 61.4054 29.269 62.4686 29.2015 63.4451C29.1351 64.4 29.1016 65.3937 29.1016 66.3977C29.1016 69.0077 29.9313 71.1207 31.5674 72.679C33.1833 74.2167 35.321 74.9964 37.9215 74.9964H61.9968C64.5965 74.9964 66.7342 74.2167 68.3505 72.679C69.987 71.1218 70.8167 69.0081 70.8167 66.3973C70.8164 65.3899 70.7824 64.3961 70.7156 63.444ZM66.3303 70.5561C65.2625 71.5723 63.845 72.0663 61.9964 72.0663H37.9215C36.0725 72.0663 34.655 71.5723 33.5876 70.5565C32.5405 69.5597 32.0316 68.199 32.0316 66.3977C32.0316 65.4608 32.0625 64.5358 32.1243 63.6477C32.1846 62.7764 32.3078 61.8193 32.4905 60.8023C32.671 59.7979 32.9006 58.8553 33.1737 58.002C33.4358 57.1837 33.7933 56.3735 34.2365 55.593C34.6596 54.8491 35.1463 54.2109 35.6834 53.6967C36.1858 53.2157 36.8191 52.822 37.5652 52.5267C38.2553 52.2536 39.0308 52.1041 39.8727 52.0816C39.9753 52.1361 40.1581 52.2402 40.4541 52.4333C41.0564 52.8258 41.7507 53.2736 42.5182 53.7638C43.3834 54.3154 44.498 54.8136 45.8297 55.2436C47.1912 55.6838 48.5798 55.9073 49.958 55.9073C51.3363 55.9073 52.7252 55.6838 54.0859 55.2439C55.4187 54.8133 56.533 54.3154 57.3993 53.7631C58.1848 53.2611 58.8596 52.8262 59.4619 52.4333C59.7579 52.2406 59.9407 52.1361 60.0433 52.0816C60.8856 52.1041 61.6611 52.2536 62.3516 52.5267C63.0973 52.822 63.7306 53.216 64.233 53.6967C64.7701 54.2105 65.2568 54.8487 65.6799 55.5934C66.1235 56.3735 66.4813 57.1841 66.743 58.0016C67.0165 58.8561 67.2466 59.7983 67.4266 60.8019C67.609 61.8208 67.7326 62.7783 67.7928 63.6481V63.6488C67.855 64.5335 67.8863 65.4581 67.8867 66.3977C67.8863 68.1994 67.3774 69.5597 66.3303 70.5561Z" fill="#C2C2C2"/>
</svg>
