<svg width="80" height="80" viewBox="0 0 80 80" fill="none" xmlns="http://www.w3.org/2000/svg">
<path d="M0 10C0 4.47715 4.47715 0 10 0H70C75.5229 0 80 4.47715 80 10V70C80 75.5229 75.5229 80 70 80H10C4.47715 80 0 75.5229 0 70V10Z" fill="white"/>
<path d="M51.7467 23.2589L34.5498 40.4558L51.2909 57.1969C46.9671 61.4068 41.0613 64 34.5498 64C21.295 64 10.5498 53.2548 10.5498 40C10.5498 26.7452 21.295 16 34.5498 16C41.2931 16 47.3869 18.7811 51.7467 23.2589Z" fill="#858CDD"/>
<circle cx="34.2559" cy="28" r="3" fill="white"/>
<path d="M52.705 43.7465H68.6498L72.9984 45.245H48.3564L52.705 43.7465Z" fill="#5B44BA"/>
<rect x="48.3564" y="45.7444" width="24.6419" height="3.49649" fill="#5B44BA"/>
<path d="M52.705 37.2532H68.6498L72.9984 38.7517H48.3564L52.705 37.2532Z" fill="#5B44BA"/>
<rect x="48.3564" y="39.2512" width="24.6419" height="3.49649" fill="#5B44BA"/>
<path d="M52.705 30.7594H68.6498L72.9984 32.2579H48.3564L52.705 30.7594Z" fill="#5B44BA"/>
<rect x="48.3564" y="32.7574" width="24.6419" height="3.49649" fill="#5B44BA"/>
</svg>
