<svg width="80" height="80" viewBox="0 0 80 80" fill="none" xmlns="http://www.w3.org/2000/svg">
<path d="M0 10C0 4.47715 4.47715 0 10 0H70C75.5229 0 80 4.47715 80 10V70C80 75.5229 75.5229 80 70 80H10C4.47715 80 0 75.5229 0 70V10Z" fill="white"/>
<path d="M3 54.5758H9.45594L16.2969 44.1111L25.0089 66.037L41.1488 3L55.8571 77L63.7031 35.2037L70.2041 54.5758H77" stroke="#858CDD" stroke-width="3" stroke-linejoin="round"/>
<rect x="25" y="24" width="30" height="32" fill="white"/>
<g clip-path="url(#clip0)">
<path d="M53.7033 31.321V30.4074H51.4194V29.9506C51.4194 29.1937 50.8058 28.5802 50.049 28.5802H49.5922V26.2963H48.6786V28.5802H47.765V26.2963H46.8515V28.5802H45.9379V26.2963H45.0243V28.5802H44.1107V26.2963H43.1971V28.5802H42.2836V26.2963H41.37V28.5802H40.4564V26.2963H39.5428V28.5802H38.6292V26.2963H37.7157V28.5802H36.8021V26.2963H35.8885V28.5802H34.9749V26.2963H34.0613V28.5802H33.1478V26.2963H32.2342V28.5802H31.3206V26.2963H30.407V28.5802H29.9502C29.1934 28.5802 28.5798 29.1937 28.5798 29.9506V30.4074H26.2959V31.321H28.5798V32.2345H26.2959V33.1481H28.5798V34.0617H26.2959V34.9753H28.5798V35.8889H26.2959V36.8024H28.5798V37.716H26.2959V38.6296H28.5798V39.5432H26.2959V40.4568H28.5798V41.3703H26.2959V42.2839H28.5798V43.1975H26.2959V44.1111H28.5798V45.0247H26.2959V45.9382H28.5798V46.8518H26.2959V47.7654H28.5798V48.679H26.2959V49.5926H28.5798V50.0494C28.5798 50.8062 29.1934 51.4197 29.9502 51.4197H30.407V53.7037H31.3206V51.4197H32.2342V53.7037H33.1478V51.4197H34.0613V53.7037H34.9749V51.4197H35.8885V53.7037H36.8021V51.4197H37.7157V53.7037H38.6292V51.4197H39.5428V53.7037H40.4564V51.4197H41.37V53.7037H42.2836V51.4197H43.1971V53.7037H44.1107V51.4197H45.0243V53.7037H45.9379V51.4197H46.8515V53.7037H47.765V51.4197H48.6786V53.7037H49.5922V51.4197H50.049C50.8058 51.4197 51.4194 50.8062 51.4194 50.0494V49.5926H53.7033V48.679H51.4194V47.7654H53.7033V46.8518H51.4194V45.9382H53.7033V45.0247H51.4194V44.1111H53.7033V43.1975H51.4194V42.2839H53.7033V41.3703H51.4194V40.4568H53.7033V39.5432H51.4194V38.6296H53.7033V37.716H51.4194V36.8024H53.7033V35.8889H51.4194V34.9753H53.7033V34.0617H51.4194V33.1481H53.7033V32.2345H51.4194V31.321H53.7033ZM50.5058 50.0494C50.5058 50.3016 50.3012 50.5061 50.049 50.5061H29.9502C29.698 50.5061 29.4934 50.3016 29.4934 50.0494V29.9506C29.4934 29.6983 29.698 29.4938 29.9502 29.4938H50.049C50.3012 29.4938 50.5058 29.6983 50.5058 29.9506V50.0494Z" fill="#5B44BA"/>
</g>
<rect x="33.1484" y="33.1482" width="13.7037" height="13.7037" fill="#5B44BA"/>
<defs>
<clipPath id="clip0">
<rect width="27.4074" height="27.4074" fill="white" transform="translate(26.2959 26.2963)"/>
</clipPath>
</defs>
</svg>
