<svg width="320" height="204" viewBox="0 0 320 204" fill="none" xmlns="http://www.w3.org/2000/svg">
<path d="M261.268 146.815C261.783 166.704 223.505 183.828 175.772 185.063C128.039 186.298 88.927 171.177 88.4123 151.288C87.8977 131.399 126.176 114.275 173.909 113.04C221.641 111.805 260.754 126.926 261.268 146.815Z" fill="url(#paint0_radial_1141_394169)" fill-opacity="0.2"/>
<path fill-rule="evenodd" clip-rule="evenodd" d="M170.756 121.986C168.793 122.444 166.831 122.9 164.866 123.346C164.747 123.373 164.647 123.44 164.577 123.529L164.687 123.51L164.508 123.643C164.466 123.74 164.453 123.851 164.478 123.962C164.541 124.239 164.817 124.413 165.094 124.35C167.347 123.838 169.597 123.313 171.845 122.788L171.845 122.788L172.442 122.649C173.246 122.843 174.05 123.043 174.853 123.248C175.128 123.319 175.408 123.153 175.479 122.877C175.549 122.602 175.383 122.322 175.107 122.251C174.917 122.203 174.726 122.154 174.536 122.106C174.681 121.986 174.755 121.789 174.709 121.593C174.645 121.316 174.368 121.143 174.091 121.208C173.542 121.335 172.994 121.463 172.445 121.591C172.086 121.505 171.726 121.42 171.365 121.336C171.088 121.272 170.812 121.444 170.747 121.721C170.726 121.812 170.731 121.903 170.756 121.986ZM154.385 126.495C154.442 126.773 154.262 127.045 153.984 127.102C153.304 127.241 152.878 127.323 152.577 127.381L152.577 127.381L152.577 127.381L152.577 127.381C152.486 127.398 152.407 127.413 152.335 127.427L152.336 127.421L151.376 126.461C151.523 125.973 151.678 125.457 151.843 124.906C151.925 124.634 152.212 124.48 152.484 124.561C152.756 124.643 152.911 124.93 152.829 125.202C152.709 125.602 152.594 125.984 152.484 126.35C152.789 126.292 153.195 126.213 153.777 126.094C154.056 126.037 154.328 126.216 154.385 126.495ZM150.978 126.711L150.704 127.873L150.63 127.897L150.63 127.897L150.629 127.897C150.429 127.959 150.194 128.032 149.916 128.119C149.644 128.203 149.356 128.051 149.272 127.78C149.188 127.508 149.339 127.22 149.611 127.136C149.876 127.054 150.103 126.983 150.299 126.921L150.3 126.921L150.3 126.921C150.578 126.834 150.797 126.766 150.978 126.711ZM149.599 132.4C149.309 133.394 149.015 134.422 148.684 135.609C148.138 135.479 147.592 135.353 147.045 135.23C146.768 135.168 146.493 135.343 146.431 135.62C146.368 135.898 146.543 136.173 146.82 136.235C147.35 136.353 147.88 136.476 148.408 136.601L148.366 136.754C148.291 137.028 148.452 137.311 148.726 137.387L148.734 137.389V145.166C148.442 145.075 148.151 144.983 147.86 144.891C147.588 144.806 147.299 144.956 147.214 145.227C147.128 145.498 147.279 145.787 147.55 145.873C147.947 145.998 148.344 146.123 148.742 146.247C148.786 146.487 148.996 146.668 149.249 146.668C149.391 146.668 149.52 146.611 149.613 146.517C152.879 147.528 156.172 148.506 159.461 149.482L159.461 149.483L159.461 149.483L159.461 149.483L159.462 149.483L159.462 149.483L159.462 149.483C162.542 150.397 165.619 151.311 168.67 152.251C168.513 152.28 168.355 152.309 168.197 152.338C167.918 152.389 167.732 152.657 167.783 152.936C167.834 153.216 168.103 153.401 168.382 153.35C168.696 153.293 169.008 153.235 169.319 153.177V153.359C169.319 153.643 169.549 153.873 169.834 153.873C170.118 153.873 170.348 153.643 170.348 153.359V152.981C176.406 151.817 181.887 150.497 187.682 149.103L187.683 149.103L187.686 149.102C188.756 148.845 189.836 148.585 190.933 148.322V148.727C190.933 149.011 191.164 149.242 191.448 149.242C191.732 149.242 191.962 149.011 191.962 148.727V148.077C192.512 147.947 193.065 147.815 193.624 147.684C193.901 147.619 194.072 147.342 194.007 147.065C193.942 146.788 193.665 146.617 193.388 146.682C192.909 146.795 192.434 146.907 191.962 147.019V138.434C191.962 138.24 191.968 138.029 191.977 137.806C192.522 137.671 193.074 137.532 193.634 137.389C193.909 137.319 194.075 137.039 194.005 136.763C193.935 136.488 193.654 136.322 193.379 136.392C192.93 136.506 192.487 136.618 192.048 136.728C192.151 135.485 192.335 133.998 192.523 132.468V132.468L192.537 132.354C192.71 130.956 192.885 129.529 192.997 128.256C193.268 128.323 193.545 128.16 193.617 127.889C193.649 127.77 193.637 127.649 193.589 127.544L191.864 129.27C191.763 130.213 191.64 131.219 191.516 132.228L191.494 132.405C191.313 133.872 191.132 135.34 191.026 136.595C190.968 136.679 190.933 136.78 190.933 136.891V137.002C183.962 138.703 178.111 139.785 171.101 141.082L171.101 141.082L171.099 141.082L170.348 141.221V141.008C170.348 140.723 170.118 140.493 169.834 140.493C169.549 140.493 169.319 140.723 169.319 141.008V141.409C166.977 140.672 164.622 139.99 162.271 139.312L161.351 139.047L161.351 139.047C157.516 137.94 153.657 136.827 149.763 135.87V135.861H148.734L149.599 132.4ZM187.175 126.556L187.92 125.705C187.537 125.59 187.154 125.475 186.775 125.362L186.775 125.362C185.335 124.93 183.96 124.518 182.94 124.221L182.569 125.185C183.571 125.476 184.964 125.893 186.434 126.334L186.434 126.334L186.434 126.334C186.679 126.407 186.927 126.482 187.175 126.556ZM190.933 138.062V138.434V147.264C189.75 147.547 188.587 147.827 187.437 148.103L187.427 148.106L187.426 148.106L187.425 148.106L187.425 148.106L187.425 148.106C181.697 149.484 176.3 150.783 170.348 151.933V142.819C171.324 143.137 172.297 143.465 173.264 143.808C173.532 143.903 173.826 143.763 173.921 143.495C174.016 143.228 173.876 142.933 173.608 142.838C172.869 142.576 172.128 142.323 171.385 142.076C178.269 140.803 184.071 139.728 190.933 138.062ZM167.177 141.825C166.966 141.921 166.839 142.151 166.883 142.389C166.935 142.668 167.204 142.852 167.483 142.8C168.085 142.688 168.676 142.578 169.259 142.47L169.319 142.489V151.374C166.117 150.385 162.923 149.436 159.732 148.489C156.407 147.502 153.086 146.517 149.763 145.486V136.93C153.551 137.867 157.312 138.953 161.073 140.038L161.073 140.038L161.073 140.038L161.073 140.038L161.073 140.038L161.073 140.038L161.073 140.038L161.073 140.038L161.073 140.038L161.986 140.301C163.722 140.802 165.454 141.303 167.177 141.825Z" fill="black"/>
<path fill-rule="evenodd" clip-rule="evenodd" d="M35.9018 100.256C35.9024 100.265 35.9031 100.273 35.904 100.281C34.1586 100.534 32.4191 100.777 30.6782 101.021C28.4939 101.326 26.3072 101.631 24.1033 101.957C23.2957 102.077 22.4496 102.232 21.6091 102.387C20.9604 102.506 20.3152 102.624 19.6936 102.725L19.7198 102.708C19.9557 102.549 20.0183 102.229 19.8597 101.994C19.7011 101.758 19.3814 101.695 19.1455 101.854C18.7947 102.09 18.4436 102.325 18.0924 102.561L18.0916 102.561L17.4181 103.013C16.7203 103.069 16.0282 103.089 15.3422 103.053C15.0583 103.039 14.8164 103.257 14.8017 103.541C14.7871 103.825 15.0053 104.067 15.2892 104.081C15.4622 104.09 15.6352 104.096 15.8082 104.099C13.6624 105.553 11.5328 107.036 9.47208 108.627C9.40973 108.6 9.34101 108.585 9.26882 108.585C8.9846 108.585 8.7542 108.815 8.7542 109.099V109.187C8.46502 109.416 8.17735 109.647 7.89133 109.881C7.75436 109.841 7.61737 109.802 7.48035 109.763C7.20707 109.684 6.92223 109.843 6.84415 110.116C6.78582 110.32 6.85939 110.531 7.01429 110.657C6.91734 110.837 6.93407 111.066 7.07399 111.232C7.25707 111.45 7.58172 111.477 7.79912 111.294C7.90762 111.203 8.01639 111.112 8.12541 111.021C8.33523 111.083 8.54482 111.146 8.7542 111.208V118.906L8.41963 118.781C8.15338 118.682 7.85692 118.817 7.75747 119.083C7.65803 119.35 7.79326 119.646 8.05951 119.745C12.3138 121.334 16.5981 122.853 20.8899 124.334C20.8515 124.423 20.8377 124.524 20.8554 124.626C20.9039 124.906 21.1702 125.094 21.4503 125.045C21.7284 124.997 22.0066 124.949 22.2849 124.902C22.378 124.995 22.5068 125.053 22.6491 125.053C22.7221 125.053 22.7916 125.038 22.8545 125.01C23.2452 125.144 23.6359 125.278 24.0266 125.411C24.2956 125.503 24.5881 125.359 24.68 125.091C24.7512 124.882 24.6808 124.659 24.52 124.527C30.8674 123.48 37.2309 122.584 43.6168 121.751L43.5799 121.805C43.4205 122.041 43.4821 122.361 43.7174 122.52C43.9528 122.679 44.2727 122.618 44.4321 122.382C44.6168 122.11 44.8034 121.84 44.992 121.572C45.2635 121.527 45.4525 121.274 45.417 120.999L45.4144 120.981C46.9442 118.871 48.5948 116.913 50.3605 115.012C50.386 115.016 50.4122 115.018 50.4388 115.018C50.723 115.018 50.9534 114.787 50.9534 114.503V114.38C51.5756 113.723 52.2116 113.072 52.8612 112.422C53.0622 112.222 53.0622 111.896 52.8612 111.695C52.6602 111.494 52.3344 111.494 52.1334 111.695C51.7354 112.093 51.342 112.492 50.9534 112.892V105.558C51.1048 105.41 51.2559 105.263 51.4068 105.115C51.6806 105.194 51.9548 105.272 52.2293 105.349C52.5029 105.426 52.7871 105.267 52.8641 104.993C52.941 104.72 52.7816 104.435 52.508 104.358C52.4213 104.334 52.3347 104.31 52.2481 104.285C52.41 104.124 52.5715 103.964 52.7326 103.803C52.9335 103.602 52.9335 103.276 52.7326 103.075C52.5316 102.874 52.2057 102.874 52.0048 103.075C51.7096 103.37 51.4131 103.664 51.1154 103.958C50.4122 103.751 49.7107 103.539 49.0098 103.324L48.1868 104.147C48.7924 104.335 49.399 104.52 50.007 104.702C49.9546 104.783 49.9242 104.879 49.9242 104.982V105.123C47.9791 107.01 45.9927 108.868 44.0005 110.715C43.9379 110.753 43.8839 110.803 43.8421 110.862C43.6031 111.084 43.364 111.305 43.1248 111.526C42.3756 111.635 41.6257 111.743 40.8754 111.852L40.8753 111.852L40.8752 111.852C34.9636 112.705 29.0267 113.561 23.1637 114.7V114.246C23.1637 113.962 22.9333 113.731 22.6491 113.731C22.3649 113.731 22.1344 113.962 22.1344 114.246V114.513C20.681 114.037 19.2253 113.546 17.767 113.054L17.7668 113.054L17.7668 113.054L17.7668 113.054C15.1143 112.16 12.4536 111.262 9.78345 110.445V109.688C12.3545 107.682 15.046 105.848 17.7718 104.016C18.4689 103.951 19.1623 103.854 19.8484 103.743C20.5323 103.632 21.1888 103.511 21.8361 103.392L21.8361 103.392L21.8361 103.392L21.8361 103.392L21.8362 103.392L21.8362 103.392C22.6447 103.243 23.4388 103.096 24.254 102.976C26.423 102.655 28.6137 102.348 30.8067 102.042L30.8068 102.042L30.807 102.042C33.2654 101.698 35.7269 101.354 38.1642 100.988C38.1758 100.987 38.1873 100.985 38.1986 100.982C39.5067 101.358 40.7968 101.782 42.0961 102.208L42.0961 102.208C42.789 102.435 43.4844 102.663 44.1866 102.886L45.014 103.148L45.0141 103.148L45.0142 103.148C45.2883 103.235 45.5626 103.322 45.837 103.409L46.6571 102.589C46.2131 102.448 45.7689 102.308 45.3244 102.167L44.4973 101.904C43.817 101.689 43.1324 101.465 42.4446 101.239C41.066 100.787 39.6745 100.33 38.2783 99.9344C37.622 99.7483 37.0805 99.6621 36.3811 99.7087C36.0975 99.7277 35.8829 99.9729 35.9018 100.256ZM22.1344 123.675C18.0025 122.253 13.8792 120.801 9.78345 119.288V111.521C12.3344 112.308 14.8584 113.159 17.3898 114.013L17.3898 114.013L17.3898 114.013L17.3899 114.013L17.3903 114.014L17.3906 114.014L17.391 114.014L17.3917 114.014L17.3918 114.014C18.6484 114.438 19.9068 114.863 21.1712 115.28C21.1126 115.384 21.0898 115.509 21.1156 115.635C21.1725 115.914 21.4443 116.093 21.7228 116.037C21.86 116.009 21.9972 115.981 22.1344 115.953V123.675ZM49.9242 113.971V106.554C48.2738 108.142 46.5989 109.709 44.9225 111.264C46.0081 111.105 47.0922 110.943 48.1739 110.778C48.4549 110.735 48.7175 110.928 48.7604 111.209C48.8033 111.49 48.6103 111.752 48.3294 111.795C47.1463 111.976 45.9623 112.152 44.7779 112.326V120.107C46.3736 117.934 48.0926 115.922 49.9242 113.971ZM43.749 120.696C36.8696 121.591 30.0094 122.559 23.1637 123.709V115.929C23.6689 116.091 24.1753 116.252 24.6833 116.41C24.9547 116.494 25.2432 116.343 25.3276 116.071C25.4121 115.8 25.2605 115.511 24.9891 115.427L24.9377 115.411C30.2554 114.424 35.6233 113.649 40.9941 112.874L40.9942 112.874L40.9943 112.874L40.9946 112.874L41.8636 112.749C41.7821 112.931 41.8114 113.153 41.9556 113.309C42.1485 113.517 42.4741 113.53 42.6828 113.337L42.7879 113.24L42.7916 113.236L43.589 112.499L43.7487 112.476V120.679L43.749 120.696Z" fill="black"/>
<path fill-rule="evenodd" clip-rule="evenodd" d="M203.894 80.7125C204.02 79.9644 204.141 79.1812 204.22 78.4949C205.555 78.3631 206.87 78.2337 208.172 78.1056L208.173 78.1055C212.121 77.7171 215.947 77.3408 219.799 76.9449C221.647 77.2346 223.551 77.5007 225.481 77.7706L225.481 77.7706L225.481 77.7706C229.105 78.2771 232.824 78.797 236.453 79.5111C237.336 82.1252 237.453 82.4344 237.755 83.2261L237.755 83.2263C237.866 83.5176 238.001 83.8743 238.209 84.4351C237.703 84.5124 237.201 84.5894 236.701 84.6659L236.696 84.6666C231.709 85.4303 227.012 86.1496 221.812 86.7846V86.4576C221.812 86.1734 221.581 85.943 221.297 85.943C221.013 85.943 220.782 86.1734 220.782 86.4576V86.6841C219.594 86.4695 218.507 86.2748 217.5 86.0942L217.498 86.0939L217.498 86.0939L217.498 86.0938L217.498 86.0938C211.624 85.0411 208.434 84.4693 203.423 83.2543L203.436 83.1897C203.457 83.0859 203.479 82.9741 203.502 82.8552H202.256V82.9677C202.127 82.9358 201.997 82.9034 201.866 82.8706C201.828 82.861 201.789 82.856 201.751 82.8552H201.731C201.504 82.8597 201.3 83.0147 201.242 83.245C201.173 83.5208 201.341 83.8002 201.616 83.8691C201.833 83.9233 202.046 83.9762 202.256 84.0281V92.2068L201.837 92.1275C201.558 92.0745 201.289 92.2579 201.236 92.5371C201.183 92.8164 201.366 93.0857 201.645 93.1387C205.681 93.9046 209.755 94.632 213.826 95.3588L213.826 95.3589L213.828 95.3592L213.829 95.3593C215.373 95.6349 216.916 95.9105 218.457 96.1881L218.126 96.2423C217.846 96.2883 217.655 96.5529 217.701 96.8334C217.747 97.1139 218.012 97.3039 218.293 97.2579C219.147 97.1177 219.979 96.9822 220.792 96.85C220.839 97.0864 221.047 97.2647 221.297 97.2647C221.565 97.2647 221.786 97.0592 221.81 96.797C222.638 96.9489 223.465 97.1017 224.29 97.256C224.57 97.3082 224.838 97.124 224.891 96.8446C224.942 96.5698 224.765 96.3053 224.493 96.247C229.177 95.4789 233.431 94.7472 238.28 93.7209V93.9197C238.28 94.2039 238.51 94.4343 238.794 94.4343C239.079 94.4343 239.309 94.2039 239.309 93.9197V93.5005C239.853 93.3828 240.404 93.2611 240.965 93.1352C241.243 93.073 241.417 92.7978 241.355 92.5204C241.293 92.2431 241.017 92.0687 240.74 92.131C240.256 92.2395 239.78 92.3449 239.309 92.4473V86.4578C239.367 86.4578 239.426 86.4478 239.484 86.4268C239.751 86.33 239.89 86.0349 239.793 85.7677C239.728 85.5887 239.667 85.4207 239.609 85.2628C240.382 85.1453 241.164 85.027 241.958 84.908C242.239 84.866 242.433 84.604 242.391 84.3229C242.349 84.0418 242.087 83.8481 241.806 83.8901C240.955 84.0176 240.118 84.1442 239.293 84.2699C239.269 84.1801 239.223 84.0998 239.159 84.0361C238.956 83.4872 238.823 83.1382 238.714 82.8538L238.714 82.853L238.714 82.8516L238.714 82.8515L238.714 82.8515C238.44 82.1334 238.324 81.827 237.62 79.7482L237.659 79.7564C237.937 79.815 238.21 79.637 238.269 79.3589C238.327 79.0807 238.149 78.8078 237.871 78.7493C237.661 78.705 237.45 78.6614 237.238 78.6185L237.223 78.5739C237.133 78.3046 236.841 78.1598 236.571 78.2506C236.466 78.2861 236.379 78.3526 236.319 78.4364C232.766 77.7504 229.099 77.2371 225.556 76.7413L225.556 76.7413L225.556 76.7413L225.556 76.7412C224.629 76.6115 223.711 76.483 222.806 76.3528C222.835 76.2785 222.847 76.1963 222.838 76.1114C222.808 75.8287 222.555 75.6236 222.273 75.6533C221.455 75.739 220.641 75.8236 219.827 75.9073C219.31 75.8259 218.799 75.7429 218.295 75.6577C218.015 75.6103 217.749 75.799 217.702 76.0793C217.699 76.0945 217.697 76.1097 217.696 76.1249C214.518 76.4471 211.339 76.7598 208.075 77.0809C206.834 77.203 205.58 77.3264 204.309 77.4519C204.312 77.3609 204.314 77.2748 204.314 77.1943C204.314 76.9101 204.084 76.6797 203.8 76.6797C203.516 76.6797 203.285 76.9101 203.285 77.1943C203.285 77.302 203.281 77.4227 203.273 77.5544C202.749 77.6063 202.221 77.6587 201.69 77.7115C201.408 77.7396 201.201 77.9917 201.229 78.2746C201.257 78.5574 201.509 78.7638 201.792 78.7357L203.171 78.5988C203.098 79.1878 202.995 79.8526 202.884 80.5106L203.894 80.7125ZM219.757 87.5463L219.756 87.545C218.895 87.3899 218.088 87.2453 217.326 87.1087L217.325 87.1086L217.325 87.1086L217.325 87.1085C211.485 86.062 208.269 85.4857 203.285 84.2798V92.4004C206.851 93.0681 210.42 93.7053 213.993 94.343L213.993 94.343L213.993 94.343L213.993 94.3431L213.993 94.3431L213.993 94.3431C216.255 94.747 218.519 95.151 220.782 95.5631V87.9447C220.631 87.9626 220.479 87.9803 220.327 87.998C220.045 88.0309 219.789 87.8286 219.757 87.5463ZM236.863 85.6823L236.863 85.6824C232.147 86.4045 227.676 87.0892 222.795 87.7001C222.7 87.9097 222.471 88.0362 222.234 87.9932L221.812 87.9164V95.6414C227.606 94.6995 232.513 93.8955 238.28 92.6688V85.4656L236.864 85.6822L236.863 85.6823L236.863 85.6823Z" fill="black"/>
<path fill-rule="evenodd" clip-rule="evenodd" d="M101.838 62.6055C102.189 62.6954 102.54 62.7861 102.893 62.877L102.893 62.8771L102.893 62.8771C104.921 63.4008 106.995 63.9361 109.328 64.4111L109.255 64.4849L109.254 64.4855L109.254 64.4856C108.597 65.1461 107.945 65.8017 107.294 66.4499C107.221 66.4095 107.136 66.3866 107.047 66.3866C106.763 66.3866 106.532 66.617 106.532 66.9012V67.0208C104.231 67.1756 101.875 67.3958 99.5276 67.6254C99.0508 67.672 98.5743 67.719 98.0987 67.7659C96.1052 67.9626 94.1261 68.1578 92.1932 68.318C90.0773 67.9144 87.9701 67.4798 85.8576 67.044L85.8575 67.044L85.8575 67.044L85.8574 67.044C84.9183 66.8503 83.9782 66.6564 83.0357 66.4649C84.5697 65.508 86.0327 64.4729 87.4781 63.3889C87.5205 63.3571 87.5566 63.3201 87.5861 63.2793C91.2248 62.9851 94.8854 62.6647 98.5147 62.133L98.9468 60.8367C98.8973 60.8254 98.8478 60.8141 98.7982 60.8028C98.5385 60.7438 98.2801 60.8924 98.1967 61.1393C94.1932 61.7185 90.1401 62.0428 86.0843 62.3673L86.0842 62.3673C85.6817 62.3995 85.2791 62.4317 84.8765 62.4642C84.5932 62.4871 84.3821 62.7352 84.4049 63.0185C84.4278 63.3018 84.6759 63.513 84.9592 63.4901L85.6853 63.4318C84.3401 64.4046 82.9755 65.3223 81.5461 66.165L81.4158 66.1391C81.137 66.0837 80.8661 66.2648 80.8107 66.5436C80.7554 66.8223 80.9364 67.0932 81.2152 67.1486L81.5211 67.2096C81.5313 67.2119 81.5417 67.214 81.5521 67.2158L81.8301 67.2714V72.9942C81.6723 72.9768 81.514 72.9619 81.3554 72.9496C81.072 72.9276 80.8245 73.1394 80.8024 73.4228C80.7804 73.7061 80.9923 73.9537 81.2756 73.9757C81.461 73.9901 81.6458 74.0083 81.8301 74.0299V74.1059C81.8301 74.3902 82.0605 74.6206 82.3448 74.6206C82.6029 74.6206 82.8166 74.4305 82.8537 74.1828C84.1085 74.4082 85.3498 74.7606 86.615 75.1197L86.615 75.1197C86.9523 75.2154 87.2912 75.3116 87.6326 75.406C87.9327 75.4891 88.2322 75.5709 88.5307 75.6524L88.5319 75.6528L88.5319 75.6528C89.5818 75.9396 90.621 76.2235 91.6441 76.5471C91.7261 76.7543 91.9374 76.8916 92.1705 76.8698L92.5229 76.8371C92.5898 76.8602 92.6566 76.8835 92.7233 76.907C92.9242 76.9779 93.1396 76.9167 93.2748 76.7688C95.1981 76.5962 97.1325 76.4398 99.0695 76.2831L99.0696 76.2831L99.0696 76.2831L99.0697 76.2831L99.0697 76.2831L99.0698 76.2831C101.544 76.0829 104.022 75.8825 106.487 75.6478C106.549 75.6534 106.613 75.6474 106.674 75.6298C107.052 75.5936 107.429 75.5566 107.806 75.5186C108.089 75.49 108.295 75.2377 108.266 74.9549C108.244 74.7346 108.086 74.5609 107.884 74.5083C109.205 73.1729 109.867 72.4343 111.566 70.3104C111.743 70.0885 111.707 69.7646 111.485 69.5871C111.263 69.4095 110.939 69.4455 110.762 69.6675L110.649 69.8083V64.6676C110.958 64.7248 111.272 64.7807 111.592 64.8353C111.872 64.8832 112.138 64.695 112.186 64.4148C112.234 64.1347 112.045 63.8687 111.765 63.8208C111.652 63.8015 111.54 63.782 111.428 63.7623L111.528 63.6627C111.729 63.4617 111.729 63.1359 111.528 62.9349C111.327 62.7339 111.001 62.7339 110.8 62.9349C110.658 63.0764 110.517 63.2178 110.376 63.359C110.304 63.3206 110.222 63.2988 110.135 63.2988C109.992 63.2988 109.863 63.3568 109.77 63.4505C107.377 62.9721 105.286 62.4319 103.213 61.896L103.212 61.8958C102.875 61.8088 102.539 61.722 102.202 61.6355L101.838 62.6055ZM102.253 61.5006C102.383 61.4752 102.514 61.4494 102.645 61.4233C102.923 61.3676 103.104 61.0964 103.048 60.8177C103.007 60.6129 102.85 60.461 102.659 60.417L102.253 61.5006ZM92.1226 75.6194V69.3565C91.617 69.398 91.1145 69.437 90.6158 69.473C90.3323 69.4934 90.0859 69.2802 90.0655 68.9967C90.0644 68.9815 90.0639 68.9664 90.0642 68.9514C88.5832 68.6572 87.1053 68.3524 85.6291 68.0479L85.629 68.0479L85.6289 68.0479C84.7052 67.8574 83.7821 67.667 82.8594 67.4794V73.1394C84.2464 73.3759 85.6013 73.7611 86.9193 74.1358L86.9194 74.1358C87.2509 74.2301 87.5801 74.3236 87.907 74.414C88.2005 74.4952 88.4957 74.5759 88.7918 74.6567C89.8978 74.9588 91.0175 75.2647 92.1226 75.6194ZM106.309 74.6309L106.592 74.3472C106.554 74.2753 106.532 74.1931 106.532 74.1059V68.3767C106.421 68.3628 106.314 68.313 106.23 68.2272C106.186 68.1832 106.153 68.1334 106.128 68.0804C103.995 68.2315 101.814 68.436 99.6278 68.6497C99.1559 68.6959 98.6837 68.7425 98.2118 68.789L98.2086 68.7893L98.2074 68.7894L98.2028 68.7899H98.2028L98.2018 68.79L98.2018 68.79L98.2017 68.79L98.2017 68.79L98.2016 68.79L98.2015 68.79L98.2015 68.79C97.26 68.8829 96.3195 68.9757 95.3842 69.0647C95.4528 69.1699 95.4833 69.3003 95.4601 69.4338C95.4114 69.7139 95.1449 69.9014 94.8649 69.8527C94.2932 69.7533 93.7223 69.6506 93.1519 69.5452V75.7464C95.1115 75.5703 97.0623 75.4126 99.0104 75.2552L99.0105 75.2552L99.0106 75.2552L99.0107 75.2552L99.0107 75.2552L99.0107 75.2552L99.0107 75.2552L99.0107 75.2552C101.444 75.0585 103.872 74.8622 106.309 74.6309ZM109.623 71.0713C108.844 72.01 108.295 72.6148 107.561 73.3679V67.987C107.915 67.9661 108.266 67.947 108.616 67.9298C108.9 67.9159 109.119 67.6745 109.105 67.3906C109.091 67.1068 108.849 66.8879 108.565 66.9018C108.472 66.9064 108.378 66.9111 108.284 66.916C108.728 66.4725 109.173 66.0259 109.62 65.5774V71.0182C109.62 71.0361 109.621 71.0539 109.623 71.0713Z" fill="black"/>
<path fill-rule="evenodd" clip-rule="evenodd" d="M166.415 140.505C166.692 140.566 166.868 140.84 166.807 141.118L164.672 150.896C164.611 151.174 164.337 151.349 164.059 151.289C163.782 151.228 163.606 150.954 163.666 150.676L165.802 140.898C165.863 140.621 166.137 140.445 166.415 140.505ZM169.454 141.539C169.729 141.61 169.895 141.891 169.824 142.166L167.57 150.914C167.499 151.19 167.218 151.355 166.943 151.284C166.668 151.213 166.502 150.933 166.573 150.658L168.827 141.909C168.898 141.634 169.179 141.468 169.454 141.539ZM163.558 140.51C163.833 140.581 163.998 140.861 163.927 141.137L161.673 149.885C161.602 150.16 161.321 150.326 161.046 150.255C160.771 150.184 160.605 149.904 160.676 149.628L162.931 140.88C163.002 140.605 163.282 140.439 163.558 140.51Z" fill="black"/>
<path fill-rule="evenodd" clip-rule="evenodd" d="M180.019 139.482C180.294 139.553 180.46 139.833 180.389 140.109L177.604 150.916C177.533 151.191 177.252 151.356 176.977 151.286C176.702 151.215 176.536 150.934 176.607 150.659L179.392 139.852C179.463 139.576 179.744 139.411 180.019 139.482ZM176.517 140.318C176.792 140.388 176.958 140.669 176.887 140.944L174.108 151.728C174.037 152.003 173.756 152.168 173.481 152.097C173.206 152.027 173.04 151.746 173.111 151.471L175.89 140.687C175.961 140.412 176.242 140.247 176.517 140.318ZM173.459 141.026C173.734 141.097 173.9 141.377 173.829 141.652L171.044 152.46C170.973 152.735 170.692 152.9 170.417 152.829C170.142 152.759 169.976 152.478 170.047 152.203L172.832 141.396C172.903 141.12 173.184 140.955 173.459 141.026Z" fill="black"/>
<path fill-rule="evenodd" clip-rule="evenodd" d="M154.889 137.192C155.164 137.263 155.33 137.543 155.259 137.819L152.945 146.797C152.874 147.072 152.594 147.238 152.318 147.167C152.043 147.096 151.878 146.815 151.948 146.54L154.262 137.562C154.333 137.287 154.614 137.121 154.889 137.192ZM157.573 137.936C157.848 138.007 158.014 138.288 157.943 138.563L155.555 147.826C155.485 148.102 155.204 148.267 154.929 148.196C154.653 148.125 154.488 147.845 154.559 147.569L156.946 138.306C157.017 138.031 157.297 137.865 157.573 137.936ZM160.594 138.966C160.869 139.036 161.035 139.317 160.964 139.592L158.577 148.856C158.506 149.131 158.225 149.296 157.95 149.225C157.675 149.155 157.509 148.874 157.58 148.599L159.967 139.335C160.038 139.06 160.319 138.895 160.594 138.966Z" fill="black"/>
<path fill-rule="evenodd" clip-rule="evenodd" d="M189.675 137.936C189.95 138.007 190.116 138.287 190.045 138.563L187.393 148.855C187.322 149.13 187.041 149.296 186.766 149.225C186.491 149.154 186.325 148.873 186.396 148.598L189.048 138.306C189.119 138.031 189.4 137.865 189.675 137.936ZM186.216 138.605C186.491 138.676 186.657 138.957 186.586 139.232L183.841 149.884C183.77 150.16 183.489 150.325 183.214 150.254C182.939 150.183 182.773 149.903 182.844 149.628L185.589 138.975C185.66 138.7 185.941 138.534 186.216 138.605ZM183.341 138.605C183.616 138.676 183.781 138.957 183.71 139.232L180.965 149.884C180.894 150.16 180.614 150.325 180.339 150.254C180.063 150.183 179.898 149.903 179.969 149.628L182.714 138.975C182.785 138.7 183.065 138.534 183.341 138.605Z" fill="black"/>
<path fill-rule="evenodd" clip-rule="evenodd" d="M151.756 136.392C152.031 136.463 152.197 136.744 152.126 137.019L149.872 145.767C149.801 146.043 149.52 146.208 149.245 146.137C148.97 146.066 148.804 145.786 148.875 145.511L151.129 136.762C151.2 136.487 151.481 136.321 151.756 136.392Z" fill="black"/>
<path fill-rule="evenodd" clip-rule="evenodd" d="M18.8577 113.212C19.1329 113.283 19.2986 113.564 19.2276 113.839L17.0997 122.096C17.0288 122.372 16.7482 122.537 16.473 122.466C16.1977 122.395 16.0321 122.115 16.103 121.84L18.231 113.582C18.3019 113.307 18.5825 113.141 18.8577 113.212ZM24.6158 114.78C24.891 114.85 25.0567 115.131 24.9857 115.406L22.5986 124.67C22.5277 124.945 22.247 125.11 21.9718 125.039C21.6966 124.969 21.531 124.688 21.6019 124.413L23.9891 115.149C24.06 114.874 24.3406 114.709 24.6158 114.78ZM21.3294 114.78C21.6047 114.85 21.7703 115.131 21.6994 115.406L19.7101 123.126C19.6391 123.401 19.3585 123.567 19.0833 123.496C18.8081 123.425 18.6424 123.144 18.7134 122.869L20.7027 115.149C20.7736 114.874 21.0542 114.709 21.3294 114.78Z" fill="black"/>
<path fill-rule="evenodd" clip-rule="evenodd" d="M35.0422 113.236C35.3174 113.307 35.483 113.587 35.4121 113.862L33.1742 122.547C33.1033 122.822 32.8226 122.987 32.5474 122.916C32.2722 122.846 32.1066 122.565 32.1775 122.29L34.4154 113.606C34.4864 113.33 34.767 113.165 35.0422 113.236ZM31.7558 113.236C32.031 113.307 32.1967 113.587 32.1257 113.862L29.7386 123.126C29.6676 123.401 29.387 123.567 29.1118 123.496C28.8366 123.425 28.671 123.144 28.7419 122.869L31.129 113.606C31.2 113.33 31.4806 113.165 31.7558 113.236ZM28.615 114.265C28.8902 114.336 29.0558 114.616 28.9849 114.892L26.5978 124.155C26.5268 124.43 26.2462 124.596 25.971 124.525C25.6958 124.454 25.5301 124.173 25.6011 123.898L27.9882 114.635C28.0592 114.36 28.3398 114.194 28.615 114.265Z" fill="black"/>
<path fill-rule="evenodd" clip-rule="evenodd" d="M9.91631 110.956C10.1915 111.026 10.3572 111.307 10.2862 111.582L9.56639 114.376C9.49547 114.651 9.21485 114.816 8.93963 114.746C8.6644 114.675 8.49878 114.394 8.56971 114.119L9.28954 111.325C9.36047 111.05 9.64108 110.885 9.91631 110.956ZM12.6025 111.69C12.8778 111.761 13.0434 112.042 12.9725 112.317L10.8505 120.551C10.7796 120.826 10.499 120.992 10.2238 120.921C9.94854 120.85 9.78292 120.57 9.85385 120.294L11.9758 112.06C12.0467 111.785 12.3273 111.619 12.6025 111.69ZM15.5826 112.879C15.8579 112.95 16.0235 113.23 15.9526 113.506L13.8886 121.515C13.8177 121.79 13.5371 121.956 13.2618 121.885C12.9866 121.814 12.821 121.533 12.8919 121.258L14.9559 113.249C15.0268 112.974 15.3074 112.808 15.5826 112.879Z" fill="black"/>
<path fill-rule="evenodd" clip-rule="evenodd" d="M44.6984 111.69C44.9737 111.761 45.1393 112.041 45.0684 112.317L42.6981 121.514C42.6272 121.789 42.3466 121.955 42.0714 121.884C41.7961 121.813 41.6305 121.532 41.7014 121.257L44.0717 112.06C44.1426 111.784 44.4232 111.619 44.6984 111.69ZM41.2794 112.204C41.5547 112.275 41.7203 112.556 41.6494 112.831L39.2622 122.094C39.1913 122.37 38.9107 122.535 38.6354 122.464C38.3602 122.393 38.1946 122.113 38.2655 121.838L40.6527 112.574C40.7236 112.299 41.0042 112.133 41.2794 112.204ZM38.2712 112.719C38.5465 112.79 38.7121 113.071 38.6412 113.346L36.254 122.609C36.1831 122.884 35.9025 123.05 35.6272 122.979C35.352 122.908 35.1864 122.627 35.2573 122.352L37.6445 113.089C37.7154 112.814 37.996 112.648 38.2712 112.719Z" fill="black"/>
<path fill-rule="evenodd" clip-rule="evenodd" d="M48.7976 107.168C49.0818 107.172 49.3083 107.407 49.3035 107.691L49.1728 115.434C49.168 115.718 48.9337 115.944 48.6495 115.94C48.3654 115.935 48.1389 115.701 48.1437 115.416L48.2744 107.674C48.2792 107.389 48.5135 107.163 48.7976 107.168ZM45.9605 109.483C46.2445 109.471 46.4839 109.692 46.4953 109.976L46.8276 118.281C46.8389 118.565 46.6179 118.804 46.3339 118.815C46.0499 118.827 45.8105 118.606 45.7991 118.322L45.4668 110.018C45.4555 109.734 45.6765 109.494 45.9605 109.483Z" fill="black"/>
<path fill-rule="evenodd" clip-rule="evenodd" d="M230.726 86.4739C231.001 86.5449 231.167 86.8255 231.096 87.1007L228.841 95.8493C228.77 96.1246 228.49 96.2902 228.214 96.2192C227.939 96.1483 227.774 95.8677 227.844 95.5925L230.099 86.8439C230.17 86.5686 230.451 86.403 230.726 86.4739ZM227.439 86.4739C227.715 86.5449 227.88 86.8255 227.809 87.1007L225.555 95.8493C225.484 96.1246 225.203 96.2902 224.928 96.2192C224.653 96.1483 224.487 95.8677 224.558 95.5925L226.813 86.8439C226.884 86.5686 227.164 86.403 227.439 86.4739ZM224.51 86.6844C224.785 86.7554 224.95 87.036 224.88 87.3112L222.679 95.8495C222.608 96.1247 222.328 96.2903 222.052 96.2194C221.777 96.1485 221.612 95.8678 221.682 95.5926L223.883 87.0544C223.954 86.7791 224.234 86.6135 224.51 86.6844Z" fill="black"/>
<path fill-rule="evenodd" clip-rule="evenodd" d="M221.73 86.4739C222.005 86.5449 222.171 86.8255 222.1 87.1007L219.845 95.8493C219.774 96.1245 219.494 96.2902 219.218 96.2192C218.943 96.1483 218.777 95.8677 218.848 95.5925L221.103 86.8438C221.174 86.5686 221.454 86.403 221.73 86.4739ZM218.443 86.4739C218.719 86.5449 218.884 86.8255 218.813 87.1007L216.824 94.8201C216.753 95.0953 216.472 95.2609 216.197 95.19C215.922 95.1191 215.756 94.8385 215.827 94.5632L217.817 86.8438C217.887 86.5686 218.168 86.403 218.443 86.4739ZM215.568 86.4739C215.843 86.5449 216.009 86.8255 215.938 87.1007L213.948 94.8201C213.877 95.0953 213.597 95.2609 213.322 95.19C213.046 95.1191 212.881 94.8385 212.952 94.5632L214.941 86.8438C215.012 86.5686 215.293 86.403 215.568 86.4739Z" fill="black"/>
<path fill-rule="evenodd" clip-rule="evenodd" d="M237.5 84.4151C237.775 84.486 237.94 84.7667 237.869 85.0419L235.635 93.7144C235.564 93.9897 235.283 94.1553 235.008 94.0844C234.733 94.0134 234.567 93.7328 234.638 93.4576L236.873 84.785C236.944 84.5098 237.224 84.3442 237.5 84.4151ZM234.359 85.4444C234.634 85.5153 234.8 85.7959 234.729 86.0711L232.607 94.3051C232.536 94.5804 232.255 94.746 231.98 94.6751C231.705 94.6041 231.539 94.3235 231.61 94.0483L233.732 85.8143C233.803 85.5391 234.083 85.3734 234.359 85.4444ZM239.46 89.5614C239.735 89.6323 239.901 89.9129 239.83 90.1881L238.921 93.7144C238.85 93.9897 238.569 94.1553 238.294 94.0844C238.019 94.0134 237.853 93.7328 237.924 93.4576L238.833 89.9313C238.904 89.6561 239.184 89.4904 239.46 89.5614Z" fill="black"/>
<path fill-rule="evenodd" clip-rule="evenodd" d="M209.445 84.4151C209.72 84.486 209.886 84.7667 209.815 85.0419L207.693 93.2759C207.622 93.5511 207.341 93.7167 207.066 93.6458C206.791 93.5749 206.625 93.2943 206.696 93.019L208.818 84.785C208.889 84.5098 209.17 84.3442 209.445 84.4151ZM212.466 85.4444C212.741 85.5153 212.907 85.7959 212.836 86.0711L210.714 94.3051C210.643 94.5804 210.362 94.746 210.087 94.675C209.812 94.6041 209.646 94.3235 209.717 94.0483L211.839 85.8143C211.91 85.5391 212.191 85.3734 212.466 85.4444ZM206.569 84.4151C206.844 84.486 207.01 84.7667 206.939 85.0419L204.817 93.2759C204.746 93.5511 204.466 93.7167 204.19 93.6458C203.915 93.5749 203.75 93.2943 203.821 93.019L205.942 84.785C206.013 84.5098 206.294 84.3442 206.569 84.4151ZM191.848 141.538C192.124 141.609 192.289 141.89 192.218 142.165L190.76 147.826C190.689 148.101 190.408 148.267 190.133 148.196C189.858 148.125 189.692 147.845 189.763 147.569L191.222 141.908C191.293 141.633 191.573 141.468 191.848 141.538Z" fill="black"/>
<path fill-rule="evenodd" clip-rule="evenodd" d="M93.6281 68.4632C93.9034 68.5341 94.069 68.8147 93.998 69.09L92.1414 76.2947C92.0704 76.5699 91.7898 76.7355 91.5146 76.6646C91.2394 76.5937 91.0738 76.3131 91.1447 76.0379L93.0014 68.8331C93.0723 68.5579 93.3529 68.3923 93.6281 68.4632ZM87.7314 67.4339C88.0066 67.5049 88.1723 67.7855 88.1013 68.0607L86.4456 74.4858C86.3746 74.761 86.094 74.9266 85.8188 74.8557C85.5436 74.7848 85.378 74.5042 85.4489 74.229L87.1046 67.8039C87.1756 67.5286 87.4562 67.363 87.7314 67.4339ZM90.3418 68.4632C90.617 68.5341 90.7826 68.8147 90.7117 69.09L89.1202 75.2655C89.0493 75.5407 88.7687 75.7063 88.4935 75.6354C88.2182 75.5644 88.0526 75.2838 88.1235 75.0086L89.715 68.8331C89.7859 68.5579 90.0665 68.3923 90.3418 68.4632Z" fill="black"/>
<path fill-rule="evenodd" clip-rule="evenodd" d="M84.4983 66.9194C84.7736 66.9904 84.9392 67.271 84.8683 67.5462L83.3587 73.4041C83.2877 73.6794 83.0071 73.845 82.7319 73.774C82.4567 73.7031 82.291 73.4225 82.362 73.1473L83.8716 67.2894C83.9425 67.0141 84.2231 66.8485 84.4983 66.9194Z" fill="black"/>
<path fill-rule="evenodd" clip-rule="evenodd" d="M103.261 67.9466C103.536 68.0175 103.702 68.2981 103.631 68.5734L101.888 75.3375C101.817 75.6127 101.536 75.7783 101.261 75.7074C100.986 75.6365 100.82 75.3559 100.891 75.0806L102.634 68.3165C102.705 68.0413 102.986 67.8757 103.261 67.9466ZM99.9746 67.9466C100.25 68.0175 100.415 68.2981 100.344 68.5734L98.3552 76.2927C98.2843 76.568 98.0036 76.7336 97.7284 76.6627C97.4532 76.5917 97.2876 76.3111 97.3585 76.0359L99.3478 68.3165C99.4187 68.0413 99.6993 67.8757 99.9746 67.9466ZM96.9429 68.5522C97.2181 68.6231 97.3838 68.9037 97.3128 69.179L95.4796 76.2927C95.4087 76.568 95.1281 76.7336 94.8528 76.6626C94.5776 76.5917 94.412 76.3111 94.4829 76.0359L96.3161 68.9221C96.3871 68.6469 96.6677 68.4813 96.9429 68.5522Z" fill="black"/>
<path fill-rule="evenodd" clip-rule="evenodd" d="M110.429 64.3448C110.704 64.4157 110.87 64.6963 110.799 64.9716L108.412 74.2348C108.341 74.51 108.06 74.6757 107.785 74.6047C107.51 74.5338 107.344 74.2532 107.415 73.978L109.802 64.7147C109.873 64.4395 110.154 64.2739 110.429 64.3448ZM106.758 67.4326C107.033 67.5035 107.199 67.7841 107.128 68.0593L105.139 75.7787C105.068 76.0539 104.787 76.2195 104.512 76.1486C104.237 76.0777 104.071 75.7971 104.142 75.5218L106.131 67.8025C106.202 67.5272 106.483 67.3616 106.758 67.4326Z" fill="black"/>
<path fill-rule="evenodd" clip-rule="evenodd" d="M163.134 128.656L152.841 126.598L155.929 125.571C150.268 99.8395 137.917 46.8331 121.964 43.7454C112.845 41.9804 101.894 59.6988 100.35 66.3889L103.952 67.9328L93.6595 68.4474L95.718 64.3304L97.2619 65.3596C99.6635 57.9833 106.731 42.6132 121.964 42.2015C137.197 41.7898 154.728 97.0948 161.075 124.541L164.678 124.025L163.134 128.656ZM177.029 126.667L174.97 122.55L179.087 123.579C180.117 104.538 186.461 75.8272 202.76 80.865C209.388 82.9137 210.104 82.6578 211.161 82.2803C211.662 82.101 212.241 81.8942 213.567 81.8942L215.626 86.0112L208.936 84.4673C208.249 83.095 203.069 81.7913 200.187 83.4381C200.098 83.4887 200.005 83.5414 199.908 83.5966L199.905 83.5979C196.029 85.7907 185.199 91.9172 182.69 124.539C182.665 124.854 183.705 125.239 185.226 125.801L185.227 125.801C185.856 126.033 186.568 126.296 187.321 126.598L177.029 126.667ZM309.287 159.42L310.831 190.812L278.925 180.519L292.819 175.888C291.669 173.648 290.455 171.145 289.153 168.46L289.152 168.459L289.152 168.458C279.38 148.313 264.636 117.917 234.667 111.56C209.759 106.276 184.748 136.262 184.748 136.262C184.748 136.262 187.321 136.776 190.924 136.776L173.426 140.493L174.97 134.203L179.909 134.832L178.573 136.776C190.924 120.422 215.317 99.6203 238.784 103.326C276.866 109.339 301.053 171.771 301.053 171.771C301.053 171.771 307.229 164.909 309.287 159.42ZM150.783 126.598L156.444 132.259L148.21 137.405L149.754 132.259C138.775 114.933 113.73 83.8838 86.9694 84.9131C64.9184 85.7612 50.9457 100.866 46.8287 105.498L43.7409 111.159L37.0508 105.498H43.7409C51.9749 95.7202 73.0745 82.34 85.4255 82.34C100.864 82.34 111.671 83.8838 127.625 98.808C140.387 110.747 147.181 122.481 150.783 130.2V126.598Z" fill="url(#paint1_radial_1141_394169)" fill-opacity="0.5"/>
<path fill-rule="evenodd" clip-rule="evenodd" d="M204.79 112.961C194.274 119.704 185.131 128.948 178.986 137.085C178.817 137.308 178.501 137.356 178.274 137.192C178.047 137.029 177.992 136.714 178.151 136.483L179.009 135.235L175.363 134.77L174.124 139.818L186.972 137.089C186.78 137.069 186.598 137.049 186.427 137.029C185.872 136.963 185.431 136.898 185.126 136.849C184.974 136.824 184.856 136.803 184.776 136.789C184.736 136.781 184.705 136.776 184.684 136.772L184.659 136.767L184.652 136.766L184.651 136.765C184.65 136.765 184.65 136.765 184.75 136.26C184.355 135.931 184.355 135.93 184.356 135.93L184.361 135.924L184.375 135.907L184.431 135.841C184.48 135.783 184.553 135.698 184.649 135.588C184.84 135.367 185.123 135.045 185.492 134.637C186.23 133.822 187.31 132.665 188.684 131.293C191.431 128.552 195.356 124.95 200.066 121.512C209.461 114.656 222.098 108.366 234.776 111.055C251.936 114.695 264.128 126.132 273.236 138.986C280.199 148.814 285.394 159.525 289.63 168.258C290.929 170.936 292.138 173.428 293.28 175.651C293.352 175.792 293.355 175.958 293.289 176.102C293.223 176.245 293.094 176.351 292.941 176.387L283.014 178.743L308.26 191.128V162.813C306.741 165.106 305.203 167.224 303.976 168.855C303.233 169.842 302.604 170.651 302.159 171.214C301.937 171.495 301.761 171.715 301.641 171.865C301.58 171.94 301.534 171.997 301.502 172.036L301.467 172.08L301.457 172.091L301.455 172.094L301.454 172.095C301.454 172.095 301.454 172.095 301.056 171.769C300.576 171.955 300.576 171.955 300.576 171.955L300.572 171.945L300.559 171.912C300.547 171.883 300.53 171.838 300.507 171.78C300.46 171.663 300.391 171.489 300.298 171.261C300.113 170.805 299.835 170.134 299.469 169.278C298.736 167.565 297.645 165.109 296.218 162.144C293.362 156.211 289.16 148.241 283.772 140.085C278.384 131.928 271.819 123.6 264.242 116.942C256.664 110.283 248.099 105.316 238.706 103.833C227.147 102.008 215.311 106.214 204.79 112.961ZM301.056 171.769L300.576 171.955C300.642 172.126 300.794 172.249 300.975 172.278C301.156 172.306 301.338 172.237 301.454 172.095L301.056 171.769ZM301.206 170.76C301.019 170.304 300.755 169.667 300.415 168.873C299.677 167.148 298.58 164.678 297.145 161.697C294.276 155.736 290.051 147.723 284.631 139.518C279.213 131.316 272.59 122.908 264.921 116.169C257.254 109.431 248.515 104.339 238.866 102.816C226.958 100.936 214.864 105.278 204.234 112.094C194.521 118.322 185.981 126.648 179.846 134.304L175.038 133.691C174.778 133.658 174.535 133.825 174.473 134.079L172.929 140.369C172.887 140.541 172.936 140.722 173.059 140.849C173.182 140.977 173.362 141.032 173.536 140.995L191.033 137.278C191.291 137.224 191.465 136.983 191.438 136.721C191.41 136.459 191.189 136.26 190.926 136.26C189.149 136.26 187.625 136.133 186.547 136.007C186.241 135.971 185.971 135.935 185.742 135.902C185.888 135.737 186.059 135.544 186.255 135.327C186.983 134.524 188.051 133.379 189.411 132.022C192.132 129.306 196.017 125.742 200.673 122.344C210.01 115.529 222.332 109.467 234.562 112.062C251.367 115.626 263.363 126.833 272.396 139.581C279.304 149.332 284.445 159.93 288.678 168.655C289.873 171.119 290.996 173.433 292.065 175.537L281.381 178.073C281.17 178.123 281.013 178.3 280.989 178.516C280.964 178.732 281.078 178.94 281.273 179.036L308.548 192.416C308.708 192.494 308.897 192.484 309.047 192.39C309.198 192.297 309.29 192.131 309.29 191.954V161.076C309.29 160.847 309.139 160.646 308.919 160.582C308.699 160.518 308.464 160.607 308.341 160.8C306.549 163.615 304.628 166.277 303.153 168.236C302.416 169.215 301.792 170.018 301.351 170.576C301.3 170.641 301.252 170.702 301.206 170.76ZM184.75 136.26L184.356 135.93C184.239 136.069 184.205 136.26 184.265 136.431C184.326 136.603 184.473 136.73 184.651 136.765L184.75 136.26Z" fill="#22222A"/>
<path fill-rule="evenodd" clip-rule="evenodd" d="M186.43 93.374C182.328 102.241 180.107 114.127 179.595 123.606C179.586 123.76 179.51 123.902 179.386 123.993C179.263 124.084 179.105 124.115 178.956 124.078L175.925 123.32L177.339 126.15L184.551 126.101C184.293 126.006 184.052 125.915 183.833 125.829C183.412 125.663 183.041 125.504 182.774 125.35C182.642 125.274 182.505 125.183 182.398 125.072C182.297 124.968 182.149 124.772 182.17 124.5C183.461 107.724 186.949 97.8751 190.608 91.9462C194.1 86.2876 197.73 84.2337 199.645 83.1503C199.743 83.0948 199.836 83.0419 199.925 82.9912C201.514 82.0834 203.668 82.0123 205.463 82.3129C206.37 82.4648 207.218 82.7166 207.894 83.0286C208.463 83.2914 208.993 83.6339 209.285 84.0605L210.111 84.4184L214.692 85.307L213.284 82.4915C212.192 82.7527 211.401 82.892 210.865 82.9664C210.566 83.008 210.346 83.0293 210.197 83.0402C210.123 83.0457 210.067 83.0485 210.027 83.05C210.007 83.0508 209.992 83.0512 209.98 83.0514L209.968 83.0516C209.355 83.069 208.956 82.9405 208.215 82.6701C208.13 82.6392 208.04 82.606 207.943 82.5705C207.198 82.2967 206.076 81.8845 204.146 81.2879C200.241 80.0812 196.862 80.893 193.935 83.0896C190.984 85.3043 188.482 88.938 186.43 93.374ZM209.958 82.0224L209.961 82.0223C209.966 82.0222 209.975 82.022 209.988 82.0215C210.015 82.0205 210.059 82.0183 210.122 82.0137C210.247 82.0045 210.445 81.9857 210.724 81.9469C211.282 81.8694 212.165 81.7124 213.436 81.3948C213.67 81.3364 213.913 81.4482 214.021 81.664L216.08 85.781C216.167 85.9563 216.148 86.1662 216.029 86.3223C215.911 86.4784 215.714 86.5536 215.521 86.5163L209.86 85.4181C209.824 85.411 209.788 85.3999 209.754 85.3851L208.725 84.9395C208.614 84.8914 208.523 84.8057 208.469 84.6974C208.381 84.5209 208.071 84.244 207.462 83.9631C206.884 83.6962 206.127 83.4677 205.293 83.328C203.606 83.0454 201.729 83.1458 200.436 83.8848C200.346 83.936 200.252 83.9894 200.153 84.0454C198.29 85.099 194.839 87.0504 191.484 92.4868C187.95 98.2118 184.502 107.839 183.209 124.41C183.23 124.424 183.256 124.44 183.288 124.458C183.483 124.571 183.79 124.706 184.209 124.871C184.553 125.005 184.951 125.153 185.397 125.317C185.489 125.351 185.583 125.386 185.679 125.422C186.238 125.629 186.856 125.86 187.506 126.12C187.734 126.211 187.866 126.451 187.821 126.693C187.775 126.935 187.564 127.111 187.318 127.112L177.026 127.181C176.83 127.182 176.65 127.072 176.562 126.897L174.504 122.78C174.414 122.6 174.437 122.384 174.562 122.227C174.688 122.071 174.894 122.001 175.089 122.05L178.603 122.929C179.181 113.472 181.412 101.77 185.496 92.9418C187.582 88.4325 190.173 84.626 193.317 82.2664C196.485 79.8888 200.204 78.9924 204.449 80.3045C206.405 80.9091 207.548 81.3289 208.297 81.604C208.393 81.6394 208.483 81.6724 208.567 81.7031C209.302 81.9709 209.539 82.0346 209.943 82.0226L209.956 82.0224L209.958 82.0224Z" fill="#22222A"/>
<path fill-rule="evenodd" clip-rule="evenodd" d="M161.454 123.915L165.063 123.011C165.251 122.964 165.449 123.026 165.576 123.171C165.703 123.317 165.738 123.522 165.666 123.701L163.607 128.847C163.515 129.078 163.272 129.209 163.029 129.161L152.736 127.102C152.507 127.057 152.338 126.863 152.323 126.63C152.309 126.397 152.453 126.183 152.674 126.109L155.323 125.227C152.487 112.356 148.027 92.9594 142.315 76.3328C139.425 67.9193 136.222 60.2395 132.76 54.4795C131.029 51.5998 129.243 49.2168 127.411 47.4641C125.579 45.7104 123.727 44.6116 121.862 44.2506C119.765 43.8448 117.509 44.5493 115.233 46.0294C112.961 47.5068 110.728 49.7209 108.712 52.2196C104.838 57.0219 101.851 62.7645 100.951 66.0887L104.15 67.4597C104.371 67.5541 104.497 67.7878 104.454 68.0236C104.412 68.2593 104.213 68.4348 103.973 68.4467L93.681 68.9613C93.4982 68.9705 93.3244 68.8819 93.2244 68.7288C93.1243 68.5756 93.1131 68.3808 93.195 68.2172L95.2535 64.1002C95.3195 63.9682 95.439 63.8709 95.5817 63.833C95.7243 63.7951 95.8764 63.8203 95.9992 63.9022L96.9826 64.5578C98.2521 60.8394 100.597 55.4533 104.4 50.8414C108.434 45.9493 114.137 41.8981 121.946 41.687C124.012 41.6312 126.067 42.5214 128.071 44.0904C130.075 45.6601 132.068 47.9386 134.026 50.7388C137.943 56.3402 141.778 64.1127 145.323 72.7288C152.33 89.7547 158.247 110.173 161.454 123.915ZM127.436 44.9008C125.541 43.4168 123.715 42.6688 121.974 42.7159C114.55 42.9166 109.102 46.7563 105.194 51.4962C101.28 56.2433 98.9373 61.8629 97.747 65.5189C97.6971 65.6721 97.5785 65.793 97.4263 65.8458C97.2742 65.8986 97.1061 65.8771 96.9722 65.7878L95.9133 65.0819L94.5096 67.8894L101.701 67.5298L100.143 66.8619C99.9137 66.7638 99.7879 66.5158 99.8439 66.2731C100.639 62.8265 103.811 56.6546 107.911 51.5733C109.966 49.0267 112.277 46.7241 114.672 45.1666C117.062 43.6119 119.594 42.7634 122.057 43.2401C124.181 43.6511 126.204 44.8841 128.123 46.7206C130.043 48.5581 131.883 51.0236 133.642 53.9493C137.159 59.8001 140.389 67.5585 143.289 75.9984C149.089 92.8827 153.597 112.593 156.427 125.458C156.484 125.715 156.337 125.973 156.088 126.057L154.838 126.473L162.811 128.068L164.336 124.254L161.196 125.041C161.062 125.074 160.92 125.053 160.803 124.98C160.685 124.908 160.601 124.792 160.57 124.657C157.401 110.953 151.439 90.2936 144.372 73.1204C140.837 64.5308 137.036 56.8389 133.183 51.3286C131.256 48.5731 129.331 46.384 127.436 44.9008Z" fill="#22222A"/>
<path fill-rule="evenodd" clip-rule="evenodd" d="M63.2972 90.696C55.4804 95.2451 48.2 101 44.1336 105.828C44.0358 105.945 43.8917 106.012 43.7399 106.012H38.4547L43.5904 110.357L46.3759 105.251C46.3946 105.216 46.4171 105.184 46.443 105.155C50.5715 100.511 64.6699 85.2546 86.9487 84.3977C100.53 83.8754 113.609 91.4881 124.621 101.318C135.647 111.159 144.682 123.294 150.187 131.982C150.267 132.108 150.288 132.262 150.246 132.405L149.094 136.244L155.621 132.164L151.297 127.839V130.199C151.297 130.44 151.129 130.649 150.893 130.701C150.658 130.754 150.418 130.635 150.316 130.417C146.735 122.743 139.977 111.068 127.272 99.1827C119.332 91.7549 112.703 87.6851 106.166 85.4636C99.6229 83.2403 93.1314 82.8535 85.4246 82.8535C79.392 82.8535 71.129 86.1382 63.2972 90.696ZM62.7795 89.8064C70.6438 85.2297 79.1061 81.8242 85.4246 81.8242C93.1564 81.8242 99.7879 82.2093 106.497 84.489C113.211 86.7704 119.962 90.9347 127.975 98.431C139.721 109.419 146.437 120.237 150.267 127.945V126.597C150.267 126.388 150.393 126.201 150.585 126.121C150.777 126.041 150.999 126.086 151.146 126.233L156.807 131.894C156.918 132.004 156.972 132.16 156.954 132.316C156.936 132.472 156.849 132.611 156.716 132.694L148.482 137.84C148.3 137.954 148.067 137.943 147.897 137.813C147.726 137.683 147.654 137.461 147.716 137.256L149.192 132.335C143.708 123.712 134.785 111.769 123.936 102.086C112.991 92.3165 100.168 84.9193 86.9882 85.4262C65.2336 86.2629 51.405 101.126 47.2513 105.795L44.1917 111.404C44.1177 111.54 43.9864 111.635 43.8344 111.664C43.6823 111.692 43.5256 111.651 43.4075 111.551L36.7174 105.89C36.5525 105.75 36.4923 105.523 36.5666 105.32C36.6409 105.117 36.8338 104.982 37.0498 104.982H43.5016C47.6957 100.073 54.9973 94.3354 62.7795 89.8064Z" fill="#22222A"/>
<g clip-path="url(#clip0_1141_394169)">
<path d="M20.3501 98.8105L26.3289 87.7953L20.3501 75.8965L18.8333 76.6475V98.0595L20.3501 98.8105ZM34.8701 81.4188L24.9594 79.7548L27.1978 76.6033L37.2116 81.0507L34.8701 81.4188ZM34.9879 93.244L23.2364 95.1731L25.6957 98.5602L37.2116 93.5827L34.9879 93.244Z" fill="#9D5125"/>
<path d="M23.8844 76.7064V97.9859L20.3501 98.8105V75.8965L23.8844 76.7064Z" fill="#F58534"/>
<path d="M23.8843 100.578L22.0288 99.6505V75.0576L23.8843 74.1299L27.3744 88.8414L23.8843 100.578ZM37.2116 81.0512L34.8554 81.4194V93.2151L37.2116 93.5833L39.3616 87.5897L37.2116 81.0512Z" fill="#9D5125"/>
<path d="M27.4922 75.1607V99.5621L23.8843 100.578V74.1299L27.4922 75.1607Z" fill="#F58534"/>
<path d="M39.6708 96.1162V93.1267L23.8843 96.0573V100.578L39.6708 96.1162ZM39.7003 78.6214V81.5225L23.8843 78.5183V74.1299L39.7003 78.6214Z" fill="#F58534"/>
<path d="M37.2117 96.8078V77.9141L39.7446 78.6062V96.1157L37.2117 96.8078Z" fill="#F58534"/>
<path d="M44.8397 79.667L47.1665 85.0421L40.3777 85.3661L37.9773 85.2041L44.8397 79.667Z" fill="#6B3B19"/>
<path d="M37.9773 80.7862V85.2041L44.8397 84.8065V79.667L37.9773 80.7862Z" fill="#9D5125"/>
<path d="M34.7964 84.9835L31.5125 84.7626L38.478 77.7529L42.0123 84.527L34.7964 84.9835Z" fill="#6B3B19"/>
<path d="M31.5125 79.3728V84.7626L38.478 84.1736V77.7529L31.5125 79.3728ZM37.9773 94.0254V89.6076L47.1665 89.7548L44.8397 95.1299L37.9773 94.0254Z" fill="#9D5125"/>
<path d="M31.5125 95.424V90.0342L42.0123 90.2698L38.478 97.0439L31.5125 95.424Z" fill="#9D5125"/>
<path d="M34.7964 89.8135L31.5125 90.0344L38.478 90.6234L42.0123 90.27L34.7964 89.8135ZM44.8397 89.9902L47.1665 89.7546L40.3777 89.4453L37.9773 89.6073L44.8397 89.9902Z" fill="#FCBF92"/>
<path d="M44.8398 79.6673V84.8068L47.1665 85.0424V80.3595L44.8398 79.6673ZM42.0123 78.8132V84.527L38.478 84.1736V77.7529L42.0123 78.8132ZM44.8398 95.1299V89.9904L47.1665 89.7548V94.4378L44.8398 95.1299ZM42.0123 95.984V90.2702L38.478 90.6237V97.0443L42.0123 95.984Z" fill="#F58534"/>
</g>
<path d="M186.102 111.424L176.542 101.852C175.41 100.781 174.061 99.9664 172.587 99.4616C169.321 98.3741 166.07 99.223 163.438 101.852L153.854 111.424C152.784 112.557 151.969 113.905 151.464 115.379C150.373 118.646 151.221 121.897 153.854 124.526L163.426 134.098C164.556 135.169 165.904 135.984 167.377 136.488C168.269 136.79 169.204 136.946 170.146 136.95C172.443 136.95 174.641 135.98 176.526 134.098L186.095 124.526C187.166 123.394 187.983 122.045 188.489 120.571C189.576 117.304 188.727 114.057 186.095 111.424H186.102ZM170.714 104.629C171.437 104.861 172.103 105.242 172.669 105.748L175.498 108.58L169.982 114.092L164.467 108.576L167.31 105.729C168.073 104.97 169.149 104.164 170.721 104.625L170.714 104.629ZM156.639 117.234C156.872 116.51 157.254 115.844 157.762 115.278L160.59 112.449L166.106 117.965L160.586 123.481L157.742 120.633C156.98 119.874 156.178 118.798 156.635 117.226L156.639 117.234ZM169.243 131.309C168.519 131.079 167.852 130.698 167.287 130.19L164.467 127.393L169.982 121.873L175.498 127.389L172.654 130.237C171.891 130.996 170.819 131.802 169.243 131.34V131.309ZM183.325 118.732C183.093 119.455 182.711 120.121 182.206 120.688L179.378 123.481L173.863 117.965L179.378 112.449L182.222 115.293C182.985 116.052 183.787 117.128 183.329 118.701" fill="#00ABE4"/>
<g clip-path="url(#clip1_1141_394169)">
<path d="M89.0703 50.5272C88.3531 50.5272 87.6759 50.1996 87.2176 49.6056L80.2455 40.6964C79.7873 40.1024 79.608 39.3447 79.7873 38.6072L82.2774 27.4861C82.4367 26.7488 82.9148 26.1548 83.5723 25.8272L93.6522 20.8707C93.971 20.707 94.3296 20.625 94.6882 20.625C95.0468 20.625 95.4053 20.7068 95.724 20.8708L105.804 25.8067C106.461 26.1343 106.94 26.7283 107.099 27.4657L109.589 38.5868C109.748 39.3241 109.589 40.0819 109.131 40.6759L102.159 49.5851C101.7 50.1585 101.023 50.5067 100.306 50.5067L89.0705 50.5272H89.0703Z" fill="#326DE6"/>
<path d="M94.6648 21.1355C94.9438 21.1355 95.2227 21.1969 95.4816 21.3198L105.562 26.2557C106.08 26.522 106.478 27.0135 106.598 27.587L109.088 38.7081C109.227 39.3021 109.088 39.9166 108.709 40.3876L101.737 49.2969C101.378 49.7679 100.82 50.0341 100.243 50.0341H89.067C88.4893 50.0341 87.9316 49.7679 87.573 49.2969L80.6007 40.3876C80.2421 39.9166 80.1026 39.3021 80.2222 38.7081L82.7123 27.587C82.8517 26.9931 83.2302 26.5015 83.7482 26.2557L93.8283 21.2994C94.0873 21.197 94.3861 21.1356 94.6649 21.1356L94.6648 21.1355ZM94.6648 20.1729C94.2465 20.1729 93.8282 20.2753 93.4297 20.4596L83.3498 25.4161C82.5529 25.8052 81.9951 26.522 81.7959 27.4026L79.3058 38.5239C79.1066 39.4046 79.3058 40.3057 79.8636 41.0226L86.8359 49.9318C87.3739 50.6281 88.1905 51.0172 89.0471 51.0172H100.223C101.079 51.0172 101.896 50.6281 102.434 49.9318L109.406 41.0225C109.964 40.3262 110.163 39.4046 109.964 38.5237L107.474 27.4026C107.275 26.522 106.717 25.8052 105.92 25.4161L95.88 20.4594C95.5015 20.2753 95.0832 20.1729 94.6648 20.1729Z" fill="white"/>
<path d="M104.769 37.8277C104.749 37.8277 104.749 37.8277 104.769 37.8277H104.749C104.729 37.8277 104.709 37.8277 104.709 37.8073C104.669 37.8073 104.63 37.7868 104.59 37.7868C104.45 37.7663 104.331 37.7459 104.211 37.7459C104.151 37.7459 104.092 37.7459 104.012 37.7253H103.992C103.574 37.6844 103.235 37.6434 102.916 37.541C102.777 37.4795 102.737 37.3977 102.697 37.3157C102.697 37.2952 102.677 37.2952 102.677 37.2748L102.418 37.1929C102.541 36.2295 102.493 35.2512 102.279 34.305C102.061 33.3508 101.684 32.4429 101.163 31.622L101.363 31.4377V31.3968C101.363 31.2943 101.382 31.1919 101.462 31.0895C101.701 30.8642 102 30.6799 102.359 30.4546C102.418 30.4136 102.478 30.3932 102.538 30.3521C102.657 30.2908 102.757 30.2294 102.877 30.1474C102.896 30.1269 102.936 30.1065 102.976 30.0656C102.996 30.045 103.016 30.045 103.016 30.0245C103.295 29.7787 103.355 29.3691 103.155 29.1028C103.056 28.9594 102.877 28.8776 102.697 28.8776C102.538 28.8776 102.398 28.939 102.259 29.0414L102.219 29.0823C102.179 29.1028 102.159 29.1438 102.12 29.1643C102.02 29.2667 101.94 29.3486 101.861 29.451C101.821 29.4919 101.781 29.5534 101.721 29.5943C101.442 29.9016 101.183 30.1474 100.924 30.3317C100.865 30.3726 100.805 30.3932 100.745 30.3932C100.705 30.3932 100.665 30.3932 100.626 30.3726H100.586L100.347 30.5365C100.088 30.2498 99.8087 30.004 99.5298 29.7583C98.329 28.7933 96.8839 28.2032 95.3663 28.0583L95.3464 27.792L95.3066 27.7511C95.2468 27.6896 95.1672 27.6282 95.1472 27.4849C95.1273 27.1571 95.1672 26.7884 95.207 26.3789V26.3584C95.207 26.2969 95.2269 26.215 95.2468 26.1535C95.2667 26.0308 95.2866 25.9078 95.3066 25.7644V25.5801C95.3066 25.2115 95.0276 24.9043 94.6891 24.9043C94.5296 24.9043 94.3703 24.9861 94.2508 25.109C94.1313 25.2319 94.0715 25.3957 94.0715 25.5801V25.7439C94.0715 25.8873 94.0914 26.0102 94.1312 26.1331C94.1511 26.1946 94.1511 26.256 94.171 26.3379V26.3584C94.2108 26.768 94.2707 27.1367 94.2309 27.4644C94.2109 27.6078 94.1312 27.6691 94.0715 27.7306L94.0317 27.7716L94.0117 28.0378C93.6531 28.0787 93.2945 28.1197 92.9359 28.2016C91.4021 28.5498 90.0474 29.3487 88.9917 30.4955L88.7924 30.3521H88.7526C88.7128 30.3521 88.6729 30.3726 88.6331 30.3726C88.5733 30.3726 88.5136 30.3521 88.4537 30.3112C88.1948 30.1269 87.9358 29.8606 87.657 29.5534C87.6172 29.5125 87.5774 29.451 87.5175 29.4101C87.4378 29.3076 87.3581 29.2257 87.2584 29.1234C87.2385 29.1028 87.1987 29.0824 87.1589 29.0414C87.139 29.0209 87.1191 29.0209 87.1191 29.0005C86.9957 28.8956 86.8409 28.8377 86.6808 28.8365C86.5015 28.8365 86.3222 28.9185 86.2226 29.0619C86.0233 29.3281 86.0832 29.7377 86.362 29.9835C86.3819 29.9835 86.3819 30.004 86.4018 30.004C86.4416 30.0245 86.4617 30.0654 86.5015 30.0859C86.621 30.1677 86.7206 30.2292 86.8402 30.2908C86.9 30.3112 86.9597 30.3521 87.0195 30.3932C87.378 30.6184 87.6769 30.8028 87.9159 31.0281C88.0155 31.1304 88.0155 31.2328 88.0155 31.3353V31.3762L88.2147 31.5606C88.1749 31.622 88.1351 31.663 88.1151 31.7244C87.119 33.3424 86.7405 35.2472 86.9995 37.1314L86.7405 37.2133C86.7405 37.2339 86.7206 37.2339 86.7206 37.2542C86.6808 37.3362 86.621 37.4181 86.5015 37.4795C86.2027 37.5819 85.8441 37.623 85.4258 37.6639H85.4058C85.3461 37.6639 85.2664 37.6639 85.2067 37.6844C85.0871 37.6844 84.9676 37.7048 84.8282 37.7253C84.7884 37.7253 84.7486 37.7459 84.7086 37.7459C84.6887 37.7459 84.6688 37.7459 84.6488 37.7663C84.2902 37.8482 84.0711 38.1964 84.1309 38.524C84.1907 38.8108 84.4497 38.9952 84.7683 38.9952C84.8282 38.9952 84.868 38.9952 84.9278 38.9747C84.9477 38.9747 84.9676 38.9747 84.9676 38.9542C85.0074 38.9542 85.0472 38.9337 85.087 38.9337C85.2266 38.8928 85.3262 38.8519 85.4457 38.7904C85.5054 38.7699 85.5651 38.7289 85.625 38.7085H85.6449C86.0233 38.5651 86.362 38.4422 86.6808 38.4012H86.7206C86.8402 38.4012 86.9199 38.4626 86.9796 38.5037C86.9995 38.5037 86.9995 38.5241 87.0194 38.5241L87.2984 38.4832C87.7765 39.9987 88.6928 41.3505 89.908 42.3336C90.1869 42.5588 90.4657 42.7432 90.7646 42.9276L90.6451 43.1937C90.6451 43.2143 90.665 43.2143 90.665 43.2346C90.7048 43.3166 90.7446 43.419 90.7048 43.5624C90.5854 43.8697 90.406 44.1768 90.1869 44.525V44.5455C90.1471 44.607 90.1073 44.6479 90.0675 44.7093C89.9877 44.8117 89.9279 44.9142 89.8482 45.0371C89.8283 45.0575 89.8084 45.0984 89.7885 45.1395C89.7885 45.16 89.7686 45.1804 89.7686 45.1804C89.6092 45.5286 89.7288 45.9178 90.0275 46.0611C90.1071 46.102 90.1869 46.1226 90.2666 46.1226C90.5056 46.1226 90.7447 45.9587 90.8642 45.7334C90.8642 45.7129 90.8841 45.6924 90.8841 45.6924C90.904 45.6515 90.9239 45.6106 90.9438 45.59C91.0037 45.4467 91.0236 45.3442 91.0634 45.2213L91.1232 45.0371C91.2626 44.6275 91.3623 44.2997 91.5415 44.013C91.6211 43.8901 91.7208 43.8697 91.8005 43.8286C91.8204 43.8286 91.8204 43.8286 91.8403 43.8082L91.9798 43.5419C92.8563 43.8901 93.8126 44.0744 94.7687 44.0744C95.3464 44.0744 95.9441 44.013 96.5019 43.8697C96.8529 43.789 97.1989 43.6864 97.5378 43.5624L97.6572 43.7877C97.6772 43.7877 97.6772 43.7877 97.6971 43.8082C97.7967 43.8286 97.8763 43.8697 97.956 43.9926C98.1154 44.2793 98.2349 44.6275 98.3743 45.0166V45.0371L98.4342 45.2213C98.474 45.3442 98.4939 45.4671 98.5536 45.59C98.5736 45.6309 98.5935 45.6515 98.6134 45.6924C98.6134 45.7129 98.6334 45.7334 98.6334 45.7334C98.7528 45.9791 98.9919 46.1226 99.231 46.1226C99.3107 46.1226 99.3904 46.102 99.47 46.0611C99.6094 45.9793 99.729 45.8563 99.7689 45.6924C99.8087 45.5286 99.8087 45.3442 99.7291 45.1804C99.7291 45.16 99.7091 45.16 99.7091 45.1395C99.6892 45.0986 99.6693 45.0577 99.6494 45.0371C99.5895 44.9142 99.5099 44.8117 99.4302 44.7093C99.3904 44.6479 99.3506 44.607 99.3108 44.5456V44.525C99.0915 44.1768 98.8923 43.8697 98.7928 43.5624C98.753 43.419 98.7928 43.3372 98.8127 43.2348C98.8127 43.2143 98.8326 43.2143 98.8326 43.1938L98.7329 42.9481C99.7888 42.3131 100.685 41.4119 101.363 40.306C101.721 39.7325 102 39.0975 102.199 38.4626L102.438 38.5036C102.458 38.5036 102.458 38.4831 102.478 38.4831C102.558 38.4422 102.618 38.3808 102.737 38.3808H102.777C103.096 38.4217 103.434 38.5445 103.813 38.688H103.833C103.892 38.7084 103.952 38.7493 104.012 38.7698C104.132 38.8313 104.231 38.8722 104.371 38.9133C104.41 38.9133 104.45 38.9337 104.49 38.9337C104.51 38.9337 104.53 38.9337 104.55 38.9542C104.61 38.9747 104.649 38.9747 104.709 38.9747C105.008 38.9747 105.267 38.7699 105.347 38.5037C105.347 38.2579 105.128 37.9302 104.769 37.8278V37.8277ZM95.5456 36.8241L94.669 37.2543L93.7925 36.8241L93.5735 35.8616L94.171 35.0833H95.1472L95.7448 35.8616L95.5457 36.8241H95.5456ZM100.745 34.6942C100.9 35.3715 100.947 36.0699 100.884 36.7626L97.8365 35.8616C97.5577 35.7798 97.3983 35.4929 97.458 35.2062C97.4779 35.1243 97.5179 35.0423 97.5776 34.9809L99.9881 32.7484C100.327 33.322 100.586 33.9773 100.745 34.6941V34.6942ZM99.0318 31.5197L96.4222 33.4244C96.203 33.5677 95.9041 33.5267 95.7249 33.3015C95.6652 33.24 95.6453 33.158 95.6253 33.0762L95.446 29.7377C96.8027 29.8983 98.0666 30.5264 99.0318 31.5197ZM93.2547 29.84C93.4739 29.7991 93.673 29.7581 93.8922 29.7172L93.7129 32.9941C93.693 33.2808 93.4739 33.5266 93.175 33.5266C93.0954 33.5266 92.9958 33.5061 92.9359 33.4652L90.2865 31.5197C91.1033 30.6799 92.1192 30.1064 93.2547 29.8401V29.84ZM89.3303 32.7483L91.7008 34.9193C91.92 35.1037 91.9399 35.4518 91.7607 35.6771C91.7008 35.7589 91.6212 35.8204 91.5216 35.841L88.4338 36.7626C88.3143 35.3699 88.6131 33.9567 89.3303 32.7483ZM88.7923 38.2987L91.9599 37.7456C92.2189 37.7252 92.4579 37.9096 92.5176 38.1758C92.5375 38.2986 92.5375 38.4011 92.4977 38.5036L91.2825 41.5142C90.167 40.7768 89.2705 39.6504 88.7924 38.2987H88.7923ZM96.0636 42.3744C95.6054 42.4768 95.1472 42.5382 94.669 42.5382C93.9719 42.5382 93.2945 42.4155 92.6572 42.2106L94.2309 39.2818C94.3902 39.0974 94.6491 39.0156 94.8683 39.1385C94.9613 39.197 95.0425 39.2735 95.1074 39.3637L96.6412 42.2106C96.462 42.272 96.2627 42.313 96.0635 42.3744H96.0636ZM99.9481 39.5276C99.4501 40.3468 98.7926 41.0022 98.0358 41.5142L96.7808 38.4215C96.721 38.1758 96.8206 37.9096 97.0596 37.7866C97.1392 37.7456 97.2389 37.7252 97.3385 37.7252L100.526 38.2782C100.406 38.7288 100.207 39.1385 99.9481 39.5276Z" fill="white"/>
</g>
<path fill-rule="evenodd" clip-rule="evenodd" d="M237.638 62.6547C234.873 60.0099 232.168 57.3052 229.523 54.5403C227.176 53.0661 224.772 51.6836 222.311 50.393C219.959 51.6441 217.645 52.9664 215.368 54.36C215.248 57.1248 215.248 59.8898 215.368 62.6547C215.575 62.8595 215.785 63.0398 215.999 63.1956C219.436 66.7221 222.922 70.2383 226.458 73.7442C227.632 73.7752 228.774 73.8654 229.884 74.0147C224.866 74.2246 219.817 74.2545 214.737 74.1048C213.725 73.8737 212.974 73.3026 212.483 72.3918C209.925 67.9962 207.46 63.5485 205.09 59.0483C204.97 58.5674 204.97 58.0867 205.09 57.6058C207.629 53.0684 210.214 48.5605 212.844 44.0819C213.247 43.6852 213.697 43.3547 214.196 43.0902C219.546 42.9699 224.895 42.9699 230.245 43.0902C230.96 43.264 231.531 43.6547 231.958 44.2622C234.376 48.5592 236.841 52.8268 239.351 57.0648C239.613 57.8295 239.674 58.6108 239.531 59.4089C239.031 60.5911 238.4 61.673 237.638 62.6547Z" fill="#529BF6"/>
<path fill-rule="evenodd" clip-rule="evenodd" d="M229.519 54.5389C229.549 57.1842 229.519 59.8289 229.428 62.4729C227.171 64.0355 224.797 65.418 222.306 66.6202C220.17 65.5226 218.067 64.3807 215.995 63.1942C215.781 63.0384 215.57 62.8581 215.364 62.6532C215.243 59.8884 215.243 57.1234 215.364 54.3586C217.641 52.9649 219.955 51.6426 222.306 50.3916C224.767 51.6821 227.171 53.0646 229.519 54.5389Z" fill="#F9FBFE"/>
<path fill-rule="evenodd" clip-rule="evenodd" d="M229.516 54.54C232.161 57.3049 234.866 60.0096 237.63 62.6543C235.787 66.0396 233.894 69.4056 231.95 72.7521C231.436 73.4745 230.745 73.8954 229.877 74.0144C228.767 73.8651 227.625 73.7749 226.451 73.7439C222.915 70.238 219.428 66.7218 215.992 63.1953C218.064 64.3818 220.168 65.5237 222.303 66.6213C224.794 65.4192 227.168 64.0367 229.426 62.474C229.516 59.83 229.546 57.1853 229.516 54.54Z" fill="#4C92E9"/>
<path fill-rule="evenodd" clip-rule="evenodd" d="M221.588 52.0146C221.823 52.3567 221.943 52.7776 221.948 53.2769C221.918 53.6976 221.888 54.1184 221.858 54.5391C220.911 55.0874 219.98 55.6585 219.063 56.2521C220.175 56.8378 221.257 57.4689 222.309 58.1455C223.367 57.4783 224.449 56.8472 225.555 56.2521C224.638 55.6585 223.706 55.0874 222.76 54.5391C222.61 53.6912 222.64 52.8497 222.85 52.0146C224.623 52.9909 226.366 54.0128 228.079 55.0801C228.319 57.1838 228.319 59.2874 228.079 61.3912C227.418 61.0305 226.757 60.6699 226.096 60.3093C225.946 59.172 225.856 58.0299 225.825 56.8832C224.803 57.4842 223.782 58.0854 222.76 58.6864C222.61 59.953 222.64 61.2152 222.85 62.4731C223.799 61.9536 224.731 61.4126 225.645 60.8502C226.318 61.2924 227.009 61.7132 227.718 62.1124C225.962 63.2661 224.159 64.348 222.309 65.3582C220.595 64.2909 218.852 63.269 217.08 62.2928C216.839 62.1725 216.839 62.0524 217.08 61.9321C217.77 61.6173 218.431 61.2567 219.063 60.8502C220.01 61.3685 220.941 61.9094 221.858 62.4731C221.978 61.2109 221.978 59.9486 221.858 58.6864C220.836 58.0854 219.815 57.4842 218.793 56.8832C218.762 58.0299 218.672 59.172 218.522 60.3093C217.839 60.7707 217.118 61.1313 216.358 61.3912C216.298 59.284 216.359 57.1804 216.539 55.0801C218.293 54.1442 219.976 53.1223 221.588 52.0146Z" fill="#5194E9"/>
<defs>
<radialGradient id="paint0_radial_1141_394169" cx="0" cy="0" r="1" gradientUnits="userSpaceOnUse" gradientTransform="translate(174.84 149.052) rotate(90.2672) scale(27.6065 66.9627)">
<stop stop-color="#C4C4C4"/>
<stop offset="1" stop-color="#C4C4C4" stop-opacity="0"/>
</radialGradient>
<radialGradient id="paint1_radial_1141_394169" cx="0" cy="0" r="1" gradientUnits="userSpaceOnUse" gradientTransform="translate(55.5773 102.925) rotate(22.8045) scale(294.763 639.112)">
<stop offset="0.437758" stop-color="#BFBCBC"/>
<stop offset="1" stop-color="#C4C4C4" stop-opacity="0"/>
</radialGradient>
<clipPath id="clip0_1141_394169">
<rect width="28.3333" height="28.3333" fill="white" transform="translate(18.8333 73.1875)"/>
</clipPath>
<clipPath id="clip1_1141_394169">
<rect width="30.8775" height="30.8775" fill="white" transform="translate(79.1719 20.1543)"/>
</clipPath>
</defs>
</svg>
