<svg id="Layer_1" data-name="Layer 1" xmlns="http://www.w3.org/2000/svg" viewBox="0 0 185.57 31.56">
  <defs>
    <style>
      .cls-1, .cls-2 {
        fill: #fff;
      }

      .cls-2 {
        font-size: 21px;
        font-family: Helvetica;
      }

      .cls-3 {
        fill: #58c6d4;
      }
    </style>
  </defs>
  <title>Docs</title>
  <g id="Layer_1-2" data-name="Layer 1-2">
    <path class="cls-1" d="M4.83,4.61h3.1v8.64H4.83Z"/>
    <path class="cls-1" d="M2,1.51V27.44a2.39,2.39,0,0,0,2.39,2.41H20.48a2.37,2.37,0,0,0,2.37-2.37v-26Zm6,11.73V26.76H4.83V4.61H7.94Zm12,13.52H10.73v-3.1h9.21Z"/>
  </g>
  <path class="cls-1" d="M49,4.35a1.94,1.94,0,1,0,.5,3.84,1.94,1.94,0,0,0-.22-3.84Zm54.79,11.86a19.57,19.57,0,0,1-.27,4.05A5.09,5.09,0,0,1,101,23.42a4.36,4.36,0,0,1-3.52.19,2.54,2.54,0,0,1-1-.84,4.54,4.54,0,0,1-.66-1.45,17.11,17.11,0,0,1-.23-3.43V10H92.39v8.5a12.5,12.5,0,0,0,.76,4.92A5.84,5.84,0,0,0,95.35,26a6,6,0,0,0,3.31,1,7.23,7.23,0,0,0,5.15-2.16V27H107V10h-3.19ZM83.68,10a6.44,6.44,0,0,0-3.31.93,7.19,7.19,0,0,0-2.18,2,5.2,5.2,0,0,0-1.78-2A5.77,5.77,0,0,0,73.16,10a6.41,6.41,0,0,0-4.66,2V10H65.37V27h3.17V19.82a11.83,11.83,0,0,1,.52-4.1,4.39,4.39,0,0,1,1.55-1.91,3.83,3.83,0,0,1,2.18-.73,2.88,2.88,0,0,1,1.86.58,2.58,2.58,0,0,1,.94,1.49,16,16,0,0,1,.24,3.31v8.46H79V20.3A15.78,15.78,0,0,1,79.42,16a4.06,4.06,0,0,1,1.51-2.15,3.84,3.84,0,0,1,2.28-.79,3,3,0,0,1,1.91.57A2.46,2.46,0,0,1,86.05,15a12.77,12.77,0,0,1,.24,2.9v9h3.23v-9c0-3.07-.56-5.12-1.71-6.27A5.66,5.66,0,0,0,83.68,10ZM116.4,17a11.08,11.08,0,0,1-2.27-1.48,1.44,1.44,0,0,1-.53-1.11,1.39,1.39,0,0,1,.46-1.06c.86-.8,2.33-.53,4,1l.28.26,2-2.1-.28-.27a6.77,6.77,0,0,0-4.52-2.3A4.89,4.89,0,0,0,112,11.26a4.23,4.23,0,0,0-1.34,3.13,4.47,4.47,0,0,0,.94,2.94,8.55,8.55,0,0,0,2.65,2,10.84,10.84,0,0,1,2.27,1.4,1.69,1.69,0,0,1,.57,1.29,1.82,1.82,0,0,1-.63,1.35,2.16,2.16,0,0,1-1.56.6,3.84,3.84,0,0,1-2.81-1.68l-.29-.34-2,2.21.21.26a6.06,6.06,0,0,0,4.93,2.5,5,5,0,0,0,3.63-1.46,4.85,4.85,0,0,0,1.51-3.59,4.2,4.2,0,0,0-1-2.84A8.8,8.8,0,0,0,116.4,17ZM36.53,4.35H33.19V26.92H44.53V23.7h-8ZM47.42,10h3.22v17H47.42Zm12-5.61H56.17V10H53.48v2.87h2.69v10.9A3.42,3.42,0,0,0,57,26.14a3.17,3.17,0,0,0,2.33.8,13.1,13.1,0,0,0,2.17-.24l.33-.05V23.86H59.44a1.55,1.55,0,0,1,0-.43V12.82h3.1V10h-3.1Z"/>
  <text class="cls-2" transform="translate(123.29 26.82)">DOCS</text>
  <rect class="cls-3" x="4.86" y="4.62" width="3.07" height="8.67"/>
</svg>
