<svg id="Layer_1" data-name="Layer 1" xmlns="http://www.w3.org/2000/svg" viewBox="0 0 234.21 71.05">
  <defs>
    <style>
      .cls-1 {
        fill: #1c2456;
      }
    </style>
  </defs>
  <title>litmus-logo-white-bg-text</title>
  <path class="cls-1" d="M49.37,6.86a4.85,4.85,0,1,0,.69,0A4,4,0,0,0,49.37,6.86Zm137,29.65a47.79,47.79,0,0,1-.68,10.14,12.8,12.8,0,0,1-6.29,7.9,11,11,0,0,1-8.8.47,6.36,6.36,0,0,1-2.5-2.1,10.89,10.89,0,0,1-1.64-3.62,41.94,41.94,0,0,1-.58-8.59V20.9h-8.07V42.13a31.53,31.53,0,0,0,1.9,12.32,15.07,15.07,0,0,0,13.79,9.09,18.11,18.11,0,0,0,12.87-5.4v5.4h8V21.07h-8ZM136,20.9a16,16,0,0,0-8.29,2.32,17.81,17.81,0,0,0-5.44,5,13,13,0,0,0-4.45-5,14.33,14.33,0,0,0-8.12-2.32,15.92,15.92,0,0,0-11.64,5v-5H90.24V63.36h7.94V45.53a28.61,28.61,0,0,1,1.3-10.24,10.82,10.82,0,0,1,3.87-4.77,9.46,9.46,0,0,1,5.45-1.83,7.17,7.17,0,0,1,4.64,1.45,6.41,6.41,0,0,1,2.35,3.72,39.53,39.53,0,0,1,.6,8.27V63.29h7.87V46.75a39.7,39.7,0,0,1,1.1-10.69,10.31,10.31,0,0,1,3.77-5.37,9.54,9.54,0,0,1,5.72-2,7.46,7.46,0,0,1,4.77,1.42A6.18,6.18,0,0,1,142,33.56a31,31,0,0,1,.59,7.25V63.29h8.07V40.81c0-7.67-1.4-12.79-4.27-15.67A14.12,14.12,0,0,0,136,20.9Zm81.79,17.66a28.2,28.2,0,0,1-5.67-3.7,3.59,3.59,0,0,1-1.32-2.77A3.4,3.4,0,0,1,212,29.44c2.14-2,5.82-1.32,10,2.5l.7.65,5-5.25-.7-.67a16.94,16.94,0,0,0-11.31-5.75,12.11,12.11,0,0,0-8.72,3.23A10.49,10.49,0,0,0,203.57,32a11.09,11.09,0,0,0,2.35,7.35,20.77,20.77,0,0,0,6.62,5,27,27,0,0,1,5.67,3.53,4.06,4.06,0,0,1,1.42,3.22,4.43,4.43,0,0,1-1.57,3.37,5.43,5.43,0,0,1-3.9,1.5,9.68,9.68,0,0,1-7-4.2l-.72-.85-5,5.52L202,57a15.11,15.11,0,0,0,12.31,6.25,12.46,12.46,0,0,0,9.07-3.65,12.2,12.2,0,0,0,3.8-9,10.61,10.61,0,0,0-2.5-7.12A22.24,22.24,0,0,0,217.81,38.56ZM18.14,6.86H9.8V63.29H38.15v-8h-20Zm27.23,14h8V63.29h-8Zm29.95-14H67.25v14H60.51V28h6.74V55.3a8.35,8.35,0,0,0,2,6,7.83,7.83,0,0,0,5.82,2,35.12,35.12,0,0,0,5.42-.6l.83-.13v-7H75.42a4.88,4.88,0,0,1,0-1.08V28h7.75V20.87H75.42Z"/>
</svg>
