<svg id="Layer_1" data-name="Layer 1" xmlns="http://www.w3.org/2000/svg" viewBox="0 0 309.22 85.53">
  <defs>
    <style>
      .cls-1 {
        fill: #58c6d4;
      }

      .cls-2 {
        fill: #1c2456;
      }
    </style>
  </defs>
  <title>litmus-logo-white-bg-sidebyside</title>
  <g>
    <g id="Layer_1-2" data-name="Layer 1-2">
      <path class="cls-1" d="M13.44,16.31h7.74V37.89H13.44Z"/>
      <path class="cls-2" d="M6.22,8.54V73.38a6,6,0,0,0,6,6H52.54a5.94,5.94,0,0,0,5.94-5.94V8.54Zm15,29.34V71.67H13.44V16.31h7.75Zm30,33.79h-23V63.91h23Z"/>
    </g>
    <path class="cls-2" d="M123.9,15.64a4.85,4.85,0,1,0,.7,0Zm137,29.65a47.28,47.28,0,0,1-.68,10.15,12.78,12.78,0,0,1-6.29,7.89,10.91,10.91,0,0,1-8.79.47,6.2,6.2,0,0,1-2.5-2.09A10.85,10.85,0,0,1,241,58.08a41.85,41.85,0,0,1-.58-8.59V29.68h-8.06V50.92a31.48,31.48,0,0,0,1.89,12.31,14.82,14.82,0,0,0,5.53,6.6A15,15,0,0,0,248,72.32a18.14,18.14,0,0,0,12.87-5.39v5.39h8V29.86h-8ZM210.56,29.68a16.09,16.09,0,0,0-8.3,2.32,18,18,0,0,0-5.44,5,12.92,12.92,0,0,0-4.45-5,14.41,14.41,0,0,0-8.12-2.32,16,16,0,0,0-11.64,5v-5h-7.84V72.15h7.94V54.31A29.12,29.12,0,0,1,174,44.07a10.89,10.89,0,0,1,3.87-4.77,9.41,9.41,0,0,1,5.45-1.82A7.15,7.15,0,0,1,188,38.92a6.47,6.47,0,0,1,2.34,3.73,39.48,39.48,0,0,1,.6,8.27V72.07h7.87V55.54a39.73,39.73,0,0,1,1.1-10.7,10.31,10.31,0,0,1,3.77-5.37,9.56,9.56,0,0,1,5.72-2,7.57,7.57,0,0,1,4.78,1.42,6.2,6.2,0,0,1,2.32,3.43,31.4,31.4,0,0,1,.6,7.24V72.07h8.07V49.59c0-7.67-1.4-12.79-4.27-15.66A14.17,14.17,0,0,0,210.56,29.68Zm81.78,17.66a28.6,28.6,0,0,1-5.67-3.69,3.65,3.65,0,0,1-1.32-2.78,3.38,3.38,0,0,1,1.15-2.64c2.15-2,5.82-1.33,10,2.49l.7.65,5-5.24-.7-.68a17,17,0,0,0-11.32-5.74,12.1,12.1,0,0,0-8.72,3.22,10.52,10.52,0,0,0-3.34,7.82,11.06,11.06,0,0,0,2.34,7.34,21.18,21.18,0,0,0,6.62,5,26.73,26.73,0,0,1,5.67,3.52,4.11,4.11,0,0,1,1.43,3.22,4.46,4.46,0,0,1-1.58,3.38,5.44,5.44,0,0,1-3.89,1.49,9.64,9.64,0,0,1-7-4.19l-.73-.85-5,5.52.52.65a15.15,15.15,0,0,0,12.32,6.24,12.48,12.48,0,0,0,9.06-3.64,12.17,12.17,0,0,0,3.8-9,10.59,10.59,0,0,0-2.5-7.12A22.27,22.27,0,0,0,292.34,47.34ZM92.68,15.64H84.33V72.07h28.36V64h-20Zm27.22,14h8V72.07h-8Zm30-14h-8.07v14H135v7.17h6.75V64.08a8.25,8.25,0,0,0,2,6,7.77,7.77,0,0,0,5.82,2,35.25,35.25,0,0,0,5.42-.6l.82-.12v-7H150a3.83,3.83,0,0,1,0-1.07V36.83h7.74V29.66H150Z"/>
  </g>
</svg>
