<svg id="Layer_1" data-name="Layer 1" xmlns="http://www.w3.org/2000/svg" viewBox="0 0 141.73 170.08">
  <defs>
    <style>
      .cls-1 {
        fill: #58c6d4;
      }

      .cls-2 {
        fill: #1c2456;
      }
    </style>
  </defs>
  <title>litmus-logo-white-bg-stacked</title>
  <g id="Layer_1-2" data-name="Layer 1-2">
    <path class="cls-1" d="M41.82,21.55H52.46V51.2H41.82Z"/>
    <path class="cls-2" d="M31.9,10.88V100a8.26,8.26,0,0,0,8.23,8.29h55.4a8.16,8.16,0,0,0,8.16-8.16V10.88Zm20.57,40.3V97.6H41.82v-76H52.47ZM93.7,97.6H62.08V87H93.7Z"/>
    <path class="cls-2" d="M28,120.13a2.78,2.78,0,1,0,.4,0Zm78.49,17a27.61,27.61,0,0,1-.38,5.81,7.33,7.33,0,0,1-3.61,4.52,6.24,6.24,0,0,1-5,.27,3.54,3.54,0,0,1-1.43-1.2,6.38,6.38,0,0,1-1-2.07,25.44,25.44,0,0,1-.33-4.93V128.18H90.15v12.17a18.08,18.08,0,0,0,1.09,7.06,8.48,8.48,0,0,0,3.16,3.77,8.63,8.63,0,0,0,4.74,1.44,10.37,10.37,0,0,0,7.37-3.1v3.1h4.59V128.28h-4.59Zm-28.83-8.95a9.13,9.13,0,0,0-4.75,1.33,10.28,10.28,0,0,0-3.12,2.86,7.48,7.48,0,0,0-2.55-2.86,8.23,8.23,0,0,0-4.65-1.33A9.17,9.17,0,0,0,55.93,131v-2.86H51.44v24.34H56V142.29a16.47,16.47,0,0,1,.75-5.87A6.23,6.23,0,0,1,59,133.69a5.36,5.36,0,0,1,3.12-1,4.06,4.06,0,0,1,2.66.83,3.67,3.67,0,0,1,1.34,2.13,22.79,22.79,0,0,1,.35,4.74v12.12h4.51V143a22.54,22.54,0,0,1,.63-6.13,5.82,5.82,0,0,1,2.16-3.08A5.47,5.47,0,0,1,77,132.66a4.24,4.24,0,0,1,2.73.82,3.48,3.48,0,0,1,1.33,2,17.51,17.51,0,0,1,.35,4.15v12.88H86V139.59c0-4.4-.8-7.33-2.45-9A8.05,8.05,0,0,0,77.68,128.18Zm46.87,10.12a16.5,16.5,0,0,1-3.25-2.12,2.11,2.11,0,0,1-.76-1.59,2,2,0,0,1,.66-1.52c1.23-1.14,3.34-.75,5.73,1.44l.4.37,2.86-3-.4-.38a9.72,9.72,0,0,0-6.48-3.3,6.93,6.93,0,0,0-5,1.85,6,6,0,0,0-1.92,4.48,6.35,6.35,0,0,0,1.35,4.21,11.93,11.93,0,0,0,3.79,2.86,15.51,15.51,0,0,1,3.25,2,2.34,2.34,0,0,1,.82,1.85,2.6,2.6,0,0,1-.9,1.93,3.15,3.15,0,0,1-2.24.86,5.54,5.54,0,0,1-4-2.41l-.42-.48-2.86,3.16.3.37a8.66,8.66,0,0,0,7.06,3.58,7.15,7.15,0,0,0,5.2-2.09,7,7,0,0,0,2.17-5.14,6.08,6.08,0,0,0-1.43-4.08A12.86,12.86,0,0,0,124.55,138.3ZM10.12,120.13H5.34v32.34H21.59v-4.61H10.12Zm15.61,8.05h4.61v24.29H25.73Zm17.16-8.05H38.27v8H34.4v4.11h3.87v15.62a4.81,4.81,0,0,0,1.11,3.47,4.5,4.5,0,0,0,3.34,1.14,20.4,20.4,0,0,0,3.11-.34l.47-.07v-4H43a2.08,2.08,0,0,1,0-.61V132.27h4.44v-4.11H43Z"/>
  </g>
</svg>
