<svg id="Layer_1" data-name="Layer 1" xmlns="http://www.w3.org/2000/svg" viewBox="0 0 236.85 73.69">
  <defs>
    <style>
      .cls-1 {
        fill: #fff;
      }
    </style>
  </defs>
  <title>litmus-logo-dark-bg-text</title>
  <path class="cls-1" d="M50.46,7.32a4.85,4.85,0,1,0,.69,0Q50.81,7.31,50.46,7.32ZM187.42,37a47.87,47.87,0,0,1-.67,10.14,12.82,12.82,0,0,1-6.3,7.89,11,11,0,0,1-8.79.48,6.44,6.44,0,0,1-2.5-2.1,11.31,11.31,0,0,1-1.65-3.62,42.7,42.7,0,0,1-.57-8.6V21.36h-8.07V42.6a31.3,31.3,0,0,0,1.9,12.31,14.8,14.8,0,0,0,5.52,6.6A15,15,0,0,0,174.56,64a18.12,18.12,0,0,0,12.86-5.39V64h8V21.54h-8ZM137.11,21.36a16.06,16.06,0,0,0-8.29,2.33,17.92,17.92,0,0,0-5.45,5,13,13,0,0,0-4.44-5,14.44,14.44,0,0,0-8.12-2.33,16,16,0,0,0-11.64,5v-5H91.32V63.83h8V46a28.67,28.67,0,0,1,1.3-10.24A10.75,10.75,0,0,1,104.44,31a9.35,9.35,0,0,1,5.44-1.82,7.14,7.14,0,0,1,4.65,1.45,6.43,6.43,0,0,1,2.35,3.72,39.53,39.53,0,0,1,.6,8.27V63.75h7.87V47.22a38.83,38.83,0,0,1,1.1-10.69,10.22,10.22,0,0,1,3.77-5.37,9.55,9.55,0,0,1,5.72-2,7.49,7.49,0,0,1,4.77,1.43A6,6,0,0,1,143,34a30.85,30.85,0,0,1,.6,7.24V63.75h8.07V41.27c0-7.67-1.4-12.79-4.27-15.66A14.13,14.13,0,0,0,137.11,21.36ZM218.9,39a28.31,28.31,0,0,1-5.67-3.69,3.66,3.66,0,0,1-1.33-2.78,3.46,3.46,0,0,1,1.15-2.64c2.15-2,5.82-1.33,10,2.49l.7.65,5-5.24-.7-.68a17,17,0,0,0-11.32-5.74A12.1,12.1,0,0,0,208,24.61a10.5,10.5,0,0,0-3.35,7.82A11,11,0,0,0,207,39.77a21,21,0,0,0,6.62,5,27,27,0,0,1,5.67,3.52,4.1,4.1,0,0,1,1.42,3.22,4.48,4.48,0,0,1-1.57,3.38,5.52,5.52,0,0,1-3.9,1.5,9.7,9.7,0,0,1-7-4.2l-.72-.85-5,5.52.53.65a15.1,15.1,0,0,0,12.31,6.24,12.5,12.5,0,0,0,9.07-3.64,12.23,12.23,0,0,0,3.8-9,10.69,10.69,0,0,0-2.5-7.12A22.56,22.56,0,0,0,218.9,39ZM19.23,7.32H10.89V63.75H39.24v-8h-20Zm27.23,14h8V63.75h-8Zm29.95-14H68.34v14H61.6v7.17h6.74V55.76a8.38,8.38,0,0,0,2,6.05,7.81,7.81,0,0,0,5.82,2,32.93,32.93,0,0,0,5.42-.6l.83-.12v-7H76.51a3.83,3.83,0,0,1,0-1.07V28.51h7.74V21.34H76.51Z"/>
</svg>
