<svg id="Layer_1" data-name="Layer 1" xmlns="http://www.w3.org/2000/svg" viewBox="0 0 138.16 151.32">
  <defs>
    <style>
      .cls-1 {
        fill: #fff;
      }

      .cls-2 {
        fill: #58c6d4;
      }
    </style>
  </defs>
  <title>litmus-logo-dark-bg-stacked</title>
  <g id="Layer_1-2" data-name="Layer 1-2">
    <path class="cls-1" d="M44.23,15.87H54.86V45.52H44.23Z"/>
    <path class="cls-1" d="M34.3,5.21V94.27a8.27,8.27,0,0,0,8.24,8.29h55.4a8.16,8.16,0,0,0,8.16-8.16V5.21Zm20.58,40.3V91.92H44.23v-76H54.88ZM96.11,91.92H64.48V81.27H96.11Z"/>
    <path class="cls-1" d="M30.42,114.45a2.78,2.78,0,1,0,.4,0A2.67,2.67,0,0,0,30.42,114.45Zm78.5,17a27,27,0,0,1-.39,5.81,7.31,7.31,0,0,1-3.6,4.52,6.28,6.28,0,0,1-5,.28,3.58,3.58,0,0,1-1.43-1.21,6.38,6.38,0,0,1-.95-2.07,24,24,0,0,1-.33-4.93V122.5H92.56v12.17a18.08,18.08,0,0,0,1.09,7.06,8.43,8.43,0,0,0,3.16,3.78,8.57,8.57,0,0,0,4.74,1.43,10.42,10.42,0,0,0,7.37-3.09v3.09h4.58V122.6h-4.58ZM80.09,122.5a9.19,9.19,0,0,0-4.76,1.33,10.4,10.4,0,0,0-3.12,2.86,7.45,7.45,0,0,0-2.54-2.86A8.29,8.29,0,0,0,65,122.5a9.14,9.14,0,0,0-6.67,2.86V122.5H53.85v24.34H58.4V136.62a16.41,16.41,0,0,1,.74-5.87A6.2,6.2,0,0,1,61.36,128a5.41,5.41,0,0,1,3.12-1,4.08,4.08,0,0,1,2.67.83,3.67,3.67,0,0,1,1.34,2.13,22.12,22.12,0,0,1,.34,4.74v12.12h4.51v-9.47a23,23,0,0,1,.63-6.13,5.94,5.94,0,0,1,2.17-3.08A5.46,5.46,0,0,1,79.41,127a4.27,4.27,0,0,1,2.74.82,3.48,3.48,0,0,1,1.33,2,17.5,17.5,0,0,1,.34,4.15v12.88h4.63V133.91c0-4.4-.8-7.33-2.45-9A8.13,8.13,0,0,0,80.09,122.5ZM127,132.62a15.79,15.79,0,0,1-3.25-2.12,2.08,2.08,0,0,1-.76-1.59,2,2,0,0,1,.66-1.51c1.23-1.15,3.34-.76,5.73,1.43l.4.37,2.86-3-.4-.38a9.72,9.72,0,0,0-6.49-3.3,7,7,0,0,0-5,1.85,6,6,0,0,0-1.92,4.48,6.39,6.39,0,0,0,1.34,4.21,12.09,12.09,0,0,0,3.8,2.86,16,16,0,0,1,3.25,2,2.36,2.36,0,0,1,.81,1.85,2.53,2.53,0,0,1-.9,1.93,3.13,3.13,0,0,1-2.23.86,5.56,5.56,0,0,1-4-2.4l-.42-.49-2.86,3.16.3.38a8.68,8.68,0,0,0,7.06,3.57,7.11,7.11,0,0,0,5.19-2.09,7,7,0,0,0,2.18-5.14,6.1,6.1,0,0,0-1.43-4.08A13,13,0,0,0,127,132.62ZM12.53,114.45H7.75v32.34H24v-4.61H12.53Zm15.6,8h4.61v24.29H28.13Zm17.17-8H40.67v8H36.81v4.1h3.86v15.62a4.85,4.85,0,0,0,1.12,3.47,4.5,4.5,0,0,0,3.34,1.14,20.14,20.14,0,0,0,3.1-.34l.48-.07v-4H45.36a2.08,2.08,0,0,1,0-.61V126.59h4.43v-4.1H45.36Z"/>
  </g>
  <rect class="cls-2" x="44.22" y="15.88" width="10.67" height="29.65"/>
</svg>
