<svg id="Layer_1" data-name="Layer 1" xmlns="http://www.w3.org/2000/svg" viewBox="0 0 309.22 82.9">
  <defs>
    <style>
      .cls-1 {
        fill: #fff;
      }

      .cls-2 {
        fill: #58c6d4;
      }
    </style>
  </defs>
  <title>litmus-logo-dark-bg-sidebyside</title>
  <g>
    <g id="Layer_1-2" data-name="Layer 1-2">
      <path class="cls-1" d="M15.38,13.11h7.75V34.69H15.38Z"/>
      <path class="cls-1" d="M8.16,5.35V70.18a6,6,0,0,0,6,6H54.49a5.94,5.94,0,0,0,5.94-5.94V5.35Zm15,29.33V68.47H15.38V13.11h7.76Zm30,33.79h-23V60.72h23Z"/>
    </g>
    <rect class="cls-2" x="15.38" y="13.12" width="7.77" height="21.58"/>
  </g>
  <path class="cls-1" d="M124.81,13a4.85,4.85,0,1,0,.69,0A4,4,0,0,0,124.81,13Zm137,29.65a47.88,47.88,0,0,1-.68,10.14,12.78,12.78,0,0,1-6.29,7.89,10.93,10.93,0,0,1-8.8.48,6.26,6.26,0,0,1-2.49-2.1,10.81,10.81,0,0,1-1.65-3.62,41.94,41.94,0,0,1-.58-8.59V27h-8.07V48.27a31.46,31.46,0,0,0,1.9,12.31,14.81,14.81,0,0,0,5.52,6.6,15,15,0,0,0,8.27,2.5,18.15,18.15,0,0,0,12.87-5.4v5.4h8V27.21h-8ZM211.47,27a16,16,0,0,0-8.3,2.32,17.81,17.81,0,0,0-5.44,5,13,13,0,0,0-4.45-5A14.33,14.33,0,0,0,185.16,27a15.92,15.92,0,0,0-11.64,5V27h-7.84V69.5h7.94V51.67a28.7,28.7,0,0,1,1.3-10.25,10.87,10.87,0,0,1,3.87-4.77,9.53,9.53,0,0,1,5.45-1.82,7.17,7.17,0,0,1,4.64,1.45A6.41,6.41,0,0,1,191.23,40a39.53,39.53,0,0,1,.6,8.27V69.43h7.87V52.89a39.66,39.66,0,0,1,1.1-10.69,10.31,10.31,0,0,1,3.77-5.37,9.54,9.54,0,0,1,5.72-2,7.4,7.4,0,0,1,4.77,1.42,6.18,6.18,0,0,1,2.33,3.42A31.48,31.48,0,0,1,218,47V69.43h8.06V47c0-7.67-1.4-12.79-4.27-15.67A14.12,14.12,0,0,0,211.47,27ZM293.25,44.7a28.64,28.64,0,0,1-5.67-3.7,3.59,3.59,0,0,1-1.32-2.77,3.4,3.4,0,0,1,1.15-2.65c2.14-2,5.82-1.32,10,2.5l.7.65,5-5.25-.7-.67a16.94,16.94,0,0,0-11.31-5.75,12.1,12.1,0,0,0-8.72,3.22A10.53,10.53,0,0,0,279,38.1a11.09,11.09,0,0,0,2.35,7.35,20.92,20.92,0,0,0,6.62,5A27,27,0,0,1,293.65,54a4,4,0,0,1,1.42,3.22,4.43,4.43,0,0,1-1.57,3.37,5.43,5.43,0,0,1-3.9,1.5,9.68,9.68,0,0,1-7-4.2l-.72-.85-5,5.52.53.65a15.14,15.14,0,0,0,12.31,6.25,12.5,12.5,0,0,0,9.07-3.65,12.2,12.2,0,0,0,3.8-9,10.59,10.59,0,0,0-2.5-7.12A22.24,22.24,0,0,0,293.25,44.7ZM93.58,13H85.24V69.43h28.35V61.38h-20Zm27.23,14h8.05V69.43h-8.05Zm29.95-14h-8.07V27H136v7.17h6.74V61.43a8.36,8.36,0,0,0,1.95,6.05,7.83,7.83,0,0,0,5.82,2,35.12,35.12,0,0,0,5.42-.6l.83-.13v-7h-5.85a4.79,4.79,0,0,1,0-1.07V34.18h7.75V27h-7.75Z"/>
</svg>
