<svg width="47" height="74" viewBox="0 0 47 74" fill="none" xmlns="http://www.w3.org/2000/svg">
<path fill-rule="evenodd" clip-rule="evenodd" d="M14.6432 46.8792L19.9314 42.9293L22.158 45.4685L25.2196 44.9042L27.1679 41.8008L33.8477 42.9293V45.4685L31.6211 48.0077L32.7344 49.4184L37.466 48.572L38.8576 57.0359L34.961 57.8823L32.7344 60.4215L34.961 62.3965L29.6728 67.1927L26.6112 64.9356L23.5496 65.4999L22.7146 68.3212L15.4781 67.1927L14.3648 64.6535L17.1481 61.2679L15.4781 60.4215L11.8599 61.2679L10.7466 53.3682L15.1998 53.0861L17.1481 49.9826L14.6432 46.8792ZM19.6523 55.061L24.3839 51.1111L28.2805 52.2397V56.4717L24.3839 58.4466L19.6523 57.6002V55.061Z" fill="white"/>
<path d="M34.3879 23.9131L11.7857 29.2413C-2.58045 15.6558 10.8403 -1.55608 23.876 1.00146C36.9118 3.559 36.3152 17.164 34.3879 23.9131Z" fill="#FF8AC1"/>
<path fill-rule="evenodd" clip-rule="evenodd" d="M24.499 48.456C24.618 48.5917 24.606 48.7995 24.4721 48.9202C23.6159 49.6916 22.6782 50.3505 21.7511 50.9909C21.6818 51.0387 21.6126 51.0865 21.5434 51.1342C20.6826 51.728 19.8364 52.3117 19.0508 52.9729C18.9129 53.0889 18.7085 53.0697 18.5941 52.93C18.4797 52.7903 18.4986 52.583 18.6364 52.467C19.4471 51.7849 20.3181 51.1841 21.174 50.5937C21.2447 50.5449 21.3154 50.4962 21.3859 50.4475C22.3143 49.8062 23.2199 49.1687 24.0412 48.4287C24.175 48.3081 24.38 48.3203 24.499 48.456Z" fill="black"/>
<path fill-rule="evenodd" clip-rule="evenodd" d="M24.2455 51.3662C24.3496 51.5139 24.3158 51.7193 24.1701 51.8248C23.7167 52.1531 23.2668 52.4969 22.8137 52.843C21.827 53.5969 20.8255 54.3621 19.7412 55.0033C19.5865 55.0947 19.3879 55.0418 19.2976 54.8849C19.2074 54.7281 19.2597 54.5268 19.4144 54.4353C20.4656 53.8138 21.4149 53.0881 22.3847 52.3468C22.8452 51.9949 23.3103 51.6394 23.7931 51.2898C23.9388 51.1842 24.1414 51.2185 24.2455 51.3662Z" fill="black"/>
<path fill-rule="evenodd" clip-rule="evenodd" d="M23.7563 51.0676C23.7956 50.8905 23.9692 50.7792 24.1439 50.8191C25.426 51.1118 26.6905 51.4417 27.9565 51.7749C28.1026 51.8134 28.2494 51.8564 28.3923 51.8982L28.4164 51.9053C28.5685 51.9498 28.7166 51.9929 28.8645 52.031C29.161 52.1074 29.4419 52.1596 29.7151 52.1596C29.8942 52.1596 30.0394 52.3068 30.0394 52.4884C30.0394 52.6699 29.8942 52.8171 29.7151 52.8171C29.3638 52.8171 29.0231 52.7502 28.7048 52.6682C28.5453 52.6271 28.3877 52.5812 28.2364 52.5369L28.2149 52.5306C28.0698 52.4881 27.9308 52.4474 27.7935 52.4113C26.5272 52.078 25.272 51.7506 24.0014 51.4606C23.8267 51.4207 23.7169 51.2447 23.7563 51.0676Z" fill="black"/>
<path fill-rule="evenodd" clip-rule="evenodd" d="M23.2047 48.6394C23.3009 48.4863 23.5014 48.4413 23.6525 48.5389C24.3095 48.9634 25.0626 49.205 25.8511 49.458C25.9845 49.5008 26.1189 49.544 26.2541 49.5884C26.8345 49.7791 27.4199 49.9299 28.0196 50.0844C28.1579 50.12 28.297 50.1559 28.4369 50.1924C28.5562 50.2236 28.6748 50.2556 28.7929 50.2875C29.2321 50.406 29.6629 50.5222 30.0839 50.5832C30.2612 50.6088 30.3844 50.7754 30.3591 50.9551C30.3337 51.1348 30.1695 51.2597 29.9921 51.234C29.5291 51.167 29.0493 51.0373 28.6059 50.9175C28.493 50.887 28.3824 50.8571 28.2751 50.8291C28.1399 50.7938 28.004 50.7588 27.8677 50.7237C27.2667 50.5689 26.6564 50.4117 26.0541 50.2138C25.9279 50.1724 25.7992 50.1312 25.6688 50.0895C24.8843 49.8386 24.039 49.5683 23.3038 49.0933C23.1528 48.9957 23.1084 48.7925 23.2047 48.6394Z" fill="black"/>
<path fill-rule="evenodd" clip-rule="evenodd" d="M28.4769 49.2754C28.656 49.2754 28.8012 49.4226 28.8012 49.6041V56.0677C28.8012 56.2492 28.656 56.3964 28.4769 56.3964C28.2978 56.3964 28.1526 56.2492 28.1526 56.0677V49.6041C28.1526 49.4226 28.2978 49.2754 28.4769 49.2754Z" fill="black"/>
<path fill-rule="evenodd" clip-rule="evenodd" d="M30.5612 54.7438C30.6759 54.8833 30.6573 55.0906 30.5197 55.2068C29.5485 56.0272 28.4669 56.6893 27.4014 57.3304C27.3403 57.3671 27.2792 57.4038 27.2182 57.4405C26.2091 58.047 25.2201 58.6413 24.3183 59.3523C24.177 59.4637 23.9732 59.4379 23.8633 59.2946C23.7533 59.1513 23.7788 58.9447 23.9201 58.8333C24.8554 58.0959 25.8775 57.4818 26.8785 56.8803C26.9425 56.8418 27.0065 56.8034 27.0704 56.765C28.139 56.1221 29.1782 55.4841 30.1045 54.7017C30.2421 54.5855 30.4466 54.6043 30.5612 54.7438Z" fill="black"/>
<path fill-rule="evenodd" clip-rule="evenodd" d="M18.2729 56.9126C18.3459 56.7468 18.5377 56.6724 18.7012 56.7464C20.1168 57.387 21.6755 57.7891 23.2183 58.12C23.3368 58.1454 23.4568 58.1705 23.5777 58.1959C24.1188 58.3093 24.6803 58.427 25.2221 58.5917C25.3936 58.6439 25.491 58.8272 25.4395 59.0011C25.388 59.175 25.2072 59.2737 25.0357 59.2215C24.5239 59.0658 23.9966 58.9552 23.457 58.842C23.3333 58.8161 23.209 58.79 23.0841 58.7632C21.5294 58.4299 19.9166 58.0164 18.4368 57.3468C18.2733 57.2728 18.1999 57.0784 18.2729 56.9126Z" fill="black"/>
<path fill-rule="evenodd" clip-rule="evenodd" d="M19.4406 50.9976C19.6197 50.9976 19.7649 51.1447 19.7649 51.3263C19.7649 51.5351 19.7652 51.744 19.7655 51.9532C19.7675 53.4185 19.7696 54.8937 19.6725 56.3702C19.6652 56.4814 19.6578 56.5923 19.6504 56.7029C19.5924 57.5703 19.5356 58.4203 19.5356 59.2779C19.5356 59.4594 19.3904 59.6066 19.2113 59.6066C19.0322 59.6066 18.887 59.4594 18.887 59.2779C18.887 58.3965 18.9454 57.5232 19.0032 56.6584C19.0106 56.5476 19.018 56.437 19.0253 56.3265C19.1208 54.8739 19.1189 53.4227 19.1169 51.9555C19.1166 51.7461 19.1163 51.5364 19.1163 51.3263C19.1163 51.1447 19.2615 50.9976 19.4406 50.9976Z" fill="black"/>
<path fill-rule="evenodd" clip-rule="evenodd" d="M23.6157 48.2649C23.7875 48.2137 23.9678 48.3134 24.0183 48.4875C24.0355 48.5467 24.0529 48.6063 24.0703 48.6662C24.3586 49.6556 24.6737 50.7373 24.6737 51.8353C24.6737 52.0169 24.5285 52.1641 24.3494 52.1641C24.1703 52.1641 24.0251 52.0169 24.0251 51.8353C24.0251 50.8357 23.7352 49.8391 23.4407 48.8266C23.4258 48.7755 23.4109 48.7243 23.3961 48.6731C23.3455 48.4989 23.4439 48.3161 23.6157 48.2649Z" fill="black"/>
<path fill-rule="evenodd" clip-rule="evenodd" d="M17.1683 49.2105C17.307 49.3255 17.3274 49.5326 17.214 49.6732C16.4716 50.5929 15.7265 51.5466 15.3404 52.6018C15.2781 52.7721 15.0914 52.8589 14.9235 52.7957C14.7556 52.7326 14.67 52.5434 14.7322 52.3732C15.1617 51.1997 15.9784 50.1656 16.712 49.2568C16.8254 49.1163 17.0297 49.0956 17.1683 49.2105Z" fill="black"/>
<path fill-rule="evenodd" clip-rule="evenodd" d="M13.5705 46.5348C13.6979 46.4072 13.9032 46.4085 14.0291 46.5376C14.4461 46.9654 14.8426 47.4117 15.2331 47.8513C15.2458 47.8656 15.2586 47.88 15.2714 47.8944C15.676 48.3498 16.0752 48.7976 16.4947 49.2229C16.7595 49.4913 17.0309 49.736 17.3271 49.9362C17.4761 50.0369 17.5164 50.241 17.417 50.3921C17.3177 50.5431 17.1163 50.5839 16.9673 50.4832C16.6218 50.2498 16.3165 49.9721 16.0361 49.6878C15.6028 49.2486 15.1928 48.7884 14.7894 48.3344C14.7779 48.3214 14.7664 48.3084 14.7549 48.2955C14.3615 47.8528 13.974 47.4165 13.5677 46.9997C13.4419 46.8706 13.4431 46.6624 13.5705 46.5348Z" fill="black"/>
<path fill-rule="evenodd" clip-rule="evenodd" d="M19.4108 42.6595C19.5456 42.5399 19.7505 42.5538 19.8684 42.6904C19.9557 42.7915 20.0431 42.8923 20.1305 42.993C20.9584 43.9477 21.7815 44.8968 22.429 46.0453C22.5178 46.2029 22.4638 46.4037 22.3083 46.4938C22.1528 46.5839 21.9547 46.5291 21.8658 46.3715C21.2528 45.2841 20.4736 44.3851 19.6395 43.4228C19.5536 43.3237 19.4672 43.224 19.3803 43.1233C19.2623 42.9867 19.276 42.779 19.4108 42.6595Z" fill="black"/>
<path fill-rule="evenodd" clip-rule="evenodd" d="M20.5446 42.2769C20.6359 42.4331 20.5851 42.6348 20.431 42.7273C19.1401 43.5028 17.8546 44.2865 16.7147 45.2331C16.672 45.2685 16.6292 45.3039 16.5865 45.3394C15.8228 45.9722 15.0535 46.6097 14.5797 47.4041C14.487 47.5595 14.2876 47.6093 14.1343 47.5154C13.9811 47.4214 13.9319 47.2193 14.0246 47.064C14.5589 46.1683 15.4113 45.463 16.1534 44.8489C16.2041 44.807 16.2542 44.7655 16.3036 44.7245C17.487 43.7419 18.8135 42.9347 20.1003 42.1617C20.2544 42.0691 20.4533 42.1207 20.5446 42.2769Z" fill="black"/>
<path fill-rule="evenodd" clip-rule="evenodd" d="M25.4002 45.0295C25.4353 45.2075 25.3214 45.3807 25.1458 45.4163C25.0506 45.4356 24.955 45.455 24.8593 45.4745C23.6836 45.7138 22.4708 45.9606 21.2582 46.0723C21.0799 46.0888 20.9221 45.9555 20.9059 45.7747C20.8897 45.5939 21.0211 45.434 21.1995 45.4176C22.3756 45.3092 23.5552 45.0692 24.7379 44.8286C24.8315 44.8096 24.925 44.7906 25.0186 44.7716C25.1942 44.736 25.3651 44.8514 25.4002 45.0295Z" fill="black"/>
<path fill-rule="evenodd" clip-rule="evenodd" d="M30.2319 46.901C30.337 46.754 30.5397 46.7212 30.6848 46.8277C31.5056 47.4305 32.363 48.0869 32.9662 49.0041C33.0656 49.1551 33.0253 49.3592 32.8763 49.4599C32.7273 49.5607 32.5259 49.5198 32.4266 49.3688C31.8958 48.5617 31.1298 47.9664 30.3042 47.3601C30.1592 47.2536 30.1268 47.0481 30.2319 46.901Z" fill="black"/>
<path fill-rule="evenodd" clip-rule="evenodd" d="M14.5248 58.3117C14.6698 58.2051 14.8726 58.2378 14.9777 58.3848C15.1074 58.566 15.2345 58.7472 15.3607 58.927C15.9816 59.8119 16.5813 60.6665 17.3593 61.3522C17.4944 61.4714 17.5087 61.679 17.3912 61.816C17.2737 61.953 17.0688 61.9675 16.9337 61.8484C16.0919 61.1064 15.4397 60.1757 14.8189 59.2899C14.696 59.1145 14.5743 58.9408 14.4527 58.7708C14.3475 58.6238 14.3798 58.4183 14.5248 58.3117Z" fill="black"/>
<path fill-rule="evenodd" clip-rule="evenodd" d="M27.0695 62.8039C27.1496 62.9663 27.0847 63.1637 26.9245 63.2449C25.5589 63.937 23.8742 64.188 22.3859 64.0216C22.2079 64.0017 22.0795 63.8393 22.0992 63.6589C22.1188 63.4784 22.279 63.3482 22.4571 63.3681C23.8354 63.5222 25.3926 63.2863 26.6344 62.6568C26.7946 62.5757 26.9894 62.6415 27.0695 62.8039Z" fill="black"/>
<path fill-rule="evenodd" clip-rule="evenodd" d="M33.5228 54.7173C33.7019 54.7173 33.8471 54.8645 33.8471 55.046C33.8471 55.8357 33.7268 56.5637 33.4491 57.3112C33.2505 57.846 32.9812 58.3262 32.6527 58.7798C32.62 58.8249 32.5869 58.8716 32.5532 58.9194C32.2579 59.3368 31.9075 59.8323 31.2705 60.0127C31.098 60.0615 30.9191 59.9594 30.8709 59.7845C30.8227 59.6097 30.9235 59.4283 31.096 59.3794C31.5023 59.2644 31.7174 58.9648 32.0357 58.5214C32.0661 58.4791 32.0974 58.4355 32.1298 58.3907C32.4284 57.9784 32.6672 57.5506 32.8421 57.0796C33.0903 56.4112 33.1985 55.7622 33.1985 55.046C33.1985 54.8645 33.3437 54.7173 33.5228 54.7173Z" fill="black"/>
<path fill-rule="evenodd" clip-rule="evenodd" d="M38.0125 54.8746C38.0559 55.0507 37.9503 55.2292 37.7765 55.2732C36.3236 55.6414 34.787 55.8209 33.2984 55.841C33.1193 55.8434 32.9721 55.6982 32.9698 55.5167C32.9674 55.3352 33.1106 55.186 33.2897 55.1836C34.7347 55.1641 36.2208 54.9898 37.6192 54.6354C37.793 54.5913 37.969 54.6984 38.0125 54.8746Z" fill="black"/>
<path fill-rule="evenodd" clip-rule="evenodd" d="M37.2351 48.3457C37.4142 48.3434 37.5613 48.4886 37.5636 48.6702C37.5693 49.1125 37.5884 49.5669 37.6078 50.0267C37.6402 50.7957 37.6732 51.5802 37.645 52.3499C37.6345 52.6365 37.608 52.9443 37.5825 53.242C37.5649 53.4466 37.5478 53.6464 37.5365 53.8313C37.5071 54.3116 37.509 54.7673 37.6023 55.2086C37.6399 55.3861 37.5283 55.5609 37.3532 55.5989C37.178 55.637 37.0056 55.5239 36.9681 55.3464C36.8566 54.8188 36.8584 54.2935 36.8891 53.7906C36.9029 53.5646 36.9213 53.3547 36.9392 53.1498C36.9632 52.8747 36.9864 52.6087 36.9968 52.3254C37.0244 51.5743 36.9932 50.8454 36.9614 50.1012C36.9415 49.636 36.9213 49.1649 36.9151 48.6787C36.9127 48.4972 37.056 48.3481 37.2351 48.3457Z" fill="black"/>
<path fill-rule="evenodd" clip-rule="evenodd" d="M38.0338 48.0607C38.1139 48.2231 38.049 48.4206 37.8888 48.5018C37.5804 48.6581 37.2217 48.7476 36.9172 48.8236C36.8472 48.8411 36.7801 48.8578 36.7171 48.8745C35.3218 49.2442 33.8679 49.4443 32.4274 49.4664C32.2483 49.4692 32.1009 49.3242 32.0982 49.1427C32.0955 48.9612 32.2384 48.8118 32.4175 48.809C33.8062 48.7877 35.2084 48.5947 36.5531 48.2384C36.6358 48.2165 36.7164 48.1962 36.7949 48.1765C37.0933 48.1014 37.3615 48.0339 37.5987 47.9137C37.7589 47.8325 37.9537 47.8983 38.0338 48.0607Z" fill="black"/>
<path fill-rule="evenodd" clip-rule="evenodd" d="M33.9305 42.9791C34.0942 43.0528 34.1679 43.2471 34.0952 43.413C33.9659 43.708 33.7923 43.9666 33.6158 44.2019C33.5311 44.3149 33.4434 44.4253 33.3591 44.5317L33.3487 44.5447C33.2602 44.6564 33.1752 44.7637 33.0945 44.8724C32.8663 45.1793 32.6355 45.479 32.4065 45.7765C31.8969 46.4383 31.396 47.0889 30.9515 47.783C30.8539 47.9353 30.6531 47.9786 30.5029 47.8798C30.3526 47.7809 30.3099 47.5773 30.4074 47.425C30.8677 46.7062 31.3974 46.0181 31.9154 45.3453C32.1402 45.0533 32.3628 44.7642 32.5765 44.4767C32.6643 44.3586 32.7554 44.2435 32.8432 44.1327L32.8517 44.1221C32.9375 44.0139 33.0202 43.9097 33.0995 43.804C33.2631 43.5859 33.4026 43.3737 33.5025 43.146C33.5752 42.9801 33.7669 42.9054 33.9305 42.9791Z" fill="black"/>
<path fill-rule="evenodd" clip-rule="evenodd" d="M27.5944 40.4668C27.7594 40.5372 27.8369 40.73 27.7674 40.8973C27.533 41.4615 27.195 41.9667 26.8755 42.4441C26.7823 42.5834 26.6906 42.7204 26.6036 42.8557C26.0824 43.6664 25.6058 44.4853 25.2447 45.3606C25.1756 45.5281 24.9856 45.6071 24.8204 45.5371C24.6551 45.467 24.5772 45.2744 24.6463 45.1069C25.0294 44.1783 25.5301 43.3212 26.0602 42.4968C26.1618 42.3386 26.2631 42.1871 26.362 42.0391C26.6738 41.5726 26.9626 41.1405 27.1696 40.6422C27.2391 40.4748 27.4293 40.3963 27.5944 40.4668Z" fill="black"/>
<path fill-rule="evenodd" clip-rule="evenodd" d="M25.1744 41.1452C25.1986 40.9653 25.3621 40.8394 25.5395 40.8639C26.4028 40.9832 27.2437 41.2482 28.0456 41.5008C28.1558 41.5356 28.2653 41.57 28.3739 41.6039C29.4106 41.9267 30.4245 42.2229 31.4749 42.4463C31.8945 42.5356 32.3171 42.6002 32.7503 42.6664C32.912 42.6911 33.0751 42.716 33.2401 42.7425C33.8394 42.8389 34.4518 42.9548 35.0481 43.1563C35.2181 43.2137 35.3099 43.3999 35.2533 43.5721C35.1966 43.7443 35.013 43.8374 34.843 43.78C34.299 43.5962 33.7295 43.4869 33.1386 43.3919C32.9845 43.3671 32.828 43.3432 32.6702 43.3191C32.2309 43.252 31.781 43.1832 31.3417 43.0898C30.262 42.8601 29.2256 42.5569 28.1835 42.2324C28.0722 42.1977 27.9614 42.1629 27.8511 42.1281C27.0437 41.874 26.2578 41.6267 25.4519 41.5153C25.2744 41.4908 25.1502 41.3251 25.1744 41.1452Z" fill="black"/>
<path fill-rule="evenodd" clip-rule="evenodd" d="M15.4977 52.7479C15.5082 52.9292 15.3718 53.0847 15.193 53.0954C14.1802 53.1558 13.1872 53.3164 12.1767 53.4797C11.7123 53.5548 11.2442 53.6305 10.7688 53.6974C10.5914 53.7223 10.4276 53.5967 10.403 53.4169C10.3784 53.2371 10.5023 53.071 10.6797 53.0461C11.1267 52.9833 11.5794 52.9101 12.0361 52.8363C13.0628 52.6705 14.1093 52.5014 15.1549 52.4391C15.3337 52.4284 15.4872 52.5667 15.4977 52.7479Z" fill="black"/>
<path fill-rule="evenodd" clip-rule="evenodd" d="M16.0807 58.5754C16.1334 58.7489 16.0373 58.9329 15.8661 58.9863C14.2084 59.5033 12.442 59.8779 10.6884 59.9307C10.5094 59.9361 10.36 59.7933 10.3546 59.6119C10.3493 59.4304 10.4901 59.2789 10.6692 59.2735C12.3476 59.223 14.0543 58.8635 15.6753 58.3579C15.8465 58.3045 16.028 58.4019 16.0807 58.5754Z" fill="black"/>
<path fill-rule="evenodd" clip-rule="evenodd" d="M10.8306 53.9738C11.0088 53.9559 11.1677 54.0878 11.1854 54.2684C11.3512 55.961 11.5559 57.6607 11.7754 59.3498C11.8375 59.8271 11.9371 60.3019 12.0497 60.7813C12.0912 60.958 11.9836 61.1352 11.8094 61.1773C11.6351 61.2193 11.4602 61.1102 11.4188 60.9336C11.3042 60.4458 11.1987 59.9457 11.1324 59.4357C10.9124 57.7427 10.7067 56.0355 10.5399 54.3334C10.5222 54.1528 10.6524 53.9917 10.8306 53.9738Z" fill="black"/>
<path fill-rule="evenodd" clip-rule="evenodd" d="M17.4846 60.428C17.6423 60.5141 17.7013 60.7135 17.6163 60.8733C17.2475 61.5677 16.811 62.2161 16.3777 62.8469C16.332 62.9134 16.2864 62.9798 16.2408 63.0459C15.8516 63.6113 15.4706 64.1648 15.1329 64.7442C15.0417 64.9006 14.8429 64.9524 14.6887 64.86C14.5345 64.7677 14.4833 64.5661 14.5745 64.4098C14.9255 63.8076 15.321 63.233 15.7084 62.6704C15.7542 62.6038 15.7999 62.5375 15.8454 62.4712C16.2787 61.8404 16.6958 61.2194 17.0453 60.5616C17.1302 60.4018 17.3269 60.342 17.4846 60.428Z" fill="black"/>
<path fill-rule="evenodd" clip-rule="evenodd" d="M14.0838 64.3443C14.1358 64.1706 14.3169 64.0724 14.4883 64.1251C15.1381 64.3247 15.7795 64.5309 16.4186 64.7363C17.4049 65.0534 18.3857 65.3688 19.3834 65.6553C19.4428 65.6724 19.5017 65.6894 19.5602 65.7063C20.206 65.8929 20.8034 66.0655 21.4359 66.1113C21.6146 66.1242 21.749 66.2815 21.7363 66.4626C21.7235 66.6437 21.5683 66.78 21.3897 66.7671C20.6866 66.7162 20.0251 66.5247 19.3904 66.341C19.3289 66.3232 19.2676 66.3054 19.2066 66.2879C18.2033 65.9997 17.2011 65.6776 16.2046 65.3574C15.5671 65.1525 14.9319 64.9483 14.3002 64.7543C14.1288 64.7016 14.0319 64.5181 14.0838 64.3443Z" fill="black"/>
<path fill-rule="evenodd" clip-rule="evenodd" d="M22.5719 62.9062C22.7481 62.9387 22.865 63.1099 22.833 63.2885C22.7612 63.6887 22.6122 64.0327 22.4307 64.3653C22.2885 64.6259 22.1574 64.8909 22.0228 65.163C21.9703 65.2693 21.9172 65.3767 21.8627 65.4853C21.6714 65.8664 21.4668 66.2542 21.2234 66.6215C21.1236 66.7722 20.9221 66.8123 20.7734 66.7111C20.6247 66.6099 20.5851 66.4056 20.685 66.2549C20.9058 65.9216 21.0962 65.5625 21.2846 65.1872C21.3352 65.0863 21.386 64.9835 21.4373 64.8798C21.574 64.6034 21.7141 64.3202 21.8631 64.0471C22.0255 63.7495 22.1402 63.4754 22.1948 63.1709C22.2269 62.9922 22.3957 62.8738 22.5719 62.9062Z" fill="black"/>
<path fill-rule="evenodd" clip-rule="evenodd" d="M25.6901 62.7605C25.7941 62.6127 25.9966 62.5782 26.1424 62.6836C27.2387 63.4757 28.3509 64.3352 29.2701 65.3834C29.3891 65.5191 29.377 65.7269 29.2432 65.8476C29.1093 65.9682 28.9043 65.9559 28.7853 65.8203C27.9175 64.8306 26.856 64.0066 25.766 63.219C25.6201 63.1136 25.5862 62.9084 25.6901 62.7605Z" fill="black"/>
<path fill-rule="evenodd" clip-rule="evenodd" d="M34.1194 61.9264C34.2461 62.0547 34.2461 62.2629 34.1194 62.3913C33.5907 62.9273 33.0026 63.3213 32.4186 63.7126C32.3716 63.7441 32.3246 63.7756 32.2777 63.8071C31.2354 64.5077 30.1576 65.1715 29.0378 65.7529C28.8784 65.8357 28.6829 65.7718 28.6013 65.6102C28.5196 65.4486 28.5827 65.2505 28.7421 65.1677C29.8344 64.6006 30.8908 63.9504 31.9193 63.2592C31.9634 63.2295 32.0072 63.2002 32.0507 63.171C32.6448 62.7725 33.1803 62.4134 33.6608 61.9264C33.7874 61.798 33.9928 61.798 34.1194 61.9264Z" fill="black"/>
<path fill-rule="evenodd" clip-rule="evenodd" d="M30.7087 58.8783C30.825 58.7403 31.0298 58.7241 31.1659 58.842C31.9937 59.5593 32.8533 60.2417 33.7177 60.9278C33.888 61.063 34.0585 61.1983 34.229 61.3341C34.34 61.4225 34.4466 61.5097 34.5513 61.5952C34.8204 61.8152 35.0759 62.0241 35.3554 62.2129C35.5044 62.3136 35.5447 62.5177 35.4453 62.6688C35.346 62.8199 35.1446 62.8607 34.9956 62.76C34.6898 62.5533 34.3998 62.3162 34.1228 62.0898C34.023 62.0082 33.9249 61.928 33.8283 61.8511C33.6596 61.7168 33.4903 61.5824 33.3207 61.4478C32.4564 60.7617 31.5838 60.0691 30.7444 59.3418C30.6083 59.2238 30.5923 59.0163 30.7087 58.8783Z" fill="black"/>
<path fill-rule="evenodd" clip-rule="evenodd" d="M28.5442 64.6178C28.699 64.5266 28.8975 64.5798 28.9875 64.7368C29.1521 65.0238 29.2185 65.3227 29.2526 65.6023C29.2695 65.7415 29.279 65.8805 29.2873 66.0115C29.2882 66.0265 29.2891 66.0413 29.2901 66.056C29.2974 66.1731 29.3043 66.2834 29.3153 66.3932C29.3165 66.4052 29.3177 66.4173 29.3188 66.4293C29.3322 66.5642 29.3454 66.6988 29.3742 66.8252C29.4066 66.9671 29.4483 67.0484 29.487 67.0876C29.6136 67.216 29.6136 67.4241 29.487 67.5525C29.3603 67.6809 29.155 67.6809 29.0283 67.5525C28.8609 67.3828 28.784 67.1563 28.7423 66.9731C28.7036 66.8033 28.6864 66.6271 28.6737 66.4978C28.6724 66.4844 28.6712 66.4716 28.6699 66.4593C28.6577 66.3365 28.65 66.2134 28.6427 66.0977C28.6418 66.0829 28.6409 66.0682 28.64 66.0536C28.6317 65.9226 28.6232 65.8009 28.6088 65.6829C28.5802 65.4482 28.5299 65.2471 28.4268 65.0673C28.3368 64.9103 28.3893 64.7091 28.5442 64.6178Z" fill="black"/>
<path fill-rule="evenodd" clip-rule="evenodd" d="M26.3133 64.1267C26.458 64.0197 26.6609 64.0518 26.7665 64.1985C27.1012 64.6635 27.5299 65.0521 27.9901 65.4691C27.997 65.4754 28.004 65.4817 28.011 65.488C28.4697 65.9038 28.9583 66.3493 29.3391 66.9007C29.4418 67.0495 29.4061 67.2545 29.2594 67.3586C29.1126 67.4627 28.9104 67.4265 28.8077 67.2778C28.4765 66.7981 28.0445 66.4004 27.5786 65.9782C27.5646 65.9655 27.5507 65.9528 27.5366 65.9401C27.0921 65.5373 26.6184 65.1081 26.2425 64.586C26.137 64.4394 26.1687 64.2337 26.3133 64.1267Z" fill="black"/>
<path fill-rule="evenodd" clip-rule="evenodd" d="M34.1191 63.2281C34.2458 63.3565 34.2458 63.5647 34.1191 63.693C33.6035 64.2157 33.0639 64.6526 32.5031 65.0924C32.1832 65.3432 31.8816 65.6117 31.5695 65.8894C31.3676 66.0692 31.1612 66.2528 30.9426 66.4382C30.4034 66.8955 29.8197 67.3346 29.1546 67.6224C28.9899 67.6937 28.7993 67.6162 28.729 67.4492C28.6587 67.2822 28.7352 67.0891 28.8999 67.0178C29.4766 66.7682 30.0021 66.3786 30.5264 65.9339C30.7184 65.7711 30.9152 65.5962 31.1145 65.4191C31.4417 65.1283 31.7757 64.8315 32.1062 64.5723C32.664 64.1349 33.1758 63.7194 33.6605 63.2281C33.7871 63.0997 33.9925 63.0997 34.1191 63.2281Z" fill="black"/>
<path fill-rule="evenodd" clip-rule="evenodd" d="M33.7383 61.3117C33.8963 61.2263 34.0928 61.2869 34.1771 61.4471C34.6311 62.3101 34.8574 63.2319 34.8574 64.2058C34.8574 64.3873 34.7122 64.5345 34.5331 64.5345C34.354 64.5345 34.2088 64.3873 34.2088 64.2058C34.2088 63.3395 34.0086 62.5241 33.6047 61.7565C33.5205 61.5963 33.5802 61.3971 33.7383 61.3117Z" fill="black"/>
<path fill-rule="evenodd" clip-rule="evenodd" d="M20.6485 66.0045C20.7832 65.8847 20.9881 65.8983 21.1062 66.0348C21.7084 66.7307 22.0214 67.6084 22.3027 68.3973C22.3219 68.451 22.3409 68.5044 22.3599 68.5573C22.4211 68.7279 22.3343 68.9165 22.1659 68.9786C21.9976 69.0406 21.8115 68.9526 21.7503 68.782C21.7346 68.7382 21.719 68.6945 21.7034 68.651C21.4113 67.8341 21.137 67.0675 20.6186 66.4684C20.5005 66.3319 20.5139 66.1242 20.6485 66.0045Z" fill="black"/>
<path fill-rule="evenodd" clip-rule="evenodd" d="M23.6471 64.9499C23.8253 64.968 23.9553 65.1291 23.9375 65.3097C23.8974 65.7159 23.7301 66.0339 23.5794 66.3203C23.5685 66.3409 23.5577 66.3614 23.5471 66.3817C23.1666 67.109 22.8022 67.8455 22.437 68.586C22.3569 68.7484 22.1621 68.8143 22.0019 68.7331C21.8417 68.6519 21.7767 68.4544 21.8568 68.292C22.2219 67.552 22.5894 66.8089 22.9741 66.0737C22.9799 66.0626 22.9856 66.0517 22.9913 66.0408C23.1547 65.7286 23.2652 65.5177 23.2921 65.2443C23.31 65.0636 23.4689 64.9318 23.6471 64.9499Z" fill="black"/>
<path fill-rule="evenodd" clip-rule="evenodd" d="M26.8265 64.2496C26.9532 64.378 26.9532 64.5861 26.8265 64.7145C26.6805 64.8625 26.5019 64.9634 26.3381 65.0373C26.1873 65.1052 26.0301 65.1581 25.9016 65.2014C25.8905 65.2052 25.8796 65.2088 25.8689 65.2124C24.9696 65.5163 24.1358 65.5058 23.2443 65.3649C23.0674 65.3369 22.9463 65.1688 22.9739 64.9894C23.0015 64.81 23.1673 64.6873 23.3443 64.7153C24.1747 64.8465 24.8958 64.8482 25.6638 64.5887C25.6733 64.5855 25.6827 64.5823 25.692 64.5792C25.8258 64.534 25.954 64.4908 26.0746 64.4365C26.2036 64.3783 26.3014 64.3169 26.3679 64.2496C26.4945 64.1212 26.6999 64.1212 26.8265 64.2496Z" fill="black"/>
<path fill-rule="evenodd" clip-rule="evenodd" d="M14.2628 63.9781C14.4126 63.8786 14.6137 63.9211 14.7118 64.0729C15.2877 64.9639 15.8327 65.8731 16.3701 66.781C16.4622 66.9367 16.4124 67.1386 16.2588 67.232C16.1053 67.3254 15.906 67.2749 15.8139 67.1192C15.2772 66.2125 14.7377 65.3127 14.1693 64.4333C14.0711 64.2814 14.113 64.0776 14.2628 63.9781Z" fill="black"/>
<path fill-rule="evenodd" clip-rule="evenodd" d="M14.7716 66.4375C14.8218 66.2632 15.0018 66.1631 15.1737 66.2139C16.8218 66.7012 18.4736 67.1688 20.1428 67.528C20.5601 67.6179 20.984 67.6907 21.4158 67.7648C21.4943 67.7783 21.5731 67.7919 21.6522 67.8055C22.1624 67.8939 22.6811 67.9883 23.1894 68.1171C23.3631 68.1611 23.4688 68.3396 23.4253 68.5158C23.3819 68.6919 23.2058 68.799 23.0321 68.7549C22.5496 68.6327 22.052 68.5418 21.543 68.4536C21.4657 68.4403 21.3881 68.4269 21.3102 68.4136C20.8788 68.3395 20.4397 68.2641 20.0081 68.1712C18.3141 67.8066 16.643 67.3332 14.9921 66.8451C14.8202 66.7943 14.7215 66.6118 14.7716 66.4375Z" fill="black"/>
<path fill-rule="evenodd" clip-rule="evenodd" d="M34.7236 56.8121C34.9002 56.842 35.0196 57.0114 34.9902 57.1905C34.8823 57.8462 34.4839 58.3988 34.1602 58.8477C34.1567 58.8526 34.1532 58.8575 34.1497 58.8623C33.6298 59.5835 33.0021 60.0176 32.2338 60.366C32.0703 60.4402 31.8785 60.3659 31.8053 60.2002C31.7322 60.0344 31.8054 59.84 31.9689 59.7658C32.6653 59.4501 33.1903 59.0788 33.626 58.4744C33.9694 57.9981 34.271 57.5652 34.3504 57.0824C34.3798 56.9033 34.5469 56.7823 34.7236 56.8121Z" fill="black"/>
<path fill-rule="evenodd" clip-rule="evenodd" d="M37.7323 57.5451C37.6758 57.5523 37.6158 57.56 37.5503 57.5673C36.5368 57.6802 35.5384 57.6985 34.5332 57.6985C34.3541 57.6985 34.2089 57.5513 34.2089 57.3697C34.2089 57.1882 34.3541 57.041 34.5332 57.041C35.533 57.041 36.5024 57.0226 37.4795 56.9138C37.5211 56.9091 37.5666 56.9033 37.6148 56.8971C37.7652 56.8778 37.9423 56.855 38.1113 56.855C38.2904 56.855 38.4356 57.0022 38.4356 57.1837C38.4356 57.3653 38.2904 57.5125 38.1113 57.5125C37.9866 57.5125 37.8699 57.5274 37.7323 57.5451Z" fill="black"/>
<path fill-rule="evenodd" clip-rule="evenodd" d="M37.64 48.1162C37.7926 48.2113 37.8401 48.4138 37.7462 48.5685C37.6506 48.7261 37.6341 48.9446 37.686 49.2413C37.7209 49.4405 37.7752 49.6261 37.8318 49.8191C37.8628 49.925 37.8945 50.0331 37.9239 50.1469C38.0189 50.514 38.1421 50.8886 38.2652 51.2627C38.2709 51.28 38.2766 51.2974 38.2823 51.3147C38.339 51.487 38.2471 51.6731 38.0772 51.7306C37.9073 51.788 37.7236 51.6949 37.667 51.5226C37.6606 51.5033 37.6542 51.4839 37.6478 51.4643C37.5265 51.0956 37.3971 50.7023 37.2965 50.3138C37.2774 50.2398 37.252 50.1526 37.2244 50.0575C37.1621 49.8437 37.0883 49.5897 37.0474 49.3561C36.9862 49.0067 36.9723 48.5888 37.1939 48.2239C37.2877 48.0693 37.4875 48.021 37.64 48.1162Z" fill="black"/>
<path fill-rule="evenodd" clip-rule="evenodd" d="M38.2488 50.9061C38.4262 50.8808 38.5902 51.006 38.6151 51.1858C38.7201 51.9428 38.7304 52.7158 38.7403 53.4643C38.7426 53.6383 38.7449 53.8109 38.7483 53.9816C38.7669 54.9 38.8186 55.7808 39.0638 56.6259C39.1144 56.8001 39.016 56.9828 38.8442 57.034C38.6724 57.0853 38.4921 56.9856 38.4416 56.8114C38.1704 55.877 38.1186 54.9217 38.0999 53.9951C38.0962 53.8139 38.0938 53.6342 38.0914 53.4559C38.0813 52.7104 38.0715 51.9891 37.9728 51.2774C37.9479 51.0976 38.0714 50.9314 38.2488 50.9061Z" fill="black"/>
<path fill-rule="evenodd" clip-rule="evenodd" d="M37.1057 54.5133C37.2688 54.4383 37.4611 54.5116 37.535 54.6769C37.947 55.5978 38.2625 56.5578 38.5705 57.4948C38.5812 57.5271 38.5918 57.5595 38.6024 57.5918C38.6591 57.764 38.5672 57.9502 38.3973 58.0076C38.2274 58.065 38.0437 57.9719 37.9871 57.7997C37.9778 57.7713 37.9685 57.743 37.9591 57.7147C37.6481 56.7686 37.342 55.8375 36.9443 54.9485C36.8703 54.7831 36.9426 54.5883 37.1057 54.5133Z" fill="black"/>
<path fill-rule="evenodd" clip-rule="evenodd" d="M33.345 54.8834C33.5084 54.809 33.7003 54.883 33.7737 55.0487C33.908 55.3519 34.1029 55.6277 34.3272 55.9183C34.3747 55.9798 34.424 56.0426 34.4743 56.1066C34.654 56.3354 34.8459 56.5797 35.0094 56.8368C35.1359 57.0359 35.258 57.2275 35.3887 57.4041C35.4962 57.5493 35.4671 57.7554 35.3238 57.8643C35.1806 57.9733 34.9773 57.9438 34.8698 57.7986C34.7233 57.6005 34.5891 57.3895 34.4648 57.194L34.4642 57.193C34.32 56.9662 34.1554 56.7565 33.9794 56.5323C33.926 56.4643 33.8716 56.395 33.8164 56.3235C33.5861 56.0252 33.3501 55.6975 33.182 55.318C33.1086 55.1523 33.1816 54.9578 33.345 54.8834Z" fill="black"/>
<path fill-rule="evenodd" clip-rule="evenodd" d="M34.4652 45.3531C34.6028 45.4693 34.6214 45.6766 34.5068 45.8161C34.1298 46.2746 33.7068 46.6653 33.2797 47.0399C33.1576 47.147 33.0229 47.2542 32.8914 47.3585L32.8772 47.3698C32.7484 47.4719 32.6219 47.5723 32.5007 47.676C32.2456 47.8944 32.0432 48.1041 31.928 48.3197C31.8427 48.4793 31.6459 48.5387 31.4884 48.4522C31.3309 48.3657 31.2724 48.1662 31.3577 48.0066C31.5328 47.6788 31.8127 47.4044 32.0822 47.1737C32.2129 47.0618 32.348 46.9547 32.4743 46.8545C32.4801 46.8499 32.4859 46.8453 32.4917 46.8407C32.6251 46.7349 32.7472 46.6375 32.8552 46.5428C33.2764 46.1733 33.6665 45.8111 34.0085 45.3951C34.1231 45.2557 34.3276 45.2368 34.4652 45.3531Z" fill="black"/>
<path fill-rule="evenodd" clip-rule="evenodd" d="M33.8001 42.6279C33.9792 42.6279 34.1244 42.7751 34.1244 42.9567C34.1244 43.4644 34.158 43.9734 34.1925 44.4945L34.193 44.502C34.2271 45.017 34.2621 45.5441 34.2621 46.0722C34.2621 46.2538 34.1169 46.4009 33.9378 46.4009C33.7586 46.4009 33.6134 46.2538 33.6134 46.0722C33.6134 45.5674 33.5799 45.0598 33.5454 44.5386L33.5452 44.5354C33.5109 44.0189 33.4758 43.489 33.4758 42.9567C33.4758 42.7751 33.621 42.6279 33.8001 42.6279Z" fill="black"/>
<path fill-rule="evenodd" clip-rule="evenodd" d="M16.2255 60.1408C16.2606 60.3188 16.1467 60.492 15.9711 60.5276C15.651 60.5925 15.3308 60.6641 15.0091 60.736C13.9531 60.9721 12.8801 61.212 11.7385 61.2315C11.5594 61.2345 11.4118 61.0898 11.4087 60.9083C11.4057 60.7268 11.5484 60.5771 11.7275 60.5741C12.7979 60.5558 13.7845 60.3355 14.8266 60.1029C15.1585 60.0288 15.4961 59.9534 15.8438 59.8829C16.0195 59.8473 16.1903 59.9628 16.2255 60.1408Z" fill="black"/>
<path fill-rule="evenodd" clip-rule="evenodd" d="M32.2671 20.0145C33.1196 20.1821 33.8883 20.4546 34.365 20.911C34.5825 21.1192 34.7277 21.3503 34.7922 21.6027C34.8569 21.8558 34.8338 22.1045 34.7559 22.3357C34.6051 22.7834 34.2426 23.1864 33.8539 23.5213C33.1147 24.1582 32.1293 24.6732 31.7115 24.8917C31.6852 24.9054 31.6611 24.918 31.6395 24.9293C31.0872 25.2197 29.5519 25.798 27.5881 26.4436C25.6133 27.0927 23.1772 27.8188 20.8051 28.4029C18.4378 28.9859 16.116 29.4321 14.3773 29.5133C13.5132 29.5537 12.7587 29.5061 12.2082 29.3187C11.9305 29.2242 11.6824 29.0867 11.5016 28.8858C11.3483 28.7154 11.2544 28.5112 11.2255 28.281C11.0656 28.5854 10.8917 28.8869 10.6965 29.1373C10.4913 29.4003 10.2391 29.6378 9.92255 29.7447C9.75264 29.8021 9.56898 29.709 9.51234 29.5368C9.4557 29.3646 9.54753 29.1784 9.71745 29.121C9.86104 29.0725 10.0168 28.9485 10.1876 28.7295C10.3564 28.5131 10.5171 28.2338 10.6809 27.9186C10.7588 27.7688 10.8355 27.6146 10.9134 27.4579L10.9238 27.4371C11.0048 27.2743 11.0872 27.109 11.1709 26.9493C11.3368 26.6331 11.5174 26.3207 11.7216 26.0734C14.5982 22.5905 20.018 20.5789 24.3072 20.0486C25.3105 19.9246 27.3687 19.7273 29.3857 19.7575C30.3936 19.7726 31.4018 19.8445 32.2671 20.0145ZM14.0424 24.7409C14.1756 24.6637 14.3106 24.5883 14.4467 24.5148C15.8923 23.7336 17.5128 23.1345 18.5129 22.7647C18.6675 22.7076 18.8073 22.6559 18.9293 22.6098C23.3406 20.946 27.6932 21.1473 32.2216 21.6954C32.3994 21.717 32.5264 21.8805 32.5051 22.0608C32.4839 22.2411 32.3225 22.3698 32.1447 22.3483C27.6378 21.8028 23.4151 21.6194 19.1555 23.2261C19.0291 23.2737 18.886 23.3267 18.729 23.3847C17.7253 23.7561 16.1532 24.3377 14.7518 25.095C13.9415 25.5328 13.2075 26.0197 12.68 26.5441C12.1499 27.0712 11.8645 27.5995 11.8645 28.125C11.8645 28.26 11.9055 28.359 11.9808 28.4427C12.0626 28.5336 12.2001 28.6224 12.4147 28.6954C12.8486 28.8431 13.5052 28.8959 14.3475 28.8566C16.0217 28.7783 18.2941 28.3447 20.652 27.764C23.0052 27.1845 25.4254 26.4633 27.388 25.8182C29.3615 25.1695 30.8444 24.6067 31.341 24.3457C31.3618 24.3347 31.3845 24.3228 31.4089 24.31C31.8305 24.0894 32.7544 23.6057 33.4338 23.0204C33.7973 22.7072 34.0491 22.3992 34.1421 22.1233C34.186 21.9927 34.1921 21.8764 34.1643 21.7676C34.1363 21.658 34.0672 21.5303 33.9196 21.389C33.583 21.0667 32.9693 20.8223 32.1437 20.66C31.3309 20.5003 30.365 20.4297 29.3761 20.4149C27.3996 20.3853 25.3732 20.5792 24.3857 20.7013C20.9843 21.1218 16.9172 22.4899 14.0424 24.7409Z" fill="black"/>
<path fill-rule="evenodd" clip-rule="evenodd" d="M14.2865 2.52712C10.3786 4.52106 7.09586 8.10402 6.3261 13.306C6.32508 13.3129 6.32384 13.3198 6.32239 13.3266C5.08903 19.1171 7.21153 25.1581 11.4557 28.4479C11.5979 28.5582 11.6251 28.7646 11.5163 28.9088C11.4075 29.053 11.2039 29.0805 11.0617 28.9702C6.60594 25.5163 4.40851 19.2156 5.6862 13.1981C6.49615 7.7493 9.94149 4.00801 13.9949 1.93984C18.0397 -0.123896 22.7322 -0.543744 26.0891 0.693566C31.9809 2.86517 34.945 7.08746 35.9532 11.5862C36.9574 16.0667 36.0212 20.8138 34.1409 24.0794C34.0506 24.2362 33.852 24.2891 33.6973 24.1976C33.5426 24.1061 33.4904 23.9048 33.5807 23.748C35.3818 20.62 36.2869 16.0428 35.3207 11.7318C34.3586 7.43904 31.5408 3.40256 25.8675 1.31147C22.7112 0.148138 18.2057 0.527443 14.2865 2.52712Z" fill="black"/>
<path fill-rule="evenodd" clip-rule="evenodd" d="M10.6237 23.8792C10.8 23.8473 10.9684 23.9664 10.9998 24.1451C11.7485 28.4032 12.6048 32.6633 13.4604 36.9198C13.7888 38.5532 14.117 40.1861 14.4391 41.8182C14.5839 42.5521 14.7553 43.2537 14.9274 43.9576C15.0416 44.4246 15.156 44.8926 15.263 45.3719C15.5276 46.5562 15.7355 47.7656 15.7355 49.0514C15.7355 49.233 15.5903 49.3802 15.4112 49.3802C15.2321 49.3802 15.0869 49.233 15.0869 49.0514C15.0869 47.8366 14.8906 46.6818 14.6304 45.5171C14.5299 45.067 14.418 44.6085 14.3045 44.1437C14.1287 43.4235 13.9493 42.6884 13.803 41.9471C13.482 40.3202 13.1544 38.6904 12.8264 37.0587C11.9702 32.7993 11.1114 28.5271 10.3613 24.2605C10.3299 24.0818 10.4473 23.911 10.6237 23.8792Z" fill="black"/>
<path fill-rule="evenodd" clip-rule="evenodd" d="M33.4737 20.3877C33.6528 20.3877 33.798 20.5349 33.798 20.7164C33.798 25.0396 33.5825 29.3283 33.3676 33.6039L33.3672 33.6102C33.1522 37.8863 32.9379 42.1493 32.9379 46.4369C32.9379 46.6185 32.7927 46.7657 32.6136 46.7657C32.4345 46.7657 32.2893 46.6185 32.2893 46.4369C32.2893 42.1326 32.5043 37.8556 32.7191 33.5849L32.7198 33.5704C32.9349 29.2922 33.1494 25.0201 33.1494 20.7164C33.1494 20.5349 33.2946 20.3877 33.4737 20.3877Z" fill="black"/>
<path fill-rule="evenodd" clip-rule="evenodd" d="M14.7728 23.1032C14.9264 23.0098 15.1256 23.0602 15.2178 23.2159C15.809 24.2145 16.3297 25.0685 16.7774 25.8028C17.5137 27.0105 18.0527 27.8946 18.384 28.5663C18.4641 28.7287 18.3992 28.9261 18.239 29.0073C18.0788 29.0885 17.884 29.0227 17.8039 28.8603C17.4848 28.2134 16.971 27.371 16.2522 26.1924C15.803 25.4558 15.2736 24.5879 14.6616 23.5542C14.5695 23.3986 14.6192 23.1966 14.7728 23.1032ZM17.9163 22.044C18.0665 21.945 18.2674 21.9881 18.365 22.1403C18.8301 22.8649 19.1709 23.3932 19.4425 23.8142C20.3813 25.2693 20.493 25.4425 22.0502 28.0081C22.1441 28.1627 22.0965 28.3652 21.944 28.4603C21.7914 28.5555 21.5917 28.5072 21.4978 28.3526C19.9452 25.7946 19.8364 25.6259 18.8998 24.1742C18.6284 23.7534 18.2873 23.2248 17.8214 22.4988C17.7237 22.3466 17.7662 22.143 17.9163 22.044ZM12.6578 25.7756C12.8068 25.6749 13.0082 25.7158 13.1075 25.8668L15.2096 29.0637C15.3089 29.2148 15.2686 29.4189 15.1196 29.5196C14.9705 29.6203 14.7692 29.5795 14.6698 29.4284L12.5678 26.2315C12.4685 26.0804 12.5087 25.8763 12.6578 25.7756Z" fill="black"/>
<path fill-rule="evenodd" clip-rule="evenodd" d="M23.6861 19.9226C23.8308 19.8157 24.0337 19.8479 24.1392 19.9946C26.0112 22.5971 26.753 23.8287 28.3321 26.4965C28.4243 26.6522 28.3745 26.8542 28.2209 26.9476C28.0673 27.041 27.8681 26.9905 27.7759 26.8348C26.2013 24.1744 25.4707 22.9617 23.6151 20.3819C23.5096 20.2352 23.5414 20.0296 23.6861 19.9226ZM21.5732 22.1252C21.7246 22.0282 21.9249 22.0741 22.0206 22.2276L24.677 26.4901C24.7726 26.6436 24.7274 26.8467 24.576 26.9436C24.4246 27.0406 24.2243 26.9948 24.1286 26.8413L21.4722 22.5787C21.3766 22.4252 21.4218 22.2222 21.5732 22.1252ZM27.3792 18.8471C27.5293 18.7481 27.7302 18.7912 27.8278 18.9434C28.2784 19.6453 28.6123 20.1631 28.8795 20.5776C29.8418 22.0698 29.9404 22.2227 31.5117 24.8114C31.6055 24.966 31.5579 25.1685 31.4054 25.2637C31.2528 25.3588 31.0531 25.3106 30.9592 25.1559C29.3925 22.5747 29.2967 22.4261 28.3368 20.9375C28.0696 20.5232 27.7355 20.0051 27.2842 19.3019C27.1865 19.1497 27.229 18.9461 27.3792 18.8471Z" fill="black"/>
<path fill-rule="evenodd" clip-rule="evenodd" d="M3.9186 42.4537C4.06333 42.3468 4.26619 42.379 4.37172 42.5257C4.56598 42.7958 4.75726 43.061 4.94587 43.3226C6.56363 45.566 7.98489 47.5369 9.40537 49.9367C9.49752 50.0924 9.44772 50.2944 9.29414 50.3878C9.14055 50.4812 8.94134 50.4307 8.84919 50.275C7.44472 47.9022 6.04098 45.9555 4.4214 43.7094C4.23317 43.4484 4.04203 43.1833 3.84762 42.9131C3.7421 42.7664 3.77388 42.5607 3.9186 42.4537ZM7.40468 40.2396C7.55481 40.1406 7.7557 40.1837 7.85337 40.3359C8.69562 41.6481 9.57164 42.943 10.4502 44.2417C11.7142 46.1102 12.9836 47.9865 14.1654 49.9336C14.2592 50.0882 14.2117 50.2907 14.0591 50.3858C13.9066 50.481 13.7068 50.4327 13.613 50.2781C12.4337 48.3352 11.1864 46.4921 9.93382 44.6413C9.05448 43.3419 8.17254 42.0387 7.30971 40.6944C7.21203 40.5422 7.25455 40.3386 7.40468 40.2396ZM4.77359 51.8788C4.92262 51.778 5.12397 51.8189 5.22333 51.9699L8.37714 56.7654C8.47649 56.9165 8.43622 57.1206 8.28719 57.2213C8.13816 57.322 7.93681 57.2812 7.83745 57.1301L4.68364 52.3346C4.58429 52.1836 4.62457 51.9795 4.77359 51.8788ZM39.994 44.9501C40.1441 44.8511 40.345 44.8942 40.4427 45.0464C41.4834 46.6679 42.168 47.8455 42.8424 49.0297C42.9452 49.2102 43.0478 49.3908 43.1512 49.573C43.7261 50.5855 44.3306 51.65 45.1777 53.0458C45.2716 53.2004 45.224 53.4029 45.0715 53.498C44.9189 53.5932 44.7192 53.5449 44.6253 53.3903C43.7728 51.9858 43.1636 50.9127 42.5885 49.8999C42.4852 49.718 42.383 49.538 42.2807 49.3584C41.6094 48.1797 40.9312 47.013 39.899 45.4049C39.8013 45.2528 39.8438 45.0491 39.994 44.9501ZM38.9427 48.6799C39.0928 48.5808 39.2937 48.6239 39.3914 48.7761C40.4322 50.3976 41.1167 51.5753 41.7912 52.7594C41.894 52.9399 41.9965 53.1205 42.1 53.3027C42.6749 54.3152 43.2793 55.3798 44.1265 56.7755C44.2203 56.9301 44.1728 57.1326 44.0202 57.2278C43.8677 57.3229 43.6679 57.2747 43.5741 57.12C42.7216 55.7155 42.1123 54.6425 41.5372 53.6296C41.4339 53.4477 41.3317 53.2678 41.2295 53.0882C40.5581 51.9095 39.8799 50.7428 38.8477 49.1347C38.7501 48.9825 38.7926 48.7789 38.9427 48.6799Z" fill="black"/>
<path fill-rule="evenodd" clip-rule="evenodd" d="M22.9551 9.73925C23.1842 9.9737 23.5555 9.9737 23.7846 9.73925C24.0136 9.50479 24.0136 9.12466 23.7846 8.89021L20.763 5.7972L24.4215 3.635C25.2771 3.12934 26.3466 3.76141 26.3466 4.77273L26.3466 11.3806L21.9241 12.4636C21.6091 12.5408 21.4148 12.8647 21.4902 13.1872C21.5655 13.5097 21.882 13.7085 22.197 13.6314L26.3466 12.6152V17.5511C26.3466 18.5624 25.2771 19.1945 24.4215 18.6888L19.3315 15.6806L20.0437 10.4151C20.0881 10.0867 19.864 9.78357 19.5432 9.73809C19.2223 9.69262 18.9262 9.922 18.8818 10.2504L18.2349 15.0325L13.6107 12.2996C12.7551 11.794 12.7551 10.5298 13.6107 10.0242L19.7113 6.41874L22.9551 9.73925Z" fill="white"/>
</svg>
