<svg width="108" height="117" viewBox="0 0 108 117" fill="none" xmlns="http://www.w3.org/2000/svg">
<path d="M17.5603 79.9666L11.6445 73.5856L25.2289 77.3262L53.7121 75.3459L66.42 70.7251C71.2403 72.4854 77.156 76.006 77.156 76.006C77.156 76.006 67.2234 80.1867 63.7908 81.7269V111.652L32.4592 115.172L24.1333 105.931V81.7269L17.5603 79.9666Z" fill="white"/>
<path d="M33.0745 84.2921L16.2253 79.9051L11.5449 73.9514L26.21 77.3983L53.356 75.8315L67.709 71.4446L77.6937 75.8315L64.9008 81.4719L33.0745 84.2921Z" fill="url(#paint0_linear_38_168633)"/>
<path fill-rule="evenodd" clip-rule="evenodd" d="M32.5181 83.8807C32.6904 83.8807 32.8301 84.021 32.8301 84.1941L32.8301 115.671C32.8301 115.844 32.6904 115.985 32.5181 115.985C32.3458 115.985 32.2061 115.844 32.2061 115.671L32.2061 84.1941C32.2061 84.021 32.3458 83.8807 32.5181 83.8807Z" fill="black"/>
<path fill-rule="evenodd" clip-rule="evenodd" d="M63.8199 79.8192C63.9922 79.8192 64.1319 79.9595 64.1319 80.1326L64.1319 112.016C64.1319 112.189 63.9922 112.329 63.8198 112.329C63.6475 112.329 63.5078 112.189 63.5078 112.016L63.5078 80.1326C63.5078 79.9595 63.6475 79.8192 63.8199 79.8192Z" fill="black"/>
<path fill-rule="evenodd" clip-rule="evenodd" d="M64.8826 111.776C64.9029 111.948 64.7806 112.103 64.6094 112.124C55.8149 113.17 50.2595 113.751 44.4265 114.361C40.0688 114.816 35.5562 115.288 29.4222 115.983C29.2509 116.002 29.0965 115.878 29.0772 115.706C29.0579 115.534 29.1811 115.379 29.3523 115.36C35.5001 114.664 40.0137 114.192 44.37 113.737C50.1961 113.127 55.7405 112.547 64.536 111.501C64.7072 111.481 64.8623 111.604 64.8826 111.776Z" fill="black"/>
<path fill-rule="evenodd" clip-rule="evenodd" d="M22.9063 104.881C23.0326 104.764 23.2301 104.771 23.3473 104.898C25.4337 107.154 26.9156 108.74 28.1976 110.111C30.1433 112.193 31.6285 113.782 34.067 116.476C34.1829 116.604 34.1735 116.802 34.046 116.918C33.9185 117.035 33.7211 117.025 33.6052 116.897C31.1693 114.206 29.6893 112.623 27.747 110.545C26.4652 109.174 24.9821 107.587 22.89 105.324C22.7728 105.197 22.7801 104.999 22.9063 104.881Z" fill="black"/>
<path fill-rule="evenodd" clip-rule="evenodd" d="M24.1587 81.3826C24.331 81.3826 24.4707 81.5229 24.4707 81.6959V107.548C24.4707 107.721 24.331 107.861 24.1587 107.861C23.9864 107.861 23.8467 107.721 23.8467 107.548V81.6959C23.8467 81.5229 23.9864 81.3826 24.1587 81.3826Z" fill="black"/>
<path fill-rule="evenodd" clip-rule="evenodd" d="M29.0759 84.6206C29.0871 84.7933 29.2356 84.9242 29.4075 84.9129C38.7131 84.3034 53.6806 83.0847 65.8171 81.8658C65.9885 81.8486 66.1136 81.695 66.0965 81.5228C66.0793 81.3506 65.9264 81.225 65.755 81.2422C53.6256 82.4604 38.6652 83.6785 29.3669 84.2875C29.195 84.2988 29.0647 84.4479 29.0759 84.6206Z" fill="black"/>
<path fill-rule="evenodd" clip-rule="evenodd" d="M54.1672 75.4412C54.1784 75.6139 54.0482 75.763 53.8762 75.7744C41.5387 76.5868 36.0172 76.8742 24.9537 77.3993C24.7816 77.4075 24.6354 77.274 24.6273 77.1011C24.6192 76.9282 24.7521 76.7815 24.9243 76.7733C35.9849 76.2483 41.5026 75.9612 53.8354 75.149C54.0073 75.1377 54.1559 75.2685 54.1672 75.4412Z" fill="black"/>
<path fill-rule="evenodd" clip-rule="evenodd" d="M52.1951 74.252C52.302 74.1163 52.4982 74.0931 52.6334 74.2004C56.2079 77.0365 60.2277 79.2504 64.2485 81.4649C64.9803 81.868 65.7122 82.271 66.4414 82.6779C66.5921 82.7619 66.6463 82.9527 66.5627 83.104C66.479 83.2553 66.289 83.3098 66.1384 83.2257C65.4154 82.8224 64.6876 82.4216 63.9582 82.0199C59.9383 79.8063 55.8657 77.5637 52.2465 74.6922C52.1113 74.5849 52.0883 74.3878 52.1951 74.252Z" fill="black"/>
<path fill-rule="evenodd" clip-rule="evenodd" d="M70.9381 69.4832C70.9872 69.6491 70.8931 69.8235 70.7279 69.8728C70.5791 69.9173 70.4318 69.9612 70.2861 70.0047C63.1084 72.1475 59.6983 73.1656 53.7649 75.4568C53.6041 75.5189 53.4235 75.4383 53.3617 75.2768C53.2998 75.1152 53.3801 74.9339 53.5409 74.8718C59.4972 72.5718 62.9279 71.5476 70.1016 69.406C70.2495 69.3619 70.399 69.3172 70.5501 69.2721C70.7153 69.2228 70.889 69.3173 70.9381 69.4832Z" fill="black"/>
<path fill-rule="evenodd" clip-rule="evenodd" d="M80.0493 75.3852C80.097 75.5515 80.0015 75.7252 79.8359 75.7731C73.5781 77.5844 69.3473 79.405 63.891 81.8404C63.7335 81.9107 63.5491 81.8395 63.4791 81.6813C63.4091 81.5232 63.4801 81.338 63.6375 81.2677C69.1008 78.8293 73.3631 76.9945 79.6631 75.1709C79.8287 75.123 80.0016 75.2189 80.0493 75.3852Z" fill="black"/>
<path fill-rule="evenodd" clip-rule="evenodd" d="M66.1114 70.25C66.1855 70.0937 66.3717 70.0274 66.5273 70.1018C70.7737 72.1325 75.4271 74.3676 79.4745 76.3999C79.6286 76.4773 79.6911 76.6655 79.614 76.8203C79.537 76.9751 79.3495 77.0378 79.1954 76.9604C75.1541 74.9311 70.5057 72.6985 66.259 70.6676C66.1034 70.5932 66.0373 70.4062 66.1114 70.25Z" fill="black"/>
<path fill-rule="evenodd" clip-rule="evenodd" d="M11.3815 73.403C11.5085 73.2861 11.7059 73.2947 11.8223 73.4223C12.3989 74.054 12.9599 74.6833 13.5165 75.3076C15.1194 77.1056 16.685 78.8618 18.4762 80.5108C18.6033 80.6277 18.6119 80.8259 18.4954 80.9535C18.379 81.0811 18.1816 81.0897 18.0546 80.9728C16.2386 79.301 14.6437 77.5119 13.0349 75.7073C12.4822 75.0872 11.9278 74.4654 11.3623 73.8458C11.2458 73.7182 11.2544 73.52 11.3815 73.403Z" fill="black"/>
<path fill-rule="evenodd" clip-rule="evenodd" d="M24.295 76.6815C24.406 76.5491 24.6029 76.5321 24.7347 76.6436C28.5834 79.8984 31.0165 82.1383 34.4607 85.5972C34.5825 85.7195 34.5825 85.9179 34.4607 86.0403C34.3388 86.1627 34.1413 86.1627 34.0194 86.0403C30.5882 82.5945 28.1682 80.3667 24.3327 77.123C24.2009 77.0115 24.184 76.8138 24.295 76.6815Z" fill="black"/>
<path fill-rule="evenodd" clip-rule="evenodd" d="M16.1426 79.6526C16.1832 79.4844 16.3519 79.3811 16.5194 79.4219C17.0252 79.545 17.5137 79.6636 17.9871 79.7786C23.7583 81.1803 27.2983 82.04 32.7238 83.8975C32.8869 83.9534 32.9741 84.1314 32.9185 84.2952C32.8629 84.459 32.6855 84.5465 32.5224 84.4907C27.1246 82.6427 23.6101 81.7891 17.8367 80.3869C17.3645 80.2722 16.8771 80.1538 16.3724 80.0309C16.2049 79.9901 16.102 79.8208 16.1426 79.6526Z" fill="black"/>
<path fill-rule="evenodd" clip-rule="evenodd" d="M11.2893 73.5593C11.3304 73.3912 11.4994 73.2884 11.6668 73.3297C14.0366 73.914 16.3913 74.5548 18.7418 75.1944L18.8973 75.2368C21.3007 75.8908 23.6999 76.5423 26.1139 77.132C26.2813 77.1729 26.3841 77.3424 26.3433 77.5105C26.3026 77.6787 26.1338 77.7818 25.9664 77.7409C23.5433 77.149 21.1365 76.4954 18.7341 75.8417L18.5815 75.8001C16.229 75.1599 13.8804 74.5208 11.518 73.9383C11.3506 73.897 11.2483 73.7273 11.2893 73.5593Z" fill="black"/>
<path fill-rule="evenodd" clip-rule="evenodd" d="M53.5444 73.3207C53.7168 73.3207 53.8565 73.461 53.8565 73.634L53.8565 82.5695C53.8565 82.7425 53.7168 82.8828 53.5444 82.8828C53.3721 82.8828 53.2324 82.7425 53.2324 82.5695L53.2324 73.634C53.2324 73.461 53.3721 73.3207 53.5444 73.3207Z" fill="black"/>
<path fill-rule="evenodd" clip-rule="evenodd" d="M30.3034 113.05C30.1393 112.997 30.0491 112.821 30.1019 112.656L32.2728 105.884C32.3256 105.72 32.5014 105.629 32.6655 105.682C32.8296 105.735 32.9199 105.912 32.8671 106.077L30.6962 112.848C30.6434 113.013 30.4676 113.103 30.3034 113.05ZM27.9576 110.629C27.7935 110.576 27.7033 110.4 27.7561 110.235L32.2704 96.1534C32.3232 95.9887 32.499 95.8982 32.6631 95.9513C32.8272 96.0044 32.9175 96.181 32.8646 96.3457L28.3503 110.427C28.2975 110.592 28.1217 110.682 27.9576 110.629ZM25.3053 107.768C25.1421 107.714 25.0527 107.538 25.1053 107.374C26.2642 103.759 27.5061 100.08 28.7324 96.4497L28.7802 96.3082C28.7963 96.2606 28.8124 96.2129 28.8285 96.1653L32.2678 85.8116L32.2688 85.8084C32.3231 85.6449 32.4989 85.5562 32.6621 85.61C32.8253 85.6637 32.9147 85.8397 32.8621 86.0038C31.7911 89.3445 30.6134 92.8331 29.4201 96.3655L25.6996 107.566L25.6986 107.569C25.6443 107.733 25.4685 107.821 25.3053 107.768Z" fill="black"/>
<path fill-rule="evenodd" clip-rule="evenodd" d="M24.1861 100.949C24.0219 100.896 23.9311 100.72 23.9834 100.555L29.4307 83.3928C29.4831 83.2279 29.6587 83.1369 29.8229 83.1895C29.9872 83.2421 30.078 83.4184 30.0256 83.5833L24.5783 100.745C24.526 100.91 24.3504 101.001 24.1861 100.949ZM24.1828 91.0464C24.0187 90.9933 23.9284 90.8167 23.9813 90.652L26.6618 82.291C26.7146 82.1263 26.8904 82.0358 27.0546 82.0889C27.2187 82.142 27.3089 82.3185 27.2561 82.4833L24.5756 90.8442C24.5228 91.009 24.3469 91.0994 24.1828 91.0464Z" fill="black"/>
<path fill-rule="evenodd" clip-rule="evenodd" d="M45.4124 83.7841C45.2483 83.731 45.1581 83.5545 45.2109 83.3898L47.6086 75.9097C47.6614 75.745 47.8372 75.6546 48.0013 75.7076C48.1654 75.7607 48.2556 75.9373 48.2028 76.102L45.8051 83.582C45.7523 83.7467 45.5765 83.8372 45.4124 83.7841ZM49.1909 83.125C49.0269 83.0719 48.9367 82.8953 48.9894 82.7306L51.1756 75.9106C51.2284 75.7459 51.4042 75.6555 51.5683 75.7085C51.7323 75.7616 51.8226 75.9382 51.7698 76.1029L49.5836 82.9229C49.5308 83.0876 49.355 83.1781 49.1909 83.125ZM52.312 83.1258C52.148 83.0727 52.0577 82.8961 52.1105 82.7314L53.2389 79.2114C53.2917 79.0467 53.4675 78.9562 53.6315 79.0093C53.7956 79.0624 53.8858 79.239 53.833 79.4037L52.7047 82.9237C52.6519 83.0884 52.4761 83.1789 52.312 83.1258Z" fill="black"/>
<path fill-rule="evenodd" clip-rule="evenodd" d="M35.3654 84.6642C35.2013 84.6111 35.1111 84.4345 35.1639 84.2698L37.7027 76.3497C37.7555 76.185 37.9313 76.0945 38.0954 76.1476C38.2595 76.2007 38.3497 76.3772 38.2969 76.5419L35.7581 84.4621C35.7053 84.6268 35.5294 84.7173 35.3654 84.6642ZM39.0864 84.1848C38.9223 84.1317 38.8321 83.9552 38.8849 83.7905L41.2698 76.3506C41.3226 76.1859 41.4984 76.0954 41.6624 76.1485C41.8265 76.2016 41.9167 76.3781 41.8639 76.5428L39.4791 83.9827C39.4263 84.1474 39.2505 84.2379 39.0864 84.1848ZM42.224 84.1342C42.0599 84.0811 41.9697 83.9046 42.0225 83.7398L44.3909 76.3514C44.4437 76.1867 44.6195 76.0962 44.7836 76.1493C44.9477 76.2024 45.0379 76.3789 44.9851 76.5436L42.6167 83.9321C42.5639 84.0968 42.3881 84.1873 42.224 84.1342Z" fill="black"/>
<path fill-rule="evenodd" clip-rule="evenodd" d="M31.9959 83.7855C31.8318 83.7324 31.7416 83.5558 31.7944 83.3911L33.91 76.7913C33.9628 76.6266 34.1386 76.5362 34.3026 76.5893C34.4667 76.6423 34.5569 76.8189 34.5041 76.9836L32.3886 83.5834C32.3358 83.7481 32.16 83.8386 31.9959 83.7855ZM29.6506 81.3648C29.4866 81.3117 29.3964 81.1351 29.4492 80.9704L30.789 76.7906C30.8418 76.6259 31.0176 76.5354 31.1817 76.5885C31.3457 76.6416 31.4359 76.8181 31.3831 76.9828L30.0433 81.1627C29.9905 81.3274 29.8147 81.4178 29.6506 81.3648ZM26.8595 78.9439C26.6955 78.8909 26.6053 78.7143 26.658 78.5496L27.2222 76.7897C27.275 76.625 27.4508 76.5345 27.6148 76.5876C27.7789 76.6407 27.8691 76.8172 27.8163 76.9819L27.2522 78.7419C27.1994 78.9065 27.0236 78.997 26.8595 78.9439Z" fill="black"/>
<path fill-rule="evenodd" clip-rule="evenodd" d="M3.28447 45.3452C3.3943 45.2119 3.59098 45.1932 3.72377 45.3035C5.70932 46.9525 7.63784 48.6637 9.56288 50.3718C9.83821 50.6161 10.1135 50.8604 10.3888 51.1044C10.518 51.2189 10.5304 51.4169 10.4164 51.5467C10.3023 51.6764 10.1052 51.6888 9.97594 51.5743C9.70013 51.3299 9.42461 51.0854 9.1492 50.8411C7.22348 49.1324 5.30316 47.4284 3.32607 45.7864C3.19327 45.6761 3.17465 45.4786 3.28447 45.3452Z" fill="black"/>
<path fill-rule="evenodd" clip-rule="evenodd" d="M8.10163 44.1856C8.23625 44.0776 8.43259 44.0996 8.54017 44.2348C9.88654 45.9269 11.2657 47.5877 12.6488 49.2533C12.8313 49.473 13.0138 49.6928 13.1963 49.9128C13.3067 50.0458 13.2888 50.2433 13.1564 50.3541C13.024 50.4649 12.8273 50.447 12.7169 50.314C12.5346 50.0943 12.3521 49.8745 12.1696 49.6548C10.787 47.9897 9.4034 46.3236 8.05265 44.626C7.94508 44.4908 7.967 44.2937 8.10163 44.1856Z" fill="black"/>
<path d="M23.0897 7.52049L18.7214 8.1472C19.4702 6.6431 15.9132 3.55134 14.041 2.19348L18.7214 0.940063C20.2191 1.44143 22.2576 5.53592 23.0897 7.52049Z" fill="white"/>
<path d="M20.5935 59.5372C14.8523 51.2647 17.7853 45.6452 19.9694 43.8695C22.1536 41.9894 25.8979 42.6161 31.5143 45.7496C37.1307 48.8832 36.8187 59.5372 36.5066 61.4173C36.1946 63.2975 27.77 69.8779 20.5935 59.5372Z" fill="white"/>
<path d="M35.4 48.9733C38.7003 54.7174 37.7695 61.4636 33.3209 64.0414C28.8722 66.6193 22.5905 64.0526 19.2902 58.3086C15.9899 52.5645 16.9208 45.8183 21.3694 43.2405C25.818 40.6626 32.0997 43.2293 35.4 48.9733Z" fill="white"/>
<path fill-rule="evenodd" clip-rule="evenodd" d="M18.5592 44.8168C18.2415 45.1617 17.935 45.5478 17.6416 45.9775C17.5754 46.0745 17.5708 46.1956 17.6193 46.294C17.2151 47.1452 16.9708 48.0791 16.8679 49.0555C16.5295 52.2652 17.7119 55.9718 19.8293 58.8817C21.5425 61.2361 24.0409 63.2434 26.7462 64.2221C29.4573 65.203 32.3985 65.1559 34.941 63.3535C37.097 61.8252 37.6296 59.1462 37.277 56.3742C36.9235 53.5945 35.6741 50.6324 34.1417 48.3974C32.768 46.3939 29.9437 43.948 26.823 42.9103C25.7189 42.5431 24.5686 42.3493 23.4275 42.4196C23.3656 42.2956 23.2263 42.2239 23.0847 42.2537C21.1086 42.6696 19.6341 43.5541 18.6117 44.7544C18.594 44.7751 18.5765 44.7959 18.5592 44.8168ZM19.0288 45.2298C20.0017 44.1777 21.0698 43.5579 22.1694 43.2575C23.6141 42.863 25.1436 43.012 26.6269 43.5052C29.6039 44.4952 32.322 46.8485 33.6277 48.7528C35.1126 50.9186 36.3189 53.7875 36.658 56.4536C36.9981 59.1276 36.4603 61.5094 34.5811 62.8416C32.2433 64.4988 29.5258 64.5617 26.9577 63.6325C24.3837 62.7012 21.9824 60.7783 20.3332 58.5119C18.2877 55.7009 17.1695 52.1463 17.4884 49.1215C17.6441 47.6447 18.1409 46.3032 19.0288 45.2298Z" fill="black"/>
<path fill-rule="evenodd" clip-rule="evenodd" d="M29.4204 44.0763C29.5548 44.1846 29.5763 44.3818 29.4685 44.5168C28.545 45.6727 27.8933 46.5454 27.0228 47.8567C26.9273 48.0007 26.7335 48.0396 26.5901 47.9436C26.4468 47.8476 26.408 47.653 26.5036 47.509C27.386 46.1798 28.0489 45.2922 28.9817 44.1246C29.0896 43.9896 29.286 43.968 29.4204 44.0763Z" fill="black"/>
<path fill-rule="evenodd" clip-rule="evenodd" d="M31.5587 45.3962C31.6932 45.5043 31.7151 45.7015 31.6074 45.8366C31.2424 46.2948 30.8739 46.7702 30.4907 47.2645C30.4767 47.2825 30.4627 47.3006 30.4486 47.3187C30.0507 47.832 29.6369 48.3652 29.1973 48.9171C29.0896 49.0523 28.8933 49.0742 28.7587 48.9661C28.6242 48.858 28.6023 48.6608 28.71 48.5256C29.1467 47.9774 29.5582 47.4472 29.9562 46.9337C29.9706 46.9152 29.985 46.8967 29.9993 46.8782C30.3817 46.3849 30.7525 45.9067 31.1201 45.4451C31.2278 45.31 31.4241 45.2881 31.5587 45.3962Z" fill="black"/>
<path fill-rule="evenodd" clip-rule="evenodd" d="M33.772 46.7252C33.9017 46.8392 33.9148 47.0372 33.8013 47.1674C32.8246 48.2885 32.1092 49.0584 31.3789 49.8443C30.9617 50.2933 30.5397 50.7475 30.0613 51.2754C29.9454 51.4034 29.748 51.4127 29.6206 51.2962C29.4931 51.1798 29.4838 50.9816 29.5998 50.8536C30.0887 50.3141 30.5143 49.8561 30.9325 49.4061C31.6573 48.6262 32.3599 47.87 33.3317 46.7547C33.4452 46.6245 33.6423 46.6113 33.772 46.7252Z" fill="black"/>
<path fill-rule="evenodd" clip-rule="evenodd" d="M35.0913 48.9246C35.2215 49.0379 35.2356 49.2358 35.1227 49.3666C35.0749 49.422 35.0271 49.4774 34.9792 49.5329C33.7662 50.9384 32.5587 52.3374 31.3862 53.7716C31.2768 53.9054 31.0802 53.9248 30.947 53.8149C30.8139 53.7051 30.7945 53.5077 30.9039 53.3739C32.0818 51.9331 33.2942 50.5284 34.5058 49.1246C34.5542 49.0684 34.6027 49.0123 34.6511 48.9562C34.764 48.8254 34.9611 48.8112 35.0913 48.9246Z" fill="black"/>
<path fill-rule="evenodd" clip-rule="evenodd" d="M36.0605 51.1091C36.1995 51.2115 36.2295 51.4076 36.1276 51.5471C35.1955 52.8236 34.1181 53.9018 33.0271 54.9936C32.9115 55.1092 32.7958 55.2251 32.6801 55.3413C32.5583 55.4636 32.3607 55.4636 32.2389 55.3413C32.117 55.2189 32.117 55.0205 32.2389 54.8981C32.3543 54.7822 32.4693 54.6671 32.5837 54.5525C33.6796 53.4555 34.7224 52.4117 35.6244 51.1765C35.7263 51.037 35.9215 51.0068 36.0605 51.1091Z" fill="black"/>
<path d="M89.8615 31.6489L84.8691 28.5154C91.3592 27.5126 96.518 23.2928 98.2861 21.3082L104.839 24.4418C102.342 28.4527 93.8138 30.9178 89.8615 31.6489Z" fill="white"/>
<path d="M100.158 11.5943L92.0457 10.0275C92.7945 7.01926 89.4455 3.1337 87.6773 1.56696C93.4186 1.06559 96.102 2.19366 96.726 2.82037L100.158 11.5943Z" fill="white"/>
<path d="M94.0189 10.1299C94.0189 8.59887 92.5151 4.34068 88.5049 1.82361H94.0189L98.2798 3.08214L102.039 11.8919C99.1988 11.3885 94.0189 10.1299 94.0189 10.1299Z" fill="white" fill-opacity="0.2"/>
<path fill-rule="evenodd" clip-rule="evenodd" d="M84.7561 0.151109C84.8453 0.00306786 85.0372 -0.0442836 85.1846 0.045347C85.2982 0.114394 85.4119 0.1833 85.5256 0.25222C87.6961 1.56753 89.8751 2.88799 91.1928 5.29231C92.0452 6.84759 92.3594 8.39903 92.5199 10.0914C92.5363 10.2636 92.4104 10.4166 92.2389 10.433C92.0673 10.4494 91.915 10.3231 91.8987 10.1508C91.7423 8.50117 91.4409 7.04479 90.6461 5.5945C89.4115 3.34174 87.3678 2.10199 85.1639 0.765074C85.0634 0.704104 84.9625 0.642932 84.8614 0.581453C84.714 0.491822 84.6668 0.299151 84.7561 0.151109Z" fill="black"/>
<path fill-rule="evenodd" clip-rule="evenodd" d="M91.1688 9.67805C91.2089 9.50973 91.3772 9.40591 91.5448 9.44616C92.4184 9.65596 93.3101 9.83822 94.2145 10.0231C94.8071 10.1442 95.4052 10.2665 96.0072 10.3983C97.5158 10.7287 99.0236 11.1145 100.433 11.6806C100.593 11.7449 100.671 11.9272 100.607 12.0879C100.543 12.2486 100.361 12.3267 100.201 12.2625C98.8401 11.7158 97.3722 11.3387 95.8743 11.0106C95.2916 10.883 94.7003 10.7621 94.1093 10.6412C93.1938 10.454 92.2793 10.2669 91.3997 10.0557C91.2321 10.0154 91.1287 9.84636 91.1688 9.67805Z" fill="black"/>
<path fill-rule="evenodd" clip-rule="evenodd" d="M96.2626 2.47335C96.4058 2.37712 96.5996 2.41572 96.6954 2.55957C98.7728 5.67813 100.023 9.68905 100.683 12.3394C100.724 12.5073 100.623 12.6774 100.456 12.7194C100.288 12.7614 100.119 12.6593 100.077 12.4914C99.4224 9.86089 98.1931 5.93498 96.1767 2.90803C96.0809 2.76419 96.1194 2.56957 96.2626 2.47335Z" fill="black"/>
<path fill-rule="evenodd" clip-rule="evenodd" d="M88.9957 1.88536C88.0344 1.93815 86.97 1.97815 85.746 1.92181C85.5738 1.91388 85.4407 1.76731 85.4486 1.59443C85.4565 1.42156 85.6024 1.28783 85.7746 1.29576C86.9681 1.35069 88.0087 1.31191 88.9616 1.25958C89.1689 1.2482 89.3728 1.23611 89.5737 1.22421C90.2911 1.18167 90.9699 1.14144 91.6254 1.14377C93.3278 1.14985 94.9039 1.44233 96.8251 2.69077C96.9698 2.78479 97.0112 2.97879 96.9176 3.12409C96.8239 3.26938 96.6308 3.31096 96.4861 3.21694C94.6826 2.04498 93.2285 1.7762 91.6232 1.77048C90.9891 1.76822 90.3362 1.80688 89.6224 1.84916C89.4188 1.86122 89.2102 1.87357 88.9957 1.88536Z" fill="black"/>
<path fill-rule="evenodd" clip-rule="evenodd" d="M91.7339 1.31084C91.796 1.14938 91.9766 1.06902 92.1373 1.13133C93.3521 1.60219 94.5835 2.4689 95.7022 3.44583C96.8238 4.42539 97.8479 5.52981 98.6478 6.49381C98.7582 6.62676 98.7403 6.82435 98.6079 6.93514C98.4755 7.04593 98.2788 7.02797 98.1684 6.89502C97.3843 5.95003 96.3833 4.87123 95.2927 3.91874C94.199 2.96362 93.0309 2.14945 91.9126 1.716C91.7519 1.65369 91.6719 1.47229 91.7339 1.31084Z" fill="black"/>
<path d="M75.8708 78.6723L69.8555 75.4001L77.124 73.6382L85.1444 78.6723H75.8708Z" fill="white"/>
<path fill-rule="evenodd" clip-rule="evenodd" d="M78.5971 74.1935C74.2569 74.1935 71.9412 74.7874 69.0902 76.1436C68.9345 76.2177 68.7484 76.151 68.6746 75.9946C68.6009 75.8382 68.6673 75.6513 68.8231 75.5773C71.7652 74.1777 74.1733 73.5668 78.5971 73.5668C78.7694 73.5668 78.9091 73.7071 78.9091 73.8801C78.9091 74.0532 78.7694 74.1935 78.5971 74.1935Z" fill="black"/>
<path fill-rule="evenodd" clip-rule="evenodd" d="M85.7897 78.4703C81.6963 77.3979 77.5199 78.0848 73.4207 79.2095C73.2545 79.2552 73.0829 79.1568 73.0375 78.9899C72.9921 78.8229 73.09 78.6506 73.2562 78.605C77.3846 77.4722 81.6917 76.749 85.9472 77.8639C86.1139 77.9076 86.2139 78.0787 86.1704 78.2462C86.1269 78.4136 85.9564 78.514 85.7897 78.4703Z" fill="black"/>
<path fill-rule="evenodd" clip-rule="evenodd" d="M70.1941 75.1012C70.2732 74.9475 70.4614 74.8872 70.6145 74.9667C72.6168 76.0056 74.6378 76.963 76.6839 77.9219C76.8401 77.9951 76.9076 78.1816 76.8347 78.3384C76.7619 78.4952 76.5762 78.563 76.42 78.4898C74.3735 77.5307 72.3425 76.5687 70.328 75.5235C70.1749 75.444 70.115 75.255 70.1941 75.1012Z" fill="black"/>
<path fill-rule="evenodd" clip-rule="evenodd" d="M76.2737 73.6236C76.3513 73.4691 76.5389 73.407 76.6928 73.4849C79.8673 75.0926 82.9393 76.749 85.9343 78.6825C86.0792 78.7761 86.1212 78.97 86.028 79.1156C85.9348 79.2611 85.7418 79.3033 85.5968 79.2097C82.6281 77.2931 79.5779 75.6479 76.4118 74.0445C76.258 73.9666 76.1961 73.7781 76.2737 73.6236Z" fill="black"/>
<path fill-rule="evenodd" clip-rule="evenodd" d="M31.0046 62.9636C31.1587 62.8862 31.3461 62.9489 31.4232 63.1037C31.6352 63.5296 31.8477 63.9553 32.0602 64.3811C35.2053 70.6826 38.3567 76.9968 40.1069 83.8921C40.1495 84.0598 40.0486 84.2304 39.8816 84.2731C39.7146 84.3159 39.5448 84.2146 39.5022 84.0469C37.7693 77.2198 34.6468 70.9629 31.4953 64.6479C31.2852 64.2269 31.075 63.8057 30.865 63.384C30.788 63.2292 30.8504 63.041 31.0046 62.9636Z" fill="black"/>
<path fill-rule="evenodd" clip-rule="evenodd" d="M36.747 64.2651C36.9114 64.2133 37.0866 64.3051 37.1381 64.4702C37.7998 66.5884 38.4437 68.7079 39.0871 70.8259C40.0755 74.0794 41.0629 77.3296 42.1123 80.5664C42.1656 80.731 42.076 80.9078 41.9122 80.9614C41.7483 81.015 41.5722 80.925 41.5189 80.7604C40.4685 77.5205 39.4773 74.2578 38.487 70.9982C37.8438 68.8811 37.2011 66.7653 36.5427 64.6578C36.4911 64.4927 36.5826 64.3169 36.747 64.2651Z" fill="black"/>
<path fill-rule="evenodd" clip-rule="evenodd" d="M20.7624 66.6015C23.9089 65.8723 27.111 67.893 29.0458 70.2004C29.1002 70.2653 29.1528 70.3395 29.2032 70.4213C29.6349 70.4379 30.0593 70.5179 30.4299 70.6126C32.0458 71.0259 33.1054 71.7821 33.6005 72.8806C34.0902 73.9673 33.9902 75.3097 33.4733 76.8166C33.4172 76.9802 33.2396 77.0672 33.0767 77.0108C32.9138 76.9545 32.8272 76.7761 32.8833 76.6125C33.3773 75.1721 33.4266 74.0148 33.0319 73.139C32.6425 72.2749 31.784 71.6057 30.2759 71.22C30.0315 71.1575 29.7722 71.1047 29.5111 71.0739C29.5734 71.2419 29.6293 71.419 29.6779 71.5984C29.8306 72.1615 29.9251 72.7975 29.9111 73.3512C29.9041 73.6279 29.8698 73.8964 29.7945 74.1295C29.72 74.3605 29.5965 74.5836 29.3924 74.7306C28.9481 75.0505 28.3701 74.8719 27.7609 74.4163C27.2959 74.0685 26.9006 73.5457 26.7328 72.9691C26.5618 72.3818 26.6269 71.7269 27.1101 71.181C27.4815 70.7614 27.9594 70.5516 28.4511 70.4663C26.5707 68.2949 23.6524 66.575 20.9028 67.2122C20.7348 67.2511 20.5673 67.146 20.5286 66.9773C20.4898 66.8087 20.5945 66.6405 20.7624 66.6015ZM28.8286 71.0518C28.8149 71.0527 28.8013 71.0538 28.7877 71.0549C28.3026 71.0945 27.8805 71.2538 27.5765 71.5974C27.2608 71.9541 27.2099 72.3746 27.3317 72.7933C27.4567 73.2226 27.7628 73.6363 28.1336 73.9136C28.7166 74.3497 28.9515 74.2769 29.0287 74.2213C29.0852 74.1806 29.1495 74.0957 29.2009 73.9364C29.2516 73.7793 29.2812 73.5753 29.2873 73.3353C29.2994 72.8558 29.2164 72.2818 29.0758 71.763C29.0028 71.4938 28.9176 71.2518 28.8286 71.0518Z" fill="black"/>
<path d="M104.546 23.9739C106.854 26.0022 94.7713 30.4343 90.2598 31.7768L84.4951 27.246C87.1104 27.383 94.862 23.5846 98.2802 21.2051C100.536 22.2119 102.541 22.2119 104.546 23.9739Z" fill="white"/>
<path fill-rule="evenodd" clip-rule="evenodd" d="M84.189 28.1204C84.2635 27.9644 84.4498 27.8986 84.6052 27.9734C85.6476 28.4754 86.6013 29.1201 87.5265 29.7515C87.5569 29.7722 87.5872 29.7929 87.6175 29.8136C88.5169 30.4275 89.3904 31.0238 90.322 31.4916C90.4762 31.569 90.5386 31.7572 90.4616 31.912C90.3845 32.0668 90.1971 32.1296 90.043 32.0522C89.0731 31.5652 88.1688 30.9478 87.2794 30.3406C87.2448 30.317 87.2103 30.2934 87.1757 30.2698C86.2466 29.6358 85.3295 29.0173 84.3354 28.5385C84.18 28.4636 84.1144 28.2765 84.189 28.1204Z" fill="black"/>
<path fill-rule="evenodd" clip-rule="evenodd" d="M98.4 20.7654C98.5273 20.8821 98.5362 21.0803 98.42 21.2081C93.7492 26.3457 88.7504 27.5896 83.6177 28.7468C83.4496 28.7847 83.2827 28.6785 83.2449 28.5097C83.2072 28.3408 83.3129 28.1732 83.481 28.1353C88.5987 26.9815 93.4278 25.7697 97.9592 20.7855C98.0754 20.6577 98.2727 20.6487 98.4 20.7654Z" fill="black"/>
<path fill-rule="evenodd" clip-rule="evenodd" d="M105.795 23.8206C105.936 23.9198 105.97 24.1152 105.872 24.257C103.943 27.0235 100.968 28.715 97.7701 29.9009C95.3452 30.8 92.7604 31.4187 90.3784 31.9888C89.6239 32.1694 88.8897 32.3451 88.1874 32.5233C88.0203 32.5657 87.8506 32.4641 87.8084 32.2963C87.7662 32.1285 87.8674 31.9581 88.0345 31.9157C88.7536 31.7332 89.499 31.5548 90.2606 31.3725C92.6353 30.804 95.1677 30.1978 97.554 29.313C100.7 28.1463 103.538 26.5128 105.36 23.8976C105.459 23.7558 105.654 23.7213 105.795 23.8206Z" fill="black"/>
<path fill-rule="evenodd" clip-rule="evenodd" d="M97.4535 20.7249C97.5245 20.5672 97.7093 20.4971 97.8664 20.5684C98.3913 20.8067 98.9147 21.0462 99.4373 21.2853C102.199 22.5494 104.941 23.8041 107.792 24.8146C107.954 24.8722 108.04 25.0512 107.982 25.2144C107.925 25.3776 107.747 25.4632 107.584 25.4056C104.705 24.385 101.934 23.1169 99.1725 21.8529C98.6514 21.6144 98.1306 21.376 97.6094 21.1395C97.4523 21.0682 97.3826 20.8826 97.4535 20.7249Z" fill="black"/>
<path fill-rule="evenodd" clip-rule="evenodd" d="M104.6 14.467C104.754 14.3896 104.942 14.4523 105.019 14.6071C105.787 16.1503 105.462 17.7478 104.8 19.2025C104.302 20.2971 103.589 21.3579 102.962 22.2918C102.761 22.5909 102.569 22.877 102.396 23.147C102.302 23.2925 102.109 23.3342 101.964 23.2404C101.819 23.1465 101.778 22.9526 101.871 22.8072C102.058 22.5158 102.26 22.2154 102.467 21.9072C103.088 20.9818 103.758 19.9848 104.232 18.942C104.86 17.5615 105.106 16.1836 104.461 14.8874C104.384 14.7326 104.446 14.5444 104.6 14.467Z" fill="black"/>
<path fill-rule="evenodd" clip-rule="evenodd" d="M103.252 13.4303C103.61 13.1491 104.096 12.9934 104.575 13.1056C104.828 13.1648 105 13.3194 105.108 13.5093C105.2 13.5087 105.293 13.5163 105.381 13.5328C105.704 13.5929 106.084 13.8033 106.125 14.2781C106.162 14.7025 106.002 15.1576 105.77 15.5274C105.537 15.8978 105.199 16.2355 104.818 16.3939C104.529 16.5141 104.216 16.5439 103.982 16.3311C103.911 16.266 103.859 16.1882 103.823 16.1059C103.653 16.0356 103.482 15.9536 103.328 15.8548C102.949 15.6112 102.626 15.2356 102.626 14.6445C102.626 14.1479 102.894 13.7115 103.252 13.4303ZM105.057 15.4434C105.123 15.3677 105.185 15.2836 105.242 15.1931C105.43 14.893 105.525 14.5746 105.504 14.3324C105.497 14.2572 105.452 14.1834 105.267 14.149C105.267 14.1489 105.266 14.1488 105.266 14.1488C105.268 14.2001 105.268 14.2511 105.267 14.301C105.258 14.7252 105.147 15.1734 105.057 15.4434ZM104.379 13.7053C104.133 13.6667 103.86 13.7485 103.636 13.9241C103.396 14.1126 103.25 14.3796 103.25 14.6445C103.25 14.9565 103.402 15.1581 103.665 15.3269C103.674 15.3327 103.683 15.3386 103.692 15.3443C103.706 15.1186 103.748 14.8615 103.817 14.6196C103.869 14.4363 103.94 14.2503 104.035 14.0876C104.119 13.9452 104.23 13.8039 104.379 13.7053ZM104.368 15.3904C104.37 15.3882 104.372 15.386 104.374 15.3837C104.4 15.3575 104.42 15.3335 104.434 15.3144C104.443 15.3022 104.447 15.2952 104.448 15.2932C104.525 15.0802 104.632 14.671 104.643 14.3036C104.621 14.3306 104.597 14.364 104.573 14.4052C104.547 14.45 104.522 14.5003 104.499 14.5551C104.499 14.5734 104.498 14.592 104.495 14.6108C104.486 14.6675 104.473 14.7383 104.459 14.8113C104.457 14.818 104.456 14.8247 104.455 14.8313C104.439 14.914 104.422 15.0042 104.406 15.0986C104.39 15.1972 104.376 15.2961 104.368 15.3904Z" fill="black"/>
<path fill-rule="evenodd" clip-rule="evenodd" d="M35.6279 22.8666C34.7054 23.594 34.1937 24.6286 34.5498 25.9538C34.6699 26.4008 34.8224 26.8407 34.9815 27.2882C35.0002 27.3409 35.019 27.3937 35.0379 27.4467C35.1781 27.8401 35.321 28.2408 35.4426 28.6454C35.7166 29.5566 35.893 30.518 35.7083 31.5672C37.2997 32.582 38.3753 33.7262 39.0613 34.9413C39.9797 36.5678 40.1824 38.29 40.0272 39.9355C39.8724 41.5771 39.3606 43.1525 38.8401 44.4986C38.6396 45.0172 38.436 45.506 38.2507 45.951C38.1956 46.0832 38.1421 46.2116 38.0908 46.3358C37.8645 46.8834 37.6832 47.3423 37.5794 47.7074C37.532 47.8738 37.3593 47.9701 37.1936 47.9226C37.0279 47.8751 36.932 47.7016 36.9793 47.5352C37.0946 47.1302 37.2898 46.6393 37.5144 46.0956C37.567 45.9684 37.6213 45.8381 37.6769 45.7045C37.8617 45.2607 38.061 44.7821 38.2584 44.2718C38.7715 42.9448 39.2592 41.4326 39.406 39.8764C39.5523 38.324 39.3585 36.7381 38.5185 35.2504C37.9157 34.1828 36.9712 33.1498 35.5516 32.2116C35.2904 33.0416 34.8272 33.7326 34.2039 34.2295C33.433 34.844 32.4357 35.1467 31.3189 35.0659C30.3071 34.9927 29.044 34.721 28.1021 34.1173C27.6276 33.8133 27.2204 33.4158 26.9783 32.9031C26.734 32.3856 26.6705 31.7774 26.8412 31.0803C27.0374 30.2789 27.5099 29.783 28.135 29.529C28.7401 29.2832 29.4644 29.2727 30.1765 29.3699C31.6032 29.5647 33.1251 30.214 33.9101 30.5836C34.3435 30.7876 34.7495 30.999 35.1293 31.217C35.2271 30.3952 35.0828 29.6168 34.8452 28.8265C34.7285 28.4383 34.5913 28.0534 34.4505 27.6583C34.4316 27.6054 34.4127 27.5523 34.3937 27.4989C34.2345 27.051 34.0745 26.5904 33.9473 26.1171C33.5137 24.5031 34.1635 23.2245 35.2425 22.3736C36.3068 21.5344 37.7986 21.0958 39.1418 21.0958C39.3141 21.0958 39.4538 21.2361 39.4538 21.4092C39.4538 21.5822 39.3141 21.7225 39.1418 21.7225C37.9148 21.7225 36.5651 22.1275 35.6279 22.8666ZM35.0022 31.8676C34.5866 31.6209 34.1351 31.3816 33.6453 31.151C32.8704 30.7863 31.4202 30.1722 30.0924 29.9909C29.4272 29.9001 28.8287 29.9233 28.3691 30.11C27.9295 30.2886 27.5955 30.6242 27.4472 31.23C27.3069 31.8029 27.3661 32.2616 27.5422 32.6346C27.7206 33.0124 28.0318 33.3289 28.4378 33.589C29.2568 34.1139 30.4032 34.3713 31.3637 34.4408C32.3384 34.5114 33.1779 34.2472 33.8159 33.7386C34.3693 33.2975 34.7851 32.6612 35.0022 31.8676Z" fill="black"/>
<path fill-rule="evenodd" clip-rule="evenodd" d="M40.6787 20.8982C40.8481 21.1369 40.913 21.4442 40.8118 21.778C40.7188 22.0848 40.5779 22.3306 40.3748 22.4783C40.1563 22.6372 39.9065 22.6532 39.6831 22.5711C39.4729 22.4939 39.2948 22.3353 39.1582 22.1533C39.1567 22.1513 39.1552 22.1493 39.1537 22.1473C39.0354 22.0975 38.9246 22.023 38.8352 21.918C38.8208 21.9012 38.8073 21.8839 38.7945 21.8661C38.7152 21.968 38.6324 22.093 38.5261 22.2535C38.5111 22.276 38.4958 22.2992 38.4799 22.3232C38.3843 22.4672 38.1906 22.5061 38.0472 22.4101C37.9038 22.3141 37.8651 22.1195 37.9606 21.9755C37.9796 21.947 37.9984 21.9185 38.017 21.8902C38.1875 21.6318 38.3496 21.3861 38.5671 21.1966C38.6055 21.1631 38.6453 21.1316 38.6866 21.102C38.7706 20.7961 38.9724 20.5869 39.2238 20.4799C39.478 20.3717 39.7656 20.3739 40.0171 20.4458C40.269 20.5179 40.516 20.6689 40.6787 20.8982ZM39.5488 21.602C39.7615 21.6133 39.967 21.5101 40.0495 21.3546C40.0156 21.3519 39.9746 21.3513 39.9274 21.3536C39.8491 21.3574 39.7698 21.3681 39.7047 21.379C39.619 21.3933 39.5426 21.4094 39.474 21.4271C39.4958 21.489 39.521 21.5476 39.5488 21.602ZM40.079 21.2757C40.079 21.2756 40.079 21.2764 40.0788 21.2779L40.079 21.2757ZM40.1334 21.3708C40.1333 21.3709 40.1325 21.3705 40.1311 21.3697C40.1327 21.3704 40.1335 21.3708 40.1334 21.3708Z" fill="black"/>
<path fill-rule="evenodd" clip-rule="evenodd" d="M56.1086 1.95703C56.2387 2.07059 56.2524 2.26851 56.1394 2.3991C55.0829 3.61917 54.0128 4.8748 52.9568 6.11379C52.8494 6.23985 52.7421 6.36573 52.635 6.49139C52.5229 6.62286 52.326 6.6382 52.1951 6.52566C52.0641 6.41312 52.0489 6.2153 52.1609 6.08384C52.2681 5.95817 52.3754 5.83225 52.4828 5.70614C53.5386 4.46745 54.6103 3.20992 55.6684 1.98787C55.7815 1.85728 55.9786 1.84347 56.1086 1.95703Z" fill="black"/>
<path fill-rule="evenodd" clip-rule="evenodd" d="M53.9761 21.1379C54.0793 20.9993 54.2748 20.9708 54.4128 21.0744C55.6302 21.9876 56.8151 22.8675 57.9076 23.6699C58.0467 23.7721 58.077 23.9681 57.9753 24.1078C57.8736 24.2475 57.6783 24.2779 57.5393 24.1758C56.4449 23.372 55.2582 22.4909 54.0394 21.5765C53.9013 21.4729 53.873 21.2766 53.9761 21.1379Z" fill="black"/>
<path fill-rule="evenodd" clip-rule="evenodd" d="M67.4485 12.1258C67.5704 12.2482 67.5704 12.4466 67.4485 12.569C66.1858 13.8371 65.064 14.9999 63.9928 16.1102C61.4747 18.7204 59.2368 21.04 56.1078 23.7539C55.9773 23.867 55.7803 23.8525 55.6677 23.7215C55.555 23.5905 55.5695 23.3927 55.6999 23.2796C58.8071 20.5846 61.0173 18.2935 63.5264 15.6927C64.6007 14.5792 65.7297 13.4089 67.0073 12.1258C67.1291 12.0035 67.3267 12.0035 67.4485 12.1258Z" fill="black"/>
<path fill-rule="evenodd" clip-rule="evenodd" d="M54.6435 2.41161C54.7469 2.27317 54.9424 2.24511 55.0803 2.34894C57.0696 3.84726 58.5878 5.17778 60.111 6.51273C60.4545 6.81372 60.7982 7.11493 61.1476 7.41835C63.0468 9.06751 65.1278 10.7936 68.2855 12.9334C68.4284 13.0302 68.466 13.225 68.3696 13.3685C68.2732 13.5119 68.0793 13.5497 67.9365 13.4529C64.7516 11.2947 62.6502 9.55165 60.7394 7.89242C60.3865 7.58591 60.0404 7.28267 59.6956 6.98048C58.1737 5.64676 56.6751 4.33351 54.7059 2.85031C54.568 2.74647 54.5401 2.55006 54.6435 2.41161Z" fill="black"/>
<path fill-rule="evenodd" clip-rule="evenodd" d="M60.1242 19.6722C59.9601 19.6192 59.87 19.4426 59.9228 19.2779L63.043 9.54811C63.0959 9.38338 63.2717 9.29285 63.4357 9.3459C63.5997 9.39895 63.6899 9.5755 63.637 9.74022L60.5168 19.47C60.464 19.6348 60.2882 19.7253 60.1242 19.6722ZM65.3814 14.3994C65.2174 14.3464 65.1272 14.1698 65.1801 14.0051L65.8486 11.9204C65.9014 11.7557 66.0772 11.6652 66.2412 11.7182C66.4053 11.7713 66.4954 11.9478 66.4426 12.1126L65.7741 14.1972C65.7212 14.3619 65.5454 14.4525 65.3814 14.3994Z" fill="black"/>
<path fill-rule="evenodd" clip-rule="evenodd" d="M56.2303 23.1732C56.0663 23.1202 55.9762 22.9436 56.029 22.7789L57.8378 17.1385C57.8906 16.9738 58.0664 16.8833 58.2304 16.9363C58.3945 16.9894 58.4846 17.1659 58.4318 17.3307L56.623 22.971C56.5702 23.1357 56.3944 23.2263 56.2303 23.1732ZM59.647 12.5192C59.4829 12.4662 59.3928 12.2896 59.4456 12.1249L60.752 8.05128C60.8048 7.88655 60.9806 7.79602 61.1446 7.84907C61.3086 7.90212 61.3988 8.07867 61.346 8.24339L60.0396 12.317C59.9868 12.4817 59.811 12.5723 59.647 12.5192ZM57.1294 10.6391C56.9653 10.586 56.8752 10.4095 56.928 10.2448L58.3349 5.8578C58.3877 5.69307 58.5635 5.60254 58.7275 5.65559C58.8915 5.70864 58.9817 5.88519 58.9289 6.04992L57.522 10.4369C57.4692 10.6016 57.2934 10.6921 57.1294 10.6391ZM54.2665 8.4456C54.1024 8.39255 54.0123 8.21601 54.0651 8.05128L55.5343 3.46987C55.5871 3.30515 55.7629 3.21461 55.927 3.26767C56.091 3.32072 56.1811 3.49726 56.1283 3.66199L54.6591 8.24339C54.6063 8.40812 54.4305 8.49865 54.2665 8.4456Z" fill="black"/>
<path d="M51.7781 24.2584L40.75 15.4486L51.2768 4.12183L63.0568 13.435L51.7781 24.2584Z" fill="url(#paint1_linear_38_168633)"/>
<path fill-rule="evenodd" clip-rule="evenodd" d="M50.5136 3.04516C50.6437 3.15872 50.6574 3.35664 50.5443 3.48724C49.4933 4.70113 48.4264 5.95288 47.3731 7.18884C44.3862 10.6934 41.5076 14.071 39.403 16.0986C39.2787 16.2184 39.0812 16.2143 38.9619 16.0894C38.8426 15.9645 38.8467 15.7661 38.971 15.6463C41.0515 13.642 43.8975 10.3028 46.8764 6.80753C47.9347 5.56577 49.0099 4.30431 50.0734 3.076C50.1865 2.94541 50.3836 2.9316 50.5136 3.04516Z" fill="black"/>
<path fill-rule="evenodd" clip-rule="evenodd" d="M38.137 14.2524C38.2462 14.1185 38.4428 14.0988 38.5761 14.2085C42.0528 17.067 48.6721 22.1171 52.3118 24.757C52.4515 24.8583 52.4829 25.0542 52.382 25.1945C52.2811 25.3348 52.0861 25.3664 51.9464 25.265C48.2993 22.6198 41.6696 17.5619 38.1808 14.6934C38.0474 14.5838 38.0278 14.3863 38.137 14.2524Z" fill="black"/>
<path fill-rule="evenodd" clip-rule="evenodd" d="M61.8538 13.214C61.9757 13.3363 61.9757 13.5347 61.8538 13.6571C60.5911 14.9252 59.4692 16.0881 58.3981 17.1983C55.8799 19.8085 53.6421 22.1281 50.513 24.842C50.3826 24.9551 50.1856 24.9406 50.073 24.8097C49.9603 24.6787 49.9747 24.4808 50.1052 24.3677C53.2123 21.6728 55.4226 19.3817 57.9317 16.7808C59.0059 15.6673 60.1349 14.497 61.4125 13.214C61.5344 13.0916 61.7319 13.0916 61.8538 13.214Z" fill="black"/>
<path fill-rule="evenodd" clip-rule="evenodd" d="M49.0488 3.49975C49.1521 3.3613 49.3477 3.33324 49.4856 3.43708C51.4749 4.9354 52.993 6.26591 54.5163 7.60087C54.8598 7.90185 55.2035 8.20307 55.5529 8.50648C57.4521 10.1556 59.5331 11.8817 62.6908 14.0216C62.8336 14.1184 62.8713 14.3131 62.7749 14.4566C62.6785 14.6001 62.4846 14.6379 62.3417 14.5411C59.1569 12.3828 57.0555 10.6398 55.1447 8.98055C54.7917 8.67404 54.4457 8.3708 54.1009 8.06861C52.5789 6.7349 51.0804 5.42165 49.1112 3.93844C48.9733 3.83461 48.9454 3.6382 49.0488 3.49975Z" fill="black"/>
<path fill-rule="evenodd" clip-rule="evenodd" d="M54.6688 9.54222C54.7632 9.68699 54.7228 9.88122 54.5787 9.97604C52.7185 11.1995 51.6707 12.4943 51.0956 13.691C50.52 14.8885 50.4084 16.007 50.4497 16.8909C50.4803 17.545 50.587 18.0313 50.6623 18.3751C50.6922 18.5114 50.7171 18.6253 50.7305 18.7183C50.7359 18.7559 50.7418 18.8076 50.7386 18.8598C50.737 18.8859 50.7322 18.9282 50.7146 18.9748C50.6966 19.0226 50.657 19.0946 50.5748 19.1446C50.405 19.2477 50.246 19.156 50.221 19.1416L50.2208 19.1415C50.1716 19.1131 50.129 19.0755 50.0981 19.0462C49.9827 18.937 49.7945 18.7124 49.5202 18.3852C49.5038 18.3657 49.4871 18.3458 49.4701 18.3256C49.1795 17.979 48.9231 17.649 48.6667 17.3191C47.9326 16.3744 47.1986 15.4298 45.6626 14.0961C45.5323 13.9829 45.518 13.785 45.6307 13.6541C45.7434 13.5232 45.9404 13.5089 46.0708 13.6221C47.6566 14.9991 48.4365 16.0028 49.1782 16.9575C49.4248 17.2749 49.6672 17.5868 49.9335 17.9052C49.886 17.6181 49.8433 17.282 49.8264 16.9203C49.7813 15.9567 49.9033 14.7298 50.5336 13.4186C51.1642 12.1065 52.2945 10.7293 54.2368 9.45177C54.3809 9.35695 54.5743 9.39745 54.6688 9.54222Z" fill="black"/>
<path d="M25.8461 20.6792C24.4733 20.1822 20.9499 19.1385 20.5838 18.9397C19.8517 20.7289 20.8889 24.3238 21.499 25.8976C22.7192 27.14 25.663 29.6747 24.9309 27.8855C24.1988 26.0964 25.236 22.1701 25.8461 20.6792Z" fill="white"/>
<path fill-rule="evenodd" clip-rule="evenodd" d="M19.8173 18.4405C19.9877 18.4662 20.1051 18.6257 20.0796 18.7969C19.6758 21.5 20.2657 23.9964 21.477 26.4873C21.5526 26.6428 21.4884 26.8304 21.3335 26.9064C21.1787 26.9823 20.9919 26.9178 20.9162 26.7623C19.666 24.1915 19.035 21.5656 19.4624 18.7039C19.488 18.5328 19.6469 18.4148 19.8173 18.4405Z" fill="black"/>
<path fill-rule="evenodd" clip-rule="evenodd" d="M25.4119 19.4189C25.5536 19.5174 25.5889 19.7126 25.4908 19.8549C23.7038 22.4472 23.7578 25.2849 24.4688 28.3142C24.5083 28.4827 24.4044 28.6514 24.2367 28.6911C24.0689 28.7308 23.9009 28.6264 23.8614 28.458C23.1334 25.3563 23.0437 22.3038 24.9778 19.4982C25.0758 19.3559 25.2702 19.3204 25.4119 19.4189Z" fill="black"/>
<path fill-rule="evenodd" clip-rule="evenodd" d="M18.4093 18.0446C18.4694 17.8824 18.649 17.7999 18.8105 17.8602C19.3792 18.0727 19.9539 18.2808 20.5309 18.4897C22.233 19.1062 23.9554 19.7299 25.6042 20.4942C25.7607 20.5667 25.829 20.7529 25.7568 20.91C25.6846 21.0671 25.4992 21.1357 25.3427 21.0632C23.7206 20.3113 22.0348 19.7008 20.3397 19.0869C19.7578 18.8761 19.1748 18.665 18.593 18.4476C18.4315 18.3872 18.3492 18.2068 18.4093 18.0446Z" fill="black"/>
<path fill-rule="evenodd" clip-rule="evenodd" d="M19.1301 24.9452C19.2008 24.7874 19.3855 24.717 19.5427 24.7881C21.2329 25.5519 22.7588 26.495 24.2885 27.4404C24.7353 27.7166 25.1824 27.9929 25.6341 28.2651C25.7819 28.3541 25.8298 28.5466 25.7411 28.695C25.6524 28.8434 25.4608 28.8915 25.313 28.8025C24.8479 28.5222 24.3922 28.2406 23.9402 27.9613C22.4169 27.02 20.9365 26.1052 19.2866 25.3596C19.1294 25.2885 19.0594 25.103 19.1301 24.9452Z" fill="black"/>
<path d="M20.0807 1.06841C18.708 0.571416 17.0731 0.565044 14.0654 1.82355C17.5744 4.84404 19.4706 5.78729 20.0807 7.36109H24.0909C24.0909 7.36109 22.8378 4.34061 20.0807 1.06841Z" fill="white"/>
<path fill-rule="evenodd" clip-rule="evenodd" d="M11.7569 1.21971C11.8182 1.05799 11.9985 0.976827 12.1595 1.03844C13.578 1.5811 15.121 2.71645 16.4317 4.06849C17.7426 5.42081 18.8505 7.02016 19.3729 8.51593C19.4299 8.67924 19.3443 8.85806 19.1817 8.91534C19.0191 8.97262 18.841 8.88666 18.784 8.72336C18.3013 7.34121 17.2562 5.81749 15.9845 4.50566C14.7126 3.19354 13.2432 2.12366 11.9374 1.62409C11.7763 1.56248 11.6955 1.38143 11.7569 1.21971Z" fill="black"/>
<path fill-rule="evenodd" clip-rule="evenodd" d="M18.4093 0.773895C18.4534 0.941194 18.3541 1.11272 18.1875 1.157C16.6347 1.56978 15.0794 1.97321 13.5251 2.37639C13.0986 2.48704 12.6721 2.59766 12.2457 2.70846C12.0789 2.75181 11.9087 2.65114 11.8655 2.4836C11.8223 2.31606 11.9226 2.14509 12.0894 2.10174C12.5164 1.99078 12.9433 1.88004 13.3701 1.76933C14.9241 1.36622 16.4771 0.963411 18.0278 0.55116C18.1944 0.506875 18.3652 0.606597 18.4093 0.773895Z" fill="black"/>
<path fill-rule="evenodd" clip-rule="evenodd" d="M17.3147 0.11977C17.4212 -0.0163102 17.6174 -0.0399492 17.7529 0.0669713C20.8766 2.53179 22.5338 5.52521 23.5435 7.89121C23.6114 8.05028 23.538 8.23449 23.3796 8.30266C23.2213 8.37084 23.0378 8.29715 22.9699 8.13808C21.9829 5.82517 20.3784 2.93574 17.3673 0.559763C17.2318 0.452842 17.2083 0.255851 17.3147 0.11977Z" fill="black"/>
<path fill-rule="evenodd" clip-rule="evenodd" d="M24.4043 7.84875C21.9522 7.84875 19.5125 7.95997 17.0546 8.08696C16.8825 8.09585 16.7358 7.96295 16.727 7.79012C16.7181 7.61729 16.8505 7.46997 17.0226 7.46108C19.4814 7.33404 21.9349 7.22205 24.4043 7.22205C24.5767 7.22205 24.7164 7.36234 24.7164 7.5354C24.7164 7.70846 24.5767 7.84875 24.4043 7.84875Z" fill="black"/>
<path d="M11.5593 70.5396C8.55166 68.7777 1.78444 68.0226 0.53125 67.7709L3.03763 65.5055L8.05039 66.764C10.2226 68.6099 13.9654 71.9492 11.5593 70.5396Z" fill="white"/>
<path fill-rule="evenodd" clip-rule="evenodd" d="M10.9805 68.7363C11.4027 68.9033 11.8186 69.0678 12.2269 69.2254C12.3878 69.2875 12.4681 69.4687 12.4062 69.6303C12.3444 69.7918 12.1639 69.8724 12.003 69.8104C11.5845 69.6488 11.1617 69.4816 10.7353 69.313C9.34201 68.7621 7.90955 68.1958 6.45512 67.7576C4.55933 67.1864 2.65812 66.8439 0.815016 67.0422C0.643671 67.0607 0.489887 66.9361 0.471528 66.764C0.45317 66.592 0.57719 66.4375 0.748535 66.4191C2.70891 66.2081 4.7011 66.5748 6.63444 67.1573C8.11641 67.6038 9.58259 68.1836 10.9805 68.7363Z" fill="black"/>
<path fill-rule="evenodd" clip-rule="evenodd" d="M4.72792 64.5345C4.84661 64.66 4.84154 64.8584 4.71661 64.9775C3.35402 66.2775 2.62151 66.6687 0.911831 67.4556C0.755176 67.5277 0.569976 67.4587 0.498176 67.3013C0.426376 67.144 0.495164 66.958 0.651819 66.8859C2.32659 66.115 2.99218 65.7583 4.28679 64.5232C4.41173 64.404 4.60923 64.4091 4.72792 64.5345Z" fill="black"/>
<path fill-rule="evenodd" clip-rule="evenodd" d="M3.31836 65.1904C3.31836 65.0174 3.45806 64.8771 3.63038 64.8771C5.44084 64.8771 6.92826 65.2617 9.03957 66.2512C9.19573 66.3244 9.26324 66.5109 9.19037 66.6677C9.11749 66.8245 8.93183 66.8923 8.77567 66.8191C6.72194 65.8566 5.32555 65.5038 3.63038 65.5038C3.45806 65.5038 3.31836 65.3635 3.31836 65.1904Z" fill="black"/>
<path fill-rule="evenodd" clip-rule="evenodd" d="M8.00816 65.8512C8.1288 65.7276 8.32635 65.7256 8.44941 65.8468C10.121 67.4926 11.8654 68.9763 13.7598 70.3503C13.8995 70.4516 13.9309 70.6475 13.83 70.7878C13.7291 70.9281 13.5341 70.9597 13.3944 70.8583C11.474 69.4654 9.70577 67.9614 8.01253 66.2943C7.88948 66.1732 7.88752 65.9748 8.00816 65.8512Z" fill="black"/>
<path d="M58.4287 69.0294L61.9376 62.7367H69.2061L58.4287 69.0294Z" fill="white"/>
<path fill-rule="evenodd" clip-rule="evenodd" d="M62.1002 61.2716C62.2615 61.3324 62.3433 61.513 62.2828 61.6751C61.7396 63.1298 60.9923 64.4938 60.2272 65.8282C60.1009 66.0484 59.9743 66.2677 59.8479 66.4865C59.2049 67.5996 58.5698 68.699 58.0348 69.8407C57.9615 69.9972 57.7756 70.0645 57.6197 69.9908C57.4637 69.9171 57.3968 69.7304 57.4702 69.5738C58.0177 68.4055 58.6686 67.2789 59.3117 66.1658C59.4372 65.9486 59.5624 65.7319 59.6864 65.5155C60.45 64.1838 61.1746 62.8579 61.6984 61.455C61.759 61.293 61.9388 61.2109 62.1002 61.2716Z" fill="black"/>
<path fill-rule="evenodd" clip-rule="evenodd" d="M62.2837 63.2655C61.7628 63.2969 61.2411 63.3283 60.7184 63.3582C60.5464 63.3681 60.399 63.236 60.3892 63.0632C60.3794 62.8904 60.5109 62.7424 60.683 62.7325C61.2013 62.7029 61.7201 62.6716 62.2393 62.6403C64.5438 62.5014 66.8564 62.3619 69.1769 62.3619C69.3492 62.3619 69.4889 62.5022 69.4889 62.6753C69.4889 62.8484 69.3492 62.9886 69.1769 62.9886C66.877 62.9886 64.5872 63.1267 62.2837 63.2655Z" fill="black"/>
<path fill-rule="evenodd" clip-rule="evenodd" d="M68.8795 62.4248C68.9669 62.574 68.9173 62.766 68.7688 62.8538C67.6332 63.5246 66.6156 64.101 65.6621 64.6411C62.9268 66.1904 60.7182 67.4414 57.7603 69.7688C57.6247 69.8755 57.4286 69.8516 57.3223 69.7154C57.216 69.5792 57.2398 69.3822 57.3755 69.2755C60.3733 66.9167 62.6322 65.6372 65.3806 64.0806C66.3294 63.5432 67.3365 62.9728 68.4524 62.3136C68.6009 62.2258 68.7922 62.2756 68.8795 62.4248Z" fill="black"/>
<path d="M59.431 48.6413L53.917 43.8588L72.7148 34.5457L78.2289 39.5798L59.431 48.6413Z" fill="white"/>
<path fill-rule="evenodd" clip-rule="evenodd" d="M56.1561 45.0182C56.2566 45.1588 56.2246 45.3546 56.0846 45.4555C53.4326 47.3676 50.3489 50.267 48.2677 52.7999C45.7723 55.837 44.291 59.1463 45.1078 63.0427C45.3024 63.9713 45.6443 65 46.1793 65.8639C46.2883 66.0399 46.4047 66.2081 46.5288 66.3667C46.6574 64.4267 46.8912 62.7034 47.2814 61.4846C47.4257 61.0341 47.5951 60.6397 47.7965 60.3242C47.9972 60.0099 48.2415 59.7554 48.5425 59.6148C49.1847 59.3147 49.8806 59.6052 50.5794 60.2927C51.3115 61.0129 51.5597 62.1149 51.5738 63.1754C51.588 64.2455 51.3656 65.3408 51.0845 66.123C50.8843 66.6801 50.5702 67.3211 50.1077 67.7748C49.631 68.2424 48.9853 68.5169 48.1848 68.2809C47.778 68.1609 47.4109 67.979 47.0802 67.751C47.0604 68.2314 47.0459 68.7223 47.036 69.2202C46.9152 75.3161 47.4961 82.2862 47.6126 83.1233C47.6364 83.2947 47.5174 83.453 47.3467 83.477C47.1761 83.5009 47.0184 83.3814 46.9945 83.21C46.8731 82.3369 46.2907 75.3335 46.4121 69.2077C46.4253 68.5436 46.4467 67.8878 46.4781 67.2497C46.1604 66.9353 45.8856 66.5763 45.6494 66.1949C45.0642 65.25 44.7014 64.1461 44.4971 63.1718C43.6257 59.0148 45.228 55.5147 47.7864 52.401C49.9016 49.8267 53.0247 46.8902 55.7206 44.9464C55.8606 44.8455 56.0556 44.8776 56.1561 45.0182ZM47.1166 66.9889C47.4793 67.3021 47.8922 67.5414 48.3607 67.6795C48.9013 67.839 49.3212 67.6702 49.6716 67.3265C50.0362 66.9688 50.3107 66.4302 50.4975 65.9103C50.7556 65.1919 50.963 64.1715 50.9498 63.1838C50.9366 62.1866 50.7003 61.2888 50.1427 60.7404C49.4955 60.1036 49.0789 60.0554 48.8057 60.183C48.649 60.2562 48.4849 60.4071 48.3219 60.6625C48.1596 60.9167 48.0101 61.2562 47.8755 61.6765C47.469 62.946 47.2342 64.8348 47.1166 66.9889Z" fill="black"/>
<path fill-rule="evenodd" clip-rule="evenodd" d="M51.8712 48.3812C51.8119 48.4434 51.7461 48.4897 51.6812 48.515C51.6701 48.5193 51.6588 48.5231 51.6472 48.5264C51.6324 48.437 51.6209 48.336 51.614 48.2224C51.6059 48.0889 51.5156 47.98 51.3956 47.9423C51.4672 47.9042 51.5488 47.8742 51.6401 47.8559C51.6919 47.9031 51.7572 47.9948 51.8142 48.1729C51.8377 48.2464 51.8565 48.3159 51.8712 48.3812ZM51.7531 47.212C51.7488 47.2107 51.7444 47.2093 51.7401 47.208C51.4298 47.1164 51.1347 47.2369 50.934 47.4111C50.8323 47.4994 50.7433 47.6105 50.6776 47.7362C50.585 47.8504 50.5133 47.9787 50.4664 48.1162C50.3687 48.4023 50.3834 48.7228 50.5447 49.0097C50.7054 49.2953 50.9934 49.517 51.3881 49.6491C51.4563 49.6719 51.5268 49.6698 51.5897 49.6477C51.715 49.7151 51.8602 49.7408 52.0178 49.6939C52.3054 49.6084 52.4563 49.3262 52.5106 49.0525C52.5409 48.8996 52.5477 48.7258 52.5281 48.535C52.6515 48.3156 52.7273 48.043 52.6809 47.7888C52.6561 47.6531 52.5945 47.5161 52.4795 47.4077C52.3638 47.2987 52.2158 47.2388 52.0536 47.2207C51.9505 47.2092 51.8502 47.2066 51.7531 47.212Z" fill="black"/>
<path fill-rule="evenodd" clip-rule="evenodd" d="M52.5246 42.507C52.6252 42.3665 52.8202 42.3345 52.9601 42.4356C54.1513 43.2961 55.1858 44.3234 56.2055 45.336C56.5709 45.6988 56.9343 46.0597 57.3024 46.4104C57.3167 46.424 57.3314 46.4381 57.3465 46.4525C57.5824 46.6774 57.9109 46.9907 58.2213 47.2371C58.3876 47.3691 58.5355 47.4711 58.652 47.5301C58.7037 47.5562 58.7393 47.5688 58.7604 47.5739C58.9053 47.5255 59.0674 47.5901 59.1377 47.7312C59.2147 47.886 59.1523 48.0742 58.9981 48.1516C58.8738 48.2141 58.7461 48.2095 58.6501 48.191C58.5526 48.1722 58.4573 48.1333 58.3711 48.0897C58.1985 48.0024 58.0118 47.8696 57.8344 47.7288C57.5006 47.4638 57.1528 47.1321 56.92 46.91C56.9037 46.8944 56.888 46.8794 56.8728 46.865C56.484 46.4945 56.1082 46.1214 55.7359 45.7517C54.7272 44.7502 53.7441 43.7739 52.5957 42.9443C52.4558 42.8433 52.4239 42.6475 52.5246 42.507ZM58.7753 47.5766C58.7753 47.5766 58.7748 47.5766 58.7739 47.5765L58.7753 47.5766Z" fill="black"/>
<path fill-rule="evenodd" clip-rule="evenodd" d="M71.6748 33.4991C71.7427 33.6581 71.6694 33.8424 71.511 33.9105C68.1844 35.3423 64.9716 37.0082 61.7525 38.6879C61.6346 38.7494 61.5166 38.811 61.3987 38.8725C58.3001 40.4897 55.1914 42.1121 51.9818 43.5319C51.8241 43.6017 51.64 43.5298 51.5705 43.3714C51.501 43.2131 51.5726 43.0281 51.7303 42.9584C54.9211 41.5469 58.0137 39.9328 61.1172 38.3132C61.233 38.2527 61.3489 38.1922 61.4648 38.1318C64.6819 36.4531 67.9142 34.7767 71.2651 33.3345C71.4235 33.2663 71.607 33.34 71.6748 33.4991Z" fill="black"/>
<path fill-rule="evenodd" clip-rule="evenodd" d="M77.736 38.0876C77.8246 38.236 77.7767 38.4285 77.629 38.5175C75.3908 39.8662 73.0197 40.9927 70.6709 42.1086C70.0516 42.4028 69.4339 42.6963 68.8205 42.9929C66.5794 44.0768 64.4064 45.2447 62.2247 46.4173C60.9131 47.1223 59.5983 47.829 58.2637 48.52C58.1105 48.5994 57.9223 48.539 57.8434 48.3851C57.7644 48.2313 57.8245 48.0423 57.9777 47.963C59.2935 47.2817 60.601 46.579 61.9101 45.8755C64.1025 44.6973 66.2997 43.5165 68.5498 42.4283C69.172 42.1273 69.7957 41.831 70.4186 41.535C72.7638 40.4207 75.0988 39.3112 77.3079 37.9801C77.4557 37.8911 77.6473 37.9392 77.736 38.0876Z" fill="black"/>
<path fill-rule="evenodd" clip-rule="evenodd" d="M71.3433 33.0401C71.4601 32.9128 71.6575 32.9047 71.7842 33.022C72.6212 33.7967 73.4864 34.5242 74.3578 35.2569C74.5178 35.3914 74.678 35.5261 74.8382 35.6613C75.8686 36.5305 76.8989 37.418 77.8741 38.3973C77.996 38.5197 77.996 38.7181 77.8741 38.8405C77.7523 38.9628 77.5547 38.9628 77.4329 38.8405C76.4782 37.8818 75.4657 37.0091 74.4368 36.1412C74.2782 36.0073 74.119 35.8735 73.9596 35.7395C73.0884 35.007 72.2102 34.2685 71.3613 33.4829C71.2346 33.3656 71.2265 33.1673 71.3433 33.0401Z" fill="black"/>
<path fill-rule="evenodd" clip-rule="evenodd" d="M81.0836 33.1624C81.1332 33.3281 81.0395 33.5028 80.8744 33.5525C79.7845 33.8809 78.7229 34.3386 77.6595 34.8328C77.3218 34.9897 76.9825 35.151 76.6421 35.3129C75.9181 35.6571 75.1889 36.0037 74.4578 36.3164C74.2993 36.3843 74.116 36.3102 74.0485 36.1509C73.9809 35.9917 74.0547 35.8077 74.2133 35.7399C74.9331 35.432 75.643 35.0944 76.3607 34.7532C76.7038 34.59 77.0488 34.426 77.3975 34.264C78.4683 33.7664 79.562 33.2937 80.6951 32.9523C80.8602 32.9025 81.0341 32.9966 81.0836 33.1624Z" fill="black"/>
<path fill-rule="evenodd" clip-rule="evenodd" d="M82.5335 31.9922C82.6367 32.0968 82.6942 32.2311 82.7201 32.3739C82.7535 32.5586 82.7048 32.7283 82.634 32.8636C82.5635 32.9984 82.4625 33.1164 82.3591 33.2134C82.1572 33.4026 81.8951 33.5578 81.6885 33.6159C81.468 33.6779 81.2593 33.6795 81.0696 33.6097C80.8808 33.5403 80.7436 33.4123 80.644 33.2733C80.6033 33.2166 80.5672 33.1554 80.5349 33.0917C80.4768 33.0449 80.4257 32.9847 80.3916 32.9079C80.3478 32.8096 80.3439 32.7115 80.3593 32.6257C80.3397 32.558 80.3225 32.4934 80.3067 32.4343C80.3044 32.4256 80.3021 32.4169 80.2998 32.4084C80.2551 32.2412 80.3539 32.0694 80.5203 32.0245C80.6148 31.9991 80.7108 32.02 80.7843 32.0735C80.9007 31.994 81.0323 31.9266 81.1631 31.8826C81.3101 31.8332 81.5266 31.7896 81.7209 31.8764C81.7229 31.8773 81.725 31.8782 81.727 31.8791C81.8678 31.8275 82.0211 31.7977 82.1715 31.8169C82.2991 31.8332 82.4286 31.8858 82.5335 31.9922ZM82.0294 32.6514C82.0512 32.6234 82.0687 32.5968 82.0816 32.5721C82.1094 32.5188 82.1073 32.4928 82.1061 32.486C82.1016 32.461 82.0962 32.4463 82.0925 32.4386C82.0867 32.4379 82.0798 32.4376 82.0717 32.4378C82.0695 32.4831 82.0628 32.5263 82.0536 32.5662C82.0471 32.5949 82.0389 32.6233 82.0294 32.6514Z" fill="black"/>
<path d="M42.0065 43.4201C42.2973 43.2231 44.7881 40.4739 45.9971 39.124L46.7581 45.7698C45.7804 48.908 43.5944 55.2347 42.6716 55.4358C41.7488 55.6368 39.8119 54.7216 38.9588 54.2388C39.8535 50.7147 41.7158 43.6172 42.0065 43.4201Z" fill="white"/>
<path d="M41.6369 55.1857L44.6469 46.629L46.9001 46.1241L42.8883 55.4364L41.6369 55.1857Z" fill="#4FACDF"/>
<path fill-rule="evenodd" clip-rule="evenodd" d="M42.0448 43.2108C42.2127 43.2497 42.3171 43.418 42.278 43.5866C41.5384 46.7792 40.5949 49.9175 39.6552 53.0434C39.4898 53.5936 39.3245 54.1434 39.1605 54.6931C39.111 54.8589 38.9371 54.9532 38.772 54.9038C38.6069 54.8544 38.5132 54.6799 38.5627 54.5141C38.7274 53.962 38.8932 53.4106 39.0588 52.8595C39.9987 49.733 40.9355 46.6167 41.6702 43.4455C41.7092 43.2769 41.877 43.1719 42.0448 43.2108Z" fill="black"/>
<path fill-rule="evenodd" clip-rule="evenodd" d="M46.5788 37.9216C46.7287 38.0064 46.7816 38.1974 46.6969 38.3481C45.2431 40.9325 43.2998 42.664 41.1579 44.5725C41.0079 44.7062 40.8569 44.8407 40.705 44.9765C40.5762 45.0916 40.379 45.0803 40.2646 44.9512C40.1501 44.8221 40.1617 44.6242 40.2905 44.5091C40.4376 44.3776 40.5835 44.2475 40.728 44.1187C42.8842 42.1967 44.7531 40.5308 46.1537 38.0408C46.2385 37.8901 46.4288 37.8367 46.5788 37.9216Z" fill="black"/>
<path fill-rule="evenodd" clip-rule="evenodd" d="M45.9596 37.5134C46.1319 37.5186 46.2671 37.6631 46.2616 37.8361C46.2293 38.8548 46.427 40.5182 46.6724 42.2125C46.7817 42.9678 46.9007 43.73 47.0108 44.4352C47.1448 45.293 47.2655 46.0664 47.3397 46.6399C47.3619 46.8115 47.2413 46.9689 47.0703 46.9915C46.8994 47.014 46.7428 46.8932 46.7206 46.7216C46.6468 46.151 46.5286 45.3948 46.3964 44.5483C46.2864 43.8443 46.1667 43.0779 46.0546 42.3037C45.8106 40.6191 45.6032 38.9005 45.6377 37.8171C45.6432 37.6441 45.7873 37.5082 45.9596 37.5134Z" fill="black"/>
<path fill-rule="evenodd" clip-rule="evenodd" d="M47.5916 44.2622C47.7456 44.3396 47.8078 44.5278 47.7305 44.6825C45.8799 48.3877 44.4104 52.1914 43.0536 56.112C42.997 56.2755 42.8192 56.3622 42.6564 56.3057C42.4936 56.2491 42.4076 56.0707 42.4641 55.9072C43.8254 51.9738 45.3051 48.1417 47.1728 44.4024C47.25 44.2476 47.4376 44.1849 47.5916 44.2622Z" fill="black"/>
<path fill-rule="evenodd" clip-rule="evenodd" d="M43.747 55.4543C43.7646 55.6264 43.6398 55.7805 43.4683 55.7984C42.5804 55.8913 41.4589 55.6636 40.4727 55.2845C39.4952 54.9087 38.5717 54.3537 38.1314 53.7304C38.0318 53.5894 38.065 53.3938 38.2057 53.2935C38.3463 53.1932 38.5411 53.2263 38.6408 53.3674C38.9722 53.8364 39.7525 54.3362 40.6967 54.6992C41.6322 55.0588 42.65 55.254 43.4046 55.1751C43.5761 55.1572 43.7294 55.2822 43.747 55.4543Z" fill="black"/>
<path fill-rule="evenodd" clip-rule="evenodd" d="M46.338 41.3139C46.305 41.4838 46.1411 41.5949 45.9719 41.562C45.7875 41.5262 45.5046 41.4259 45.2469 41.3206C44.9872 41.2145 44.7139 41.0871 44.5498 40.9841C44.4037 40.8924 44.3596 40.6991 44.4511 40.5523C44.5427 40.4056 44.7353 40.3609 44.8813 40.4526C44.9983 40.526 45.2309 40.6371 45.483 40.7401C45.737 40.844 45.9716 40.9235 46.0914 40.9468C46.2606 40.9796 46.371 41.144 46.338 41.3139Z" fill="black"/>
<path fill-rule="evenodd" clip-rule="evenodd" d="M47.0325 45.016C47.0415 45.1888 46.9093 45.3365 46.7371 45.3458C46.6042 45.353 46.4129 45.3997 46.1719 45.4787C45.9643 45.5468 45.7408 45.6315 45.5117 45.7183C45.4799 45.7303 45.448 45.7424 45.416 45.7545C45.1587 45.8518 44.8947 45.9497 44.6618 46.0162C44.4456 46.0779 44.1924 46.1328 43.9849 46.0888C43.8428 46.0587 43.7204 45.9834 43.6202 45.902C43.5182 45.8192 43.4222 45.7161 43.333 45.6065C43.1552 45.388 42.9792 45.1121 42.8143 44.8427C42.7636 44.76 42.7141 44.678 42.6656 44.5977C42.5516 44.4091 42.4428 44.2289 42.3359 44.0662C42.179 43.8274 42.0548 43.6722 41.9635 43.6018C41.827 43.4964 41.8015 43.2997 41.9067 43.1624C42.0119 43.0251 42.2079 42.9993 42.3444 43.1047C42.5277 43.2461 42.7019 43.4843 42.8571 43.7206C42.9709 43.8937 43.0896 44.0902 43.2063 44.2834C43.2535 44.3614 43.3002 44.4389 43.3462 44.514C43.5108 44.7828 43.6679 45.0267 43.8166 45.2095C43.8907 45.3005 43.9564 45.3684 44.0132 45.4145C44.0717 45.462 44.1051 45.4736 44.1147 45.4756C44.1549 45.4841 44.2712 45.4764 44.492 45.4134C44.6961 45.3552 44.9366 45.2664 45.1969 45.168C45.2282 45.1562 45.2597 45.1443 45.2915 45.1322C45.5189 45.0461 45.7569 44.9559 45.979 44.883C46.2276 44.8016 46.4846 44.732 46.7045 44.72C46.8766 44.7107 47.0235 44.8432 47.0325 45.016Z" fill="black"/>
<path fill-rule="evenodd" clip-rule="evenodd" d="M44.1549 45.4849C44.3182 45.5399 44.4059 45.7175 44.3508 45.8815C42.853 50.3437 42.0745 52.7272 41.2959 55.1112L41.2958 55.1114C41.2421 55.2758 41.0658 55.3657 40.9021 55.312C40.7383 55.2583 40.6491 55.0815 40.7028 54.917C41.4817 52.5322 42.2608 50.1469 43.7595 45.6823C43.8145 45.5183 43.9915 45.4299 44.1549 45.4849Z" fill="black"/>
<path d="M7.85556 35.7639L2.23915 29.4968C1.71911 28.7657 0.866248 27.178 1.6151 26.6766C2.55117 26.0499 6.91949 26.99 9.41567 27.3033C11.4126 27.554 12.3279 25.5277 12.5359 24.4832C14.304 27.3033 18.3395 31.5649 17.8403 32.317C17.2163 33.2571 13.784 32.9437 9.41567 32.317C5.92102 31.8156 7.33552 34.6149 7.85556 35.7639Z" fill="white"/>
<path fill-rule="evenodd" clip-rule="evenodd" d="M0.0913893 27.3752C0.213242 27.2529 0.410804 27.2529 0.532656 27.3752C0.814031 27.6578 1.09558 27.9401 1.37706 28.2223C6.52541 33.3838 11.6497 38.5212 15.2317 45.0517C15.3149 45.2033 15.2599 45.3939 15.109 45.4774C14.9581 45.5609 14.7683 45.5057 14.6851 45.3541C11.1474 38.9042 6.0818 33.8252 0.91887 28.6485C0.643248 28.3721 0.367349 28.0955 0.0913893 27.8184C-0.0304631 27.696 -0.0304631 27.4976 0.0913893 27.3752Z" fill="black"/>
<path fill-rule="evenodd" clip-rule="evenodd" d="M12.1234 21.9408C12.2924 21.9069 12.4568 22.017 12.4906 22.1867C12.7573 23.5259 12.7551 25.0159 12.0797 26.3291C11.6457 27.1728 10.872 27.5555 10.0647 27.6851C9.26398 27.8136 8.39963 27.7006 7.7031 27.5298C7.2946 27.4295 6.855 27.2825 6.41328 27.1348C6.3952 27.1287 6.37712 27.1227 6.35903 27.1166C5.89385 26.9611 5.42285 26.8052 4.95286 26.6889C4.00595 26.4545 3.12654 26.3983 2.38554 26.7853C2.13555 26.9158 2.00496 27.0966 1.94129 27.311C1.87403 27.5376 1.87745 27.8182 1.93728 28.1362C2.04768 28.7228 2.32847 29.3379 2.53749 29.7958C2.55679 29.838 2.57548 29.879 2.59337 29.9184C2.66477 30.0759 2.59552 30.2618 2.43868 30.3335C2.28185 30.4052 2.09682 30.3356 2.02542 30.1781C2.00766 30.139 1.9886 30.0973 1.96849 30.0534C1.76313 29.6047 1.44964 28.9197 1.32409 28.2526C1.25471 27.8839 1.23638 27.4919 1.34327 27.1319C1.45376 26.7599 1.69322 26.4404 2.09763 26.2292C3.04568 25.7341 4.11373 25.8357 5.10217 26.0804C5.59987 26.2035 6.09351 26.3673 6.55615 26.522C6.57044 26.5268 6.58471 26.5316 6.59893 26.5363C7.0504 26.6873 7.46816 26.827 7.85118 26.921C8.50534 27.0814 9.27913 27.1765 9.96617 27.0662C10.6466 26.957 11.2101 26.6541 11.5252 26.0415C12.1115 24.9017 12.1301 23.5721 11.8787 22.3096C11.8449 22.1399 11.9545 21.9748 12.1234 21.9408Z" fill="black"/>
<path fill-rule="evenodd" clip-rule="evenodd" d="M10.4278 33.46C9.65675 33.3196 8.93845 33.2969 8.35219 33.5387C8.17192 33.6131 8.07554 33.7072 8.01972 33.8018C7.96147 33.9005 7.93156 34.027 7.9307 34.1882C7.92916 34.4798 8.01839 34.8039 8.11188 35.1434C8.12756 35.2003 8.14336 35.2577 8.15887 35.3154C8.20377 35.4825 8.10529 35.6545 7.93891 35.6996C7.77254 35.7446 7.60127 35.6457 7.55638 35.4787C7.54341 35.4304 7.5292 35.3793 7.51434 35.3259C7.42195 34.9937 7.30462 34.5719 7.30667 34.1848C7.3079 33.9511 7.35124 33.7054 7.48283 33.4823C7.61685 33.2552 7.82691 33.0779 8.1151 32.959C8.86982 32.6477 9.73382 32.6967 10.5391 32.8433C11.0477 32.9359 11.5752 33.0777 12.0514 33.2057C12.3162 33.2769 12.5651 33.3438 12.786 33.3956C13.3036 33.517 14.3954 33.7106 15.4769 33.7765C16.0178 33.8094 16.546 33.8097 16.9939 33.7564C17.4531 33.7017 17.7798 33.5958 17.9601 33.454C18.0958 33.3474 18.292 33.3714 18.3982 33.5077C18.5044 33.644 18.4804 33.8409 18.3447 33.9476C18.0249 34.1989 17.555 34.3207 17.0673 34.3788C16.5684 34.4382 15.9995 34.4362 15.4391 34.402C14.3184 34.3338 13.1916 34.1343 12.6442 34.0059C12.3822 33.9445 12.1153 33.8725 11.8428 33.7989C11.3885 33.6762 10.9183 33.5493 10.4278 33.46Z" fill="black"/>
<path fill-rule="evenodd" clip-rule="evenodd" d="M11.4261 24.2225C11.5695 24.1265 11.7632 24.1654 11.8588 24.3094C12.4169 25.1501 12.9266 25.9408 13.4077 26.6873C15.0947 29.3045 16.4317 31.3786 18.2812 33.1654C18.4054 33.2853 18.4093 33.4837 18.2898 33.6084C18.1703 33.7331 17.9728 33.737 17.8486 33.617C15.9422 31.7754 14.5551 29.6227 12.8596 26.9913C12.3833 26.2522 11.8828 25.4753 11.3395 24.657C11.244 24.513 11.2827 24.3185 11.4261 24.2225Z" fill="black"/>
<defs>
<linearGradient id="paint0_linear_38_168633" x1="66.7726" y1="72.0714" x2="19.5661" y2="97.5979" gradientUnits="userSpaceOnUse">
<stop offset="0.123566" stop-color="#8FD7FE"/>
<stop offset="0.528827" stop-color="#4FACDF"/>
</linearGradient>
<linearGradient id="paint1_linear_38_168633" x1="73.9487" y1="14.1009" x2="76.967" y2="-9.76334" gradientUnits="userSpaceOnUse">
<stop stop-color="#8FD7FE"/>
<stop offset="0.640464" stop-color="#4FACDF"/>
</linearGradient>
</defs>
</svg>
