<svg width="105" height="35" viewBox="0 0 105 35" fill="none" xmlns="http://www.w3.org/2000/svg">
<path fill-rule="evenodd" clip-rule="evenodd" d="M21.9175 15.3188C22.3399 15.7412 23.0248 15.7412 23.4472 15.3188C23.8696 14.8964 23.8696 14.2115 23.4472 13.789L17.8745 8.21632L24.622 4.32065C26.2 3.4096 28.1724 4.54841 28.1724 6.37051L28.1724 18.276L20.0159 20.2273C19.4349 20.3663 19.0766 20.95 19.2156 21.531C19.3546 22.112 19.9383 22.4703 20.5193 22.3313L28.1724 20.5004V29.3935C28.1724 31.2156 26.1999 32.3544 24.622 31.4433L15.2344 26.0234L16.5479 16.5365C16.6299 15.9448 16.2166 15.3986 15.6248 15.3167C15.0331 15.2348 14.4869 15.6481 14.405 16.2398L13.212 24.8558L4.68349 19.9319C3.1055 19.0208 3.1055 16.7432 4.68349 15.8321L15.9348 9.33616L21.9175 15.3188Z" fill="url(#paint0_linear_1789_443681)"/>
<path d="M46.0508 9.06641H44.5898C44.5482 8.82682 44.4714 8.61458 44.3594 8.42969C44.2474 8.24219 44.1081 8.08333 43.9414 7.95312C43.7747 7.82292 43.5846 7.72526 43.3711 7.66016C43.1602 7.59245 42.9323 7.55859 42.6875 7.55859C42.2526 7.55859 41.8672 7.66797 41.5312 7.88672C41.1953 8.10286 40.9323 8.42057 40.7422 8.83984C40.5521 9.25651 40.457 9.76562 40.457 10.3672C40.457 10.9792 40.5521 11.4948 40.7422 11.9141C40.9349 12.3307 41.1979 12.6458 41.5312 12.8594C41.8672 13.0703 42.2513 13.1758 42.6836 13.1758C42.9232 13.1758 43.1471 13.1445 43.3555 13.082C43.5664 13.0169 43.7552 12.9219 43.9219 12.7969C44.0911 12.6719 44.2331 12.5182 44.3477 12.3359C44.4648 12.1536 44.5456 11.9453 44.5898 11.7109L46.0508 11.7188C45.9961 12.099 45.8776 12.4557 45.6953 12.7891C45.5156 13.1224 45.2799 13.4167 44.9883 13.6719C44.6966 13.9245 44.3555 14.1224 43.9648 14.2656C43.5742 14.4062 43.1406 14.4766 42.6641 14.4766C41.9609 14.4766 41.3333 14.3138 40.7812 13.9883C40.2292 13.6628 39.7943 13.1927 39.4766 12.5781C39.1589 11.9635 39 11.2266 39 10.3672C39 9.50521 39.1602 8.76823 39.4805 8.15625C39.8008 7.54167 40.237 7.07161 40.7891 6.74609C41.3411 6.42057 41.9661 6.25781 42.6641 6.25781C43.1094 6.25781 43.5234 6.32031 43.9062 6.44531C44.2891 6.57031 44.6302 6.75391 44.9297 6.99609C45.2292 7.23568 45.4753 7.52995 45.668 7.87891C45.8633 8.22526 45.9909 8.62109 46.0508 9.06641Z" fill="#22222A"/>
<path d="M48.7295 10.8516V14.3672H47.3154V6.36719H48.6982V9.38672H48.7686C48.9092 9.04818 49.1266 8.78125 49.4209 8.58594C49.7178 8.38802 50.0954 8.28906 50.5537 8.28906C50.9704 8.28906 51.3337 8.3763 51.6436 8.55078C51.9535 8.72526 52.193 8.98047 52.3623 9.31641C52.5342 9.65234 52.6201 10.0625 52.6201 10.5469V14.3672H51.2061V10.7656C51.2061 10.362 51.1019 10.0482 50.8936 9.82422C50.6878 9.59766 50.3988 9.48438 50.0264 9.48438C49.7764 9.48438 49.5524 9.53906 49.3545 9.64844C49.1592 9.75521 49.0055 9.91016 48.8936 10.1133C48.7842 10.3164 48.7295 10.5625 48.7295 10.8516Z" fill="#22222A"/>
<path d="M55.7881 14.4883C55.4079 14.4883 55.0654 14.4206 54.7607 14.2852C54.4587 14.1471 54.2191 13.944 54.042 13.6758C53.8675 13.4076 53.7803 13.0768 53.7803 12.6836C53.7803 12.3451 53.8428 12.0651 53.9678 11.8438C54.0928 11.6224 54.2633 11.4453 54.4795 11.3125C54.6956 11.1797 54.9391 11.0794 55.21 11.0117C55.4834 10.9414 55.766 10.8906 56.0576 10.8594C56.4092 10.8229 56.6943 10.7904 56.9131 10.7617C57.1318 10.7305 57.2907 10.6836 57.3896 10.6211C57.4912 10.556 57.542 10.4557 57.542 10.3203V10.2969C57.542 10.0026 57.4548 9.77474 57.2803 9.61328C57.1058 9.45182 56.8545 9.37109 56.5264 9.37109C56.18 9.37109 55.9053 9.44661 55.7021 9.59766C55.5016 9.7487 55.3662 9.92708 55.2959 10.1328L53.9756 9.94531C54.0798 9.58073 54.2516 9.27604 54.4912 9.03125C54.7308 8.78385 55.0238 8.59896 55.3701 8.47656C55.7165 8.35156 56.0993 8.28906 56.5186 8.28906C56.8076 8.28906 57.0954 8.32292 57.3818 8.39063C57.6683 8.45833 57.93 8.57031 58.167 8.72656C58.404 8.88021 58.5941 9.08984 58.7373 9.35547C58.8831 9.62109 58.9561 9.95312 58.9561 10.3516V14.3672H57.5967V13.543H57.5498C57.4639 13.7096 57.3428 13.8659 57.1865 14.0117C57.0329 14.1549 56.8389 14.2708 56.6045 14.3594C56.3727 14.4453 56.1006 14.4883 55.7881 14.4883ZM56.1553 13.4492C56.4391 13.4492 56.6852 13.3932 56.8936 13.2812C57.1019 13.1667 57.262 13.0156 57.374 12.8281C57.4886 12.6406 57.5459 12.4362 57.5459 12.2148V11.5078C57.5016 11.5443 57.4261 11.5781 57.3193 11.6094C57.2152 11.6406 57.098 11.668 56.9678 11.6914C56.8376 11.7148 56.7087 11.7357 56.5811 11.7539C56.4535 11.7721 56.3428 11.7878 56.249 11.8008C56.0381 11.8294 55.8493 11.8763 55.6826 11.9414C55.516 12.0065 55.3844 12.0977 55.2881 12.2148C55.1917 12.3294 55.1436 12.4779 55.1436 12.6602C55.1436 12.9206 55.2386 13.1172 55.4287 13.25C55.6188 13.3828 55.861 13.4492 56.1553 13.4492Z" fill="#22222A"/>
<path d="M62.9951 14.4844C62.4092 14.4844 61.9014 14.3555 61.4717 14.0977C61.042 13.8398 60.7087 13.4792 60.4717 13.0156C60.2373 12.5521 60.1201 12.0104 60.1201 11.3906C60.1201 10.7708 60.2373 10.2279 60.4717 9.76172C60.7087 9.29557 61.042 8.93359 61.4717 8.67578C61.9014 8.41797 62.4092 8.28906 62.9951 8.28906C63.5811 8.28906 64.0889 8.41797 64.5186 8.67578C64.9482 8.93359 65.2803 9.29557 65.5146 9.76172C65.7516 10.2279 65.8701 10.7708 65.8701 11.3906C65.8701 12.0104 65.7516 12.5521 65.5146 13.0156C65.2803 13.4792 64.9482 13.8398 64.5186 14.0977C64.0889 14.3555 63.5811 14.4844 62.9951 14.4844ZM63.0029 13.3516C63.3206 13.3516 63.5863 13.2643 63.7998 13.0898C64.0133 12.9128 64.1722 12.6758 64.2764 12.3789C64.3831 12.082 64.4365 11.7513 64.4365 11.3867C64.4365 11.0195 64.3831 10.6875 64.2764 10.3906C64.1722 10.0911 64.0133 9.85286 63.7998 9.67578C63.5863 9.4987 63.3206 9.41016 63.0029 9.41016C62.6774 9.41016 62.4066 9.4987 62.1904 9.67578C61.9769 9.85286 61.8167 10.0911 61.71 10.3906C61.6058 10.6875 61.5537 11.0195 61.5537 11.3867C61.5537 11.7513 61.6058 12.082 61.71 12.3789C61.8167 12.6758 61.9769 12.9128 62.1904 13.0898C62.4066 13.2643 62.6774 13.3516 63.0029 13.3516Z" fill="#22222A"/>
<path d="M71.8125 9.95313L70.5234 10.0937C70.487 9.96354 70.4232 9.84115 70.332 9.72656C70.2435 9.61198 70.1237 9.51953 69.9727 9.44922C69.8216 9.37891 69.6367 9.34375 69.418 9.34375C69.1237 9.34375 68.8763 9.40755 68.6758 9.53516C68.4779 9.66276 68.3802 9.82813 68.3828 10.0313C68.3802 10.2057 68.444 10.3477 68.5742 10.457C68.707 10.5664 68.9258 10.6562 69.2305 10.7266L70.2539 10.9453C70.8216 11.0677 71.2435 11.2617 71.5195 11.5273C71.7982 11.793 71.9388 12.1406 71.9414 12.5703C71.9388 12.9479 71.8281 13.2812 71.6094 13.5703C71.3932 13.8568 71.0924 14.0807 70.707 14.2422C70.3216 14.4036 69.8789 14.4844 69.3789 14.4844C68.6445 14.4844 68.0534 14.3307 67.6055 14.0234C67.1576 13.7135 66.8906 13.2826 66.8047 12.7305L68.1836 12.5977C68.2461 12.8685 68.3789 13.0729 68.582 13.2109C68.7852 13.349 69.0495 13.418 69.375 13.418C69.7109 13.418 69.9805 13.349 70.1836 13.2109C70.3893 13.0729 70.4922 12.9023 70.4922 12.6992C70.4922 12.5273 70.4258 12.3854 70.293 12.2734C70.1628 12.1615 69.9596 12.0755 69.6836 12.0156L68.6602 11.8008C68.0846 11.681 67.6589 11.4792 67.3828 11.1953C67.1068 10.9089 66.9701 10.5469 66.9727 10.1094C66.9701 9.73958 67.0703 9.41927 67.2734 9.14844C67.4792 8.875 67.7643 8.66406 68.1289 8.51563C68.4961 8.36458 68.9193 8.28906 69.3984 8.28906C70.1016 8.28906 70.6549 8.4388 71.0586 8.73828C71.4648 9.03776 71.7161 9.44271 71.8125 9.95313Z" fill="#22222A"/>
<path d="M39.2031 26.3672V18.3672H44.4062V19.582H40.6523V21.7539H44.1367V22.9688H40.6523V25.1523H44.4375V26.3672H39.2031Z" fill="#22222A"/>
<path d="M47.2363 22.8516V26.3672H45.8223V20.3672H47.1738V21.3867H47.2441C47.3822 21.0508 47.6022 20.7839 47.9043 20.5859C48.209 20.388 48.5853 20.2891 49.0332 20.2891C49.4473 20.2891 49.8079 20.3776 50.1152 20.5547C50.4251 20.7318 50.6647 20.9883 50.834 21.3242C51.0059 21.6602 51.0905 22.0677 51.0879 22.5469V26.3672H49.6738V22.7656C49.6738 22.3646 49.5697 22.0508 49.3613 21.8242C49.1556 21.5977 48.8704 21.4844 48.5059 21.4844C48.2585 21.4844 48.0384 21.5391 47.8457 21.6484C47.6556 21.7552 47.5059 21.9102 47.3965 22.1133C47.2897 22.3164 47.2363 22.5625 47.2363 22.8516Z" fill="#22222A"/>
<path d="M55.1348 28.7422C54.627 28.7422 54.1908 28.6732 53.8262 28.5352C53.4616 28.3997 53.1686 28.2174 52.9473 27.9883C52.7259 27.7591 52.5723 27.5052 52.4863 27.2266L53.7598 26.918C53.8171 27.0352 53.9004 27.151 54.0098 27.2656C54.1191 27.3828 54.2663 27.4792 54.4512 27.5547C54.6387 27.6328 54.8743 27.6719 55.1582 27.6719C55.5592 27.6719 55.8913 27.5742 56.1543 27.3789C56.4173 27.1862 56.5488 26.8685 56.5488 26.4258V25.2891H56.4785C56.4056 25.4349 56.2988 25.5846 56.1582 25.7383C56.0202 25.8919 55.8366 26.0208 55.6074 26.125C55.3809 26.2292 55.0957 26.2812 54.752 26.2812C54.291 26.2812 53.873 26.1732 53.498 25.957C53.1257 25.7383 52.8288 25.4128 52.6074 24.9805C52.3887 24.5456 52.2793 24.0013 52.2793 23.3477C52.2793 22.6888 52.3887 22.1328 52.6074 21.6797C52.8288 21.224 53.127 20.8789 53.502 20.6445C53.877 20.4076 54.2949 20.2891 54.7559 20.2891C55.1074 20.2891 55.3965 20.349 55.623 20.4688C55.8522 20.5859 56.0345 20.7279 56.1699 20.8945C56.3053 21.0586 56.4082 21.2135 56.4785 21.3594H56.5566V20.3672H57.9512V26.4648C57.9512 26.9779 57.8288 27.4023 57.584 27.7383C57.3392 28.0742 57.0046 28.3255 56.5801 28.4922C56.1556 28.6589 55.6738 28.7422 55.1348 28.7422ZM55.1465 25.1719C55.446 25.1719 55.7012 25.099 55.9121 24.9531C56.123 24.8073 56.2832 24.5977 56.3926 24.3242C56.502 24.0508 56.5566 23.7227 56.5566 23.3398C56.5566 22.9622 56.502 22.6315 56.3926 22.3477C56.2858 22.0638 56.127 21.8438 55.916 21.6875C55.7077 21.5286 55.4512 21.4492 55.1465 21.4492C54.8314 21.4492 54.5684 21.5312 54.3574 21.6953C54.1465 21.8594 53.9876 22.0846 53.8809 22.3711C53.7741 22.6549 53.7207 22.9779 53.7207 23.3398C53.7207 23.707 53.7741 24.0286 53.8809 24.3047C53.9902 24.5781 54.1504 24.7917 54.3613 24.9453C54.5749 25.0964 54.8366 25.1719 55.1465 25.1719Z" fill="#22222A"/>
<path d="M59.4004 26.3672V20.3672H60.8145V26.3672H59.4004ZM60.1113 19.5156C59.8874 19.5156 59.6947 19.4414 59.5332 19.293C59.3717 19.1419 59.291 18.9609 59.291 18.75C59.291 18.5365 59.3717 18.3555 59.5332 18.207C59.6947 18.056 59.8874 17.9805 60.1113 17.9805C60.3379 17.9805 60.5306 18.056 60.6895 18.207C60.8509 18.3555 60.9316 18.5365 60.9316 18.75C60.9316 18.9609 60.8509 19.1419 60.6895 19.293C60.5306 19.4414 60.3379 19.5156 60.1113 19.5156Z" fill="#22222A"/>
<path d="M63.6826 22.8516V26.3672H62.2686V20.3672H63.6201V21.3867H63.6904C63.8285 21.0508 64.0485 20.7839 64.3506 20.5859C64.6553 20.388 65.0316 20.2891 65.4795 20.2891C65.8936 20.2891 66.2542 20.3776 66.5615 20.5547C66.8714 20.7318 67.111 20.9883 67.2803 21.3242C67.4521 21.6602 67.5368 22.0677 67.5342 22.5469V26.3672H66.1201V22.7656C66.1201 22.3646 66.016 22.0508 65.8076 21.8242C65.6019 21.5977 65.3167 21.4844 64.9521 21.4844C64.7048 21.4844 64.4847 21.5391 64.292 21.6484C64.1019 21.7552 63.9521 21.9102 63.8428 22.1133C63.736 22.3164 63.6826 22.5625 63.6826 22.8516Z" fill="#22222A"/>
<path d="M71.6279 26.4844C71.0264 26.4844 70.5068 26.3594 70.0693 26.1094C69.6344 25.8568 69.2998 25.5 69.0654 25.0391C68.8311 24.5755 68.7139 24.0299 68.7139 23.4023C68.7139 22.7852 68.8311 22.2435 69.0654 21.7773C69.3024 21.3086 69.6331 20.944 70.0576 20.6836C70.4821 20.4206 70.9808 20.2891 71.5537 20.2891C71.9235 20.2891 72.2725 20.349 72.6006 20.4688C72.9313 20.5859 73.223 20.7682 73.4756 21.0156C73.7308 21.263 73.9313 21.5781 74.0771 21.9609C74.223 22.3411 74.2959 22.7943 74.2959 23.3203V23.7539H69.3779V22.8008H72.9404C72.9378 22.5299 72.8792 22.2891 72.7646 22.0781C72.6501 21.8646 72.4899 21.6966 72.2842 21.5742C72.0811 21.4518 71.8441 21.3906 71.5732 21.3906C71.2842 21.3906 71.0303 21.4609 70.8115 21.6016C70.5928 21.7396 70.4222 21.9219 70.2998 22.1484C70.18 22.3724 70.1188 22.6185 70.1162 22.8867V23.7188C70.1162 24.0677 70.18 24.3672 70.3076 24.6172C70.4352 24.8646 70.6136 25.0547 70.8428 25.1875C71.0719 25.3177 71.3402 25.3828 71.6475 25.3828C71.8532 25.3828 72.0394 25.3542 72.2061 25.2969C72.3727 25.237 72.5173 25.1497 72.6396 25.0352C72.762 24.9206 72.8545 24.7786 72.917 24.6094L74.2373 24.7578C74.154 25.1068 73.9951 25.4115 73.7607 25.6719C73.529 25.9297 73.2321 26.1302 72.8701 26.2734C72.5081 26.4141 72.0941 26.4844 71.6279 26.4844Z" fill="#22222A"/>
<path d="M78.1484 26.4844C77.5469 26.4844 77.0273 26.3594 76.5898 26.1094C76.1549 25.8568 75.8203 25.5 75.5859 25.0391C75.3516 24.5755 75.2344 24.0299 75.2344 23.4023C75.2344 22.7852 75.3516 22.2435 75.5859 21.7773C75.8229 21.3086 76.1536 20.944 76.5781 20.6836C77.0026 20.4206 77.5013 20.2891 78.0742 20.2891C78.444 20.2891 78.793 20.349 79.1211 20.4688C79.4518 20.5859 79.7435 20.7682 79.9961 21.0156C80.2513 21.263 80.4518 21.5781 80.5977 21.9609C80.7435 22.3411 80.8164 22.7943 80.8164 23.3203V23.7539H75.8984V22.8008H79.4609C79.4583 22.5299 79.3997 22.2891 79.2852 22.0781C79.1706 21.8646 79.0104 21.6966 78.8047 21.5742C78.6016 21.4518 78.3646 21.3906 78.0938 21.3906C77.8047 21.3906 77.5508 21.4609 77.332 21.6016C77.1133 21.7396 76.9427 21.9219 76.8203 22.1484C76.7005 22.3724 76.6393 22.6185 76.6367 22.8867V23.7188C76.6367 24.0677 76.7005 24.3672 76.8281 24.6172C76.9557 24.8646 77.1341 25.0547 77.3633 25.1875C77.5924 25.3177 77.8607 25.3828 78.168 25.3828C78.3737 25.3828 78.5599 25.3542 78.7266 25.2969C78.8932 25.237 79.0378 25.1497 79.1602 25.0352C79.2826 24.9206 79.375 24.7786 79.4375 24.6094L80.7578 24.7578C80.6745 25.1068 80.5156 25.4115 80.2812 25.6719C80.0495 25.9297 79.7526 26.1302 79.3906 26.2734C79.0286 26.4141 78.6146 26.4844 78.1484 26.4844Z" fill="#22222A"/>
<path d="M82.0127 26.3672V20.3672H83.3838V21.3672H83.4463C83.5557 21.0208 83.7432 20.7539 84.0088 20.5664C84.277 20.3763 84.583 20.2812 84.9268 20.2812C85.0049 20.2812 85.0921 20.2852 85.1885 20.293C85.2874 20.2982 85.3695 20.3073 85.4346 20.3203V21.6211C85.3747 21.6003 85.2796 21.582 85.1494 21.5664C85.0218 21.5482 84.8981 21.5391 84.7783 21.5391C84.5205 21.5391 84.2887 21.5951 84.083 21.707C83.8799 21.8164 83.7197 21.9688 83.6025 22.1641C83.4854 22.3594 83.4268 22.5846 83.4268 22.8398V26.3672H82.0127Z" fill="#22222A"/>
<path d="M86.374 26.3672V20.3672H87.7881V26.3672H86.374ZM87.085 19.5156C86.861 19.5156 86.6683 19.4414 86.5068 19.293C86.3454 19.1419 86.2646 18.9609 86.2646 18.75C86.2646 18.5365 86.3454 18.3555 86.5068 18.207C86.6683 18.056 86.861 17.9805 87.085 17.9805C87.3115 17.9805 87.5042 18.056 87.6631 18.207C87.8245 18.3555 87.9053 18.5365 87.9053 18.75C87.9053 18.9609 87.8245 19.1419 87.6631 19.293C87.5042 19.4414 87.3115 19.5156 87.085 19.5156Z" fill="#22222A"/>
<path d="M90.6562 22.8516V26.3672H89.2422V20.3672H90.5938V21.3867H90.6641C90.8021 21.0508 91.0221 20.7839 91.3242 20.5859C91.6289 20.388 92.0052 20.2891 92.4531 20.2891C92.8672 20.2891 93.2279 20.3776 93.5352 20.5547C93.8451 20.7318 94.0846 20.9883 94.2539 21.3242C94.4258 21.6602 94.5104 22.0677 94.5078 22.5469V26.3672H93.0938V22.7656C93.0938 22.3646 92.9896 22.0508 92.7812 21.8242C92.5755 21.5977 92.2904 21.4844 91.9258 21.4844C91.6784 21.4844 91.4583 21.5391 91.2656 21.6484C91.0755 21.7552 90.9258 21.9102 90.8164 22.1133C90.7096 22.3164 90.6562 22.5625 90.6562 22.8516Z" fill="#22222A"/>
<path d="M98.5547 28.7422C98.0469 28.7422 97.6107 28.6732 97.2461 28.5352C96.8815 28.3997 96.5885 28.2174 96.3672 27.9883C96.1458 27.7591 95.9922 27.5052 95.9062 27.2266L97.1797 26.918C97.237 27.0352 97.3203 27.151 97.4297 27.2656C97.5391 27.3828 97.6862 27.4792 97.8711 27.5547C98.0586 27.6328 98.2943 27.6719 98.5781 27.6719C98.9792 27.6719 99.3112 27.5742 99.5742 27.3789C99.8372 27.1862 99.9688 26.8685 99.9688 26.4258V25.2891H99.8984C99.8255 25.4349 99.7188 25.5846 99.5781 25.7383C99.4401 25.8919 99.2565 26.0208 99.0273 26.125C98.8008 26.2292 98.5156 26.2812 98.1719 26.2812C97.7109 26.2812 97.293 26.1732 96.918 25.957C96.5456 25.7383 96.2487 25.4128 96.0273 24.9805C95.8086 24.5456 95.6992 24.0013 95.6992 23.3477C95.6992 22.6888 95.8086 22.1328 96.0273 21.6797C96.2487 21.224 96.5469 20.8789 96.9219 20.6445C97.2969 20.4076 97.7148 20.2891 98.1758 20.2891C98.5273 20.2891 98.8164 20.349 99.043 20.4688C99.2721 20.5859 99.4544 20.7279 99.5898 20.8945C99.7253 21.0586 99.8281 21.2135 99.8984 21.3594H99.9766V20.3672H101.371V26.4648C101.371 26.9779 101.249 27.4023 101.004 27.7383C100.759 28.0742 100.424 28.3255 100 28.4922C99.5755 28.6589 99.0938 28.7422 98.5547 28.7422ZM98.5664 25.1719C98.8659 25.1719 99.1211 25.099 99.332 24.9531C99.543 24.8073 99.7031 24.5977 99.8125 24.3242C99.9219 24.0508 99.9766 23.7227 99.9766 23.3398C99.9766 22.9622 99.9219 22.6315 99.8125 22.3477C99.7057 22.0638 99.5469 21.8438 99.3359 21.6875C99.1276 21.5286 98.8711 21.4492 98.5664 21.4492C98.2513 21.4492 97.9883 21.5312 97.7773 21.6953C97.5664 21.8594 97.4076 22.0846 97.3008 22.3711C97.194 22.6549 97.1406 22.9779 97.1406 23.3398C97.1406 23.707 97.194 24.0286 97.3008 24.3047C97.4102 24.5781 97.5703 24.7917 97.7812 24.9453C97.9948 25.0964 98.2565 25.1719 98.5664 25.1719Z" fill="#22222A"/>
<defs>
<linearGradient id="paint0_linear_1789_443681" x1="13.127" y1="8.32674" x2="28.1624" y2="31.6911" gradientUnits="userSpaceOnUse">
<stop stop-color="#FF61A2"/>
<stop offset="1" stop-color="#D8005A"/>
</linearGradient>
</defs>
</svg>
