<svg width="396" height="168" viewBox="0 0 396 168" fill="none" xmlns="http://www.w3.org/2000/svg">
<path d="M393.291 82.3658C394.455 127.438 307.876 166.246 199.912 169.045C91.947 171.844 3.48073 137.575 2.31668 92.5024C1.15263 47.4298 87.7316 8.62208 195.696 5.82293C303.661 3.02379 392.127 37.2932 393.291 82.3658Z" fill="url(#paint0_radial_1316_67261)" fill-opacity="0.15"/>
<path d="M110.07 38.6452L234.166 31.9074L322.806 54.5702L317.915 106.02L158.363 125.007L48.9385 83.3573L110.07 38.6452Z" fill="white"/>
<path fill-rule="evenodd" clip-rule="evenodd" d="M239.877 30.0949C239.92 30.4486 239.669 30.7701 239.316 30.813C216.599 33.5778 159.861 37.431 121.388 40.0438C111.655 40.7048 103.091 41.2864 96.5428 41.7509C96.1881 41.7761 95.8803 41.5084 95.8551 41.1531C95.83 40.7977 96.0972 40.4893 96.4518 40.4641C103.014 39.9986 111.591 39.4162 121.335 38.7544C159.81 36.1413 216.483 32.2924 239.161 29.5324C239.514 29.4895 239.835 29.7413 239.877 30.0949Z" fill="black"/>
<path fill-rule="evenodd" clip-rule="evenodd" d="M217.374 27.956C217.486 27.6178 217.85 27.4346 218.187 27.5467C238.382 34.2562 255.938 38.64 273.661 42.7737C277.232 43.6064 280.809 44.4291 284.417 45.2587C298.715 48.5465 313.484 51.9426 330.132 56.5006C330.475 56.5945 330.677 56.9492 330.583 57.2929C330.49 57.6365 330.136 57.8389 329.793 57.745C313.173 53.1947 298.435 49.8057 284.14 46.5185C280.529 45.6883 276.947 44.8645 273.369 44.0301C255.631 39.8931 238.032 35.4989 217.782 28.7712C217.445 28.6591 217.262 28.2941 217.374 27.956Z" fill="black"/>
<path fill-rule="evenodd" clip-rule="evenodd" d="M114.363 36.6991C114.658 36.5003 115.058 36.5788 115.257 36.8745C115.455 37.1701 115.377 37.5708 115.082 37.7696L114.722 37.2344L114.363 36.6991ZM114.363 36.6991C114.363 36.6989 114.363 36.6991 114.722 37.2344C115.082 37.7696 115.082 37.7695 115.082 37.7696L115.08 37.7705L114.988 37.8331C114.925 37.8756 114.831 37.9392 114.707 38.0234C114.46 38.1919 114.092 38.4431 113.612 38.7731C112.652 39.4332 111.245 40.4088 109.453 41.6701C105.87 44.1926 100.753 47.8572 94.6203 52.424C82.3531 61.5585 66.0247 74.2989 49.7738 88.7262C49.5077 88.9624 49.1008 88.9378 48.8651 88.6712C48.6293 88.4046 48.6539 87.9969 48.92 87.7607C65.207 73.3012 81.5664 60.5371 93.8524 51.3887C99.9959 46.8141 105.122 43.1427 108.713 40.6146C110.508 39.3505 111.92 38.3722 112.883 37.7096C113.365 37.3783 113.735 37.126 113.984 36.9563C114.109 36.8715 114.203 36.8073 114.267 36.7643L114.361 36.7002L114.363 36.6991Z" fill="black"/>
<path fill-rule="evenodd" clip-rule="evenodd" d="M47.1145 79.3084C47.2629 78.9847 47.6451 78.8428 47.9682 78.9914C88.3196 97.5563 127.436 114.059 164.493 128.498C164.824 128.627 164.988 129.001 164.859 129.333C164.73 129.665 164.357 129.829 164.026 129.7C126.946 115.252 87.8059 98.7395 47.4309 80.1637C47.1078 80.0151 46.9662 79.6321 47.1145 79.3084Z" fill="black"/>
<path fill-rule="evenodd" clip-rule="evenodd" d="M321.408 103.831C321.46 104.183 321.217 104.511 320.865 104.563C269.937 112.123 195.224 122.724 143.3 126.44C142.945 126.466 142.637 126.198 142.612 125.843C142.587 125.488 142.854 125.179 143.208 125.154C195.076 121.442 269.741 110.848 320.677 103.287C321.028 103.235 321.356 103.478 321.408 103.831Z" fill="black"/>
<path fill-rule="evenodd" clip-rule="evenodd" d="M324.881 50.4677C324.881 50.4677 324.881 50.4677 324.881 50.4677L324.881 50.4698L324.879 50.4778L324.87 50.5112C324.863 50.5414 324.852 50.5874 324.837 50.6496C324.807 50.7741 324.763 50.9635 324.704 51.2213C324.585 51.7369 324.41 52.5259 324.18 53.6151C323.721 55.7936 323.046 59.1731 322.187 63.9691C320.469 73.5612 318.013 88.8184 315.064 111.465C315.018 111.818 314.695 112.067 314.343 112.021C313.99 111.975 313.742 111.651 313.788 111.298C316.738 88.6344 319.197 73.3566 320.92 63.7412C321.781 58.9334 322.458 55.541 322.92 53.3485C323.151 52.2522 323.329 51.4559 323.449 50.9327C323.509 50.671 323.554 50.4776 323.585 50.3491C323.6 50.2849 323.612 50.2368 323.62 50.2046L323.629 50.1681L323.632 50.156C323.632 50.1558 323.632 50.1549 324.234 50.3057L323.632 50.156C323.718 49.8104 324.068 49.5992 324.413 49.6856C324.758 49.772 324.967 50.1221 324.881 50.4677Z" fill="black"/>
<path d="M120.115 54.7594V19.1918L153.623 15.5356L165.898 26.8373L167.557 60.7425L131.395 66.7258L120.115 54.7594Z" fill="#A3E9FF"/>
<path fill-rule="evenodd" clip-rule="evenodd" d="M118.92 16.9493C119.275 16.9305 119.578 17.2036 119.597 17.5593C120.25 29.9081 120.752 42.2222 120.752 54.5944C120.752 54.9506 120.464 55.2394 120.108 55.2394C119.753 55.2394 119.465 54.9506 119.465 54.5944C119.465 42.2556 118.964 29.9676 118.311 17.6276C118.293 17.2718 118.565 16.9682 118.92 16.9493Z" fill="black"/>
<path fill-rule="evenodd" clip-rule="evenodd" d="M119.474 17.5118C119.474 17.5118 119.474 17.5117 119.474 17.5118L119.477 17.5164L119.488 17.5317L119.534 17.5937C119.575 17.6487 119.636 17.7308 119.716 17.838C119.877 18.0525 120.116 18.3674 120.425 18.7671C121.043 19.5667 121.943 20.7054 123.069 22.0589C125.321 24.7672 128.471 28.3289 132.068 31.752C132.325 31.9973 132.336 32.4056 132.091 32.6638C131.846 32.9221 131.439 32.9326 131.181 32.6872C127.537 29.2188 124.352 25.617 122.08 22.8847C120.943 21.5179 120.033 20.367 119.407 19.5571C119.094 19.1521 118.851 18.8322 118.687 18.6131C118.605 18.5036 118.542 18.4192 118.5 18.3619L118.452 18.2966L118.439 18.2797L118.435 18.274C118.435 18.2739 118.435 18.2735 118.954 17.8926L118.435 18.274C118.225 17.9866 118.287 17.5824 118.574 17.3721C118.861 17.1617 119.264 17.2243 119.474 17.5118Z" fill="black"/>
<path fill-rule="evenodd" clip-rule="evenodd" d="M157.793 15.42C157.827 15.7746 157.569 16.0903 157.215 16.1252C151.351 16.7046 146.154 17.0344 141.297 17.3426C139.845 17.4348 138.423 17.525 137.023 17.6194C130.933 18.0299 125.243 18.5197 119.18 19.5874C118.83 19.6491 118.496 19.4147 118.435 19.0638C118.373 18.713 118.607 18.3786 118.957 18.3169C125.089 17.237 130.834 16.7437 136.936 16.3323C138.345 16.2373 139.773 16.1467 141.229 16.0543C146.082 15.7463 151.249 15.4184 157.089 14.8414C157.443 14.8065 157.758 15.0655 157.793 15.42Z" fill="black"/>
<path fill-rule="evenodd" clip-rule="evenodd" d="M169.371 26.3442C169.41 26.6982 169.156 27.0174 168.803 27.0572C165.637 27.4136 162.694 27.7476 159.903 28.0644C148.493 29.3594 139.611 30.3676 128.362 31.4467C128.008 31.4806 127.694 31.2207 127.66 30.8661C127.626 30.5115 127.886 30.1965 128.24 30.1625C139.476 29.0846 148.346 28.0779 159.754 26.7831C162.546 26.4661 165.491 26.132 168.659 25.7752C169.012 25.7355 169.331 25.9902 169.371 26.3442Z" fill="black"/>
<path fill-rule="evenodd" clip-rule="evenodd" d="M151.385 15.5075C151.6 15.2239 152.004 15.1687 152.287 15.3843C154.552 17.1088 157.902 19.6946 160.685 21.8481C162.077 22.9251 163.327 23.8944 164.229 24.5945L165.686 25.7251C165.686 25.7252 165.686 25.7254 165.332 26.1828L165.686 25.7251C165.967 25.9434 166.018 26.3489 165.8 26.6304C165.582 26.9119 165.178 26.9631 164.897 26.7448L163.441 25.6145C162.539 24.9146 161.289 23.9457 159.898 22.8691C157.115 20.7154 153.768 18.1325 151.508 16.4113C151.225 16.1957 151.17 15.7911 151.385 15.5075Z" fill="black"/>
<path fill-rule="evenodd" clip-rule="evenodd" d="M165.237 22.8108C165.593 22.8145 165.878 23.1063 165.874 23.4626C165.812 29.3633 166.061 34.1619 166.344 39.6053C166.361 39.9482 166.379 40.2936 166.397 40.642C166.701 46.5227 167.022 53.2406 167.022 62.8686C167.022 63.2249 166.734 63.5136 166.378 63.5137C166.023 63.5137 165.734 63.2249 165.734 62.8687C165.734 53.2731 165.415 46.5805 165.112 40.7087C165.094 40.3581 165.075 40.0103 165.058 39.665C164.775 34.2266 164.524 29.3912 164.587 23.449C164.591 23.0928 164.882 22.807 165.237 22.8108Z" fill="black"/>
<path fill-rule="evenodd" clip-rule="evenodd" d="M130.886 27.0629C131.229 27.1549 131.433 27.5085 131.341 27.8526C130.705 30.2362 130.437 33.307 130.359 36.7618C130.283 40.1237 130.387 43.8062 130.492 47.5152L130.501 47.802C130.608 51.5995 130.712 55.4165 130.613 58.8958C130.515 62.3684 130.214 65.5506 129.496 68.0684C129.399 68.4109 129.042 68.6092 128.7 68.5113C128.359 68.4135 128.161 68.0565 128.258 67.714C128.931 65.3545 129.228 62.3022 129.326 58.8592C129.423 55.4229 129.321 51.6431 129.214 47.8386L129.205 47.5359C129.1 43.8394 128.995 40.1281 129.072 36.7326C129.15 33.2506 129.421 30.0554 130.097 27.5195C130.189 27.1753 130.542 26.9709 130.886 27.0629Z" fill="black"/>
<path fill-rule="evenodd" clip-rule="evenodd" d="M118.571 53.1023C118.856 52.8895 119.259 52.9487 119.472 53.2344L118.955 53.6196L118.439 54.0048C118.227 53.7191 118.286 53.315 118.571 53.1023ZM118.955 53.6196C118.439 54.0048 118.439 54.0047 118.439 54.0048L118.458 54.0306L118.513 54.1042C118.562 54.1688 118.633 54.2639 118.726 54.3868C118.913 54.6325 119.185 54.9893 119.53 55.4348C120.22 56.3256 121.203 57.5718 122.373 58.9943C124.709 61.8355 127.806 65.3965 130.822 68.2355C131.082 68.4794 131.489 68.4667 131.732 68.207C131.976 67.9474 131.963 67.5392 131.704 67.2953C128.747 64.5121 125.69 61.0003 123.366 58.174C122.206 56.7629 121.231 55.5268 120.547 54.6437C120.205 54.2023 119.936 53.8492 119.752 53.6069C119.66 53.4857 119.59 53.3922 119.543 53.3292L119.489 53.2579L119.472 53.2344L118.955 53.6196Z" fill="black"/>
<path fill-rule="evenodd" clip-rule="evenodd" d="M167.217 61.3057C167.281 61.6561 167.05 61.9921 166.7 62.0563C155.869 64.043 139.975 66.1398 126.609 67.1174C126.254 67.1433 125.946 66.8763 125.92 66.5211C125.894 66.1658 126.16 65.8567 126.515 65.8308C139.835 64.8566 155.683 62.7657 166.468 60.7874C166.818 60.7232 167.153 60.9553 167.217 61.3057Z" fill="black"/>
<path fill-rule="evenodd" clip-rule="evenodd" d="M128.045 28.4345C128.235 28.7357 128.145 29.134 127.844 29.3242L127.501 28.7788L127.157 28.2334C127.458 28.0432 127.855 28.1333 128.045 28.4345ZM125.185 31.0431C123.6 32.0818 121.513 33.4753 119.495 34.8977C119.204 35.1027 118.802 35.0327 118.598 34.7413C118.393 34.45 118.463 34.0476 118.754 33.8427C120.788 32.4088 122.889 31.0066 124.48 29.9636C125.275 29.442 125.944 29.0097 126.414 28.7078C126.649 28.5568 126.835 28.4383 126.962 28.3576L127.107 28.2653L127.157 28.2334L127.501 28.7788L127.844 29.3242L127.796 29.3551L127.652 29.4462C127.527 29.5261 127.343 29.6437 127.109 29.7938C126.642 30.0939 125.976 30.5239 125.185 31.0431Z" fill="black"/>
<path fill-rule="evenodd" clip-rule="evenodd" d="M130.342 38.1472C130.532 38.4485 130.442 38.8468 130.141 39.0367C129.653 39.3447 129.166 39.6512 128.678 39.9574C125.894 41.707 123.13 43.444 120.487 45.3788C120.2 45.589 119.798 45.5262 119.588 45.2385C119.378 44.9509 119.441 44.5474 119.728 44.3372C122.411 42.3731 125.219 40.6087 128.001 38.86C128.487 38.555 128.972 38.2504 129.455 37.9454C129.755 37.7555 130.153 37.8458 130.342 38.1472Z" fill="black"/>
<path fill-rule="evenodd" clip-rule="evenodd" d="M130.476 46.5004C130.701 46.7761 130.661 47.1824 130.386 47.408C127.012 50.1736 124.894 51.6924 121.202 54.0274C120.902 54.2175 120.504 54.1275 120.314 53.8263C120.125 53.525 120.214 53.1267 120.515 52.9365C124.164 50.6285 126.239 49.1404 129.57 46.4096C129.845 46.184 130.251 46.2247 130.476 46.5004Z" fill="black"/>
<path fill-rule="evenodd" clip-rule="evenodd" d="M130.96 56.212C131.131 56.5243 131.017 56.9164 130.705 57.0876C128.666 58.2079 126.656 59.3564 124.656 60.5509C124.351 60.7333 123.956 60.6331 123.773 60.3271C123.591 60.0211 123.691 59.6252 123.997 59.4428C126.011 58.2398 128.035 57.0837 130.086 55.9566C130.398 55.7853 130.789 55.8996 130.96 56.212Z" fill="black"/>
<path d="M179.809 99.0313V63.4637L213.317 59.8076L225.592 71.1093L227.251 105.015L191.089 110.998L179.809 99.0313Z" fill="#A3E9FF"/>
<path fill-rule="evenodd" clip-rule="evenodd" d="M178.614 61.2213C178.969 61.2025 179.272 61.4756 179.291 61.8313C179.943 74.1801 180.445 86.4942 180.445 98.8664C180.445 99.2226 180.157 99.5114 179.802 99.5114C179.446 99.5114 179.158 99.2226 179.158 98.8664C179.158 86.5276 178.657 74.2396 178.005 61.8995C177.986 61.5438 178.259 61.2402 178.614 61.2213Z" fill="black"/>
<path fill-rule="evenodd" clip-rule="evenodd" d="M179.167 61.7837C179.167 61.7837 179.167 61.7837 179.167 61.7837L179.17 61.7883L179.182 61.8037L179.227 61.8657C179.268 61.9207 179.329 62.0028 179.41 62.11C179.57 62.3245 179.809 62.6393 180.118 63.0391C180.736 63.8386 181.636 64.9774 182.762 66.3309C185.015 69.0391 188.165 72.6009 191.761 76.0239C192.019 76.2693 192.029 76.6775 191.784 76.9358C191.539 77.1941 191.132 77.2045 190.874 76.9592C187.23 73.4908 184.045 69.889 181.773 67.1567C180.636 65.7899 179.726 64.639 179.1 63.8291C178.787 63.4241 178.545 63.1042 178.38 62.8851C178.298 62.7755 178.235 62.6912 178.193 62.6339L178.145 62.5686L178.132 62.5517L178.128 62.546C178.128 62.5459 178.128 62.5455 178.647 62.1646L178.128 62.546C177.918 62.2585 177.98 61.8544 178.267 61.6441C178.554 61.4337 178.957 61.4963 179.167 61.7837Z" fill="black"/>
<path fill-rule="evenodd" clip-rule="evenodd" d="M217.486 59.692C217.521 60.0465 217.262 60.3622 216.908 60.3972C211.044 60.9766 205.847 61.3063 200.991 61.6146C199.538 61.7067 198.116 61.797 196.716 61.8914C190.627 62.3019 184.936 62.7917 178.873 63.8594C178.523 63.9211 178.19 63.6867 178.128 63.3358C178.066 62.985 178.3 62.6506 178.651 62.5889C184.782 61.509 190.528 61.0157 196.629 60.6043C198.039 60.5093 199.466 60.4187 200.922 60.3263C205.776 60.0183 210.942 59.6903 216.782 59.1134C217.136 59.0785 217.451 59.3375 217.486 59.692Z" fill="black"/>
<path fill-rule="evenodd" clip-rule="evenodd" d="M229.064 70.6162C229.104 70.9701 228.849 71.2894 228.496 71.3291C225.33 71.6855 222.388 72.0195 219.596 72.3364C208.187 73.6314 199.304 74.6395 188.056 75.7186C187.702 75.7526 187.387 75.4927 187.354 75.138C187.32 74.7834 187.579 74.4685 187.933 74.4345C199.17 73.3566 208.039 72.3499 219.447 71.055C222.24 70.7381 225.184 70.4039 228.352 70.0472C228.706 70.0074 229.024 70.2622 229.064 70.6162Z" fill="black"/>
<path fill-rule="evenodd" clip-rule="evenodd" d="M211.079 59.7795C211.294 59.4959 211.698 59.4407 211.981 59.6562C214.245 61.3808 217.595 63.9665 220.378 66.1201C221.77 67.1971 223.02 68.1664 223.922 68.8665L225.379 69.9971C225.379 69.9971 225.379 69.9974 225.025 70.4547L225.379 69.9971C225.66 70.2154 225.711 70.6209 225.494 70.9024C225.276 71.1839 224.871 71.2351 224.59 71.0168L223.134 69.8864C222.232 69.1866 220.982 68.2177 219.591 67.141C216.808 64.9874 213.462 62.4044 211.202 60.6833C210.918 60.4677 210.863 60.0631 211.079 59.7795Z" fill="black"/>
<path fill-rule="evenodd" clip-rule="evenodd" d="M224.931 67.0828C225.286 67.0865 225.571 67.3783 225.568 67.7345C225.506 73.6353 225.755 78.4338 226.037 83.8773C226.055 84.2202 226.073 84.5656 226.091 84.914C226.394 90.7947 226.715 97.5126 226.715 107.141C226.715 107.497 226.427 107.786 226.071 107.786C225.716 107.786 225.428 107.497 225.428 107.141C225.427 97.5451 225.108 90.8525 224.805 84.9807C224.787 84.63 224.769 84.2823 224.751 83.937C224.469 78.4986 224.218 73.6632 224.28 67.7209C224.284 67.3647 224.575 67.079 224.931 67.0828Z" fill="black"/>
<path fill-rule="evenodd" clip-rule="evenodd" d="M190.579 71.3349C190.922 71.4269 191.126 71.7805 191.035 72.1246C190.399 74.5082 190.13 77.579 190.052 81.0338C189.976 84.3957 190.081 88.0782 190.186 91.7872L190.194 92.0739C190.301 95.8715 190.405 99.6885 190.306 103.168C190.208 106.64 189.908 109.823 189.19 112.34C189.092 112.683 188.736 112.881 188.394 112.783C188.052 112.685 187.854 112.328 187.952 111.986C188.625 109.626 188.922 106.574 189.019 103.131C189.117 99.6949 189.015 95.9151 188.907 92.1105L188.898 91.8079C188.793 88.1114 188.688 84.4 188.765 81.0046C188.844 77.5226 189.114 74.3274 189.791 71.7914C189.883 71.4473 190.235 71.2429 190.579 71.3349Z" fill="black"/>
<path fill-rule="evenodd" clip-rule="evenodd" d="M178.264 97.3742C178.549 97.1615 178.953 97.2206 179.165 97.5063L178.649 97.8916L178.132 98.2768C177.92 97.9911 177.979 97.587 178.264 97.3742ZM178.649 97.8916C178.132 98.2768 178.132 98.2767 178.132 98.2768L178.152 98.3025L178.207 98.3762C178.255 98.4407 178.327 98.5359 178.42 98.6588C178.606 98.9045 178.878 99.2613 179.223 99.7068C179.914 100.598 180.896 101.844 182.066 103.266C184.402 106.107 187.5 109.669 190.516 112.508C190.775 112.751 191.182 112.739 191.426 112.479C191.669 112.219 191.656 111.811 191.397 111.567C188.44 108.784 185.384 105.272 183.06 102.446C181.899 101.035 180.925 99.7987 180.24 98.9157C179.898 98.4742 179.629 98.1212 179.445 97.8788C179.354 97.7577 179.283 97.6642 179.236 97.6012L179.183 97.5298L179.165 97.5063L178.649 97.8916Z" fill="black"/>
<path fill-rule="evenodd" clip-rule="evenodd" d="M229.591 105.171C229.678 105.516 229.468 105.867 229.123 105.953C216.128 109.208 199.714 110.409 186.404 111.382L186.302 111.389C185.947 111.415 185.639 111.148 185.613 110.793C185.587 110.438 185.854 110.129 186.208 110.103L186.245 110.1C199.597 109.124 215.924 107.93 228.811 104.702C229.156 104.615 229.505 104.825 229.591 105.171Z" fill="black"/>
<path fill-rule="evenodd" clip-rule="evenodd" d="M187.738 72.7064C187.928 73.0076 187.838 73.406 187.538 73.5961L187.194 73.0507L186.85 72.5053C187.151 72.3152 187.549 72.4052 187.738 72.7064ZM184.878 75.315C183.294 76.3537 181.206 77.7472 179.188 79.1697C178.897 79.3746 178.496 79.3046 178.291 79.0133C178.087 78.7219 178.156 78.3196 178.447 78.1146C180.481 76.6807 182.582 75.2785 184.173 74.2356C184.969 73.7139 185.638 73.2816 186.108 72.9797C186.343 72.8287 186.528 72.7103 186.655 72.6295L186.8 72.5373L186.85 72.5053L187.194 73.0507L187.538 73.5961L187.489 73.627L187.346 73.7181C187.22 73.7981 187.036 73.9157 186.803 74.0657C186.335 74.3659 185.67 74.7959 184.878 75.315Z" fill="black"/>
<path fill-rule="evenodd" clip-rule="evenodd" d="M190.036 82.4191C190.225 82.7205 190.135 83.1188 189.834 83.3087C189.347 83.6167 188.859 83.9232 188.372 84.2293C185.588 85.9789 182.824 87.7159 180.181 89.6507C179.894 89.8609 179.491 89.7981 179.281 89.5105C179.071 89.2229 179.134 88.8193 179.421 88.6092C182.104 86.645 184.912 84.8807 187.695 83.132C188.18 82.8269 188.665 82.5224 189.148 82.2173C189.449 82.0274 189.846 82.1177 190.036 82.4191Z" fill="black"/>
<path fill-rule="evenodd" clip-rule="evenodd" d="M190.169 90.7723C190.395 91.048 190.354 91.4544 190.079 91.68C186.705 94.4455 184.587 95.9643 180.896 98.2993C180.595 98.4895 180.197 98.3995 180.008 98.0982C179.818 97.797 179.908 97.3987 180.208 97.2085C183.857 94.9005 185.932 93.4124 189.264 90.6816C189.539 90.456 189.944 90.4966 190.169 90.7723Z" fill="black"/>
<path fill-rule="evenodd" clip-rule="evenodd" d="M190.653 100.484C190.824 100.796 190.71 101.188 190.398 101.36C188.36 102.48 186.35 103.628 184.349 104.823C184.044 105.005 183.649 104.905 183.467 104.599C183.285 104.293 183.385 103.897 183.69 103.715C185.705 102.512 187.728 101.356 189.779 100.229C190.091 100.057 190.482 100.172 190.653 100.484Z" fill="black"/>
<path d="M220.592 48.194V14.9953L251.868 11.5827L263.326 22.1317L264.874 53.7787L231.121 59.3634L220.592 48.194Z" fill="#A3E9FF"/>
<path fill-rule="evenodd" clip-rule="evenodd" d="M219.474 12.8593C219.829 12.8405 220.132 13.1136 220.151 13.4693C220.76 24.996 221.229 36.4907 221.229 48.04C221.229 48.3962 220.941 48.685 220.585 48.685C220.23 48.685 219.941 48.3962 219.941 48.04C219.941 36.5242 219.474 25.0555 218.865 13.5376C218.846 13.1818 219.119 12.8782 219.474 12.8593Z" fill="black"/>
<path fill-rule="evenodd" clip-rule="evenodd" d="M220.027 13.4018C220.027 13.4018 220.027 13.4018 220.027 13.4018L220.03 13.4061L220.041 13.4203L220.084 13.4781C220.121 13.5294 220.178 13.6059 220.253 13.7059C220.403 13.9059 220.626 14.1997 220.914 14.5726C221.491 15.3186 222.331 16.3811 223.381 17.644C225.483 20.1711 228.422 23.4942 231.777 26.6878C232.035 26.9332 232.046 27.3414 231.801 27.5997C231.556 27.8579 231.148 27.8684 230.891 27.6231C227.488 24.3842 224.514 21.0209 222.392 18.4698C221.331 17.1936 220.481 16.119 219.896 15.3626C219.604 14.9844 219.378 14.6857 219.224 14.481C219.147 14.3787 219.089 14.2998 219.049 14.2463L219.004 14.1853L218.993 14.1694L218.989 14.1641C218.989 14.164 218.988 14.1636 219.508 13.7827L218.989 14.1641C218.779 13.8766 218.841 13.4725 219.128 13.2622C219.415 13.0518 219.817 13.1144 220.027 13.4018Z" fill="black"/>
<path fill-rule="evenodd" clip-rule="evenodd" d="M255.802 11.4706C255.837 11.8251 255.578 12.1408 255.225 12.1758C249.75 12.7166 244.898 13.0245 240.365 13.3122C239.009 13.3982 237.682 13.4824 236.376 13.5705C230.692 13.9537 225.382 14.4107 219.726 15.4069C219.376 15.4686 219.042 15.2342 218.981 14.8833C218.919 14.5325 219.153 14.1981 219.503 14.1364C225.229 13.128 230.593 12.6674 236.289 12.2835C237.605 12.1948 238.938 12.1102 240.297 12.0239C244.827 11.7364 249.648 11.4304 255.098 10.892C255.452 10.857 255.767 11.1161 255.802 11.4706Z" fill="black"/>
<path fill-rule="evenodd" clip-rule="evenodd" d="M266.608 21.6666C266.648 22.0206 266.394 22.3398 266.041 22.3796C263.086 22.7122 260.339 23.024 257.734 23.3197C247.084 24.5285 238.793 25.4695 228.293 26.4768C227.939 26.5107 227.625 26.2508 227.591 25.8962C227.557 25.5416 227.816 25.2266 228.17 25.1926C238.658 24.1865 246.936 23.247 257.585 22.0384C260.191 21.7425 262.939 21.4306 265.897 21.0976C266.25 21.0579 266.569 21.3126 266.608 21.6666Z" fill="black"/>
<path fill-rule="evenodd" clip-rule="evenodd" d="M249.745 11.5304C249.96 11.2468 250.364 11.1917 250.647 11.4072C252.761 13.017 255.888 15.4306 258.485 17.4408C259.784 18.4461 260.951 19.3508 261.793 20.0042L263.153 21.0596L262.759 21.5696L262.364 22.0792L261.005 21.0242C260.163 20.371 258.997 19.4666 257.698 18.4617C255.101 16.4515 251.977 14.0407 249.868 12.4342C249.584 12.2187 249.529 11.814 249.745 11.5304ZM263.267 21.9648C263.05 22.2463 262.645 22.2975 262.364 22.0792L262.759 21.5696L263.153 21.0596C263.434 21.2779 263.485 21.6833 263.267 21.9648Z" fill="black"/>
<path fill-rule="evenodd" clip-rule="evenodd" d="M262.708 18.3304C263.064 18.3341 263.349 18.6259 263.345 18.9821C263.287 24.4885 263.52 28.9662 263.783 34.0473C263.8 34.3672 263.817 34.6896 263.834 35.0147C264.117 40.504 264.416 46.7753 264.416 55.7632C264.416 56.1194 264.128 56.4082 263.773 56.4082C263.417 56.4082 263.129 56.1194 263.129 55.7632C263.129 46.8078 262.831 40.5618 262.548 35.0814C262.531 34.754 262.514 34.4294 262.497 34.107C262.234 29.0309 262 24.5164 262.058 18.9685C262.062 18.6123 262.353 18.3266 262.708 18.3304Z" fill="black"/>
<path fill-rule="evenodd" clip-rule="evenodd" d="M230.656 22.3007C231 22.3927 231.204 22.7463 231.112 23.0904C230.52 25.3102 230.269 28.1723 230.197 31.3961C230.126 34.533 230.223 37.9692 230.321 41.4316L230.329 41.6987C230.429 45.2431 230.526 48.8071 230.434 52.0561C230.342 55.2984 230.062 58.273 229.39 60.6283C229.292 60.9709 228.936 61.1692 228.594 61.0713C228.252 60.9735 228.054 60.6165 228.152 60.274C228.778 58.0769 229.056 55.2322 229.147 52.0195C229.238 48.8135 229.142 45.2867 229.042 41.7353L229.034 41.4523C228.936 38.0024 228.838 34.5373 228.909 31.3669C228.983 28.1159 229.235 25.1294 229.868 22.7573C229.96 22.4131 230.313 22.2087 230.656 22.3007Z" fill="black"/>
<path fill-rule="evenodd" clip-rule="evenodd" d="M219.125 46.6128C219.41 46.4 219.813 46.4592 220.025 46.7449L219.509 47.1301L218.993 47.5153C218.78 47.2296 218.839 46.8255 219.125 46.6128ZM219.509 47.1301C218.993 47.5153 218.993 47.5152 218.993 47.5153L219.011 47.5394L219.062 47.6082C219.107 47.6686 219.174 47.7574 219.261 47.8722C219.435 48.1016 219.689 48.4348 220.012 48.8507C220.656 49.6825 221.573 50.846 222.666 52.1742C224.847 54.8266 227.739 58.1521 230.556 60.8039C230.816 61.0478 231.223 61.035 231.466 60.7754C231.71 60.5157 231.697 60.1076 231.438 59.8637C228.68 57.2677 225.828 53.9914 223.659 51.3539C222.576 50.0371 221.667 48.8836 221.029 48.0597C220.709 47.6477 220.458 47.3183 220.287 47.0922C220.201 46.9792 220.135 46.892 220.091 46.8332L220.042 46.7667L220.025 46.7449L219.509 47.1301Z" fill="black"/>
<path fill-rule="evenodd" clip-rule="evenodd" d="M267.1 53.9142C267.186 54.2598 266.977 54.61 266.632 54.6964C254.499 57.7355 239.175 58.8562 226.753 59.7647L226.655 59.7718C226.301 59.7977 225.992 59.5307 225.967 59.1754C225.941 58.8202 226.207 58.5111 226.562 58.4852L226.594 58.4829C239.058 57.5713 254.294 56.457 266.319 53.4449C266.664 53.3585 267.014 53.5686 267.1 53.9142Z" fill="black"/>
<path fill-rule="evenodd" clip-rule="evenodd" d="M228.03 23.5993C228.22 23.9005 228.13 24.2989 227.829 24.489L227.784 24.5178L227.65 24.6028C227.533 24.6774 227.361 24.7871 227.143 24.9272C226.707 25.2073 226.086 25.6086 225.347 26.0931C223.869 27.0624 221.921 28.3628 220.038 29.6902C219.747 29.8951 219.345 29.8251 219.141 29.5338C218.936 29.2424 219.006 28.8401 219.297 28.6351C221.196 27.2963 223.157 25.9872 224.642 25.0136C225.385 24.5266 226.01 24.1231 226.449 23.8412C226.668 23.7002 226.841 23.5896 226.96 23.5142L227.095 23.4281L227.141 23.3987C227.442 23.2086 227.84 23.2981 228.03 23.5993Z" fill="black"/>
<path fill-rule="evenodd" clip-rule="evenodd" d="M230.175 32.6651C230.364 32.9665 230.274 33.3648 229.973 33.5547C229.518 33.8423 229.062 34.1285 228.608 34.4142C226.009 36.0474 223.43 37.6677 220.965 39.4727C220.678 39.6829 220.275 39.6201 220.065 39.3324C219.856 39.0448 219.918 38.6413 220.205 38.4311C222.711 36.5969 225.333 34.9491 227.931 33.3169C228.384 33.0322 228.836 32.748 229.287 32.4634C229.588 32.2734 229.985 32.3638 230.175 32.6651Z" fill="black"/>
<path fill-rule="evenodd" clip-rule="evenodd" d="M230.296 40.4577C230.522 40.7334 230.481 41.1398 230.206 41.3654C227.056 43.9479 225.077 45.3665 221.63 47.5469C221.329 47.737 220.932 47.647 220.742 47.3458C220.552 47.0446 220.642 46.6462 220.943 46.4561C224.347 44.3027 226.283 42.9147 229.391 40.3669C229.666 40.1414 230.071 40.182 230.296 40.4577Z" fill="black"/>
<path fill-rule="evenodd" clip-rule="evenodd" d="M230.752 49.529C230.923 49.8413 230.809 50.2334 230.497 50.4047C228.594 51.4501 226.719 52.5218 224.852 53.6365C224.547 53.8189 224.152 53.7187 223.97 53.4127C223.788 53.1067 223.888 52.7108 224.193 52.5284C226.074 51.4052 227.963 50.3259 229.878 49.2736C230.19 49.1023 230.581 49.2166 230.752 49.529Z" fill="black"/>
<path fill-rule="evenodd" clip-rule="evenodd" d="M142.718 74.5237C142.916 74.2279 143.316 74.149 143.611 74.3475C143.617 74.3517 143.623 74.3559 143.63 74.3601C154.116 81.4099 163.711 87.8607 173.013 93.4313C173.318 93.614 173.418 94.0101 173.235 94.3158C173.053 94.6216 172.658 94.7213 172.352 94.5386C163.022 88.9507 153.403 82.4841 142.931 75.4436L142.894 75.4187C142.598 75.2202 142.52 74.8195 142.718 74.5237Z" fill="black"/>
<path fill-rule="evenodd" clip-rule="evenodd" d="M258.984 64.3559C259.182 64.6523 259.102 65.0527 258.806 65.2503C248.293 72.2721 238.786 82.6552 230.105 92.1357C229.401 92.9045 228.702 93.6673 228.009 94.4219C227.768 94.6841 227.361 94.701 227.099 94.4597C226.838 94.2185 226.821 93.8105 227.062 93.5484C227.76 92.7884 228.464 92.0189 229.175 91.2424C237.832 81.7871 247.443 71.2899 258.092 64.177C258.387 63.9794 258.787 64.0595 258.984 64.3559Z" fill="black"/>
<path fill-rule="evenodd" clip-rule="evenodd" d="M214.752 49.425C214.792 49.779 214.538 50.0985 214.185 50.1387C202.162 51.5081 179.104 52.4195 170.768 52.3277C170.412 52.3238 170.127 52.0319 170.131 51.6757C170.135 51.3195 170.426 51.0339 170.782 51.0378C179.073 51.1291 202.077 50.2195 214.04 48.857C214.393 48.8168 214.712 49.0711 214.752 49.425Z" fill="black"/>
<defs>
<radialGradient id="paint0_radial_1316_67261" cx="0" cy="0" r="1" gradientUnits="userSpaceOnUse" gradientTransform="translate(197.804 87.4341) rotate(72.9661) scale(67.5139 163.55)">
<stop stop-opacity="0.43"/>
<stop offset="1" stop-opacity="0"/>
</radialGradient>
</defs>
</svg>
