<svg width="5" height="5" viewBox="0 0 5 5" fill="none" xmlns="http://www.w3.org/2000/svg">
<path fill-rule="evenodd" clip-rule="evenodd" d="M4.03828 0.496643H1.42161C1.2777 0.496643 1.15995 0.614393 1.15995 0.75831V1.28164H1.56962V0.889143H3.89845V2.95795H3.51495V3.37498H4.03828C4.1822 3.37498 4.29995 3.25723 4.29995 3.11331V0.75831C4.29995 0.614393 4.1822 0.496643 4.03828 0.496643ZM2.99161 1.54331H0.374948C0.231031 1.54331 0.113281 1.66106 0.113281 1.80498V4.42164C0.113281 4.56556 0.231031 4.68331 0.374948 4.68331H2.99161C3.13553 4.68331 3.25328 4.56556 3.25328 4.42164V1.80498C3.25328 1.66106 3.13553 1.54331 2.99161 1.54331ZM2.86078 4.29081H0.505781V1.94104H2.86078V4.29081Z" fill="white"/>
</svg>
