<svg width="250" height="86" viewBox="0 0 250 86" fill="none" xmlns="http://www.w3.org/2000/svg">
<rect x="4" width="49" height="23" rx="4" fill="white"/>
<rect x="4" y="26" width="49" height="23" rx="4" fill="white"/>
<rect x="17" y="8" width="24" height="8" rx="4" fill="#D9D9D9"/>
<rect x="17" y="35" width="24" height="8" rx="4" fill="#D9D9D9"/>
<rect x="111" y="1" width="77" height="48" rx="4" fill="white"/>
<rect x="118" y="7.66653" width="18" height="5.33333" rx="2.66667" fill="#9293AB"/>
<rect x="118" y="17.0004" width="15" height="5.33333" rx="2.66667" fill="#D9DAE5"/>
<rect x="118" y="27.6662" width="15" height="5.33333" rx="2.66667" fill="#D9DAE5"/>
<rect x="118" y="38.3331" width="15" height="5.33333" rx="2.66667" fill="#D9DAE5"/>
<rect x="138" y="17.0004" width="11" height="5.33333" rx="2.66667" fill="#D9DAE5"/>
<rect x="138" y="27.6662" width="11" height="5.33333" rx="2.66667" fill="#D9DAE5"/>
<rect x="138" y="38.3331" width="11" height="5.33333" rx="2.66667" fill="#D9DAE5"/>
<rect x="153" y="17.0004" width="11" height="5.33333" rx="2.66667" fill="#D9DAE5"/>
<rect x="153" y="27.6662" width="11" height="5.33333" rx="2.66667" fill="#D9DAE5"/>
<rect x="153" y="38.3331" width="11" height="5.33333" rx="2.66667" fill="#D9DAE5"/>
<rect x="168" y="17.0004" width="11" height="5.33333" rx="2.66667" fill="#D9DAE5"/>
<rect x="168" y="27.6662" width="11" height="5.33333" rx="2.66667" fill="#D9DAE5"/>
<rect x="168" y="38.3331" width="11" height="5.33333" rx="2.66667" fill="#D9DAE5"/>
<rect x="138" y="7.66653" width="13" height="5.33333" rx="2.66667" fill="#9293AB"/>
<rect x="153" y="7.66653" width="13" height="5.33333" rx="2.66667" fill="#9293AB"/>
<rect x="168" y="7.66653" width="13" height="5.33333" rx="2.66667" fill="#9293AB"/>
<rect x="2.65112" y="51" width="120.523" height="35" rx="4" fill="white"/>
<path d="M1 75L15.0336 67.5L38.1477 75V63L57.1342 67.5L76.1208 80L90.9799 67.5L121.523 63" stroke="#FF006A"/>
<path d="M1.82544 80L21.4853 75.3636L36.8713 80L54.8216 68.1515L76.191 63L91.577 75.3636H122.349" stroke="#6938C0"/>
<path d="M1.82544 77L24.4194 61.6341L47.2281 67.7805L65.4231 56L73.7912 67.7805L90.5275 59.0732L108.101 67.7805L124 77" stroke="#689F38"/>
<path d="M1.82544 70L34.8456 59.5L62.9127 62.5L78.5973 58L99.2348 70L122.349 67.5" stroke="#06B7C3"/>
<rect x="127.651" y="51" width="120.523" height="35" rx="4" fill="white"/>
<path d="M126 75L140.034 67.5L163.148 75V63L182.134 67.5L201.121 80L215.98 67.5L246.523 63" stroke="#FF006A"/>
<path d="M126.825 80L146.485 75.3636L161.871 80L179.822 68.1515L201.191 63L216.577 75.3636H247.349" stroke="#6938C0"/>
<path d="M126.825 77L149.419 61.6341L172.228 67.7805L190.423 56L198.791 67.7805L215.527 59.0732L233.101 67.7805L249 77" stroke="#689F38"/>
<path d="M126.825 70L159.846 59.5L187.913 62.5L203.597 58L224.235 70L247.349 67.5" stroke="#06B7C3"/>
<rect x="56" width="52" height="49" rx="4" fill="white"/>
<circle cx="82" cy="24" r="12" fill="#6938C0"/>
<path d="M94 24C94 21.6266 93.2962 19.3065 91.9776 17.3332C90.6591 15.3598 88.7849 13.8217 86.5922 12.9134C84.3995 12.0052 81.9867 11.7676 79.6589 12.2306C77.3311 12.6936 75.1929 13.8365 73.5147 15.5147C71.8365 17.1929 70.6936 19.3311 70.2306 21.6589C69.7676 23.9867 70.0052 26.3995 70.9134 28.5922C71.8217 30.7849 73.3598 32.6591 75.3332 33.9776C77.3065 35.2962 79.6266 36 82 36V24H94Z" fill="#76AF34"/>
<path d="M94 24C94 22.0698 93.5344 20.168 92.6426 18.4562C91.7509 16.7443 90.4594 15.2728 88.8776 14.1665C87.2959 13.0602 85.4706 12.3518 83.5567 12.1014C81.6428 11.851 79.6967 12.066 77.8836 12.7281C76.0705 13.3902 74.4439 14.48 73.1418 15.9048C71.8397 17.3297 70.9005 19.0476 70.4039 20.9129C69.9073 22.7781 69.868 24.7356 70.2894 26.6193C70.7107 28.503 71.5802 30.2572 72.8241 31.7332L82 24H94Z" fill="#F53693"/>
<path d="M94 24C94 22.252 93.6181 20.5251 92.881 18.94C92.1439 17.355 91.0695 15.9502 89.7328 14.8237C88.3961 13.6973 86.8294 12.8765 85.1424 12.4188C83.4554 11.961 81.6887 11.8773 79.966 12.1736L82 24H94Z" fill="#03C0CD"/>
</svg>
