<svg width="7" height="7" viewBox="0 0 7 7" fill="none" xmlns="http://www.w3.org/2000/svg">
<path fill-rule="evenodd" clip-rule="evenodd" d="M1.41233 2.92068C1.38675 2.73221 1.53328 2.56445 1.72348 2.56445L4.50995 2.56445C4.69593 2.56445 4.84116 2.72521 4.82233 2.91024L4.55059 5.58119C4.53429 5.74147 4.39932 5.8634 4.23821 5.8634H2.08599C1.92889 5.8634 1.79597 5.7473 1.77484 5.59163L1.41233 2.92068ZM4.50995 2.87845L1.72348 2.87845L2.08599 5.5494L4.23821 5.5494L4.50995 2.87845Z" fill="white"/>
<path fill-rule="evenodd" clip-rule="evenodd" d="M2.66122 1.11866C2.68053 1.03412 2.76471 0.981251 2.84924 1.00056L3.95472 1.25307C4.03926 1.27238 4.09213 1.35656 4.07282 1.44109L3.99192 1.79529L5.0018 2.02596C5.08633 2.04527 5.1392 2.12945 5.1199 2.21398C5.10059 2.29851 5.01641 2.35139 4.93188 2.33208L1.51488 1.55159C1.43035 1.53228 1.37747 1.4481 1.39678 1.36357C1.41609 1.27904 1.50027 1.22616 1.5848 1.24547L2.58031 1.47286L2.66122 1.11866ZM2.88643 1.54278L3.6858 1.72537L3.73174 1.52422L2.93238 1.34164L2.88643 1.54278Z" fill="white"/>
<path opacity="0.3" fill-rule="evenodd" clip-rule="evenodd" d="M3.20662 3.52982C3.27888 3.52982 3.33746 3.5884 3.33746 3.66065V4.96899C3.33746 5.04124 3.27888 5.09982 3.20662 5.09982C3.13437 5.09982 3.07579 5.04124 3.07579 4.96899V3.66065C3.07579 3.5884 3.13437 3.52982 3.20662 3.52982Z" fill="white"/>
<path opacity="0.3" fill-rule="evenodd" clip-rule="evenodd" d="M2.48414 3.53279C2.55612 3.52649 2.61958 3.57974 2.62587 3.65172L2.7399 4.95507C2.7462 5.02706 2.69295 5.09051 2.62097 5.09681C2.54899 5.10311 2.48553 5.04986 2.47923 4.97788L2.3652 3.67452C2.3589 3.60254 2.41215 3.53908 2.48414 3.53279Z" fill="white"/>
<path opacity="0.3" fill-rule="evenodd" clip-rule="evenodd" d="M3.92932 3.53283C4.0013 3.53912 4.05455 3.60258 4.04825 3.67457L3.93422 4.97792C3.92793 5.0499 3.86447 5.10315 3.79248 5.09685C3.7205 5.09055 3.66725 5.0271 3.67355 4.95511L3.78758 3.65176C3.79388 3.57978 3.85734 3.52653 3.92932 3.53283Z" fill="white"/>
</svg>
