<svg width="137" height="106" viewBox="0 0 137 106" fill="none" xmlns="http://www.w3.org/2000/svg">
<path d="M44.3111 48.645C40.514 43.4297 46.2097 41.5332 50.0069 40.585C67.4735 40.585 65.391 52.912 58.2709 55.5532C64.6059 55.5532 67.1383 62.072 67.1383 68.1613C70.9353 77.6436 71.3153 87.5774 67.1385 83.0259C61.9174 77.3364 59.9536 73.6787 55.6818 74.6269C51.41 75.5752 43.3411 91.8037 41.4415 86.5884C39.9218 82.4162 40.1314 76.6467 42.347 69.3769C42.3462 68.431 27.9015 64.0672 48.427 52.9955C48.021 52.9938 46.8531 52.1363 44.3111 48.645Z" fill="white"/>
<path d="M53.1863 40.5357C57.2969 41.1607 60.8419 41.9462 63.0482 45.8402C64.2363 47.9371 63.3102 52.9748 60.5469 54.331C56.4346 56.3493 49.7249 54.5496 46.4684 51.6512C44.5017 49.9008 42.1813 46.4047 43.0055 43.6119C43.5141 41.8886 45.2996 41.1757 46.8807 40.7889C50.2418 39.9667 53.7961 40.4153 57.0736 41.3719C60.0465 42.2397 64.8719 44.2361 64.6246 48.1891C64.3954 51.8545 60.906 54.8143 57.589 55.4254C52.5797 56.3482 42.0796 51.0887 42.8393 45.0572" stroke="black" stroke-width="1.98064" stroke-linecap="round" stroke-linejoin="round"/>
<path d="M67.6555 68.808C69.2727 71.7175 71.8187 82.9091 68.9499 83.679C67.3317 84.4521 60.8596 73.6572 56.3286 73.0106C51.7977 72.3641 48.5407 82.6799 43.5879 87.4524C40.7939 90.1446 37.8811 79.4763 45.6485 58.4629" stroke="black" stroke-width="1.98064" stroke-linecap="round" stroke-linejoin="round"/>
<path d="M61.3096 46.9961C59.8856 51.2632 51.8167 50.7891 48.4941 47.9443" stroke="black" stroke-width="1.98064" stroke-linecap="round" stroke-linejoin="round"/>
<path d="M47.5897 52.6445C26.5528 65.8991 42.8645 69.2973 48.2359 69.7785" stroke="black" stroke-width="1.98064" stroke-linecap="round" stroke-linejoin="round"/>
<path d="M71.2937 52.3223L61.9081 52.9688L47.0206 54.262L48.6388 64.9303H42.166L48.6388 69.7795L72.2647 68.1631L71.2937 52.3223Z" fill="#2BB1F2"/>
<path d="M41.8428 64.9307C42.6847 65.575 48.6392 69.7799 48.6392 69.7799" stroke="black" stroke-width="1.98064" stroke-linecap="round" stroke-linejoin="round"/>
<path d="M41.8428 64.9307C44.1083 64.931 45.7265 64.9306 48.3157 64.9307" stroke="black" stroke-width="1.98064" stroke-linecap="round" stroke-linejoin="round"/>
<path d="M46.6973 53.293C46.6973 53.293 48.9628 69.1339 48.9628 69.7803" stroke="black" stroke-width="1.98064" stroke-linecap="round" stroke-linejoin="round"/>
<path d="M46.6973 54.262L71.9413 52.3223" stroke="black" stroke-width="1.98064" stroke-linecap="round" stroke-linejoin="round"/>
<path d="M71.2939 51.6758L72.2649 67.8399" stroke="black" stroke-width="1.98064" stroke-linecap="round" stroke-linejoin="round"/>
<path d="M48.9629 69.7795L72.5887 68.1631" stroke="black" stroke-width="1.98064" stroke-linecap="round" stroke-linejoin="round"/>
<path d="M98.0275 81.7037C97.6991 84.605 83.0372 84.8241 79.6872 82.6631L78.42 65.059L77.3867 58.689C85.1841 62.4551 98.3188 60.5566 98.8898 57.7008C98.8919 57.6888 98.8941 57.6769 98.8962 57.665C98.8943 57.677 98.8921 57.6889 98.8898 57.7008C97.3684 66.1144 98.895 74.0397 98.0275 81.7037Z" fill="#2BB1F2"/>
<path d="M99.0857 57.744C97.442 60.3497 93.9076 61.1572 88.6849 61.1572C81.6784 61.1572 78.568 59.9963 77.5762 58.768C82.6578 54.4909 94.0041 56.5322 99.0857 57.744Z" fill="#2BB1F2"/>
<path d="M96.443 56.5594C94.0215 55.8335 89.8717 55.7439 87.0053 55.8317C84.5799 55.906 79.7756 56.2897 78.1408 57.4471C77.0619 58.211 77.4546 59.1246 78.5117 59.6534C81.4586 61.1277 86.0172 61.0185 89.2133 60.866C92.1093 60.7277 96.0494 60.5443 98.4991 58.8374C100.442 57.4837 96.5343 56.6411 95.7225 56.5288C91.0937 55.8884 85.5454 56.0225 81.0083 57.0448" stroke="black" stroke-width="1.98064" stroke-linecap="round" stroke-linejoin="round"/>
<path d="M78.1796 56.7119C77.0796 57.8116 77.3487 57.9334 77.6629 59.2944C78.1796 68.3278 78.7465 78.2621 79.3143 82.7089" stroke="black" stroke-width="1.98064" stroke-linecap="round" stroke-linejoin="round"/>
<path d="M99.018 58.0898C99.018 58.0898 98.8287 76.1419 98.1484 81.9526" stroke="black" stroke-width="1.98064" stroke-linecap="round" stroke-linejoin="round"/>
<path d="M78.7843 75.2779C82.9587 79.6179 95.8995 78.7833 98.7382 75.2778" stroke="black" stroke-width="1.98064" stroke-linecap="round" stroke-linejoin="round"/>
<path d="M78.7843 78.4849C82.9587 82.8249 95.8995 81.9903 98.7382 78.4849" stroke="black" stroke-width="1.98064" stroke-linecap="round" stroke-linejoin="round"/>
<path d="M79.6052 59.8988L80.4673 57.1958" stroke="black" stroke-width="1.98064" stroke-linecap="round" stroke-linejoin="round"/>
<path d="M95.0049 56.8477C94.3975 59.1086 94.5897 58.4407 94.1293 60.1146" stroke="black" stroke-width="1.98064" stroke-linecap="round" stroke-linejoin="round"/>
<path d="M91.7949 55.7754L90.4944 60.7822" stroke="black" stroke-width="1.98064" stroke-linecap="round" stroke-linejoin="round"/>
<path d="M87.748 55.8831C87.0698 58.0386 86.8012 59.2168 86.3408 60.8907" stroke="black" stroke-width="1.98064" stroke-linecap="round" stroke-linejoin="round"/>
<path d="M82.6032 60.6552L83.7336 56.8134" stroke="black" stroke-width="1.98064" stroke-linecap="round" stroke-linejoin="round"/>
<path d="M93.6633 47.6575C93.6633 48.774 92.9949 49.2357 92.6535 49.2357C92.312 49.2357 91.6436 48.774 91.6436 47.6575C91.6436 46.541 92.312 46.0792 92.6535 46.0792C92.9949 46.0792 93.6633 46.541 93.6633 47.6575Z" fill="white" stroke="black" stroke-width="1.98064"/>
<path d="M85.1936 38.3024C85.1936 39.3198 84.5583 39.7766 84.1837 39.7766C83.8092 39.7766 83.1739 39.3198 83.1739 38.3024C83.1739 37.285 83.8092 36.8282 84.1837 36.8282C84.5583 36.8282 85.1936 37.285 85.1936 38.3024Z" fill="white" stroke="black" stroke-width="1.98064"/>
<path d="M82.178 53.2024C82.178 54.3382 81.5033 54.8012 81.1681 54.8012C80.8329 54.8012 80.1583 54.3382 80.1583 53.2024C80.1583 52.0665 80.8329 51.6036 81.1681 51.6036C81.5033 51.6036 82.178 52.0665 82.178 53.2024Z" fill="white" stroke="black" stroke-width="1.98064"/>
<path d="M88.1578 53.7232V50.2149M81.5207 47.8096V44.3013M87.5419 46.3027V42.7944M96.6692 51.9141V48.4057M93.0487 42.1265V38.6182M78.3711 42.7944V39.286" stroke="black" stroke-width="1.98064" stroke-linecap="round" stroke-linejoin="round"/>
<mask id="mask0_38_101925" style="mask-type:alpha" maskUnits="userSpaceOnUse" x="78" y="56" width="22" height="6">
<path d="M99.5183 57.744C97.8746 60.3497 94.3402 61.1572 89.1175 61.1572C82.111 61.1572 79.0007 59.9963 78.0088 58.768C83.0904 54.4909 94.4367 56.5322 99.5183 57.744Z" fill="#5FB34E"/>
</mask>
<g mask="url(#mask0_38_101925)">
<mask id="path-30-inside-1_38_101925" fill="white">
<ellipse cx="83.1685" cy="59.9408" rx="1.82378" ry="1.84999"/>
</mask>
<ellipse cx="83.1685" cy="59.9408" rx="1.82378" ry="1.84999" fill="white"/>
<path d="M83.0116 59.9408C83.0116 59.8954 83.0553 59.8101 83.1685 59.8101V63.7714C85.2962 63.7714 86.9729 62.0297 86.9729 59.9408H83.0116ZM83.1685 59.8101C83.2817 59.8101 83.3254 59.8954 83.3254 59.9408H79.3641C79.3641 62.0297 81.0408 63.7714 83.1685 63.7714V59.8101ZM83.3254 59.9408C83.3254 59.9862 83.2817 60.0715 83.1685 60.0715V56.1102C81.0408 56.1102 79.3641 57.8519 79.3641 59.9408H83.3254ZM83.1685 60.0715C83.0553 60.0715 83.0116 59.9862 83.0116 59.9408H86.9729C86.9729 57.8519 85.2962 56.1102 83.1685 56.1102V60.0715Z" fill="black" mask="url(#path-30-inside-1_38_101925)"/>
<mask id="path-32-inside-2_38_101925" fill="white">
<ellipse cx="91.6587" cy="59.0026" rx="1.82378" ry="2.15493"/>
</mask>
<ellipse cx="91.6587" cy="59.0026" rx="1.82378" ry="2.15493" fill="white"/>
<path d="M91.5019 59.0026C91.5019 59.1502 91.4505 59.2303 91.4365 59.2468C91.4311 59.2532 91.4431 59.2365 91.4832 59.2165C91.5264 59.1949 91.5884 59.1769 91.6587 59.1769V63.1382C94.0568 63.1382 95.4632 60.964 95.4632 59.0026H91.5019ZM91.6587 59.1769C91.729 59.1769 91.791 59.1949 91.8343 59.2165C91.8744 59.2365 91.8864 59.2532 91.881 59.2468C91.867 59.2303 91.8156 59.1502 91.8156 59.0026H87.8543C87.8543 60.964 89.2607 63.1382 91.6587 63.1382V59.1769ZM91.8156 59.0026C91.8156 58.855 91.867 58.7749 91.881 58.7584C91.8864 58.752 91.8744 58.7687 91.8343 58.7887C91.791 58.8103 91.729 58.8283 91.6587 58.8283V54.867C89.2607 54.867 87.8543 57.0412 87.8543 59.0026H91.8156ZM91.6587 58.8283C91.5884 58.8283 91.5264 58.8103 91.4832 58.7887C91.4431 58.7687 91.4311 58.752 91.4365 58.7584C91.4505 58.7749 91.5019 58.855 91.5019 59.0026H95.4632C95.4632 57.0412 94.0568 54.867 91.6587 54.867V58.8283Z" fill="black" mask="url(#path-32-inside-2_38_101925)"/>
</g>
<path d="M78.481 59.5792C81.4279 61.0535 85.9865 60.9443 89.1825 60.7917C92.0785 60.6535 96.0187 60.4701 98.4683 58.7631" stroke="black" stroke-width="1.98064" stroke-linecap="round" stroke-linejoin="round"/>
<path d="M78.8417 81.9518C84.0471 85.1686 93.1151 84.9556 98.3382 81.9518" stroke="black" stroke-width="1.98064" stroke-linecap="round" stroke-linejoin="round"/>
<path fill-rule="evenodd" clip-rule="evenodd" d="M90.9888 66.671C91.0376 66.7178 91.0391 66.7954 90.9922 66.8442C89.4718 68.4258 88.4954 69.4944 87.2959 70.8634C87.2513 70.9143 87.1739 70.9194 87.123 70.8748C87.0721 70.8302 87.067 70.7528 87.1116 70.7019C88.3136 69.33 89.2926 68.2587 90.8155 66.6744C90.8624 66.6256 90.94 66.6241 90.9888 66.671Z" fill="black" stroke="black" stroke-width="1.38645" stroke-linecap="round" stroke-linejoin="round"/>
<path fill-rule="evenodd" clip-rule="evenodd" d="M92.0714 67.0393C92.0987 66.9773 92.1709 66.9492 92.2329 66.9764C93.3528 67.4681 94.3456 67.9547 95.5571 68.5486C95.9662 68.7492 96.4004 68.9621 96.8728 69.1914C96.9179 69.2133 96.9451 69.2605 96.9415 69.3104C96.9379 69.3604 96.9042 69.4031 96.8565 69.4184C95.8207 69.7482 94.9722 70.0595 94.0777 70.3878C93.6067 70.5607 93.1229 70.7382 92.5923 70.9256C92.5285 70.9481 92.4585 70.9147 92.4359 70.8509C92.4134 70.7871 92.4468 70.7171 92.5106 70.6946C93.0353 70.5093 93.5166 70.3327 93.9866 70.1602C94.7997 69.8619 95.5791 69.5758 96.4916 69.2785C96.1216 69.0983 95.7754 68.9285 95.4457 68.7669C94.2358 68.1738 93.2492 67.6901 92.1344 67.2007C92.0724 67.1735 92.0442 67.1012 92.0714 67.0393Z" fill="black" stroke="black" stroke-width="1.38645" stroke-linecap="round" stroke-linejoin="round"/>
<path fill-rule="evenodd" clip-rule="evenodd" d="M85.7367 66.8504C85.7075 66.7895 85.6343 66.7637 85.5733 66.793C84.5429 67.2874 82.2628 68.3218 80.8611 68.9495C80.8154 68.97 80.7867 69.0163 80.7888 69.0664C80.7909 69.1165 80.8233 69.1603 80.8706 69.1769C80.9231 69.1954 80.9766 69.2141 81.0309 69.2333C82.2399 69.6584 83.8928 70.2397 85.7256 70.6801C85.7914 70.6959 85.8575 70.6554 85.8733 70.5896C85.8891 70.5238 85.8486 70.4577 85.7828 70.4419C84.0274 70.0201 82.4374 69.4679 81.2413 69.0476C82.6505 68.4148 84.712 67.478 85.6793 67.0139C85.7403 66.9846 85.766 66.9114 85.7367 66.8504Z" fill="black" stroke="black" stroke-width="1.38645" stroke-linecap="round" stroke-linejoin="round"/>
<path d="M98.9097 18.4107L89.0888 8.69044C88.5237 8.13053 87.6063 8.13053 87.0404 8.69044L85.0011 10.709L87.5881 13.2696C88.1893 13.0686 88.8786 13.2034 89.3578 13.6778C89.8393 14.1552 89.9746 14.8433 89.7665 15.4404L92.2597 17.9082C92.8629 17.7025 93.5588 17.8356 94.0406 18.3132C94.7138 18.9794 94.7138 20.0592 94.0406 20.7258C93.3671 21.3925 92.2762 21.3925 91.6025 20.7258C91.096 20.2241 90.9709 19.4878 91.2273 18.8702L88.9023 16.5688L88.902 22.6252C89.0661 22.7058 89.2211 22.813 89.3578 22.9479C90.0311 23.6141 90.0311 24.6938 89.3578 25.361C88.6843 26.0274 87.593 26.0274 86.9205 25.361C86.2472 24.6938 86.2472 23.6141 86.9205 22.9479C87.0868 22.7835 87.2793 22.6591 87.4846 22.5756V16.4627C87.2793 16.3797 87.0871 16.2561 86.9205 16.0904C86.4103 15.5862 86.2877 14.8453 86.549 14.2253L83.9991 11.7008L77.2653 18.3657C76.6993 18.9261 76.6993 19.8342 77.2653 20.3941L87.0861 30.1146C87.6515 30.6745 88.5686 30.6745 89.1347 30.1146L98.9097 20.4393C99.4753 19.8791 99.4753 18.9706 98.9097 18.4107Z" fill="#DE4C36"/>
</svg>
