<svg width="17" height="16" viewBox="0 0 17 16" fill="none" xmlns="http://www.w3.org/2000/svg">
<path fill-rule="evenodd" clip-rule="evenodd" d="M3.76042 4.0166C3.48711 4.0166 3.26445 4.23605 3.26047 4.50933L3.26031 11.5136C3.25625 11.7926 3.48127 12.0209 3.76026 12.0209L12.7409 12.0209C13.017 12.0209 13.2409 11.797 13.2409 11.5209L13.2413 6.61121C13.2413 6.33506 13.4651 6.11121 13.7413 6.11121C14.0174 6.11121 14.2413 6.33506 14.2413 6.61121L14.2409 11.5209C14.2409 12.3493 13.5693 13.0209 12.7409 13.0209L3.76026 13.0209C2.9233 13.0209 2.24824 12.3359 2.26042 11.4991L2.26058 4.49478C2.27251 3.67495 2.9405 3.0166 3.76042 3.0166H10.5641C10.8403 3.0166 11.0641 3.24046 11.0641 3.5166C11.0641 3.79274 10.8403 4.0166 10.5641 4.0166H3.76042Z" fill="#0278D5"/>
<path fill-rule="evenodd" clip-rule="evenodd" d="M5.43331 5.09357C5.57653 4.99273 5.75693 4.97785 5.91246 5.05407L10.9384 7.51697C11.1188 7.60535 11.2348 7.80071 11.2348 8.01608C11.2348 8.23145 11.1188 8.4268 10.9384 8.51519L5.91246 10.9781C5.75693 11.0543 5.57653 11.0394 5.43331 10.9386C5.2901 10.8378 5.20361 10.6647 5.20361 10.479V5.55317C5.20361 5.36745 5.2901 5.19441 5.43331 5.09357ZM6.20881 6.39964V9.63252L9.50742 8.01608L6.20881 6.39964Z" fill="#0278D5"/>
</svg>
