<svg width="4" height="6" viewBox="0 0 4 6" fill="none" xmlns="http://www.w3.org/2000/svg">
<path fill-rule="evenodd" clip-rule="evenodd" d="M0.710522 1.22167C0.710522 1.00719 0.884395 0.833313 1.09888 0.833313H2.91752C3.132 0.833313 3.30588 1.00719 3.30588 1.22167C3.30588 1.43615 3.132 1.61002 2.91752 1.61002H2.73755V2.09298L3.85149 4.32086C4.01209 4.64206 3.77853 5.01998 3.41942 5.01998H0.596982C0.237871 5.01998 0.00430507 4.64206 0.164904 4.32086L1.27885 2.09298V1.61002H1.09888C0.884395 1.61002 0.710522 1.43615 0.710522 1.22167ZM1.6009 1.61002V2.09298C1.6009 2.14297 1.58926 2.19228 1.5669 2.237L0.452956 4.46489C0.399423 4.57196 0.477278 4.69793 0.596982 4.69793H3.41942C3.53912 4.69793 3.61698 4.57196 3.56344 4.46489L2.4495 2.237C2.42714 2.19228 2.4155 2.14297 2.4155 2.09298V1.45253C2.4155 1.36165 2.48917 1.28797 2.58005 1.28797H2.91752C2.95414 1.28797 2.98383 1.25829 2.98383 1.22167C2.98383 1.18505 2.95414 1.15536 2.91752 1.15536H1.09888C1.06226 1.15536 1.03257 1.18505 1.03257 1.22167C1.03257 1.25829 1.06226 1.28797 1.09888 1.28797H2.0082C2.09713 1.28797 2.16922 1.36007 2.16922 1.449C2.16922 1.53793 2.09713 1.61002 2.0082 1.61002H1.6009Z" fill="#F3F3FA"/>
<path fill-rule="evenodd" clip-rule="evenodd" d="M1.27881 3.04036C1.27881 2.95143 1.3509 2.87933 1.43983 2.87933H3.03115C3.12008 2.87933 3.19217 2.95143 3.19217 3.04036C3.19217 3.12929 3.12008 3.20138 3.03115 3.20138H1.60086V3.78865H3.48581C3.57474 3.78865 3.64683 3.86075 3.64683 3.94968C3.64683 4.03861 3.57474 4.11071 3.48581 4.11071H1.43983C1.3509 4.11071 1.27881 4.03861 1.27881 3.94968V3.04036Z" fill="#F3F3FA"/>
</svg>
