<svg width="178" height="139" viewBox="0 0 178 139" fill="none" xmlns="http://www.w3.org/2000/svg">
<path opacity="0.1" d="M107.214 118.795L106.128 100.055L120.224 109.813L107.214 118.795Z" fill="#FF006A"/>
<path fill-rule="evenodd" clip-rule="evenodd" d="M58.7849 125.23C58.9501 124.831 59.4078 124.641 59.8072 124.806C61.1694 125.37 62.4529 125.905 63.6744 126.415C74.8043 131.06 80.7766 133.553 94.0684 135.187C94.4974 135.239 94.8024 135.63 94.7496 136.059C94.6969 136.488 94.3064 136.793 93.8774 136.74C80.368 135.079 74.2231 132.514 63.0741 127.861C61.8514 127.35 60.5685 126.815 59.209 126.253C58.8096 126.087 58.6198 125.63 58.7849 125.23Z" fill="black" fill-opacity="0.5"/>
<path fill-rule="evenodd" clip-rule="evenodd" d="M133.251 126.035C133.679 125.972 134.077 126.267 134.141 126.694C134.204 127.122 133.909 127.52 133.482 127.584L133.367 126.81L133.251 126.035ZM115.769 130.682C105.875 132.618 93.9912 135.313 85.8816 138.361C85.477 138.513 85.0258 138.308 84.8737 137.904C84.7217 137.499 84.9264 137.048 85.3309 136.896C93.5737 133.798 105.57 131.083 115.468 129.146C120.425 128.176 124.869 127.399 128.075 126.864C129.677 126.596 130.971 126.389 131.864 126.249C132.31 126.179 132.657 126.126 132.892 126.09L133.159 126.049L133.251 126.035C133.252 126.035 133.251 126.035 133.367 126.81C133.482 127.584 133.482 127.584 133.482 127.584L133.393 127.597L133.128 127.637C132.895 127.673 132.551 127.726 132.106 127.795C131.218 127.935 129.93 128.141 128.332 128.408C125.138 128.941 120.708 129.716 115.769 130.682Z" fill="black" fill-opacity="0.5"/>
<path fill-rule="evenodd" clip-rule="evenodd" d="M61.7733 100.79C62.2049 100.768 62.572 101.101 62.593 101.533C62.8511 106.824 63.3287 110.236 63.7821 113.475C63.8364 113.863 63.8904 114.249 63.9436 114.635C64.4434 118.261 64.8715 121.903 64.8715 127.919C64.8715 128.352 64.5212 128.702 64.089 128.702C63.6568 128.702 63.3064 128.352 63.3064 127.919C63.3064 121.996 62.8867 118.429 62.3932 114.848C62.3402 114.464 62.2863 114.079 62.232 113.691C61.7777 110.446 61.2914 106.973 61.0298 101.609C61.0087 101.178 61.3416 100.811 61.7733 100.79Z" fill="black" fill-opacity="0.5"/>
<path fill-rule="evenodd" clip-rule="evenodd" d="M57.3482 80.3779C57.4373 79.9549 57.8523 79.6843 58.2752 79.7733C68.7529 81.9791 79.3888 84.4292 87.3522 87.3947C87.7572 87.5455 87.9633 87.9961 87.8125 88.4011C87.6616 88.8062 87.211 89.0122 86.806 88.8614C78.9665 85.9421 68.4387 83.5124 57.9528 81.3049C57.5299 81.2158 57.2592 80.8008 57.3482 80.3779Z" fill="black" fill-opacity="0.5"/>
<path fill-rule="evenodd" clip-rule="evenodd" d="M85.3753 86.6343C85.8075 86.6343 86.1579 86.9846 86.1579 87.4168C86.1579 100.637 87.6866 122.176 90.3025 135.255C90.3872 135.679 90.1124 136.091 89.6886 136.176C89.2648 136.261 88.8525 135.986 88.7677 135.562C86.1252 122.35 84.5928 100.701 84.5928 87.4168C84.5928 86.9846 84.9431 86.6343 85.3753 86.6343Z" fill="black" fill-opacity="0.5"/>
<path fill-rule="evenodd" clip-rule="evenodd" d="M130.213 79.4532C130.304 79.8758 130.034 80.2917 129.612 80.382C124.928 81.3827 119.645 82.3184 114.213 83.2803C111.97 83.6776 109.701 84.0793 107.439 84.492C99.6814 85.9072 91.9882 87.4527 85.5443 89.3955C85.1305 89.5203 84.6939 89.2859 84.5692 88.8721C84.4444 88.4583 84.6787 88.0218 85.0925 87.897C91.628 85.9265 99.397 84.3681 107.158 82.9523C109.44 82.5359 111.721 82.132 113.971 81.7336C119.39 80.774 124.63 79.8461 129.285 78.8514C129.707 78.7611 130.123 79.0305 130.213 79.4532Z" fill="black" fill-opacity="0.5"/>
<path fill-rule="evenodd" clip-rule="evenodd" d="M129.462 74.7666C129.892 74.8038 130.211 75.183 130.174 75.6136C129.736 80.6876 130.516 90.7378 131.385 100.911C131.475 101.974 131.567 103.039 131.659 104.099C132.436 113.109 133.183 121.776 133.058 126.46C133.047 126.892 132.687 127.233 132.255 127.222C131.823 127.21 131.482 126.851 131.494 126.419C131.616 121.83 130.877 113.261 130.097 104.211C130.007 103.16 129.916 102.102 129.825 101.044C128.962 90.9389 128.162 80.7213 128.615 75.479C128.652 75.0484 129.031 74.7295 129.462 74.7666Z" fill="black" fill-opacity="0.5"/>
<path fill-rule="evenodd" clip-rule="evenodd" d="M58.6338 80.6831C58.9174 81.0093 58.883 81.5036 58.5568 81.7872C54.5286 85.29 50.4257 88.7024 46.3348 92.1048C45.48 92.8157 44.6258 93.5262 43.7728 94.237C43.4408 94.5136 42.9473 94.4688 42.6707 94.1368C42.394 93.8047 42.4388 93.3113 42.7709 93.0346C43.6263 92.3217 44.4823 91.6098 45.3381 90.898C49.4287 87.4959 53.5157 84.0966 57.5298 80.6061C57.856 80.3225 58.3502 80.357 58.6338 80.6831Z" fill="black" fill-opacity="0.5"/>
<path fill-rule="evenodd" clip-rule="evenodd" d="M42.6506 95.9602C42.7737 95.5459 43.2094 95.3099 43.6237 95.433C48.2502 96.8083 51.4188 97.6876 54.6189 98.5757C59.2997 99.8746 64.0477 101.192 73.5238 104.108C73.9369 104.235 74.1688 104.673 74.0417 105.086C73.9145 105.499 73.4766 105.731 73.0635 105.604C63.5789 102.685 58.8897 101.385 54.2435 100.096C51.0493 99.2101 47.8754 98.3297 43.1777 96.9333C42.7634 96.8101 42.5274 96.3745 42.6506 95.9602Z" fill="black" fill-opacity="0.5"/>
<path fill-rule="evenodd" clip-rule="evenodd" d="M86.3351 87.5409C86.6755 87.8073 86.7354 88.2992 86.4689 88.6395C83.8364 92.0022 76.8252 100.793 72.4592 104.743C72.1387 105.033 71.6439 105.008 71.3539 104.688C71.0639 104.367 71.0887 103.872 71.4091 103.582C75.6548 99.741 82.5787 91.0698 85.2365 87.6747C85.503 87.3344 85.9948 87.2745 86.3351 87.5409Z" fill="black" fill-opacity="0.5"/>
<path fill-rule="evenodd" clip-rule="evenodd" d="M105.851 71.5381C105.887 71.9689 105.566 72.3468 105.135 72.3823C89.8449 73.6433 73.6357 76.6572 57.8751 81.0469C57.4587 81.1628 57.0272 80.9193 56.9112 80.503C56.7953 80.0866 57.0388 79.6551 57.4551 79.5391C73.3007 75.1258 89.6075 72.0924 105.007 70.8225C105.438 70.787 105.816 71.1074 105.851 71.5381Z" fill="black" fill-opacity="0.5"/>
<path fill-rule="evenodd" clip-rule="evenodd" d="M87.417 69.2042C87.4846 68.7774 87.8854 68.4861 88.3123 68.5537C96.6536 69.8744 124.463 76.7619 132.415 79.2297C132.827 79.3578 133.058 79.7963 132.93 80.209C132.802 80.6218 132.363 80.8526 131.951 80.7245C124.048 78.2719 96.3144 71.4053 88.0675 70.0996C87.6406 70.032 87.3494 69.6311 87.417 69.2042Z" fill="black" fill-opacity="0.5"/>
<path fill-rule="evenodd" clip-rule="evenodd" d="M100.459 63.1413C100.886 63.2045 101.181 63.6024 101.118 64.0299C100.732 66.6442 100.729 70.3039 100.828 74.0408C100.865 75.4387 100.917 76.8497 100.967 78.2121C101.049 80.4525 101.127 82.5615 101.127 84.2646C101.127 84.6968 100.776 85.0472 100.344 85.0472C99.912 85.0472 99.5616 84.6968 99.5616 84.2646C99.5616 82.5852 99.4861 80.5318 99.4048 78.3185C99.3545 76.9507 99.3019 75.5219 99.2636 74.0824C99.1643 70.3538 99.1611 66.567 99.5699 63.801C99.6331 63.3735 100.031 63.0781 100.459 63.1413Z" fill="black" fill-opacity="0.5"/>
<path fill-rule="evenodd" clip-rule="evenodd" d="M103.007 67.4922C103.161 67.0885 103.614 66.8867 104.017 67.0412C114.853 71.1911 130.507 73.6738 142.056 75.3236C142.484 75.3847 142.781 75.7811 142.72 76.209C142.659 76.6369 142.262 76.9341 141.834 76.873C130.315 75.2274 114.485 72.726 103.458 68.5028C103.054 68.3483 102.852 67.8958 103.007 67.4922Z" fill="black" fill-opacity="0.5"/>
<path fill-rule="evenodd" clip-rule="evenodd" d="M132.83 78.5232C131.19 79.032 129.27 79.6276 126.439 80.2001C126.015 80.2858 125.603 80.0119 125.517 79.5882C125.431 79.1646 125.705 78.7517 126.129 78.6661C128.875 78.1106 130.689 77.548 132.315 77.0437C132.909 76.8592 133.479 76.6826 134.059 76.517C136.244 75.894 138.455 75.4731 142.421 75.4731C142.853 75.4731 143.203 75.8235 143.203 76.2557C143.203 76.6879 142.853 77.0383 142.421 77.0383C138.598 77.0383 136.531 77.4396 134.489 78.0221C133.952 78.1751 133.409 78.3437 132.83 78.5232Z" fill="black" fill-opacity="0.5"/>
<path fill-rule="evenodd" clip-rule="evenodd" d="M111.949 17.152C111.996 17.2358 112.033 17.3025 112.059 17.3469C112.278 17.7192 112.154 18.199 111.782 18.4183C111.409 18.6377 110.93 18.5136 110.71 18.1412C110.662 18.0587 110.605 17.9572 110.541 17.8429C110.288 17.3903 109.922 16.7358 109.502 16.2561C109.378 16.1143 109.266 16.0094 109.172 15.9397C109.128 15.9076 109.093 15.8866 109.067 15.8733C109.041 15.9001 109.003 15.9476 108.956 16.028C108.298 17.1431 108.198 18.6537 108.552 20.1885C108.905 21.7188 109.683 23.1487 110.61 24.0475C111.313 24.7292 112.381 25.4114 113.203 25.5599C113.596 25.631 113.807 25.56 113.923 25.4643C114.046 25.3632 114.248 25.0846 114.291 24.3399C114.396 22.5048 114.009 20.5689 112.949 19.3326C112.668 19.0044 112.706 18.5104 113.034 18.2291C113.362 17.9479 113.856 17.9859 114.137 18.314C115.568 19.9831 115.97 22.3931 115.853 24.4292C115.798 25.3941 115.515 26.182 114.917 26.6732C114.314 27.1696 113.569 27.2166 112.925 27.1001C111.671 26.8735 110.333 25.9585 109.521 25.1713C108.344 24.0309 107.437 22.3168 107.027 20.5402C106.618 18.768 106.678 16.8088 107.607 15.2329C107.787 14.9283 108.018 14.6592 108.321 14.4852C108.641 14.3016 108.986 14.2562 109.314 14.3181C109.901 14.4288 110.367 14.8685 110.68 15.2255C111.226 15.8503 111.712 16.7242 111.949 17.152Z" fill="black" fill-opacity="0.5"/>
<path fill-rule="evenodd" clip-rule="evenodd" d="M108.775 18.2965C109.005 17.9335 109.381 17.7705 109.763 17.7705H110.141L110.376 18.0676C110.595 18.3437 110.845 18.613 111.121 18.9101C111.165 18.9569 111.209 19.0043 111.254 19.0526C111.57 19.3941 111.914 19.774 112.2 20.1834C112.79 21.0317 113.184 22.101 112.642 23.3844C112.578 23.5357 112.545 23.6343 112.521 23.7041C112.519 23.7104 112.517 23.7164 112.515 23.7222C112.509 23.7394 112.5 23.7668 112.489 23.7935L112.489 23.7949C112.482 23.8136 112.457 23.8787 112.414 23.9485C112.392 23.9849 112.342 24.0598 112.258 24.1335C112.169 24.2118 112.009 24.3158 111.783 24.3291C111.356 24.3541 111.127 24.0454 111.109 24.0212C111.109 24.0206 111.108 24.0202 111.108 24.0199C111.061 23.9589 111.03 23.8997 111.023 23.8869C111.023 23.8862 111.022 23.8857 111.022 23.8853C111.015 23.8726 111.004 23.8496 111.001 23.8436L111 23.8422C110.992 23.8261 110.986 23.8157 110.979 23.8044C110.966 23.7846 110.934 23.7398 110.862 23.679C110.525 23.3956 110.175 22.9266 109.873 22.4482C109.559 21.9518 109.253 21.3734 109.018 20.8164C108.791 20.2794 108.598 19.6858 108.574 19.183C108.563 18.9384 108.585 18.5987 108.775 18.2965ZM111.248 21.693C111.177 21.4939 111.065 21.2923 110.915 21.0779C110.876 21.0217 110.835 20.9655 110.792 20.9091C110.92 21.1538 111.057 21.3928 111.196 21.6124C111.213 21.6398 111.231 21.6667 111.248 21.693ZM110.139 19.0429C110.139 19.0405 110.139 19.0394 110.139 19.0394C110.139 19.0394 110.139 19.0406 110.139 19.0429Z" fill="black" fill-opacity="0.5"/>
<path fill-rule="evenodd" clip-rule="evenodd" d="M125.015 8.18204C125.229 8.55729 125.099 9.03532 124.723 9.24975C122.512 10.5134 120.514 12.0793 118.517 13.7311C118.107 14.0699 117.697 14.4131 117.284 14.7578C115.7 16.0817 114.088 17.4299 112.378 18.6507C112.027 18.9019 111.538 18.8205 111.287 18.4688C111.035 18.1171 111.117 17.6283 111.469 17.3771C113.125 16.1943 114.679 14.8955 116.257 13.5765C116.675 13.2268 117.095 12.8757 117.519 12.525C119.529 10.8632 121.612 9.22483 123.947 7.89084C124.322 7.67641 124.8 7.80678 125.015 8.18204Z" fill="black" fill-opacity="0.5"/>
<path fill-rule="evenodd" clip-rule="evenodd" d="M128.329 16.733C128.441 17.1506 128.193 17.5794 127.775 17.6908C125.826 18.2104 124.248 18.8964 122.66 19.5868C122.329 19.7306 121.998 19.8746 121.663 20.0173C119.726 20.842 117.707 21.6003 115.062 21.9029C114.633 21.9521 114.245 21.6438 114.196 21.2144C114.146 20.785 114.455 20.3971 114.884 20.3479C117.308 20.0706 119.165 19.3799 121.049 18.5773C121.366 18.4424 121.685 18.3036 122.009 18.1629C123.601 17.4701 125.3 16.731 127.372 16.1785C127.789 16.0671 128.218 16.3154 128.329 16.733Z" fill="black" fill-opacity="0.5"/>
<path fill-rule="evenodd" clip-rule="evenodd" d="M136.622 8.5147C136.695 8.66481 136.75 8.77753 136.784 8.84434C138.182 11.583 139.752 14.9165 139.823 18.2674C139.836 18.9151 139.745 19.9243 139.396 20.7808C139.221 21.2118 138.957 21.6609 138.553 21.9907C138.128 22.3388 137.586 22.5197 136.959 22.4493C135.208 22.2525 133.473 21.463 131.905 20.5302C130.426 19.6507 129.035 18.6062 127.865 17.7276C127.79 17.6713 127.716 17.6157 127.643 17.5609C127.297 17.3015 127.227 16.811 127.486 16.4653C127.746 16.1195 128.236 16.0494 128.582 16.3088C128.651 16.3606 128.721 16.413 128.791 16.4657C129.973 17.3527 131.302 18.3502 132.705 19.185C134.197 20.0724 135.706 20.7335 137.134 20.8939C137.333 20.9163 137.456 20.8662 137.563 20.779C137.692 20.6735 137.828 20.4831 137.947 20.1901C138.188 19.5984 138.269 18.821 138.258 18.3004C138.196 15.3533 136.799 12.3174 135.39 9.55573C135.346 9.47018 135.282 9.33697 135.198 9.16565C134.785 8.31776 133.918 6.5366 132.919 4.98217C132.313 4.03938 131.706 3.2584 131.175 2.82564C130.908 2.60846 130.727 2.5343 130.63 2.51864C130.58 2.51067 130.548 2.5092 130.475 2.57743C130.236 2.80018 129.796 3.30106 129.211 3.98898C129.014 4.22015 128.804 4.46964 128.584 4.73017C128.169 5.22118 127.721 5.75143 127.272 6.27226C126.584 7.07103 125.874 7.86965 125.24 8.51127C124.923 8.83191 124.616 9.12237 124.334 9.35732C124.063 9.58254 123.769 9.79612 123.482 9.91933C123.084 10.0896 122.624 9.90556 122.454 9.5083C122.284 9.11105 122.468 8.651 122.865 8.48075C122.939 8.44914 123.092 8.35435 123.333 8.15437C123.561 7.96413 123.829 7.71258 124.126 7.41112C124.722 6.80854 125.404 6.04262 126.087 5.25037C126.531 4.73464 126.968 4.21703 127.379 3.73032C127.601 3.46787 127.815 3.2144 128.019 2.97505C128.582 2.31287 129.087 1.73104 129.408 1.43236C129.829 1.03946 130.345 0.887673 130.878 0.973365C131.363 1.05137 131.799 1.31486 132.164 1.61247C132.896 2.20931 133.612 3.16651 134.235 4.13582C135.297 5.78703 136.227 7.70062 136.622 8.5147Z" fill="black" fill-opacity="0.5"/>
<path fill-rule="evenodd" clip-rule="evenodd" d="M126.724 7.27741C126.803 7.70239 126.522 8.11069 126.097 8.18939C125.496 8.3007 124.955 8.83424 124.518 9.74062C124.094 10.6201 123.86 11.6703 123.78 12.4335C123.765 12.5762 123.756 12.699 123.747 12.8304C123.742 12.909 123.736 12.9908 123.728 13.0818C123.71 13.3012 123.683 13.5514 123.618 13.8023C123.472 14.3588 123.154 14.8449 122.529 15.2318C121.991 15.5652 121.439 15.8149 120.953 16.0345C120.793 16.107 120.64 16.1763 120.497 16.2442C119.923 16.5167 119.414 16.8059 118.926 17.2765C118.136 18.5309 116.965 19.2227 116.084 19.675C115.894 19.7728 115.729 19.8538 115.584 19.9252C115.354 20.0383 115.172 20.1275 115.013 20.222C114.967 20.2496 114.931 20.273 114.903 20.2926C114.808 20.6169 114.508 20.8536 114.153 20.8536C113.72 20.8536 113.37 20.5032 113.37 20.071C113.37 19.712 113.542 19.4425 113.704 19.2689C113.859 19.1026 114.049 18.975 114.213 18.8772C114.421 18.7531 114.701 18.6151 114.977 18.4789C115.111 18.4125 115.245 18.3464 115.369 18.2826C116.21 17.8509 117.084 17.3025 117.64 16.3809L117.689 16.2991L117.757 16.2315C118.444 15.5438 119.153 15.15 119.826 14.8304C120.02 14.7379 120.205 14.6544 120.383 14.5736C120.842 14.3659 121.26 14.1766 121.705 13.901C121.983 13.7291 122.058 13.5805 122.104 13.4056C122.134 13.2908 122.152 13.1512 122.169 12.954C122.173 12.8982 122.178 12.8329 122.183 12.7618C122.193 12.6116 122.206 12.4356 122.223 12.2697C122.317 11.3789 122.586 10.1435 123.109 9.06077C123.618 8.00495 124.466 6.89966 125.812 6.65043C126.237 6.57173 126.646 6.85244 126.724 7.27741Z" fill="black" fill-opacity="0.5"/>
<path fill-rule="evenodd" clip-rule="evenodd" d="M107.122 28.836C107.553 28.867 107.877 29.2416 107.846 29.6726C107.83 29.9059 107.793 30.2062 107.748 30.5396C108.143 30.4246 108.559 30.4653 108.94 30.6655C109.457 30.9367 109.816 31.4476 110.035 32.0012C110.26 32.5699 110.37 33.2605 110.336 34.0142C110.319 34.3961 110.204 35.5189 109.884 36.4503C109.732 36.8947 109.487 37.4371 109.068 37.7823C108.839 37.971 108.54 38.115 108.182 38.1234C107.83 38.1317 107.508 38.0074 107.231 37.8226C106.543 37.3638 106.203 36.6128 106.033 35.8801C105.86 35.1384 105.833 34.2978 105.865 33.4964C105.897 32.6884 105.992 31.8772 106.083 31.184C106.109 30.9849 106.134 30.799 106.157 30.6267C106.218 30.1774 106.267 29.8202 106.285 29.5605C106.316 29.1294 106.691 28.8051 107.122 28.836ZM107.442 33.2967C107.437 33.3842 107.433 33.4716 107.429 33.5588C107.399 34.301 107.431 34.9816 107.557 35.5256C107.686 36.0787 107.886 36.3778 108.099 36.5203C108.105 36.5241 108.11 36.5275 108.115 36.5306C108.188 36.4438 108.295 36.2602 108.404 35.942C108.657 35.2057 108.759 34.2467 108.772 33.9431C108.798 33.3777 108.712 32.9119 108.58 32.5771C108.441 32.2273 108.282 32.0876 108.213 32.0513C108.211 32.0504 108.209 32.0491 108.207 32.0477C108.197 32.0396 108.185 32.0296 108.114 32.0828C107.983 32.1813 107.752 32.4608 107.538 33.1019C107.515 33.1727 107.482 33.2379 107.442 33.2967ZM108.176 36.5614C108.176 36.5614 108.175 36.5613 108.174 36.5609L108.176 36.5614Z" fill="black" fill-opacity="0.5"/>
<path fill-rule="evenodd" clip-rule="evenodd" d="M110.456 47.1307C110.667 48.0799 110.701 49.1543 110.705 49.3499C110.709 49.501 110.636 50.8025 110.469 51.9632C110.387 52.5378 110.272 53.1535 110.106 53.5937C110.035 53.7832 109.9 54.098 109.634 54.305C109.474 54.4297 109.236 54.5374 108.946 54.5076C108.673 54.4795 108.474 54.3408 108.35 54.2227C107.833 53.7321 107.559 53.041 107.403 52.3664C107.306 51.9469 107.247 51.4981 107.213 51.0445C107.097 50.908 107.027 50.7309 107.027 50.5375C107.027 50.3622 107.015 50.1381 106.999 49.8581C106.994 49.7518 106.987 49.6375 106.981 49.5147C106.96 49.0894 106.942 48.5949 106.961 48.1065C106.98 47.6246 107.036 47.1061 107.183 46.6446C107.221 46.5248 107.268 46.4015 107.325 46.2795C107.36 46.1541 107.426 46.0413 107.513 45.9497C107.662 45.7332 107.856 45.5366 108.11 45.391C108.398 45.2266 108.745 45.1364 109.111 45.223C109.465 45.3066 109.715 45.5269 109.88 45.7359C110.19 46.1285 110.356 46.6784 110.456 47.1307ZM108.847 47.1536C108.837 47.3719 108.824 47.6059 108.811 47.8466C108.806 47.9414 108.8 48.0373 108.795 48.1337C108.761 48.7725 108.73 49.4689 108.741 50.1517C108.75 50.7827 108.796 51.3761 108.899 51.8823C108.906 51.8361 108.913 51.789 108.92 51.7413C108.998 51.1934 109.054 50.6127 109.091 50.1547C109.124 49.731 109.137 49.4547 109.14 49.3976C109.14 49.3899 109.14 49.3862 109.14 49.3867C109.136 49.2042 109.104 48.2601 108.928 47.4703C108.902 47.3512 108.874 47.2457 108.847 47.1536Z" fill="black" fill-opacity="0.5"/>
<path opacity="0.5" d="M63.5727 49.579C56.7778 57.4694 81.9841 73.6887 83.5184 75.0039C88.2527 79.9136 90.6051 84.3554 91.1896 85.9627C95.8654 78.3645 104.516 62.2913 101.71 58.7845C98.9047 55.2776 93.5275 62.4374 91.1896 66.4557C91.9933 57.2502 91.8471 37.3925 84.8334 31.6062C77.8197 25.8199 79.5731 39.4236 81.3265 46.9488C77.6736 45.1954 69.0087 43.2666 63.5727 49.579Z" fill="url(#paint0_linear_1326_339376)"/>
<path d="M113.328 67.551C113.766 66.4551 138.314 20.6467 152.561 24.3727C163.958 27.3536 150.589 34.6742 142.479 37.9619C150.33 34.9206 164.261 31.4821 159.256 41.1295C161.209 41.1653 162.155 42.244 160.89 45.1948C156.945 54.4003 114.862 79.1676 110.479 84.8662C106.972 89.4252 110.917 75.2223 113.328 67.551Z" fill="url(#paint1_linear_1326_339376)" fill-opacity="0.3"/>
<path d="M89.4357 88.5926C87.3899 85.5242 81.7647 81.3162 72.1208 80.264C60.0658 78.9489 44.2846 70.8393 54.5861 69.7434C59.1175 69.2614 62.3987 69.4199 64.6046 69.7817C60.3554 68.194 55.4396 65.3937 56.1205 61.853C56.9972 57.294 84.8326 74.3462 89.4357 88.5926Z" fill="url(#paint2_linear_1326_339376)" fill-opacity="0.4"/>
<path d="M99.0796 69.7434C93.6439 72.3736 95.0613 83.4056 96.4494 88.5928C97.6915 90.054 100.438 92.3627 101.491 89.9079C102.543 87.4531 105.728 86.1088 107.189 85.7435C109.016 86.2549 113.458 87.5407 116.614 88.5928C120.559 89.908 120.121 82.675 119.682 80.264C119.332 78.3353 112.376 81.0677 108.943 82.675C110.331 80.0449 113.019 73.7763 112.669 69.7434C112.23 64.7023 105.874 66.4558 99.0796 69.7434Z" fill="url(#paint3_linear_1326_339376)" fill-opacity="0.4"/>
<path opacity="0.5" d="M145.108 58.5654C141.777 52.6037 123.848 59.8802 121.437 67.5515L119.245 82.4558C128.159 81.6521 140.9 81.1845 145.108 76.0996C149.316 71.0146 142.478 67.7707 138.533 67.5515C141.236 66.7479 148.439 64.5271 145.108 58.5654Z" fill="url(#paint4_linear_1326_339376)"/>
<path fill-rule="evenodd" clip-rule="evenodd" d="M153.428 25.59C152.448 25.6772 151.121 26.1008 150.739 26.24C143.434 28.901 136.574 34.2924 130.708 39.477C124.256 45.1798 119.19 51.9496 115.846 59.8662C113.16 66.225 111.393 72.7988 109.924 79.5742C109.832 79.9965 109.415 80.2647 108.993 80.173C108.571 80.0814 108.303 79.6648 108.394 79.2424C109.873 72.4225 111.664 65.743 114.404 59.2572C117.847 51.106 123.059 44.1482 129.672 38.3043C135.554 33.105 142.601 27.5386 150.203 24.7694C150.617 24.6187 152.1 24.1368 153.29 24.031C153.592 24.0041 153.911 23.998 154.205 24.041C154.483 24.0817 154.848 24.1815 155.129 24.4586C155.456 24.7805 155.54 25.2075 155.469 25.6109C155.405 25.975 155.215 26.3405 154.967 26.699C153.465 28.8734 151.659 30.5882 149.737 32.1159C150.823 31.7787 151.92 31.5389 153.009 31.4407C156.457 31.1298 159.427 33.3074 159.764 36.8987C159.977 39.1629 159.228 41.5045 157.95 43.4502C158.006 43.4615 158.062 43.4734 158.118 43.4859C159.393 43.7692 160.904 44.4081 161.354 45.9059C161.915 47.7762 160.841 49.5703 159.619 50.8758C158.362 52.2195 156.718 53.302 155.562 53.8282C152.571 55.1905 149.202 55.7445 146.029 56.2662C145.161 56.4091 144.307 56.5495 143.479 56.7035C140.778 57.2061 138.245 58.1178 135.603 59.0963C135.198 59.2464 134.748 59.0396 134.597 58.6343C134.447 58.229 134.654 57.7787 135.059 57.6286C137.694 56.6529 140.343 55.695 143.193 55.1648C144.094 54.997 144.998 54.8479 145.898 54.6995C149.039 54.1812 152.131 53.671 154.914 52.4038C155.896 51.9562 157.369 50.9899 158.476 49.8064C159.62 48.5846 160.16 47.3731 159.855 46.3556C159.671 45.7435 158.972 45.2791 157.779 45.0137C157.481 44.9476 157.173 44.8988 156.867 44.8637C156.25 45.5577 155.564 46.1665 154.837 46.6586C154.683 46.763 154.222 47.0111 153.669 47.2817C153.094 47.5625 152.36 47.8967 151.63 48.1727C150.918 48.4418 150.141 48.6828 149.506 48.7317C149.198 48.7554 148.811 48.7448 148.468 48.573C148.282 48.4803 148.105 48.3378 147.976 48.1328C147.847 47.9289 147.793 47.7061 147.785 47.4928C147.754 46.6288 148.153 45.9282 148.69 45.3991C149.218 44.8799 149.915 44.4867 150.611 44.1904C152.004 43.598 153.6 43.3074 154.468 43.2512C154.917 43.2221 155.52 43.2064 156.182 43.2391C157.562 41.4423 158.405 39.1574 158.206 37.0452C157.957 34.39 155.819 32.7588 153.15 32.9995C149.379 33.3395 145.36 35.6041 142.009 37.6819C141.914 37.7411 141.829 37.7942 141.752 37.8418C141.649 37.9072 141.555 37.9668 141.475 38.0168C141.371 38.0823 141.286 38.1348 141.235 38.1666C141.212 38.1805 141.188 38.1957 141.172 38.205L141.157 38.2132L141.142 38.2214C141.138 38.2238 141.123 38.2318 141.104 38.2408C141.092 38.2459 141.062 38.2586 141.043 38.2659C141.005 38.2789 140.854 38.3099 140.74 38.3134C140.312 38.1641 139.993 37.4645 140.096 37.1394C140.141 37.0693 140.217 36.9803 140.241 36.9571C140.274 36.9268 140.303 36.9056 140.305 36.9041C140.314 36.8975 140.321 36.8924 140.325 36.89C140.341 36.8785 140.359 36.867 140.363 36.8641L140.364 36.8636C140.416 36.8306 140.584 36.7248 140.917 36.5182C141.326 36.2577 141.834 35.9283 142.057 35.7613C143.068 35.003 144.071 34.2972 145.054 33.606C148.32 31.308 151.356 29.1723 153.68 25.8093C153.743 25.7179 153.79 25.6406 153.826 25.5765C153.718 25.5723 153.585 25.5761 153.428 25.59ZM154.694 44.8057C154.651 44.808 154.609 44.8105 154.569 44.8131C153.852 44.8595 152.432 45.1167 151.224 45.6306C150.62 45.8875 150.121 46.1872 149.788 46.5147C149.559 46.74 149.429 46.9564 149.376 47.1719C149.379 47.1717 149.382 47.1715 149.386 47.1712C149.786 47.1404 150.387 46.9691 151.076 46.7088C151.746 46.4554 152.434 46.143 152.981 45.8755C153.254 45.7421 153.489 45.6215 153.666 45.5272C153.754 45.48 153.826 45.4403 153.88 45.4097C153.93 45.3813 153.953 45.3668 153.958 45.3636C153.959 45.363 153.96 45.3628 153.959 45.363C154.211 45.1926 154.456 45.0062 154.694 44.8057Z" fill="black" fill-opacity="0.5"/>
<path fill-rule="evenodd" clip-rule="evenodd" d="M136.282 57.948C135.888 57.9872 135.533 58.0225 135.23 58.0474C130.835 58.407 127.061 58.9918 123.278 60.9457C122.894 61.1441 122.422 60.9936 122.224 60.6096C122.026 60.2256 122.176 59.7535 122.56 59.5551C126.624 57.4557 130.651 56.8518 135.102 56.4875C135.368 56.4657 135.695 56.4331 136.067 56.396C137.332 56.2699 139.127 56.0909 140.894 56.1015C142.045 56.1085 143.224 56.1946 144.283 56.4375C145.332 56.6783 146.338 57.0899 147.063 57.8043C147.868 58.5979 148.028 59.5749 147.815 60.5101C147.613 61.3977 147.078 62.2619 146.478 63.0109C145.274 64.5155 143.587 65.8233 142.784 66.3144C142.703 66.3643 142.597 66.4309 142.471 66.5101C142.082 66.754 141.504 67.1174 140.858 67.4838C141.177 67.5628 141.463 67.6464 141.692 67.7321C141.804 67.7743 141.926 67.8191 142.056 67.8667C142.92 68.1834 144.128 68.6262 145.109 69.2644C146.245 70.0037 147.326 71.1769 147.014 72.9199C146.646 74.9736 145.291 76.8974 143.631 78.3605C141.969 79.8264 139.902 80.9182 137.974 81.2293C135.353 81.6523 132.419 81.1787 129.711 80.1933C127 79.2065 124.449 77.6825 122.592 75.9292C119.552 73.0593 119.896 69.6127 120.532 66.3084C120.613 65.884 121.024 65.6061 121.448 65.6877C121.873 65.7694 122.15 66.1796 122.069 66.604C121.44 69.8735 121.276 72.5343 123.666 74.7912C125.348 76.3789 127.707 77.7986 130.246 78.7226C132.789 79.6479 135.445 80.0521 137.724 79.6842C139.295 79.4307 141.099 78.5062 142.596 77.1865C144.096 75.8639 145.189 74.2327 145.473 72.6441C145.619 71.832 145.193 71.1867 144.255 70.5763C143.436 70.0434 142.416 69.6678 141.538 69.3445C141.402 69.2944 141.27 69.2456 141.142 69.1976C140.595 68.9925 139.484 68.7691 138.439 68.6259C138.315 68.6681 138.192 68.7063 138.071 68.7398C137.505 68.896 136.796 69.003 136.199 68.7243C136.087 68.672 135.965 68.6081 135.859 68.5293C135.805 68.4899 135.733 68.4305 135.666 68.3484C135.602 68.2703 135.504 68.124 135.476 67.9156C135.403 67.3652 135.839 67.1034 135.961 67.0451C136.109 66.9737 136.261 66.9487 136.351 66.9369C136.724 66.8882 137.324 66.9241 137.925 66.9869C138.033 66.9983 138.145 67.0109 138.26 67.0247C138.568 66.9029 138.897 66.7513 139.234 66.5811C140.153 66.1162 141.038 65.5611 141.612 65.2011C141.75 65.1146 141.87 65.0392 141.968 64.9792C142.642 64.567 144.183 63.374 145.257 62.0327C145.796 61.3587 146.164 60.7137 146.289 60.1625C146.404 59.6587 146.317 59.2671 145.964 58.9191C145.532 58.493 144.846 58.1726 143.933 57.963C143.029 57.7556 141.976 57.6732 140.885 57.6666C139.211 57.6566 137.545 57.8223 136.282 57.948ZM136.537 68.4916C136.537 68.4915 136.54 68.491 136.545 68.4902C136.54 68.4912 136.538 68.4916 136.537 68.4916Z" fill="black" fill-opacity="0.5"/>
<path fill-rule="evenodd" clip-rule="evenodd" d="M76.7388 23.3602C78.0582 23.1709 79.5222 23.4942 81.1073 24.3877C83.3413 25.6468 84.8594 27.9324 85.9986 30.2876C86.7913 31.9262 87.4412 33.6939 88.0155 35.256C88.263 35.9291 88.4964 36.564 88.7212 37.134C90.1448 40.744 91.4764 44.377 92.3822 48.1982C92.4819 48.6187 92.2218 49.0404 91.8012 49.1401C91.3807 49.2398 90.9589 48.9797 90.8593 48.5591C89.9801 44.8502 88.6823 41.3015 87.2652 37.7081C87.0148 37.0734 86.7674 36.4 86.512 35.7047C85.9497 34.1743 85.3481 32.5371 84.5897 30.9691C83.4917 28.6993 82.1485 26.7711 80.3388 25.7511C78.9687 24.9789 77.8527 24.7815 76.9611 24.9094C76.0749 25.0366 75.3139 25.4988 74.6727 26.2299C73.3613 27.7253 72.6341 30.2643 72.5865 32.7442C72.5332 35.523 72.9096 38.2716 73.9842 40.4899C74.6535 41.8714 75.595 43.053 76.8943 43.9183C78.4137 44.0175 79.8903 44.2676 81.223 44.6777C81.6035 44.7948 81.9033 44.9008 82.1267 44.9987C82.2378 45.0473 82.3469 45.1013 82.444 45.1622C82.5234 45.212 82.6736 45.3139 82.7849 45.4833C82.8466 45.5773 82.9176 45.7245 82.9259 45.915C82.9348 46.1182 82.8691 46.2986 82.7707 46.4362C82.6063 46.6659 82.3748 46.7472 82.2999 46.7723C82.1063 46.8371 81.8809 46.8546 81.7115 46.8615C80.9953 46.8906 79.7722 46.7619 79.1615 46.6026C78.1267 46.3326 77.21 45.9443 76.401 45.4582C73.7291 45.3331 70.932 45.7004 68.6803 46.5071C66.0651 47.444 63.2704 49.486 61.5662 51.9997C59.8744 54.4951 59.3147 57.345 60.8805 60.0707C62.2524 62.4588 64.507 63.3903 67.1881 63.747C68.5334 63.926 69.954 63.9552 71.3873 63.9586C71.6567 63.9593 71.9273 63.959 72.198 63.9587C73.3492 63.9575 74.5023 63.9563 75.5729 64.0267C77.4367 64.1492 79.1748 64.5471 80.8974 64.9415C81.0322 64.9723 81.167 65.0032 81.3017 65.0339C81.3367 65.0419 81.3676 65.0489 81.3953 65.0551C81.7028 64.7886 82.1685 64.8015 82.4606 65.0936C82.7662 65.3992 82.7662 65.8947 82.4606 66.2004C82.4542 66.2067 82.4469 66.2143 82.4385 66.2229C82.3396 66.3246 82.1042 66.5665 81.7505 66.633C81.571 66.6667 81.4106 66.6489 81.3016 66.6318C81.1969 66.6153 81.0771 66.588 80.9642 66.5622L80.954 66.5599C80.8258 66.5307 80.6984 66.5016 80.5717 66.4726C78.8256 66.0733 77.204 65.7024 75.4703 65.5884C74.457 65.5218 73.3703 65.5228 72.2232 65.5239C71.9468 65.5242 71.6668 65.5244 71.3835 65.5238C69.9432 65.5203 68.4354 65.4919 66.9817 65.2985C64.0651 64.9104 61.2397 63.838 59.5234 60.8503C57.5705 57.4509 58.3564 53.9451 60.2707 51.1214C62.1726 48.3161 65.2445 46.0755 68.1525 45.0337C70.02 44.3646 72.2165 43.9734 74.4367 43.8873C73.6734 43.0888 73.0595 42.1708 72.5757 41.1723C71.3528 38.648 70.9658 35.6249 71.0217 32.7142C71.0732 30.0311 71.8503 27.0746 73.496 25.198C74.3334 24.2431 75.4142 23.5502 76.7388 23.3602ZM81.6119 46.4878C81.6193 46.4924 81.6173 46.492 81.6089 46.486C81.6101 46.4867 81.6111 46.4873 81.6119 46.4878Z" fill="black" fill-opacity="0.5"/>
<path fill-rule="evenodd" clip-rule="evenodd" d="M93.8197 10.8353C93.0176 11.8423 92.384 13.1557 92.1238 13.7405C89.789 18.9904 89.5885 25.0892 89.673 30.9194C89.7154 33.843 90.0472 36.6886 90.3851 39.5868C90.545 40.9577 90.7062 42.3404 90.8388 43.7486C90.8794 44.1789 90.5634 44.5606 90.1331 44.6011C89.7028 44.6416 89.3211 44.3257 89.2806 43.8954C89.155 42.5617 88.9986 41.2183 88.8411 39.8667C88.4986 36.9256 88.1516 33.9454 88.108 30.942C88.0235 25.1119 88.2055 18.6994 90.6938 13.1045C90.9673 12.4895 91.6656 11.0276 92.5954 9.86023C93.0567 9.28096 93.6233 8.71175 94.2777 8.38019C94.9688 8.03 95.7841 7.93906 96.5902 8.39392C97.5573 8.93966 98.1605 9.9554 98.542 11.1243C98.9275 12.3052 99.1251 13.7577 99.1989 15.3483C99.3467 18.5335 99.0038 22.4381 98.5247 26.2012C98.1553 29.1026 97.7006 31.9505 97.3181 34.3464C97.2039 35.0616 97.0961 35.7365 96.999 36.3605C96.7863 37.727 96.6267 38.8356 96.5569 39.6034C96.5387 39.8026 96.5277 39.9687 96.5226 40.1038C97.43 40.221 98.3316 40.3498 99.1196 40.6931C100.14 41.1377 100.939 41.9138 101.563 43.2698C102.96 46.3032 101.984 49.8802 100.214 52.3433C99.5728 53.2351 99.1969 54.2659 98.8999 55.4087C98.7641 55.9314 98.6479 56.4638 98.5278 57.0145C98.5164 57.067 98.5049 57.1196 98.4934 57.1723C98.3621 57.773 98.2241 58.3934 98.0538 59.0063C97.9603 59.3432 97.8884 59.6836 97.8127 60.0422C97.7867 60.1654 97.7602 60.2907 97.7323 60.4188C97.6289 60.8924 97.504 61.4083 97.3024 61.8566C97.098 62.3115 96.7793 62.7772 96.2419 63.0507C95.7007 63.3261 95.074 63.3379 94.3969 63.1687C93.9776 63.0638 93.7226 62.639 93.8275 62.2197C93.9323 61.8004 94.3572 61.5454 94.7765 61.6503C95.227 61.7629 95.4365 61.7045 95.532 61.6558C95.6312 61.6054 95.7498 61.4933 95.8749 61.2149C96.003 60.93 96.1001 60.5572 96.2031 60.0851C96.226 59.9802 96.2493 59.8697 96.2734 59.7555C96.3514 59.3856 96.4378 58.9764 96.5458 58.5874C96.703 58.0215 96.8328 57.44 96.9643 56.8383C96.976 56.7848 96.9877 56.7312 96.9994 56.6775C97.1184 56.132 97.241 55.5694 97.3851 55.015C97.7021 53.7951 98.138 52.5496 98.9428 51.4298C100.513 49.245 101.223 46.273 100.142 43.9245C99.6518 42.861 99.1097 42.396 98.4945 42.128C97.8805 41.8605 97.1624 41.7667 96.1606 41.6358C96.0357 41.6195 95.9064 41.6026 95.7724 41.5847C95.2901 41.5204 95.1046 41.1238 95.0537 40.9887C94.9912 40.8227 94.9707 40.6478 94.9617 40.5143C94.9427 40.2325 94.9613 39.8675 94.9982 39.4616C95.0731 38.6371 95.2405 37.4815 95.4525 36.1198C95.5512 35.4856 95.6601 34.8037 95.775 34.0838C96.1571 31.6908 96.6062 28.8776 96.9721 26.0036C97.4487 22.2605 97.7768 18.4657 97.6355 15.4209C97.5648 13.8966 97.3778 12.6014 97.0542 11.61C96.7267 10.6066 96.2963 10.0252 95.821 9.75701C95.5607 9.61013 95.3099 9.61174 94.9851 9.77633C94.6235 9.95954 94.2242 10.3273 93.8197 10.8353Z" fill="black" fill-opacity="0.5"/>
<path fill-rule="evenodd" clip-rule="evenodd" d="M59.3961 59.7399C59.4905 59.7868 59.5623 59.8225 59.6074 59.8439C63.1565 61.527 66.464 63.6291 69.6218 65.8962C76.7448 71.0101 82.4182 77.3301 88.1562 83.7431C88.4444 84.0652 88.4169 84.56 88.0948 84.8482C87.7727 85.1363 87.278 85.1089 86.9898 84.7868C81.2361 78.3562 75.6711 72.166 68.709 67.1676C65.5968 64.9332 62.3726 62.8875 58.9368 61.258C58.8727 61.2276 58.781 61.1823 58.6666 61.1258C57.9954 60.7939 56.541 60.0749 55.2695 59.7067C54.9043 59.601 54.5804 59.5325 54.3141 59.5079C54.0734 59.4856 53.9334 59.5045 53.8657 59.5239C53.8595 59.6001 53.8686 59.7801 53.9849 60.1129C54.8197 62.5016 56.4428 64.9648 58.5236 66.8981C58.726 67.0862 58.9321 67.2687 59.1418 67.4453C60.2456 67.4677 61.2205 67.5553 61.9104 67.6623C63.5659 67.9192 65.4863 68.5391 66.8045 69.8998C67.0103 70.1122 67.2296 70.3917 67.2989 70.7308C67.3376 70.9207 67.3303 71.1373 67.2379 71.3493C67.1473 71.5572 67.0014 71.7 66.8637 71.7928C66.6127 71.9619 66.3233 72.0107 66.127 72.0285C65.9083 72.0483 65.6792 72.0393 65.4695 72.0169C62.9724 71.7493 60.606 70.6044 58.5781 69.0048C57.6094 69.0053 56.5598 69.0612 55.5449 69.2052C54.3845 69.3699 53.3129 69.6439 52.4715 70.0536C51.6285 70.4641 51.0919 70.9722 50.8564 71.5704C50.7231 71.9092 50.7921 72.3272 51.1088 72.8602C51.422 73.3871 51.8935 73.8805 52.2974 74.2798C54.5591 76.5161 57.4651 77.8339 60.6271 78.4765C63.0213 78.963 65.4404 79.0232 67.9076 78.8377C68.3754 78.8026 68.8545 78.7437 69.3551 78.6794C69.4142 78.6718 69.4736 78.6641 69.5333 78.6564C69.9738 78.5996 70.4311 78.5405 70.8886 78.4964C71.9278 78.396 73.0336 78.3644 74.1358 78.6152C74.791 78.7643 75.5594 79.0703 76.2623 79.4371C76.9611 79.8017 77.6591 80.2596 78.1431 80.7436C78.4487 81.0492 78.4487 81.5447 78.1431 81.8503C77.8375 82.1559 77.342 82.1559 77.0364 81.8503C76.7091 81.523 76.1648 81.1516 75.5383 80.8247C74.916 80.5 74.2763 80.2523 73.7885 80.1413C72.9275 79.9453 72.0164 79.9599 71.039 80.0542C70.6083 80.0958 70.1774 80.1514 69.7343 80.2086C69.6746 80.2163 69.6147 80.224 69.5545 80.2317C69.0538 80.296 68.5382 80.3599 68.0249 80.3985C65.4575 80.5915 62.8877 80.5329 60.3155 80.0102C56.9317 79.3226 53.7245 77.892 51.197 75.3928C50.7892 74.9896 50.1883 74.3746 49.7634 73.6598C49.3422 72.9511 49.0076 71.9941 49.4001 70.997C49.8314 69.9015 50.7445 69.1538 51.7863 68.6465C52.8298 68.1383 54.0782 67.8326 55.325 67.6556C55.8439 67.582 56.37 67.5297 56.8907 67.495C54.9076 65.4933 53.3532 63.0492 52.5074 60.6293C52.3276 60.1146 52.2391 59.6052 52.3443 59.1436C52.4628 58.6237 52.8029 58.2672 53.2418 58.0862C53.6335 57.9247 54.0713 57.9136 54.4583 57.9494C54.8586 57.9865 55.2863 58.0822 55.7048 58.2034C57.1364 58.6179 58.7675 59.4278 59.3961 59.7399ZM64.9065 70.3528C63.8296 70.1504 62.769 69.7605 61.7515 69.2218C62.8816 69.4053 64.0104 69.7605 64.9065 70.3528ZM65.791 71.1219C65.791 71.1219 65.7906 71.1212 65.7899 71.1199L65.791 71.1219Z" fill="black" fill-opacity="0.5"/>
<path fill-rule="evenodd" clip-rule="evenodd" d="M105.701 67.9919C102.856 68.848 100.022 70.6281 98.7364 71.8999C95.0888 75.5074 94.723 80.6363 96.4048 85.351C96.5501 85.758 96.3378 86.2058 95.9307 86.351C95.5236 86.4962 95.0759 86.2839 94.9307 85.8768C93.1158 80.7892 93.4235 74.9531 97.6358 70.7871C99.1186 69.3206 102.181 67.4166 105.25 66.4931C106.788 66.0301 108.397 65.792 109.848 66.0278C111.328 66.2683 112.647 67.0073 113.493 68.4618C114.989 71.0348 114.35 74.2291 113.186 77.0325C112.609 78.4215 111.878 79.7743 111.136 80.9983C112.174 80.5976 113.661 80.0826 115.086 79.7905C116.186 79.5652 117.379 79.4432 118.316 79.7066C118.804 79.8436 119.279 80.1009 119.61 80.5564C119.944 81.0166 120.061 81.5824 120.012 82.1987C119.939 83.111 119.398 83.8656 118.74 84.435C118.076 85.0104 117.218 85.4643 116.331 85.7791C115.443 86.0947 114.484 86.285 113.598 86.3041C112.73 86.3228 111.833 86.1791 111.153 85.7254C110.793 85.4857 110.696 84.9998 110.936 84.6402C111.176 84.2806 111.661 84.1834 112.021 84.4231C112.322 84.6234 112.846 84.7548 113.564 84.7393C114.263 84.7243 115.056 84.5712 115.808 84.3042C116.562 84.0362 117.235 83.668 117.716 83.2516C118.204 82.8294 118.424 82.4227 118.452 82.0738C118.479 81.7289 118.406 81.5616 118.344 81.4763C118.279 81.3864 118.152 81.2862 117.893 81.2134C117.337 81.0573 116.459 81.1068 115.4 81.3238C113.327 81.7485 111.057 82.7038 110.527 82.9406C110.222 83.0769 109.909 83.2214 109.59 83.3741C109.356 83.7118 109.133 84.0271 108.925 84.3164C107.388 86.4586 105.608 88.4889 103.498 90.1554C103.45 90.1929 102.744 90.7182 102.099 91.0325C101.934 91.113 101.748 91.1924 101.561 91.2436C101.401 91.2876 101.115 91.3477 100.817 91.2549C100.648 91.2022 100.473 91.0988 100.338 90.9249C100.206 90.7554 100.151 90.5688 100.134 90.4091C100.101 90.1183 100.183 89.829 100.273 89.5924C101.044 87.5674 102.645 85.919 104.412 84.6084C105.732 83.6297 107.182 82.8123 108.533 82.147C109.629 80.5376 110.876 78.5147 111.74 76.4322C112.867 73.7199 113.245 71.1487 112.14 69.2487C111.567 68.2632 110.693 67.7509 109.597 67.5726C108.47 67.3896 107.119 67.5652 105.701 67.9919ZM106.245 85.2372C105.939 85.4388 105.638 85.6482 105.345 85.8656C104.041 86.8323 102.935 87.9254 102.221 89.1428C102.381 89.0345 102.493 88.9527 102.521 88.9319C102.527 88.9278 102.529 88.9261 102.528 88.9271C103.894 87.8481 105.124 86.5946 106.245 85.2372ZM101.113 89.7415C101.113 89.7413 101.117 89.7405 101.125 89.7398C101.117 89.7414 101.113 89.7418 101.113 89.7415Z" fill="black" fill-opacity="0.5"/>
<path fill-rule="evenodd" clip-rule="evenodd" d="M137.572 26.174C137.853 26.5018 137.816 26.9959 137.488 27.2775C136.574 28.0627 135.661 28.8253 134.754 29.5822C132.375 31.5696 130.042 33.5176 127.868 35.7315C124.491 39.1707 121.426 42.8921 118.338 46.6398C117.828 47.259 117.318 47.879 116.805 48.4985C116.529 48.8315 116.036 48.878 115.703 48.6024C115.37 48.3268 115.324 47.8335 115.599 47.5006C116.107 46.8864 116.615 46.2699 117.124 45.6524C120.209 41.9073 123.322 38.1269 126.751 34.6349C128.983 32.3617 131.405 30.3391 133.806 28.3345C134.7 27.588 135.591 26.8439 136.468 26.0904C136.796 25.8087 137.29 25.8461 137.572 26.174Z" fill="black" fill-opacity="0.5"/>
<path fill-rule="evenodd" clip-rule="evenodd" d="M104.125 98.3147C104.557 98.3033 104.917 98.6443 104.928 99.0763C104.956 100.133 104.978 101.196 104.999 102.261C105.111 107.806 105.223 113.422 106.285 118.728C106.369 119.152 106.095 119.564 105.671 119.649C105.247 119.734 104.835 119.459 104.75 119.035C103.659 113.58 103.544 107.8 103.433 102.256C103.412 101.2 103.391 100.153 103.364 99.1177C103.352 98.6857 103.693 98.3262 104.125 98.3147Z" fill="black" fill-opacity="0.5"/>
<path fill-rule="evenodd" clip-rule="evenodd" d="M103.015 98.3628C103.265 98.0104 103.753 97.9275 104.106 98.1776C106.621 99.9626 110.255 102.477 113.264 104.546C114.768 105.581 116.114 106.503 117.084 107.168C117.57 107.5 117.961 107.767 118.231 107.951L118.647 108.236L118.649 108.237L118.208 108.883L117.767 109.53L117.348 109.244C117.078 109.059 116.686 108.792 116.2 108.459C115.229 107.795 113.882 106.871 112.377 105.836C109.368 103.766 105.725 101.246 103.2 99.4539C102.848 99.2038 102.765 98.7152 103.015 98.3628ZM118.854 109.324C118.611 109.681 118.124 109.773 117.767 109.53L118.208 108.883L118.649 108.237C119.006 108.48 119.098 108.967 118.854 109.324Z" fill="black" fill-opacity="0.5"/>
<path fill-rule="evenodd" clip-rule="evenodd" d="M120.106 107.22C120.34 107.583 120.236 108.067 119.872 108.302L119.448 107.644L119.024 106.986C119.387 106.752 119.871 106.857 120.106 107.22ZM114.563 111.887C111.58 113.972 107.982 116.612 105.451 118.877C105.128 119.165 104.634 119.138 104.346 118.816C104.057 118.494 104.085 117.999 104.407 117.711C107.013 115.379 110.675 112.695 113.667 110.604C115.166 109.556 116.505 108.652 117.468 108.01C117.95 107.689 118.338 107.434 118.606 107.258C118.74 107.171 118.844 107.103 118.915 107.057L118.996 107.005L119.024 106.986C119.024 106.986 119.024 106.986 119.448 107.644L119.872 108.302L119.846 108.318L119.768 108.369C119.699 108.414 119.596 108.481 119.464 108.568C119.199 108.741 118.814 108.995 118.336 109.313C117.38 109.95 116.051 110.847 114.563 111.887Z" fill="black" fill-opacity="0.5"/>
<path opacity="0.3" d="M1.68991 92.7176C4.91513 95.9428 12.6595 95.1765 16.4584 94.5961C23.8533 92.3209 -3.7264 87.3012 1.68991 92.7176Z" fill="#FF006A"/>
<path opacity="0.3" d="M153.444 94.7685C158.21 96.8421 167.473 93.5946 171.965 91.8039C180.415 87.2109 145.441 91.2862 153.444 94.7685Z" fill="#FF006A"/>
<path fill-rule="evenodd" clip-rule="evenodd" d="M12.7997 86.9027C12.8845 86.4789 13.2968 86.204 13.7206 86.2888C14.73 86.4907 15.6894 86.8896 16.3852 87.6094C16.8603 88.1008 17.1789 88.7071 17.3213 89.4202C17.682 89.438 18.0425 89.4556 18.4029 89.4731C18.8346 89.494 19.1676 89.861 19.1467 90.2927C19.1257 90.7243 18.7588 91.0573 18.3271 91.0364C18.0069 91.0209 17.6868 91.0052 17.3668 90.9894C17.258 91.9551 16.9391 92.7496 16.4337 93.3816C15.8638 94.0943 15.1051 94.5401 14.2956 94.8152C12.7132 95.353 10.7878 95.2837 9.25064 95.1819C8.5649 95.1366 6.16419 94.8808 4.31167 94.2278C3.84271 94.0626 3.38568 93.864 2.99107 93.6234C2.60292 93.3867 2.22659 93.0801 1.9789 92.6783C1.71482 92.2498 1.61806 91.7433 1.76499 91.2057C1.90302 90.7007 2.23687 90.2369 2.6927 89.8051C3.35188 89.1806 4.19889 88.9914 4.93057 88.9371C5.45845 88.8979 6.02801 88.9266 6.49025 88.9498C6.65048 88.9579 6.79781 88.9653 6.92604 88.969C9.845 89.0536 12.7632 89.1945 15.6733 89.3386C15.5716 89.0818 15.429 88.8721 15.2599 88.6972C14.8634 88.287 14.2436 87.9895 13.4136 87.8235C12.9898 87.7388 12.715 87.3265 12.7997 86.9027ZM15.7995 90.9119C12.8223 90.7644 9.85287 90.6197 6.8807 90.5335C6.68645 90.5279 6.49804 90.5184 6.31309 90.509C5.88216 90.4873 5.46999 90.4665 5.04648 90.4979C4.46203 90.5413 4.04531 90.6797 3.76911 90.9413C3.42589 91.2665 3.30885 91.4936 3.27474 91.6184C3.24953 91.7106 3.25938 91.7728 3.31129 91.8571C3.3796 91.9679 3.52864 92.118 3.80586 92.287C4.07661 92.4521 4.42494 92.6083 4.83197 92.7517C6.48337 93.3338 8.71644 93.578 9.35399 93.6202C10.9151 93.7235 12.5433 93.7577 13.792 93.3333C14.398 93.1274 14.8742 92.8258 15.2113 92.4042C15.4917 92.0536 15.71 91.5774 15.7995 90.9119Z" fill="black" fill-opacity="0.5"/>
<path opacity="0.1" d="M4.15411 115.908C2.03421 113.788 22.4242 110.061 24.0269 109.777C26.621 109.777 36.507 109.29 37.8283 112.857C38.4851 114.63 29.5769 115.259 28.7952 115.374C25.4271 115.87 22.0177 115.954 18.6367 116.47C14.8378 117.051 7.37933 119.133 4.15411 115.908Z" fill="#FF006A"/>
<path fill-rule="evenodd" clip-rule="evenodd" d="M33.3019 109.28C34.5286 109.765 35.6509 110.517 36.0971 111.722C36.1933 111.982 36.2085 112.259 36.1307 112.529C36.0562 112.788 35.9102 112.994 35.7564 113.152C35.4615 113.455 35.0454 113.675 34.6362 113.843C33.7989 114.187 32.6528 114.447 31.5213 114.645C30.3762 114.846 29.1912 114.993 28.2493 115.097C27.736 115.153 27.3134 115.195 27.0018 115.226C26.7202 115.254 26.5292 115.273 26.444 115.285C24.7765 115.531 23.1022 115.676 21.453 115.819L21.3236 115.831C19.6246 115.978 17.9515 116.127 16.2898 116.381C15.7487 116.463 15.1053 116.583 14.3947 116.715C12.7374 117.023 10.7142 117.399 8.76933 117.533C6.00803 117.725 3.01239 117.474 1.13574 115.598C0.855302 115.317 0.676208 114.914 0.782911 114.453C0.872369 114.066 1.13484 113.781 1.36062 113.589C1.82359 113.193 2.55726 112.834 3.3852 112.505C5.07739 111.831 7.52224 111.148 10.0434 110.53C15.101 109.292 20.6187 108.286 21.4254 108.143L21.4931 108.131L21.5618 108.131C21.7836 108.131 22.0656 108.127 22.3964 108.123C23.9389 108.102 26.5408 108.066 29.025 108.338C30.5341 108.503 32.0543 108.786 33.3019 109.28ZM21.6316 109.696C20.6345 109.874 15.3012 110.854 10.4156 112.05C7.90397 112.665 5.54863 113.328 3.96383 113.959C3.24507 114.245 2.75162 114.499 2.47293 114.703C3.84918 115.873 6.08645 116.15 8.6612 115.972C10.5159 115.844 12.3629 115.5 13.9841 115.198C14.7286 115.059 15.4254 114.929 16.0535 114.833C17.7729 114.571 19.495 114.419 21.188 114.271L21.2989 114.262C22.9616 114.117 24.5954 113.975 26.2163 113.737C26.3255 113.721 26.5808 113.695 26.925 113.661C27.247 113.628 27.647 113.588 28.0781 113.541C29.0059 113.439 30.1534 113.296 31.251 113.104C32.3622 112.909 33.3688 112.671 34.0415 112.395C34.3051 112.287 34.4713 112.191 34.5663 112.119C34.3082 111.598 33.7144 111.126 32.7264 110.735C31.6677 110.316 30.3065 110.053 28.8547 109.894C26.4799 109.634 24.0085 109.667 22.4543 109.687C22.1396 109.692 21.8626 109.695 21.6316 109.696Z" fill="black" fill-opacity="0.5"/>
<path fill-rule="evenodd" clip-rule="evenodd" d="M171.52 90.3447C171.748 90.1847 172.054 90.1517 172.32 90.2849C172.355 90.3024 172.39 90.3195 172.426 90.3362C173.272 90.3343 174.124 90.349 174.983 90.3784C175.415 90.3933 175.753 90.7554 175.738 91.1874C175.735 91.2921 175.711 91.3913 175.67 91.4813C176.394 91.7827 177.118 92.1928 177.66 92.8293C177.937 93.1549 178.093 93.5906 177.939 94.0543C177.811 94.4397 177.515 94.6836 177.315 94.8198C176.965 95.058 176.497 95.2286 176.284 95.3061C176.25 95.3182 176.223 95.328 176.204 95.3355C173.521 96.3702 170.681 96.7733 167.848 96.7248C166.728 96.7056 165.614 96.6239 164.526 96.5441L164.429 96.537C163.302 96.4544 162.201 96.3758 161.1 96.3638C160.469 96.3569 159.808 96.3681 159.135 96.3795C157.994 96.3989 156.818 96.4188 155.686 96.3527C155.72 96.3547 155.163 96.3418 154.626 96.274C154.36 96.2403 154.047 96.1877 153.781 96.0994C153.651 96.0563 153.486 95.9897 153.335 95.8816C153.192 95.7782 152.953 95.5557 152.914 95.185C152.877 94.8346 153.053 94.5839 153.143 94.4761C153.245 94.3547 153.365 94.2636 153.457 94.2008C153.646 94.0718 153.875 93.9595 154.069 93.8728C154.423 93.7151 154.931 93.534 154.87 93.5586C160.357 91.3243 165.815 90.4395 171.52 90.3447ZM172.105 91.9029C166.524 91.9444 161.252 92.7377 155.979 94.8011C156.997 94.8516 157.986 94.8338 159.003 94.8156C159.689 94.8033 160.387 94.7907 161.117 94.7987C162.274 94.8114 163.422 94.8939 164.543 94.9761L164.623 94.9819C165.724 95.0626 166.799 95.1414 167.875 95.1599C170.544 95.2056 173.178 94.8251 175.641 93.8752C175.694 93.8547 175.742 93.8369 175.791 93.8191C175.874 93.7884 175.957 93.7579 176.063 93.7142C176.133 93.685 176.198 93.6558 176.257 93.6271C175.819 93.2326 175.195 92.9484 174.414 92.6814C174.18 92.6015 173.925 92.5214 173.66 92.4382C173.149 92.278 172.603 92.1065 172.105 91.9029ZM176.498 93.4753C176.499 93.4753 176.498 93.476 176.497 93.4773L176.498 93.4753Z" fill="black" fill-opacity="0.5"/>
<defs>
<linearGradient id="paint0_linear_1326_339376" x1="68.8199" y1="38.6157" x2="105.829" y2="69.9755" gradientUnits="userSpaceOnUse">
<stop stop-color="#FF6FAB"/>
<stop offset="1" stop-color="#CE0056"/>
</linearGradient>
<linearGradient id="paint1_linear_1326_339376" x1="117.511" y1="33.4424" x2="113.379" y2="117.091" gradientUnits="userSpaceOnUse">
<stop offset="0.150433" stop-color="#CE91AB"/>
<stop offset="1" stop-color="#CE0056"/>
</linearGradient>
<linearGradient id="paint2_linear_1326_339376" x1="55.2431" y1="53.3049" x2="65.4098" y2="98.6155" gradientUnits="userSpaceOnUse">
<stop stop-color="#FF6FAB" stop-opacity="0.35"/>
<stop offset="1" stop-color="#CE0056" stop-opacity="0.4"/>
</linearGradient>
<linearGradient id="paint3_linear_1326_339376" x1="55.2431" y1="53.3049" x2="65.4098" y2="98.6155" gradientUnits="userSpaceOnUse">
<stop stop-color="#FF6FAB" stop-opacity="0.35"/>
<stop offset="1" stop-color="#CE0056" stop-opacity="0.4"/>
</linearGradient>
<linearGradient id="paint4_linear_1326_339376" x1="123.617" y1="60.3059" x2="140.783" y2="81.5185" gradientUnits="userSpaceOnUse">
<stop stop-color="#FF6FAB"/>
<stop offset="1" stop-color="#CE0056"/>
</linearGradient>
</defs>
</svg>
