<svg width="18" height="18" viewBox="0 0 18 18" fill="none" xmlns="http://www.w3.org/2000/svg">
<g clip-path="url(#clip0_1239_339313)">
<path d="M11.4215 5.48916H11.9708L13.5356 3.92433L13.6126 3.26038C10.701 0.690566 6.25623 0.967465 3.68642 3.87906C2.97191 4.68788 2.45357 5.64987 2.17139 6.69107C2.34568 6.61939 2.53883 6.60807 2.72066 6.65787L5.84956 6.1418C5.84956 6.1418 6.00876 5.87848 6.091 5.89508C7.48305 4.36647 9.82576 4.18841 11.4328 5.48916H11.4215Z" fill="#B0B1C3"/>
<path d="M15.7641 6.69104C15.4042 5.3669 14.6664 4.1763 13.6395 3.26562L11.4439 5.46121C12.3712 6.21872 12.8993 7.36027 12.8767 8.55766V8.94773C13.9564 8.94773 14.8308 9.82295 14.8308 10.9019C14.8308 11.9816 13.9556 12.856 12.8767 12.856H8.96771L8.57764 13.2514V15.5956L8.96771 15.9857H12.8767C15.1175 16.003 17.1056 14.5506 17.7711 12.4109C18.435 10.2704 17.6202 7.94652 15.7641 6.69104Z" fill="#B0B1C3"/>
<path d="M5.05364 15.9636H8.96266V12.8347H5.05364C4.77524 12.8347 4.49985 12.7751 4.24634 12.6589L3.69707 12.8287L2.12169 14.3935L1.98438 14.9428C2.86788 15.6098 3.94605 15.9682 5.05364 15.9636Z" fill="#B0B1C3"/>
<path d="M5.05374 5.81277C2.8823 5.8256 0.959091 7.21613 0.266464 9.27364C-0.426163 11.3312 0.2642 13.6022 1.98521 14.9256L4.25246 12.6583C3.2686 12.2139 2.83175 11.0565 3.27615 10.0727C3.72055 9.08879 4.87794 8.65194 5.8618 9.09634C6.29488 9.29251 6.64195 9.63957 6.83812 10.0727L9.10538 7.8054C8.14038 6.54463 6.6412 5.80749 5.05374 5.81277Z" fill="#B0B1C3"/>
</g>
<defs>
<clipPath id="clip0_1239_339313">
<rect width="18" height="14.4856" fill="white" transform="translate(0 1.5)"/>
</clipPath>
</defs>
</svg>
