<svg width="32" height="32" viewBox="0 0 32 32" fill="none" xmlns="http://www.w3.org/2000/svg">
<path d="M18.7088 17.5769C18.6697 17.5692 18.6298 17.5661 18.5899 17.5679C18.5211 17.5715 18.4537 17.589 18.3917 17.6193C18.2716 17.6774 18.1784 17.7795 18.1317 17.9045C18.085 18.0295 18.0883 18.1677 18.141 18.2903L18.1374 18.2955L19.3234 21.1607C20.458 20.4367 21.319 19.3551 21.7703 18.087L18.7141 17.5705L18.7088 17.5769ZM13.9535 17.983C13.9278 17.87 13.8649 17.769 13.7749 17.696C13.6849 17.623 13.5731 17.5824 13.4573 17.5805C13.4231 17.5801 13.3889 17.5831 13.3553 17.5896L13.3502 17.5833L10.3205 18.0976C10.7755 19.3557 11.6329 20.4285 12.7598 21.1496L13.9339 18.3126L13.9247 18.3015C13.968 18.2011 13.9781 18.0895 13.9535 17.983ZM16.4908 19.0956C16.4465 19.0131 16.3807 18.9441 16.3004 18.8961C16.22 18.8481 16.1281 18.8228 16.0345 18.8229C15.9409 18.823 15.8491 18.8486 15.7688 18.8968C15.6886 18.945 15.623 19.0141 15.5789 19.0967H15.5764L14.0866 21.7907C15.1533 22.1539 16.3001 22.2129 17.3985 21.9611C17.6022 21.9147 17.8012 21.8591 17.9954 21.7942L16.5021 19.0954L16.4908 19.0956ZM21.2072 12.8374L18.9149 14.8891L18.9162 14.8957C18.8457 14.9572 18.7933 15.0367 18.7644 15.1257C18.7355 15.2146 18.7313 15.3098 18.7521 15.401C18.7729 15.4922 18.818 15.576 18.8827 15.6436C18.9473 15.7112 19.029 15.7601 19.1192 15.785L19.122 15.7974L22.0911 16.6527C22.2195 15.3187 21.9091 13.9793 21.2072 12.8377V12.8374ZM16.9485 13.0673C16.9528 13.1607 16.9823 13.2513 17.0339 13.3293C17.0856 13.4073 17.1573 13.4699 17.2417 13.5104C17.326 13.5509 17.4197 13.5678 17.5129 13.5593C17.606 13.5508 17.6952 13.5173 17.7708 13.4623L17.7798 13.466L20.2881 11.6876C19.3333 10.7524 18.0977 10.1568 16.7714 9.99233L16.9457 13.0665L16.9485 13.0673ZM14.2922 13.4735C14.3679 13.5285 14.4571 13.562 14.5502 13.5703C14.6434 13.5787 14.7371 13.5616 14.8213 13.521C14.9056 13.4803 14.9772 13.4176 15.0286 13.3394C15.08 13.2613 15.1093 13.1706 15.1133 13.0772L15.1261 13.0712L15.3004 9.99219C15.09 10.0175 14.8811 10.0535 14.6744 10.1001C13.5749 10.3472 12.5664 10.8968 11.7627 11.6868L14.2874 13.4764L14.2922 13.4735ZM12.9463 15.8C13.0367 15.7754 13.1187 15.7266 13.1835 15.659C13.2484 15.5915 13.2936 15.5075 13.3145 15.4162C13.3354 15.3249 13.3311 15.2296 13.302 15.1406C13.273 15.0515 13.2203 14.972 13.1496 14.9105L13.1521 14.8983L10.8472 12.8367C10.144 13.9812 9.8422 15.3274 9.98941 16.6625L12.944 15.81L12.9463 15.8ZM15.1851 16.7056L16.0353 17.1145L16.8831 16.7065L17.0937 15.7913L16.5069 15.0575H15.5626L14.9742 15.7901L15.1851 16.7056Z" fill="#326CE5"/>
<path d="M30.0917 18.5081L27.6689 7.98398C27.6037 7.71172 27.4789 7.45731 27.3035 7.23911C27.1282 7.02091 26.9065 6.84437 26.6546 6.7222L16.8473 2.03972C16.5931 1.91842 16.315 1.85547 16.0334 1.85547C15.7517 1.85547 15.4736 1.91842 15.2195 2.03972L5.41405 6.72471C5.1621 6.84679 4.9404 7.02329 4.76496 7.24147C4.58952 7.45965 4.46471 7.71407 4.39954 7.98635L1.98056 18.5102C1.92089 18.7762 1.9207 19.0521 1.98 19.3182C1.99746 19.3992 2.02027 19.4791 2.04828 19.5571C2.09562 19.6903 2.1583 19.8175 2.23505 19.9362C2.26829 19.987 2.30334 20.0363 2.34144 20.0842L9.12861 28.5227C9.15824 28.5594 9.19092 28.5929 9.22332 28.627C9.32982 28.7404 9.45007 28.84 9.58129 28.9236C9.74724 29.0281 9.9281 29.1067 10.1177 29.1568C10.2731 29.1995 10.4335 29.2216 10.5947 29.2226H10.7002L21.4787 29.2201C21.5442 29.2198 21.6097 29.216 21.6748 29.2086C21.7682 29.198 21.8607 29.1804 21.9514 29.156C22.0165 29.1389 22.0806 29.1184 22.1435 29.0945C22.1926 29.0758 22.2415 29.057 22.2888 29.0343C22.3596 29.0004 22.4283 28.9622 22.4945 28.92C22.6653 28.8126 22.8173 28.678 22.9447 28.5216L23.1516 28.2643L29.7295 20.0814C29.8555 19.9233 29.9546 19.7454 30.0226 19.555C30.051 19.4767 30.0743 19.3966 30.0922 19.3153C30.1516 19.0492 30.1516 18.7741 30.0917 18.5081ZM19.9192 22.6012C19.9467 22.6821 19.9794 22.7613 20.017 22.838C19.957 22.943 19.9406 23.0674 19.9715 23.1843C20.1142 23.5111 20.2885 23.8232 20.4919 24.1161C20.6057 24.2658 20.7108 24.4221 20.8066 24.5839C20.8302 24.6277 20.8611 24.6956 20.8835 24.7419C20.9258 24.8125 20.9528 24.8912 20.9628 24.9729C20.9728 25.0545 20.9656 25.1374 20.9417 25.2161C20.9178 25.2948 20.8776 25.3677 20.8239 25.43C20.7701 25.4923 20.7039 25.5426 20.6295 25.5778C20.5551 25.6129 20.4742 25.6321 20.392 25.6342C20.3097 25.6362 20.2279 25.621 20.1519 25.5895C20.0759 25.558 20.0073 25.511 19.9506 25.4514C19.8938 25.3918 19.8501 25.321 19.8224 25.2435C19.8 25.1976 19.7689 25.1365 19.7498 25.0931C19.6827 24.9172 19.6259 24.7376 19.5794 24.5551C19.4777 24.2138 19.3428 23.8833 19.1767 23.5682C19.1045 23.4707 18.9969 23.4055 18.8771 23.3864C18.8584 23.354 18.7888 23.2265 18.7516 23.1607C17.0057 23.8218 15.0775 23.8169 13.3351 23.1468L13.2023 23.3874C13.1074 23.4021 13.0193 23.4451 12.9493 23.5107C12.7491 23.8392 12.5961 24.1941 12.4948 24.5652C12.4488 24.7476 12.3923 24.9272 12.3254 25.1031C12.3066 25.1462 12.2752 25.2065 12.2528 25.2523L12.2518 25.2547C12.2241 25.3322 12.1805 25.4031 12.1237 25.4628C12.0669 25.5225 11.9983 25.5696 11.9221 25.6011C11.846 25.6325 11.7642 25.6477 11.6818 25.6456C11.5995 25.6436 11.5185 25.6242 11.4441 25.5889C11.3697 25.5536 11.3035 25.5031 11.2498 25.4406C11.1961 25.3781 11.1561 25.3051 11.1324 25.2262C11.1087 25.1474 11.1017 25.0644 11.1121 24.9827C11.1224 24.9009 11.1497 24.8223 11.1923 24.7518C11.2144 24.7052 11.244 24.6378 11.2674 24.5939C11.3631 24.4317 11.4681 24.275 11.5819 24.1249C11.789 23.8242 11.9669 23.5045 12.1132 23.17C12.1288 23.0566 12.1106 22.9412 12.0609 22.838L12.1677 22.5822C10.5613 21.6341 9.35739 20.1309 8.78303 18.3562L8.52728 18.3998C8.42805 18.3294 8.31107 18.2882 8.18961 18.2809C7.83966 18.3478 7.49705 18.4487 7.16661 18.582C6.99504 18.6591 6.8192 18.7264 6.63996 18.7836C6.59754 18.7953 6.53635 18.807 6.48795 18.8175C6.48406 18.8189 6.48072 18.8206 6.47683 18.8216C6.47383 18.822 6.47081 18.8223 6.46779 18.8224C6.38988 18.848 6.30749 18.8571 6.22587 18.8491C6.14426 18.841 6.06523 18.816 5.99383 18.7756C5.92244 18.7353 5.86026 18.6805 5.81127 18.6147C5.76228 18.5489 5.72757 18.4736 5.70934 18.3937C5.69112 18.3137 5.6898 18.2308 5.70546 18.1503C5.72111 18.0698 5.7534 17.9935 5.80027 17.9262C5.84713 17.8589 5.90753 17.8021 5.97759 17.7595C6.04766 17.7169 6.12586 17.6893 6.20717 17.6787L6.21565 17.6766L6.2208 17.6752C6.26989 17.6637 6.33275 17.6474 6.37753 17.6388C6.56425 17.6129 6.75231 17.5977 6.94076 17.5934C7.29619 17.5702 7.6485 17.5124 7.99269 17.4207C8.0947 17.3557 8.18089 17.2688 8.24496 17.1662L8.4907 17.0945C8.22405 15.2422 8.65058 13.3568 9.68851 11.7996L9.50035 11.6319C9.49349 11.5102 9.45263 11.3928 9.38242 11.2932C9.1121 11.0608 8.81973 10.8554 8.50947 10.6799C8.34195 10.5944 8.17948 10.4994 8.02287 10.3953C7.98727 10.3688 7.93998 10.3288 7.90132 10.2974L7.89256 10.2913C7.75906 10.1954 7.66893 10.0506 7.64189 9.88843C7.61484 9.72629 7.65306 9.56004 7.74821 9.426C7.80442 9.35719 7.87606 9.30259 7.95732 9.26664C8.03858 9.23068 8.12716 9.21439 8.2159 9.21907C8.36527 9.22548 8.50866 9.27958 8.62504 9.37343C8.66495 9.40472 8.71961 9.44658 8.75507 9.47704C8.89171 9.60626 9.02079 9.74324 9.14169 9.8873C9.38156 10.1508 9.64659 10.3903 9.93299 10.6024C10.0403 10.6588 10.1655 10.671 10.2816 10.6362C10.3515 10.6872 10.4221 10.7373 10.4933 10.7867C11.5247 9.69034 12.8602 8.92734 14.3284 8.59561C14.6779 8.51648 15.0325 8.46197 15.3895 8.43249L15.4035 8.18438C15.4946 8.10337 15.5607 7.99799 15.594 7.88066C15.6068 7.52456 15.5849 7.16807 15.5286 6.81621C15.4913 6.63182 15.4645 6.44544 15.4485 6.25799C15.447 6.21529 15.4493 6.15633 15.4499 6.10765C15.4499 6.10209 15.4485 6.09653 15.4485 6.09124C15.4402 6.00919 15.4491 5.9263 15.4748 5.84793C15.5005 5.76956 15.5423 5.69744 15.5976 5.63623C15.6529 5.57503 15.7204 5.52609 15.7958 5.49259C15.8711 5.45908 15.9527 5.44175 16.0351 5.44171C16.1176 5.44167 16.1992 5.45893 16.2746 5.49236C16.35 5.52579 16.4175 5.57467 16.4729 5.63582C16.5282 5.69697 16.5701 5.76905 16.5959 5.8474C16.6216 5.92575 16.6307 6.00863 16.6224 6.09069C16.6224 6.14214 16.6255 6.21029 16.6236 6.25757C16.6076 6.44499 16.5807 6.63134 16.5431 6.81566C16.4865 7.16757 16.4642 7.52416 16.4767 7.88038C16.4999 7.99946 16.5687 8.10476 16.6684 8.17381C16.6705 8.21623 16.6775 8.35781 16.6826 8.43582C18.5381 8.60457 20.2692 9.44104 21.5545 10.7899L21.7779 10.6303C21.8978 10.6509 22.0211 10.6375 22.1339 10.5917C22.4202 10.3793 22.6853 10.1395 22.9252 9.87575C23.0463 9.73162 23.1758 9.59464 23.3128 9.4655C23.3488 9.43462 23.4032 9.39318 23.4429 9.36175C23.5018 9.30368 23.5723 9.25864 23.6497 9.22956C23.7272 9.20048 23.8098 9.18801 23.8924 9.19295C23.975 9.19789 24.0556 9.22014 24.129 9.25825C24.2024 9.29636 24.267 9.34949 24.3185 9.41417C24.37 9.47885 24.4074 9.55366 24.4282 9.63372C24.4489 9.71378 24.4526 9.79731 24.439 9.8789C24.4254 9.96048 24.3948 10.0383 24.3492 10.1073C24.3036 10.1763 24.2439 10.2349 24.1742 10.2793C24.1348 10.3112 24.0828 10.3555 24.045 10.3836C23.888 10.4878 23.7252 10.5828 23.5573 10.6682C23.2471 10.8438 22.9547 11.0492 22.6843 11.2815C22.6056 11.3736 22.5661 11.4929 22.5742 11.6139C22.5415 11.6439 22.4268 11.7455 22.366 11.8006C23.4069 13.3522 23.8419 15.2318 23.5887 17.0829L23.8257 17.1519C23.8849 17.2585 23.9725 17.3466 24.0788 17.4064C24.4231 17.4982 24.7756 17.5562 25.1313 17.5797C25.3195 17.584 25.5074 17.599 25.6939 17.6247C25.7433 17.6338 25.8146 17.6535 25.865 17.6651C25.9463 17.6758 26.0245 17.7033 26.0946 17.746C26.1646 17.7886 26.225 17.8454 26.2718 17.9127C26.3187 17.9801 26.3509 18.0564 26.3665 18.1369C26.3822 18.2175 26.3808 18.3003 26.3625 18.3803C26.3443 18.4603 26.3095 18.5355 26.2605 18.6013C26.2115 18.667 26.1493 18.7218 26.0778 18.7621C26.0064 18.8025 25.9274 18.8274 25.8457 18.8354C25.7641 18.8434 25.6817 18.8343 25.6038 18.8086L25.5953 18.8075C25.5914 18.8066 25.5878 18.8045 25.5838 18.8034C25.5354 18.7929 25.4746 18.7824 25.4322 18.7712C25.253 18.7136 25.0772 18.6458 24.9058 18.5679C24.5751 18.4345 24.2321 18.3337 23.8819 18.2668C23.7606 18.263 23.6427 18.3068 23.5534 18.3888C23.4699 18.3729 23.3863 18.3583 23.3025 18.3448C22.735 20.1306 21.5309 21.6455 19.9192 22.6012Z" fill="#326CE5"/>
<path d="M31.371 18.7769L28.7277 7.29526C28.6566 6.99816 28.5205 6.72054 28.3291 6.48245C28.1377 6.24436 27.8958 6.05173 27.6209 5.91847L16.9216 0.810427C16.6443 0.678067 16.3409 0.609375 16.0336 0.609375C15.7263 0.609375 15.4229 0.678067 15.1455 0.810427L4.44715 5.92153C4.17228 6.05467 3.93038 6.24717 3.73892 6.48514C3.54746 6.72311 3.41122 7.00061 3.34002 7.29762L0.701305 18.7799C0.641785 19.0446 0.635666 19.3185 0.683305 19.5856C0.730945 19.8527 0.831386 20.1076 0.97875 20.3354C1.01505 20.3911 1.05357 20.445 1.09529 20.497L8.50021 29.7042C8.69429 29.9411 8.93821 30.1323 9.21462 30.2642C9.49103 30.3961 9.79312 30.4654 10.0994 30.4672L21.9741 30.4645C22.2803 30.4627 22.5824 30.3935 22.8588 30.2618C23.1352 30.1301 23.3792 29.9391 23.5734 29.7023L30.9757 20.4944C31.1653 20.2557 31.2992 19.9776 31.3675 19.6805C31.4359 19.3835 31.4371 19.0749 31.371 18.7773V18.7769ZM30.0919 19.3145C30.0741 19.3958 30.051 19.4759 30.0227 19.5541C29.9546 19.7446 29.8554 19.9225 29.7292 20.0807L23.1514 28.2633L22.9447 28.5208C22.8173 28.6773 22.665 28.8119 22.4941 28.9192C22.4282 28.9615 22.3597 28.9996 22.2891 29.0336C22.2416 29.0555 22.1931 29.0755 22.1438 29.0934C22.0808 29.1173 22.0166 29.138 21.9515 29.1552C21.8607 29.1797 21.7683 29.1974 21.6749 29.208C21.6098 29.2153 21.5443 29.2191 21.4788 29.2194L10.7003 29.2219H10.5946C10.4335 29.2209 10.2732 29.1988 10.1177 29.1562C9.92824 29.106 9.74747 29.0272 9.58162 28.9227C9.45031 28.8392 9.32996 28.7396 9.22337 28.6262C9.19097 28.592 9.15829 28.5585 9.12881 28.5219L2.3415 20.0833C2.30367 20.0356 2.26821 19.9862 2.23511 19.935C2.15836 19.8164 2.09568 19.6891 2.04834 19.5559C2.02032 19.4779 1.99751 19.398 1.98005 19.3169C1.92078 19.0508 1.92097 18.775 1.98061 18.509L4.39959 7.98491C4.4648 7.71268 4.58962 7.45832 4.76507 7.24019C4.94051 7.02206 5.16219 6.8456 5.41411 6.72354L15.2197 2.03897C15.4738 1.91767 15.7519 1.85472 16.0336 1.85472C16.3152 1.85472 16.5933 1.91767 16.8475 2.03897L26.6545 6.72146C26.9064 6.84362 27.1281 7.02017 27.3035 7.23837C27.4789 7.45657 27.6036 7.71097 27.6688 7.98324L30.0917 18.5072C30.1513 18.7731 30.1514 19.0489 30.0919 19.3148V19.3145Z" fill="white"/>
<path d="M25.8648 17.6648C25.8147 17.6532 25.7433 17.6335 25.6942 17.6244C25.5076 17.5986 25.3198 17.5835 25.1315 17.5791C24.7758 17.5558 24.4232 17.498 24.0787 17.4064C23.9724 17.3465 23.8848 17.2583 23.8256 17.1516L23.5886 17.0826C23.842 15.2316 23.407 13.3519 22.3662 11.8003C22.4269 11.7452 22.5417 11.6436 22.5741 11.6137C22.566 11.4928 22.6056 11.3735 22.6843 11.2813C22.9547 11.049 23.247 10.8436 23.5572 10.668C23.7251 10.5827 23.888 10.4877 24.0449 10.3835C24.0828 10.3554 24.1345 10.3109 24.1741 10.2792C24.2439 10.2347 24.3035 10.1761 24.3491 10.1072C24.3947 10.0382 24.4253 9.96039 24.439 9.87883C24.4526 9.79727 24.4489 9.71375 24.4282 9.6337C24.4074 9.55365 24.3701 9.47885 24.3186 9.41417C24.267 9.34948 24.2025 9.29634 24.1291 9.25821C24.0558 9.22008 23.9752 9.19779 23.8926 9.19281C23.8101 9.18782 23.7274 9.20025 23.65 9.22928C23.5726 9.25831 23.5021 9.30329 23.4432 9.36131C23.4031 9.39288 23.3486 9.43432 23.313 9.46519C23.1759 9.59433 23.0464 9.73131 22.9251 9.87545C22.6852 10.1392 22.4202 10.379 22.1338 10.5914C22.0211 10.6372 21.8978 10.6506 21.7778 10.63L21.5545 10.7896C20.2692 9.44073 18.538 8.60426 16.6826 8.43552C16.6771 8.3575 16.6705 8.21621 16.6684 8.17351C16.5687 8.10441 16.5 7.99911 16.4769 7.88007C16.4645 7.52385 16.4867 7.16727 16.5434 6.81535C16.5807 6.63107 16.6074 6.44477 16.6233 6.25741C16.6251 6.21012 16.6224 6.14142 16.6224 6.09038C16.6306 6.00832 16.6216 5.92544 16.5958 5.84709C16.57 5.76875 16.5281 5.69667 16.4728 5.63552C16.4175 5.57436 16.3499 5.52549 16.2745 5.49206C16.1991 5.45862 16.1176 5.44137 16.0351 5.44141C15.9526 5.44145 15.8711 5.45878 15.7957 5.49228C15.7204 5.52579 15.6529 5.57472 15.5976 5.63593C15.5423 5.69714 15.5005 5.76925 15.4748 5.84763C15.4491 5.926 15.4401 6.00889 15.4485 6.09094C15.4485 6.0965 15.4497 6.10179 15.4499 6.10735C15.4493 6.15602 15.4469 6.21499 15.4485 6.25754C15.4645 6.44504 15.4912 6.63147 15.5286 6.81591C15.5848 7.16776 15.6067 7.52426 15.5939 7.88035C15.5606 7.99758 15.4945 8.10286 15.4034 8.1838L15.3895 8.43218C15.0324 8.46166 14.6778 8.51617 14.3284 8.59531C12.8604 8.92707 11.525 9.69002 10.4937 10.7862C10.4223 10.737 10.3515 10.6868 10.2815 10.6357C10.1653 10.6705 10.0402 10.6583 9.93295 10.602C9.64655 10.3899 9.38153 10.1505 9.14164 9.88699C9.02088 9.74295 8.89193 9.60597 8.75544 9.47674C8.7197 9.44614 8.66505 9.40442 8.625 9.37243C8.50862 9.27858 8.36523 9.22448 8.21585 9.21807C8.1271 9.21342 8.03849 9.22976 7.95723 9.26576C7.87598 9.30176 7.80435 9.35642 7.74816 9.42528C7.65302 9.55932 7.61479 9.72557 7.64184 9.8877C7.66889 10.0498 7.75901 10.1947 7.89251 10.2906L7.90155 10.297C7.93994 10.3284 7.98722 10.3686 8.02282 10.3946C8.17943 10.4988 8.3419 10.5939 8.50943 10.6794C8.81965 10.855 9.11197 11.0605 9.38223 11.293C9.45243 11.3926 9.49334 11.5098 9.5003 11.6315L9.68819 11.7995C8.65036 13.3566 8.22392 15.2421 8.49065 17.0943L8.24492 17.1658C8.18079 17.2682 8.0946 17.355 7.99264 17.4199C7.64843 17.5117 7.29607 17.5698 6.94058 17.5933C6.75217 17.5976 6.56416 17.6127 6.37749 17.6386C6.33243 17.647 6.26985 17.6628 6.22075 17.675L6.21561 17.6762L6.20726 17.6787C6.12597 17.6894 6.0478 17.7169 5.97775 17.7595C5.90771 17.8022 5.84734 17.8589 5.80051 17.9262C5.75367 17.9936 5.7214 18.0699 5.70576 18.1504C5.69012 18.2309 5.69146 18.3137 5.70968 18.3937C5.72791 18.4736 5.76263 18.5489 5.81161 18.6147C5.86059 18.6804 5.92276 18.7352 5.99414 18.7756C6.06552 18.8159 6.14454 18.8409 6.22614 18.849C6.30774 18.857 6.39013 18.848 6.46802 18.8224L6.47678 18.821C6.48068 18.8202 6.48401 18.8182 6.48791 18.8175C6.5363 18.8064 6.59722 18.7948 6.63977 18.7833C6.81897 18.7261 6.99476 18.6587 7.16629 18.5815C7.49682 18.4482 7.83952 18.3474 8.18957 18.2804C8.31096 18.2878 8.42783 18.3291 8.52695 18.3996L8.78284 18.3558C9.35727 20.1305 10.5613 21.6337 12.1678 22.5817L12.0609 22.8376C12.1106 22.9407 12.1288 23.0562 12.1133 23.1696C11.967 23.5039 11.7891 23.8236 11.582 24.1241C11.4682 24.2743 11.3631 24.4308 11.2673 24.5931C11.244 24.6373 11.2143 24.705 11.1919 24.7513C11.1496 24.8219 11.1225 24.9005 11.1123 24.9821C11.1021 25.0637 11.1092 25.1466 11.133 25.2253C11.1568 25.3041 11.1968 25.377 11.2504 25.4393C11.3041 25.5017 11.3702 25.5521 11.4445 25.5874C11.5188 25.6226 11.5997 25.6419 11.6819 25.6441C11.7642 25.6462 11.8459 25.6311 11.922 25.5997C11.998 25.5683 12.0666 25.5214 12.1235 25.4619C12.1803 25.4024 12.224 25.3316 12.2518 25.2542L12.2528 25.2531V25.2517C12.275 25.2058 12.3066 25.1456 12.3254 25.1026C12.3922 24.9268 12.4488 24.7472 12.4948 24.5647C12.5961 24.1937 12.7491 23.8387 12.9492 23.5103C13.0192 23.4446 13.1074 23.4016 13.2022 23.3868L13.3353 23.1462C15.0777 23.8162 17.0058 23.8211 18.7515 23.16C18.7888 23.2264 18.8583 23.3536 18.8767 23.3857C18.9966 23.4048 19.1042 23.4702 19.1764 23.5679C19.3425 23.8829 19.4775 24.2134 19.5794 24.5547C19.6258 24.7371 19.6827 24.9167 19.7498 25.0926C19.7688 25.136 19.7998 25.1969 19.8224 25.2431C19.8501 25.3206 19.8938 25.3914 19.9505 25.4509C20.0073 25.5105 20.0758 25.5576 20.1519 25.589C20.2279 25.6205 20.3097 25.6357 20.3919 25.6337C20.4742 25.6317 20.5551 25.6125 20.6295 25.5773C20.7039 25.5422 20.7701 25.4918 20.8238 25.4295C20.8776 25.3672 20.9177 25.2944 20.9417 25.2157C20.9656 25.1369 20.9728 25.0541 20.9627 24.9724C20.9527 24.8907 20.9257 24.8121 20.8835 24.7415C20.8611 24.6952 20.8302 24.6274 20.807 24.5835C20.7112 24.4216 20.6061 24.2654 20.4923 24.1157C20.2889 23.8228 20.1146 23.5107 19.9719 23.1839C19.9409 23.067 19.9571 22.9427 20.0169 22.8376C19.9793 22.7608 19.9467 22.6817 19.9191 22.6008C21.5308 21.6451 22.7349 20.1303 23.3024 18.3445C23.3784 18.3566 23.5106 18.3797 23.5536 18.3885C23.6429 18.3065 23.7607 18.2628 23.8818 18.2665C24.232 18.3334 24.5748 18.4342 24.9054 18.5676C25.0769 18.6455 25.2528 18.7134 25.4322 18.7709C25.4746 18.782 25.5351 18.7926 25.5837 18.8033C25.5878 18.8044 25.5914 18.8061 25.5953 18.8072L25.6036 18.8085C25.6815 18.834 25.7638 18.8431 25.8454 18.835C25.927 18.8269 26.0059 18.8019 26.0773 18.7615C26.1486 18.7212 26.2107 18.6664 26.2597 18.6007C26.3087 18.535 26.3434 18.4598 26.3616 18.3799C26.3799 18.3 26.3813 18.2172 26.3657 18.1367C26.3501 18.0562 26.3179 17.9799 26.2711 17.9126C26.2244 17.8453 26.1641 17.7885 26.0941 17.7458C26.0241 17.7031 25.946 17.6755 25.8648 17.6648ZM20.2881 11.6866L17.7797 13.4648L17.7709 13.4607C17.6953 13.5158 17.6062 13.5494 17.5131 13.558C17.4199 13.5665 17.3261 13.5496 17.2418 13.5091C17.1574 13.4687 17.0856 13.4061 17.034 13.328C16.9824 13.25 16.9529 13.1595 16.9486 13.066L16.9458 13.0646L16.7716 9.99074C18.0979 10.1554 19.3335 10.7512 20.2881 11.6866ZM15.5628 15.0559H16.5068L17.0937 15.7897L16.8832 16.7048L16.0355 17.1128L15.1852 16.7039L14.9744 15.7884L15.5628 15.0559ZM14.6747 10.0984C14.8814 10.0518 15.0905 10.0159 15.3009 9.99074L15.1264 13.0693L15.1136 13.0754C15.1096 13.1689 15.0804 13.2596 15.029 13.3378C14.9776 13.416 14.906 13.4788 14.8217 13.5195C14.7375 13.5602 14.6438 13.5772 14.5506 13.5689C14.4574 13.5606 14.3682 13.5271 14.2925 13.4721L14.2876 13.4749L11.763 11.6847C12.5667 10.8949 13.5752 10.3454 14.6747 10.0984ZM10.8475 12.8353L13.1524 14.8968L13.1499 14.9094C13.2206 14.9708 13.2732 15.0503 13.3022 15.1394C13.3312 15.2284 13.3355 15.3237 13.3147 15.4149C13.2938 15.5062 13.2485 15.5901 13.1837 15.6577C13.1189 15.7253 13.0369 15.7741 12.9466 15.7987L12.9442 15.8087L9.98969 16.6612C9.84248 15.3261 10.1443 13.9798 10.8475 12.8353ZM13.9336 18.3119L12.7597 21.1485C11.633 20.4272 10.7757 19.3543 10.321 18.0962L13.3503 17.5816L13.3555 17.5884C13.3889 17.582 13.4229 17.579 13.457 17.5794C13.5419 17.5806 13.6253 17.6028 13.6996 17.6439C13.774 17.685 13.8371 17.7438 13.8833 17.8151C13.9295 17.8863 13.9575 17.9679 13.9648 18.0526C13.972 18.1372 13.9583 18.2224 13.9248 18.3004L13.9336 18.3119ZM17.3986 21.9597C16.3003 22.2116 15.1535 22.1527 14.0867 21.7896L15.5765 19.0955H15.5791C15.6234 19.0132 15.6891 18.9444 15.7693 18.8964C15.8496 18.8484 15.9413 18.8231 16.0347 18.823C16.1282 18.8229 16.22 18.8481 16.3003 18.8959C16.3806 18.9438 16.4465 19.0124 16.4909 19.0947H16.5021L17.9957 21.7932C17.8018 21.8579 17.6028 21.9132 17.3986 21.9597ZM19.3235 21.1599L18.1375 18.2943L18.1411 18.2892C18.0885 18.1666 18.0853 18.0285 18.132 17.9035C18.1787 17.7786 18.2718 17.6765 18.3919 17.6184C18.4538 17.5881 18.5212 17.5706 18.5901 17.567C18.6299 17.5652 18.6698 17.5681 18.709 17.5758L18.7141 17.5694L21.7704 18.0859C21.3193 19.3541 20.4583 20.4357 19.3235 21.1599ZM22.0914 16.6512L19.122 15.7959L19.1192 15.7834C19.0291 15.7585 18.9473 15.7097 18.8827 15.642C18.818 15.5744 18.7729 15.4906 18.7521 15.3994C18.7313 15.3082 18.7355 15.2131 18.7644 15.1241C18.7933 15.0351 18.8457 14.9556 18.9162 14.8941L18.9151 14.8881L21.2072 12.8367C21.9091 13.9782 22.2196 15.3173 22.0914 16.6512Z" fill="white"/>
</svg>
