<svg width="117" height="147" viewBox="0 0 117 147" fill="none" xmlns="http://www.w3.org/2000/svg">
<path fill-rule="evenodd" clip-rule="evenodd" d="M117 0H0V135.975C0 142.064 4.91087 147 10.9687 147H106.031C112.089 147 117 142.064 117 135.975V0Z" fill="#878EDE"/>
<path d="M17.7266 26.6445C17.7266 22.2263 21.3083 18.6445 25.7266 18.6445H27.4538C31.8721 18.6445 35.4538 22.2263 35.4538 26.6445V59.8135H17.7266V26.6445Z" fill="#5A44BA"/>
<path d="M41.3633 130.388V112.744H91.2724C95.6906 112.744 99.2724 116.326 99.2724 120.744V122.388C99.2724 126.806 95.6907 130.388 91.2724 130.388H41.3633Z" fill="white"/>
<path d="M17.6992 60H35.3992V122.8C35.3992 127.218 31.8175 130.8 27.3992 130.8H25.6992C21.2809 130.8 17.6992 127.218 17.6992 122.8V60Z" fill="white"/>
</svg>
