<svg width="280" height="247" viewBox="0 0 280 247" fill="none" xmlns="http://www.w3.org/2000/svg">
<g clip-path="url(#clip0_513_379765)">
<path fill-rule="evenodd" clip-rule="evenodd" d="M134.429 67.2459C135.814 68.2183 136.897 70.1104 138.727 68.1333C140.696 69.2757 142.028 70.9961 143.598 72.4462C146.493 75.1152 149.41 77.7672 152.327 80.4158C153.413 81.4001 154.561 82.3181 155.611 83.3381C156.566 84.2663 156.617 85.5923 156.962 86.7891C157.086 87.2294 157.258 87.8108 157.6 88.0148C161.083 90.0973 163.773 93.1301 166.922 95.607C170.621 98.5174 174.401 101.324 178.173 104.141C180.313 105.739 182.506 107.284 184.682 108.836C186.134 109.87 187.662 110.807 189.046 111.925C190.515 113.105 191.91 112.638 193.312 111.973C195.446 110.961 196.695 109.129 197.65 107.065C197.915 106.49 198.096 105.873 198.275 105.263C199.032 102.667 198.72 101.914 196.584 100.301C192.575 97.2713 188.597 94.2045 184.633 91.1173C180.313 87.7581 176.003 84.3887 171.745 80.9581C170.51 79.9602 169.35 78.8297 168.365 77.5938C167.632 76.6758 166.784 76.2576 165.738 76.4055C163.71 76.6877 162.243 75.8428 160.774 74.5644C157.753 71.9379 154.631 69.4253 151.516 66.9144C150.234 65.8808 148.847 64.9679 147.503 64.0091C146.044 62.967 144.86 61.743 144.017 60.0974C143.526 59.1403 142.443 58.4756 141.737 57.7888C142.579 54.7832 143.582 51.9612 144.115 49.0559C144.509 46.8969 144.435 44.6257 144.326 42.4089C144.11 37.8835 142.559 33.7559 140.283 29.8527C138.567 26.91 136.414 24.36 133.866 22.1126C133.77 22.0293 133.704 21.9086 133.601 21.8406C130.162 19.5609 126.974 16.9157 123.165 15.2072C121.07 14.2705 118.922 13.9288 116.653 14.0121C113.614 14.1243 110.591 13.8625 107.552 14.6904C104.618 15.4945 101.991 16.9004 99.308 18.1771C96.2237 19.6408 93.6461 21.8185 91.7509 24.7102C91.0583 25.771 90.4527 26.8947 89.7721 27.964C87.6619 31.2739 87.3037 35.1023 86.5753 38.8083C85.84 42.5177 85.7854 46.2934 86.5156 49.9909C87.2593 53.7904 88.4688 57.4165 91.0976 60.502C93.0457 62.7885 94.9597 65.041 97.3718 66.8549C99.7327 68.6246 102.327 69.971 105.099 70.9043C109.564 72.4105 114.2 72.7556 118.881 72.4989C119.956 72.4394 121.032 72.2388 122.08 71.977C124.053 71.4891 126.027 70.9876 127.957 70.3535C129.337 69.8979 130.655 69.2468 131.972 68.6212C132.818 68.2183 133.617 67.7015 134.429 67.2459ZM157.407 85.0721C161.934 84.3836 163.783 81.3406 164.536 77.366C165.931 77.2589 167.011 77.6958 167.924 78.5696C168.565 79.1901 169.133 79.8871 169.81 80.4651C171.745 82.1158 173.693 83.7563 175.677 85.3458C179.544 88.4568 183.416 91.5576 187.33 94.6057C190.143 96.7936 193.039 98.8761 195.873 101.033C197.476 102.257 197.783 103.111 197.166 104.994C196.794 106.128 196.217 107.198 195.701 108.28C194.969 109.802 193.725 110.774 192.128 111.218C191.571 111.38 190.813 111.391 190.324 111.135C188.689 110.293 187.069 109.385 185.561 108.338C182.371 106.128 179.194 103.893 176.132 101.516C171.61 98.0108 167.19 94.3694 162.738 90.7807C162.047 90.2248 161.412 89.6009 160.725 89.0382C159.452 87.9978 158.084 87.0373 157.407 85.0721ZM87.0376 45.9058C87.1314 44.4489 87.2354 42.9937 87.3071 41.5334C87.5578 36.175 89.071 31.1634 91.8584 26.6091C93.4756 23.9656 95.4271 21.4972 98.3834 20.0913C100.105 19.2753 101.804 18.3998 103.469 17.475C106.143 15.9858 109.049 15.384 112.054 15.163C113.579 15.0508 115.118 14.9573 116.643 15.0134C118.6 15.0763 120.584 15.0542 122.421 15.9875C125.268 17.4393 127.936 19.1359 130.558 20.9685C134.604 23.7888 137.933 27.1701 140.145 31.6054C142.247 35.8197 143.526 40.238 143.494 44.9742C143.461 49.3058 142.325 53.3807 140.379 57.2363C139.864 58.2563 139.263 59.2338 138.714 60.2368C136.135 64.9526 132.214 67.9786 127.064 69.4542C124.988 70.0492 122.892 70.6 120.804 71.1542C120.188 71.3157 119.548 71.5486 118.931 71.5214C116.403 71.399 113.88 71.1321 111.346 71.0199C107.02 70.8295 103.069 69.3335 99.4837 67.1286C95.7103 64.8081 92.7181 61.5101 90.3999 57.7378C88.1924 54.1457 87.2815 50.115 87.0376 45.9058ZM143.668 62.1544C143.966 62.3499 144.403 62.5981 144.797 62.9075C148.458 65.7686 152.127 68.611 155.745 71.5214C157.719 73.1075 159.626 74.7854 161.516 76.4701C162.847 77.655 163.171 79.0337 162.502 80.3988C161.897 81.6296 160.938 82.5595 159.735 83.1987C158.616 83.7937 157.612 83.707 156.583 82.8111C154.959 81.3865 153.209 80.1064 151.518 78.7549C151.066 78.3996 150.621 78.0392 150.21 77.6431C147.102 74.6307 144 71.6183 140.916 68.5804C140.483 68.1537 140.164 67.6097 139.881 67.234C141.208 65.449 142.417 63.8289 143.668 62.1544ZM135.71 66.4945C137.596 63.8306 139.394 61.2925 141.198 58.7459C142.898 60.1841 142.851 60.2334 142.187 61.9912C141.337 64.2386 139.5 65.6122 137.808 67.1031C136.989 67.8239 136.701 67.6743 135.71 66.4945Z" fill="black"/>
<path fill-rule="evenodd" clip-rule="evenodd" d="M89.1525 43.2792C89.0655 46.7829 89.8434 50.1234 91.058 53.3483C92.972 58.4279 96.5356 62.173 101.101 64.9814C104.161 66.8616 107.448 68.2148 111.071 68.6228C111.757 68.6993 112.424 68.9645 113.098 69.1498C116.095 69.9607 119.053 69.4728 121.984 68.8302C124.099 68.3678 126.228 67.8833 128.246 67.1302C129.635 66.6049 131.116 65.8399 132.078 64.7621C134.316 62.2614 136.578 59.6842 138.25 56.8027C140.416 53.0695 141.893 49.0473 141.259 44.4743C140.761 40.8669 140.3 37.2782 138.562 34.0397C137.426 31.9232 136.155 29.8492 134.688 27.9503C131.682 24.0709 127.76 21.1758 123.422 19.0083C119.981 17.2913 116.15 16.6606 112.274 17.2743C109.71 17.6789 107.124 18.1396 104.654 18.9131C101.003 20.0521 97.9088 22.1074 95.5428 25.215C93.2518 28.2274 91.6755 31.6155 90.0669 34.9917C89.8519 35.4439 89.7206 35.9607 89.6762 36.4554C89.4732 38.73 89.3231 41.0046 89.1525 43.2792ZM90.3159 40.9451C90.3159 40.0594 90.2289 39.1601 90.3381 38.2846C90.4626 37.2918 90.5906 36.2378 91.0222 35.3538C92.4261 32.4587 93.61 29.4718 95.6178 26.8504C97.3595 24.5741 99.3452 22.6752 101.715 21.1571C102.663 20.5485 103.774 20.1354 104.867 19.8345C106.578 19.3653 108.368 19.163 110.072 18.6734C113.837 17.5956 117.503 17.9866 121.151 19.1613C124.169 20.1354 126.69 21.9323 129.089 23.9315C129.967 24.6625 130.972 25.2745 131.752 26.099C135.747 30.3269 138.848 35.0359 139.761 40.94C140.245 44.0833 140.529 47.213 139.689 50.3206C138.383 55.1571 135.669 59.1861 132.34 62.8666C130.445 64.961 128.245 66.4417 125.396 66.8854C124.582 67.0129 123.804 67.3291 123.002 67.5263C119.391 68.4154 115.783 69.177 112.121 67.7422C111.653 67.562 111.128 67.5263 110.621 67.443C106.727 66.8055 103.137 65.3894 99.9798 63.0264C96.5816 60.4781 93.6697 57.4555 92.0662 53.4503C90.4695 49.4502 89.7701 45.2716 90.3159 40.9451Z" fill="black"/>
<path fill-rule="evenodd" clip-rule="evenodd" d="M100.129 26.578C98.45 27.3345 98.5131 28.669 98.4602 29.8131C98.3732 31.6508 98.496 33.497 98.5472 35.3347C98.5694 36.1575 98.7894 37.0041 98.6461 37.7929C98.4261 39.022 99.1528 39.9825 99.3455 41.0858C99.4667 41.7845 100.151 41.9987 101.162 41.7165C101.295 40.5928 101.556 39.3586 101.568 38.1227C101.604 35.0763 101.478 32.0265 101.512 28.9784C101.529 27.8207 100.743 27.3481 100.129 26.578ZM100.461 40.0828C100.282 40.0777 100.101 40.0709 99.9204 40.0658C99.697 38.1448 99.1613 36.1949 99.3353 34.3113C99.5127 32.4515 98.5796 30.4455 99.9375 28.5296C100.185 28.8339 100.506 29.0396 100.511 29.2606C100.669 32.8731 101.101 36.4907 100.461 40.0828Z" fill="black"/>
<path fill-rule="evenodd" clip-rule="evenodd" d="M132.242 43.6821C131.291 44.4743 130.64 45.1152 130.601 46.0451C130.481 48.6257 130.445 51.2131 130.396 53.7954C130.391 54.1065 130.467 54.4261 130.546 54.7287C130.737 55.4682 131.15 56.0241 131.987 55.9782C133.019 55.9255 132.912 55.084 132.903 54.4193C132.88 51.3236 132.837 48.2245 132.762 45.1322C132.748 44.7378 132.486 44.3468 132.242 43.6821ZM131.658 47.6975C132.209 50.0282 132.387 52.3572 131.677 54.6828C130.601 52.3487 131.498 50.0265 131.658 47.6975Z" fill="black"/>
<path d="M70.9954 59.0275C71.1794 60.1891 71.344 60.9614 71.6744 62.9911" stroke="black" stroke-linecap="round"/>
<path d="M73.087 46.7994C73.5875 44.7994 73.587 45.2998 74.4323 43.0324" stroke="black" stroke-linecap="round"/>
</g>
<ellipse opacity="0.5" rx="138.325" ry="61.6957" transform="matrix(-1 0 -0.0110309 -0.999939 140 184.692)" fill="url(#paint0_radial_513_379765)" fill-opacity="0.5"/>
<path d="M181.509 164.393C191.195 163.125 204.378 149.591 209.759 142.983C204.916 136.64 186.352 131.09 186.352 131.09C192.002 125.538 197.652 106.507 170.209 115.23C155.919 119.771 169.402 135.847 175.859 134.261C174.245 140.34 171.016 154.085 171.016 160.429C171.016 168.358 169.402 165.979 181.509 164.393Z" fill="white"/>
<path d="M179.688 112.035C184.564 111.941 188.467 114.753 190.642 119.027C192.196 122.081 191.192 124.387 189.322 126.891C186.635 130.486 182.529 133.07 178.017 133.7C173.97 134.265 170.442 133.937 167.537 130.883C165.083 128.302 163.212 124.083 164.072 120.507C165.039 116.479 169.796 114.026 173.479 113.059C178.401 111.766 183.526 112.615 188.187 114.447C191.674 115.817 195.701 118.436 195.81 122.523C195.919 126.657 192.308 129.063 189.342 131.37" stroke="black" stroke-linecap="round" stroke-linejoin="round"/>
<path d="M186.002 131.005C190.286 131.088 211.414 140.609 209.168 143.368C201.302 153.027 193.022 160.016 181.546 164.566C175.75 166.865 168.657 168.748 170.488 159.753C175.429 135.483 174.862 140.49 175.976 132.464" stroke="black" stroke-linecap="round" stroke-linejoin="round"/>
<path d="M192.872 134.106C195.852 132.837 197.419 130.348 199.37 127.793C201.03 125.618 202.958 123.282 203.743 120.608C204.239 118.922 204.218 116.918 204.197 115.177C204.138 110.131 201.252 105.891 198.153 102.085C197.853 101.717 196.771 99.8564 196.771 101.092C196.771 101.734 197.196 101.89 197.699 102.186" stroke="black" stroke-linecap="round" stroke-linejoin="round"/>
<path d="M178.019 139.578C168.547 143.116 158.891 146.35 149.221 149.316C146.574 150.127 143.64 150.866 140.835 150.866C140.279 150.866 139.419 150.653 139.896 149.934C140.702 148.72 142.764 148.01 144.043 147.461C145.577 146.803 147.224 146.081 148.86 145.708C149.486 145.565 151.307 145.048 151.902 145.526C153.159 146.536 149.868 148.333 149.282 148.515C148.724 148.689 147.199 149.379 147.199 148.333C147.199 147.86 148.143 146.403 148.643 147.238C149.532 148.724 146.599 148.417 146.271 149.062" stroke="black" stroke-linecap="round" stroke-linejoin="round"/>
<path d="M200.114 105.286C199.562 104.451 198.875 102.868 197.782 102.571C196.992 102.356 194.049 101.768 193.471 102.591C192.786 103.566 195.332 105.352 195.936 105.641C196.843 106.076 197.917 106.806 198.989 106.543C200.063 106.279 199.314 104.54 198.958 104.05C198.182 102.982 197.116 102.123 195.885 101.639C195.098 101.329 195.227 101.809 195.575 102.368C195.921 102.924 196.318 103.459 196.679 104.01C197.012 104.519 197.88 104.478 198.443 104.557" stroke="black" stroke-linecap="round" stroke-linejoin="round"/>
<path d="M179.319 122.98C171.892 128.816 165.923 127.691 164.475 126.435" stroke="black" stroke-linecap="round" stroke-linejoin="round"/>
<path d="M53.7965 158.865C57.5669 154.755 66.1143 143.305 73.894 136.822L91.5112 126.541C91.5112 126.541 79.2504 119.157 91.793 108.287C97.5614 103.288 107.37 102.204 111.334 108.727C119.485 122.138 105.668 128.28 105.668 128.28C96.5847 141.36 108.24 165.36 106.958 167.293C105.675 169.225 69.9062 171.294 53.7965 158.865Z" fill="white"/>
<path d="M78.4324 124.504C78.951 125.542 82.9705 129.691 84.9154 131.636L86.8603 132.932L90.1019 130.339C88.5892 129.475 85.1747 127.227 83.6188 125.153C81.6739 122.559 81.6739 119.318 81.6739 116.725C81.6739 114.65 83.4027 108.081 84.2671 105.055C83.4027 104.839 81.0256 105.833 78.4324 111.538C75.1908 118.67 77.7841 123.208 78.4324 124.504Z" fill="white"/>
<path d="M87.5098 129.043C83.62 127.098 81.2764 122.454 81.45 119.399C81.6395 116.063 83.0821 113.003 84.1512 109.891C84.4878 108.911 85.7158 106.199 84.8446 105.163C84.2608 104.469 82.5932 106.222 82.2874 106.532C79.4277 109.429 77.7087 113.496 77.272 117.517C76.6679 123.08 79.6119 127.612 84.1062 130.501" stroke="black" stroke-linecap="round" stroke-linejoin="round"/>
<path d="M90.8091 126.945C90.7248 127.327 90.629 127.87 90.4365 128.206C61.8378 135.737 57.9451 161.388 57.3002 162.317" stroke="black" stroke-linecap="round" stroke-linejoin="round"/>
<path d="M55.3554 161.02C62.4944 166.714 96.8629 173.152 110.461 168.8" stroke="black" stroke-linecap="round" stroke-linejoin="round"/>
<path d="M104.625 129.902C97.4944 142.868 101.384 155.834 109.812 168.8" stroke="black" stroke-linecap="round" stroke-linejoin="round"/>
<path d="M91.4718 108.982C90.032 109.92 88.169 111.145 86.8577 112.353C85.3024 113.786 84.8845 116.736 85.2555 118.752C86.1581 123.655 92.5059 126.836 96.7751 128.149C98.8204 128.779 101.2 129.299 103.353 129.102C105.549 128.901 107.569 127.801 109.306 126.504C111.755 124.675 113.207 122.438 114.127 119.53C114.943 116.947 115.282 114.672 113.896 112.244C109.619 104.752 96.9735 103.843 90.3568 108.31C86.5473 110.883 83.2016 115.642 84.7835 120.454C86.3887 125.336 92.0156 128.924 96.5754 129.776" stroke="black" stroke-linecap="round" stroke-linejoin="round"/>
<path d="M100.367 118.104C103.716 121.911 112.793 119.966 109.973 115.748" stroke="black" stroke-linecap="round" stroke-linejoin="round"/>
<path d="M106.958 145.898C112.793 142.656 120.573 140.712 121.221 140.712C122.518 141.144 123.814 142.397 118.628 143.953C112.145 145.898 106.31 152.381 104.365 155.623C102.42 158.864 99.827 160.809 97.8821 161.457C96.3261 161.976 95.9371 159.945 95.9371 158.864C97.666 155.623 102.291 148.491 106.958 145.898Z" fill="white"/>
<path d="M134.187 142.656L132.891 139.415C134.836 140.063 141.319 140.063 143.912 139.415C145.986 138.896 151.259 135.741 153.636 134.228C155.365 133.58 158.693 132.802 158.175 134.877C157.526 137.47 150.395 140.712 147.153 142.656C144.56 144.212 137.429 143.305 134.187 142.656Z" fill="white"/>
<path d="M150.828 185.02C149.9 187.146 116.922 194.588 98.8984 185.145C106.309 169.885 112.735 153.568 119.83 138.604C119.83 138.604 106.474 133.462 116.938 120.578C121.751 114.653 131.222 111.883 136.259 117.618C146.615 129.41 134.074 137.858 134.074 137.858C137.989 150.637 151.755 182.894 150.828 185.02Z" fill="white"/>
<path d="M119.209 139.124C119.193 139.515 119.193 140.066 119.061 140.43C118.203 142.81 115.28 149.058 114.807 150.084C110.026 160.446 105.029 170.707 100.255 181.071C99.5474 182.606 99.0932 184.152 98.7715 185.801" stroke="black" stroke-linecap="round" stroke-linejoin="round"/>
<path d="M97.5351 183.918C105.711 191.28 138.32 194.115 150.759 183.725" stroke="black" stroke-linecap="round" stroke-linejoin="round"/>
<path d="M134.499 139.783C134.577 140.863 134.768 141.469 135.154 142.643C137.854 150.869 140.905 158.984 143.839 167.128C145.37 171.374 146.948 175.625 148.271 179.943C149.004 182.336 149.707 184.733 150.486 187.112C150.857 188.244 151.391 189.323 151.601 190.498" stroke="black" stroke-linecap="round" stroke-linejoin="round"/>
<path d="M116.742 121.319C115.487 122.492 113.865 124.022 112.784 125.44C111.501 127.12 111.601 130.098 112.317 132.019C114.057 136.691 120.861 138.721 125.293 139.274C127.417 139.538 129.851 139.638 131.937 139.07C134.065 138.49 135.863 137.056 137.348 135.477C139.442 133.251 140.484 130.796 140.884 127.772C141.24 125.087 141.179 122.787 139.392 120.637C133.879 114.001 121.268 115.302 115.528 120.851C112.223 124.045 109.754 129.314 112.148 133.777C114.576 138.306 120.741 140.864 125.379 140.91" stroke="black" stroke-linecap="round" stroke-linejoin="round"/>
<path d="M119.275 140.712C114.737 142.656 108.233 144.784 104.364 148.491C103.228 149.58 93.3431 158.864 97.8815 161.457C102.42 161.457 103.392 155.623 106.309 152.381C109.81 148.491 114.089 145.25 117.979 143.953" stroke="black" stroke-linecap="round" stroke-linejoin="round"/>
<path d="M135.484 142.908C143.264 145.25 153.575 140.686 156.23 136.822C160.12 132.932 156.638 131.066 151.043 135.525C147.048 138.709 141.967 141.36 134.187 139.415" stroke="black" stroke-linecap="round" stroke-linejoin="round"/>
<defs>
<radialGradient id="paint0_radial_513_379765" cx="0" cy="0" r="1" gradientUnits="userSpaceOnUse" gradientTransform="translate(138.325 61.6957) rotate(90) scale(61.6957 138.325)">
<stop stop-color="#C4C4C4" stop-opacity="0.5"/>
<stop offset="1" stop-color="#C4C4C4" stop-opacity="0"/>
</radialGradient>
<clipPath id="clip0_513_379765">
<rect width="132" height="134" fill="white" transform="translate(64.9952)"/>
</clipPath>
</defs>
</svg>
