<svg width="125" height="122" viewBox="0 0 125 122" fill="none" xmlns="http://www.w3.org/2000/svg">
<path fill-rule="evenodd" clip-rule="evenodd" d="M77.2102 16.0036C77.3977 15.9763 77.5718 16.1062 77.5991 16.2937C79.2267 27.4726 78.83 38.6869 78.4343 49.874C78.3591 52 78.2839 54.125 78.2227 56.2486C78.1291 59.493 78.1504 62.7397 78.1718 65.9917C78.181 67.3946 78.1902 68.7985 78.1902 70.2036C78.1902 70.4239 78.2159 70.7033 78.246 71.0311C78.2495 71.0687 78.253 71.1069 78.2565 71.1457C78.2901 71.5135 78.3246 71.9253 78.3219 72.3233C78.3193 72.7185 78.2804 73.1258 78.1527 73.4788C78.0225 73.839 77.7913 74.1623 77.4005 74.3384C77.2278 74.4162 77.0247 74.3392 76.9468 74.1665C76.869 73.9937 76.946 73.7906 77.1188 73.7128C77.2953 73.6333 77.4213 73.4838 77.5076 73.2454C77.5964 72.9997 77.6335 72.6826 77.6359 72.3188C77.6383 71.958 77.6069 71.5764 77.5733 71.208C77.5697 71.1688 77.5661 71.1297 77.5625 71.0906C77.533 70.7715 77.5041 70.4578 77.5041 70.2036C77.5041 68.8083 77.4949 67.4099 77.4857 66.0099C77.4644 62.7523 77.4429 59.4858 77.5369 56.2288C77.5984 54.0957 77.6737 51.9644 77.7489 49.8348C78.1443 38.6473 78.538 27.5047 76.9202 16.3925C76.8929 16.205 77.0227 16.0309 77.2102 16.0036Z" fill="#B0B1C4"/>
<path fill-rule="evenodd" clip-rule="evenodd" d="M72.6343 46.5062C72.7812 46.3866 72.9973 46.4087 73.1169 46.5557C74.0619 47.7164 74.7799 48.6269 75.4099 49.4258C76.9423 51.369 77.9536 52.6514 80.443 55.2675C80.5736 55.4048 80.5682 55.6219 80.431 55.7525C80.2937 55.8831 80.0766 55.8777 79.946 55.7405C77.4337 53.1003 76.4003 51.79 74.8591 49.8357C74.2305 49.0386 73.5173 48.1343 72.5848 46.9888C72.4652 46.8419 72.4874 46.6258 72.6343 46.5062Z" fill="#B0B1C4"/>
<path fill-rule="evenodd" clip-rule="evenodd" d="M74.6643 44.4141C74.7977 44.2795 75.0149 44.2785 75.1494 44.4119C76.2487 45.501 77.178 46.4729 78.077 47.4129C79.6016 49.0073 81.0387 50.5101 83.0687 52.3386C83.2095 52.4654 83.2208 52.6823 83.094 52.8231C82.9672 52.9639 82.7503 52.9752 82.6095 52.8484C80.5648 51.0065 79.0949 49.47 77.5551 47.8604C76.6584 46.923 75.738 45.9609 74.6665 44.8992C74.532 44.7659 74.531 44.5487 74.6643 44.4141Z" fill="#B0B1C4"/>
<path fill-rule="evenodd" clip-rule="evenodd" d="M76.8089 7.00262C76.9969 6.97942 77.1682 7.11305 77.1914 7.30108C77.2518 7.79143 77.3221 8.28177 77.3925 8.77374C77.5861 10.1254 77.7814 11.4893 77.7814 12.8996C77.7814 13.0891 77.6278 13.2427 77.4384 13.2427C77.2489 13.2427 77.0953 13.0891 77.0953 12.8996C77.0953 11.542 76.9103 10.2497 76.7191 8.91418C76.6472 8.41248 76.5745 7.90469 76.5104 7.38508C76.4872 7.19704 76.6209 7.02581 76.8089 7.00262Z" fill="#B0B1C4"/>
<path fill-rule="evenodd" clip-rule="evenodd" d="M43.6145 26.9905C43.8033 26.9745 43.9692 27.1147 43.9852 27.3034C44.1357 29.0856 44.5829 31.5537 45.0925 34.3667L45.1053 34.4376C45.6187 37.2715 46.1906 40.4375 46.5708 43.5512C46.9509 46.6629 47.142 49.7397 46.8877 52.3949C46.6344 55.0409 45.9335 57.3276 44.4743 58.7967C44.2281 59.0445 43.9235 59.1385 43.6091 59.1057C43.5787 59.1026 43.5484 59.0983 43.5183 59.0929C43.5648 59.9201 43.5881 60.8165 43.596 61.7553C43.6122 63.6849 43.5627 65.8096 43.5094 67.9058C43.505 68.0785 43.5006 68.251 43.4962 68.4232C43.447 70.3434 43.3989 72.224 43.3989 73.9017V84.956C43.3989 85.1813 43.3942 85.391 43.3897 85.5886C43.3681 86.5495 43.353 87.2211 43.9191 87.9859C44.0318 88.1382 43.9997 88.353 43.8474 88.4657C43.6951 88.5784 43.4803 88.5464 43.3676 88.3941C42.651 87.4258 42.6762 86.495 42.7027 85.5194C42.7077 85.3334 42.7128 85.1458 42.7128 84.956V73.9017C42.7128 72.2147 42.7612 70.3252 42.8103 68.4073C42.8147 68.2345 42.8192 68.0615 42.8236 67.8883C42.8769 65.791 42.926 63.6774 42.9099 61.761C42.901 60.6897 42.8716 59.6848 42.812 58.7824C42.7955 58.7711 42.7791 58.7597 42.7628 58.7481C42.2427 58.3775 41.7411 57.7621 41.3699 57.1215C41.0018 56.486 40.7283 55.7677 40.7232 55.1776C40.7206 54.879 40.7869 54.5709 40.9928 54.3341C41.2059 54.089 41.5176 53.9783 41.8809 53.9783C41.9347 53.9783 41.9878 53.991 42.0358 54.0153C42.4069 54.203 42.6627 54.5861 42.8489 55.0342C43.0388 55.4913 43.1799 56.0738 43.286 56.7422C43.3637 57.2324 43.424 57.7774 43.4699 58.366C43.5479 58.3984 43.6184 58.4169 43.6802 58.4233C43.7988 58.4357 43.895 58.4063 43.9875 58.3132C45.2789 57.0131 45.9566 54.9211 46.2048 52.3295C46.452 49.7471 46.2676 46.7274 45.8898 43.6344C45.5123 40.5434 44.9441 37.3965 44.4302 34.5599L44.4113 34.4556C43.9066 31.6697 43.4548 29.1761 43.3015 27.3612C43.2856 27.1724 43.4257 27.0064 43.6145 26.9905ZM42.7315 57.8119C42.6966 57.4702 42.6558 57.1486 42.6084 56.8497C42.5062 56.2059 42.3757 55.6833 42.2153 55.2974C42.0747 54.9589 41.9274 54.7651 41.7925 54.6681C41.6299 54.6826 41.552 54.7366 41.5105 54.7843C41.4549 54.8483 41.4075 54.9668 41.4093 55.1717C41.4129 55.5884 41.6198 56.1841 41.9636 56.7775C42.1879 57.1648 42.4561 57.526 42.7315 57.8119Z" fill="#B0B1C4"/>
<path fill-rule="evenodd" clip-rule="evenodd" d="M41.1514 85.0388C42.4785 84.8796 43.9673 85.107 44.961 85.5545C47.5753 86.732 48.2228 89.8027 47.3612 92.1309C47.008 93.0855 46.0612 93.6543 45.0629 93.8734C44.059 94.0937 42.9096 93.9849 42.0384 93.4855C41.5643 93.2137 41.2481 92.8197 41.0495 92.3617C41.0496 92.4048 41.0497 92.448 41.0499 92.4914C41.0503 92.6433 41.0507 92.797 41.0507 92.9527C41.0507 93.1421 40.8971 93.2957 40.7077 93.2957C40.5182 93.2957 40.3646 93.1421 40.3646 92.9527C40.3646 92.794 40.3641 92.6363 40.3636 92.4792C40.3626 92.1956 40.3616 91.9142 40.3639 91.6342C38.8141 90.9427 37.5161 89.2229 38.1591 87.0348C38.5355 85.754 39.8442 85.1955 41.1514 85.0388ZM41.6524 86.6786C41.3586 86.8566 41.1264 87.1576 40.9734 87.571C40.5552 88.7012 40.4212 89.7854 40.3799 90.8785C39.1973 90.2326 38.3308 88.884 38.8174 87.2282C39.0721 86.3613 39.9978 85.8681 41.2331 85.72C41.4986 85.6881 41.7711 85.6735 42.0439 85.6741C41.9301 85.9495 41.7934 86.2918 41.6524 86.6786ZM41.4733 91.2538C41.4175 90.7254 41.4623 90.1237 41.5721 89.4987C41.7126 88.6986 41.9541 87.8887 42.1979 87.1911C42.3837 87.153 42.614 87.1936 42.8641 87.3261C43.1352 87.4697 43.3966 87.7056 43.5888 87.985C43.7819 88.2657 43.8896 88.5667 43.8896 88.8367C43.8896 89.9969 43.4856 90.6559 42.9712 90.9869C42.5605 91.2512 42.0314 91.3379 41.4733 91.2538ZM41.628 91.9611C42.233 92.0069 42.8346 91.8907 43.3425 91.5639C44.1031 91.0744 44.5757 90.1638 44.5757 88.8367C44.5757 88.3924 44.4031 87.9581 44.154 87.5961C43.9042 87.233 43.5616 86.9192 43.1853 86.7198C42.9597 86.6003 42.7096 86.516 42.454 86.4958C42.5729 86.1883 42.6832 85.9213 42.7719 85.7111C43.4911 85.782 44.1697 85.9506 44.6792 86.1801C46.8681 87.1659 47.4947 89.7935 46.7178 91.8928C46.4774 92.5424 45.7926 93.0108 44.9158 93.2032C44.0447 93.3944 43.0756 93.2892 42.3796 92.8903C42.0177 92.6828 41.775 92.3675 41.628 91.9611Z" fill="#B0B1C4"/>
<path fill-rule="evenodd" clip-rule="evenodd" d="M26.5001 71.0948C26.6896 71.097 26.8413 71.2524 26.8391 71.4419C26.8051 74.2868 26.7204 77.132 26.6359 79.9736C26.6049 81.0128 26.574 82.0515 26.5456 83.0895C26.5404 83.2789 26.3827 83.4282 26.1933 83.423C26.0039 83.4178 25.8546 83.2601 25.8598 83.0707C25.8883 82.0291 25.9193 80.9882 25.9502 79.9477C26.0348 77.1081 26.1192 74.272 26.153 71.4337C26.1553 71.2442 26.3107 71.0925 26.5001 71.0948Z" fill="#B0B1C4"/>
<path fill-rule="evenodd" clip-rule="evenodd" d="M30.0618 61.6903C30.0717 63.8145 29.3018 66.3342 28.8444 67.4786C28.4839 68.3807 27.5089 68.5192 26.7184 68.3716C26.619 68.3531 26.5196 68.3298 26.4211 68.3021C26.4162 68.3031 26.4113 68.3041 26.4064 68.3051C25.941 68.3983 25.5224 68.2892 25.1731 68.0298C24.8347 67.7785 24.5752 67.3975 24.3787 66.9598C23.9858 66.085 23.8006 64.8847 23.8013 63.6745C23.8019 62.461 23.9894 61.1975 24.3738 60.1883C24.7501 59.2005 25.3595 58.3482 26.2718 58.1656C27.6493 57.8899 28.6352 58.1774 29.26 58.9058C29.8594 59.6045 30.0568 60.6342 30.0618 61.6903ZM27.5639 67.7116C27.8797 67.6495 28.104 67.4827 28.2073 67.224C28.6502 66.116 29.385 63.6909 29.3757 61.6935C29.371 60.6889 29.1777 59.8635 28.7392 59.3525C28.3262 58.871 27.6272 58.594 26.4064 58.8383C25.858 58.9481 25.3707 59.4988 25.015 60.4325C24.6675 61.3447 24.488 62.5214 24.4874 63.6749C24.4873 63.7625 24.4883 63.8498 24.4903 63.9365C24.5323 63.7443 24.5796 63.5534 24.6303 63.3655C24.8036 62.7235 25.024 62.0875 25.2247 61.5095L25.2275 61.5014C25.4296 60.9196 25.6081 60.4054 25.7121 59.9789C25.7569 59.7949 25.9425 59.682 26.1266 59.7269C26.3107 59.7717 26.4235 59.9573 26.3787 60.1414C26.2669 60.5999 26.0794 61.1399 25.884 61.7024L25.8728 61.7346C25.671 62.3157 25.4587 62.9293 25.2927 63.5443C24.9549 64.7965 24.8421 65.9467 25.3009 66.7732C25.4071 66.9646 25.6141 67.1649 25.8987 67.337C26.065 67.4376 26.2497 67.5236 26.4413 67.5899C27.161 67.3713 27.569 66.734 27.7983 65.8952C28.0445 64.9946 28.0523 63.9646 28.0523 63.2647C28.0523 62.4668 28.0092 61.9423 27.9304 61.6268C27.8949 61.4844 27.8584 61.4117 27.8354 61.379C27.831 61.3804 27.8258 61.3822 27.8199 61.3845C27.7935 61.3948 27.7574 61.413 27.7109 61.4433C27.6164 61.5048 27.4997 61.6023 27.3577 61.7411C27.0736 62.0189 26.7286 62.4217 26.309 62.9257C26.1878 63.0712 25.9715 63.091 25.8259 62.9698C25.6803 62.8486 25.6605 62.6322 25.7817 62.4866C26.1982 61.9865 26.5649 61.5567 26.8781 61.2505C27.0349 61.0973 27.1882 60.9649 27.3365 60.8684C27.48 60.7749 27.6516 60.6931 27.8386 60.6883C28.0498 60.6829 28.2285 60.7764 28.3573 60.9326C28.4737 61.0738 28.5461 61.2603 28.5961 61.4607C28.6967 61.864 28.7384 62.4611 28.7384 63.2647C28.7384 63.9556 28.734 65.0742 28.4601 66.0762C28.2952 66.6796 28.0206 67.2785 27.5639 67.7116Z" fill="#B0B1C4"/>
<path fill-rule="evenodd" clip-rule="evenodd" d="M24.7359 36.4598C24.9104 36.386 25.1117 36.4676 25.1855 36.6421C25.9762 38.5119 26.4361 41.4084 26.6904 44.5419C26.9457 47.6868 26.9966 51.1106 26.9515 54.0596C26.9064 57.0074 26.7651 59.491 26.6339 60.7564C26.6013 61.0711 26.5683 61.3207 26.5357 61.4854C26.5211 61.5592 26.5009 61.6481 26.4686 61.718C26.4594 61.7377 26.4441 61.7677 26.4204 61.7989C26.3999 61.8259 26.3503 61.8845 26.2635 61.9186C26.1555 61.9612 26.04 61.9464 25.9497 61.8912C25.8772 61.8468 25.8392 61.7881 25.8234 61.7609C25.7907 61.7047 25.7761 61.6469 25.7693 61.6172C25.7606 61.5797 25.754 61.5387 25.7486 61.4972C25.7378 61.4136 25.7292 61.3062 25.7224 61.177C25.7089 60.9175 25.7014 60.5483 25.7014 60.0604C25.7014 59.874 25.8502 59.7223 26.0354 59.7175C26.1362 58.36 26.2302 56.3505 26.2655 54.0491C26.3104 51.1134 26.2595 47.7131 26.0066 44.5974C25.7528 41.4703 25.2981 38.6699 24.5535 36.9094C24.4798 36.7349 24.5614 36.5336 24.7359 36.4598Z" fill="#B0B1C4"/>
<path fill-rule="evenodd" clip-rule="evenodd" d="M24.9116 33.0171C24.7358 33.0471 24.4479 33.1475 24.0087 33.375C23.8405 33.4621 23.6335 33.3964 23.5463 33.2281C23.4592 33.0599 23.5249 32.8529 23.6932 32.7658C24.1543 32.5269 24.5164 32.3886 24.796 32.3408C25.0578 32.2961 25.3755 32.3138 25.5556 32.5758C25.7147 32.8075 25.6561 33.0861 25.5997 33.2534C25.5348 33.4456 25.4225 33.6403 25.3017 33.8036C25.1889 33.9559 24.9741 33.988 24.8218 33.8753C24.6695 33.7626 24.6375 33.5478 24.7502 33.3955C24.8416 33.272 24.9137 33.1405 24.9496 33.034C24.9524 33.0256 24.9549 33.0178 24.9571 33.0105C24.9438 33.012 24.9287 33.0142 24.9116 33.0171ZM25.0455 33.0104C25.0453 33.0106 25.043 33.0102 25.0391 33.0086C25.0438 33.0094 25.0457 33.0102 25.0455 33.0104Z" fill="#B0B1C4"/>
<path fill-rule="evenodd" clip-rule="evenodd" d="M43.4806 22.8728C43.4726 22.8676 43.4645 22.8625 43.4565 22.8572C43.2974 22.7543 43.252 22.5419 43.3549 22.3828C43.4496 22.2367 43.6366 22.1864 43.7897 22.2592C43.8342 22.238 43.8841 22.2262 43.9366 22.2262C43.9527 22.2262 43.9684 22.2263 43.9839 22.2264C44.2511 22.0762 44.5289 22.0797 44.7562 22.1882C44.9821 22.296 45.1695 22.5182 45.1954 22.7706C45.2097 22.9097 45.1729 23.0802 45.0305 23.2046C44.897 23.3212 44.728 23.3466 44.5832 23.3376C44.4646 23.3303 44.3303 23.2984 44.1792 23.2411C44.1453 23.2469 44.1116 23.2515 44.0787 23.2547C44.0272 23.2598 43.9714 23.2622 43.9158 23.2585C43.8878 23.2566 43.8569 23.253 43.8249 23.2462C43.7934 23.2396 43.7558 23.2289 43.7167 23.2108C43.6778 23.1927 43.6307 23.1641 43.5877 23.1188C43.5428 23.0714 43.5072 23.0103 43.4903 22.9383C43.485 22.9159 43.4819 22.8939 43.4806 22.8728Z" fill="#B0B1C4"/>
<path fill-rule="evenodd" clip-rule="evenodd" d="M24.641 20.3041C24.8236 20.2534 25.0127 20.3603 25.0633 20.5429C25.7261 22.931 25.6997 25.3327 25.6735 27.714C25.6684 28.1775 25.6633 28.6401 25.6633 29.1018C25.6633 29.2912 25.5097 29.4448 25.3203 29.4448C25.1308 29.4448 24.9772 29.2912 24.9772 29.1018C24.9772 28.6243 24.9822 28.1511 24.9872 27.6814C25.0124 25.3009 25.0367 23.0123 24.4022 20.7264C24.3516 20.5438 24.4585 20.3548 24.641 20.3041Z" fill="#B0B1C4"/>
<path fill-rule="evenodd" clip-rule="evenodd" d="M25.1004 15.0082C25.2854 15.0492 25.4021 15.2324 25.361 15.4174L25.0677 16.7404C25.0267 16.9253 24.8435 17.042 24.6585 17.001C24.4735 16.96 24.3568 16.7768 24.3979 16.5918L24.6912 15.2689C24.7322 15.0839 24.9154 14.9672 25.1004 15.0082Z" fill="#B0B1C4"/>
<path fill-rule="evenodd" clip-rule="evenodd" d="M44.485 12.7028C44.6732 12.6808 44.8435 12.8156 44.8655 13.0037C45.0884 14.9138 45.265 16.7096 44.8607 18.6694C44.8224 18.8549 44.641 18.9743 44.4554 18.9361C44.2699 18.8978 44.1505 18.7163 44.1888 18.5308C44.5684 16.6907 44.4071 14.9947 44.184 13.0833C44.1621 12.8951 44.2968 12.7247 44.485 12.7028Z" fill="#B0B1C4"/>
<path fill-rule="evenodd" clip-rule="evenodd" d="M45.697 0C45.8865 0 46.0401 0.153586 46.0401 0.343045C46.0401 1.86608 45.9891 3.36568 45.7423 4.89584C45.7121 5.08288 45.5361 5.21005 45.349 5.17989C45.162 5.14972 45.0348 4.97364 45.065 4.7866C45.3031 3.31002 45.354 1.85293 45.354 0.343045C45.354 0.153586 45.5076 0 45.697 0Z" fill="#B0B1C4"/>
<path fill-rule="evenodd" clip-rule="evenodd" d="M94.3641 8.00685C94.5498 7.96936 94.7308 8.08953 94.7682 8.27524C95.7719 13.2475 95.6181 18.4964 95.4684 23.6053C95.4152 25.4214 95.3625 27.2198 95.3625 28.9818V64.3792C95.3625 65.1656 95.359 65.9494 95.3555 66.731C95.3359 71.1013 95.3166 75.4023 95.9141 79.7082C95.9304 79.8257 95.9519 79.9623 95.9755 80.1126L95.9764 80.118C96.0001 80.269 96.0257 80.4322 96.0489 80.5956C96.0946 80.9166 96.1344 81.2605 96.1289 81.5305C96.1263 81.661 96.113 81.8088 96.0647 81.9352C96.015 82.0655 95.8844 82.2643 95.6209 82.2664C95.4236 82.268 95.2619 82.1475 95.1548 82.0512C95.0316 81.9404 94.8956 81.7815 94.7437 81.5764C94.631 81.4241 94.6631 81.2093 94.8154 81.0966C94.9677 80.9838 95.1825 81.0159 95.2952 81.1682C95.3486 81.2404 95.3969 81.3021 95.4402 81.3545C95.4313 81.1665 95.4045 80.9368 95.3697 80.6921C95.3473 80.5345 95.3224 80.3762 95.2986 80.2245L95.2971 80.2149C95.274 80.0679 95.2517 79.9261 95.2345 79.8025C94.6297 75.4439 94.6495 71.0873 94.6693 66.7183C94.6729 65.939 94.6764 65.1593 94.6764 64.3792V28.9818C94.6764 27.1745 94.7299 25.3478 94.7835 23.5152C94.9323 18.4302 95.0825 13.2995 94.0957 8.41099C94.0582 8.22527 94.1784 8.04433 94.3641 8.00685Z" fill="#B0B1C4"/>
<path fill-rule="evenodd" clip-rule="evenodd" d="M96.5849 43.3575C97.5048 43.8873 98.2582 44.7763 98.2997 45.784C98.3027 45.8577 98.3074 45.9467 98.3127 46.0486C98.3445 46.6559 98.4001 47.7185 98.2757 48.6813C98.2032 49.2421 98.0657 49.8087 97.8003 50.2441C97.5248 50.6962 97.0984 51.0215 96.4882 51.0215C95.7089 51.0215 95.1291 50.7682 94.7235 50.3303C94.7129 50.3473 94.7007 50.3635 94.6869 50.3789C94.5601 50.5197 94.3432 50.531 94.2024 50.4042C93.571 49.8354 92.5345 48.3926 92.0507 46.9208C91.8081 46.183 91.6903 45.3963 91.8688 44.6911C92.053 43.9632 92.5433 43.3623 93.4232 43.0101C94.4622 42.5942 95.6579 42.8237 96.5849 43.3575ZM94.1793 49.3686C93.6594 48.7221 93.0357 47.7201 92.7024 46.7065C92.4794 46.028 92.4007 45.3858 92.5339 44.8594C92.6614 44.3557 92.991 43.9222 93.6782 43.647C94.4686 43.3306 95.4412 43.4906 96.2426 43.9521C97.0511 44.4177 97.5861 45.1296 97.6142 45.8122C97.6175 45.8943 97.6225 45.9903 97.628 46.0976C97.6598 46.712 97.7108 47.6996 97.5953 48.5934C97.5273 49.1197 97.4055 49.5736 97.2145 49.887C97.0336 50.1838 96.8067 50.3355 96.4882 50.3355C95.8207 50.3355 95.4177 50.1096 95.1562 49.7819C94.8805 49.4364 94.729 48.936 94.6644 48.3362C94.6002 47.7411 94.6254 47.089 94.6692 46.4718C94.682 46.291 94.6967 46.1104 94.711 45.935C94.7441 45.529 94.775 45.1501 94.775 44.8573C94.775 44.6679 94.6214 44.5143 94.432 44.5143C94.2425 44.5143 94.0889 44.6679 94.0889 44.8573C94.0889 45.1212 94.0618 45.4537 94.03 45.8422C94.0152 46.0241 93.9993 46.2182 93.9848 46.4233C93.9404 47.0489 93.9112 47.7512 93.9822 48.4097C94.0174 48.7362 94.0782 49.0624 94.1793 49.3686Z" fill="#B0B1C4"/>
<path fill-rule="evenodd" clip-rule="evenodd" d="M98.8382 17.79C99.0277 17.79 99.1813 17.9436 99.1813 18.1331C99.1813 18.4953 99.0316 18.8324 98.8336 19.1279C98.6344 19.4253 98.3676 19.7078 98.0911 19.9668C97.8177 20.223 97.5226 20.4672 97.2571 20.6869L97.2458 20.6963C96.9718 20.923 96.7367 21.1182 96.5669 21.287C94.4609 23.3803 92.0098 25.3252 89.6628 27.1874C89.4625 27.3464 89.2629 27.5048 89.0643 27.6626C88.916 27.7805 88.7002 27.7558 88.5823 27.6075C88.4644 27.4592 88.4891 27.2434 88.6374 27.1255C88.8347 26.9687 89.0327 26.8116 89.2312 26.6541C91.5843 24.7868 94.0058 22.8652 96.0832 20.8004C96.2794 20.6054 96.5407 20.3891 96.8058 20.1698L96.8125 20.1642C97.0828 19.9406 97.3641 19.7078 97.6221 19.4662C97.8822 19.2224 98.1063 18.9809 98.2637 18.746C98.4223 18.5093 98.4952 18.3061 98.4952 18.1331C98.4952 17.9436 98.6488 17.79 98.8382 17.79Z" fill="#B0B1C4"/>
<path fill-rule="evenodd" clip-rule="evenodd" d="M90.6469 18.7011C90.7717 18.5586 90.9884 18.5441 91.131 18.6689L101.412 27.6652C101.555 27.79 101.569 28.0067 101.444 28.1493C101.32 28.2919 101.103 28.3063 100.96 28.1815L90.6792 19.1852C90.5366 19.0604 90.5221 18.8437 90.6469 18.7011Z" fill="#B0B1C4"/>
<path d="M124.896 95.1595C124.896 109.53 96.9374 121.18 62.4482 121.18C27.9591 121.18 6.05632e-05 109.53 3.90155e-05 95.1597C1.74678e-05 80.7892 27.959 69.1396 62.4482 69.1396C96.9373 69.1395 124.896 80.789 124.896 95.1595Z" fill="url(#paint0_radial_394_346706)" fill-opacity="0.2"/>
<path d="M25.4222 80.3183L40.9017 68.0132H78.3621L96.3183 80.3183V94.3284L78.3621 106.712H43.0688L24.803 94.3284L25.4222 80.3183Z" fill="white"/>
<path fill-rule="evenodd" clip-rule="evenodd" d="M42.5229 67.384C42.6994 67.5963 42.6704 67.9115 42.4581 68.0881C39.5449 70.5103 34.3146 74.2858 29.8728 77.4923C27.7979 78.99 25.8951 80.3635 24.4808 81.417C24.2594 81.582 23.9461 81.5361 23.7812 81.3147C23.6162 81.0932 23.662 80.78 23.8835 80.615C25.3255 79.5409 27.2492 78.1523 29.3376 76.6449C33.7646 73.4494 38.9316 69.7198 41.8187 67.3192C42.0311 67.1426 42.3463 67.1716 42.5229 67.384Z" fill="black"/>
<path fill-rule="evenodd" clip-rule="evenodd" d="M22.8444 78.2532C23.0025 78.0267 23.3142 77.9713 23.5406 78.1293C25.9932 79.8411 28.2249 81.4608 30.3692 83.017C35.2352 86.5485 39.6512 89.7534 45.1771 92.9675C45.4158 93.1063 45.4968 93.4124 45.358 93.6511C45.2191 93.8898 44.9131 93.9707 44.6744 93.8319C39.1033 90.5916 34.6257 87.3421 29.7392 83.7959C27.6023 82.2452 25.3872 80.6377 22.9683 78.9494C22.7418 78.7913 22.6864 78.4796 22.8444 78.2532Z" fill="black"/>
<path fill-rule="evenodd" clip-rule="evenodd" d="M75.7763 66.5016C75.9272 66.2703 76.237 66.2051 76.4683 66.3559C83.5931 71.0025 91.3444 76.2732 97.8599 81.2373C98.0795 81.4047 98.1219 81.7184 97.9546 81.9381C97.7872 82.1577 97.4735 82.2001 97.2538 82.0328C90.7665 77.0901 83.0383 71.8346 75.922 67.1935C75.6907 67.0427 75.6255 66.7329 75.7763 66.5016Z" fill="black"/>
<path fill-rule="evenodd" clip-rule="evenodd" d="M75.503 93.6984C75.6807 93.9098 75.9961 93.9371 76.2075 93.7594C78.1898 92.0932 81.9493 89.6423 86.0255 87.0053C86.2294 86.8734 86.4339 86.7411 86.6391 86.6085C90.5165 84.1009 94.5907 81.4661 97.5475 79.2486C97.7684 79.0829 97.8132 78.7695 97.6475 78.5486C97.4818 78.3276 97.1684 78.2829 96.9475 78.4486C94.0197 80.6444 89.9723 83.2619 86.0821 85.7778C85.8817 85.9074 85.6817 86.0367 85.4824 86.1657C81.4318 88.7861 77.6063 91.2773 75.564 92.9939C75.3526 93.1716 75.3253 93.487 75.503 93.6984Z" fill="black"/>
<path fill-rule="evenodd" clip-rule="evenodd" d="M75.4795 109.171C75.6406 109.395 75.953 109.446 76.1773 109.285C78.5603 107.573 80.7285 105.953 82.8116 104.397C87.5383 100.866 91.8272 97.6614 97.1945 94.4478C97.4314 94.3059 97.5085 93.9989 97.3667 93.7619C97.2248 93.525 96.9177 93.4479 96.6808 93.5898C91.2682 96.8305 86.9176 100.081 82.1704 103.627C80.0946 105.178 77.9431 106.785 75.5938 108.473C75.3695 108.634 75.3183 108.947 75.4795 109.171Z" fill="black"/>
<path fill-rule="evenodd" clip-rule="evenodd" d="M23.4655 93.1109C23.6249 92.8854 23.9369 92.8318 24.1624 92.9912C26.6846 94.7739 28.9798 96.4609 31.1853 98.0819C36.1906 101.761 40.7337 105.1 46.4181 108.448C46.656 108.588 46.7353 108.895 46.5951 109.133C46.455 109.371 46.1485 109.45 45.9105 109.31C40.1809 105.935 35.5762 102.551 30.5504 98.8569C28.3523 97.2414 26.0737 95.5667 23.5852 93.8078C23.3597 93.6484 23.3061 93.3363 23.4655 93.1109Z" fill="black"/>
<path fill-rule="evenodd" clip-rule="evenodd" d="M39.4736 91.5417C39.4736 91.2656 39.6975 91.0417 39.9736 91.0417L82.6971 91.0418C82.9732 91.0418 83.1971 91.2656 83.1971 91.5418C83.1971 91.8179 82.9732 92.0418 82.6971 92.0418L39.9736 92.0417C39.6975 92.0417 39.4736 91.8179 39.4736 91.5417Z" fill="black"/>
<path fill-rule="evenodd" clip-rule="evenodd" d="M81.4581 68.5129C65.0507 68.5129 53.0193 68.5764 38.1445 69.4409C37.8688 69.4569 37.6324 69.2464 37.6163 68.9707C37.6003 68.695 37.8108 68.4586 38.0865 68.4426C52.9925 67.5763 65.049 67.5129 81.4581 67.5129C81.7343 67.5129 81.9581 67.7368 81.9581 68.0129C81.9581 68.2891 81.7343 68.5129 81.4581 68.5129Z" fill="black"/>
<path fill-rule="evenodd" clip-rule="evenodd" d="M79.601 107.268L39.3542 107.268C39.0781 107.268 38.8542 107.044 38.8542 106.768C38.8542 106.491 39.0781 106.268 39.3542 106.268L79.601 106.268C79.8771 106.268 80.101 106.491 80.101 106.768C80.101 107.044 79.8771 107.268 79.601 107.268Z" fill="black"/>
<path fill-rule="evenodd" clip-rule="evenodd" d="M77.7431 69.04L37.4963 69.0401C37.2202 69.0401 36.9963 68.8162 36.9963 68.5401C36.9963 68.2639 37.2202 68.0401 37.4963 68.0401L77.7431 68.04C78.0192 68.04 78.2431 68.2639 78.2431 68.54C78.2431 68.8162 78.0192 69.04 77.7431 69.04Z" fill="black"/>
<path fill-rule="evenodd" clip-rule="evenodd" d="M25.7314 76.8008C26.0076 76.8008 26.2314 77.0246 26.2314 77.3008V95.257C26.2314 95.5332 26.0076 95.757 25.7314 95.757C25.4553 95.757 25.2314 95.5332 25.2314 95.257V77.3008C25.2314 77.0246 25.4553 76.8008 25.7314 76.8008Z" fill="black"/>
<path fill-rule="evenodd" clip-rule="evenodd" d="M95.6992 78.0393C95.9754 78.0393 96.1992 78.2632 96.1992 78.5393V96.7116C96.1992 96.9878 95.9754 97.2116 95.6992 97.2116C95.4231 97.2116 95.1992 96.9878 95.1992 96.7116V78.5393C95.1992 78.2632 95.4231 78.0393 95.6992 78.0393Z" fill="black"/>
<path fill-rule="evenodd" clip-rule="evenodd" d="M41.8284 89.4941C42.1045 89.4941 42.3284 89.718 42.3284 89.9941V106.44C42.3284 106.716 42.1045 106.94 41.8284 106.94C41.5522 106.94 41.3284 106.716 41.3284 106.44V89.9941C41.3284 89.718 41.5522 89.4941 41.8284 89.4941Z" fill="black"/>
<path fill-rule="evenodd" clip-rule="evenodd" d="M78.3614 86.9944C78.6375 86.9944 78.8614 87.2182 78.8614 87.4944C78.8614 88.2677 78.8766 89.7629 78.8955 91.6154C78.9512 97.0838 79.0387 105.666 78.8596 107.988C78.8384 108.264 78.598 108.47 78.3227 108.448C78.0473 108.427 77.8414 108.187 77.8626 107.912C78.0379 105.638 77.9519 97.1904 77.8962 91.7197C77.877 89.8308 77.8614 88.2968 77.8614 87.4944C77.8614 87.2182 78.0852 86.9944 78.3614 86.9944Z" fill="black"/>
<path fill-rule="evenodd" clip-rule="evenodd" d="M27.7326 80.8458C27.9909 80.9221 28.1424 81.1893 28.0752 81.4501C27.9222 82.0439 27.5247 83.1708 27.1403 84.2605L27.1324 84.2831C27.1305 84.2883 27.1287 84.2936 27.1268 84.2988L26.2076 87.0561C26.1224 87.3117 25.8501 87.4538 25.5917 87.3776C25.3334 87.3013 25.1818 87.0341 25.2491 86.7732C25.3995 86.1895 25.7926 85.0751 26.1748 83.9916L26.1809 83.9743L27.1167 81.1672C27.2019 80.9117 27.4742 80.7696 27.7326 80.8458Z" fill="black"/>
<path fill-rule="evenodd" clip-rule="evenodd" d="M29.5796 83.0086C29.847 83.0775 30.008 83.3501 29.939 83.6175L26.9073 95.3819C26.8384 95.6494 26.5658 95.8103 26.2984 95.7414C26.031 95.6724 25.8701 95.3998 25.939 95.1324L28.9707 83.368C29.0396 83.1006 29.3122 82.9397 29.5796 83.0086ZM32.0334 84.2469C32.3008 84.3158 32.4617 84.5885 32.3928 84.8559L29.2015 97.2395C29.1326 97.5069 28.8599 97.6678 28.5925 97.5989C28.3251 97.53 28.1642 97.2574 28.2331 96.9899L31.4244 84.6063C31.4933 84.3389 31.7659 84.178 32.0334 84.2469ZM34.6438 86.4141C34.9112 86.483 35.0722 86.7556 35.0032 87.023L31.8917 99.097C31.8228 99.3644 31.5502 99.5254 31.2828 99.4564C31.0154 99.3875 30.8545 99.1149 30.9234 98.8475L34.0349 86.7735C34.1038 86.5061 34.3764 86.3452 34.6438 86.4141Z" fill="black"/>
<path fill-rule="evenodd" clip-rule="evenodd" d="M37.3812 88.2713C37.6486 88.3402 37.8095 88.6128 37.7406 88.8802L34.7886 100.335C34.7197 100.602 34.4471 100.763 34.1797 100.694C33.9123 100.626 33.7513 100.353 33.8203 100.086L36.7722 88.6307C36.8411 88.3633 37.1137 88.2023 37.3812 88.2713ZM39.7897 89.6847C40.0572 89.7536 40.2181 90.0262 40.1492 90.2936L36.9232 102.812C36.8543 103.079 36.5817 103.24 36.3142 103.171C36.0468 103.102 35.8859 102.83 35.9548 102.562L39.1808 90.0441C39.2497 89.7767 39.5223 89.6158 39.7897 89.6847ZM42.5251 91.3672C42.7925 91.4361 42.9534 91.7087 42.8845 91.9761L39.6135 104.669C39.5446 104.937 39.2719 105.098 39.0045 105.029C38.7371 104.96 38.5762 104.687 38.6451 104.42L41.9162 91.7266C41.9851 91.4592 42.2577 91.2983 42.5251 91.3672Z" fill="black"/>
<path fill-rule="evenodd" clip-rule="evenodd" d="M51.7134 91.3675C51.9808 91.4364 52.1417 91.7091 52.0728 91.9765L48.3081 106.585C48.2512 106.806 48.052 106.961 47.8239 106.961L44.655 106.961C44.5003 106.961 44.3544 106.889 44.2597 106.767C44.165 106.645 44.1322 106.486 44.1708 106.336L47.9355 91.7269C48.0044 91.4595 48.2771 91.2986 48.5445 91.3675C48.8119 91.4364 48.9728 91.7091 48.9039 91.9765L45.3001 105.961L47.4364 105.961L51.1045 91.7269C51.1734 91.4595 51.446 91.2986 51.7134 91.3675ZM45.7716 91.3675C46.039 91.4364 46.1999 91.7091 46.131 91.9765L42.3663 106.585C42.2974 106.853 42.0247 107.014 41.7573 106.945C41.4899 106.876 41.329 106.603 41.3979 106.336L45.1627 91.7269C45.2316 91.4595 45.5042 91.2986 45.7716 91.3675Z" fill="black"/>
<path fill-rule="evenodd" clip-rule="evenodd" d="M61.0525 91.0576C61.3199 91.1265 61.4808 91.3992 61.4119 91.6666C60.7701 94.157 60.0916 96.8504 59.4219 99.51L59.3924 99.6273C58.7329 102.246 58.0825 104.829 57.4854 107.146C57.4165 107.414 57.1438 107.574 56.8764 107.506C56.609 107.437 56.4481 107.164 56.517 106.897C57.1135 104.582 57.7633 102.002 58.423 99.3816L58.4522 99.2658C59.1218 96.6067 59.8009 93.9106 60.4435 91.417C60.5124 91.1496 60.7851 90.9887 61.0525 91.0576ZM57.8835 91.0576C58.1509 91.1265 58.3118 91.3992 58.2429 91.6666C57.6088 94.1274 56.9531 96.8032 56.3018 99.4621L56.2848 99.5314C55.6396 102.166 54.9989 104.781 54.3895 107.146C54.3206 107.414 54.0479 107.574 53.7805 107.506C53.5131 107.437 53.3522 107.164 53.4211 106.897C54.0291 104.538 54.6686 101.927 55.3144 99.29L55.3305 99.2242C55.9815 96.5665 56.6386 93.8847 57.2745 91.417C57.3435 91.1496 57.6161 90.9887 57.8835 91.0576ZM55.1161 91.0591C55.3827 91.131 55.5406 91.4055 55.4686 91.6721L51.2919 107.152C51.2199 107.418 50.9455 107.576 50.6789 107.504C50.4123 107.432 50.2545 107.158 50.3264 106.891L54.5032 91.4116C54.5751 91.145 54.8495 90.9871 55.1161 91.0591Z" fill="black"/>
<path fill-rule="evenodd" clip-rule="evenodd" d="M70.314 91.3675C70.5814 91.4364 70.7423 91.7091 70.6734 91.9765L66.9237 106.527C66.8547 106.795 66.5821 106.956 66.3147 106.887C66.0473 106.818 65.8864 106.545 65.9553 106.278L69.7051 91.7269C69.774 91.4595 70.0466 91.2986 70.314 91.3675ZM67.1451 91.3675C67.4125 91.4364 67.5734 91.7091 67.5045 91.9765L63.7547 106.527C63.6858 106.795 63.4132 106.956 63.1457 106.887C62.8783 106.818 62.7174 106.545 62.7863 106.278L66.5361 91.7269C66.605 91.4595 66.8776 91.2986 67.1451 91.3675ZM64.3722 91.3675C64.6396 91.4364 64.8005 91.7091 64.7316 91.9765L60.9819 106.527C60.913 106.795 60.6403 106.956 60.3729 106.887C60.1055 106.818 59.9446 106.545 60.0135 106.278L63.7633 91.7269C63.8322 91.4595 64.1048 91.2986 64.3722 91.3675Z" fill="black"/>
<path fill-rule="evenodd" clip-rule="evenodd" d="M80.0157 90.1287C80.2831 90.1977 80.444 90.4703 80.3751 90.7377L76.3062 106.527C76.2373 106.794 75.9646 106.955 75.6972 106.886C75.4298 106.817 75.2689 106.545 75.3378 106.277L79.4067 90.4882C79.4756 90.2207 79.7483 90.0598 80.0157 90.1287ZM76.5276 91.3671C76.795 91.436 76.9559 91.7087 76.887 91.9761L73.1372 106.527C73.0683 106.794 72.7957 106.955 72.5283 106.886C72.2609 106.817 72.1 106.545 72.1689 106.277L75.9186 91.7265C75.9875 91.4591 76.2602 91.2982 76.5276 91.3671ZM73.7547 91.3671C74.0221 91.436 74.1831 91.7087 74.1142 91.9761L70.3644 106.527C70.2955 106.794 70.0228 106.955 69.7554 106.886C69.488 106.817 69.3271 106.545 69.396 106.277L73.1458 91.7265C73.2147 91.4591 73.4873 91.2982 73.7547 91.3671Z" fill="black"/>
<path fill-rule="evenodd" clip-rule="evenodd" d="M91.1807 82.4557C91.4481 82.5246 91.609 82.7972 91.5401 83.0646L86.8501 101.264C86.7812 101.531 86.5085 101.692 86.2411 101.623C85.9737 101.555 85.8128 101.282 85.8817 101.014L90.5718 82.8151C90.6407 82.5477 90.9133 82.3867 91.1807 82.4557ZM87.231 85.4851C87.4985 85.5541 87.6594 85.8267 87.5905 86.0941L82.8833 104.36C82.8144 104.627 82.5418 104.788 82.2744 104.719C82.0069 104.65 81.846 104.378 81.9149 104.11L86.6221 85.8446C86.691 85.5771 86.9636 85.4162 87.231 85.4851ZM83.8997 87.6523C84.1671 87.7212 84.328 87.9938 84.2591 88.2612L79.6318 106.217C79.5629 106.485 79.2902 106.646 79.0228 106.577C78.7554 106.508 78.5945 106.235 78.6634 105.968L83.2908 88.0117C83.3597 87.7443 83.6323 87.5834 83.8997 87.6523Z" fill="black"/>
<path fill-rule="evenodd" clip-rule="evenodd" d="M94.3316 80.8411C94.599 80.91 94.7599 81.1826 94.691 81.45L90.303 98.4775C90.2341 98.7449 89.9614 98.9058 89.694 98.8369C89.4266 98.768 89.2657 98.4954 89.3346 98.228L93.7226 81.2005C93.7915 80.9331 94.0642 80.7722 94.3316 80.8411ZM95.5886 86.7233C95.856 86.7922 96.0169 87.0648 95.948 87.3323L93.5545 96.62C93.4856 96.8874 93.213 97.0483 92.9456 96.9794C92.6782 96.9105 92.5172 96.6378 92.5862 96.3704L94.9796 87.0827C95.0485 86.8153 95.3212 86.6544 95.5886 86.7233Z" fill="black"/>
<path opacity="0.5" d="M78.9748 23.3032C90.299 45.2176 76.9679 56.0306 74.6738 57.3281L67.5078 61.509C56.7285 63.8158 48.2996 53.8198 45.4326 48.5334C37.4055 30.4252 46.0059 19.7468 51.3096 16.671C63.6943 8.13597 74.9134 17.5362 78.9748 23.3032Z" fill="#2BB1F2"/>
<path d="M75.5482 23.3032C86.9381 45.2176 73.5297 56.0306 71.2223 57.3281L64.0147 61.509C53.1729 63.8158 44.6951 53.8198 41.8115 48.5334C33.7377 30.4252 42.3881 19.7468 47.7225 16.671C60.1791 8.13597 71.4632 17.5362 75.5482 23.3032Z" stroke="#F3F3FA" stroke-width="1.91245"/>
<ellipse cx="56.8534" cy="38.5275" rx="17.6935" ry="23.7576" transform="rotate(-18.5954 56.8534 38.5275)" stroke="#F3F3FA" stroke-width="1.91245"/>
<path d="M63.2675 61.4009C97.1846 51.0365 73.8853 -0.642485 46.846 16.969" stroke="#F3F3FA" stroke-width="1.91245" stroke-linecap="round"/>
<path d="M54.4482 22.385C54.0638 29.979 53.7119 36.9294 53.3795 43.4937" stroke="#F3F3FA" stroke-width="1.91245" stroke-linecap="round"/>
<path d="M53.6494 41.959C58.2182 42.8355 63.1462 43.9687 67.3554 44.5886" stroke="#F3F3FA" stroke-width="1.91245" stroke-linecap="round"/>
<path d="M53.9632 41.4584C53.3757 41.464 52.8937 41.53 52.709 42.3986C52.4865 43.445 53.4029 43.8548 54.023 43.8631C54.8839 43.8745 55.7106 42.8554 55.7354 41.6772C55.7667 40.1882 54.356 39.5557 53.4416 39.7401C52.5711 39.9157 51.8649 40.9682 51.872 42.1627C51.88 43.5142 53.2307 43.8406 54.0139 43.411C54.7662 42.9982 54.9842 41.5638 54.3209 40.9317C53.614 40.2581 53.1757 41.6638 52.8632 42.306" stroke="#F3F3FA" stroke-width="1.91245" stroke-linecap="round"/>
<path d="M51.3188 27.2591C52.3381 26.2037 53.0618 24.7855 53.7178 23.323C53.9546 22.7951 54.1964 22.2461 54.3465 21.6629C54.3577 21.6193 54.4317 21.0606 54.5146 21.0836C54.6396 21.1183 54.7818 21.9648 54.8169 22.0738C55.0667 22.8506 55.3726 23.6219 55.7172 24.3275C56.1979 25.3116 56.8464 26.0285 57.4929 26.7975" stroke="#F3F3FA" stroke-width="1.91245" stroke-linecap="round"/>
<path d="M62.6633 46.1577C69.2208 45.7154 70.6782 45.4021 63.8697 41.3151" stroke="#F3F3FA" stroke-width="1.91245" stroke-linecap="round"/>
<path d="M60.4592 17.0416C62.5227 16.9651 64.5246 15.5046 66.3804 14.6978" stroke="#F3F3FA" stroke-width="1.91245" stroke-linecap="round"/>
<path d="M66.2573 20.9888C67.8304 20.3989 69.3423 19.6316 70.945 19.1384" stroke="#F3F3FA" stroke-width="1.91245" stroke-linecap="round"/>
<path d="M70.6985 25.923C71.9059 25.5446 73.0863 25.086 74.2759 24.6895" stroke="#F3F3FA" stroke-width="1.91245" stroke-linecap="round"/>
<path d="M73.5354 32.3379C75.0816 31.8716 76.5222 31.18 77.9763 30.4875" stroke="#F3F3FA" stroke-width="1.91245" stroke-linecap="round"/>
<path d="M75.0154 37.3957C75.7636 37.3957 76.4095 37.4055 77.1125 37.1216C77.656 36.9021 78.1458 36.659 78.7161 36.5322" stroke="#F3F3FA" stroke-width="1.91245" stroke-linecap="round"/>
<path d="M75.7559 44.1802C76.8596 44.0946 77.8987 43.9771 78.9632 43.6868" stroke="#F3F3FA" stroke-width="1.91245" stroke-linecap="round"/>
<path d="M74.2759 50.1015C75.262 50.0097 76.2509 49.9443 77.2365 49.8547" stroke="#F3F3FA" stroke-width="1.91245" stroke-linecap="round"/>
<defs>
<radialGradient id="paint0_radial_394_346706" cx="0" cy="0" r="1" gradientUnits="userSpaceOnUse" gradientTransform="translate(62.4482 95.1596) rotate(74.4171) scale(21.5218 52.2198)">
<stop stop-color="#25A6F7" stop-opacity="0.43"/>
<stop offset="1" stop-color="#25A6F7" stop-opacity="0"/>
</radialGradient>
</defs>
</svg>
