<svg width="95" height="59" viewBox="0 0 95 59" fill="none" xmlns="http://www.w3.org/2000/svg">
<path d="M10.7486 36.7693L13.1734 35.6492C10.1269 34.0935 10.2412 28.0384 14.2925 26.3151C21.7532 23.1415 26.2919 27.3107 27.1623 30.4221L23.0589 37.1426L21.7533 37.8894V39.7562C27.7218 28.9286 33.3379 24.7132 32.9444 26.3151C30.1466 37.7027 21.8081 41.623 21.7533 42.5564C21.604 45.0953 25.2971 52.3262 27.1623 55.6242C24.4267 56.4332 18.0975 58.0884 14.6655 58.2378C10.3756 58.4244 1.4227 55.4375 1.4227 53.9441C1.4227 52.4506 6.45873 41.063 7.20481 40.1296C7.80167 39.3828 9.44303 38.2005 10.1891 37.7027C7.8887 34.9647 3.06406 29.1526 2.16877 27.8085C1.27348 26.4644 1.29835 24.7594 1.4227 24.0749L2.16877 23.8882L5.89914 27.8085L10.7486 36.7693Z" fill="white"/>
<path d="M36.8613 26.8747L36.4883 26.6881C33.4418 25.1324 32.8462 17.1747 37.0478 15.8605C38.2418 15.4871 42.3717 12.6841 48.0524 18.2873C50.2907 8.76641 52.9224 11.2717 52.5289 12.8735C49.7311 24.2612 48.2631 26.0947 48.985 26.6881C59.4301 35.2754 61.8548 47.2231 62.4144 48.9033C58.8705 48.1566 49.5446 39.1958 44.3221 39.9425C40.0712 40.5503 34.8096 47.9699 34.8096 46.4764C34.8096 44.983 35.9287 33.8573 35.9287 32.6619C35.9287 31.3551 35.1827 30.5462 35.9287 30.0483C33.6283 27.3103 25.8195 18.1379 24.9242 16.7938C24.0289 15.4497 24.1781 14.3669 26.2298 15.4871H26.7893L36.3018 27.9948L36.8613 26.8747Z" fill="white"/>
<path d="M63.9064 18.1007L68.0729 17.354C65.0264 15.7983 64.0648 9.65466 68.0729 7.83282C79.574 2.60506 87.0347 16.4194 74.1649 19.034C72.7379 19.324 78.2053 36.9556 76.9627 36.9556C74.2271 37.7645 70.8076 36.7689 69.3155 35.8355C65.6742 33.5577 53.5877 23.1826 54.9535 22.5811C59.6164 20.5275 61.6681 19.5941 63.9064 18.1007Z" fill="white"/>
<path fill-rule="evenodd" clip-rule="evenodd" d="M18.9544 24.838C21.6687 24.8233 24.497 25.8547 26.272 27.6535C27.3412 28.737 27.6472 30.0988 27.4599 31.4648C27.4372 31.6311 27.284 31.7474 27.1178 31.7246C26.9517 31.7018 26.8355 31.5485 26.8583 31.3822C27.0249 30.1661 26.7523 29.0053 25.8399 28.0807C24.1982 26.4169 21.5366 25.4319 18.9577 25.4459C17.3807 25.4545 15.8601 25.8353 14.6324 26.642C14.5959 26.6865 14.5466 26.721 14.489 26.7391C13.9087 27.1439 13.3986 27.648 12.9851 28.2575C12.9693 28.3286 12.9554 28.4016 12.9433 28.4764C12.7986 29.3762 12.9318 30.4409 13.0412 31.3154C13.0442 31.339 13.0471 31.3625 13.05 31.3858C13.3196 33.5446 13.7753 35.0536 15.4554 36.2426C16.2832 36.8284 17.3541 37.3358 18.4698 37.6166C19.5875 37.8978 20.727 37.9459 21.7042 37.6417C22.2724 37.4647 22.864 37.1495 23.4386 36.7266C23.5737 36.6271 23.7638 36.6561 23.8632 36.7914C23.9625 36.9266 23.9335 37.1169 23.7984 37.2163C23.1822 37.6698 22.5308 38.0209 21.8846 38.2221C21.1876 38.4391 20.4349 38.4954 19.679 38.4343C19.7184 38.5049 19.7298 38.591 19.7035 38.6742C19.653 38.8343 19.4824 38.9231 19.3225 38.8725C17.0345 38.1494 14.4568 37.0132 12.8421 35.3233C12.0296 34.4731 11.4507 33.4719 11.2875 32.3055C11.1241 31.1379 11.3821 29.8395 12.1816 28.4048C12.2572 28.2691 12.3366 28.1377 12.4196 28.0104C12.5173 27.6263 12.674 27.2633 12.9182 26.9569C13.2276 26.569 13.6624 26.2912 14.245 26.169C15.5993 25.2618 17.268 24.8472 18.9544 24.838ZM12.2762 29.6041C11.8822 30.576 11.7803 31.4447 11.889 32.2212C12.0304 33.2318 12.5334 34.1209 13.281 34.9032C13.3853 35.0124 13.4942 35.1192 13.6072 35.2239C12.9026 34.161 12.6291 32.9161 12.4474 31.4612C12.4432 31.4281 12.439 31.3945 12.4348 31.3605C12.3704 30.8475 12.293 30.2299 12.2762 29.6041Z" fill="black"/>
<path fill-rule="evenodd" clip-rule="evenodd" d="M14.0532 34.9128C14.1155 35.0687 14.0397 35.2455 13.884 35.3079C12.8609 35.7175 11.8321 36.362 10.8273 37.1902C10.6978 37.2969 10.5064 37.2784 10.3998 37.1488C10.2932 37.0192 10.3117 36.8277 10.4412 36.721C11.4817 35.8634 12.5638 35.1817 13.6585 34.7435C13.8142 34.6812 13.9909 34.757 14.0532 34.9128ZM10.0077 37.4946C10.1223 37.6172 10.1159 37.8095 9.99347 37.9242C7.59105 40.1746 5.4173 43.3877 3.89846 46.7194C2.37744 50.0558 1.53045 53.4731 1.74077 56.1308C1.75401 56.2981 1.62922 56.4445 1.46203 56.4578C1.29484 56.471 1.14857 56.3461 1.13533 56.1788C0.913575 53.3766 1.80349 49.8505 3.34593 46.467C4.89054 43.0788 7.1068 39.7956 9.57848 37.4804C9.70093 37.3657 9.8931 37.3721 10.0077 37.4946Z" fill="black"/>
<path fill-rule="evenodd" clip-rule="evenodd" d="M0.0575127 53.5791C0.155706 53.4431 0.345524 53.4124 0.481483 53.5107C2.14967 54.7166 3.94309 55.8659 6.30585 56.6929C8.66854 57.5199 11.6156 58.0295 15.5909 57.9336C16.5006 57.9117 18.4871 57.7275 20.7366 57.2522C22.9887 56.7764 25.4775 56.0142 27.4089 54.849C27.5525 54.7623 27.7391 54.8086 27.8257 54.9524C27.9123 55.0961 27.866 55.2829 27.7224 55.3696C25.7066 56.5858 23.1418 57.3653 20.8621 57.847C18.5798 58.3292 16.5561 58.5184 15.6055 58.5413C11.5692 58.6387 8.54771 58.1215 6.10537 57.2667C3.66309 56.4119 1.81504 55.2245 0.125895 54.0035C-0.0100644 53.9052 -0.0406803 53.7152 0.0575127 53.5791Z" fill="black"/>
<path fill-rule="evenodd" clip-rule="evenodd" d="M21.5046 37.8599C21.6723 37.8599 21.8083 37.9959 21.8083 38.1638C21.8083 45.6462 24.0744 50.0686 27.6176 55.9989C27.7037 56.143 27.6568 56.3296 27.5129 56.4157C27.3689 56.5019 27.1825 56.4549 27.0964 56.3109C23.5356 50.3512 21.2009 45.8129 21.2009 38.1638C21.2009 37.9959 21.3369 37.8599 21.5046 37.8599Z" fill="black"/>
<path fill-rule="evenodd" clip-rule="evenodd" d="M31.6168 26.9542C27.8887 29.7864 25.7394 33.5918 23.4503 37.6446C22.9239 38.5766 22.3901 39.5216 21.8281 40.4709C21.7426 40.6153 21.5563 40.663 21.412 40.5775C21.2677 40.4919 21.2201 40.3055 21.3056 40.1611C21.8529 39.2366 22.377 38.308 22.8974 37.3858C25.1916 33.3203 27.4161 29.3783 31.26 26.4621C31.2668 26.457 31.2737 26.4522 31.2809 26.4476C31.3109 26.4286 31.3415 26.4091 31.3725 26.3893C31.5594 26.2702 31.7641 26.1399 31.9629 26.0311C32.1902 25.9067 32.4444 25.7905 32.6872 25.7587C32.8125 25.7423 32.9491 25.7463 33.0823 25.7947C33.2197 25.8447 33.335 25.9354 33.4218 26.0616C33.5848 26.2986 33.6368 26.6446 33.6209 27.0728C33.6202 27.092 33.6177 27.1111 33.6134 27.1299C33.4625 27.7841 33.0792 28.5759 32.5804 29.4144C32.0782 30.2586 31.4451 31.1726 30.7756 32.0756C29.6399 33.6075 28.3889 35.122 27.4773 36.2256C27.3145 36.4227 27.1625 36.6068 27.0239 36.7754C26.1194 37.8762 25.2726 38.7336 24.4516 39.5648C24.3614 39.6561 24.2715 39.7471 24.1819 39.8381C23.2758 40.7579 22.3932 41.6789 21.4679 42.9136C21.3673 43.0479 21.1769 43.0751 21.0427 42.9744C20.9086 42.8737 20.8814 42.6832 20.982 42.5489C21.9327 41.2802 22.839 40.3356 23.7494 39.4113C23.8392 39.3201 23.9291 39.2292 24.0189 39.1382C24.841 38.3058 25.6689 37.4675 26.5548 36.3893C26.6948 36.219 26.8478 36.0337 27.0113 35.8357C27.9235 34.7314 29.1627 33.2311 30.2879 31.7134C30.9511 30.8188 31.571 29.923 32.0585 29.1034C32.5413 28.292 32.8812 27.5766 33.015 27.0213C33.0257 26.646 32.9683 26.4742 32.9215 26.4061C32.9027 26.3789 32.8876 26.3707 32.875 26.3661C32.8581 26.3599 32.8249 26.3537 32.766 26.3615C32.6405 26.3779 32.4686 26.4471 32.2542 26.5644C32.0747 26.6627 31.8895 26.7806 31.7015 26.9003C31.6733 26.9182 31.6451 26.9362 31.6168 26.9542Z" fill="black"/>
<path fill-rule="evenodd" clip-rule="evenodd" d="M1.66519 25.2685C1.70433 25.6235 1.77827 25.9826 1.85856 26.2594C2.29434 27.7618 3.45831 29.3805 4.44313 30.6561C5.5305 32.0645 6.70142 33.4049 7.87939 34.7532C7.98545 34.8746 8.09157 34.9961 8.19769 35.1177C9.47996 36.5869 10.7612 38.0725 11.9256 39.6575C12.0249 39.7927 11.9959 39.9829 11.8608 40.0824C11.7257 40.1818 11.5356 40.1528 11.4363 40.0176C10.2887 38.4555 9.02302 36.9874 7.74029 35.5176C7.63378 35.3956 7.52714 35.2735 7.42044 35.1514C6.24466 33.8055 5.06177 32.4516 3.96256 31.0278C2.98516 29.7618 1.74776 28.0577 1.27531 26.4289C1.18513 26.1181 1.10444 25.7245 1.06152 25.3352C1.01918 24.9512 1.01049 24.5449 1.08067 24.2202C1.11569 24.0581 1.17548 23.8912 1.28219 23.7576C1.3968 23.6142 1.56104 23.5165 1.7669 23.5079C1.95785 23.5 2.14967 23.5702 2.33499 23.681C2.52294 23.7934 2.72842 23.9621 2.95446 24.1884C6.22317 27.4599 8.85193 32.2774 11.0247 37.0155C11.0947 37.1681 11.0278 37.3485 10.8754 37.4185C10.723 37.4885 10.5427 37.4216 10.4728 37.2691C8.30491 32.5417 5.71279 27.8088 2.52501 24.6182C2.31905 24.412 2.15321 24.2804 2.02346 24.2028C1.89107 24.1236 1.8188 24.1142 1.79216 24.1153L1.79189 24.1153C1.78033 24.1158 1.77346 24.1161 1.75655 24.1372C1.7316 24.1685 1.69917 24.2335 1.67428 24.3486C1.62464 24.5784 1.62545 24.9082 1.66519 25.2685Z" fill="black"/>
<path fill-rule="evenodd" clip-rule="evenodd" d="M16.6336 30.9151C16.7086 30.765 16.891 30.7042 17.041 30.7792C18.1838 31.3511 19.3828 31.8456 20.6075 32.3506C20.7201 32.397 20.8329 32.4435 20.9459 32.4902C21.2449 32.6137 21.551 32.7319 21.86 32.8511C22.5935 33.1342 23.3429 33.4235 24.0511 33.8052C24.1863 33.878 24.2985 33.9487 24.3807 34.0197C24.422 34.0553 24.4654 34.0992 24.5 34.1525C24.5345 34.2059 24.5706 34.2852 24.5676 34.3833C24.5608 34.6035 24.3818 34.7019 24.3126 34.733C24.2265 34.7717 24.1257 34.7925 24.0367 34.806C23.8536 34.8339 23.6151 34.845 23.3908 34.8551L23.3685 34.8561C23.143 34.8663 22.9263 34.8761 22.7473 34.8976C21.414 35.0577 20.555 34.8812 19.8384 34.3541C19.4903 34.0981 19.1892 33.7691 18.8881 33.3883C18.6768 33.121 18.4576 32.8176 18.2198 32.4885C18.1214 32.3523 18.0198 32.2117 17.9142 32.0674C17.8646 31.9995 17.8472 31.9179 17.8592 31.8409C17.4917 31.6742 17.1279 31.5023 16.7694 31.3229C16.6194 31.2478 16.5586 31.0653 16.6336 30.9151ZM18.8005 32.2547C19.0022 32.5336 19.1851 32.7842 19.3644 33.0111C19.6515 33.3743 19.9135 33.655 20.198 33.8643C20.7466 34.2677 21.4308 34.4435 22.675 34.2941C22.8771 34.2698 23.1142 34.2591 23.3308 34.2493C23.3417 34.2488 23.3526 34.2484 23.3634 34.2479C23.4347 34.2446 23.503 34.2415 23.5677 34.238C22.9562 33.926 22.3291 33.6841 21.6814 33.4342C21.3641 33.3118 21.0419 33.1875 20.7142 33.0521C20.6005 33.0052 20.4869 32.9583 20.3732 32.9114C19.8473 32.6946 19.3216 32.4778 18.8005 32.2547ZM24.0674 34.1767C24.0675 34.1767 24.0665 34.1773 24.0643 34.1783C24.0662 34.1772 24.0673 34.1767 24.0674 34.1767Z" fill="black"/>
<path fill-rule="evenodd" clip-rule="evenodd" d="M40.9017 14.924C43.6159 14.9092 46.4443 15.9406 48.2193 17.7395C48.3372 17.8589 48.336 18.0513 48.2166 18.1693C48.0973 18.2872 47.905 18.286 47.7872 18.1666C46.1454 16.5029 43.4838 15.5178 40.905 15.5318C39.328 15.5404 37.8074 15.9212 36.5796 16.7279C36.5431 16.7725 36.4939 16.8069 36.4362 16.825C35.856 17.2298 35.3459 17.734 34.9323 18.3435C34.9165 18.4145 34.9026 18.4875 34.8906 18.5623C34.7459 19.4621 34.8791 20.5268 34.9885 21.4013C34.9914 21.4249 34.9944 21.4484 34.9973 21.4717C35.2669 23.6305 35.7226 25.1395 37.4027 26.3285C38.2305 26.9143 39.3013 27.4218 40.4171 27.7025C41.5348 27.9838 42.6743 28.0319 43.6515 27.7276C44.9907 27.3106 46.4407 26.1309 47.4743 24.6476C47.5702 24.5099 47.7595 24.4762 47.897 24.5722C48.0346 24.6682 48.0683 24.8577 47.9724 24.9954C46.8866 26.5537 45.336 27.8397 43.8319 28.308C43.1348 28.5251 42.3822 28.5813 41.6262 28.5202C41.6657 28.5908 41.677 28.677 41.6508 28.7602C41.6003 28.9203 41.4297 29.009 41.2698 28.9585C38.9817 28.2353 36.4041 27.0992 34.7893 25.4093C33.9769 24.559 33.398 23.5578 33.2348 22.3914C33.0714 21.2239 33.3294 19.9255 34.1288 18.4907C34.2044 18.3551 34.2838 18.2236 34.3669 18.0964C34.4646 17.7123 34.6212 17.3492 34.8655 17.0429C35.1748 16.6549 35.6097 16.3771 36.1922 16.255C37.5466 15.3477 39.2152 14.9332 40.9017 14.924ZM34.2234 19.69C33.8295 20.6619 33.7276 21.5306 33.8362 22.3071C33.9777 23.3178 34.4807 24.2068 35.2282 24.9891C35.3326 25.0983 35.4414 25.2052 35.5545 25.3098C34.8498 24.2469 34.5763 23.002 34.3946 21.5471C34.3905 21.514 34.3863 21.4804 34.382 21.4464C34.3177 20.9334 34.2402 20.3159 34.2234 19.69Z" fill="black"/>
<path fill-rule="evenodd" clip-rule="evenodd" d="M36.793 26.3925C36.9562 26.431 37.0573 26.5947 37.0188 26.7581C36.2544 29.9998 36.0104 32.733 35.8416 35.7361C35.8051 36.3842 35.7722 37.0453 35.7382 37.7269C35.6148 40.2024 35.478 42.9479 35.1114 46.3228C35.0933 46.4897 34.9435 46.6102 34.7767 46.5921C34.61 46.5739 34.4895 46.424 34.5077 46.2571C34.8721 42.9016 35.0079 40.178 35.1312 37.7045C35.1653 37.0205 35.1984 36.3557 35.2352 35.702C35.4049 32.6846 35.6514 29.9107 36.4277 26.6185C36.4662 26.4551 36.6298 26.3539 36.793 26.3925Z" fill="black"/>
<path fill-rule="evenodd" clip-rule="evenodd" d="M45.9934 39.4522L46.0007 39.4521C46.5087 39.4521 47.1416 39.6463 47.8356 39.9478C48.5378 40.2528 49.3362 40.683 50.1857 41.1869C51.8847 42.1946 53.8157 43.5135 55.6338 44.7569L55.6894 44.795C57.4932 46.0286 59.1773 47.1803 60.4309 47.8946C61.0695 48.2584 61.5682 48.492 61.9028 48.5745C62.0548 48.612 62.1346 48.6082 62.167 48.6012C62.1678 48.5974 62.1686 48.5928 62.1693 48.5871C62.1901 48.4206 62.3418 48.3024 62.5083 48.3232C62.6747 48.3441 62.7927 48.496 62.7719 48.6625C62.7585 48.7703 62.7232 48.8785 62.6529 48.9728C62.5813 49.069 62.4862 49.1333 62.3819 49.1707C62.1877 49.2402 61.964 49.2157 61.7574 49.1647C61.334 49.0603 60.7718 48.7883 60.1305 48.4228C58.855 47.6961 57.1547 46.5333 55.3666 45.3104L55.2912 45.2588C53.4689 44.0126 51.5549 42.7056 49.8761 41.7098C49.0367 41.212 48.2629 40.796 47.5938 40.5054C46.9185 40.212 46.382 40.0609 46.0042 40.06C44.0423 40.1078 42.623 40.5081 41.5393 41.0788C40.4547 41.65 39.6878 42.4015 39.0422 43.1799C38.755 43.5262 38.494 43.875 38.2372 44.2182C38.204 44.2626 38.1708 44.307 38.1377 44.3512C37.8507 44.7339 37.5649 45.1091 37.2602 45.4453C36.6465 46.1226 35.9378 46.663 34.931 46.8325C34.7656 46.8604 34.609 46.7488 34.5812 46.5832C34.5533 46.4177 34.6649 46.2609 34.8302 46.2331C35.6531 46.0945 36.2478 45.6579 36.8103 45.037C37.0938 44.7241 37.3643 44.3699 37.6519 43.9863C37.6847 43.9426 37.7177 43.8985 37.7509 43.854C38.0069 43.5119 38.2774 43.1505 38.5749 42.7917C39.2505 41.9771 40.0768 41.1621 41.2565 40.5408C42.4364 39.9194 43.9514 39.5015 45.9934 39.4522Z" fill="black"/>
<path fill-rule="evenodd" clip-rule="evenodd" d="M48.9418 26.1793C49.0515 26.0524 49.2433 26.0385 49.3701 26.1483C53.5221 29.7427 56.8684 34.2278 59.1776 38.4227C61.4804 42.6063 62.7749 46.5438 62.7749 49.0433C62.7749 49.2111 62.6389 49.3472 62.4712 49.3472C62.3035 49.3472 62.1675 49.2111 62.1675 49.0433C62.1675 46.6985 60.9325 42.8705 58.6456 38.716C56.3651 34.573 53.0616 30.1477 48.9728 26.608C48.846 26.4982 48.8321 26.3063 48.9418 26.1793Z" fill="black"/>
<path fill-rule="evenodd" clip-rule="evenodd" d="M50.8341 12.2875C50.7575 12.4176 50.6822 12.5452 50.6117 12.6576C47.8827 17.0063 47.9581 22.5667 48.5049 27.7309C48.7046 26.9252 49.0425 25.6015 49.4316 24.0775C50.3123 20.6275 51.4552 16.1506 51.8508 14.331C51.8896 14.1525 51.9389 13.9591 51.9887 13.7636C52.0045 13.7015 52.0203 13.6392 52.0359 13.5771C52.1018 13.3152 52.1649 13.0494 52.2097 12.7863C52.3008 12.2516 52.3074 11.7734 52.1448 11.3971C51.9895 11.0373 51.8733 11.0099 51.861 11.0083C51.8362 11.005 51.743 11.0198 51.5673 11.2041C51.4068 11.3726 51.2402 11.6168 51.0734 11.8873C50.993 12.0176 50.9152 12.1497 50.8395 12.2783L50.8341 12.2875ZM48.528 27.9469C48.5666 28.0225 48.6365 28.0816 48.7253 28.1036C48.8881 28.1441 49.0528 28.0448 49.0932 27.8818C49.2903 27.0865 49.6262 25.7706 50.0141 24.2513C50.8959 20.7969 52.0463 16.2907 52.4442 14.4602C52.4805 14.2932 52.526 14.1146 52.5751 13.922C52.5914 13.858 52.608 13.7925 52.6249 13.7254C52.6916 13.4602 52.7594 13.1758 52.8084 12.8884C52.9048 12.3221 52.9367 11.6985 52.7023 11.1559C52.5309 10.759 52.293 10.4524 51.9408 10.4057C51.6013 10.3606 51.3198 10.5831 51.1278 10.7846C50.9207 11.002 50.7265 11.2924 50.5565 11.5681C50.4729 11.7037 50.3924 11.8404 50.3175 11.9676L50.3109 11.9788C50.2333 12.1105 50.1625 12.2305 50.0974 12.3343C46.7913 17.6024 47.459 24.5204 48.1965 30.2892C48.2178 30.4557 48.3699 30.5734 48.5363 30.5521C48.7026 30.5308 48.8202 30.3786 48.7989 30.2121C48.7041 29.4698 48.6112 28.713 48.528 27.9469Z" fill="black"/>
<path fill-rule="evenodd" clip-rule="evenodd" d="M26.0163 16.1919C26.0554 16.5469 26.1293 16.906 26.2096 17.1828C26.6454 18.6851 27.8094 20.3039 28.7942 21.5795C29.8816 22.988 31.0529 24.3286 32.2311 25.6773C32.3042 25.761 32.3773 25.8447 32.4504 25.9284C32.5608 26.0548 32.5479 26.2468 32.4216 26.3573C32.2953 26.4677 32.1035 26.4548 31.9931 26.3284C31.9191 26.2436 31.845 26.1588 31.7709 26.074C30.5954 24.7284 29.4128 23.3748 28.3136 21.9511C27.3362 20.6851 26.0988 18.981 25.6264 17.3523C25.5362 17.0414 25.4555 16.6479 25.4126 16.2585C25.3703 15.8745 25.3616 15.4683 25.4317 15.1435C25.4668 14.9814 25.5266 14.8146 25.6333 14.681C25.7479 14.5375 25.9121 14.4399 26.118 14.4313C26.3089 14.4233 26.5007 14.4935 26.6861 14.6043C26.874 14.7167 27.0795 14.8855 27.3055 15.1117C29.2501 17.058 30.7465 19.1516 32.1624 21.2962C32.5449 21.8756 32.9209 22.4576 33.2979 23.0414C34.3209 24.6251 35.3523 26.2217 36.5446 27.8129C36.6453 27.9472 36.6181 28.1377 36.4839 28.2384C36.3497 28.3391 36.1594 28.3119 36.0588 28.1776C34.8527 26.5681 33.8044 24.9452 32.7778 23.3559C32.4031 22.7758 32.0312 22.2002 31.6557 21.6313C30.2471 19.4977 28.7772 17.4443 26.8761 15.5415C26.6701 15.3354 26.5043 15.2037 26.3745 15.1261C26.2421 15.047 26.1699 15.0375 26.1432 15.0386L26.143 15.0386C26.1314 15.0391 26.1245 15.0394 26.1076 15.0606C26.0827 15.0918 26.0502 15.1568 26.0254 15.272C25.9757 15.5017 25.9765 15.8315 26.0163 16.1919ZM32.9965 27.0183C33.1235 26.9087 33.3152 26.9229 33.4248 27.0501C34.4091 28.1928 35.3774 29.3568 36.2767 30.5808C36.376 30.716 36.347 30.9063 36.2119 31.0057C36.0768 31.1051 35.8867 31.0761 35.7874 30.9409C34.9019 29.7355 33.9454 28.5853 32.9648 27.447C32.8553 27.3199 32.8695 27.1279 32.9965 27.0183Z" fill="black"/>
<path fill-rule="evenodd" clip-rule="evenodd" d="M39.9858 23.0047C39.2238 23.0505 38.5158 23.093 37.7016 23.093C37.5339 23.093 37.3979 22.9569 37.3979 22.7891C37.3979 22.6212 37.5339 22.4851 37.7016 22.4851C38.4967 22.4851 39.187 22.4437 39.951 22.3978C40.0274 22.3932 40.1044 22.3886 40.1824 22.384C41.0403 22.333 42.0008 22.2818 43.287 22.2817C43.3152 22.2817 43.3433 22.2857 43.3704 22.2934C43.5562 22.3466 43.6572 22.4924 43.6977 22.6338C43.7351 22.7643 43.7283 22.9062 43.7058 23.0345C43.6599 23.2958 43.5295 23.6048 43.34 23.9038C42.9621 24.4998 42.2916 25.1437 41.392 25.3074C40.0324 25.5548 38.7958 24.9318 37.9335 23.8961C37.8262 23.7672 37.8436 23.5755 37.9724 23.4681C38.1013 23.3606 38.2927 23.378 38.4001 23.507C39.16 24.4197 40.1915 24.908 41.2833 24.7093C41.96 24.5862 42.5043 24.0874 42.8272 23.5781C42.988 23.3245 43.0794 23.0902 43.1076 22.9292C43.1101 22.9151 43.112 22.902 43.1135 22.8899C41.9313 22.8943 41.0324 22.9424 40.2184 22.9908C40.1402 22.9954 40.0627 23.0001 39.9858 23.0047Z" fill="black"/>
<path fill-rule="evenodd" clip-rule="evenodd" d="M27.196 14.684C27.5343 14.9328 27.7926 15.2833 27.8233 15.7438C27.8362 15.9365 27.829 16.1192 27.8042 16.2908C27.8542 16.6234 27.8438 16.9669 27.8122 17.2829C27.7829 17.575 27.6951 17.8977 27.5001 18.1251C27.3983 18.2438 27.2628 18.3409 27.092 18.3829C26.9216 18.4249 26.7433 18.4055 26.5663 18.3382C26.3125 18.2418 26.0983 18.1301 25.9234 17.9991C25.3052 18.0174 24.6587 17.7581 24.1743 17.2C24.0385 17.0435 23.9539 16.8301 23.9023 16.6206C23.8492 16.4051 23.824 16.1644 23.8261 15.9286C23.8282 15.6933 23.8576 15.4521 23.9208 15.237C23.9704 15.0685 24.0466 14.8958 24.164 14.7575C24.077 14.7816 24.0057 14.8093 23.9522 14.839C23.8055 14.9204 23.6206 14.8674 23.5393 14.7205C23.458 14.5737 23.511 14.3887 23.6577 14.3074C23.9235 14.1599 24.3078 14.0874 24.7043 14.0686C25.1102 14.0493 25.5673 14.0845 26.0016 14.1811C26.4332 14.2772 26.8619 14.4382 27.196 14.684ZM25.4197 17.3252C25.1388 17.2392 24.8646 17.0684 24.6328 16.8013C24.587 16.7486 24.5328 16.6411 24.4919 16.4751C24.4525 16.3151 24.4317 16.1257 24.4334 15.9341C24.4351 15.742 24.4594 15.5585 24.5035 15.4086C24.5492 15.2531 24.6071 15.1639 24.6534 15.124C24.7041 15.0803 24.8038 15.0388 24.9756 15.0276C25.1426 15.0167 25.3439 15.0367 25.5584 15.0799C25.6187 15.0921 25.6789 15.1059 25.7384 15.1209C25.7081 15.2242 25.6768 15.3277 25.6458 15.4303C25.5799 15.6479 25.5155 15.861 25.465 16.0581C25.3888 16.3555 25.3338 16.6541 25.349 16.9387C25.356 17.0709 25.3782 17.2003 25.4197 17.3252ZM26.7918 17.7736C26.8722 17.8025 26.9205 17.7992 26.9469 17.7927C26.974 17.786 27.0046 17.7695 27.0393 17.7291C27.0775 17.6846 27.113 17.6191 27.1421 17.536C27.0344 17.6283 26.9169 17.7078 26.7918 17.7736ZM27.1886 16.2909C27.0827 16.8278 26.7397 17.1675 26.3361 17.3113C26.2694 17.3351 26.2003 17.3538 26.1296 17.3672C26.1289 17.3663 26.1282 17.3655 26.1275 17.3647C26.017 17.2347 25.9651 17.0885 25.9554 16.9063C25.9452 16.7152 25.9818 16.4882 26.0533 16.209C26.1006 16.0242 26.1585 15.833 26.2218 15.6241C26.2521 15.5237 26.2838 15.4192 26.3161 15.3094C26.4423 15.3605 26.5495 15.4114 26.6269 15.4556C26.945 15.6371 27.1159 15.9256 27.1886 16.2909Z" fill="black"/>
<path fill-rule="evenodd" clip-rule="evenodd" d="M53.6386 10.248C54.5368 10.504 55.4576 11.2067 55.4576 12.2244C55.4576 12.2653 55.4578 12.3091 55.4581 12.3551C55.4595 12.6249 55.4614 12.9735 55.4186 13.3096C55.3692 13.697 55.2538 14.1348 54.9506 14.4383C54.7813 14.6077 54.5555 14.6295 54.3844 14.6159C54.2079 14.6018 54.0241 14.5458 53.863 14.4842C53.6364 14.3975 53.3903 14.271 53.2452 14.1958C52.64 14.1221 52.0434 13.8749 51.6001 13.4951C51.2754 13.217 51.0216 12.8576 50.9187 12.4303C50.8149 11.999 50.8715 11.5261 51.1216 11.0394C51.5995 10.1093 52.7424 9.99249 53.6386 10.248ZM54.5175 14.0069C54.521 14.006 54.5235 14.0051 54.5251 14.0045C54.5276 14.0019 54.5301 13.9993 54.5326 13.9967C54.5276 14.0001 54.5226 14.0035 54.5175 14.0069ZM54.3517 11.2858C54.1175 11.0884 53.8145 10.9301 53.4723 10.8326C52.8053 10.6425 52.1792 10.7342 51.8312 11.0844C51.9844 11.0951 52.1078 11.2202 52.1132 11.3773C52.1354 12.0339 52.1875 12.4424 52.3528 12.7568C52.5102 13.0561 52.7942 13.311 53.389 13.5874C53.3995 13.5923 53.4103 13.5974 53.4215 13.6029C53.6033 13.6177 53.7845 13.6127 53.9582 13.5859C54.1734 13.5528 54.34 13.4048 54.4621 13.1571C54.5855 12.9068 54.6412 12.5924 54.6412 12.329C54.6412 12.1186 54.6262 12.004 54.6066 11.9415C54.6018 11.9262 54.5976 11.9172 54.5952 11.9125C54.5774 11.9056 54.5292 11.8948 54.4046 11.8937C54.3425 11.8932 54.2721 11.8947 54.1868 11.8967L54.1858 11.8967C54.1016 11.8986 54.0056 11.9007 53.8998 11.9007C53.7321 11.9007 53.5962 11.7646 53.5962 11.5968C53.5962 11.4289 53.7321 11.2928 53.8998 11.2928C53.998 11.2928 54.0877 11.2909 54.1721 11.289L54.1792 11.2888C54.2384 11.2875 54.2965 11.2862 54.3517 11.2858ZM51.5188 11.6879C51.5383 12.0402 51.5747 12.3573 51.6578 12.6436C51.5892 12.5308 51.539 12.4117 51.5092 12.2879C51.4661 12.1091 51.4627 11.9089 51.5188 11.6879ZM54.5273 14.0035C54.5273 14.0035 54.5271 14.0036 54.5268 14.0038C54.5271 14.0036 54.5273 14.0035 54.5273 14.0035Z" fill="black"/>
<path fill-rule="evenodd" clip-rule="evenodd" d="M68.3448 6.92058C69.3623 6.3209 70.5385 5.99206 71.8338 6.01749C71.9767 6.02029 72.0946 6.12139 72.1243 6.25505C73.2167 6.21745 74.3163 6.32431 75.4015 6.61466C76.4644 6.89905 77.6872 7.40271 78.7197 8.13808C79.7508 8.87238 80.6184 9.85732 80.9137 11.1096C81.4289 13.2947 80.3116 15.8139 78.8892 17.3375C77.155 19.195 75.0447 19.3762 72.7257 19.0464C70.0982 18.6726 67.7167 17.1421 66.1603 15.0203C65.6261 14.292 65.1917 13.5616 65.0143 12.7706C64.8341 11.9674 64.9244 11.1277 65.3903 10.1951C65.616 9.74325 65.8744 9.31797 66.1629 8.92445C64.8825 10.3904 64.6753 12.0658 65.1301 13.5797C65.6973 15.4682 67.303 17.1274 69.2309 17.8144C69.3889 17.8707 69.4713 18.0446 69.4151 18.2027C69.3588 18.3608 69.1851 18.4434 69.0271 18.3871C66.9254 17.638 65.1738 15.8365 64.5484 13.7547C63.9155 11.6476 64.4448 9.27539 66.8616 7.46125C66.8829 7.44524 66.9062 7.43211 66.931 7.4222C67.3941 7.23681 67.866 7.06835 68.3448 6.92058ZM68.5936 7.48002C67.4819 8.15159 66.5734 9.186 65.9335 10.4669C65.5246 11.2855 65.46 11.9827 65.6069 12.6375C65.7565 13.3045 66.131 13.9532 66.6499 14.6605C68.1181 16.6621 70.3591 18.0957 72.8112 18.4445C75.0483 18.7628 76.9099 18.5672 78.4454 16.9225C79.7866 15.486 80.7747 13.1665 80.3226 11.2492C80.0732 10.1919 79.3297 9.31857 78.3676 8.63336C77.407 7.94921 76.2546 7.47212 75.2446 7.2019C73.0483 6.61425 70.7663 6.81983 68.5936 7.48002Z" fill="black"/>
<path fill-rule="evenodd" clip-rule="evenodd" d="M68.5773 17.1945C68.5806 17.3623 68.4474 17.501 68.2797 17.5043C67.7276 17.5151 66.7671 17.7477 65.5686 18.1417C64.382 18.5319 62.9961 19.0685 61.61 19.6639C59.005 20.7828 56.4421 22.0908 55.1977 23.0063C59.574 28.45 64.6053 33.624 70.8956 36.1649C71.7063 36.4924 72.5528 36.8011 73.35 37.0021C74.1522 37.2044 74.8772 37.2903 75.4549 37.1953C76.017 37.1029 76.4229 36.8445 76.652 36.3512C76.8922 35.834 76.9613 35.011 76.7085 33.7461C75.318 26.7875 74.7952 24.4434 74.4806 23.1366C74.4121 22.8519 74.3533 22.6157 74.2974 22.3913C74.0961 21.5831 73.9332 20.9291 73.4941 18.7204C73.4614 18.5558 73.5682 18.3957 73.7327 18.363C73.8972 18.3302 74.057 18.4371 74.0898 18.6017C74.5261 20.7964 74.6864 21.44 74.8869 22.2452C74.9429 22.4699 75.002 22.7072 75.0711 22.9942C75.3886 24.3134 75.9134 26.6676 77.3041 33.6269C77.5667 34.9411 77.5232 35.9175 77.2028 36.6074C76.8712 37.3212 76.2683 37.6775 75.5533 37.7951C74.8539 37.9101 74.0334 37.8013 73.2016 37.5915C72.3649 37.3805 71.4888 37.06 70.6683 36.7286C64.1319 34.0882 58.9632 28.6911 54.5299 23.1446C54.4257 23.0142 54.4461 22.8241 54.5756 22.7189C55.7777 21.7414 58.5881 20.3005 61.3705 19.1053C62.7682 18.505 64.1712 17.9613 65.379 17.5642C66.5748 17.1711 67.6142 16.9094 68.2678 16.8965C68.4355 16.8933 68.5741 17.0266 68.5773 17.1945Z" fill="black"/>
<path fill-rule="evenodd" clip-rule="evenodd" d="M61.624 0.378136C61.7549 0.482996 61.7761 0.674259 61.6714 0.805334C59.9727 2.93058 58.8337 6.31198 58.801 9.14384C58.7572 12.9507 60.4182 16.4436 64.0272 18.0089C64.1811 18.0756 64.2518 18.2546 64.1851 18.4086C64.1184 18.5626 63.9396 18.6334 63.7857 18.5667C59.8958 16.8795 58.1478 13.1204 58.1938 9.13682C58.2278 6.18094 59.4068 2.66546 61.1971 0.425602C61.3019 0.294527 61.493 0.273276 61.624 0.378136Z" fill="black"/>
<path fill-rule="evenodd" clip-rule="evenodd" d="M72.4835 22.0085C72.5431 21.8516 72.7186 21.7728 72.8753 21.8324C77.8518 23.7266 82.9193 25.4686 88.0005 27.0753C87.8729 26.9903 87.7437 26.8965 87.6234 26.7972C87.4065 26.6183 87.1849 26.3948 87.076 26.148C87.0191 26.0192 86.9852 25.8665 87.0168 25.7049C87.0492 25.5393 87.1432 25.401 87.2758 25.2924C87.4335 25.1633 87.6381 25.1242 87.8082 25.1134C87.9869 25.102 88.1809 25.1191 88.3618 25.1456C88.6466 25.1874 88.9378 25.2595 89.1258 25.306C89.1746 25.3181 89.2165 25.3285 89.2495 25.3362C90.1589 25.5474 91.0696 25.9459 91.8949 26.307C91.9347 26.3244 91.9743 26.3418 92.0137 26.359C92.1043 26.3986 92.2055 26.441 92.3137 26.4864C92.6145 26.6126 92.9694 26.7615 93.2997 26.9341C93.747 27.1677 94.2094 27.4733 94.4806 27.8894C94.5717 28.0293 94.6311 28.1934 94.5998 28.3668C94.5679 28.5444 94.4538 28.6619 94.3453 28.7324C94.145 28.8624 93.8744 28.894 93.6979 28.894C92.0705 28.894 90.3823 28.4582 88.8872 27.9911C83.4385 26.289 77.9975 24.4324 72.6594 22.4006C72.5027 22.3409 72.4239 22.1654 72.4835 22.0085ZM90.0776 27.7091C90.2123 27.7463 90.3477 27.7824 90.4835 27.8173C90.4426 27.7932 90.407 27.7592 90.3806 27.7167C90.3772 27.7146 90.3727 27.712 90.3668 27.709C90.3326 27.6911 90.2784 27.671 90.1986 27.6485C90.1952 27.6475 90.1918 27.6465 90.1883 27.6456C90.1671 27.6612 90.1442 27.6756 90.1198 27.6887C90.1059 27.6961 90.0918 27.7029 90.0776 27.7091ZM90.4161 27.0788C90.4029 26.9546 90.3511 26.8246 90.3 26.7219C90.2352 26.5917 90.1446 26.4521 90.0382 26.3364C89.9403 26.2299 89.7899 26.1003 89.5993 26.0679C89.4943 26.0501 89.3807 26.0629 89.2739 26.1208C89.1711 26.1765 89.0959 26.2623 89.041 26.3556C88.9627 26.4889 88.9098 26.6294 88.9053 26.7746C88.9039 26.8183 88.9071 26.8605 88.9142 26.9009C88.8405 26.8659 88.7411 26.8146 88.6252 26.7479C88.426 26.6331 88.2008 26.4858 88.0096 26.3281C87.8107 26.164 87.6811 26.0148 87.6315 25.9023C87.609 25.8514 87.6117 25.8277 87.6128 25.8217L87.6129 25.8215C87.6134 25.8187 87.6172 25.7982 87.6604 25.7629C87.6702 25.7548 87.7193 25.7281 87.8467 25.72C87.9654 25.7125 88.1125 25.7234 88.2738 25.747C88.5254 25.7839 88.7736 25.8453 88.9623 25.8919C89.0179 25.9056 89.0683 25.9181 89.1122 25.9283C89.9653 26.1265 90.8294 26.5044 91.6692 26.8717C91.7031 26.8865 91.7369 26.9013 91.7707 26.9161C91.8764 26.9622 91.9873 27.0088 92.1017 27.0568C92.3961 27.1803 92.7129 27.3132 93.0187 27.473C93.445 27.6956 93.7896 27.9417 93.9719 28.2215C93.976 28.2278 93.9795 28.2336 93.9826 28.2388C93.9597 28.2484 93.9282 28.2586 93.8878 28.2671C93.8257 28.2801 93.7579 28.2861 93.6979 28.2861C92.698 28.2861 91.6622 28.1105 90.6504 27.8594C90.6921 27.8578 90.7342 27.8474 90.7739 27.8275C90.924 27.7525 90.9848 27.5699 90.9098 27.4198C90.845 27.29 90.733 27.2145 90.6475 27.1699C90.5746 27.1319 90.4939 27.1026 90.4161 27.0788ZM94.0012 28.2798C94.0012 28.2798 94.0011 28.2794 94.001 28.2787C94.0012 28.2794 94.0012 28.2798 94.0012 28.2798ZM89.6979 26.8894C89.5839 26.8488 89.5308 26.8136 89.5124 26.7919C89.5131 26.7821 89.5176 26.7534 89.5438 26.7015C89.5571 26.713 89.573 26.7281 89.5912 26.7479C89.6285 26.7885 89.6652 26.8375 89.6979 26.8894ZM90.3886 27.7222C90.3886 27.7222 90.3883 27.722 90.3877 27.7215C90.3884 27.722 90.3886 27.7222 90.3886 27.7222Z" fill="black"/>
<path fill-rule="evenodd" clip-rule="evenodd" d="M62.3429 1.05435C62.2138 1.07634 62.0937 1.10007 61.9901 1.12258C61.768 1.29515 61.5645 1.49437 61.3843 1.71452C61.4072 1.71234 61.43 1.71029 61.4521 1.70829C61.4703 1.70666 61.488 1.70506 61.5051 1.70346C61.5969 1.69487 61.6807 1.68555 61.7574 1.67052C61.9219 1.6383 61.9841 1.59258 62.0083 1.555C62.1038 1.40619 62.1951 1.27195 62.2838 1.14139C62.3036 1.11223 62.3233 1.08326 62.3429 1.05435ZM61.7295 0.558471C61.6637 0.57409 61.6069 0.588661 61.5614 0.601267C61.1434 0.717118 60.8405 1.06779 60.6222 1.38454C60.5086 1.54935 60.4068 1.72208 60.3168 1.87806C60.3005 1.90642 60.2846 1.93401 60.2692 1.96085C60.1972 2.08602 60.1348 2.19463 60.0755 2.2862C59.9843 2.42705 60.0244 2.61525 60.1651 2.70657C60.2214 2.74308 60.2852 2.75857 60.3474 2.75502C60.3508 2.84579 60.3653 2.93789 60.3967 3.02627C60.472 3.23831 60.6368 3.40373 60.8895 3.46698C61.2812 3.56499 61.6546 3.47291 61.9706 3.34559C62.1731 3.26399 62.387 3.15108 62.5722 3.05338C62.6612 3.00637 62.7436 2.96288 62.8149 2.9281C63.0189 2.82849 63.4885 2.51027 63.8604 2.1446C64.0464 1.96176 64.2287 1.74726 64.3365 1.52371C64.4442 1.30047 64.5049 1.00222 64.3192 0.733107C64.1633 0.506983 63.8883 0.422983 63.6627 0.387365C63.5605 0.371236 63.4519 0.362542 63.3404 0.359473C63.3397 0.35232 63.3388 0.345145 63.3378 0.337955C63.3271 0.264941 63.2948 0.178402 63.22 0.108028C63.1462 0.0385991 63.0589 0.0111562 62.986 0.00300462C62.8554 -0.0116036 62.7181 0.0292885 62.598 0.0773626C62.2888 0.201163 61.9977 0.364019 61.7295 0.558471ZM63.1245 0.96819C63.291 0.962455 63.4426 0.968005 63.5681 0.987809C63.7585 1.01787 63.8127 1.0687 63.8195 1.07849C63.8267 1.0889 63.8528 1.12831 63.7896 1.2595C63.7264 1.3904 63.6015 1.54712 63.4349 1.71093C63.1016 2.03858 62.6845 2.31541 62.5486 2.38177C62.4408 2.43441 62.341 2.48735 62.2439 2.5389C62.0785 2.62669 61.9207 2.71042 61.7438 2.7817C61.479 2.88838 61.2484 2.93021 61.0368 2.87726C60.9875 2.86492 60.9783 2.84895 60.969 2.82263C60.9522 2.77537 60.9458 2.68859 60.969 2.56002C60.9878 2.4564 61.0212 2.34923 61.0594 2.25131C61.1246 2.31445 61.2171 2.34786 61.3138 2.33403C61.3679 2.3263 61.4268 2.32096 61.4976 2.31455C61.5179 2.31271 61.5392 2.31079 61.5616 2.30869C61.6563 2.29983 61.7657 2.28831 61.8741 2.26706C62.08 2.22672 62.3557 2.1382 62.5191 1.88371C62.5944 1.7666 62.6804 1.63951 62.769 1.50872C62.8899 1.3301 63.0155 1.14459 63.1245 0.96819Z" fill="black"/>
<path fill-rule="evenodd" clip-rule="evenodd" d="M71.7985 12.408C71.9033 12.2769 72.0944 12.2557 72.2253 12.3606C74.2764 14.0029 76.1087 14.6521 77.5096 14.8119C78.2112 14.8919 78.8043 14.8492 79.264 14.7475C79.7302 14.6444 80.0387 14.4854 80.1902 14.3516C80.316 14.2405 80.5079 14.2525 80.6188 14.3784C80.7298 14.5042 80.7178 14.6963 80.592 14.8074C80.3359 15.0335 79.9187 15.2252 79.395 15.3411C78.8647 15.4584 78.2037 15.5028 77.4409 15.4158C75.9129 15.2416 73.9751 14.5401 71.8459 12.8352C71.715 12.7304 71.6937 12.5391 71.7985 12.408Z" fill="black"/>
</svg>
