<svg width="7" height="7" viewBox="0 0 7 7" fill="none" xmlns="http://www.w3.org/2000/svg">
<path fill-rule="evenodd" clip-rule="evenodd" d="M3.48022 2.00077C3.48022 1.82735 3.62081 1.68677 3.79422 1.68677H5.44272C5.61614 1.68677 5.75672 1.82735 5.75672 2.00077V2.66802C5.75672 2.84143 5.61614 2.98202 5.44272 2.98202H3.79422C3.62081 2.98202 3.48022 2.84144 3.48022 2.66802V2.00077ZM5.44272 2.00077H3.79422V2.66802H5.44272V2.00077Z" fill="#F3F3FA"/>
<path fill-rule="evenodd" clip-rule="evenodd" d="M3.48022 3.84324C3.48022 3.66982 3.62081 3.52924 3.79422 3.52924H5.44272C5.61614 3.52924 5.75672 3.66982 5.75672 3.84324V4.51049C5.75672 4.6839 5.61614 4.82449 5.44272 4.82449H3.79422C3.62081 4.82449 3.48022 4.6839 3.48022 4.51049V3.84324ZM5.44272 3.84324H3.79422V4.51049H5.44272V3.84324Z" fill="#F3F3FA"/>
<path fill-rule="evenodd" clip-rule="evenodd" d="M0.659424 1.99741C0.659424 1.82399 0.800006 1.68341 0.973424 1.68341H2.62192C2.79534 1.68341 2.93592 1.82399 2.93592 1.99741V2.66466C2.93592 2.83808 2.79534 2.97866 2.62192 2.97866H0.973424C0.800006 2.97866 0.659424 2.83808 0.659424 2.66466V1.99741ZM2.62192 1.99741H0.973424V2.66466H2.62192V1.99741Z" fill="#F3F3FA"/>
<path fill-rule="evenodd" clip-rule="evenodd" d="M3.59921 2.57621H2.81421V2.26221H3.59921V2.57621Z" fill="#F3F3FA"/>
<path fill-rule="evenodd" clip-rule="evenodd" d="M1.98978 2.90985V3.49859C1.98978 3.4986 1.98978 3.49859 1.98978 3.49859C1.98979 3.62904 2.01161 3.71983 2.04374 3.78409C2.07484 3.84629 2.11949 3.89163 2.18052 3.92651C2.31248 4.00192 2.51917 4.02848 2.81395 4.02848H3.59895V4.34248H2.81395C2.52006 4.34248 2.23618 4.31997 2.02473 4.19913C1.91405 4.13588 1.82379 4.0463 1.76289 3.92452C1.70303 3.80479 1.67579 3.66253 1.67578 3.49861V2.90985H1.98978Z" fill="#F3F3FA"/>
</svg>
