<svg width="31" height="30" viewBox="0 0 31 30" fill="none" xmlns="http://www.w3.org/2000/svg">
<path d="M8.48388 17.3632H3.80646V26.718C4.2742 28.1213 4.74194 28.1213 6.14517 28.589C7.26775 28.9632 8.17205 27.4976 8.48388 26.718V17.3632Z" fill="#FF8CBC"/>
<path d="M17.9322 17.5503H13.2548V26.9051C13.7226 28.3084 14.1903 28.3084 15.5935 28.7761C16.7161 29.1503 17.6204 27.6847 17.9322 26.9051V17.5503Z" fill="#FF8CBC"/>
<path d="M27.1935 17.5503H22.5161V26.9051C22.9839 28.3084 23.4516 28.3084 24.8548 28.7761C25.9774 29.1503 26.8817 27.6847 27.1935 26.9051V17.5503Z" fill="#FF8CBC"/>
<path d="M6.14513 15.0567C6.42128 15.0567 6.64513 14.8329 6.64513 14.5567C6.64513 14.2806 6.42128 14.0567 6.14513 14.0567V15.0567ZM3.33868 13.1858H8.95159V12.1858H3.33868V13.1858ZM8.95159 14.0567H8.49256V15.0567H8.95159V14.0567ZM3.80642 14.0567H3.33868V15.0567H3.80642V14.0567ZM3.80642 15.0567H6.14513V14.0567H3.80642V15.0567ZM7.98384 14.5654V26.2503H8.98384V14.5654H7.98384ZM3.80642 22.0729H6.14513V21.0729H3.80642V22.0729ZM4.30642 26.2503V23.4438H3.30642V26.2503H4.30642ZM4.30642 23.4438V21.5729H3.30642V23.4438H4.30642ZM6.14513 22.9438H3.80642V23.9438H6.14513V22.9438ZM4.30642 21.5729V19.7019H3.30642V21.5729H4.30642ZM4.30642 19.7019V14.5567H3.30642V19.7019H4.30642ZM3.80642 20.2019H6.14513V19.2019H3.80642V20.2019ZM3.33868 14.0567C3.09817 14.0567 2.9032 13.8618 2.9032 13.6212H1.9032C1.9032 14.414 2.54589 15.0567 3.33868 15.0567V14.0567ZM9.38707 13.6212C9.38707 13.8618 9.1921 14.0567 8.95159 14.0567V15.0567C9.74438 15.0567 10.3871 14.414 10.3871 13.6212H9.38707ZM6.14513 28.089C5.12964 28.089 4.30642 27.2658 4.30642 26.2503H3.30642C3.30642 27.8181 4.57736 29.089 6.14513 29.089V28.089ZM6.14513 29.089C7.71291 29.089 8.98384 27.8181 8.98384 26.2503H7.98384C7.98384 27.2658 7.16062 28.089 6.14513 28.089V29.089ZM8.95159 13.1858C9.1921 13.1858 9.38707 13.3807 9.38707 13.6212H10.3871C10.3871 12.8284 9.74438 12.1858 8.95159 12.1858V13.1858ZM8.49256 14.0567C8.2116 14.0567 7.98384 14.2845 7.98384 14.5654H8.98384C8.98384 14.8368 8.76389 15.0567 8.49256 15.0567V14.0567ZM3.33868 12.1858C2.54589 12.1858 1.9032 12.8284 1.9032 13.6212H2.9032C2.9032 13.3807 3.09817 13.1858 3.33868 13.1858V12.1858Z" fill="#9A0041"/>
<path d="M15.5 15.0567C15.7761 15.0567 16 14.8329 16 14.5567C16 14.2806 15.7761 14.0567 15.5 14.0567V15.0567ZM12.6935 13.1858H18.3064V12.1858H12.6935V13.1858ZM18.3064 14.0567H17.8474V15.0567H18.3064V14.0567ZM13.1613 14.0567H12.6935V15.0567H13.1613V14.0567ZM13.1613 15.0567H15.5V14.0567H13.1613V15.0567ZM17.3387 14.5654V26.2503H18.3387V14.5654H17.3387ZM13.1613 22.0729H15.5V21.0729H13.1613V22.0729ZM13.6613 26.2503V23.4438H12.6613V26.2503H13.6613ZM13.6613 23.4438V21.5729H12.6613V23.4438H13.6613ZM15.5 22.9438H13.1613V23.9438H15.5V22.9438ZM13.6613 21.5729V19.7019H12.6613V21.5729H13.6613ZM13.6613 19.7019V14.5567H12.6613V19.7019H13.6613ZM13.1613 20.2019H15.5V19.2019H13.1613V20.2019ZM12.6935 14.0567C12.453 14.0567 12.2581 13.8618 12.2581 13.6212H11.2581C11.2581 14.414 11.9007 15.0567 12.6935 15.0567V14.0567ZM18.7419 13.6212C18.7419 13.8618 18.547 14.0567 18.3064 14.0567V15.0567C19.0992 15.0567 19.7419 14.414 19.7419 13.6212H18.7419ZM15.5 28.089C14.4845 28.089 13.6613 27.2658 13.6613 26.2503H12.6613C12.6613 27.8181 13.9322 29.089 15.5 29.089V28.089ZM15.5 29.089C17.0678 29.089 18.3387 27.8181 18.3387 26.2503H17.3387C17.3387 27.2658 16.5155 28.089 15.5 28.089V29.089ZM18.3064 13.1858C18.547 13.1858 18.7419 13.3807 18.7419 13.6212H19.7419C19.7419 12.8284 19.0992 12.1858 18.3064 12.1858V13.1858ZM17.8474 14.0567C17.5665 14.0567 17.3387 14.2845 17.3387 14.5654H18.3387C18.3387 14.8368 18.1187 15.0567 17.8474 15.0567V14.0567ZM12.6935 12.1858C11.9007 12.1858 11.2581 12.8284 11.2581 13.6212H12.2581C12.2581 13.3807 12.453 13.1858 12.6935 13.1858V12.1858Z" fill="#9A0041"/>
<path d="M24.8549 15.0567C25.131 15.0567 25.3549 14.8329 25.3549 14.5567C25.3549 14.2806 25.131 14.0567 24.8549 14.0567V15.0567ZM22.0484 13.1858H27.6613V12.1858H22.0484V13.1858ZM27.6613 14.0567H27.2023V15.0567H27.6613V14.0567ZM22.5161 14.0567H22.0484V15.0567H22.5161V14.0567ZM22.5161 15.0567H24.8549V14.0567H22.5161V15.0567ZM26.6936 14.5654V26.2503H27.6936V14.5654H26.6936ZM22.5161 22.0729H24.8549V21.0729H22.5161V22.0729ZM23.0161 26.2503V23.4438H22.0161V26.2503H23.0161ZM23.0161 23.4438V21.5729H22.0161V23.4438H23.0161ZM24.8549 22.9438H22.5161V23.9438H24.8549V22.9438ZM23.0161 21.5729V19.7019H22.0161V21.5729H23.0161ZM23.0161 19.7019V14.5567H22.0161V19.7019H23.0161ZM22.5161 20.2019H24.8549V19.2019H22.5161V20.2019ZM22.0484 14.0567C21.8079 14.0567 21.6129 13.8618 21.6129 13.6212H20.6129C20.6129 14.414 21.2556 15.0567 22.0484 15.0567V14.0567ZM28.0968 13.6212C28.0968 13.8618 27.9018 14.0567 27.6613 14.0567V15.0567C28.4541 15.0567 29.0968 14.414 29.0968 13.6212H28.0968ZM24.8549 28.089C23.8394 28.089 23.0161 27.2658 23.0161 26.2503H22.0161C22.0161 27.8181 23.2871 29.089 24.8549 29.089V28.089ZM24.8549 29.089C26.4226 29.089 27.6936 27.8181 27.6936 26.2503H26.6936C26.6936 27.2658 25.8703 28.089 24.8549 28.089V29.089ZM27.6613 13.1858C27.9018 13.1858 28.0968 13.3807 28.0968 13.6212H29.0968C29.0968 12.8284 28.4541 12.1858 27.6613 12.1858V13.1858ZM27.2023 14.0567C26.9213 14.0567 26.6936 14.2845 26.6936 14.5654H27.6936C27.6936 14.8368 27.4736 15.0567 27.2023 15.0567V14.0567ZM22.0484 12.1858C21.2556 12.1858 20.6129 12.8284 20.6129 13.6212H21.6129C21.6129 13.3807 21.8079 13.1858 22.0484 13.1858V12.1858Z" fill="#9A0041"/>
<path d="M1 17.3632H30" stroke="#9A0041" stroke-linecap="round" stroke-linejoin="round"/>
<path d="M3.80646 8.00836C5.09809 8.00836 6.14517 6.75186 6.14517 5.2019C6.14517 6.75186 7.19224 8.00836 8.48388 8.00836C7.19224 8.00836 6.14517 9.26485 6.14517 10.8148C6.14517 9.26485 5.09809 8.00836 3.80646 8.00836Z" stroke="#9A0041" stroke-linejoin="round"/>
<path d="M11.7581 5.2019C13.5663 5.2019 15.0322 3.52657 15.0322 1.45996C15.0322 3.52657 16.4982 5.2019 18.3064 5.2019C16.4982 5.2019 15.0322 6.87722 15.0322 8.94383C15.0322 6.87722 13.5663 5.2019 11.7581 5.2019Z" stroke="#9A0041" stroke-linejoin="round"/>
<path d="M22.5161 8.00836C23.8077 8.00836 24.8548 6.75186 24.8548 5.2019C24.8548 6.75186 25.9019 8.00836 27.1935 8.00836C25.9019 8.00836 24.8548 9.26485 24.8548 10.8148C24.8548 9.26485 23.8077 8.00836 22.5161 8.00836Z" stroke="#9A0041" stroke-linejoin="round"/>
</svg>
