<svg width="216" height="270" viewBox="0 0 216 270" fill="none" xmlns="http://www.w3.org/2000/svg">
<g style="mix-blend-mode:overlay" opacity="0.24">
<path d="M117.179 170.072V170.072C132.231 147.194 135.975 118.681 127.339 92.6922L120.204 71.2198" stroke="#D9DAE5" stroke-opacity="0.5" stroke-width="0.907126"/>
<path fill-rule="evenodd" clip-rule="evenodd" d="M136.608 136.038C136.308 136.612 135.825 137.197 135.211 137.746C134.653 138.244 134.109 138.669 133.593 139.02C133.051 139.598 132.447 140.169 131.877 140.592C131.489 140.88 130.881 141.275 130.346 141.342C129.734 141.419 129.586 141.034 129.616 140.63C129.633 140.404 129.738 140.154 129.868 139.922C129.846 139.896 129.826 139.868 129.808 139.839C129.527 139.381 129.742 138.522 130.593 137.535C131.372 136.631 132.474 135.863 133.705 135.273C133.192 135.118 132.543 135.114 131.883 135.281C131.185 135.457 130.578 135.791 130.082 136.234C129.497 136.756 128.83 136.962 128.592 136.694C128.355 136.425 128.637 135.783 129.223 135.261C130.513 134.109 131.828 133.489 132.912 133.215C133.993 132.943 134.946 132.984 135.644 133.229C136.332 133.47 136.859 133.94 136.936 134.653C136.975 135.017 136.899 135.48 136.608 136.038Z" fill="#D9DAE5"/>
<g filter="url(#filter0_dd_2_51159)">
<rect x="101.495" y="31.5947" width="36.285" height="36.285" rx="3.6285" fill="white"/>
<path d="M114.288 40.3027C112.029 40.3027 110.206 42.1261 110.206 44.3848C110.206 46.6435 112.029 48.4669 114.288 48.4669H115.649V51.1882H114.288C112.029 51.1882 110.206 53.0116 110.206 55.2703C110.206 57.5291 112.029 59.3524 114.288 59.3524C116.547 59.3524 118.37 57.5291 118.37 55.2703V53.9096H121.092V55.2703C121.092 57.5291 122.915 59.3524 125.174 59.3524C127.432 59.3524 129.256 57.5291 129.256 55.2703C129.256 53.0116 127.432 51.1882 125.174 51.1882H123.813V48.4669H125.174C127.432 48.4669 129.256 46.6435 129.256 44.3848C129.256 42.1261 127.432 40.3027 125.174 40.3027C122.915 40.3027 121.092 42.1261 121.092 44.3848V45.7455H118.37V44.3848C118.37 42.1261 116.547 40.3027 114.288 40.3027ZM114.288 43.0241C115.05 43.0241 115.649 43.6228 115.649 44.3848V45.7455H114.288C113.526 45.7455 112.927 45.1468 112.927 44.3848C112.927 43.6228 113.526 43.0241 114.288 43.0241ZM125.174 43.0241C125.936 43.0241 126.534 43.6228 126.534 44.3848C126.534 45.1468 125.936 45.7455 125.174 45.7455H123.813V44.3848C123.813 43.6228 124.412 43.0241 125.174 43.0241ZM118.37 48.4669H121.092V51.1882H118.37V48.4669ZM114.288 53.9096H115.649V55.2703C115.649 56.0323 115.05 56.631 114.288 56.631C113.526 56.631 112.927 56.0323 112.927 55.2703C112.927 54.5083 113.526 53.9096 114.288 53.9096ZM123.813 53.9096H125.174C125.936 53.9096 126.534 54.5083 126.534 55.2703C126.534 56.0323 125.936 56.631 125.174 56.631C124.412 56.631 123.813 56.0323 123.813 55.2703V53.9096Z" fill="black"/>
</g>
<path d="M158.398 153.732V153.732C177.01 133.643 185.395 106.135 181.153 79.0791L177.649 56.7253" stroke="#D9DAE5" stroke-opacity="0.5" stroke-width="0.907126"/>
<path fill-rule="evenodd" clip-rule="evenodd" d="M183.165 123.358C182.775 123.875 182.203 124.374 181.507 124.813C180.874 125.213 180.267 125.543 179.701 125.804C179.071 126.285 178.381 126.748 177.749 127.072C177.32 127.292 176.655 127.582 176.116 127.56C175.499 127.535 175.417 127.131 175.513 126.738C175.567 126.518 175.712 126.288 175.878 126.081C175.861 126.052 175.846 126.021 175.833 125.989C175.631 125.491 175.984 124.679 176.986 123.846C177.903 123.082 179.116 122.506 180.428 122.126C179.948 121.889 179.308 121.779 178.63 121.834C177.912 121.893 177.258 122.123 176.697 122.478C176.033 122.897 175.341 122.991 175.151 122.687C174.961 122.383 175.345 121.796 176.009 121.377C177.471 120.453 178.87 120.058 179.985 119.966C181.095 119.876 182.028 120.073 182.677 120.429C183.316 120.781 183.758 121.331 183.716 122.047C183.695 122.412 183.544 122.856 183.165 123.358Z" fill="#D9DAE5"/>
<g filter="url(#filter1_dd_2_51159)">
<rect x="157.741" y="19.8037" width="36.285" height="36.285" rx="3.6285" fill="white"/>
<g clip-path="url(#clip0_2_51159)">
<path d="M177.727 39.0186C177.701 39.0134 177.674 39.0113 177.647 39.0125C177.6 39.015 177.554 39.0269 177.512 39.0475C177.43 39.087 177.367 39.1565 177.335 39.2415C177.303 39.3266 177.305 39.4206 177.341 39.504L177.339 39.5075L178.146 41.4569C178.918 40.9643 179.503 40.2284 179.81 39.3657L177.731 39.0143L177.727 39.0186ZM174.492 39.2949C174.475 39.2181 174.432 39.1493 174.371 39.0997C174.31 39.05 174.233 39.0223 174.155 39.0211C174.131 39.0208 174.108 39.0229 174.085 39.0272L174.082 39.023L172.021 39.3729C172.33 40.2288 172.913 40.9587 173.68 41.4493L174.479 39.5191L174.473 39.5116C174.502 39.4433 174.509 39.3674 174.492 39.2949ZM176.218 40.0518C176.188 39.9957 176.144 39.9488 176.089 39.9161C176.034 39.8835 175.972 39.8663 175.908 39.8663C175.844 39.8664 175.782 39.8838 175.727 39.9166C175.673 39.9494 175.628 39.9964 175.598 40.0526H175.596L174.583 41.8855C175.309 42.1326 176.089 42.1727 176.836 42.0014C176.975 41.9698 177.11 41.932 177.242 41.8878L176.226 40.0517L176.218 40.0518ZM179.427 35.7941L177.868 37.19L177.869 37.1944C177.821 37.2363 177.785 37.2904 177.765 37.3509C177.746 37.4115 177.743 37.4762 177.757 37.5382C177.771 37.6003 177.802 37.6573 177.846 37.7033C177.89 37.7493 177.945 37.7826 178.007 37.7995L178.009 37.8079L180.029 38.3898C180.116 37.4823 179.905 36.571 179.427 35.7943V35.7941ZM176.53 35.9505C176.533 36.0141 176.553 36.0757 176.588 36.1288C176.623 36.1819 176.672 36.2244 176.729 36.252C176.787 36.2795 176.85 36.291 176.914 36.2853C176.977 36.2795 177.038 36.2567 177.089 36.2192L177.095 36.2218L178.802 35.0119C178.152 34.3756 177.312 33.9704 176.409 33.8585L176.528 35.95L176.53 35.9505ZM174.723 36.2269C174.774 36.2643 174.835 36.2871 174.898 36.2928C174.962 36.2985 175.025 36.2869 175.083 36.2592C175.14 36.2315 175.189 36.1888 175.224 36.1357C175.259 36.0825 175.279 36.0208 175.281 35.9573L175.29 35.9532L175.409 33.8584C175.265 33.8756 175.123 33.9001 174.983 33.9318C174.235 34.1 173.549 34.4738 173.002 35.0113L174.719 36.2289L174.723 36.2269ZM173.807 37.8097C173.868 37.793 173.924 37.7598 173.968 37.7138C174.012 37.6678 174.043 37.6107 174.057 37.5486C174.072 37.4865 174.069 37.4217 174.049 37.3611C174.029 37.3005 173.993 37.2464 173.945 37.2046L173.947 37.1962L172.379 35.7937C171.9 36.5723 171.695 37.4882 171.795 38.3965L173.805 37.8165L173.807 37.8097ZM175.33 38.4259L175.909 38.704L176.485 38.4264L176.629 37.8038L176.229 37.3046H175.587L175.187 37.803L175.33 38.4259Z" fill="#326CE5"/>
<path d="M185.472 39.6528L183.823 32.4927C183.779 32.3075 183.694 32.1344 183.575 31.986C183.455 31.8375 183.305 31.7174 183.133 31.6343L176.461 28.4486C176.288 28.3661 176.099 28.3232 175.907 28.3232C175.716 28.3232 175.526 28.3661 175.353 28.4486L168.682 31.636C168.511 31.7191 168.36 31.8391 168.241 31.9876C168.121 32.136 168.037 32.3091 167.992 32.4944L166.346 39.6542C166.306 39.8352 166.306 40.0229 166.346 40.2039C166.358 40.2591 166.373 40.3134 166.393 40.3665C166.425 40.4571 166.467 40.5436 166.52 40.6244C166.542 40.6589 166.566 40.6925 166.592 40.725L171.21 46.4661C171.23 46.4911 171.252 46.5139 171.274 46.5371C171.346 46.6142 171.428 46.682 171.518 46.7389C171.63 46.81 171.754 46.8635 171.883 46.8976C171.988 46.9266 172.097 46.9416 172.207 46.9423H172.279L179.612 46.9406C179.657 46.9404 179.701 46.9378 179.745 46.9328C179.809 46.9256 179.872 46.9136 179.934 46.897C179.978 46.8854 180.021 46.8714 180.064 46.8552C180.098 46.8424 180.131 46.8296 180.163 46.8142C180.211 46.7912 180.258 46.7652 180.303 46.7364C180.419 46.6634 180.523 46.5718 180.609 46.4654L180.75 46.2903L185.225 40.7232C185.311 40.6156 185.378 40.4946 185.425 40.365C185.444 40.3118 185.46 40.2573 185.472 40.2019C185.512 40.0209 185.512 39.8337 185.472 39.6528ZM178.551 42.4375C178.57 42.4926 178.592 42.5464 178.617 42.5986C178.577 42.6701 178.565 42.7547 178.586 42.8342C178.684 43.0566 178.802 43.2689 178.941 43.4681C179.018 43.57 179.089 43.6763 179.155 43.7864C179.171 43.8162 179.192 43.8624 179.207 43.8939C179.236 43.9419 179.254 43.9955 179.261 44.051C179.268 44.1066 179.263 44.163 179.247 44.2165C179.23 44.2701 179.203 44.3197 179.166 44.362C179.13 44.4044 179.085 44.4387 179.034 44.4626C178.984 44.4865 178.929 44.4996 178.873 44.5009C178.817 44.5023 178.761 44.492 178.709 44.4705C178.658 44.4491 178.611 44.4171 178.572 44.3766C178.534 44.3361 178.504 44.2879 178.485 44.2352C178.47 44.204 178.449 44.1623 178.436 44.1328C178.39 44.0131 178.351 43.891 178.32 43.7668C178.251 43.5346 178.159 43.3097 178.046 43.0954C177.997 43.0291 177.923 42.9847 177.842 42.9717C177.829 42.9496 177.782 42.8629 177.757 42.8181C176.569 43.2679 175.257 43.2646 174.071 42.8087L173.981 42.9724C173.917 42.9824 173.857 43.0116 173.809 43.0563C173.673 43.2797 173.569 43.5212 173.5 43.7737C173.468 43.8978 173.43 44.02 173.385 44.1396C173.372 44.169 173.35 44.21 173.335 44.2411L173.334 44.2428C173.316 44.2955 173.286 44.3438 173.247 44.3844C173.209 44.425 173.162 44.457 173.11 44.4784C173.058 44.4998 173.003 44.5102 172.947 44.5088C172.891 44.5073 172.836 44.4942 172.785 44.4702C172.734 44.4461 172.689 44.4118 172.653 44.3693C172.616 44.3268 172.589 44.2771 172.573 44.2234C172.557 44.1698 172.552 44.1133 172.559 44.0577C172.566 44.0021 172.585 43.9486 172.614 43.9006C172.629 43.8689 172.649 43.823 172.665 43.7932C172.73 43.6828 172.801 43.5763 172.879 43.4741C173.02 43.2696 173.141 43.052 173.24 42.8245C173.251 42.7473 173.238 42.6688 173.205 42.5986L173.277 42.4245C172.184 41.7795 171.365 40.7568 170.974 39.5495L170.8 39.5791C170.733 39.5312 170.653 39.5031 170.571 39.4982C170.333 39.5437 170.1 39.6123 169.875 39.703C169.758 39.7555 169.638 39.8013 169.516 39.8402C169.488 39.8482 169.446 39.8561 169.413 39.8633C169.41 39.8642 169.408 39.8654 169.405 39.866C169.403 39.8663 169.401 39.8665 169.399 39.8666C169.346 39.884 169.29 39.8902 169.235 39.8847C169.179 39.8793 169.125 39.8622 169.077 39.8348C169.028 39.8073 168.986 39.77 168.953 39.7253C168.919 39.6805 168.896 39.6293 168.883 39.5749C168.871 39.5205 168.87 39.4641 168.881 39.4094C168.891 39.3546 168.913 39.3027 168.945 39.2569C168.977 39.2111 169.018 39.1724 169.066 39.1435C169.113 39.1145 169.167 39.0957 169.222 39.0885L169.228 39.0871L169.231 39.0861C169.265 39.0783 169.307 39.0672 169.338 39.0613C169.465 39.0437 169.593 39.0334 169.721 39.0305C169.963 39.0147 170.203 38.9753 170.437 38.913C170.506 38.8688 170.565 38.8096 170.608 38.7398L170.776 38.691C170.594 37.4309 170.884 36.1481 171.591 35.0887L171.463 34.9746C171.458 34.8918 171.43 34.8119 171.382 34.7441C171.198 34.586 170.999 34.4463 170.788 34.3269C170.674 34.2687 170.564 34.2041 170.457 34.1333C170.433 34.1152 170.401 34.0881 170.375 34.0667L170.369 34.0625C170.278 33.9973 170.217 33.8987 170.198 33.7884C170.18 33.6781 170.206 33.565 170.27 33.4738C170.309 33.427 170.357 33.3899 170.413 33.3654C170.468 33.3409 170.528 33.3298 170.589 33.333C170.69 33.3374 170.788 33.3742 170.867 33.438C170.894 33.4593 170.931 33.4878 170.955 33.5085C171.048 33.5965 171.136 33.6896 171.218 33.7877C171.382 33.967 171.562 34.1299 171.757 34.2742C171.83 34.3126 171.915 34.3208 171.994 34.2972C172.042 34.3318 172.09 34.366 172.138 34.3995C172.84 33.6537 173.748 33.1345 174.747 32.9089C174.985 32.855 175.226 32.8179 175.469 32.7979L175.479 32.6291C175.541 32.574 175.586 32.5023 175.608 32.4224C175.617 32.1802 175.602 31.9376 175.564 31.6983C175.538 31.5728 175.52 31.446 175.509 31.3185C175.508 31.2894 175.51 31.2493 175.51 31.2162C175.51 31.2124 175.509 31.2086 175.509 31.205C175.504 31.1492 175.51 31.0928 175.527 31.0395C175.545 30.9862 175.573 30.9371 175.611 30.8955C175.648 30.8538 175.694 30.8205 175.746 30.7977C175.797 30.7749 175.852 30.7631 175.908 30.7631C175.965 30.7631 176.02 30.7748 176.071 30.7976C176.123 30.8203 176.169 30.8536 176.206 30.8952C176.244 30.9368 176.272 30.9858 176.29 31.0391C176.307 31.0924 176.314 31.1488 176.308 31.2046C176.308 31.2397 176.31 31.286 176.309 31.3182C176.298 31.4457 176.28 31.5725 176.254 31.6979C176.216 31.9373 176.2 32.1799 176.209 32.4223C176.225 32.5033 176.271 32.5749 176.339 32.6219C176.341 32.6508 176.345 32.7471 176.349 32.8002C177.611 32.915 178.789 33.484 179.663 34.4017L179.815 34.2932C179.897 34.3072 179.981 34.2981 180.058 34.2669C180.252 34.1224 180.433 33.9592 180.596 33.7798C180.678 33.6817 180.766 33.5885 180.86 33.5007C180.884 33.4797 180.921 33.4515 180.948 33.4301C180.988 33.3906 181.036 33.36 181.089 33.3402C181.142 33.3204 181.198 33.3119 181.254 33.3153C181.31 33.3186 181.365 33.3338 181.415 33.3597C181.465 33.3856 181.509 33.4218 181.544 33.4658C181.579 33.5098 181.604 33.5607 181.619 33.6151C181.633 33.6696 181.635 33.7264 181.626 33.7819C181.617 33.8374 181.596 33.8904 181.565 33.9373C181.534 33.9843 181.493 34.0241 181.446 34.0544C181.419 34.076 181.384 34.1062 181.358 34.1253C181.251 34.1962 181.14 34.2608 181.026 34.3189C180.815 34.4384 180.616 34.5781 180.432 34.7362C180.379 34.7989 180.352 34.88 180.357 34.9623C180.335 34.9827 180.257 35.0519 180.216 35.0894C180.924 36.145 181.22 37.4238 181.047 38.6832L181.209 38.7301C181.249 38.8026 181.309 38.8625 181.381 38.9032C181.615 38.9657 181.855 39.0052 182.097 39.0211C182.225 39.0241 182.353 39.0343 182.48 39.0518C182.513 39.0579 182.562 39.0714 182.596 39.0792C182.651 39.0865 182.705 39.1052 182.752 39.1342C182.8 39.1633 182.841 39.2019 182.873 39.2477C182.905 39.2935 182.927 39.3455 182.937 39.4003C182.948 39.455 182.947 39.5114 182.935 39.5658C182.922 39.6202 182.899 39.6714 182.865 39.7162C182.832 39.7609 182.789 39.7982 182.741 39.8256C182.692 39.853 182.639 39.87 182.583 39.8755C182.527 39.8809 182.471 39.8747 182.418 39.8572L182.413 39.8565C182.41 39.8558 182.408 39.8544 182.405 39.8536C182.372 39.8465 182.331 39.8394 182.302 39.8318C182.18 39.7926 182.06 39.7464 181.944 39.6935C181.719 39.6027 181.485 39.5341 181.247 39.4886C181.164 39.486 181.084 39.5158 181.023 39.5716C180.967 39.5608 180.91 39.5508 180.853 39.5417C180.467 40.7566 179.647 41.7873 178.551 42.4375Z" fill="#326CE5"/>
<path d="M186.342 39.8357L184.544 32.0243C184.495 31.8222 184.403 31.6333 184.273 31.4713C184.142 31.3093 183.978 31.1783 183.791 31.0876L176.512 27.6124C176.323 27.5223 176.116 27.4756 175.907 27.4756C175.698 27.4756 175.492 27.5223 175.303 27.6124L168.025 31.0897C167.838 31.1803 167.673 31.3112 167.543 31.4731C167.413 31.635 167.32 31.8238 167.271 32.0259L165.476 39.8378C165.436 40.0179 165.432 40.2043 165.464 40.386C165.496 40.5677 165.565 40.7411 165.665 40.8961C165.69 40.9339 165.716 40.9707 165.744 41.006L170.782 47.2701C170.914 47.4312 171.08 47.5613 171.268 47.6511C171.456 47.7408 171.662 47.788 171.87 47.7892L179.949 47.7873C180.157 47.7861 180.363 47.7391 180.551 47.6494C180.739 47.5598 180.905 47.4299 181.037 47.2688L186.073 41.0042C186.202 40.8418 186.293 40.6527 186.34 40.4505C186.386 40.2484 186.387 40.0385 186.342 39.836V39.8357ZM185.472 40.2015C185.46 40.2568 185.444 40.3113 185.425 40.3646C185.378 40.4942 185.311 40.6152 185.225 40.7228L180.75 46.2898L180.609 46.465C180.523 46.5715 180.419 46.663 180.303 46.7361C180.258 46.7648 180.211 46.7907 180.163 46.8138C180.131 46.8288 180.098 46.8423 180.064 46.8545C180.022 46.8708 179.978 46.8849 179.934 46.8966C179.872 46.9133 179.809 46.9253 179.745 46.9325C179.701 46.9375 179.657 46.9401 179.612 46.9402L172.279 46.9419H172.207C172.097 46.9412 171.988 46.9262 171.883 46.8973C171.754 46.8631 171.631 46.8095 171.518 46.7384C171.429 46.6816 171.347 46.6138 171.274 46.5367C171.252 46.5134 171.23 46.4906 171.21 46.4657L166.592 40.7246C166.566 40.6921 166.542 40.6585 166.52 40.6237C166.467 40.5429 166.425 40.4564 166.393 40.3658C166.374 40.3127 166.358 40.2583 166.346 40.2031C166.306 40.0221 166.306 39.8345 166.347 39.6535L167.992 32.4935C168.037 32.3083 168.122 32.1352 168.241 31.9868C168.36 31.8384 168.511 31.7184 168.683 31.6353L175.354 28.4482C175.527 28.3657 175.716 28.3229 175.907 28.3229C176.099 28.3229 176.288 28.3657 176.461 28.4482L183.133 31.6339C183.305 31.717 183.455 31.8371 183.575 31.9856C183.694 32.134 183.779 32.3071 183.823 32.4924L185.472 39.6523C185.512 39.8332 185.512 40.0208 185.472 40.2017V40.2015Z" fill="white"/>
<path d="M182.596 39.0798C182.562 39.0719 182.513 39.0585 182.48 39.0523C182.353 39.0348 182.225 39.0245 182.097 39.0215C181.855 39.0057 181.615 38.9663 181.381 38.904C181.309 38.8632 181.249 38.8032 181.209 38.7306L181.047 38.6837C181.22 37.4243 180.924 36.1455 180.216 35.0899C180.257 35.0525 180.335 34.9833 180.357 34.9629C180.352 34.8807 180.379 34.7995 180.432 34.7368C180.616 34.5788 180.815 34.439 181.026 34.3196C181.14 34.2615 181.251 34.1969 181.358 34.126C181.384 34.1069 181.419 34.0766 181.446 34.055C181.493 34.0248 181.534 33.9849 181.565 33.938C181.596 33.8911 181.617 33.8381 181.626 33.7826C181.635 33.7272 181.633 33.6703 181.619 33.6159C181.604 33.5614 181.579 33.5105 181.544 33.4665C181.509 33.4225 181.465 33.3864 181.415 33.3604C181.365 33.3345 181.31 33.3193 181.254 33.3159C181.198 33.3125 181.142 33.321 181.089 33.3407C181.036 33.3605 180.989 33.3911 180.948 33.4306C180.921 33.452 180.884 33.4802 180.86 33.5012C180.767 33.5891 180.678 33.6823 180.596 33.7803C180.433 33.9598 180.252 34.1229 180.058 34.2674C179.981 34.2986 179.897 34.3077 179.815 34.2937L179.663 34.4023C178.789 33.4846 177.611 32.9155 176.349 32.8007C176.345 32.7476 176.341 32.6515 176.339 32.6224C176.271 32.5754 176.225 32.5038 176.209 32.4228C176.201 32.1805 176.216 31.9379 176.254 31.6984C176.28 31.5731 176.298 31.4463 176.309 31.3188C176.31 31.2867 176.308 31.2399 176.308 31.2052C176.314 31.1494 176.307 31.093 176.29 31.0397C176.272 30.9864 176.244 30.9373 176.206 30.8957C176.169 30.8541 176.123 30.8209 176.071 30.7981C176.02 30.7754 175.965 30.7636 175.908 30.7637C175.852 30.7637 175.797 30.7755 175.746 30.7983C175.694 30.8211 175.648 30.8544 175.611 30.896C175.573 30.9377 175.545 30.9867 175.527 31.04C175.51 31.0934 175.504 31.1498 175.509 31.2056C175.509 31.2094 175.51 31.213 175.51 31.2167C175.51 31.2499 175.508 31.29 175.509 31.3189C175.52 31.4465 175.538 31.5733 175.564 31.6988C175.602 31.9382 175.617 32.1807 175.608 32.423C175.586 32.5028 175.541 32.5744 175.479 32.6294L175.469 32.7984C175.226 32.8185 174.985 32.8556 174.747 32.9094C173.748 33.1351 172.84 33.6542 172.138 34.4C172.09 34.3665 172.042 34.3324 171.994 34.2976C171.915 34.3212 171.83 34.313 171.757 34.2746C171.562 34.1304 171.382 33.9675 171.218 33.7882C171.136 33.6902 171.049 33.597 170.956 33.5091C170.931 33.4883 170.894 33.4599 170.867 33.4381C170.788 33.3743 170.69 33.3375 170.589 33.3331C170.528 33.3299 170.468 33.3411 170.413 33.3656C170.357 33.39 170.309 33.4272 170.27 33.4741C170.206 33.5653 170.18 33.6784 170.198 33.7887C170.216 33.899 170.278 33.9975 170.369 34.0628L170.375 34.0671C170.401 34.0885 170.433 34.1159 170.457 34.1335C170.564 34.2044 170.674 34.2691 170.788 34.3273C170.999 34.4468 171.198 34.5866 171.382 34.7448C171.43 34.8125 171.458 34.8923 171.462 34.9751L171.59 35.0894C170.884 36.1487 170.594 37.4315 170.776 38.6916L170.608 38.7403C170.565 38.81 170.506 38.869 170.437 38.9131C170.203 38.9757 169.963 39.0152 169.721 39.0311C169.593 39.034 169.465 39.0443 169.338 39.062C169.307 39.0677 169.265 39.0784 169.231 39.0868L169.228 39.0875L169.222 39.0892C169.167 39.0965 169.114 39.1152 169.066 39.1442C169.018 39.1732 168.977 39.2119 168.945 39.2577C168.913 39.3035 168.892 39.3554 168.881 39.4102C168.87 39.4649 168.871 39.5213 168.884 39.5757C168.896 39.6301 168.92 39.6813 168.953 39.726C168.986 39.7708 169.029 39.808 169.077 39.8355C169.126 39.863 169.179 39.88 169.235 39.8854C169.29 39.8909 169.346 39.8848 169.399 39.8673L169.405 39.8664C169.408 39.8658 169.41 39.8645 169.413 39.864C169.446 39.8565 169.487 39.8486 169.516 39.8408C169.638 39.8018 169.758 39.756 169.875 39.7035C170.099 39.6128 170.333 39.5442 170.571 39.4986C170.653 39.5037 170.733 39.5318 170.8 39.5797L170.974 39.5499C171.365 40.7573 172.184 41.78 173.277 42.425L173.205 42.5991C173.238 42.6692 173.251 42.7478 173.24 42.8249C173.141 43.0524 173.02 43.2699 172.879 43.4744C172.801 43.5765 172.73 43.683 172.665 43.7934C172.649 43.8235 172.629 43.8696 172.613 43.9011C172.585 43.9491 172.566 44.0025 172.559 44.0581C172.552 44.1136 172.557 44.17 172.573 44.2235C172.589 44.2771 172.617 44.3267 172.653 44.3691C172.69 44.4116 172.735 44.4459 172.785 44.4699C172.836 44.4938 172.891 44.507 172.947 44.5084C173.003 44.5099 173.058 44.4996 173.11 44.4782C173.162 44.4569 173.208 44.425 173.247 44.3845C173.286 44.344 173.316 44.2959 173.334 44.2432L173.335 44.2425V44.2415C173.35 44.2103 173.372 44.1693 173.385 44.1401C173.43 44.0204 173.468 43.8982 173.5 43.7741C173.569 43.5217 173.673 43.2802 173.809 43.0567C173.857 43.0121 173.917 42.9828 173.981 42.9727L174.072 42.809C175.257 43.2649 176.569 43.2682 177.756 42.8184C177.782 42.8636 177.829 42.9501 177.842 42.972C177.923 42.985 177.996 43.0295 178.046 43.0959C178.159 43.3102 178.25 43.5351 178.32 43.7673C178.351 43.8914 178.39 44.0136 178.436 44.1333C178.449 44.1628 178.47 44.2042 178.485 44.2356C178.504 44.2883 178.534 44.3365 178.572 44.377C178.611 44.4176 178.658 44.4496 178.709 44.471C178.761 44.4924 178.817 44.5028 178.873 44.5014C178.928 44.5 178.984 44.487 179.034 44.463C179.085 44.4391 179.13 44.4049 179.166 44.3625C179.203 44.3201 179.23 44.2705 179.247 44.217C179.263 44.1634 179.268 44.107 179.261 44.0515C179.254 43.9959 179.236 43.9424 179.207 43.8944C179.192 43.8629 179.171 43.8168 179.155 43.7869C179.09 43.6767 179.018 43.5705 178.941 43.4686C178.802 43.2693 178.684 43.057 178.587 42.8347C178.566 42.7552 178.577 42.6705 178.617 42.5991C178.592 42.5468 178.57 42.493 178.551 42.4379C179.647 41.7877 180.467 40.7571 180.853 39.5422C180.904 39.5505 180.994 39.5662 181.024 39.5721C181.084 39.5164 181.164 39.4866 181.247 39.4892C181.485 39.5347 181.718 39.6033 181.943 39.694C182.06 39.747 182.18 39.7932 182.302 39.8323C182.33 39.8399 182.372 39.8471 182.405 39.8544C182.408 39.8551 182.41 39.8563 182.413 39.857L182.418 39.8579C182.471 39.8753 182.527 39.8814 182.583 39.8759C182.638 39.8704 182.692 39.8534 182.741 39.826C182.789 39.7985 182.831 39.7612 182.865 39.7165C182.898 39.6718 182.922 39.6207 182.934 39.5663C182.946 39.5119 182.947 39.4556 182.937 39.4008C182.926 39.3461 182.904 39.2942 182.872 39.2484C182.841 39.2026 182.8 39.164 182.752 39.1349C182.704 39.1059 182.651 39.0871 182.596 39.0798ZM178.802 35.0125L177.095 36.2224L177.089 36.2195C177.038 36.257 176.977 36.2799 176.914 36.2857C176.851 36.2915 176.787 36.2801 176.729 36.2525C176.672 36.225 176.623 36.1824 176.588 36.1293C176.553 36.0762 176.533 36.0146 176.53 35.951L176.528 35.9501L176.409 33.8588C177.312 33.9708 178.152 34.3762 178.802 35.0125ZM175.587 37.3049H176.229L176.629 37.8041L176.485 38.4266L175.909 38.7042L175.33 38.4261L175.187 37.8032L175.587 37.3049ZM174.983 33.932C175.124 33.9004 175.266 33.8759 175.409 33.8588L175.29 35.9533L175.281 35.9575C175.279 36.0211 175.259 36.0827 175.224 36.1359C175.189 36.1891 175.14 36.2318 175.083 36.2595C175.026 36.2872 174.962 36.2988 174.898 36.2932C174.835 36.2875 174.774 36.2647 174.723 36.2273L174.72 36.2292L173.002 35.0113C173.549 34.4739 174.235 34.1001 174.983 33.932ZM172.379 35.794L173.947 37.1966L173.945 37.2051C173.994 37.247 174.029 37.3011 174.049 37.3616C174.069 37.4222 174.072 37.487 174.058 37.5491C174.043 37.6112 174.013 37.6683 173.968 37.7143C173.924 37.7603 173.869 37.7934 173.807 37.8102L173.806 37.817L171.795 38.397C171.695 37.4886 171.901 36.5727 172.379 35.794ZM174.479 39.52L173.68 41.4499C172.913 40.9592 172.33 40.2292 172.021 39.3733L174.082 39.0232L174.085 39.0278C174.108 39.0235 174.131 39.0214 174.154 39.0217C174.212 39.0225 174.269 39.0376 174.319 39.0656C174.37 39.0935 174.413 39.1335 174.444 39.182C174.476 39.2305 174.495 39.286 174.5 39.3436C174.505 39.4012 174.495 39.4591 174.473 39.5122L174.479 39.52ZM176.836 42.0018C176.089 42.1732 175.309 42.1331 174.583 41.8861L175.596 40.0532H175.598C175.628 39.9972 175.673 39.9504 175.728 39.9177C175.782 39.8851 175.845 39.8678 175.908 39.8678C175.972 39.8677 176.034 39.8848 176.089 39.9174C176.143 39.9499 176.188 39.9967 176.219 40.0526H176.226L177.242 41.8885C177.11 41.9325 176.975 41.9702 176.836 42.0018ZM178.146 41.4576L177.339 39.5081L177.341 39.5046C177.305 39.4212 177.303 39.3272 177.335 39.2422C177.367 39.1572 177.43 39.0877 177.512 39.0483C177.554 39.0276 177.6 39.0157 177.647 39.0132C177.674 39.012 177.701 39.014 177.728 39.0192L177.731 39.0149L179.81 39.3663C179.503 40.2291 178.918 40.965 178.146 41.4576ZM180.029 38.3902L178.009 37.8083L178.007 37.7998C177.945 37.7829 177.89 37.7496 177.846 37.7036C177.802 37.6576 177.771 37.6006 177.757 37.5385C177.743 37.4765 177.746 37.4118 177.765 37.3512C177.785 37.2907 177.821 37.2366 177.869 37.1947L177.868 37.1907L179.427 35.795C179.905 36.5716 180.116 37.4827 180.029 38.3902Z" fill="white"/>
</g>
</g>
<path d="M91.064 140.124V140.124C72.4523 120.034 64.0677 92.5263 68.3092 65.4707L71.8136 43.1169" stroke="#D9DAE5" stroke-opacity="0.5" stroke-width="0.907126"/>
<path fill-rule="evenodd" clip-rule="evenodd" d="M66.2979 109.749C66.6882 110.266 67.2602 110.764 67.9563 111.204C68.5887 111.604 69.1955 111.934 69.7621 112.194C70.3918 112.676 71.0819 113.139 71.7139 113.463C72.1434 113.683 72.8082 113.973 73.3473 113.951C73.9635 113.926 74.0456 113.522 73.9496 113.129C73.8959 112.908 73.7512 112.679 73.5853 112.472C73.6021 112.442 73.617 112.412 73.6301 112.38C73.8323 111.881 73.4786 111.07 72.4769 110.236C71.5594 109.473 70.3468 108.897 69.0348 108.517C69.5153 108.28 70.1551 108.169 70.8334 108.225C71.5511 108.284 72.205 108.514 72.7664 108.869C73.43 109.288 74.1219 109.381 74.3118 109.077C74.5017 108.773 74.1176 108.187 73.454 107.767C71.9922 106.844 70.5925 106.448 69.4783 106.357C68.3675 106.266 67.4347 106.464 66.7864 106.82C66.1472 107.171 65.705 107.722 65.7466 108.437C65.7678 108.803 65.919 109.247 66.2979 109.749Z" fill="#D9DAE5"/>
<g filter="url(#filter2_dd_2_51159)">
<rect x="56.144" y="2.56641" width="36.285" height="36.285" rx="3.6285" fill="white"/>
<g clip-path="url(#clip1_2_51159)">
<path d="M74.3149 10.252C80.0569 10.2532 84.7699 14.9688 84.7627 20.7054C84.7554 26.5292 80.0616 31.1793 74.1948 31.1752C68.4591 31.1711 63.8217 26.4506 63.8257 20.6203C63.8296 14.9192 68.5526 10.2507 74.3149 10.252ZM71.1408 13.9235C71.2725 14.5762 71.1446 15.185 70.9499 15.7838C70.8151 16.1984 70.6288 16.5977 70.5176 17.018C70.3342 17.7105 70.1262 18.4071 70.0499 19.1153C69.9402 20.1338 70.3375 21.0308 71.0174 21.9229L67.8921 21.26C67.8976 21.3595 67.8918 21.3972 67.9025 21.4291C68.1988 22.3057 68.7201 23.0443 69.3044 23.7405C69.3662 23.8141 69.507 23.852 69.6112 23.8522C72.7274 23.858 75.8437 23.8576 78.9599 23.8536C79.0566 23.8534 79.1855 23.835 79.2448 23.7722C79.9127 23.0649 80.4235 22.2594 80.7428 21.2445L77.4342 21.8972C77.6524 21.4663 77.9016 21.0874 78.0448 20.6711C78.5347 19.247 78.3316 17.8702 77.6285 16.5717C77.0643 15.5296 76.5438 14.492 76.8253 13.2361C76.2294 13.8289 76.0006 14.5835 75.8553 15.3612C75.7123 16.1272 75.628 16.9045 75.5173 17.6816C75.5015 17.6581 75.4811 17.6408 75.478 17.6207C75.4652 17.5391 75.4532 17.457 75.4488 17.3746C75.3816 16.1016 75.1347 14.8751 74.6138 13.7037C74.3072 13.0142 73.9691 12.3092 74.2851 11.4867C74.0712 11.6003 73.8779 11.7133 73.7393 11.8745C73.3257 12.3558 73.1546 12.9338 73.1106 13.5667C73.073 14.1073 73.0215 14.6506 72.9219 15.1823C72.8174 15.741 72.6515 16.2887 72.2789 16.8022C72.1283 15.7053 72.1116 14.6204 71.1408 13.9235ZM79.1756 24.8134H69.4018V26.5238H79.1756V24.8134ZM71.3397 27.4074C71.3316 28.8316 72.7717 29.8927 74.5515 29.8157C76.0265 29.7518 77.3319 28.5829 77.2197 27.4074H71.3397Z" fill="#E75225"/>
</g>
</g>
<path d="M51.8243 228.109L75.3737 209.598H132.363L159.68 228.109V249.185L132.363 267.815H78.6706L50.8823 249.185L51.8243 228.109Z" fill="white"/>
<path fill-rule="evenodd" clip-rule="evenodd" d="M77.65 208.807C77.8311 209.022 77.8013 209.342 77.5836 209.521C73.1582 213.16 65.217 218.828 58.4631 223.649C55.3032 225.905 52.4032 227.975 50.2448 229.564C50.0177 229.732 49.6965 229.685 49.5273 229.461C49.3582 229.236 49.4052 228.918 49.6323 228.751C51.8191 227.14 54.7405 225.055 57.9143 222.79C64.6529 217.98 72.5293 212.358 76.928 208.741C77.1457 208.562 77.469 208.592 77.65 208.807Z" fill="black"/>
<path fill-rule="evenodd" clip-rule="evenodd" d="M48.106 225.142C48.2681 224.912 48.5877 224.856 48.8199 225.016C52.5427 227.585 55.9337 230.019 59.1941 232.359C66.602 237.675 73.3355 242.507 81.7533 247.349C81.9981 247.49 82.0811 247.8 81.9387 248.042C81.7964 248.284 81.4825 248.366 81.2378 248.226C72.7736 243.357 65.977 238.48 58.548 233.149C55.2953 230.814 51.9213 228.393 48.233 225.848C48.0008 225.687 47.9439 225.371 48.106 225.142Z" fill="black"/>
<path fill-rule="evenodd" clip-rule="evenodd" d="M128.637 207.457C128.792 207.222 129.109 207.156 129.347 207.309C140.184 214.298 151.97 222.223 161.875 229.686C162.101 229.855 162.144 230.174 161.972 230.396C161.801 230.619 161.479 230.662 161.254 230.492C151.378 223.051 139.615 215.142 128.786 208.158C128.549 208.005 128.482 207.691 128.637 207.457Z" fill="black"/>
<path fill-rule="evenodd" clip-rule="evenodd" d="M128.202 248.079C128.384 248.293 128.707 248.321 128.924 248.141C131.955 245.622 137.691 241.925 143.885 237.962C144.194 237.764 144.505 237.566 144.815 237.367C150.717 233.593 156.909 229.633 161.4 226.303C161.627 226.135 161.672 225.817 161.503 225.593C161.333 225.369 161.011 225.323 160.785 225.491C156.323 228.8 150.159 232.742 144.244 236.525C143.938 236.72 143.633 236.916 143.328 237.111C137.16 241.057 131.357 244.795 128.264 247.365C128.048 247.545 128.02 247.865 128.202 248.079Z" fill="black"/>
<path fill-rule="evenodd" clip-rule="evenodd" d="M128.178 271.37C128.343 271.597 128.664 271.649 128.893 271.486C132.51 268.916 135.805 266.482 138.972 264.142C146.168 258.826 152.708 253.995 160.885 249.154C161.128 249.01 161.207 248.698 161.061 248.458C160.916 248.218 160.601 248.14 160.358 248.284C152.135 253.152 145.532 258.03 138.315 263.362C135.155 265.696 131.878 268.117 128.295 270.662C128.065 270.826 128.013 271.142 128.178 271.37Z" fill="black"/>
<path fill-rule="evenodd" clip-rule="evenodd" d="M49.0492 247.494C49.2126 247.265 49.5326 247.211 49.7638 247.372C53.5924 250.048 57.0801 252.583 60.4336 255.02C68.0534 260.558 74.9801 265.593 83.6391 270.636C83.8831 270.779 83.9644 271.089 83.8207 271.331C83.677 271.572 83.3627 271.652 83.1187 271.51C74.4133 266.439 67.4234 261.359 59.7825 255.806C56.4367 253.375 52.966 250.852 49.1719 248.2C48.9407 248.039 48.8857 247.722 49.0492 247.494Z" fill="black"/>
<path fill-rule="evenodd" clip-rule="evenodd" d="M73.4478 244.992C73.4478 244.712 73.6773 244.485 73.9605 244.485L138.957 244.485C139.24 244.485 139.469 244.712 139.469 244.992C139.469 245.272 139.24 245.499 138.957 245.499L73.9605 245.499C73.6773 245.499 73.4478 245.272 73.4478 244.992Z" fill="black"/>
<path fill-rule="evenodd" clip-rule="evenodd" d="M137.073 210.104C112.111 210.104 93.8012 210.199 71.1641 211.5C70.8814 211.516 70.6389 211.303 70.6225 211.023C70.606 210.744 70.8219 210.504 71.1046 210.488C93.7738 209.185 112.109 209.09 137.073 209.09C137.356 209.09 137.585 209.317 137.585 209.597C137.585 209.877 137.356 210.104 137.073 210.104Z" fill="black"/>
<path fill-rule="evenodd" clip-rule="evenodd" d="M134.247 268.405L73.0191 268.405C72.7359 268.405 72.5063 268.178 72.5063 267.898C72.5063 267.618 72.7359 267.391 73.0191 267.391L134.247 267.391C134.531 267.391 134.76 267.618 134.76 267.898C134.76 268.178 134.531 268.405 134.247 268.405Z" fill="black"/>
<path fill-rule="evenodd" clip-rule="evenodd" d="M131.421 210.897L70.1924 210.897C69.9092 210.897 69.6797 210.67 69.6797 210.39C69.6797 210.11 69.9092 209.883 70.1924 209.883L131.421 209.883C131.704 209.883 131.933 210.11 131.933 210.39C131.933 210.67 131.704 210.897 131.421 210.897Z" fill="black"/>
<path fill-rule="evenodd" clip-rule="evenodd" d="M52.2945 223.062C52.5776 223.062 52.8072 223.289 52.8072 223.569V250.581C52.8072 250.861 52.5776 251.088 52.2945 251.088C52.0113 251.088 51.7817 250.861 51.7817 250.581V223.569C51.7817 223.289 52.0113 223.062 52.2945 223.062Z" fill="black"/>
<path fill-rule="evenodd" clip-rule="evenodd" d="M158.738 224.925C159.021 224.925 159.251 225.152 159.251 225.432V252.77C159.251 253.05 159.021 253.277 158.738 253.277C158.455 253.277 158.226 253.05 158.226 252.77V225.432C158.226 225.152 158.455 224.925 158.738 224.925Z" fill="black"/>
<path fill-rule="evenodd" clip-rule="evenodd" d="M76.7842 242.157C77.0674 242.157 77.2969 242.384 77.2969 242.664V267.404C77.2969 267.684 77.0674 267.911 76.7842 267.911C76.501 267.911 76.2715 267.684 76.2715 267.404V242.664C76.2715 242.384 76.501 242.157 76.7842 242.157Z" fill="black"/>
<path fill-rule="evenodd" clip-rule="evenodd" d="M132.363 238.397C132.646 238.397 132.875 238.624 132.875 238.904C132.875 240.075 132.899 242.334 132.928 245.129C133.012 253.357 133.145 266.235 132.874 269.716C132.852 269.995 132.605 270.204 132.323 270.183C132.041 270.161 131.829 269.917 131.851 269.638C132.119 266.206 131.988 253.465 131.903 245.235C131.874 242.403 131.85 240.104 131.85 238.904C131.85 238.624 132.08 238.397 132.363 238.397Z" fill="black"/>
<path fill-rule="evenodd" clip-rule="evenodd" d="M55.2672 229.138C55.5321 229.215 55.6874 229.486 55.6185 229.751C55.3884 230.634 54.7857 232.323 54.1971 233.973L54.1904 233.992C54.1873 234.001 54.1843 234.009 54.1812 234.018L52.7821 238.168C52.6948 238.427 52.4155 238.571 52.1506 238.494C51.8856 238.417 51.7303 238.146 51.7992 237.881C52.0253 237.013 52.6212 235.343 53.2064 233.702L53.2112 233.689L54.6356 229.464C54.723 229.205 55.0022 229.061 55.2672 229.138Z" fill="black"/>
<path fill-rule="evenodd" clip-rule="evenodd" d="M58.0863 232.393C58.3606 232.463 58.5256 232.739 58.4549 233.011L53.8427 250.709C53.772 250.98 53.4924 251.143 53.2182 251.073C52.944 251.003 52.779 250.727 52.8497 250.456L57.4619 232.758C57.5326 232.486 57.8121 232.323 58.0863 232.393ZM61.8192 234.256C62.0934 234.326 62.2585 234.602 62.1878 234.874L57.3328 253.503C57.2621 253.774 56.9826 253.937 56.7084 253.868C56.4341 253.798 56.2691 253.521 56.3398 253.25L61.1948 234.621C61.2654 234.349 61.545 234.186 61.8192 234.256ZM65.7906 237.516C66.0648 237.586 66.2298 237.863 66.1592 238.134L61.4256 256.298C61.3549 256.569 61.0753 256.732 60.8011 256.662C60.5269 256.592 60.3619 256.316 60.4326 256.044L65.1662 237.881C65.2368 237.61 65.5164 237.446 65.7906 237.516Z" fill="black"/>
<path fill-rule="evenodd" clip-rule="evenodd" d="M69.9535 240.311C70.2277 240.381 70.3928 240.657 70.3221 240.929L65.8312 258.161C65.7606 258.432 65.481 258.595 65.2068 258.525C64.9326 258.455 64.7676 258.179 64.8382 257.908L69.3291 240.676C69.3997 240.404 69.6793 240.241 69.9535 240.311ZM73.6178 242.437C73.892 242.507 74.057 242.784 73.9863 243.055L69.0786 261.887C69.008 262.158 68.7284 262.321 68.4542 262.251C68.18 262.181 68.015 261.905 68.0856 261.634L72.9933 242.802C73.064 242.531 73.3436 242.368 73.6178 242.437ZM77.7792 244.968C78.0534 245.038 78.2184 245.315 78.1477 245.586L73.1714 264.681C73.1007 264.952 72.8211 265.116 72.5469 265.046C72.2727 264.976 72.1077 264.699 72.1784 264.428L77.1547 245.333C77.2254 245.062 77.505 244.899 77.7792 244.968Z" fill="black"/>
<path fill-rule="evenodd" clip-rule="evenodd" d="M91.7576 244.968C92.0319 245.038 92.1969 245.315 92.1262 245.586L86.3988 267.563C86.3404 267.787 86.1362 267.943 85.9023 267.943L81.0813 267.943C80.9228 267.943 80.7731 267.871 80.676 267.747C80.5789 267.623 80.5452 267.462 80.5848 267.31L86.3122 245.333C86.3828 245.062 86.6624 244.898 86.9366 244.968C87.2108 245.038 87.3758 245.315 87.3052 245.586L81.7429 266.929L85.505 266.929L91.1332 245.333C91.2039 245.062 91.4834 244.898 91.7576 244.968ZM82.7182 244.968C82.9925 245.038 83.1575 245.315 83.0868 245.586L77.3594 267.563C77.2887 267.834 77.0092 267.997 76.735 267.927C76.4607 267.857 76.2957 267.581 76.3664 267.31L82.0938 245.333C82.1645 245.062 82.444 244.898 82.7182 244.968Z" fill="black"/>
<path fill-rule="evenodd" clip-rule="evenodd" d="M105.966 244.502C106.24 244.572 106.405 244.849 106.334 245.12C105.358 248.867 104.325 252.92 103.307 256.92L103.261 257.098C102.258 261.037 101.269 264.922 100.361 268.407C100.29 268.678 100.011 268.841 99.7364 268.771C99.4622 268.701 99.2972 268.425 99.3679 268.154C100.275 264.671 101.264 260.789 102.268 256.848L102.312 256.673C103.331 252.672 104.364 248.617 105.341 244.867C105.412 244.596 105.692 244.432 105.966 244.502ZM101.145 244.502C101.419 244.572 101.584 244.849 101.513 245.12C100.548 248.823 99.5502 252.85 98.5595 256.85L98.5339 256.953C97.5522 260.917 96.5778 264.851 95.651 268.407C95.5803 268.678 95.3008 268.841 95.0265 268.771C94.7523 268.701 94.5873 268.425 94.658 268.154C95.5832 264.603 96.5564 260.675 97.5388 256.709L97.5635 256.609C98.5539 252.61 99.5533 248.577 100.52 244.867C100.591 244.596 100.871 244.432 101.145 244.502ZM96.932 244.504C97.2054 244.577 97.3672 244.855 97.2934 245.125L90.9392 268.412C90.8655 268.683 90.584 268.843 90.3107 268.77C90.0373 268.697 89.8754 268.418 89.9492 268.148L96.3034 244.861C96.3771 244.591 96.6586 244.431 96.932 244.504Z" fill="black"/>
<path fill-rule="evenodd" clip-rule="evenodd" d="M120.055 244.968C120.329 245.038 120.494 245.315 120.424 245.586L114.719 267.475C114.648 267.747 114.369 267.91 114.095 267.84C113.82 267.77 113.655 267.494 113.726 267.222L119.431 245.333C119.501 245.062 119.781 244.898 120.055 244.968ZM115.234 244.968C115.508 245.038 115.673 245.315 115.603 245.586L109.898 267.475C109.827 267.747 109.548 267.91 109.273 267.84C108.999 267.77 108.834 267.494 108.905 267.222L114.61 245.333C114.68 245.062 114.96 244.898 115.234 244.968ZM111.016 244.968C111.29 245.038 111.455 245.315 111.384 245.586L105.68 267.475C105.609 267.747 105.329 267.91 105.055 267.84C104.781 267.77 104.616 267.494 104.687 267.222L110.391 245.333C110.462 245.062 110.741 244.898 111.016 244.968Z" fill="black"/>
<path fill-rule="evenodd" clip-rule="evenodd" d="M134.815 243.105C135.089 243.175 135.254 243.451 135.183 243.722L128.993 267.475C128.923 267.746 128.643 267.909 128.369 267.84C128.095 267.77 127.93 267.493 128 267.222L134.19 243.469C134.261 243.198 134.541 243.035 134.815 243.105ZM129.508 244.968C129.782 245.038 129.947 245.314 129.877 245.585L124.172 267.475C124.102 267.746 123.822 267.909 123.548 267.84C123.274 267.77 123.109 267.493 123.179 267.222L128.884 245.332C128.954 245.061 129.234 244.898 129.508 244.968ZM125.29 244.968C125.564 245.038 125.729 245.314 125.658 245.585L119.954 267.475C119.883 267.746 119.604 267.909 119.329 267.84C119.055 267.77 118.89 267.493 118.961 267.222L124.665 245.332C124.736 245.061 125.016 244.898 125.29 244.968Z" fill="black"/>
<path fill-rule="evenodd" clip-rule="evenodd" d="M151.802 231.563C152.076 231.633 152.241 231.909 152.17 232.18L145.035 259.559C144.964 259.83 144.685 259.993 144.411 259.924C144.136 259.854 143.971 259.577 144.042 259.306L151.177 231.927C151.248 231.656 151.527 231.493 151.802 231.563ZM145.793 236.12C146.067 236.19 146.232 236.467 146.161 236.738L139 264.217C138.93 264.488 138.65 264.651 138.376 264.581C138.102 264.511 137.937 264.235 138.007 263.963L145.168 236.485C145.239 236.214 145.519 236.051 145.793 236.12ZM140.725 239.381C140.999 239.45 141.164 239.727 141.093 239.998L134.054 267.011C133.983 267.282 133.703 267.445 133.429 267.375C133.155 267.306 132.99 267.029 133.061 266.758L140.1 239.745C140.171 239.474 140.451 239.311 140.725 239.381Z" fill="black"/>
<path fill-rule="evenodd" clip-rule="evenodd" d="M156.594 229.133C156.868 229.203 157.033 229.48 156.962 229.751L150.287 255.366C150.216 255.638 149.936 255.801 149.662 255.731C149.388 255.661 149.223 255.385 149.294 255.113L155.969 229.498C156.04 229.227 156.319 229.063 156.594 229.133ZM158.506 237.982C158.78 238.052 158.945 238.329 158.874 238.6L155.233 252.572C155.163 252.843 154.883 253.006 154.609 252.936C154.335 252.867 154.17 252.59 154.24 252.319L157.881 238.347C157.952 238.076 158.232 237.913 158.506 237.982Z" fill="black"/>
<path d="M60.9469 202.206C65.0479 198.658 73.4771 191.376 74.3852 190.629L110.279 197.833L132.356 188.761L131.036 217.166L110.066 229.445L75.5027 220.368L75.6065 204.939L60.9469 202.206Z" fill="white"/>
<path opacity="0.1" d="M113.143 222.28L112.32 206.185L124.365 214.643L113.143 222.28Z" fill="#FF006A"/>
<path fill-rule="evenodd" clip-rule="evenodd" d="M71.5269 227.523C71.671 227.181 72.065 227.021 72.4069 227.165C73.5731 227.656 74.672 228.124 75.7177 228.568C85.2461 232.621 90.359 234.795 101.761 236.274C102.129 236.322 102.388 236.659 102.341 237.027C102.293 237.395 101.956 237.655 101.588 237.607C89.9994 236.103 84.7387 233.866 75.194 229.806C74.1472 229.361 73.0489 228.894 71.8851 228.403C71.5432 228.259 71.3828 227.865 71.5269 227.523Z" fill="black"/>
<path fill-rule="evenodd" clip-rule="evenodd" d="M135.457 228.644C135.824 228.592 136.164 228.848 136.216 229.215C136.268 229.583 136.013 229.923 135.646 229.975L135.551 229.31L135.457 228.644ZM120.421 232.533C111.916 234.138 101.698 236.383 94.7181 238.952C94.3698 239.081 93.9836 238.902 93.8554 238.554C93.7272 238.206 93.9056 237.82 94.2538 237.691C101.348 235.079 111.663 232.818 120.172 231.212C124.433 230.408 128.253 229.766 131.008 229.326C132.385 229.105 133.497 228.935 134.264 228.82C134.648 228.762 134.946 228.718 135.148 228.689L135.378 228.656L135.457 228.644C135.457 228.644 135.457 228.644 135.551 229.31C135.646 229.975 135.646 229.975 135.646 229.975L135.569 229.986L135.341 230.019C135.141 230.048 134.845 230.091 134.464 230.149C133.7 230.263 132.593 230.433 131.22 230.652C128.474 231.092 124.667 231.731 120.421 232.533Z" fill="black"/>
<path fill-rule="evenodd" clip-rule="evenodd" d="M74.2368 206.559C74.6075 206.543 74.9207 206.831 74.9363 207.202C75.1273 211.746 75.5176 214.677 75.8882 217.461C75.9326 217.794 75.9767 218.126 76.0201 218.458C76.4283 221.573 76.7748 224.703 76.7401 229.868C76.7376 230.239 76.4348 230.538 76.0637 230.535C75.6927 230.533 75.3939 230.23 75.3964 229.859C75.4306 224.774 75.0909 221.709 74.6878 218.632C74.6446 218.302 74.6005 217.971 74.5561 217.638C74.1848 214.849 73.7874 211.864 73.5937 207.258C73.5781 206.888 73.866 206.574 74.2368 206.559Z" fill="black"/>
<path fill-rule="evenodd" clip-rule="evenodd" d="M70.5549 189.009C70.6338 188.647 70.9917 188.417 71.3542 188.496C80.3367 190.45 89.4536 192.615 96.2732 195.206C96.62 195.338 96.7943 195.726 96.6625 196.073C96.5307 196.42 96.1426 196.594 95.7958 196.463C89.0824 193.911 80.0581 191.764 71.0686 189.809C70.706 189.73 70.476 189.372 70.5549 189.009Z" fill="black"/>
<path fill-rule="evenodd" clip-rule="evenodd" d="M94.5776 194.542C94.9487 194.544 95.2474 194.847 95.2449 195.218C95.1686 206.568 96.3567 225.068 98.5269 236.312C98.5973 236.676 98.3589 237.028 97.9946 237.099C97.6303 237.169 97.2779 236.931 97.2076 236.566C95.0153 225.208 93.8246 206.614 93.9012 195.209C93.9037 194.838 94.2066 194.539 94.5776 194.542Z" fill="black"/>
<path fill-rule="evenodd" clip-rule="evenodd" d="M133.115 188.637C133.19 189 132.956 189.356 132.593 189.431C128.566 190.263 124.025 191.036 119.356 191.83C117.428 192.158 115.478 192.49 113.533 192.831C106.865 194.002 100.252 195.284 94.7083 196.915C94.3523 197.02 93.9789 196.816 93.8742 196.46C93.7694 196.104 93.9731 195.73 94.3291 195.626C99.9513 193.972 106.63 192.679 113.301 191.508C115.263 191.164 117.223 190.83 119.157 190.501C123.815 189.709 128.319 188.942 132.321 188.115C132.684 188.04 133.04 188.274 133.115 188.637Z" fill="black"/>
<path fill-rule="evenodd" clip-rule="evenodd" d="M132.498 184.608C132.868 184.642 133.14 184.97 133.105 185.339C132.7 189.693 133.311 198.325 133.998 207.064C134.07 207.978 134.143 208.892 134.215 209.803C134.83 217.543 135.422 224.987 135.288 229.008C135.275 229.379 134.965 229.67 134.594 229.657C134.223 229.645 133.932 229.334 133.945 228.963C134.076 225.025 133.492 217.664 132.874 209.889C132.802 208.987 132.73 208.079 132.659 207.169C131.976 198.489 131.349 189.712 131.767 185.214C131.802 184.845 132.129 184.573 132.498 184.608Z" fill="black"/>
<path fill-rule="evenodd" clip-rule="evenodd" d="M71.6586 189.279C71.9002 189.561 71.8677 189.985 71.5861 190.227C68.1075 193.211 64.5655 196.116 61.0337 199.014C60.2958 199.619 59.5583 200.224 58.822 200.83C58.5353 201.065 58.112 201.024 57.8763 200.737C57.6407 200.451 57.6821 200.027 57.9687 199.792C58.7073 199.184 59.4462 198.578 60.185 197.972C63.7165 195.075 67.2449 192.18 70.7112 189.207C70.9928 188.965 71.417 188.998 71.6586 189.279Z" fill="black"/>
<path fill-rule="evenodd" clip-rule="evenodd" d="M57.8446 202.3C57.9527 201.945 58.3281 201.745 58.6831 201.853C62.6471 203.061 65.3623 203.834 68.1045 204.615C72.1155 205.757 76.1841 206.915 84.3027 209.473C84.6566 209.585 84.8531 209.962 84.7416 210.316C84.6301 210.67 84.2528 210.866 83.8989 210.755C75.773 208.195 71.7548 207.051 67.7734 205.918C65.0363 205.139 62.3166 204.365 58.2916 203.139C57.9366 203.03 57.7365 202.655 57.8446 202.3Z" fill="black"/>
<path fill-rule="evenodd" clip-rule="evenodd" d="M95.3956 195.325C95.6862 195.556 95.7348 195.979 95.5041 196.269C93.2247 199.141 87.1547 206.647 83.3837 210.013C83.1068 210.26 82.6821 210.236 82.435 209.959C82.188 209.683 82.2121 209.258 82.4889 209.011C86.156 205.738 92.1503 198.333 94.4517 195.434C94.6824 195.143 95.105 195.095 95.3956 195.325Z" fill="black"/>
<path fill-rule="evenodd" clip-rule="evenodd" d="M112.249 181.7C112.277 182.07 112 182.393 111.63 182.421C98.4953 183.415 84.5622 185.909 71.0061 189.587C70.648 189.684 70.279 189.472 70.1818 189.114C70.0847 188.756 70.2962 188.387 70.6543 188.29C84.2834 184.592 98.3005 182.082 111.528 181.081C111.898 181.053 112.221 181.33 112.249 181.7Z" fill="black"/>
<path fill-rule="evenodd" clip-rule="evenodd" d="M96.4313 179.59C96.4918 179.224 96.8376 178.977 97.2037 179.037C104.357 180.219 128.192 186.293 135.004 188.457C135.358 188.569 135.554 188.947 135.441 189.301C135.329 189.654 134.951 189.85 134.598 189.738C127.827 187.587 104.057 181.531 96.9847 180.363C96.6186 180.302 96.3708 179.956 96.4313 179.59Z" fill="black"/>
<path fill-rule="evenodd" clip-rule="evenodd" d="M107.66 174.46C108.027 174.517 108.278 174.86 108.222 175.227C107.875 177.469 107.851 180.611 107.915 183.819C107.939 185.02 107.975 186.231 108.01 187.401C108.068 189.325 108.122 191.136 108.112 192.598C108.11 192.969 107.807 193.268 107.436 193.266C107.065 193.263 106.766 192.96 106.769 192.589C106.778 191.147 106.725 189.384 106.668 187.484C106.633 186.309 106.596 185.082 106.571 183.846C106.508 180.644 106.527 177.393 106.894 175.021C106.951 174.654 107.294 174.403 107.66 174.46Z" fill="black"/>
<path fill-rule="evenodd" clip-rule="evenodd" d="M109.826 178.21C109.961 177.865 110.351 177.694 110.697 177.829C119.975 181.454 133.4 183.676 143.305 185.159C143.672 185.214 143.925 185.556 143.87 185.923C143.815 186.29 143.473 186.543 143.106 186.488C133.226 185.009 119.65 182.77 110.208 179.081C109.862 178.946 109.691 178.556 109.826 178.21Z" fill="black"/>
<path fill-rule="evenodd" clip-rule="evenodd" d="M135.362 187.851C133.951 188.279 132.299 188.779 129.866 189.254C129.502 189.325 129.149 189.088 129.078 188.723C129.006 188.359 129.244 188.006 129.608 187.935C131.969 187.474 133.53 187.002 134.928 186.578C135.44 186.423 135.93 186.275 136.429 186.136C138.308 185.614 140.209 185.265 143.613 185.288C143.984 185.291 144.283 185.593 144.281 185.964C144.278 186.335 143.975 186.634 143.604 186.632C140.322 186.61 138.545 186.942 136.789 187.431C136.328 187.559 135.86 187.7 135.362 187.851Z" fill="black"/>
<path fill-rule="evenodd" clip-rule="evenodd" d="M117.798 135.047C117.837 135.119 117.869 135.176 117.891 135.215C118.077 135.536 117.968 135.947 117.647 136.133C117.326 136.319 116.915 136.21 116.729 135.889C116.687 135.818 116.639 135.73 116.585 135.632C116.37 135.242 116.06 134.678 115.702 134.263C115.596 134.141 115.501 134.05 115.421 133.99C115.383 133.962 115.353 133.944 115.331 133.932C115.309 133.955 115.276 133.996 115.235 134.064C114.664 135.018 114.569 136.314 114.864 137.634C115.158 138.95 115.818 140.182 116.609 140.959C117.208 141.548 118.121 142.14 118.826 142.272C119.163 142.336 119.344 142.276 119.445 142.194C119.551 142.108 119.726 141.87 119.767 141.231C119.867 139.656 119.546 137.992 118.644 136.925C118.404 136.641 118.44 136.217 118.723 135.978C119.006 135.738 119.43 135.774 119.67 136.057C120.888 137.498 121.219 139.569 121.108 141.317C121.055 142.145 120.807 142.82 120.291 143.238C119.77 143.661 119.131 143.697 118.578 143.593C117.503 143.391 116.36 142.598 115.667 141.917C114.663 140.931 113.894 139.455 113.553 137.927C113.212 136.403 113.275 134.722 114.082 133.374C114.238 133.114 114.437 132.884 114.699 132.736C114.974 132.58 115.271 132.543 115.552 132.599C116.055 132.697 116.453 133.077 116.719 133.385C117.185 133.925 117.597 134.678 117.798 135.047Z" fill="white"/>
<path fill-rule="evenodd" clip-rule="evenodd" d="M115.067 136.011C115.266 135.701 115.59 135.563 115.917 135.565L116.243 135.568L116.443 135.824C116.628 136.062 116.842 136.295 117.077 136.552C117.114 136.592 117.152 136.633 117.19 136.675C117.46 136.97 117.753 137.298 117.996 137.651C118.498 138.383 118.83 139.303 118.357 140.402C118.301 140.531 118.272 140.616 118.251 140.675C118.249 140.681 118.248 140.686 118.246 140.691C118.241 140.706 118.232 140.729 118.224 140.752L118.223 140.753C118.217 140.769 118.195 140.825 118.158 140.885C118.138 140.916 118.096 140.98 118.023 141.043C117.946 141.109 117.808 141.198 117.614 141.208C117.247 141.227 117.052 140.96 117.037 140.94C117.037 140.939 117.037 140.939 117.036 140.938C116.996 140.886 116.97 140.835 116.964 140.824C116.964 140.823 116.964 140.823 116.963 140.822C116.958 140.811 116.948 140.792 116.945 140.786L116.945 140.785C116.938 140.771 116.933 140.762 116.927 140.753C116.916 140.736 116.889 140.697 116.827 140.644C116.54 140.399 116.242 139.994 115.985 139.582C115.719 139.154 115.459 138.656 115.26 138.176C115.069 137.714 114.906 137.203 114.889 136.771C114.881 136.561 114.901 136.27 115.067 136.011ZM117.17 138.942C117.11 138.77 117.015 138.596 116.888 138.412C116.855 138.363 116.82 138.315 116.783 138.266C116.891 138.477 117.008 138.683 117.126 138.872C117.14 138.896 117.155 138.919 117.17 138.942ZM116.233 136.66C116.233 136.658 116.233 136.657 116.233 136.657C116.233 136.657 116.233 136.658 116.233 136.66Z" fill="white"/>
<path fill-rule="evenodd" clip-rule="evenodd" d="M129.066 127.422C129.248 127.745 129.133 128.155 128.81 128.337C126.904 129.409 125.18 130.742 123.456 132.148C123.102 132.437 122.748 132.729 122.392 133.022C121.024 134.15 119.632 135.298 118.157 136.336C117.854 136.55 117.435 136.477 117.221 136.174C117.008 135.87 117.08 135.451 117.384 135.238C118.812 134.232 120.154 133.126 121.516 132.002C121.878 131.705 122.24 131.406 122.606 131.107C124.341 129.692 126.139 128.297 128.151 127.165C128.475 126.984 128.884 127.098 129.066 127.422Z" fill="white"/>
<path fill-rule="evenodd" clip-rule="evenodd" d="M131.862 134.782C131.955 135.141 131.739 135.508 131.38 135.601C129.704 136.036 128.345 136.615 126.978 137.199C126.693 137.321 126.408 137.442 126.119 137.563C124.452 138.26 122.714 138.899 120.442 139.144C120.073 139.183 119.741 138.916 119.702 138.547C119.662 138.179 119.929 137.847 120.298 137.808C122.38 137.583 123.978 137.001 125.601 136.323C125.874 136.209 126.149 136.092 126.427 135.973C127.798 135.387 129.261 134.762 131.043 134.3C131.402 134.207 131.769 134.423 131.862 134.782Z" fill="white"/>
<path fill-rule="evenodd" clip-rule="evenodd" d="M139.028 127.773C139.09 127.902 139.136 127.999 139.165 128.057C140.349 130.416 141.678 133.287 141.719 136.164C141.727 136.72 141.643 137.586 141.339 138.319C141.185 138.688 140.956 139.072 140.608 139.353C140.24 139.649 139.774 139.802 139.237 139.738C137.734 139.559 136.25 138.871 134.909 138.061C133.644 137.297 132.456 136.392 131.457 135.632C131.393 135.583 131.329 135.535 131.267 135.487C130.971 135.262 130.914 134.841 131.139 134.546C131.363 134.25 131.785 134.193 132.08 134.418C132.139 134.462 132.199 134.508 132.259 134.553C133.268 135.322 134.403 136.186 135.603 136.911C136.879 137.681 138.171 138.257 139.396 138.403C139.566 138.424 139.672 138.381 139.764 138.307C139.876 138.217 139.994 138.055 140.098 137.804C140.308 137.297 140.382 136.63 140.375 136.183C140.339 133.653 139.158 131.038 137.964 128.659C137.927 128.586 137.872 128.471 137.801 128.323C137.452 127.593 136.718 126.059 135.869 124.719C135.354 123.906 134.837 123.232 134.384 122.857C134.157 122.669 134.001 122.604 133.918 122.59C133.875 122.583 133.848 122.582 133.784 122.64C133.578 122.83 133.198 123.257 132.691 123.844C132.521 124.042 132.339 124.255 132.148 124.477C131.79 124.896 131.402 125.349 131.014 125.794C130.418 126.475 129.804 127.157 129.256 127.704C128.982 127.977 128.717 128.225 128.473 128.425C128.24 128.617 127.986 128.799 127.738 128.903C127.396 129.047 127.002 128.886 126.859 128.544C126.715 128.202 126.875 127.808 127.217 127.664C127.281 127.637 127.413 127.557 127.621 127.387C127.818 127.225 128.049 127.01 128.306 126.753C128.821 126.239 129.411 125.586 130.002 124.909C130.387 124.469 130.765 124.027 131.12 123.612C131.312 123.388 131.497 123.171 131.674 122.967C132.161 122.402 132.598 121.905 132.875 121.651C133.239 121.316 133.683 121.189 134.14 121.265C134.556 121.335 134.928 121.564 135.24 121.821C135.865 122.338 136.475 123.164 137.004 124C137.906 125.423 138.693 127.071 139.028 127.773Z" fill="white"/>
<path fill-rule="evenodd" clip-rule="evenodd" d="M130.538 126.655C130.603 127.02 130.36 127.369 129.995 127.434C129.478 127.526 129.011 127.981 128.63 128.757C128.261 129.51 128.054 130.41 127.981 131.065C127.967 131.187 127.959 131.292 127.95 131.405C127.945 131.473 127.94 131.543 127.933 131.621C127.916 131.809 127.891 132.024 127.833 132.239C127.705 132.716 127.429 133.131 126.891 133.46C126.426 133.743 125.951 133.954 125.533 134.14C125.395 134.201 125.263 134.26 125.14 134.317C124.646 134.548 124.207 134.793 123.786 135.194C123.1 136.267 122.091 136.854 121.332 137.237C121.168 137.32 121.026 137.389 120.901 137.449C120.703 137.545 120.546 137.62 120.41 137.701C120.37 137.724 120.339 137.744 120.315 137.761C120.231 138.038 119.972 138.24 119.667 138.238C119.296 138.235 118.997 137.932 119 137.561C119.002 137.253 119.151 137.023 119.291 136.875C119.425 136.733 119.588 136.624 119.73 136.541C119.91 136.436 120.15 136.319 120.388 136.204C120.504 136.148 120.619 136.092 120.726 136.038C121.451 135.672 122.204 135.206 122.686 134.418L122.729 134.348L122.788 134.29C123.382 133.704 123.992 133.37 124.572 133.1C124.74 133.021 124.899 132.951 125.052 132.882C125.447 132.707 125.807 132.547 126.191 132.312C126.431 132.167 126.496 132.039 126.536 131.889C126.562 131.791 126.579 131.671 126.594 131.502C126.598 131.454 126.603 131.398 126.608 131.337C126.618 131.208 126.629 131.057 126.645 130.915C126.731 130.151 126.969 129.092 127.424 128.165C127.867 127.262 128.602 126.318 129.759 126.111C130.124 126.046 130.473 126.29 130.538 126.655Z" fill="white"/>
<path fill-rule="evenodd" clip-rule="evenodd" d="M113.589 145.048C113.959 145.077 114.235 145.401 114.206 145.771C114.19 145.971 114.157 146.228 114.117 146.514C114.457 146.418 114.813 146.455 115.139 146.629C115.581 146.865 115.887 147.306 116.072 147.782C116.261 148.272 116.352 148.865 116.318 149.512C116.301 149.84 116.196 150.803 115.916 151.601C115.783 151.982 115.569 152.446 115.208 152.74C115.011 152.901 114.753 153.022 114.445 153.028C114.143 153.033 113.868 152.924 113.631 152.764C113.043 152.366 112.755 151.719 112.613 151.089C112.469 150.452 112.451 149.73 112.483 149.042C112.515 148.348 112.601 147.653 112.683 147.058C112.707 146.887 112.729 146.728 112.75 146.58C112.805 146.195 112.849 145.888 112.866 145.665C112.896 145.295 113.219 145.019 113.589 145.048ZM113.838 148.879C113.833 148.955 113.829 149.03 113.825 149.104C113.796 149.741 113.818 150.326 113.924 150.794C114.031 151.269 114.201 151.527 114.384 151.651C114.389 151.654 114.393 151.657 114.397 151.66C114.46 151.586 114.553 151.429 114.648 151.156C114.87 150.525 114.963 149.703 114.976 149.442C115.002 148.957 114.931 148.556 114.819 148.268C114.702 147.967 114.566 147.846 114.507 147.815C114.505 147.814 114.504 147.813 114.502 147.812C114.494 147.805 114.483 147.796 114.422 147.841C114.309 147.925 114.109 148.164 113.922 148.713C113.901 148.774 113.873 148.829 113.838 148.879ZM114.449 151.687C114.449 151.687 114.449 151.686 114.448 151.686L114.449 151.687Z" fill="white"/>
<path fill-rule="evenodd" clip-rule="evenodd" d="M116.345 160.775C116.521 161.591 116.543 162.513 116.546 162.681C116.548 162.811 116.478 163.928 116.328 164.924C116.254 165.416 116.152 165.944 116.007 166.321C115.945 166.484 115.827 166.753 115.598 166.929C115.46 167.035 115.255 167.126 115.006 167.099C114.772 167.073 114.602 166.953 114.496 166.851C114.055 166.427 113.823 165.832 113.693 165.252C113.613 164.891 113.565 164.506 113.538 164.116C113.439 163.998 113.38 163.846 113.381 163.68C113.382 163.529 113.373 163.337 113.362 163.096C113.357 163.005 113.353 162.907 113.348 162.801C113.332 162.436 113.32 162.011 113.339 161.592C113.358 161.179 113.409 160.734 113.538 160.339C113.571 160.236 113.612 160.13 113.662 160.026C113.693 159.918 113.75 159.822 113.825 159.744C113.954 159.559 114.122 159.391 114.341 159.268C114.589 159.128 114.887 159.053 115.201 159.129C115.504 159.203 115.718 159.394 115.858 159.574C116.122 159.913 116.261 160.386 116.345 160.775ZM114.963 160.785C114.954 160.972 114.941 161.173 114.928 161.38C114.923 161.461 114.918 161.544 114.913 161.626C114.88 162.174 114.85 162.772 114.855 163.358C114.86 163.9 114.895 164.41 114.981 164.845C114.987 164.805 114.993 164.765 115 164.724C115.07 164.254 115.122 163.756 115.155 163.363C115.186 162.999 115.199 162.762 115.202 162.713C115.202 162.707 115.202 162.703 115.202 162.704C115.2 162.547 115.178 161.737 115.032 161.057C115.009 160.955 114.986 160.864 114.963 160.785Z" fill="white"/>
<path opacity="0.5" d="M76.078 162.605C70.199 169.34 91.7453 183.41 93.0549 184.548C97.091 188.79 99.085 192.617 99.5775 194C103.636 187.504 111.155 173.755 108.766 170.728C106.378 167.701 101.72 173.817 99.69 177.253C100.433 169.355 100.422 152.306 94.4343 147.298C88.4464 142.29 89.8732 153.979 91.3351 160.45C88.2091 158.923 80.7813 157.217 76.078 162.605Z" fill="url(#paint0_linear_2_51159)"/>
<path d="M118.69 178.322C119.073 177.383 140.411 138.198 152.621 141.479C162.389 144.104 150.869 150.311 143.887 153.087C150.645 150.521 162.625 147.65 158.272 155.903C159.949 155.945 160.755 156.877 159.652 159.403C156.212 167.283 119.94 188.303 116.144 193.17C113.107 197.064 116.576 184.894 118.69 178.322Z" fill="url(#paint1_linear_2_51159)"/>
<path d="M98.0557 196.249C96.3171 193.603 91.5121 189.958 83.2387 188.999C72.897 187.8 59.3954 180.747 68.2457 179.865C72.1387 179.478 74.9548 179.633 76.8465 179.956C73.2077 178.569 69.0035 176.136 69.6085 173.1C70.3875 169.191 94.1861 183.992 98.0557 196.249Z" fill="url(#paint2_linear_2_51159)"/>
<path d="M106.444 180.122C101.762 182.349 102.915 191.828 104.077 196.29C105.135 197.551 107.48 199.549 108.397 197.448C109.315 195.346 112.057 194.211 113.314 193.905C114.879 194.355 118.685 195.484 121.389 196.406C124.768 197.558 124.433 191.346 124.071 189.273C123.781 187.615 117.794 189.921 114.837 191.281C116.044 189.031 118.388 183.665 118.11 180.201C117.763 175.87 112.296 177.339 106.444 180.122Z" fill="url(#paint3_linear_2_51159)"/>
<path opacity="0.5" d="M146.024 170.79C143.199 165.653 127.765 171.796 125.651 178.368L123.683 191.151C131.34 190.513 142.281 190.185 145.923 185.844C149.565 181.502 143.713 178.678 140.327 178.467C142.653 177.793 148.85 175.928 146.024 170.79Z" fill="url(#paint4_linear_2_51159)"/>
<path fill-rule="evenodd" clip-rule="evenodd" d="M153.36 142.531C152.518 142.6 151.376 142.956 151.047 143.073C144.76 145.316 138.84 149.905 133.774 154.322C128.201 159.18 123.813 164.963 120.897 171.74C118.554 177.184 117 182.817 115.699 188.626C115.618 188.988 115.258 189.216 114.896 189.134C114.534 189.053 114.306 188.694 114.388 188.332C115.697 182.486 117.273 176.762 119.662 171.209C122.665 164.231 127.18 158.288 132.891 153.309C137.971 148.879 144.053 144.141 150.596 141.808C150.951 141.681 152.228 141.276 153.25 141.192C153.51 141.17 153.783 141.167 154.035 141.205C154.274 141.242 154.586 141.33 154.826 141.569C155.105 141.847 155.175 142.215 155.112 142.56C155.054 142.873 154.889 143.185 154.674 143.492C153.372 145.35 151.812 146.812 150.153 148.112C151.087 147.829 152.031 147.629 152.966 147.551C155.928 147.304 158.465 149.191 158.734 152.276C158.904 154.221 158.247 156.227 157.138 157.89C157.187 157.9 157.235 157.911 157.283 157.922C158.375 158.172 159.669 158.729 160.046 160.018C160.517 161.627 159.585 163.161 158.529 164.275C157.441 165.421 156.024 166.341 155.029 166.786C152.453 167.938 149.557 168.394 146.83 168.824C146.084 168.942 145.35 169.057 144.638 169.185C142.316 169.601 140.137 170.369 137.863 171.193C137.514 171.32 137.129 171.14 137.002 170.791C136.876 170.442 137.056 170.057 137.405 169.93C139.672 169.108 141.952 168.301 144.401 167.862C145.176 167.723 145.953 167.6 146.726 167.478C149.426 167.051 152.084 166.631 154.48 165.559C155.326 165.181 156.596 164.36 157.554 163.35C158.542 162.308 159.013 161.271 158.757 160.395C158.603 159.869 158.006 159.466 156.982 159.231C156.727 159.173 156.463 159.129 156.2 159.097C155.666 159.69 155.074 160.208 154.448 160.627C154.315 160.715 153.918 160.926 153.441 161.155C152.946 161.393 152.313 161.675 151.685 161.908C151.073 162.135 150.404 162.337 149.859 162.376C149.594 162.394 149.262 162.383 148.968 162.233C148.809 162.153 148.658 162.029 148.548 161.853C148.439 161.677 148.394 161.485 148.389 161.302C148.367 160.56 148.713 159.961 149.178 159.51C149.634 159.067 150.234 158.734 150.834 158.483C152.032 157.983 153.405 157.742 154.15 157.699C154.536 157.677 155.054 157.667 155.622 157.699C156.817 156.164 157.554 154.207 157.395 152.393C157.196 150.112 155.371 148.699 153.077 148.89C149.839 149.16 146.375 151.081 143.487 152.846C143.404 152.896 143.331 152.941 143.265 152.982C143.176 153.037 143.094 153.088 143.026 153.13C142.936 153.186 142.863 153.231 142.819 153.258C142.799 153.269 142.778 153.282 142.764 153.29L142.752 153.297L142.739 153.304C142.735 153.306 142.722 153.313 142.706 153.321C142.696 153.325 142.67 153.335 142.654 153.342C142.621 153.353 142.491 153.378 142.393 153.381C142.027 153.25 141.757 152.648 141.847 152.369C141.886 152.309 141.952 152.233 141.973 152.213C142.001 152.188 142.026 152.17 142.028 152.168C142.035 152.163 142.042 152.158 142.045 152.156C142.059 152.147 142.074 152.137 142.078 152.134L142.079 152.134C142.123 152.106 142.268 152.016 142.555 151.841C142.908 151.619 143.346 151.339 143.538 151.197C144.411 150.552 145.276 149.952 146.124 149.364C148.941 147.41 151.56 145.594 153.574 142.721C153.629 142.642 153.67 142.576 153.701 142.521C153.608 142.517 153.494 142.52 153.36 142.531ZM154.335 159.035C154.298 159.037 154.263 159.039 154.228 159.041C153.612 159.076 152.391 159.289 151.351 159.723C150.832 159.94 150.401 160.195 150.114 160.474C149.916 160.666 149.803 160.851 149.756 161.036C149.759 161.036 149.762 161.035 149.764 161.035C150.108 161.011 150.626 160.867 151.218 160.648C151.795 160.434 152.387 160.17 152.859 159.943C153.094 159.831 153.296 159.728 153.448 159.648C153.524 159.608 153.587 159.575 153.633 159.549C153.676 159.525 153.696 159.512 153.7 159.51C153.701 159.509 153.702 159.509 153.701 159.509C153.918 159.364 154.13 159.206 154.335 159.035Z" fill="white"/>
<path fill-rule="evenodd" clip-rule="evenodd" d="M138.453 170.21C138.115 170.242 137.81 170.27 137.549 170.29C133.774 170.573 130.531 171.053 127.272 172.709C126.941 172.877 126.537 172.745 126.369 172.414C126.201 172.083 126.333 171.679 126.663 171.511C130.165 169.732 133.625 169.237 137.449 168.95C137.677 168.932 137.958 168.906 138.278 168.877C139.364 168.776 140.906 168.632 142.423 168.652C143.411 168.664 144.423 168.745 145.331 168.96C146.23 169.172 147.091 169.532 147.709 170.149C148.396 170.835 148.528 171.675 148.34 172.476C148.161 173.237 147.697 173.976 147.178 174.616C146.135 175.9 144.679 177.013 143.987 177.43C143.917 177.473 143.825 177.529 143.717 177.597C143.382 177.804 142.883 178.112 142.327 178.423C142.6 178.493 142.845 178.566 143.041 178.641C143.137 178.678 143.242 178.717 143.353 178.759C144.093 179.036 145.127 179.423 145.966 179.976C146.937 180.618 147.858 181.631 147.58 183.126C147.253 184.887 146.078 186.531 144.645 187.777C143.209 189.026 141.428 189.951 139.771 190.207C137.519 190.555 135.002 190.132 132.684 189.27C130.361 188.407 128.18 187.084 126.596 185.568C124.003 183.087 124.319 180.13 124.883 177.297C124.956 176.933 125.309 176.697 125.673 176.769C126.037 176.842 126.273 177.196 126.201 177.56C125.642 180.363 125.486 182.646 127.525 184.598C128.96 185.97 130.977 187.203 133.152 188.011C135.329 188.82 137.607 189.182 139.566 188.879C140.916 188.671 142.47 187.888 143.763 186.763C145.058 185.636 146.006 184.242 146.259 182.88C146.389 182.184 146.027 181.627 145.225 181.098C144.525 180.636 143.652 180.307 142.9 180.025C142.784 179.981 142.67 179.938 142.561 179.896C142.092 179.717 141.14 179.519 140.244 179.39C140.137 179.425 140.031 179.457 139.927 179.485C139.44 179.616 138.831 179.704 138.32 179.461C138.224 179.416 138.12 179.36 138.029 179.292C137.983 179.258 137.922 179.206 137.864 179.136C137.81 179.068 137.726 178.942 137.704 178.763C137.644 178.29 138.02 178.068 138.125 178.018C138.253 177.958 138.383 177.937 138.461 177.928C138.781 177.888 139.296 177.922 139.811 177.98C139.904 177.99 140 178.002 140.099 178.014C140.364 177.911 140.647 177.783 140.938 177.639C141.73 177.245 142.492 176.774 142.987 176.468C143.106 176.394 143.209 176.33 143.294 176.279C143.875 175.929 145.205 174.914 146.134 173.769C146.602 173.193 146.921 172.642 147.032 172.169C147.133 171.737 147.061 171.401 146.76 171.1C146.391 170.732 145.804 170.452 145.021 170.267C144.247 170.084 143.343 170.007 142.406 169.995C140.97 169.977 139.538 170.11 138.453 170.21ZM138.612 179.264C138.611 179.263 138.613 179.263 138.618 179.262C138.614 179.263 138.612 179.264 138.612 179.264Z" fill="white"/>
<path fill-rule="evenodd" clip-rule="evenodd" d="M87.532 140.173C88.6658 140.018 89.9208 140.304 91.2765 141.08C93.1871 142.174 94.4772 144.145 95.4417 146.174C96.1127 147.585 96.6605 149.107 97.1445 150.451C97.3531 151.03 97.5498 151.577 97.7395 152.067C98.9409 155.175 100.063 158.301 100.819 161.587C100.902 161.949 100.676 162.309 100.314 162.392C99.9528 162.476 99.5922 162.25 99.5091 161.888C98.7757 158.699 97.682 155.645 96.4862 152.552C96.2749 152.005 96.0664 151.426 95.8511 150.827C95.3772 149.51 94.8702 148.101 94.2281 146.751C93.2986 144.796 92.1566 143.133 90.6088 142.247C89.4371 141.576 88.48 141.4 87.7139 141.504C86.9523 141.608 86.2963 142.001 85.7416 142.625C84.6071 143.901 83.9682 146.077 83.913 148.205C83.8512 150.591 84.1584 152.953 85.0683 154.863C85.6349 156.053 86.4363 157.073 87.5468 157.823C88.8506 157.917 90.1169 158.141 91.2587 158.5C91.5846 158.603 91.8414 158.696 92.0327 158.781C92.1277 158.824 92.2211 158.87 92.3041 158.923C92.372 158.967 92.5003 159.055 92.5949 159.201C92.6473 159.282 92.7074 159.409 92.7135 159.572C92.72 159.747 92.6625 159.901 92.5772 160.019C92.4347 160.215 92.2355 160.284 92.1711 160.305C92.0045 160.359 91.8109 160.373 91.6655 160.378C91.0504 160.399 90.0011 160.281 89.4777 160.141C88.5909 159.903 87.8061 159.564 87.1144 159.143C84.8213 159.02 82.4178 159.319 80.4801 159.998C78.2295 160.788 75.8184 162.525 74.3408 164.673C72.874 166.805 72.377 169.249 73.7055 171.598C74.8695 173.656 76.7998 174.469 79.0995 174.791C80.2534 174.952 81.4728 174.985 82.7033 174.996C82.9346 174.999 83.1669 175 83.3993 175.001C84.3876 175.007 85.3776 175.012 86.2963 175.079C87.8956 175.195 89.3856 175.547 90.8622 175.895C90.9777 175.922 91.0932 175.95 91.2087 175.977C91.2388 175.984 91.2652 175.99 91.289 175.996C91.5544 175.769 91.9542 175.782 92.2033 176.035C92.4639 176.299 92.4611 176.724 92.1969 176.985C92.1914 176.99 92.1851 176.997 92.1778 177.004C92.0923 177.091 91.8889 177.297 91.5848 177.352C91.4305 177.38 91.2929 177.364 91.1994 177.349C91.1097 177.334 91.007 177.31 90.9102 177.287L90.9014 177.285C90.7915 177.259 90.6823 177.233 90.5737 177.208C89.077 176.855 87.6869 176.527 86.1992 176.419C85.3296 176.356 84.3967 176.351 83.4119 176.345C83.1746 176.344 82.9342 176.342 82.691 176.34C81.4545 176.329 80.1602 176.296 78.9133 176.121C76.4116 175.771 73.9922 174.834 72.5359 172.259C70.879 169.33 71.5739 166.324 73.2337 163.911C74.8827 161.514 77.5328 159.608 80.0354 158.73C81.6426 158.167 83.5306 157.844 85.4371 157.783C84.7864 157.093 84.2647 156.301 83.8551 155.441C82.8197 153.267 82.505 150.669 82.5698 148.171C82.6294 145.867 83.3137 143.334 84.7374 141.732C85.4618 140.917 86.3937 140.329 87.532 140.173ZM91.5821 160.057C91.5884 160.061 91.5867 160.06 91.5795 160.055C91.5806 160.056 91.5814 160.056 91.5821 160.057Z" fill="white"/>
<path fill-rule="evenodd" clip-rule="evenodd" d="M102.271 129.519C101.577 130.379 101.025 131.502 100.798 132.003C98.7636 136.497 98.5563 141.731 98.5952 146.737C98.6147 149.247 98.8831 151.692 99.1565 154.182C99.2858 155.36 99.4163 156.548 99.522 157.758C99.5543 158.128 99.2808 158.453 98.9112 158.486C98.5415 158.518 98.2157 158.245 98.1834 157.875C98.0833 156.729 97.9567 155.575 97.8294 154.414C97.5523 151.887 97.2715 149.326 97.2515 146.748C97.2126 141.742 97.4058 136.238 99.5743 131.449C99.8127 130.922 100.421 129.671 101.226 128.675C101.625 128.18 102.115 127.694 102.678 127.414C103.274 127.117 103.974 127.044 104.664 127.439C105.491 127.913 106.003 128.788 106.324 129.794C106.648 130.81 106.809 132.058 106.863 133.424C106.972 136.16 106.655 139.51 106.222 142.738C105.888 145.226 105.481 147.669 105.139 149.723C105.037 150.337 104.94 150.916 104.853 151.451C104.663 152.623 104.519 153.574 104.455 154.232C104.438 154.403 104.428 154.546 104.423 154.662C105.201 154.768 105.974 154.883 106.649 155.183C107.522 155.57 108.203 156.241 108.732 157.409C109.914 160.021 109.055 163.086 107.521 165.191C106.965 165.953 106.637 166.835 106.375 167.815C106.256 168.263 106.153 168.719 106.047 169.191C106.036 169.236 106.026 169.281 106.016 169.327C105.9 169.842 105.778 170.373 105.628 170.899C105.546 171.187 105.482 171.479 105.415 171.786C105.392 171.892 105.369 172 105.344 172.109C105.252 172.515 105.142 172.957 104.967 173.341C104.788 173.731 104.512 174.129 104.049 174.36C103.583 174.594 103.045 174.6 102.465 174.451C102.105 174.358 101.889 173.992 101.981 173.633C102.074 173.273 102.44 173.057 102.799 173.149C103.185 173.249 103.365 173.2 103.448 173.159C103.533 173.116 103.636 173.02 103.745 172.782C103.856 172.538 103.942 172.219 104.033 171.814C104.053 171.724 104.074 171.629 104.095 171.531C104.164 171.214 104.241 170.863 104.336 170.53C104.474 170.045 104.589 169.547 104.705 169.031C104.716 168.985 104.726 168.939 104.736 168.893C104.842 168.425 104.95 167.943 105.077 167.468C105.356 166.423 105.738 165.356 106.435 164.399C107.796 162.533 108.422 159.985 107.508 157.963C107.093 157.047 106.63 156.644 106.104 156.411C105.578 156.178 104.962 156.093 104.103 155.975C103.996 155.96 103.885 155.945 103.77 155.929C103.356 155.871 103.199 155.529 103.156 155.413C103.104 155.27 103.087 155.12 103.08 155.005C103.066 154.763 103.084 154.45 103.118 154.102C103.187 153.394 103.337 152.403 103.527 151.235C103.615 150.691 103.713 150.107 103.816 149.489C104.157 147.437 104.559 145.024 104.89 142.559C105.321 139.348 105.624 136.092 105.521 133.477C105.469 132.168 105.316 131.055 105.043 130.202C104.768 129.339 104.402 128.838 103.995 128.605C103.773 128.477 103.558 128.477 103.278 128.616C102.966 128.771 102.621 129.085 102.271 129.519Z" fill="white"/>
<path fill-rule="evenodd" clip-rule="evenodd" d="M72.4349 171.304C72.5157 171.344 72.5772 171.376 72.6158 171.394C75.653 172.86 78.4804 174.683 81.1783 176.648C87.2639 181.079 92.0982 186.538 96.9873 192.077C97.2328 192.355 97.2064 192.779 96.9282 193.025C96.65 193.271 96.2255 193.244 95.9799 192.966C91.0774 187.412 86.3355 182.066 80.3873 177.734C77.7283 175.798 74.9721 174.023 72.0318 172.604C71.977 172.578 71.8986 172.538 71.8006 172.489C71.2263 172.2 69.9818 171.575 68.8924 171.251C68.5795 171.158 68.3018 171.098 68.0733 171.075C67.8668 171.055 67.7465 171.07 67.6883 171.086C67.6825 171.152 67.6893 171.306 67.7872 171.593C68.4901 173.648 69.8694 175.772 71.6446 177.444C71.8172 177.607 71.9931 177.765 72.1721 177.917C73.1196 177.943 73.9561 178.024 74.5478 178.12C75.9676 178.35 77.6127 178.893 78.7365 180.069C78.912 180.252 79.0986 180.494 79.1561 180.785C79.1883 180.948 79.1808 181.134 79.1002 181.316C79.0212 181.494 78.8952 181.615 78.7764 181.694C78.5599 181.838 78.3112 181.878 78.1426 181.892C77.9547 181.908 77.7581 181.899 77.5782 181.879C75.4359 181.635 73.411 180.638 71.6792 179.253C70.8476 179.248 69.9461 179.29 69.074 179.408C68.0768 179.542 67.1552 179.771 66.4306 180.118C65.7045 180.466 65.2409 180.899 65.0353 181.411C64.9188 181.701 64.9756 182.06 65.2445 182.52C65.5103 182.974 65.9123 183.4 66.2567 183.745C68.1855 185.678 70.6727 186.826 73.3837 187.396C75.4362 187.828 77.5128 187.893 79.6319 187.748C80.0338 187.721 80.4454 187.673 80.8756 187.621C80.9263 187.615 80.9774 187.608 81.0287 187.602C81.4071 187.556 81.8001 187.508 82.1931 187.473C83.0859 187.392 84.0354 187.372 84.9802 187.593C85.5419 187.725 86.1998 187.992 86.8011 188.311C87.3989 188.628 87.9955 189.025 88.4082 189.444C88.6688 189.708 88.666 190.133 88.4018 190.394C88.1377 190.655 87.7123 190.652 87.4517 190.388C87.1726 190.105 86.7075 189.783 86.1715 189.498C85.6391 189.216 85.0913 189 84.6733 188.902C83.9352 188.728 83.1529 188.736 82.3133 188.811C81.9432 188.844 81.573 188.889 81.1923 188.936C81.141 188.942 81.0895 188.948 81.0378 188.955C80.6075 189.007 80.1645 189.059 79.7236 189.089C77.5184 189.24 75.3125 189.175 73.1072 188.711C70.2062 188.101 67.4611 186.855 65.3055 184.695C64.9578 184.346 64.4454 183.815 64.0848 183.198C63.7273 182.588 63.4455 181.764 63.7883 180.91C64.1649 179.972 64.9531 179.336 65.8504 178.906C66.7492 178.476 67.8227 178.221 68.8942 178.076C69.3401 178.016 69.792 177.974 70.2393 177.947C68.5483 176.217 67.2279 174.11 66.5158 172.027C66.3644 171.585 66.2914 171.147 66.3843 170.751C66.489 170.305 66.7831 170.001 67.161 169.848C67.4982 169.712 67.8741 169.705 68.2061 169.738C68.5496 169.772 68.9162 169.857 69.2748 169.963C70.5014 170.327 71.8971 171.032 72.4349 171.304ZM77.1044 180.447C76.181 180.267 75.2728 179.926 74.4024 179.458C75.3715 179.622 76.3385 179.933 77.1044 180.447ZM77.8594 181.112C77.8593 181.112 77.859 181.112 77.8584 181.11L77.8594 181.112Z" fill="white"/>
<path fill-rule="evenodd" clip-rule="evenodd" d="M112.137 178.658C109.69 179.376 107.247 180.888 106.136 181.973C102.984 185.049 102.64 189.45 104.057 193.507C104.179 193.857 103.994 194.241 103.644 194.363C103.293 194.485 102.91 194.3 102.788 193.95C101.259 189.572 101.557 184.563 105.197 181.011C106.479 179.761 109.119 178.144 111.759 177.369C113.082 176.98 114.465 176.785 115.709 176.996C116.978 177.211 118.106 177.853 118.824 179.106C120.094 181.324 119.527 184.063 118.511 186.463C118.008 187.652 117.373 188.809 116.729 189.855C117.622 189.517 118.901 189.084 120.127 188.841C121.072 188.654 122.097 188.556 122.9 188.788C123.318 188.908 123.725 189.132 124.006 189.525C124.291 189.922 124.388 190.408 124.342 190.937C124.274 191.72 123.805 192.365 123.237 192.85C122.663 193.34 121.924 193.725 121.161 193.99C120.396 194.256 119.573 194.413 118.811 194.425C118.066 194.436 117.298 194.307 116.716 193.914C116.409 193.706 116.328 193.288 116.536 192.981C116.744 192.673 117.161 192.593 117.469 192.801C117.726 192.974 118.175 193.09 118.791 193.081C119.392 193.072 120.073 192.945 120.72 192.72C121.369 192.495 121.949 192.183 122.365 191.828C122.786 191.468 122.977 191.12 123.003 190.821C123.029 190.525 122.967 190.381 122.914 190.307C122.858 190.23 122.75 190.143 122.528 190.079C122.052 189.942 121.298 189.979 120.388 190.159C118.606 190.512 116.651 191.319 116.195 191.519C115.932 191.635 115.662 191.757 115.387 191.886C115.185 192.175 114.991 192.444 114.811 192.691C113.479 194.521 111.939 196.254 110.118 197.673C110.077 197.705 109.468 198.152 108.913 198.418C108.771 198.486 108.61 198.553 108.449 198.596C108.311 198.633 108.066 198.683 107.811 198.601C107.666 198.555 107.516 198.465 107.401 198.315C107.289 198.169 107.243 198.008 107.229 197.871C107.203 197.621 107.274 197.373 107.353 197.171C108.027 195.437 109.411 194.031 110.936 192.916C112.074 192.083 113.324 191.39 114.488 190.827C115.437 189.451 116.519 187.722 117.274 185.939C118.257 183.617 118.596 181.412 117.658 179.774C117.172 178.925 116.425 178.48 115.485 178.32C114.519 178.157 113.357 178.3 112.137 178.658ZM112.505 193.466C112.241 193.638 111.982 193.816 111.729 194.001C110.604 194.823 109.648 195.755 109.028 196.796C109.166 196.704 109.262 196.634 109.287 196.617C109.292 196.613 109.294 196.612 109.293 196.613C110.472 195.694 111.535 194.625 112.505 193.466ZM108.074 197.304C108.074 197.304 108.077 197.303 108.083 197.302C108.077 197.304 108.073 197.304 108.074 197.304Z" fill="white"/>
<path fill-rule="evenodd" clip-rule="evenodd" d="M139.743 142.94C139.983 143.223 139.948 143.647 139.665 143.887C138.876 144.556 138.088 145.205 137.305 145.85C135.25 147.542 133.236 149.201 131.357 151.089C128.438 154.022 125.785 157.2 123.113 160.399C122.672 160.928 122.23 161.457 121.786 161.986C121.548 162.27 121.124 162.307 120.839 162.069C120.555 161.83 120.518 161.407 120.757 161.122C121.197 160.598 121.636 160.072 122.076 159.544C124.746 156.347 127.441 153.12 130.405 150.141C132.334 148.203 134.426 146.48 136.498 144.773C137.27 144.137 138.039 143.504 138.796 142.862C139.079 142.622 139.503 142.657 139.743 142.94Z" fill="white"/>
<path fill-rule="evenodd" clip-rule="evenodd" d="M110.608 204.678C110.979 204.671 111.285 204.966 111.293 205.337C111.311 206.245 111.323 207.157 111.335 208.071C111.399 212.833 111.463 217.655 112.344 222.216C112.414 222.581 112.176 222.933 111.811 223.003C111.447 223.074 111.095 222.835 111.024 222.471C110.119 217.781 110.053 212.818 109.991 208.058C109.979 207.151 109.967 206.252 109.949 205.363C109.942 204.992 110.237 204.686 110.608 204.678Z" fill="black"/>
<path fill-rule="evenodd" clip-rule="evenodd" d="M109.653 204.713C109.87 204.412 110.29 204.344 110.591 204.561C112.74 206.108 115.845 208.287 118.416 210.081C119.701 210.978 120.852 211.778 121.681 212.354C122.096 212.641 122.43 212.873 122.661 213.033L123.017 213.28L123.018 213.281L122.636 213.833L122.254 214.386L121.895 214.137C121.665 213.977 121.33 213.745 120.915 213.457C120.085 212.881 118.934 212.081 117.647 211.183C115.076 209.389 111.963 207.204 109.806 205.651C109.505 205.434 109.436 205.014 109.653 204.713ZM123.188 214.215C122.977 214.521 122.559 214.597 122.254 214.386L122.636 213.833L123.018 213.281C123.323 213.492 123.4 213.91 123.188 214.215Z" fill="black"/>
<path fill-rule="evenodd" clip-rule="evenodd" d="M124.282 212.416C124.481 212.729 124.388 213.145 124.075 213.344L123.715 212.777L123.354 212.21C123.667 212.011 124.083 212.103 124.282 212.416ZM119.497 216.391C116.923 218.164 113.82 220.41 111.633 222.34C111.355 222.585 110.93 222.559 110.685 222.281C110.439 222.003 110.466 221.578 110.744 221.332C112.995 219.346 116.154 217.062 118.734 215.285C120.028 214.394 121.182 213.625 122.013 213.08C122.428 212.807 122.763 212.59 122.994 212.441C123.11 212.366 123.2 212.309 123.261 212.27L123.33 212.225L123.354 212.21C123.354 212.21 123.354 212.21 123.715 212.777L124.075 213.344L124.053 213.358L123.985 213.401C123.925 213.44 123.837 213.496 123.723 213.57C123.494 213.717 123.162 213.933 122.75 214.203C121.926 214.745 120.78 215.507 119.497 216.391Z" fill="black"/>
<path opacity="0.3" d="M22.6977 199.283C25.448 202.07 32.1011 201.457 35.3658 200.981C41.7276 199.07 18.079 194.601 22.6977 199.283Z" fill="#FF006A"/>
<path opacity="0.3" d="M152.971 201.92C157.05 203.727 165.022 200.993 168.888 199.481C176.169 195.587 146.12 198.884 152.971 201.92Z" fill="#FF006A"/>
<path fill-rule="evenodd" clip-rule="evenodd" d="M32.2725 194.355C32.3477 193.992 32.7032 193.758 33.0666 193.834C33.932 194.013 34.7533 194.361 35.3465 194.983C35.7516 195.407 36.0216 195.93 36.1397 196.543C36.4493 196.56 36.7587 196.577 37.068 196.594C37.4385 196.615 37.7223 196.932 37.7018 197.302C37.6814 197.673 37.3644 197.956 36.9939 197.936C36.7191 197.921 36.4444 197.906 36.1697 197.89C36.0708 198.719 35.7924 199.399 35.3549 199.939C34.8615 200.547 34.2076 200.925 33.511 201.157C32.1494 201.609 30.4968 201.539 29.1777 201.443C28.5893 201.4 26.5297 201.166 24.9431 200.595C24.5414 200.45 24.1502 200.277 23.8128 200.068C23.4809 199.863 23.1596 199.598 22.9493 199.251C22.7251 198.882 22.6449 198.446 22.7742 197.986C22.8956 197.553 23.1849 197.157 23.5787 196.789C24.1482 196.256 24.8765 196.099 25.505 196.056C25.9584 196.026 26.4472 196.054 26.8439 196.076C26.9814 196.084 27.1078 196.091 27.2179 196.095C29.7234 196.185 32.2279 196.323 34.7254 196.463C34.6396 196.242 34.5183 196.061 34.3742 195.91C34.0361 195.556 33.5058 195.297 32.7942 195.149C32.4308 195.074 32.1973 194.719 32.2725 194.355ZM34.8246 197.815C32.2696 197.671 29.7211 197.529 27.1699 197.438C27.0032 197.432 26.8415 197.423 26.6828 197.414C26.313 197.393 25.9592 197.373 25.5954 197.397C25.0934 197.431 24.7349 197.547 24.4962 197.77C24.1997 198.048 24.0979 198.242 24.0679 198.349C24.0457 198.428 24.0538 198.481 24.0979 198.554C24.1559 198.649 24.283 198.779 24.52 198.926C24.7515 199.069 25.0497 199.205 25.3983 199.331C26.8127 199.84 28.7284 200.063 29.2755 200.102C30.6151 200.2 32.0128 200.239 33.0872 199.882C33.6087 199.708 34.0192 199.452 34.3111 199.092C34.5538 198.793 34.744 198.385 34.8246 197.815Z" fill="white"/>
<path opacity="0.1" d="M24.6795 219.203C22.8718 217.371 40.3984 214.289 41.7759 214.055C44.003 214.07 52.493 213.709 53.6068 216.779C54.1604 218.305 46.509 218.794 45.8372 218.888C42.9428 219.294 40.0154 219.346 37.1097 219.77C33.845 220.246 27.4298 221.991 24.6795 219.203Z" fill="#FF006A"/>
<path fill-rule="evenodd" clip-rule="evenodd" d="M49.7471 213.684C50.7974 214.107 51.7566 214.76 52.1327 215.796C52.2137 216.02 52.2252 216.258 52.1568 216.49C52.0914 216.712 51.9649 216.888 51.8319 217.023C51.577 217.281 51.2185 217.467 50.8662 217.609C50.1454 217.899 49.1599 218.116 48.1874 218.28C47.2032 218.445 46.185 218.565 45.3758 218.648C44.9347 218.694 44.5717 218.727 44.304 218.752C44.0621 218.775 43.898 218.79 43.8248 218.8C42.3918 219.001 40.9536 219.116 39.5369 219.23L39.4257 219.239C37.9662 219.356 36.529 219.473 35.101 219.682C34.636 219.749 34.0829 219.848 33.472 219.958C32.0475 220.213 30.3084 220.524 28.6379 220.628C26.2662 220.776 23.6958 220.544 22.0956 218.922C21.8564 218.68 21.705 218.332 21.7992 217.937C21.8783 217.606 22.1053 217.363 22.3002 217.199C22.6999 216.862 23.3319 216.558 24.0446 216.28C25.5012 215.711 27.6041 215.138 29.7722 214.623C34.1212 213.589 38.8641 212.757 39.5575 212.639L39.6157 212.629L39.6747 212.63C39.865 212.631 40.1072 212.629 40.3912 212.627C41.7156 212.618 43.9496 212.603 46.0807 212.85C47.3754 213.001 48.6788 213.253 49.7471 213.684ZM39.7255 213.974C38.8685 214.121 34.2842 214.932 30.0829 215.93C27.9231 216.444 25.8972 216.999 24.533 217.532C23.9142 217.773 23.4891 217.988 23.2487 218.162C24.4235 219.174 26.3426 219.425 28.5541 219.287C30.1471 219.187 31.7348 218.903 33.1284 218.653C33.7683 218.538 34.3672 218.431 34.907 218.352C36.3847 218.136 37.864 218.016 39.3183 217.899L39.4135 217.892C40.8418 217.777 42.2453 217.665 43.6383 217.469C43.7321 217.456 43.9514 217.436 44.2471 217.408C44.5238 217.382 44.8673 217.35 45.2378 217.312C46.0349 217.229 47.0209 217.114 47.9642 216.955C48.9194 216.794 49.7849 216.596 50.364 216.363C50.5909 216.271 50.7342 216.19 50.8161 216.129C50.5976 215.68 50.0906 215.271 49.2446 214.93C48.3381 214.564 47.171 214.33 45.9255 214.185C43.8882 213.948 41.7663 213.962 40.4319 213.971C40.1617 213.973 39.9239 213.975 39.7255 213.974Z" fill="white"/>
<path fill-rule="evenodd" clip-rule="evenodd" d="M168.512 198.226C168.709 198.09 168.972 198.063 169.2 198.179C169.229 198.194 169.259 198.209 169.29 198.224C170.017 198.227 170.748 198.245 171.485 198.275C171.856 198.29 172.144 198.603 172.129 198.974C172.125 199.064 172.104 199.149 172.069 199.226C172.688 199.489 173.307 199.845 173.769 200.394C174.005 200.676 174.137 201.051 174.002 201.448C173.89 201.778 173.634 201.985 173.462 202.101C173.16 202.304 172.757 202.447 172.573 202.513C172.545 202.523 172.521 202.531 172.505 202.538C170.196 203.41 167.755 203.74 165.323 203.682C164.362 203.659 163.406 203.583 162.472 203.508L162.389 203.501C161.422 203.424 160.477 203.35 159.532 203.333C158.99 203.324 158.423 203.329 157.844 203.335C156.866 203.345 155.855 203.356 154.884 203.292C154.914 203.294 154.435 203.28 153.974 203.219C153.746 203.188 153.478 203.141 153.25 203.064C153.139 203.026 152.997 202.968 152.869 202.874C152.746 202.785 152.542 202.592 152.511 202.274C152.481 201.973 152.634 201.759 152.712 201.667C152.8 201.563 152.903 201.486 152.983 201.432C153.146 201.323 153.343 201.227 153.51 201.154C153.815 201.021 154.252 200.868 154.2 200.889C158.923 199.002 163.614 198.274 168.512 198.226ZM169.005 199.567C164.214 199.57 159.683 200.221 155.145 201.962C156.019 202.011 156.867 202.002 157.74 201.992C158.329 201.985 158.929 201.979 159.556 201.99C160.549 202.007 161.534 202.085 162.496 202.162L162.565 202.167C163.509 202.243 164.432 202.317 165.355 202.339C167.646 202.393 169.91 202.082 172.03 201.281C172.075 201.263 172.117 201.248 172.159 201.233C172.231 201.207 172.302 201.182 172.393 201.145C172.454 201.12 172.51 201.096 172.56 201.071C172.187 200.73 171.652 200.482 170.984 200.249C170.783 200.179 170.565 200.108 170.337 200.036C169.9 199.895 169.432 199.745 169.005 199.567ZM172.768 200.942C172.768 200.942 172.768 200.943 172.767 200.944L172.768 200.942Z" fill="white"/>
<path d="M66.563 185.208V185.208C43.5521 170.359 28.6102 145.788 26.0124 118.526L23.8661 96.0007" stroke="#D9DAE5" stroke-opacity="0.5" stroke-width="0.907126"/>
<path fill-rule="evenodd" clip-rule="evenodd" d="M35.0388 161.922C35.5451 162.326 36.2227 162.667 37.0062 162.921C37.7179 163.151 38.3875 163.32 39.0011 163.433C39.7305 163.743 40.5139 164.021 41.2064 164.178C41.677 164.285 42.393 164.401 42.9098 164.246C43.5006 164.069 43.4799 163.657 43.2895 163.3C43.1828 163.1 42.9858 162.913 42.7737 162.754C42.7827 162.721 42.7895 162.688 42.7942 162.653C42.8666 162.121 42.3227 161.422 41.1457 160.863C40.0677 160.351 38.75 160.093 37.3848 160.05C37.7916 159.702 38.384 159.436 39.0549 159.322C39.7648 159.201 40.4553 159.262 41.0871 159.466C41.834 159.708 42.5274 159.627 42.636 159.285C42.7446 158.943 42.2272 158.47 41.4804 158.229C39.8351 157.696 38.3811 157.66 37.2791 157.848C36.1804 158.035 35.3257 158.458 34.7859 158.964C34.2538 159.462 33.9618 160.105 34.1795 160.788C34.2908 161.137 34.5472 161.53 35.0388 161.922Z" fill="#D9DAE5"/>
<g filter="url(#filter3_dd_2_51159)">
<rect x="4.43066" y="56.0869" width="36.285" height="36.285" rx="3.6285" fill="white"/>
<g clip-path="url(#clip2_2_51159)">
<path d="M11.6895 74.2302C11.6985 68.2223 16.5671 63.3538 22.575 63.3447C28.5829 63.3538 33.4514 68.2223 33.4605 74.2302C33.4514 80.2381 28.5829 85.1067 22.575 85.1158C16.5671 85.1067 11.6985 80.2381 11.6895 74.2302ZM22.575 84.2123C24.8175 84.2145 26.9948 83.4577 28.7525 82.0651L28.4776 81.47C28.3195 81.5231 28.1473 81.5158 27.9942 81.4497C27.841 81.3836 27.7177 81.2632 27.6479 81.1118C27.578 80.9603 27.5666 80.7883 27.6158 80.6289C27.6649 80.4695 27.7713 80.3339 27.9143 80.2481L27.2594 78.8303C26.9852 78.919 26.6874 78.8995 26.4271 78.7757C26.1669 78.6519 25.9638 78.4332 25.8597 78.1644L23.6154 78.7387V78.7495C23.614 78.8445 23.5927 78.9382 23.5528 79.0244C23.5128 79.1106 23.4552 79.1874 23.3837 79.2499C23.3121 79.3124 23.2283 79.3592 23.1375 79.3872C23.0467 79.4152 22.951 79.4237 22.8567 79.4124C22.7624 79.401 22.6715 79.3699 22.59 79.3211C22.5085 79.2723 22.4381 79.207 22.3835 79.1292C22.3289 79.0515 22.2912 78.9632 22.2729 78.8699C22.2546 78.7767 22.2562 78.6807 22.2774 78.5881L19.1279 77.2328C19.0135 77.4315 18.8412 77.5906 18.6341 77.689C18.427 77.7874 18.1949 77.8203 17.9686 77.7835L17.29 80.1329C17.4122 80.1968 17.512 80.2963 17.5761 80.4183C17.6402 80.5404 17.6655 80.679 17.6488 80.8158C17.632 80.9526 17.5739 81.0811 17.4823 81.184C17.3906 81.287 17.2698 81.3595 17.1358 81.392L17.183 82.6257C18.7899 83.663 20.6624 84.2137 22.575 84.2113V84.2123ZM16.9054 82.4397L16.8655 81.4038C16.6925 81.376 16.5371 81.2823 16.4317 81.1423C16.3263 81.0023 16.2793 80.827 16.3004 80.6531C16.3215 80.4791 16.4092 80.3202 16.545 80.2095C16.6808 80.0988 16.8542 80.045 17.0288 80.0594L17.7082 77.71C17.504 77.6234 17.3297 77.4785 17.2073 77.2934C17.0848 77.1084 17.0196 76.8914 17.0197 76.6695L12.7798 76.1561C13.2865 78.707 14.7661 80.9607 16.9054 82.4397ZM28.9702 81.8882C29.997 81.0295 30.8421 79.9745 31.4557 78.7849L27.9851 78.1037C27.9023 78.357 27.7327 78.5729 27.5061 78.7133L28.1701 80.1538C28.3144 80.1335 28.4614 80.1603 28.5893 80.2302C28.7172 80.3 28.8191 80.4092 28.88 80.5416C28.9409 80.674 28.9575 80.8225 28.9273 80.9651C28.8972 81.1076 28.8219 81.2367 28.7126 81.333L28.9711 81.8882H28.9702ZM31.5809 78.5336C32.2253 77.1907 32.5589 75.7198 32.557 74.2302C32.5592 71.9257 31.76 69.6922 30.2964 67.9121L28.9249 68.3802C28.9485 68.4798 28.9493 68.5834 28.9273 68.6834C28.9053 68.7833 28.8609 68.877 28.7976 68.9575C28.7343 69.0379 28.6536 69.1029 28.5616 69.1478C28.4696 69.1927 28.3686 69.2162 28.2663 69.2166C28.1355 69.2166 28.0074 69.1787 27.8976 69.1076C27.7879 69.0364 27.701 68.935 27.6476 68.8156L24.7965 69.7853C24.9236 70.2434 24.903 70.7299 24.7377 71.1757C24.5724 71.6214 24.2708 72.0037 23.8758 72.2681L26.4674 76.714C26.6457 76.6376 26.8406 76.6084 27.0334 76.6292C27.2262 76.65 27.4105 76.7201 27.5683 76.8327C27.7262 76.9454 27.8524 77.0968 27.9347 77.2724C28.0171 77.4479 28.0529 77.6418 28.0386 77.8352L31.58 78.5336H31.5809ZM23.5565 78.472L25.7925 77.9005C25.7662 77.7021 25.7932 77.5004 25.8707 77.3159C25.9481 77.1315 26.0734 76.971 26.2334 76.8509L23.6427 72.406C23.2961 72.5826 22.9096 72.6663 22.521 72.6488C22.1324 72.6313 21.755 72.5133 21.4256 72.3062L18.9129 75.8368C19.068 75.9787 19.1803 76.1613 19.237 76.3638C19.2938 76.5662 19.2927 76.7806 19.234 76.9825L22.3935 78.3404C22.4641 78.2452 22.5583 78.1702 22.6669 78.1229C22.7755 78.0756 22.8946 78.0576 23.0123 78.0707C23.1301 78.0838 23.2423 78.1276 23.3378 78.1977C23.4333 78.2678 23.5087 78.3618 23.5565 78.4701V78.472ZM17.0524 76.4001C17.0938 76.2318 17.1734 76.0753 17.285 75.9427C17.3965 75.8101 17.5371 75.7049 17.6958 75.6353C17.8545 75.5657 18.0271 75.5335 18.2002 75.5412C18.3734 75.5489 18.5424 75.5964 18.6943 75.6798L21.207 72.1511C20.9435 71.9398 20.7308 71.6719 20.5848 71.3673C20.4388 71.0626 20.3631 70.7291 20.3634 70.3913C20.3634 69.8443 20.5621 69.3154 20.9231 68.9036L17.564 65.6007C15.8101 66.6201 14.408 68.1493 13.5444 69.9849C12.6807 71.8205 12.3963 73.8755 12.729 75.8767L17.0515 76.401L17.0524 76.4001ZM24.7085 69.5313L27.5877 68.5489V68.5398C27.5877 68.3975 27.6324 68.2588 27.7156 68.1434C27.7988 68.0279 27.9162 67.9416 28.0512 67.8966C28.1862 67.8517 28.332 67.8503 28.4678 67.8928C28.6036 67.9354 28.7226 68.0195 28.8078 68.1334L30.1077 67.6899C28.6198 65.9704 26.5884 64.8117 24.351 64.4063C22.1135 64.0009 19.8047 64.373 17.808 65.4611L21.11 68.7095C21.379 68.4677 21.7021 68.294 22.0522 68.2031C22.4023 68.1122 22.7691 68.1067 23.1217 68.1871C23.4744 68.2675 23.8026 68.4313 24.0787 68.6649C24.3548 68.8986 24.5708 69.1951 24.7085 69.5295L24.7067 69.5322L24.7085 69.5313Z" fill="#07182B"/>
</g>
</g>
</g>
<defs>
<filter id="filter0_dd_2_51159" x="97.8661" y="29.7805" width="43.5422" height="43.5422" filterUnits="userSpaceOnUse" color-interpolation-filters="sRGB">
<feFlood flood-opacity="0" result="BackgroundImageFix"/>
<feColorMatrix in="SourceAlpha" type="matrix" values="0 0 0 0 0 0 0 0 0 0 0 0 0 0 0 0 0 0 127 0" result="hardAlpha"/>
<feOffset dy="1.81425"/>
<feGaussianBlur stdDeviation="1.81425"/>
<feColorMatrix type="matrix" values="0 0 0 0 0.376471 0 0 0 0 0.380392 0 0 0 0 0.439216 0 0 0 0.16 0"/>
<feBlend mode="normal" in2="BackgroundImageFix" result="effect1_dropShadow_2_51159"/>
<feColorMatrix in="SourceAlpha" type="matrix" values="0 0 0 0 0 0 0 0 0 0 0 0 0 0 0 0 0 0 127 0" result="hardAlpha"/>
<feOffset/>
<feGaussianBlur stdDeviation="0.453563"/>
<feColorMatrix type="matrix" values="0 0 0 0 0.156863 0 0 0 0 0.160784 0 0 0 0 0.239216 0 0 0 0.04 0"/>
<feBlend mode="normal" in2="effect1_dropShadow_2_51159" result="effect2_dropShadow_2_51159"/>
<feBlend mode="normal" in="SourceGraphic" in2="effect2_dropShadow_2_51159" result="shape"/>
</filter>
<filter id="filter1_dd_2_51159" x="154.113" y="17.9895" width="43.5422" height="43.5422" filterUnits="userSpaceOnUse" color-interpolation-filters="sRGB">
<feFlood flood-opacity="0" result="BackgroundImageFix"/>
<feColorMatrix in="SourceAlpha" type="matrix" values="0 0 0 0 0 0 0 0 0 0 0 0 0 0 0 0 0 0 127 0" result="hardAlpha"/>
<feOffset dy="1.81425"/>
<feGaussianBlur stdDeviation="1.81425"/>
<feColorMatrix type="matrix" values="0 0 0 0 0.376471 0 0 0 0 0.380392 0 0 0 0 0.439216 0 0 0 0.16 0"/>
<feBlend mode="normal" in2="BackgroundImageFix" result="effect1_dropShadow_2_51159"/>
<feColorMatrix in="SourceAlpha" type="matrix" values="0 0 0 0 0 0 0 0 0 0 0 0 0 0 0 0 0 0 127 0" result="hardAlpha"/>
<feOffset/>
<feGaussianBlur stdDeviation="0.453563"/>
<feColorMatrix type="matrix" values="0 0 0 0 0.156863 0 0 0 0 0.160784 0 0 0 0 0.239216 0 0 0 0.04 0"/>
<feBlend mode="normal" in2="effect1_dropShadow_2_51159" result="effect2_dropShadow_2_51159"/>
<feBlend mode="normal" in="SourceGraphic" in2="effect2_dropShadow_2_51159" result="shape"/>
</filter>
<filter id="filter2_dd_2_51159" x="52.5155" y="0.752154" width="43.5422" height="43.5422" filterUnits="userSpaceOnUse" color-interpolation-filters="sRGB">
<feFlood flood-opacity="0" result="BackgroundImageFix"/>
<feColorMatrix in="SourceAlpha" type="matrix" values="0 0 0 0 0 0 0 0 0 0 0 0 0 0 0 0 0 0 127 0" result="hardAlpha"/>
<feOffset dy="1.81425"/>
<feGaussianBlur stdDeviation="1.81425"/>
<feColorMatrix type="matrix" values="0 0 0 0 0.376471 0 0 0 0 0.380392 0 0 0 0 0.439216 0 0 0 0.16 0"/>
<feBlend mode="normal" in2="BackgroundImageFix" result="effect1_dropShadow_2_51159"/>
<feColorMatrix in="SourceAlpha" type="matrix" values="0 0 0 0 0 0 0 0 0 0 0 0 0 0 0 0 0 0 127 0" result="hardAlpha"/>
<feOffset/>
<feGaussianBlur stdDeviation="0.453563"/>
<feColorMatrix type="matrix" values="0 0 0 0 0.156863 0 0 0 0 0.160784 0 0 0 0 0.239216 0 0 0 0.04 0"/>
<feBlend mode="normal" in2="effect1_dropShadow_2_51159" result="effect2_dropShadow_2_51159"/>
<feBlend mode="normal" in="SourceGraphic" in2="effect2_dropShadow_2_51159" result="shape"/>
</filter>
<filter id="filter3_dd_2_51159" x="0.80216" y="54.2727" width="43.5422" height="43.5422" filterUnits="userSpaceOnUse" color-interpolation-filters="sRGB">
<feFlood flood-opacity="0" result="BackgroundImageFix"/>
<feColorMatrix in="SourceAlpha" type="matrix" values="0 0 0 0 0 0 0 0 0 0 0 0 0 0 0 0 0 0 127 0" result="hardAlpha"/>
<feOffset dy="1.81425"/>
<feGaussianBlur stdDeviation="1.81425"/>
<feColorMatrix type="matrix" values="0 0 0 0 0.376471 0 0 0 0 0.380392 0 0 0 0 0.439216 0 0 0 0.16 0"/>
<feBlend mode="normal" in2="BackgroundImageFix" result="effect1_dropShadow_2_51159"/>
<feColorMatrix in="SourceAlpha" type="matrix" values="0 0 0 0 0 0 0 0 0 0 0 0 0 0 0 0 0 0 127 0" result="hardAlpha"/>
<feOffset/>
<feGaussianBlur stdDeviation="0.453563"/>
<feColorMatrix type="matrix" values="0 0 0 0 0.156863 0 0 0 0 0.160784 0 0 0 0 0.239216 0 0 0 0.04 0"/>
<feBlend mode="normal" in2="effect1_dropShadow_2_51159" result="effect2_dropShadow_2_51159"/>
<feBlend mode="normal" in="SourceGraphic" in2="effect2_dropShadow_2_51159" result="shape"/>
</filter>
<linearGradient id="paint0_linear_2_51159" x1="80.6461" y1="153.223" x2="112.238" y2="180.36" gradientUnits="userSpaceOnUse">
<stop stop-color="#FF6FAB"/>
<stop offset="1" stop-color="#CE0056"/>
</linearGradient>
<linearGradient id="paint1_linear_2_51159" x1="122.478" y1="149.063" x2="118.449" y2="220.852" gradientUnits="userSpaceOnUse">
<stop offset="0.150433" stop-color="#CE91AB"/>
<stop offset="1" stop-color="#CE0056"/>
</linearGradient>
<linearGradient id="paint2_linear_2_51159" x1="68.9047" y1="165.757" x2="77.3713" y2="204.715" gradientUnits="userSpaceOnUse">
<stop stop-color="#FF6FAB" stop-opacity="0.35"/>
<stop offset="1" stop-color="#CE0056" stop-opacity="0.4"/>
</linearGradient>
<linearGradient id="paint3_linear_2_51159" x1="68.9047" y1="165.757" x2="77.3713" y2="204.715" gradientUnits="userSpaceOnUse">
<stop stop-color="#FF6FAB" stop-opacity="0.35"/>
<stop offset="1" stop-color="#CE0056" stop-opacity="0.4"/>
</linearGradient>
<linearGradient id="paint4_linear_2_51159" x1="127.564" y1="172.161" x2="142.178" y2="190.471" gradientUnits="userSpaceOnUse">
<stop stop-color="#FF6FAB"/>
<stop offset="1" stop-color="#CE0056"/>
</linearGradient>
<clipPath id="clip0_2_51159">
<rect width="21.771" height="21.1324" fill="white" transform="translate(164.999 27.0605)"/>
</clipPath>
<clipPath id="clip1_2_51159">
<rect width="21.771" height="21.771" fill="white" transform="translate(63.4019 9.82422)"/>
</clipPath>
<clipPath id="clip2_2_51159">
<rect width="21.771" height="21.771" fill="white" transform="translate(11.6895 63.3447)"/>
</clipPath>
</defs>
</svg>
