<svg width="28" height="28" viewBox="0 0 28 28" fill="none" xmlns="http://www.w3.org/2000/svg">
<g id="Integrations/Prometheus/Original" clip-path="url(#clip0_1362_320873)">
<path id="Vector" d="M14.0356 0.550782C21.4204 0.552334 27.482 6.61716 27.4727 13.9951C27.4633 21.4851 21.4266 27.4658 13.8811 27.4604C6.50437 27.4552 0.540121 21.3841 0.545291 13.8857C0.550335 6.55344 6.62458 0.549229 14.0356 0.550782ZM9.9534 5.27282C10.1227 6.1123 9.95825 6.89524 9.70788 7.66537C9.5345 8.19863 9.29486 8.71216 9.1518 9.25267C8.91599 10.1433 8.64845 11.0392 8.55034 11.9501C8.40926 13.2599 8.92027 14.4137 9.7947 15.5609L5.77517 14.7084C5.78219 14.8364 5.77472 14.8848 5.78857 14.9258C6.16955 16.0533 6.84003 17.0032 7.59151 17.8985C7.67105 17.9933 7.85209 18.0419 7.98615 18.0422C11.9939 18.0496 16.0018 18.0492 20.0096 18.044C20.1339 18.0438 20.2998 18.0201 20.3761 17.9393C21.235 17.0297 21.8919 15.9937 22.3026 14.6885L18.0474 15.5278C18.3281 14.9737 18.6485 14.4864 18.8327 13.951C19.4627 12.1195 19.2016 10.3487 18.2973 8.67865C17.5716 7.33839 16.9022 6.00401 17.2642 4.38877C16.4979 5.15115 16.2036 6.12167 16.0168 7.12189C15.8328 8.10704 15.7244 9.10667 15.582 10.1062C15.5618 10.076 15.5355 10.0537 15.5314 10.0278C15.515 9.92293 15.4996 9.81723 15.494 9.71128C15.4075 8.07411 15.09 6.49672 14.42 4.99015C14.0257 4.10332 13.5908 3.19664 13.9973 2.13879C13.7222 2.28491 13.4735 2.43019 13.2953 2.63757C12.7634 3.25654 12.5434 3.99996 12.4868 4.81388C12.4384 5.50924 12.3721 6.20796 12.2441 6.89174C12.1096 7.61032 11.8963 8.31467 11.417 8.97517C11.2234 7.5644 11.2019 6.16915 9.9534 5.27282ZM20.2871 19.2785H7.71676V21.4782H20.2871V19.2785ZM10.2091 22.6146C10.1987 24.4463 12.0509 25.8109 14.3399 25.7119C16.2369 25.6298 17.9158 24.1265 17.7715 22.6146H10.2091Z" fill="#E75225"/>
</g>
<defs>
<clipPath id="clip0_1362_320873">
<rect width="28" height="28" fill="white"/>
</clipPath>
</defs>
</svg>
