<svg width="48" height="48" viewBox="0 0 48 48" fill="none" xmlns="http://www.w3.org/2000/svg">
<g opacity="0.6">
<path d="M29.1692 13.2007C31.691 14.585 33.0858 16.2829 34.4894 18.4169C34.4894 18.0622 36.6054 16.3783 36.9722 17.3528C37.496 18.7447 35.5534 20.1903 36.2628 23.0278C36.6175 26.2201 36.4217 28.54 35.5534 30.1216C34.5257 31.9938 33.3553 32.3582 32.3612 34.0232C31.8779 34.8328 30.9425 40.7623 29.169 37.9248C28.4947 38.9614 28.8304 38.9682 27.7503 38.9889C27.7503 38.9889 26.2991 36.7913 24.9127 36.1514C22.39 34.9869 19.1309 34.9381 17.4643 34.0232C16.3319 33.4016 16.2509 33.3941 15.3361 32.6045C14.4488 31.8385 15.2925 34.9057 14.6268 34.0232C9.3064 28.3482 8.42866 20.7624 10.6182 16.7739C13.8233 10.9356 22.1288 9.33576 29.1692 13.2007Z" fill="url(#paint0_linear_157_366489)"/>
<path fill-rule="evenodd" clip-rule="evenodd" d="M10.7659 16.9156C7.80643 22.3066 10.6189 29.7827 17.4299 33.5217C22.5102 36.3106 28.2054 36.1074 31.9685 33.5564C33.2253 32.7044 34.2709 31.5893 35.0177 30.2289C36.6364 27.2803 36.5373 23.7388 34.9968 20.4948C33.7119 17.7889 31.4306 15.3119 28.3537 13.6228C21.5427 9.88381 13.7254 11.5245 10.7659 16.9156ZM17.0886 34.1436C10.0482 30.2786 6.93903 22.4126 10.1441 16.5742C13.3491 10.7358 21.6547 9.13604 28.6951 13.001C31.8973 14.7588 34.2862 17.3444 35.6376 20.1905C37.2575 23.6018 37.3869 27.3874 35.6396 30.5703C34.8359 32.0344 33.7114 33.2319 32.3666 34.1436C28.3486 36.8674 22.3635 37.0393 17.0886 34.1436Z" fill="black"/>
<path d="M29.8473 11.8352C29.6496 14.2925 28.1403 17.6514 26.1962 18.1269C22.0105 19.1508 21.355 16.1564 20.9171 13.6562C20.7666 11.2598 22.3912 8.00262 24.3626 7.65735C27.1046 7.1771 29.714 8.00013 29.8473 11.8352Z" fill="white"/>
<path fill-rule="evenodd" clip-rule="evenodd" d="M26.4069 9.92858C26.8534 9.90465 27.3153 10.1406 27.748 10.6002C27.8823 10.7429 27.8755 10.9673 27.7329 11.1016C27.5902 11.2359 27.3657 11.2291 27.2315 11.0865C26.8762 10.7091 26.6031 10.6285 26.4449 10.6369C26.2985 10.6448 26.1627 10.7338 26.0727 10.9221C25.8886 11.3075 25.9629 12.0366 26.702 12.532C27.6625 13.1758 28.1044 14.2923 27.7433 15.0981C27.5523 15.5244 27.1538 15.8048 26.6113 15.8455C26.0885 15.8847 25.4454 15.7037 24.695 15.2726C24.5251 15.1751 24.4665 14.9583 24.5641 14.7884C24.6616 14.6185 24.8784 14.5599 25.0483 14.6575C25.7353 15.0521 26.233 15.1625 26.5582 15.1381C26.8636 15.1152 27.0203 14.9767 27.096 14.808C27.2682 14.4237 27.089 13.6454 26.307 13.1212C25.3035 12.4486 25.0825 11.3491 25.4326 10.6163C25.6098 10.2456 25.9485 9.95316 26.4069 9.92858Z" fill="black"/>
<path fill-rule="evenodd" clip-rule="evenodd" d="M26.8867 9.30916C27.0817 9.32824 27.2242 9.50175 27.2052 9.69671C27.0108 11.6822 26.662 14.0155 26.2736 16.1632C26.2388 16.356 26.0542 16.484 25.8615 16.4492C25.6687 16.4143 25.5407 16.2298 25.5756 16.037C25.9616 13.9019 26.3072 11.5885 26.4992 9.62761C26.5182 9.43266 26.6917 9.29008 26.8867 9.30916Z" fill="black"/>
<path fill-rule="evenodd" clip-rule="evenodd" d="M22.5412 8.50191C22.5597 8.30692 22.7328 8.16431 22.9278 8.18339L24.9462 8.38093C25.1412 8.40001 25.2842 8.57356 25.2657 8.76856C25.2472 8.96355 25.0741 9.10616 24.8791 9.08708L22.8607 8.88954C22.6658 8.87046 22.5227 8.69691 22.5412 8.50191Z" fill="black"/>
<path fill-rule="evenodd" clip-rule="evenodd" d="M20.9196 11.4376C20.9396 11.2428 21.1137 11.1014 21.3085 11.1219L23.1408 11.3149C23.3356 11.3354 23.4774 11.51 23.4574 11.7048C23.4375 11.8997 23.2633 12.041 23.0685 12.0205L21.2363 11.8276C21.0414 11.8071 20.8997 11.6325 20.9196 11.4376ZM21.7284 9.83118C21.7684 9.63951 21.9563 9.51704 22.148 9.55765L23.6474 9.87523C23.8391 9.91583 23.9621 10.1041 23.922 10.2958C23.882 10.4875 23.6941 10.6099 23.5024 10.5693L22.003 10.2518C21.8113 10.2112 21.6883 10.0229 21.7284 9.83118Z" fill="black"/>
<path fill-rule="evenodd" clip-rule="evenodd" d="M20.4994 12.8665C20.5193 12.6716 20.6935 12.5303 20.8883 12.5508L22.7205 12.7438C22.9154 12.7643 23.0571 12.9389 23.0372 13.1337C23.0172 13.3286 22.8431 13.4699 22.6483 13.4494L20.816 13.2564C20.6212 13.2359 20.4794 13.0613 20.4994 12.8665ZM20.6148 14.6377C20.6347 14.4428 20.8089 14.3015 21.0037 14.322L22.8359 14.515C23.0307 14.5355 23.1725 14.7101 23.1525 14.9049C23.1326 15.0998 22.9585 15.2411 22.7636 15.2206L20.9314 15.0276C20.7366 15.0071 20.5948 14.8325 20.6148 14.6377Z" fill="black"/>
<path fill-rule="evenodd" clip-rule="evenodd" d="M20.9563 15.8804C20.9662 15.6847 21.1328 15.5346 21.3284 15.545L23.0142 15.6352C23.2098 15.6456 23.3603 15.8127 23.3504 16.0084C23.3405 16.204 23.1739 16.3541 22.9783 16.3437L21.2926 16.2536C21.097 16.2431 20.9464 16.076 20.9563 15.8804ZM21.6517 16.9084C21.6651 16.713 21.8344 16.5659 22.0298 16.5799L23.5909 16.6919C23.7863 16.7059 23.9338 16.8756 23.9204 17.0711C23.9069 17.2665 23.7377 17.4136 23.5423 17.3996L21.9811 17.2876C21.7857 17.2736 21.6382 17.1039 21.6517 16.9084Z" fill="black"/>
<path fill-rule="evenodd" clip-rule="evenodd" d="M24.1367 10.2647C23.464 11.4259 23.0703 12.8292 23.1256 13.9564C23.2244 15.9697 23.7281 17.2726 24.6118 17.893C24.6288 17.9048 24.6446 17.9182 24.6592 17.9328C24.7475 18.0213 24.8864 18.0839 25.0876 18.1044C25.2889 18.125 25.5276 18.1001 25.7755 18.0379C26.0218 17.9761 26.2628 17.8811 26.4641 17.774C26.6712 17.6638 26.8118 17.5539 26.8791 17.4742C26.9007 17.4487 26.9257 17.4264 26.9534 17.4079C27.6777 16.9253 28.2739 16.0701 28.688 15.0301C29.1003 13.9947 29.3183 12.8096 29.311 11.7105C29.3037 10.6045 29.069 9.62674 28.6188 8.97431C28.1862 8.34725 27.5463 8.002 26.6198 8.13592C25.7217 8.26573 24.8177 9.08942 24.1367 10.2647ZM23.523 9.90906C24.24 8.67156 25.2942 7.61077 26.5183 7.43383C27.7228 7.25975 28.6236 7.73199 29.2027 8.57148C29.7644 9.38561 30.0125 10.5235 30.0204 11.7058C30.0282 12.8949 29.7937 14.1707 29.347 15.2925C28.9088 16.3932 28.2527 17.3783 27.3857 17.9719C27.2367 18.1333 27.0241 18.2796 26.7973 18.4003C26.546 18.5339 26.2513 18.6499 25.9481 18.7259C25.6466 18.8016 25.3221 18.8414 25.0156 18.8102C24.7191 18.7799 24.4162 18.6801 24.1805 18.4567C23.0305 17.6327 22.5176 16.0396 22.4171 13.9912L22.7713 13.9738L22.4171 13.9912C22.3537 12.6985 22.7978 11.1607 23.523 9.90906Z" fill="black"/>
<path fill-rule="evenodd" clip-rule="evenodd" d="M22.1956 9.95245C21.5371 11.0294 21.1612 12.3294 21.2275 13.3844C21.2286 13.4028 21.2284 13.4212 21.2267 13.4396C21.1659 14.0917 21.3 14.8773 21.5768 15.5894C21.8557 16.3069 22.2589 16.8972 22.692 17.2012C22.7089 17.2131 22.7247 17.2264 22.7393 17.241C23.0062 17.5085 23.4316 17.7218 23.9591 17.8737C24.4807 18.024 25.0706 18.1053 25.6328 18.1308C25.8285 18.1396 25.98 18.3055 25.9711 18.5012C25.9622 18.6968 25.7964 18.8483 25.6007 18.8394C24.9975 18.8121 24.3503 18.7247 23.7627 18.5554C23.1919 18.391 22.6458 18.1403 22.2593 17.7639C21.6789 17.3453 21.2168 16.6212 20.9156 15.8464C20.6116 15.0644 20.4511 14.1791 20.5179 13.4014C20.4486 12.1754 20.8796 10.7449 21.5904 9.58241C22.301 8.42016 23.3475 7.43786 24.5612 7.26243C25.3108 7.15408 25.9839 7.25574 26.994 7.4083C27.0821 7.4216 27.1727 7.4353 27.2662 7.44927C27.46 7.47823 27.5936 7.65876 27.5646 7.85249C27.5357 8.04623 27.3551 8.17981 27.1614 8.15086C27.0809 8.13882 27.0031 8.12713 26.9277 8.1158C25.8718 7.95709 25.3043 7.87178 24.6627 7.96451C23.7541 8.09584 22.8595 8.86657 22.1956 9.95245Z" fill="black"/>
<path fill-rule="evenodd" clip-rule="evenodd" d="M10.3486 26.6404C10.5309 26.5687 10.7368 26.6584 10.8085 26.8407C11.0794 27.5296 11.8322 29.2812 12.6543 30.8568C13.066 31.646 13.4889 32.379 13.8723 32.9104C14.0647 33.1771 14.2383 33.3805 14.3869 33.5135C14.4608 33.5797 14.5209 33.6215 14.5668 33.6455C14.582 33.6535 14.5941 33.6588 14.6035 33.6622C14.7046 33.6318 14.7525 33.6024 14.7754 33.5823C14.7915 33.5682 14.8096 33.5478 14.82 33.4817C14.8324 33.4029 14.8297 33.2792 14.798 33.0804C14.7668 32.885 14.7122 32.6425 14.6368 32.3343C14.5903 32.144 14.7068 31.9521 14.8971 31.9055C15.0874 31.859 15.2794 31.9755 15.3259 32.1658C15.4015 32.4752 15.4624 32.7422 15.4985 32.9687C15.5341 33.1919 15.5505 33.4027 15.5208 33.5917C15.4891 33.7935 15.4041 33.9744 15.2433 34.1155C15.0935 34.247 14.9052 34.3195 14.7127 34.3676C14.6845 34.3746 14.6556 34.3782 14.6266 34.3782C14.3494 34.3782 14.1034 34.2118 13.9138 34.042C13.7107 33.8603 13.5029 33.6108 13.297 33.3255C12.8838 32.7527 12.4424 31.9844 12.0253 31.185C11.1898 29.5834 10.4268 27.8085 10.1484 27.1003C10.0767 26.918 10.1663 26.7121 10.3486 26.6404Z" fill="black"/>
<path fill-rule="evenodd" clip-rule="evenodd" d="M28.8144 35.0874C29.0103 35.0874 29.1691 35.2462 29.1691 35.4421C29.1691 35.9449 29.2092 36.3733 29.2469 36.7761C29.261 36.9273 29.2748 37.0748 29.2861 37.2214C29.3261 37.7443 29.3323 38.2521 29.1474 38.7564C29.0652 38.9807 28.9225 39.1539 28.7313 39.2609C28.5451 39.3652 28.3398 39.3918 28.1504 39.3757C27.7799 39.3443 27.406 39.1463 27.1449 38.8851C26.4109 38.1511 25.7477 37.2796 25.1918 36.2043C25.1018 36.0303 25.17 35.8163 25.344 35.7263C25.518 35.6364 25.732 35.7045 25.8219 35.8785C26.3428 36.886 26.9617 37.6987 27.6465 38.3835C27.8098 38.5468 28.0335 38.6539 28.2103 38.6689C28.2945 38.676 28.3503 38.6612 28.3848 38.6419C28.4143 38.6254 28.4518 38.593 28.4814 38.5122C28.6111 38.1584 28.6174 37.7795 28.5787 37.2755C28.569 37.1486 28.5563 37.0131 28.5429 36.8695C28.5045 36.4588 28.4597 35.9809 28.4597 35.4421C28.4597 35.2462 28.6185 35.0874 28.8144 35.0874Z" fill="black"/>
<path fill-rule="evenodd" clip-rule="evenodd" d="M32.0604 34.0276C31.8668 33.9978 31.6857 34.1306 31.6559 34.3242C31.4818 35.4561 31.222 36.4046 30.9355 37.1062C30.7921 37.4573 30.6449 37.7397 30.5029 37.9502C30.3575 38.1658 30.2332 38.2827 30.1449 38.3335C30.0764 38.3728 30.0573 38.3606 30.0506 38.3563C30.0501 38.356 30.0496 38.3557 30.0493 38.3555C30.0165 38.3377 29.933 38.2654 29.8405 38.041C29.6575 37.5974 29.5236 36.7666 29.5236 35.4422C29.5236 35.2464 29.3648 35.0876 29.1689 35.0876C28.9731 35.0876 28.8143 35.2464 28.8143 35.4422C28.8143 36.7868 28.9464 37.7338 29.1847 38.3115C29.3027 38.5978 29.4686 38.8471 29.7102 38.9786C29.9791 39.1249 30.2618 39.0845 30.4985 38.9485C30.7206 38.8208 30.9177 38.6038 31.091 38.3469C31.2676 38.0849 31.4363 37.7562 31.5922 37.3744C31.9042 36.6102 32.1765 35.6058 32.357 34.4321C32.3868 34.2385 32.254 34.0574 32.0604 34.0276Z" fill="black"/>
<path fill-rule="evenodd" clip-rule="evenodd" d="M8.10698 7.38335C8.81453 7.13362 9.54434 6.93022 10.3975 7.13712C11.2455 7.34276 12.2092 7.85947 12.7932 8.56029C13.234 9.0892 13.391 9.70158 13.33 10.2797C14.083 11.1805 14.0931 12.3603 14.0931 13.3668C14.0931 13.5627 13.9343 13.7215 13.7384 13.7215C13.5425 13.7215 13.3837 13.5627 13.3837 13.3668C13.3837 12.5226 13.3601 11.7673 13.0581 11.1545C12.6572 11.8984 11.8648 12.435 10.8871 12.3956C10.5363 12.3814 10.0909 12.323 9.68643 12.1645C9.28365 12.0066 8.87467 11.7296 8.68797 11.2512C8.43769 10.6099 8.71689 9.87902 9.10645 9.45595C9.66122 8.85346 10.4548 8.8289 11.1329 8.99197C11.6562 9.11784 12.1679 9.36596 12.5738 9.63049C12.5151 9.41646 12.4088 9.20703 12.2483 9.01442C11.7818 8.45467 10.9642 8.00448 10.2303 7.82651C9.58862 7.6709 9.02627 7.81116 8.34307 8.05228C8.15835 8.11748 7.95575 8.02059 7.89056 7.83586C7.82536 7.65114 7.92226 7.44854 8.10698 7.38335ZM12.562 10.5053C12.5333 10.4799 12.5037 10.455 12.4729 10.4305C12.104 10.1365 11.532 9.81758 10.967 9.68168C10.396 9.54434 9.92774 9.61126 9.6283 9.93647C9.35683 10.2313 9.2279 10.6835 9.34881 10.9933C9.43528 11.2149 9.63917 11.3841 9.94528 11.504C10.2497 11.6233 10.6092 11.6744 10.9157 11.6868C11.7368 11.7199 12.3626 11.1789 12.562 10.5053Z" fill="black"/>
<path d="M38.3909 27.9937C38.3909 29.9526 36.0089 31.5406 33.0706 31.5406C30.1322 31.5406 27.7502 29.9526 27.7502 27.9937C27.7502 26.0348 30.1322 24.4468 33.0706 24.4468C36.0089 24.4468 38.3909 26.0348 38.3909 27.9937Z" fill="url(#paint1_linear_157_366489)"/>
<path fill-rule="evenodd" clip-rule="evenodd" d="M36.4391 29.9115C37.2751 29.3542 37.6816 28.6621 37.6816 27.9937C37.6816 27.3252 37.2751 26.6332 36.4391 26.0759C35.6081 25.5219 34.4192 25.1562 33.0706 25.1562C31.7219 25.1562 30.533 25.5219 29.702 26.0759C28.8661 26.6332 28.4596 27.3252 28.4596 27.9937C28.4596 28.6621 28.8661 29.3542 29.702 29.9115C30.533 30.4655 31.7219 30.8312 33.0706 30.8312C34.4192 30.8312 35.6081 30.4655 36.4391 29.9115ZM33.0706 31.5406C36.0089 31.5406 38.3909 29.9526 38.3909 27.9937C38.3909 26.0348 36.0089 24.4468 33.0706 24.4468C30.1322 24.4468 27.7502 26.0348 27.7502 27.9937C27.7502 29.9526 30.1322 31.5406 33.0706 31.5406Z" fill="black"/>
<path fill-rule="evenodd" clip-rule="evenodd" d="M32.3613 26.9297C32.5572 26.9297 32.716 27.0885 32.716 27.2844V28.7031C32.716 28.899 32.5572 29.0578 32.3613 29.0578C32.1654 29.0578 32.0066 28.899 32.0066 28.7031V27.2844C32.0066 27.0885 32.1654 26.9297 32.3613 26.9297Z" fill="black"/>
<path fill-rule="evenodd" clip-rule="evenodd" d="M34.4895 26.9297C34.6853 26.9297 34.8441 27.0885 34.8441 27.2844V28.7031C34.8441 28.899 34.6853 29.0578 34.4895 29.0578C34.2936 29.0578 34.1348 28.899 34.1348 28.7031V27.2844C34.1348 27.0885 34.2936 26.9297 34.4895 26.9297Z" fill="black"/>
<path d="M28.8143 19.4811C25.3856 17.4712 18.4573 13.3804 18.1736 13.0967L11.7892 18.0623L20.3017 22.6733L28.8143 19.4811Z" fill="url(#paint2_linear_157_366489)"/>
<path fill-rule="evenodd" clip-rule="evenodd" d="M19.2428 13.5241C19.3413 13.3547 19.5584 13.2973 19.7278 13.3958C22.3959 14.9476 24.939 16.5563 27.4667 18.2836C27.6285 18.3941 27.67 18.6148 27.5595 18.7765C27.449 18.9383 27.2283 18.9798 27.0665 18.8693C24.5526 17.1514 22.0241 15.552 19.3711 14.009C19.2018 13.9105 19.1444 13.6934 19.2428 13.5241Z" fill="black"/>
<path fill-rule="evenodd" clip-rule="evenodd" d="M36.3278 17.5317C35.8566 17.7407 35.1974 18.1424 34.3298 18.7134C34.1661 18.8211 33.9462 18.7758 33.8385 18.6122C33.7308 18.4486 33.7761 18.2286 33.9397 18.1209C34.8035 17.5524 35.5083 17.1192 36.0401 16.8832C36.3031 16.7665 36.5562 16.6829 36.7823 16.6709C37.0229 16.6581 37.2792 16.7278 37.4425 16.9662C37.5838 17.1724 37.6046 17.4376 37.5864 17.6897C37.5674 17.9538 37.4995 18.2739 37.3927 18.6469C37.1786 19.3946 36.7894 20.4168 36.2356 21.7458C36.1603 21.9266 35.9526 22.0121 35.7718 21.9368C35.591 21.8615 35.5055 21.6538 35.5808 21.473C36.1336 20.1462 36.5088 19.1566 36.7107 18.4516C36.8119 18.0983 36.865 17.8319 36.8789 17.6387C36.8858 17.5428 36.8824 17.4742 36.8746 17.4273C36.8707 17.4042 36.8663 17.389 36.8628 17.3796C36.854 17.3787 36.8403 17.3782 36.82 17.3793C36.7244 17.3843 36.5662 17.4259 36.3278 17.5317ZM36.8767 17.3827C36.8764 17.3829 36.8745 17.3825 36.8718 17.381C36.8755 17.3818 36.8769 17.3825 36.8767 17.3827Z" fill="black"/>
<path fill-rule="evenodd" clip-rule="evenodd" d="M23.6942 19.2797C24.1653 19.4888 24.8246 19.8904 25.6922 20.4615C25.8558 20.5692 26.0758 20.5239 26.1835 20.3602C26.2912 20.1966 26.2459 19.9767 26.0822 19.869C25.2185 19.3004 24.5137 18.8673 23.9819 18.6313C23.7188 18.5146 23.4658 18.431 23.2397 18.4189C22.9991 18.4061 22.7428 18.4759 22.5795 18.7143C22.4382 18.9204 22.4173 19.1856 22.4355 19.4378C22.4546 19.7018 22.5224 20.022 22.6293 20.395C22.8434 21.1426 23.2326 22.1648 23.7864 23.4939C23.8617 23.6747 24.0694 23.7602 24.2502 23.6848C24.431 23.6095 24.5165 23.4018 24.4412 23.221C23.8884 21.8943 23.5131 20.9047 23.3112 20.1997C23.21 19.8463 23.157 19.58 23.1431 19.3867C23.1361 19.2909 23.1396 19.2223 23.1474 19.1753C23.1513 19.1523 23.1557 19.137 23.1591 19.1277C23.168 19.1267 23.1817 19.1262 23.202 19.1273C23.2976 19.1324 23.4558 19.1739 23.6942 19.2797ZM23.1453 19.1307C23.1453 19.1307 23.1474 19.1305 23.1502 19.129C23.1464 19.1298 23.1453 19.1307 23.1453 19.1307Z" fill="black"/>
</g>
<defs>
<linearGradient id="paint0_linear_157_366489" x1="7.33079" y1="27.4372" x2="35.2998" y2="17.953" gradientUnits="userSpaceOnUse">
<stop stop-color="#FF6FAB"/>
<stop offset="1" stop-color="#CE0056"/>
</linearGradient>
<linearGradient id="paint1_linear_157_366489" x1="28.7176" y1="25.0111" x2="33.7492" y2="32.6695" gradientUnits="userSpaceOnUse">
<stop stop-color="#FF6FAB"/>
<stop offset="1" stop-color="#CE0056"/>
</linearGradient>
<linearGradient id="paint2_linear_157_366489" x1="13.3369" y1="13.8585" x2="19.6135" y2="25.1809" gradientUnits="userSpaceOnUse">
<stop stop-color="#FF6FAB"/>
<stop offset="1" stop-color="#CE0056"/>
</linearGradient>
</defs>
</svg>
