<svg width="48" height="48" viewBox="0 0 48 48" fill="none" xmlns="http://www.w3.org/2000/svg">
<g opacity="0.6">
<path d="M8.24304 26.4997L8.42855 18.9003L12.6805 16.3799L16.725 18.9003L16.9324 26.6728L12.6805 29.143L8.24304 26.4997Z" fill="white"/>
<path fill-rule="evenodd" clip-rule="evenodd" d="M12.5664 21.0001C12.73 21.0001 12.8626 21.1344 12.8626 21.3001L12.8627 29.2359C12.8627 29.4016 12.7301 29.5359 12.5664 29.5359C12.4028 29.5359 12.2702 29.4016 12.2702 29.2359L12.2701 21.3001C12.2701 21.1344 12.4028 21.0001 12.5664 21.0001Z" fill="black"/>
<path fill-rule="evenodd" clip-rule="evenodd" d="M16.8899 18.6006C17.0535 18.6006 17.1861 18.7349 17.1861 18.9006V26.7736C17.1861 26.9393 17.0535 27.0736 16.8899 27.0736C16.7263 27.0736 16.5936 26.9393 16.5936 26.7736V18.9006C16.5936 18.7349 16.7263 18.6006 16.8899 18.6006Z" fill="black"/>
<path fill-rule="evenodd" clip-rule="evenodd" d="M8.29381 18.9002C8.45742 18.8995 8.59059 19.0333 8.59125 19.1989L8.62104 26.6714C8.6217 26.8371 8.4896 26.972 8.32599 26.9727C8.16238 26.9733 8.02921 26.8396 8.02854 26.6739L7.99875 19.2014C7.99809 19.0357 8.13019 18.9008 8.29381 18.9002Z" fill="black"/>
<path fill-rule="evenodd" clip-rule="evenodd" d="M7.44604 26.0762C7.52788 25.9327 7.70907 25.8836 7.85075 25.9665L13.1065 29.0409C13.2482 29.1238 13.2967 29.3073 13.2148 29.4507C13.133 29.5942 12.9518 29.6433 12.8101 29.5605L7.55438 26.486C7.4127 26.4031 7.3642 26.2196 7.44604 26.0762Z" fill="black"/>
<path fill-rule="evenodd" clip-rule="evenodd" d="M12.1128 29.4483C12.031 29.3047 12.0796 29.1213 12.2213 29.0385L17.0122 26.2399C17.1539 26.1571 17.3351 26.2063 17.4168 26.3498C17.4986 26.4934 17.45 26.6768 17.3082 26.7596L12.5174 29.5582C12.3757 29.641 12.1945 29.5918 12.1128 29.4483Z" fill="black"/>
<path fill-rule="evenodd" clip-rule="evenodd" d="M11.7694 16.0503C11.8512 15.9068 12.0324 15.8577 12.1741 15.9406L17.4299 19.015C17.5715 19.0979 17.62 19.2814 17.5382 19.4249C17.4564 19.5683 17.2752 19.6174 17.1335 19.5346L11.8777 16.4601C11.7361 16.3772 11.6876 16.1938 11.7694 16.0503Z" fill="black"/>
<path fill-rule="evenodd" clip-rule="evenodd" d="M7.75568 18.678C7.83619 18.5338 8.01692 18.4829 8.15936 18.5645L12.9298 21.2949C13.0723 21.3765 13.1225 21.5595 13.042 21.7037C12.9615 21.848 12.7807 21.8988 12.6383 21.8173L7.86781 19.0868C7.72538 19.0053 7.67517 18.8222 7.75568 18.678Z" fill="black"/>
<path fill-rule="evenodd" clip-rule="evenodd" d="M7.98384 19.1091C7.90467 18.9641 7.95657 18.7816 8.09975 18.7014L12.8483 16.0427C12.9915 15.9625 13.1717 16.0151 13.2509 16.1601C13.3301 16.3051 13.2782 16.4876 13.135 16.5678L8.38644 19.2265C8.24326 19.3066 8.06301 19.2541 7.98384 19.1091Z" fill="black"/>
<path fill-rule="evenodd" clip-rule="evenodd" d="M12.3114 21.5524C12.2281 21.4098 12.2747 21.2258 12.4155 21.1414L16.8851 18.4627C17.0259 18.3784 17.2076 18.4255 17.2909 18.5681C17.3742 18.7107 17.3277 18.8947 17.1869 18.9791L12.7172 21.6578C12.5764 21.7421 12.3947 21.695 12.3114 21.5524Z" fill="black"/>
<path d="M18.9081 33.0999L19.0936 22.0361L23.3455 19.5156L27.3901 22.0361L27.5975 33.2731L23.3455 35.7432L18.9081 33.0999Z" fill="white"/>
<path fill-rule="evenodd" clip-rule="evenodd" d="M23.2314 23.941C23.395 23.941 23.5277 24.0754 23.5277 24.241L23.5277 35.8359C23.5277 36.0016 23.3951 36.1359 23.2314 36.1359C23.0678 36.1359 22.9352 36.0016 22.9352 35.8359L22.9352 24.241C22.9352 24.0754 23.0678 23.941 23.2314 23.941Z" fill="black"/>
<path fill-rule="evenodd" clip-rule="evenodd" d="M27.5549 21.4209C27.7185 21.4209 27.8512 21.5552 27.8512 21.7209V33.3735C27.8512 33.5391 27.7185 33.6735 27.5549 33.6735C27.3913 33.6735 27.2587 33.5391 27.2587 33.3735V21.7209C27.2587 21.5552 27.3913 21.4209 27.5549 21.4209Z" fill="black"/>
<path fill-rule="evenodd" clip-rule="evenodd" d="M18.96 21.9002C19.1236 21.9002 19.2562 22.0345 19.2562 22.2002L19.2562 33.3002C19.2562 33.4659 19.1236 33.6002 18.96 33.6002C18.7964 33.6002 18.6637 33.4659 18.6637 33.3002L18.6637 22.2002C18.6637 22.0345 18.7964 21.9002 18.96 21.9002Z" fill="black"/>
<path fill-rule="evenodd" clip-rule="evenodd" d="M18.4208 21.678C18.5014 21.5338 18.6821 21.4829 18.8245 21.5645L23.595 24.2949C23.7374 24.3765 23.7876 24.5595 23.7071 24.7037C23.6266 24.848 23.4459 24.8988 23.3034 24.8173L18.533 22.0868C18.3905 22.0053 18.3403 21.8222 18.4208 21.678Z" fill="black"/>
<path fill-rule="evenodd" clip-rule="evenodd" d="M22.4346 19.0503C22.5164 18.9068 22.6976 18.8577 22.8393 18.9406L28.095 22.015C28.2367 22.0979 28.2852 22.2814 28.2034 22.4249C28.1215 22.5683 27.9403 22.6174 27.7987 22.5346L22.5429 19.4601C22.4012 19.3772 22.3527 19.1938 22.4346 19.0503Z" fill="black"/>
<path fill-rule="evenodd" clip-rule="evenodd" d="M18.1111 32.6763C18.1929 32.5328 18.3741 32.4837 18.5158 32.5665L23.7715 35.641C23.9132 35.7239 23.9617 35.9074 23.8799 36.0508C23.798 36.1943 23.6168 36.2434 23.4752 36.1606L18.2194 33.0861C18.0777 33.0032 18.0292 32.8197 18.1111 32.6763Z" fill="black"/>
<path fill-rule="evenodd" clip-rule="evenodd" d="M18.6488 22.1091C18.5696 21.9641 18.6215 21.7816 18.7647 21.7014L23.5132 19.0427C23.6564 18.9625 23.8367 19.0151 23.9158 19.1601C23.995 19.3051 23.9431 19.4876 23.7999 19.5678L19.0514 22.2265C18.9082 22.3066 18.7279 22.2541 18.6488 22.1091Z" fill="black"/>
<path fill-rule="evenodd" clip-rule="evenodd" d="M22.9766 24.5524C22.8932 24.4098 22.9398 24.2258 23.0806 24.1414L27.5502 21.4627C27.6911 21.3784 27.8727 21.4255 27.9561 21.5681C28.0394 21.7107 27.9928 21.8947 27.852 21.9791L23.3824 24.6578C23.2416 24.7421 23.0599 24.695 22.9766 24.5524Z" fill="black"/>
<path fill-rule="evenodd" clip-rule="evenodd" d="M22.7778 36.0484C22.696 35.9048 22.7447 35.7214 22.8864 35.6386L27.6772 32.84C27.8189 32.7572 28.0001 32.8064 28.0819 32.9499C28.1636 33.0935 28.115 33.2769 27.9733 33.3597L23.1824 36.1583C23.0407 36.2411 22.8596 36.1919 22.7778 36.0484Z" fill="black"/>
<path d="M30.1655 37.2994L30.351 21.6L34.603 19.0796L38.8549 21.3V37.4725L34.603 39.9427L30.1655 37.2994Z" fill="white"/>
<path fill-rule="evenodd" clip-rule="evenodd" d="M34.4889 23.6065C34.6525 23.6078 34.7851 23.7432 34.7851 23.9089L34.7851 40.0385C34.7851 40.2042 34.6525 40.3374 34.4889 40.3361C34.3253 40.3348 34.1927 40.1994 34.1927 40.0337L34.1926 23.9041C34.1926 23.7384 34.3253 23.6052 34.4889 23.6065Z" fill="black"/>
<path fill-rule="evenodd" clip-rule="evenodd" d="M39.1051 20.7002C39.2687 20.7002 39.4013 20.8345 39.4013 21.0002V37.2002C39.4013 37.3659 39.2687 37.5002 39.1051 37.5002C38.9415 37.5002 38.8088 37.3659 38.8088 37.2002V21.0002C38.8088 20.8345 38.9415 20.7002 39.1051 20.7002Z" fill="black"/>
<path fill-rule="evenodd" clip-rule="evenodd" d="M30.3352 20.8533C30.4988 20.855 30.6307 20.9908 30.6298 21.1565L30.5436 37.0733C30.5427 37.239 30.4093 37.3719 30.2457 37.3701C30.0821 37.3684 29.9502 37.2326 29.9511 37.0669L30.0373 21.1501C30.0382 20.9844 30.1716 20.8515 30.3352 20.8533Z" fill="black"/>
<path fill-rule="evenodd" clip-rule="evenodd" d="M29.3685 36.876C29.4504 36.7325 29.6316 36.6834 29.7732 36.7663L35.029 39.8407C35.1707 39.9236 35.2192 40.1071 35.1373 40.2505C35.0555 40.394 34.8743 40.4431 34.7326 40.3603L29.4769 37.2858C29.3352 37.2029 29.2867 37.0194 29.3685 36.876Z" fill="black"/>
<path fill-rule="evenodd" clip-rule="evenodd" d="M29.6782 21.0779C29.7587 20.9337 29.9394 20.8828 30.0818 20.9644L34.8523 23.6948C34.9948 23.7764 35.045 23.9594 34.9644 24.1036C34.8839 24.2479 34.7032 24.2987 34.5608 24.2172L29.7903 21.4867C29.6479 21.4052 29.5977 21.2221 29.6782 21.0779Z" fill="black"/>
<path fill-rule="evenodd" clip-rule="evenodd" d="M34.1085 18.4502C34.1904 18.3067 34.3715 18.2576 34.5132 18.3405L39.769 21.4149C39.9107 21.4978 39.9592 21.6813 39.8773 21.8248C39.7955 21.9682 39.6143 22.0174 39.4726 21.9345L34.2169 18.86C34.0752 18.7771 34.0267 18.5937 34.1085 18.4502Z" fill="black"/>
<path fill-rule="evenodd" clip-rule="evenodd" d="M29.9063 21.509C29.8272 21.364 29.8791 21.1815 30.0222 21.1013L34.7708 18.4426C34.914 18.3624 35.0942 18.415 35.1734 18.56C35.2526 18.705 35.2007 18.8875 35.0575 18.9677L30.3089 21.6264C30.1657 21.7065 29.9855 21.654 29.9063 21.509Z" fill="black"/>
<path fill-rule="evenodd" clip-rule="evenodd" d="M34.2339 23.9523C34.1506 23.8097 34.1971 23.6257 34.338 23.5413L38.8076 20.8626C38.9484 20.7783 39.1301 20.8254 39.2134 20.968C39.2967 21.1106 39.2501 21.2946 39.1093 21.379L34.6397 24.0577C34.4989 24.142 34.3172 24.0949 34.2339 23.9523Z" fill="black"/>
<path fill-rule="evenodd" clip-rule="evenodd" d="M34.0352 40.2481C33.9535 40.1045 34.0021 39.9211 34.1438 39.8383L38.9347 37.0397C39.0764 36.9569 39.2576 37.0061 39.3393 37.1496C39.4211 37.2932 39.3725 37.4766 39.2307 37.5594L34.4399 40.358C34.2982 40.4408 34.117 40.3916 34.0352 40.2481Z" fill="black"/>
<path fill-rule="evenodd" clip-rule="evenodd" d="M38.605 21.1342C38.7605 21.1859 38.8451 21.3555 38.794 21.5129L34.6465 34.2938C34.5954 34.4512 34.428 34.5369 34.2726 34.4852C34.1171 34.4334 34.0325 34.2639 34.0836 34.1065L38.2311 21.3256C38.2822 21.1682 38.4496 21.0825 38.605 21.1342ZM36.2319 22.5141C36.3879 22.5641 36.4744 22.7326 36.425 22.8906L34.6475 28.5828C34.5982 28.7408 34.4317 28.8284 34.2757 28.7784C34.1197 28.7285 34.0333 28.5599 34.0826 28.4019L35.8601 22.7097C35.9094 22.5517 36.0759 22.4642 36.2319 22.5141ZM39.2895 25.5155C39.4447 25.5678 39.5287 25.7377 39.4771 25.8949L34.9424 39.6949C34.8907 39.8521 34.723 39.9371 34.5678 39.8848C34.4125 39.8325 34.3286 39.6627 34.3802 39.5054L38.9149 25.7054C38.9665 25.5482 39.1343 25.4632 39.2895 25.5155ZM38.9889 32.1281C39.1449 32.1779 39.2315 32.3464 39.1822 32.5044L37.3172 38.4904C37.268 38.6484 37.1016 38.7361 36.9455 38.6863C36.7895 38.6364 36.7029 38.4679 36.7522 38.3099L38.6172 32.3239C38.6664 32.1659 38.8328 32.0782 38.9889 32.1281Z" fill="black"/>
<path fill-rule="evenodd" clip-rule="evenodd" d="M27.7358 21.7981C27.8911 21.8505 27.975 22.0203 27.9234 22.1775L23.685 35.076C23.6333 35.2332 23.4656 35.3182 23.3103 35.2659C23.1551 35.2136 23.0711 35.0437 23.1228 34.8865L27.3612 21.9881C27.4128 21.8309 27.5806 21.7458 27.7358 21.7981ZM25.2738 22.9058C25.4293 22.9575 25.5139 23.127 25.4628 23.2844L23.3891 29.6749C23.338 29.8323 23.1706 29.918 23.0151 29.8662C22.8597 29.8145 22.7751 29.645 22.8262 29.4876L24.8999 23.0971C24.951 22.9397 25.1184 22.854 25.2738 22.9058ZM27.7314 27.9282C27.8874 27.978 27.974 28.1465 27.9248 28.3045L26.0598 34.2906C26.0105 34.4486 25.8441 34.5362 25.6881 34.4864C25.5321 34.4365 25.4455 34.268 25.4947 34.11L27.3597 28.124C27.409 27.966 27.5754 27.8783 27.7314 27.9282Z" fill="black"/>
<path fill-rule="evenodd" clip-rule="evenodd" d="M15.9478 19.2156C16.103 19.2679 16.187 19.4378 16.1353 19.595L13.0199 29.0759C12.9683 29.2332 12.8005 29.3182 12.6453 29.2659C12.49 29.2136 12.4061 29.0437 12.4577 28.8865L15.5731 19.4056C15.6248 19.2483 15.7925 19.1633 15.9478 19.2156ZM13.4238 20.5574C13.5792 20.6092 13.6638 20.7787 13.6128 20.9361L12.724 23.6749C12.6729 23.8323 12.5055 23.9179 12.3501 23.8662C12.1946 23.8145 12.11 23.645 12.1611 23.4876L13.0499 20.7488C13.101 20.5914 13.2684 20.5057 13.4238 20.5574ZM17.0664 21.5091C17.2224 21.559 17.309 21.7275 17.2598 21.8855L15.3947 27.8715C15.3455 28.0295 15.1791 28.1172 15.0231 28.0673C14.867 28.0175 14.7804 27.849 14.8297 27.691L16.6947 21.7049C16.7439 21.5469 16.9103 21.4593 17.0664 21.5091Z" fill="black"/>
<path d="M28.2001 14.8138L18.9001 10.06L9.6001 14.8138L17.1001 12.9L26.7001 18L35.1001 12.9V17.1L39.9001 9L30.6001 10.06L34.2001 11.4L28.2001 14.8138Z" fill="url(#paint0_linear_157_366479)"/>
<path fill-rule="evenodd" clip-rule="evenodd" d="M40.1519 8.83713C40.2138 8.93274 40.2163 9.05516 40.1582 9.15314L35.3582 17.2531C35.2893 17.3694 35.1512 17.4253 35.0208 17.3895C34.8905 17.3538 34.8001 17.2353 34.8001 17.1002V13.4333L26.8558 18.2566C26.7654 18.3115 26.6528 18.3148 26.5594 18.2651L17.0618 13.2196L9.67427 15.1047C9.52623 15.1425 9.37345 15.0629 9.31946 14.92C9.26546 14.7771 9.32751 14.6164 9.46356 14.5469L18.7636 9.79311C18.8493 9.74928 18.9509 9.74928 19.0366 9.79311L28.1925 14.4732L33.4933 11.4572L30.4955 10.3414C30.3654 10.293 30.2855 10.1617 30.3023 10.0239C30.3191 9.88614 30.4282 9.77789 30.5661 9.76217L39.8661 8.70213C39.9793 8.68923 40.09 8.74153 40.1519 8.83713ZM31.8795 10.2163L34.3048 11.119C34.414 11.1597 34.4898 11.2599 34.4991 11.3761C34.5085 11.4922 34.4497 11.6033 34.3485 11.6609L28.3485 15.0747C28.2606 15.1247 28.1535 15.1271 28.0636 15.0811L18.9001 10.3972L12.1258 13.8599L17.0259 12.6095C17.0983 12.5911 17.1749 12.6002 17.2408 12.6353L26.6902 17.6552L34.9444 12.6438C35.037 12.5875 35.1528 12.5856 35.2472 12.6388C35.3417 12.6919 35.4001 12.7918 35.4001 12.9002V16.0055L39.3342 9.36664L31.8795 10.2163Z" fill="black"/>
</g>
<defs>
<linearGradient id="paint0_linear_157_366479" x1="12.3546" y1="9.71591" x2="16.1052" y2="22.5286" gradientUnits="userSpaceOnUse">
<stop stop-color="#FF6FAB"/>
<stop offset="1" stop-color="#CE0056"/>
</linearGradient>
</defs>
</svg>
