<svg width="274" height="257" viewBox="0 0 274 257" fill="none" xmlns="http://www.w3.org/2000/svg">
<path d="M156.73 185.589C156.73 236.266 109.149 277.347 50.4557 277.347C-8.23786 277.347 -55.8184 236.266 -55.8184 185.589C-55.8184 134.912 -8.23786 93.8303 50.4557 93.8303C109.149 93.8303 156.73 134.912 156.73 185.589Z" fill="#6563F0"/>
<path fill-rule="evenodd" clip-rule="evenodd" d="M40.706 95.2226C40.7355 95.2212 40.765 95.2205 40.7946 95.2205C53.4392 95.2205 66.262 97.2048 78.5879 100.857C79.4291 101.106 79.877 101.897 79.5883 102.623C79.2997 103.349 78.3838 103.736 77.5426 103.487C65.5367 99.9296 53.0822 98.0057 40.8388 98.001C15.9019 99.1906 -1.56675 102.643 -15.5587 108.489C-29.5464 114.334 -40.1865 122.622 -51.386 133.674C-51.9716 134.251 -52.9888 134.31 -53.6581 133.804C-54.3274 133.299 -54.3952 132.42 -53.8096 131.843C-42.4661 120.649 -31.4929 112.058 -16.9615 105.986C-2.44279 99.9201 15.5008 96.4218 40.706 95.2226ZM131.457 131.759C132.095 131.225 133.115 131.239 133.733 131.791C138.053 135.642 141.866 139.634 145.175 143.794C145.679 144.426 145.493 145.292 144.76 145.727C144.027 146.161 143.024 146.001 142.521 145.368C139.321 141.346 135.625 137.474 131.42 133.725C130.801 133.174 130.818 132.293 131.457 131.759ZM152.923 158.963C153.751 158.683 154.685 159.036 155.009 159.751C159.514 169.699 161.667 180.543 161.56 192.551C161.372 213.829 152.744 230.505 138.917 242.952C125.117 255.376 106.216 263.521 85.5622 267.91C44.3176 276.674 -4.4001 270.554 -34.6335 253.016C-35.3716 252.588 -35.568 251.724 -35.072 251.086C-34.5761 250.449 -33.5756 250.28 -32.8375 250.708C-3.47743 267.74 44.2777 273.819 84.7926 265.21C105.019 260.912 123.319 252.977 136.593 241.027C149.84 229.102 158.158 213.111 158.34 192.53C158.444 180.829 156.347 170.341 152.01 160.764C151.686 160.049 152.095 159.243 152.923 158.963Z" fill="black"/>
<path d="M55.9785 132.82C40.297 142.7 39.0255 169.413 26.911 180.341C28.0352 188.498 19.1095 245.826 31.8205 246.992C44.5315 248.157 41.9917 202.713 71.6594 202.713C98.3603 207.837 113.063 239.172 120.125 241.503C127.186 243.833 120.122 222.917 114.473 208.934C109.953 197.748 108.826 183.916 108.826 188.498H114.473C134.248 192.833 134.248 191.004 108.826 175.268C105.061 162.061 102.175 151.848 101.045 150.916C100.291 150.294 149.643 150.916 166.172 135.381C166.172 126.965 95.7749 134.595 101.045 129.16C120.125 112.693 111.151 89.5185 89.062 85.9528C24.0947 75.4655 36.9058 123.671 55.9785 132.82Z" fill="white"/>
<path fill-rule="evenodd" clip-rule="evenodd" d="M97.4028 90.1672C84.9803 83.3449 66.743 82.0177 53.4302 90.6865C41.3137 98.5766 38.7388 110.603 44.0251 120.077C49.2942 129.521 62.6199 136.794 83.1951 134.531C84.1754 134.423 85.0712 135.022 85.1961 135.868C85.321 136.715 84.6276 137.488 83.6474 137.596C61.8527 139.993 46.8641 132.284 40.8013 121.418C34.7559 110.583 37.8317 96.9742 51.2756 88.2197C66.0258 78.6149 85.9228 80.2008 99.3233 87.5603C106.05 91.2543 111.299 96.4841 113.43 102.665C115.577 108.898 114.485 115.906 108.917 122.951C108.36 123.656 100.14 131.089 99.3233 130.608C98.5071 130.127 105.404 121.914 105.961 121.21C110.985 114.854 111.81 108.8 110 103.547C108.172 98.2423 103.588 93.5641 97.4028 90.1672Z" fill="black"/>
<path fill-rule="evenodd" clip-rule="evenodd" d="M51.0414 87.9571C65.9435 78.2535 86.0157 79.8669 99.5192 87.2829C106.303 91.0083 111.623 96.2963 113.785 102.57C115.968 108.906 114.848 116.015 109.222 123.133C109.136 123.242 108.928 123.452 108.653 123.717C108.371 123.99 107.998 124.338 107.566 124.734C106.701 125.525 105.592 126.508 104.475 127.455C103.359 128.4 102.229 129.313 101.323 129.962C100.871 130.285 100.464 130.551 100.136 130.723C99.9732 130.807 99.8125 130.878 99.6646 130.918C99.5405 130.951 99.3076 130.995 99.1037 130.875C98.881 130.744 98.8656 130.526 98.8734 130.41C98.8823 130.277 98.9286 130.13 98.9886 129.984C99.1107 129.686 99.3274 129.304 99.6002 128.876C100.149 128.015 100.959 126.912 101.806 125.81C103.108 124.115 104.524 122.39 105.227 121.533C105.436 121.278 105.582 121.101 105.643 121.023C110.608 114.74 111.406 108.787 109.631 103.637C107.835 98.4255 103.321 93.8055 97.1933 90.4401C84.8742 83.6745 66.8121 82.3744 53.6508 90.9445C41.6745 98.7433 39.1523 110.603 44.3585 119.934C49.5439 129.227 62.6943 136.455 83.1406 134.205C84.3277 134.075 85.4127 134.8 85.5639 135.825C85.7151 136.85 84.8754 137.786 83.6883 137.917C61.7652 140.329 46.6009 132.574 40.4543 121.558C34.3288 110.579 37.4575 96.8028 51.0414 87.9571L51.2643 88.2123L51.0414 87.9571ZM99.1138 87.8331C85.8164 80.5302 66.0945 78.9718 51.4961 88.4777C38.1923 97.141 35.1694 110.583 41.1347 121.275C47.1136 131.99 61.9266 139.654 83.5929 137.27C84.3662 137.185 84.9132 136.575 84.8147 135.907C84.7162 135.239 84.0094 134.767 83.236 134.852C62.5318 137.13 49.0308 129.81 43.6781 120.217C38.3117 110.599 40.9395 98.4052 53.1961 90.4239L53.3933 90.6497L53.1961 90.4239C66.6604 81.6564 85.0727 83.0107 97.5986 89.8898C103.841 93.3181 108.495 98.0545 110.355 103.451C112.201 108.808 111.347 114.963 106.267 121.391C106.197 121.479 106.041 121.67 105.819 121.94C105.107 122.807 103.727 124.49 102.435 126.171C101.591 127.27 100.795 128.354 100.262 129.19C100.001 129.601 99.8109 129.939 99.708 130.184C99.7199 130.177 99.7323 130.171 99.7449 130.165C100.025 130.019 100.398 129.777 100.841 129.46C101.722 128.829 102.835 127.93 103.946 126.989C105.056 126.049 106.158 125.072 107.017 124.286C107.446 123.893 107.814 123.549 108.09 123.282C108.375 123.008 108.546 122.832 108.598 122.765C114.109 115.793 115.173 108.885 113.061 102.756C110.963 96.6674 105.783 91.4958 99.1138 87.8331ZM99.4025 130.303C99.4026 130.303 99.4056 130.302 99.4111 130.302L99.4025 130.303ZM99.627 130.459C99.6275 130.463 99.6275 130.464 99.6274 130.465L99.627 130.459Z" fill="black"/>
<path fill-rule="evenodd" clip-rule="evenodd" d="M111.68 100.713C112.668 100.713 113.469 101.405 113.469 102.258C113.469 106.268 111.414 109.394 108.2 111.59C105.04 113.749 100.809 114.985 96.3568 115.444C87.5172 116.356 77.0405 114.268 70.8988 109.201C70.1844 108.611 70.1587 107.634 70.8413 107.017C71.524 106.4 72.6566 106.378 73.371 106.967C78.5279 111.222 87.8239 113.213 95.9323 112.376C99.9538 111.962 103.491 110.867 105.98 109.167C108.416 107.502 109.891 105.239 109.891 102.258C109.891 101.405 110.692 100.713 111.68 100.713Z" fill="black"/>
<path fill-rule="evenodd" clip-rule="evenodd" d="M109.5 102.269C109.5 101.236 110.47 100.398 111.666 100.398C112.863 100.398 113.833 101.236 113.833 102.269C113.833 106.388 111.716 109.605 108.421 111.857C105.19 114.064 100.886 115.316 96.3878 115.78C87.4712 116.699 76.8699 114.601 70.6242 109.448C69.759 108.734 69.7278 107.55 70.5546 106.803C71.3814 106.056 72.753 106.029 73.6181 106.743C78.6712 110.912 87.8427 112.892 95.8738 112.064C99.8497 111.654 103.313 110.575 105.732 108.923C108.085 107.315 109.5 105.142 109.5 102.269ZM111.666 101.051C110.887 101.051 110.255 101.596 110.255 102.269C110.255 105.359 108.718 107.714 106.2 109.434C103.64 111.183 100.03 112.292 95.9634 112.712C87.7776 113.556 78.3571 111.555 73.0964 107.214C72.5327 106.749 71.6392 106.767 71.1006 107.254C70.562 107.74 70.5823 108.512 71.146 108.977C77.1837 113.958 87.5357 116.036 96.2982 115.132C100.705 114.678 104.863 113.456 107.952 111.345C111.084 109.206 113.078 106.171 113.078 102.269C113.078 101.596 112.446 101.051 111.666 101.051Z" fill="black"/>
<path fill-rule="evenodd" clip-rule="evenodd" d="M98.272 129.601C98.7049 128.782 99.8249 128.421 100.774 128.795C108.374 131.791 120.235 133.023 132.53 133.103C144.761 133.182 157.127 132.12 165.561 130.691C166.585 130.518 167.577 131.093 167.778 131.977C167.979 132.86 167.312 133.717 166.289 133.89C157.582 135.366 144.962 136.444 132.502 136.363C120.106 136.283 107.569 135.057 99.2057 131.761C98.257 131.388 97.839 130.421 98.272 129.601Z" fill="black"/>
<path fill-rule="evenodd" clip-rule="evenodd" d="M167.921 129.615C168.897 129.931 169.392 130.871 169.026 131.714C167.183 135.956 163.178 138.943 158.837 141.154C154.558 143.334 149.713 144.876 145.782 146.127L145.599 146.185C131.073 150.808 116.09 151.817 100.937 151.46C99.8948 151.436 99.0729 150.686 99.1013 149.786C99.1297 148.886 99.9978 148.176 101.04 148.201C115.949 148.552 130.396 147.549 144.293 143.126L144.348 143.108C148.357 141.832 152.935 140.375 156.919 138.346C160.925 136.306 164.083 133.807 165.49 130.569C165.856 129.726 166.944 129.299 167.921 129.615Z" fill="black"/>
<path fill-rule="evenodd" clip-rule="evenodd" d="M101.332 147.662C102.375 147.662 103.221 148.392 103.221 149.292C103.221 151.967 104.38 157.381 106.223 164.62C107.343 169.023 108.691 174.007 110.129 179.33C111.035 182.679 111.976 186.163 112.92 189.72C117.78 208.029 122.716 228.295 122.716 241.142C122.716 242.042 121.87 242.772 120.828 242.772C119.785 242.772 118.939 242.042 118.939 241.142C118.939 228.739 114.127 208.861 109.24 190.448C108.304 186.923 107.366 183.452 106.461 180.106C105.017 174.763 103.659 169.739 102.534 165.32C100.722 158.199 99.4443 152.398 99.4443 149.292C99.4443 148.392 100.29 147.662 101.332 147.662Z" fill="black"/>
<path fill-rule="evenodd" clip-rule="evenodd" d="M55.6262 130.569C56.3635 131.205 56.3635 132.237 55.6262 132.874C44.5948 142.399 35.9924 160.61 31.6697 182.24C27.3603 203.803 27.3658 228.467 33.2455 250.653C33.4781 251.53 32.8427 252.405 31.8262 252.606C30.8097 252.806 29.7971 252.258 29.5645 251.38C23.5595 228.722 23.5652 203.618 27.9485 181.685C32.3186 159.819 41.1017 140.804 52.956 130.569C53.6933 129.932 54.8888 129.932 55.6262 130.569Z" fill="black"/>
<path fill-rule="evenodd" clip-rule="evenodd" d="M84.8503 208.494C80.7853 205.746 77.3977 204.46 74.8297 204.691C65.2054 205.56 56.6411 212.472 49.5341 221.522C42.494 230.487 37.2162 241.125 34.0243 248.641C33.6654 249.486 32.5807 249.92 31.6017 249.611C30.6226 249.301 30.12 248.364 30.479 247.519C33.7183 239.891 39.1209 228.972 46.4087 219.692C53.6295 210.497 63.0405 202.477 74.4373 201.449C78.5807 201.075 83.0076 203.107 87.1784 205.927C91.4415 208.809 95.8647 212.812 100.088 217.034C104.008 220.951 107.812 225.115 111.203 228.827C111.473 229.122 111.74 229.414 112.004 229.703C115.629 233.668 118.677 236.963 120.894 238.877C121.631 239.514 121.631 240.546 120.894 241.182C120.157 241.819 118.961 241.819 118.224 241.182C115.814 239.101 112.61 235.627 109.04 231.723C108.778 231.437 108.514 231.147 108.247 230.855C104.847 227.134 101.092 223.025 97.2303 219.165C93.057 214.994 88.823 211.18 84.8503 208.494Z" fill="black"/>
<path d="M123.797 189.539C102.776 188.661 74.3511 169.168 62.7663 159.532C59.7996 149.652 60.4778 135.819 86.9244 159.532C119.983 189.173 150.074 190.637 123.797 189.539Z" fill="white"/>
<path fill-rule="evenodd" clip-rule="evenodd" d="M56.3119 146.461C57.2576 146.213 58.2565 146.675 58.543 147.491C62.8318 159.713 74.018 170.126 87.8721 177.395C99.6409 183.57 113.184 187.394 125.723 188.141C112.697 181.062 90.892 167.629 76.2039 153.087C75.5545 152.444 75.6317 151.468 76.3764 150.907C77.1212 150.346 78.2514 150.413 78.9009 151.056C95.661 167.65 122.095 182.905 133.22 188.451C133.911 188.795 134.255 189.493 134.061 190.162C133.868 190.831 133.185 191.308 132.388 191.332C117.355 191.785 100.368 187.566 86.0138 180.035C71.6652 172.507 59.7386 161.554 55.1184 148.387C54.8318 147.571 55.3662 146.708 56.3119 146.461Z" fill="black"/>
<path fill-rule="evenodd" clip-rule="evenodd" d="M56.2159 146.151C57.3611 145.852 58.5709 146.41 58.9179 147.399C63.1717 159.522 74.2798 169.877 88.0817 177.118C99.3295 183.02 112.201 186.764 124.245 187.713C111.094 180.464 90.1812 167.41 75.9328 153.303C75.1463 152.525 75.2398 151.343 76.1417 150.664C77.0436 149.985 78.4124 150.065 79.1989 150.844C95.9195 167.399 122.313 182.633 133.422 188.17C134.259 188.588 134.675 189.433 134.441 190.243C134.207 191.053 133.38 191.631 132.414 191.66C117.297 192.115 100.238 187.875 85.8312 180.316C71.4304 172.76 59.4256 161.75 54.7704 148.484C54.4234 147.495 55.0706 146.451 56.2159 146.151ZM58.1951 147.588C57.969 146.944 57.1809 146.58 56.4348 146.775C55.6887 146.97 55.2672 147.651 55.4932 148.295C60.0784 161.362 71.9269 172.258 86.2234 179.759C100.524 187.262 117.439 191.459 132.388 191.009C133.017 190.99 133.556 190.613 133.709 190.086C133.861 189.558 133.59 189.007 133.045 188.735C121.905 183.182 95.4296 167.906 78.6297 151.273C78.1173 150.765 77.2257 150.713 76.6381 151.155C76.0505 151.598 75.9896 152.367 76.502 152.875C91.1542 167.381 112.923 180.795 125.938 187.867C126.084 187.947 126.149 188.102 126.096 188.244C126.042 188.387 125.883 188.479 125.711 188.469C113.106 187.718 99.5054 183.875 87.6895 177.676C73.7831 170.379 62.5188 159.91 58.1951 147.588Z" fill="black"/>
<path fill-rule="evenodd" clip-rule="evenodd" d="M97.0456 23.5883C97.1674 22.6942 98.1057 22.0546 99.1414 22.1598C106.191 22.8759 115.013 25.1611 122.052 29.1902C129.099 33.2246 134.634 39.1911 134.297 47.2366C134.265 48.0056 134.155 48.7633 133.975 49.5048C135.25 49.8954 136.391 50.3388 137.328 50.8108C140.97 52.6454 143.319 54.9169 144.477 57.4774C145.634 60.0356 145.524 62.7058 144.62 65.2142C142.838 70.1626 137.911 74.7042 132.597 77.4034C131.698 77.8599 130.541 77.6009 130.012 76.8248C129.483 76.0488 129.783 75.0496 130.682 74.5932C135.426 72.1839 139.584 68.2189 141.014 64.2462C141.717 62.294 141.745 60.4001 140.959 58.6635C140.175 56.9293 138.499 55.1754 135.425 53.6271C134.705 53.2643 133.803 52.9136 132.778 52.597C130.432 56.9649 125.667 60.3868 120.451 61.5933C119.146 61.895 116.959 62.1768 114.958 61.9264C113.952 61.8006 112.833 61.5212 111.899 60.9139C110.901 60.2646 110.225 59.3058 110.095 58.0736C109.756 54.8581 110.887 52.3722 113.111 50.667C115.243 49.0318 118.16 48.2858 121.072 48.0402C124.08 47.7865 127.358 48.0449 130.329 48.611C130.437 48.1187 130.503 47.6204 130.524 47.1188C130.795 40.634 126.404 35.5938 119.965 31.9076C113.516 28.2162 105.289 26.0671 98.7001 25.3978C97.6645 25.2926 96.9237 24.4825 97.0456 23.5883ZM129.069 51.7129C126.612 51.2783 123.912 51.0766 121.439 51.2852C118.933 51.4965 116.917 52.1092 115.618 53.1049C114.411 54.0306 113.61 55.4479 113.856 57.7784C113.886 58.0684 114.001 58.1987 114.172 58.3101C114.408 58.4635 114.835 58.6165 115.499 58.6996C116.837 58.867 118.484 58.6728 119.474 58.4439C123.509 57.5105 127.139 54.9232 129.069 51.7129Z" fill="black"/>
<path fill-rule="evenodd" clip-rule="evenodd" d="M170.516 30.7245C171.552 30.8277 172.295 31.6364 172.175 32.5308C170.382 45.9484 167.685 58.9235 164.208 72.0851C163.976 72.9629 162.964 73.5122 161.948 73.312C160.931 73.1118 160.295 72.2379 160.527 71.3601C163.977 58.297 166.649 45.4401 168.424 32.1571C168.543 31.2627 169.48 30.6213 170.516 30.7245Z" fill="black"/>
<path fill-rule="evenodd" clip-rule="evenodd" d="M194.173 46.4132C195.033 46.9233 195.25 47.9382 194.659 48.6801C187.796 57.2999 180.852 65.8612 173.82 74.3842C173.215 75.1175 172.036 75.2884 171.187 74.766C170.338 74.2436 170.14 73.2257 170.745 72.4924C177.765 63.9838 184.696 55.4373 191.548 46.833C192.138 46.0911 193.314 45.9032 194.173 46.4132Z" fill="black"/>
<path fill-rule="evenodd" clip-rule="evenodd" d="M158.64 0.104431C161.726 -0.242377 165.265 0.184876 167.599 2.76033C169.481 4.83592 169.696 7.28777 168.929 9.44455C168.174 11.5654 166.461 13.4659 164.317 14.69C162.162 15.9199 159.413 16.5482 156.647 15.8426C155.078 15.4422 153.628 14.6449 152.355 13.4424C152.373 13.7769 152.272 14.1189 152.04 14.4189C151.462 15.168 150.289 15.3704 149.422 14.871C146.668 13.2858 144.581 11.2631 144.763 8.76267C144.941 6.32633 147.231 4.34353 150.373 2.70293C152.479 1.60352 155.545 0.452204 158.64 0.104431ZM150.907 11.79C150.489 11.2191 150.099 10.5913 149.74 9.90622C149.311 9.08591 149.732 8.12009 150.682 7.749C151.632 7.37791 152.751 7.74207 153.181 8.56238C154.581 11.2346 156.276 12.3481 157.717 12.7158C159.18 13.0889 160.784 12.798 162.234 11.9702C163.694 11.1367 164.838 9.84117 165.319 8.48712C165.788 7.16901 165.62 5.86715 164.626 4.76975C163.463 3.48768 161.572 3.06283 159.127 3.33758C156.691 3.61137 154.123 4.55528 152.327 5.49298C149.367 7.0387 148.584 8.24971 148.532 8.96787C148.488 9.56514 148.922 10.528 150.907 11.79Z" fill="black"/>
<path fill-rule="evenodd" clip-rule="evenodd" d="M270.717 50.2343C261.326 44.4428 247.332 44.494 235.773 47.0243C216.874 51.1611 205.157 67.1614 196.979 82.027C196.531 82.8402 195.405 83.1864 194.463 82.8001C193.521 82.4138 193.12 81.4413 193.568 80.6281C201.734 65.7845 214.091 48.4068 234.845 43.8639C246.81 41.2447 262.175 40.9595 272.912 47.5812C273.76 48.1045 273.957 49.1226 273.351 49.8553C272.745 50.5879 271.565 50.7576 270.717 50.2343Z" fill="black"/>
<path d="M110.421 155.793L141.003 128.596L145.525 106.492C142.997 107.077 137.864 106.954 137.56 101.783C137.18 95.3198 153.904 93.3227 168.912 94.5301C180.918 95.496 176.624 103.665 172.977 107.628L166.098 132.617C169.015 136.778 175.31 146.584 177.153 152.522C179.456 159.944 195.367 155.327 181.353 166.056C167.34 176.786 120.319 168.478 113.131 164.525C107.38 161.364 108.928 157.387 110.421 155.793Z" fill="white"/>
<path d="M135.819 136.347C124.793 137.494 113.923 153.112 107.051 158.913C127.597 170.632 167.269 173.059 186.439 159.733C180.429 146.773 166.909 135.238 162.362 136.29C151.314 138.846 146.844 135.201 135.819 136.347Z" fill="#FF479F"/>
<path fill-rule="evenodd" clip-rule="evenodd" d="M145.771 94.4374C146.508 95.0741 146.508 96.1063 145.771 96.7429C144.487 97.851 142.77 99.4392 142.022 100.956C141.66 101.689 141.624 102.212 141.752 102.578C141.865 102.901 142.209 103.4 143.397 103.913C144.33 104.316 144.708 105.295 144.242 106.1C143.775 106.906 142.641 107.232 141.709 106.83C139.876 106.038 138.63 104.934 138.136 103.519C137.657 102.146 137.998 100.794 138.547 99.6791C139.622 97.5012 141.867 95.5029 143.101 94.4374C143.838 93.8008 145.033 93.8008 145.771 94.4374Z" fill="black"/>
<path fill-rule="evenodd" clip-rule="evenodd" d="M171.433 108.153C170.696 107.517 170.696 106.485 171.433 105.848C172.717 104.74 174.434 103.152 175.182 101.634C175.543 100.902 175.58 100.379 175.452 100.013C175.339 99.6894 174.995 99.1906 173.806 98.6775C172.874 98.2748 172.496 97.2956 172.962 96.4903C173.428 95.685 174.563 95.3586 175.495 95.7613C177.328 96.5523 178.573 97.6566 179.067 99.0722C179.546 100.445 179.206 101.797 178.656 102.912C177.582 105.09 175.337 107.088 174.103 108.153C173.366 108.79 172.17 108.79 171.433 108.153Z" fill="black"/>
<path fill-rule="evenodd" clip-rule="evenodd" d="M153.787 91.674C158.384 91.1801 163.235 91.0821 164.659 91.1499C166.331 91.2293 168.848 91.4092 171.2 91.9981C173.47 92.5666 176.095 93.6423 177.281 95.8323C177.779 96.7507 177.96 97.6862 177.802 98.594C177.644 99.4961 177.17 100.261 176.557 100.873C175.368 102.061 173.589 102.756 171.981 103.031C169.046 103.532 166.359 103.77 163.82 103.798C163.814 103.864 163.803 103.931 163.787 103.997C163.578 104.879 162.581 105.448 161.559 105.267C161.322 105.225 161.017 105.175 160.655 105.114C158.554 104.764 154.551 104.097 150.992 103.036C149.141 102.484 147.263 101.785 145.79 100.891C144.576 100.551 143.334 100.194 142.054 99.8249C141.778 99.7454 141.5 99.6654 141.22 99.5849C140.231 99.3004 139.696 98.3772 140.026 97.523C140.355 96.6688 141.424 96.2071 142.414 96.4916C142.554 96.5319 142.693 96.5721 142.832 96.612C142.844 96.3525 142.885 96.0843 142.959 95.8079C143.219 94.8394 144.028 94.1977 144.733 93.7942C145.467 93.3743 146.365 93.052 147.289 92.7948C149.147 92.2773 151.487 91.921 153.787 91.674ZM147.548 97.9525C155.675 100.196 162.064 101.4 171.248 99.8322C172.292 99.654 173.213 99.2274 173.7 98.7411C173.925 98.5159 174.033 98.305 174.068 98.1075C174.101 97.9158 174.085 97.6279 173.861 97.2134C173.393 96.3503 172.152 95.6313 170.148 95.1295C168.226 94.6481 166.062 94.4819 164.452 94.4053C163.306 94.3509 158.687 94.433 154.253 94.9094C152.036 95.1476 149.97 95.4739 148.448 95.8978C147.682 96.1112 147.147 96.3242 146.819 96.5119C146.717 96.5705 146.654 96.6154 146.617 96.6447C146.576 96.942 146.705 97.3538 147.548 97.9525Z" fill="black"/>
<path fill-rule="evenodd" clip-rule="evenodd" d="M143.194 104.248C144.234 104.314 145.016 105.094 144.941 105.992L143.127 127.571C143.052 128.469 142.147 129.144 141.107 129.079C140.067 129.014 139.285 128.233 139.361 127.335L141.175 105.756C141.25 104.858 142.154 104.183 143.194 104.248Z" fill="black"/>
<path fill-rule="evenodd" clip-rule="evenodd" d="M143.539 126.518C144.232 127.191 144.162 128.221 143.383 128.82L142.128 127.602L140.873 126.384C141.653 125.785 142.846 125.846 143.539 126.518ZM140.873 126.384C140.874 126.384 140.873 126.384 142.128 127.602L143.383 128.82L143.327 128.863L143.159 128.993C143.01 129.108 142.79 129.278 142.505 129.5C141.936 129.944 141.108 130.593 140.077 131.41C138.015 133.045 135.144 135.352 131.91 138.04C125.428 143.429 117.535 150.308 111.758 156.366C111.096 157.061 109.906 157.161 109.101 156.589C108.296 156.017 108.18 154.989 108.843 154.294C114.762 148.086 122.783 141.101 129.291 135.692C132.551 132.981 135.444 130.656 137.523 129.009C138.562 128.184 139.398 127.529 139.975 127.08C140.264 126.855 140.488 126.682 140.64 126.564L140.813 126.43L140.873 126.384Z" fill="black"/>
<path fill-rule="evenodd" clip-rule="evenodd" d="M115.545 152.415C115.961 153.24 115.523 154.201 114.566 154.56C111.559 155.688 111.003 156.717 110.965 157.232C110.918 157.853 111.468 158.955 113.624 160.424C117.775 163.251 125.949 166.092 135.602 167.837C145.204 169.573 155.958 170.168 165.142 168.708C174.353 167.244 181.62 163.787 184.942 157.702C185.387 156.888 186.512 156.539 187.455 156.922C188.398 157.306 188.802 158.278 188.358 159.092C184.295 166.534 175.606 170.36 165.826 171.915C156.019 173.473 144.748 172.822 134.828 171.029C124.958 169.244 116.113 166.272 111.285 162.983C108.951 161.394 107.021 159.361 107.197 157.021C107.38 154.574 109.749 152.812 113.061 151.569C114.018 151.211 115.13 151.589 115.545 152.415Z" fill="black"/>
<path fill-rule="evenodd" clip-rule="evenodd" d="M172.142 106.826C173.119 107.141 173.616 108.079 173.252 108.923C170.733 114.76 169.061 120.698 168.017 125.189C167.496 127.431 167.134 129.305 166.902 130.615C166.787 131.27 166.704 131.783 166.65 132.131C166.623 132.305 166.603 132.438 166.591 132.526L166.577 132.624L166.573 132.647L166.573 132.653C166.573 132.653 166.573 132.652 166.573 132.653C166.451 133.547 165.514 134.188 164.478 134.083C163.442 133.979 162.701 133.169 162.822 132.275L164.697 132.464C162.822 132.275 162.822 132.275 162.822 132.275L162.824 132.263L162.828 132.233L162.844 132.122C162.858 132.025 162.879 131.883 162.907 131.7C162.964 131.333 163.05 130.799 163.169 130.123C163.409 128.771 163.781 126.846 164.315 124.548C165.381 119.957 167.101 113.839 169.714 107.785C170.078 106.941 171.165 106.512 172.142 106.826Z" fill="black"/>
<path fill-rule="evenodd" clip-rule="evenodd" d="M162.233 129.054C163.136 128.604 164.291 128.872 164.811 129.652C172.073 140.529 179.459 149.168 185.599 156.35C186.828 157.787 188.007 159.166 189.125 160.493C189.739 161.221 189.553 162.241 188.709 162.771C187.866 163.3 186.685 163.14 186.072 162.412C184.973 161.108 183.808 159.745 182.588 158.318C176.446 151.135 168.918 142.331 161.54 131.281C161.019 130.501 161.329 129.504 162.233 129.054Z" fill="black"/>
<path fill-rule="evenodd" clip-rule="evenodd" d="M164.041 127.937C165.075 128.056 165.8 128.876 165.662 129.769C165.073 133.572 163.776 136.208 160.924 137.632C159.569 138.31 158.013 138.631 156.342 138.78C154.675 138.928 152.773 138.913 150.667 138.846C149.204 138.8 147.552 138.647 145.947 138.499C144.978 138.41 144.026 138.322 143.144 138.26C140.64 138.084 138.367 138.077 136.414 138.529C129.772 140.066 124.44 144.643 119.268 149.126C118.532 149.764 117.336 149.766 116.597 149.131C115.859 148.495 115.856 147.463 116.592 146.825C116.658 146.768 116.723 146.711 116.789 146.654C121.755 142.349 127.739 137.16 135.436 135.38C138.04 134.777 140.849 134.828 143.45 135.01C144.562 135.088 145.599 135.185 146.59 135.278C148.06 135.416 149.432 135.545 150.805 135.588C152.885 135.654 154.566 135.66 155.955 135.536C157.34 135.413 158.312 135.17 159.033 134.81C160.333 134.161 161.378 132.832 161.919 129.337C162.058 128.444 163.008 127.817 164.041 127.937Z" fill="black"/>
<path fill-rule="evenodd" clip-rule="evenodd" d="M152.327 93.1653C153.179 92.646 154.357 92.8213 154.959 93.5568C156.746 95.7427 158.398 97.9425 160.025 100.181C160.579 100.943 160.312 101.95 159.429 102.428C158.545 102.907 157.38 102.676 156.826 101.913C155.218 99.7007 153.606 97.5559 151.874 95.4373C151.273 94.7018 151.475 93.6846 152.327 93.1653Z" fill="black"/>
<path fill-rule="evenodd" clip-rule="evenodd" d="M163.165 91.8548C164.125 91.5028 165.234 91.8892 165.641 92.7178C166.004 93.4544 166.394 94.1597 166.806 94.9033C167.031 95.3098 167.262 95.7277 167.499 96.1684C168.142 97.3668 168.779 98.6572 169.203 100.022C169.472 100.891 168.875 101.785 167.867 102.018C166.86 102.251 165.825 101.735 165.555 100.866C165.217 99.7764 164.69 98.6889 164.073 97.5396C163.877 97.1749 163.666 96.7934 163.45 96.4029C163.014 95.6151 162.558 94.7905 162.166 93.9927C161.758 93.164 162.206 92.2069 163.165 91.8548Z" fill="black"/>
<path fill-rule="evenodd" clip-rule="evenodd" d="M131.083 146.049C132.217 144.661 134.02 143.851 136.513 143.669C138.3 143.539 140.178 143.787 141.558 144.822C143.02 145.92 143.482 147.559 143.196 149.353C142.923 151.064 142.062 152.968 140.551 154.312C138.944 155.74 136.589 156.509 133.836 155.656C131.436 154.912 129.822 153.78 129.338 151.952C129.124 151.14 129.173 150.32 129.301 149.562C129.43 148.805 129.659 147.993 129.889 147.192C130.046 146.642 130.51 146.227 131.083 146.049ZM133.316 151.715C133.582 151.971 134.094 152.272 135.111 152.587C136.281 152.95 137.12 152.682 137.842 152.04C138.66 151.313 139.263 150.114 139.455 148.909C139.626 147.833 139.293 147.442 139.081 147.283C138.785 147.061 138.107 146.825 136.831 146.918C135.001 147.052 134.351 147.595 133.991 148.179C133.526 148.934 133.357 150.064 133.316 151.715Z" fill="black"/>
<path fill-rule="evenodd" clip-rule="evenodd" d="M163.21 152.51C163.63 153.045 163.818 153.666 163.877 154.283C163.976 155.318 163.607 156.434 163.041 157.326C162.49 158.195 161.531 159.189 160.122 159.552C159.008 159.84 157.775 159.783 156.811 159.034C156.318 158.65 156.023 158.177 155.842 157.73C155.567 157.772 155.277 157.763 154.991 157.692C153.988 157.444 153.408 156.542 153.695 155.676C153.98 154.814 154.724 154.023 155.41 153.444C155.52 153.352 155.634 153.26 155.751 153.17C156.013 152.622 156.61 152.229 157.312 152.17C157.547 152.048 157.786 151.935 158.027 151.833C158.904 151.465 160.185 151.093 161.448 151.406C162.146 151.578 162.768 151.947 163.21 152.51ZM159.304 154.941C159.299 155.018 159.294 155.095 159.291 155.173C159.271 155.584 159.275 155.953 159.315 156.254C159.435 156.151 159.581 155.993 159.73 155.759C160.011 155.316 160.121 154.872 160.117 154.61C160.004 154.641 159.859 154.69 159.68 154.765C159.557 154.817 159.431 154.876 159.304 154.941Z" fill="black"/>
<path fill-rule="evenodd" clip-rule="evenodd" d="M158.404 139.658C159.021 139.502 159.779 139.523 160.473 139.913C162.069 140.808 162.704 142.63 161.78 144.017C161.264 144.792 160.326 145.287 159.205 145.302C158.18 145.316 157.189 144.933 156.292 144.368C155.741 144.021 155.471 143.464 155.523 142.917C155.512 142.798 155.518 142.702 155.525 142.639C155.542 142.469 155.585 142.334 155.608 142.269C155.694 142.02 155.842 141.773 155.952 141.603C156.175 141.262 156.553 140.772 157.045 140.368C157.244 140.154 157.496 139.993 157.775 139.891C157.961 139.799 158.171 139.717 158.404 139.658Z" fill="black"/>
</svg>
