<svg width="48" height="48" viewBox="0 0 48 48" fill="none" xmlns="http://www.w3.org/2000/svg">
<g opacity="0.6">
<path d="M37.583 38.9956C37.4559 40.5204 36.0475 40.8487 35.3592 40.8223L26.2261 31.9274C25.8449 30.7837 27.4438 30.1272 28.291 29.9419L37.583 38.9956Z" fill="url(#paint0_linear_157_366484)"/>
<path d="M26.3055 28.3537L27.8939 29.7832L26.3055 30.9745L24.7171 29.3067L22.7316 30.1803C17.903 32.277 13.3602 28.5125 11.6924 26.3682C10.21 24.8063 7.29266 20.5548 7.48327 16.0438C7.67387 11.5328 10.0511 9.29322 11.216 8.73729C17.2518 4.79813 22.3081 8.79023 24.0818 11.2787C30.88 19.0299 28.3968 25.8917 26.3055 28.3537Z" fill="url(#paint1_linear_157_366484)"/>
<path d="M22.2321 16.706C24.7155 21.2796 24.3616 26.2725 21.4417 27.858C18.5219 29.4434 14.1417 27.021 11.6583 22.4473C9.17492 17.8737 9.52877 12.8808 12.4486 11.2954C15.3685 9.70993 19.7487 12.1324 22.2321 16.706Z" fill="#ECFFFF"/>
<path fill-rule="evenodd" clip-rule="evenodd" d="M23.6606 25.6511C23.5569 25.9784 23.4297 26.293 23.2737 26.5847C22.9116 27.262 22.3866 27.8316 21.6328 28.1408C20.8806 28.4492 19.9396 28.4825 18.7745 28.163C14.9046 27.1019 11.1714 23.6795 9.92239 18.7794C9.48026 17.0449 9.54219 15.0179 10.1681 13.4104C10.7967 11.7961 12.0219 10.5562 13.9068 10.5562C15.2784 10.5562 16.6754 11.1447 17.9678 12.0862C19.2626 13.0294 20.4729 14.341 21.4776 15.8256C23.4783 18.7818 24.7114 22.4983 24.0942 25.4471C24.0602 25.6093 23.9013 25.7132 23.7391 25.6793C23.7111 25.6734 23.6848 25.6638 23.6606 25.6511ZM20.9807 16.1619C22.234 18.0137 23.1524 20.1357 23.5005 22.1378C23.499 23.4516 23.3779 25.1172 22.7446 26.3018C22.4307 26.8889 21.9992 27.342 21.4051 27.5856C20.8092 27.83 20.0105 27.8798 18.9331 27.5844C15.2711 26.5803 11.6995 23.3219 10.5038 18.6312C10.0885 17.0018 10.1524 15.1043 10.7272 13.6281C11.2994 12.1588 12.3498 11.1562 13.9068 11.1562C15.1088 11.1562 16.3838 11.6747 17.6145 12.5712C18.8429 13.4659 20.007 14.7231 20.9807 16.1619Z" fill="black"/>
<path fill-rule="evenodd" clip-rule="evenodd" d="M22.5024 14.3536C24.9754 17.714 26.4177 21.9313 25.6838 25.4378C25.0185 28.6167 21.8139 31.3085 17.614 30.1569C16.3151 29.8008 14.3252 28.5986 12.4601 26.7096C10.6008 24.8266 8.89346 22.2888 8.1293 19.291C7.59543 17.1965 7.64561 14.4906 8.48295 12.322C9.3158 10.1651 10.902 8.58389 13.4451 8.58389C16.5912 8.58389 20.0251 10.9873 22.5024 14.3536ZM22.9857 13.998C20.4608 10.5671 16.8706 7.98389 13.4451 7.98389C10.5796 7.98389 8.81518 9.7959 7.92323 12.1059C7.03578 14.4042 6.98702 17.2388 7.54789 19.4392C8.34431 22.5636 10.118 25.1916 12.0331 27.1312C13.9424 29.0648 16.0203 30.3421 17.4553 30.7356C22.026 31.9888 25.5431 29.039 26.2711 25.5607C27.053 21.8251 25.5149 17.4348 22.9857 13.998Z" fill="black"/>
<path fill-rule="evenodd" clip-rule="evenodd" d="M25.08 13.1297C27.4908 16.5054 28.8742 20.7406 28.1396 24.2504C27.914 25.3282 26.9402 26.6879 25.6651 27.8723C24.3951 29.052 22.8932 29.9956 21.6859 30.2863C21.5248 30.3251 21.4256 30.4871 21.4644 30.6482C21.5032 30.8093 21.6652 30.9084 21.8263 30.8696C23.1747 30.545 24.7663 29.5261 26.0734 28.3119C27.3755 27.1024 28.4624 25.6367 28.7269 24.3733C29.508 20.6409 28.0354 16.2355 25.5683 12.781C23.106 9.3332 19.5776 6.73047 16.1495 6.73047C15.3573 6.73047 14.356 7.02915 13.3781 7.38325C12.8837 7.56227 12.3844 7.75971 11.9091 7.94811L11.8713 7.96306C11.408 8.14671 10.9694 8.32055 10.5733 8.46314C10.4174 8.51926 10.3365 8.69113 10.3926 8.84702C10.4487 9.00292 10.6206 9.0838 10.7765 9.02767C11.1818 8.88178 11.6283 8.70482 12.0879 8.52266L12.1301 8.50591C12.6065 8.3171 13.0977 8.12291 13.5824 7.9474C14.5627 7.59244 15.4742 7.33047 16.1495 7.33047C19.293 7.33047 22.6644 9.74735 25.08 13.1297Z" fill="black"/>
<path fill-rule="evenodd" clip-rule="evenodd" d="M15.5517 13.7287C15.3895 13.6945 15.2304 13.7983 15.1963 13.9604C14.6547 16.533 15.1246 19.3713 16.013 21.1481C16.0871 21.2963 16.2673 21.3564 16.4155 21.2823C16.5637 21.2082 16.6238 21.028 16.5497 20.8798C15.7221 19.2245 15.2697 16.5244 15.7834 14.084C15.8176 13.9219 15.7138 13.7628 15.5517 13.7287Z" fill="black"/>
<path fill-rule="evenodd" clip-rule="evenodd" d="M13.3547 15.1763C13.1906 15.1534 13.039 15.2678 13.0161 15.4319L13.3132 15.4734C13.0161 15.4319 13.0161 15.432 13.0161 15.4321L13.0161 15.4324L13.016 15.4331L13.0157 15.4353L13.0147 15.4428L13.0113 15.4697C13.0085 15.4928 13.0047 15.5262 13.0005 15.5688C12.9919 15.6541 12.9815 15.7765 12.9735 15.9286C12.9575 16.2323 12.9511 16.6561 12.9895 17.1379C13.0656 18.0935 13.3207 19.3167 14.0658 20.2747C14.1676 20.4055 14.356 20.4291 14.4868 20.3273C14.6176 20.2256 14.6412 20.0371 14.5395 19.9064C13.8994 19.0835 13.6599 17.9981 13.5876 17.0903C13.5518 16.6405 13.5577 16.2439 13.5727 15.9601C13.5801 15.8185 13.5898 15.7054 13.5975 15.6286C13.6013 15.5902 13.6047 15.5609 13.607 15.5416L13.6097 15.5203L13.6103 15.5156L13.6104 15.5148L13.6104 15.5147C13.6332 15.3507 13.5188 15.1991 13.3547 15.1763Z" fill="black"/>
<path fill-rule="evenodd" clip-rule="evenodd" d="M27.8654 29.5853C27.7544 29.7083 27.7642 29.898 27.8872 30.009C29.4315 31.4027 31.7843 33.7225 33.7551 35.6981C34.7396 36.685 35.6272 37.5845 36.2688 38.2374C36.5896 38.5638 36.8488 38.8285 37.0278 39.0115C37.1173 39.1031 37.1867 39.1742 37.2338 39.2224L37.3051 39.2956C37.3052 39.2957 37.3054 39.2959 37.5204 39.0866C37.7353 38.8773 37.7353 38.8773 37.7352 38.8772L37.6632 38.8034C37.616 38.7551 37.5464 38.6838 37.4568 38.5921C37.2775 38.4087 37.0179 38.1436 36.6967 37.8168C36.0544 37.1632 35.1657 36.2626 34.1799 35.2743C32.21 33.2996 29.8467 30.9692 28.2891 29.5636C28.1661 29.4526 27.9764 29.4623 27.8654 29.5853ZM37.7296 39.3016C37.8483 39.186 37.8508 38.996 37.7352 38.8772L37.5204 39.0866L37.3051 39.2956C37.4207 39.4143 37.6109 39.4171 37.7296 39.3016Z" fill="black"/>
<path fill-rule="evenodd" clip-rule="evenodd" d="M27.27 30.5628C27.7459 30.2078 28.2865 30.0808 28.653 30.203C28.8102 30.2554 28.9801 30.1704 29.0325 30.0132C29.0849 29.8561 28.9999 29.6862 28.8428 29.6338C28.2199 29.4262 27.4742 29.6619 26.9113 30.0819C26.341 30.5073 25.8755 31.1814 25.8755 31.9631C25.8755 32.1288 26.0098 32.2631 26.1755 32.2631C26.3412 32.2631 26.4755 32.1288 26.4755 31.9631C26.4755 31.4257 26.8014 30.9124 27.27 30.5628Z" fill="black"/>
<path fill-rule="evenodd" clip-rule="evenodd" d="M26.6553 31.755C26.5404 31.6357 26.3505 31.632 26.2311 31.7469C26.1118 31.8618 26.1081 32.0518 26.223 32.1711L26.4392 31.9631L26.6553 31.755ZM29.543 35.6102C31.386 37.5149 33.5966 39.7916 35.0644 41.2764C35.1809 41.3942 35.3708 41.3953 35.4887 41.2789C35.6065 41.1624 35.6076 40.9724 35.4911 40.8546C34.0259 39.3723 31.8173 37.0978 29.9742 35.193C29.0528 34.2408 28.2231 33.3813 27.6237 32.7598C27.324 32.4491 27.0819 32.1979 26.9147 32.0244L26.6553 31.755C26.6553 31.755 26.6553 31.755 26.4392 31.9631C26.223 32.1711 26.223 32.1711 26.223 32.1711L26.4826 32.4407C26.6499 32.6142 26.892 32.8655 27.1918 33.1764C27.7914 33.798 28.6214 34.6577 29.543 35.6102Z" fill="black"/>
<path fill-rule="evenodd" clip-rule="evenodd" d="M35.0745 39.8141C34.8955 40.1212 34.7966 40.501 34.9498 40.8662C35.0293 41.0558 35.1566 41.1979 35.3273 41.2778C35.4912 41.3545 35.6635 41.359 35.8123 41.3375C36.101 41.2957 36.3901 41.1424 36.5801 41.031C37.1228 40.7128 37.7352 40.1868 37.8126 39.4156C37.8994 39.3161 37.9127 39.1672 37.8359 39.0521C37.6023 38.7015 37.2287 38.5961 36.8717 38.6252C36.523 38.6535 36.1603 38.808 35.8506 39.0155C35.5395 39.2241 35.255 39.5042 35.0745 39.8141ZM37.2205 39.2745C37.1457 39.2314 37.0478 39.2128 36.9203 39.2232C36.7036 39.2408 36.4382 39.344 36.1847 39.5139C35.9326 39.6829 35.7186 39.9003 35.5929 40.1161C35.4656 40.3346 35.4505 40.5088 35.5031 40.6342C35.5337 40.7072 35.5648 40.7265 35.5816 40.7344C35.6051 40.7454 35.6492 40.7548 35.7265 40.7436C35.8899 40.72 36.0917 40.6218 36.2767 40.5134C36.8057 40.2032 37.208 39.7883 37.2205 39.2771C37.2205 39.2762 37.2205 39.2754 37.2205 39.2745Z" fill="black"/>
<path fill-rule="evenodd" clip-rule="evenodd" d="M25.8428 27.8485C25.7196 27.9593 25.7096 28.149 25.8205 28.2722L27.6014 30.251C27.7122 30.3741 27.9019 30.3841 28.0251 30.2733C28.1482 30.1624 28.1582 29.9727 28.0474 29.8496L26.2664 27.8708C26.1556 27.7476 25.9659 27.7377 25.8428 27.8485Z" fill="black"/>
<path fill-rule="evenodd" clip-rule="evenodd" d="M24.0618 28.8378C23.9386 28.9486 23.9286 29.1383 24.0395 29.2614L25.8204 31.2402C25.9312 31.3634 26.1209 31.3733 26.2441 31.2625C26.3672 31.1517 26.3772 30.962 26.2664 30.8388L24.4854 28.8601C24.3746 28.7369 24.1849 28.7269 24.0618 28.8378Z" fill="black"/>
<path fill-rule="evenodd" clip-rule="evenodd" d="M19.5188 7.5918C19.5667 7.75041 19.477 7.91781 19.3184 7.9657L15.7833 9.03289C15.6246 9.08078 15.4572 8.99101 15.4094 8.8324C15.3615 8.67378 15.4512 8.50638 15.6099 8.4585L19.1449 7.3913C19.3036 7.34341 19.471 7.43318 19.5188 7.5918Z" fill="black"/>
<path fill-rule="evenodd" clip-rule="evenodd" d="M22.0509 9.05092C22.1033 9.2081 22.0184 9.37799 21.8612 9.43039L18.6596 10.4976C18.5024 10.55 18.3325 10.465 18.2801 10.3079C18.2277 10.1507 18.3127 9.98077 18.4699 9.92838L21.6714 8.86118C21.8286 8.80879 21.9985 8.89373 22.0509 9.05092Z" fill="black"/>
<path fill-rule="evenodd" clip-rule="evenodd" d="M24.2653 10.7614C24.3177 10.9185 24.2327 11.0884 24.0755 11.1408L20.874 12.208C20.7168 12.2604 20.5469 12.1755 20.4945 12.0183C20.4421 11.8611 20.527 11.6912 20.6842 11.6388L23.8858 10.5716C24.043 10.5192 24.2129 10.6042 24.2653 10.7614Z" fill="black"/>
<path fill-rule="evenodd" clip-rule="evenodd" d="M25.5849 12.6501C25.6389 12.8067 25.5557 12.9775 25.3991 13.0315L22.7594 13.9414C22.6028 13.9954 22.432 13.9122 22.378 13.7555C22.324 13.5989 22.4072 13.4281 22.5639 13.3741L25.2035 12.4642C25.3602 12.4102 25.5309 12.4934 25.5849 12.6501Z" fill="black"/>
<path fill-rule="evenodd" clip-rule="evenodd" d="M26.8773 14.9206C26.9313 15.0772 26.8481 15.248 26.6914 15.302L24.0518 16.2119C23.8951 16.2659 23.7244 16.1827 23.6704 16.026C23.6164 15.8694 23.6996 15.6986 23.8562 15.6446L26.4959 14.7347C26.6525 14.6807 26.8233 14.7639 26.8773 14.9206Z" fill="black"/>
<path fill-rule="evenodd" clip-rule="evenodd" d="M28.0763 17.2292C28.1302 17.3858 28.047 17.5566 27.8904 17.6106L25.2508 18.5205C25.0941 18.5745 24.9234 18.4913 24.8694 18.3346C24.8154 18.178 24.8986 18.0072 25.0552 17.9532L27.6949 17.0433C27.8515 16.9893 28.0223 17.0725 28.0763 17.2292Z" fill="black"/>
<path fill-rule="evenodd" clip-rule="evenodd" d="M28.9205 19.9928C28.9745 20.1495 28.8913 20.3202 28.7346 20.3742L26.095 21.2841C25.9384 21.3381 25.7676 21.2549 25.7136 21.0983C25.6596 20.9417 25.7428 20.7709 25.8995 20.7169L28.5391 19.807C28.6957 19.753 28.8665 19.8362 28.9205 19.9928Z" fill="black"/>
<path fill-rule="evenodd" clip-rule="evenodd" d="M29.0651 22.756C29.1191 22.9127 29.0359 23.0834 28.8793 23.1374L26.2396 24.0473C26.083 24.1013 25.9123 24.0181 25.8583 23.8615C25.8043 23.7048 25.8875 23.5341 26.0441 23.4801L28.6838 22.5702C28.8404 22.5162 29.0111 22.5994 29.0651 22.756Z" fill="black"/>
<path fill-rule="evenodd" clip-rule="evenodd" d="M28.9205 25.0646C28.9745 25.2213 28.8913 25.392 28.7346 25.446L26.095 26.3559C25.9384 26.4099 25.7676 26.3267 25.7136 26.1701C25.6596 26.0134 25.7428 25.8427 25.8995 25.7887L28.5391 24.8788C28.6957 24.8248 28.8665 24.908 28.9205 25.0646Z" fill="black"/>
<path d="M34.8405 26.9284H39.005C41.8041 26.9284 39.8361 24.5778 37.5979 21.651C35.3598 18.7242 35.2652 19.4782 34.0302 22.4286C32.2685 26.6369 30.7443 26.9284 34.8405 26.9284Z" fill="#FCFEFF"/>
<path fill-rule="evenodd" clip-rule="evenodd" d="M33.9582 21.82C33.8929 21.9777 33.8248 22.1422 33.7534 22.3127C33.3186 23.3516 32.8984 24.1488 32.5722 24.7671L32.5665 24.7779C32.4068 25.0806 32.2663 25.3471 32.1603 25.5754C32.0548 25.8026 31.9709 26.0178 31.942 26.2124C31.9115 26.4169 31.9375 26.6333 32.0939 26.8119C32.2363 26.9745 32.4477 27.0583 32.671 27.1095C33.117 27.2119 33.8283 27.2284 34.8405 27.2284H39.005C39.7149 27.2284 40.2662 27.0856 40.5318 26.6797C40.7983 26.2725 40.6794 25.7508 40.4648 25.2659C40.2404 24.7586 39.8561 24.1691 39.399 23.5349C39.0408 23.0379 38.6286 22.5012 38.2001 21.9432C38.0798 21.7866 37.9583 21.6283 37.8362 21.4688C37.2772 20.7377 36.8348 20.2129 36.4655 19.8954C36.1068 19.587 35.7201 19.3926 35.3221 19.5591C35.1408 19.6349 34.9957 19.773 34.8738 19.9314C34.7512 20.0909 34.6373 20.2907 34.525 20.5179C34.3542 20.8632 34.1712 21.3053 33.9582 21.82ZM36.0743 20.3504C36.3909 20.6224 36.7996 21.1009 37.3596 21.8332C37.4837 21.9955 37.6067 22.1556 37.7278 22.3133C38.1553 22.87 38.5599 23.3969 38.9123 23.8857C39.3662 24.5155 39.7186 25.0624 39.9161 25.5086C40.1234 25.9772 40.1116 26.2261 40.0298 26.3511C39.9471 26.4774 39.6947 26.6284 39.005 26.6284H34.8405C33.8047 26.6284 33.1705 26.6085 32.8052 26.5247C32.6229 26.4829 32.5623 26.4361 32.5453 26.4166C32.5451 26.4165 32.545 26.4163 32.5447 26.4161C32.5404 26.4114 32.5219 26.3916 32.5354 26.3008C32.551 26.196 32.6033 26.0459 32.7045 25.828C32.8039 25.6139 32.9383 25.359 33.1029 25.047C33.43 24.427 33.861 23.6097 34.3069 22.5444C34.3821 22.3649 34.4525 22.1947 34.5191 22.0339C34.7297 21.5251 34.9018 21.1095 35.0628 20.7838C35.168 20.5711 35.2617 20.4113 35.3494 20.2972C35.438 20.1821 35.506 20.1326 35.5536 20.1126C35.6134 20.0876 35.7473 20.0692 36.0743 20.3504Z" fill="#FCFEFF"/>
<path fill-rule="evenodd" clip-rule="evenodd" d="M36.0787 21.9138C35.9156 21.9426 35.8066 22.0982 35.8354 22.2614C35.8538 22.3656 35.8703 22.4573 35.8849 22.5392C35.9347 22.8166 35.9645 22.9829 35.9835 23.1522C36.0074 23.3656 36.0138 23.5842 36.0138 24.0389C36.0138 24.2046 36.1481 24.3389 36.3138 24.3389C36.4795 24.3389 36.6138 24.2046 36.6138 24.0389C36.6138 23.5836 36.6077 23.3353 36.5797 23.0853C36.5584 22.8947 36.524 22.7032 36.4731 22.4198C36.4589 22.3401 36.4433 22.2532 36.4263 22.1571C36.3975 21.9939 36.2419 21.885 36.0787 21.9138Z" fill="#FCFEFF"/>
<path fill-rule="evenodd" clip-rule="evenodd" d="M36.5722 25.0758C36.5045 25.0251 36.4247 25.001 36.3443 25.001C36.1534 25.001 36.0267 25.1219 35.9656 25.2018C35.9029 25.2835 35.851 25.3955 35.8437 25.5084C35.8409 25.5517 35.8382 25.6886 35.9512 25.793C36.0913 25.9224 36.2569 25.876 36.3206 25.8483C36.3361 25.8415 36.3511 25.8339 36.3654 25.8256C36.3828 25.8311 36.4015 25.8352 36.4215 25.8374C36.5038 25.8468 36.5685 25.821 36.6057 25.8C36.6419 25.7796 36.6664 25.7562 36.6792 25.7427C36.7047 25.716 36.7212 25.6894 36.7286 25.677C36.7379 25.6616 36.7461 25.6461 36.7529 25.6324C36.8053 25.5277 36.7907 25.407 36.7253 25.319C36.7182 25.2901 36.7082 25.259 36.694 25.2283C36.6728 25.1824 36.6359 25.1235 36.5722 25.0758Z" fill="#FCFEFF"/>
<path d="M40.2528 12.5359C40.2528 14.7786 38.4347 16.5967 36.192 16.5967C33.9493 16.5967 32.1312 14.7786 32.1312 12.5359C32.1312 10.2932 33.9493 8.4751 36.192 8.4751C38.4347 8.4751 40.2528 10.2932 40.2528 12.5359Z" fill="white"/>
<path fill-rule="evenodd" clip-rule="evenodd" d="M36.192 8.77529C34.1149 8.77529 32.4312 10.4591 32.4312 12.5361C32.4312 14.6131 34.1149 16.2969 36.192 16.2969C38.269 16.2969 39.9528 14.6131 39.9528 12.5361C39.9528 10.4591 38.269 8.77529 36.192 8.77529ZM31.8312 12.5361C31.8312 10.1277 33.7836 8.17529 36.192 8.17529C38.6004 8.17529 40.5528 10.1277 40.5528 12.5361C40.5528 14.9445 38.6004 16.8969 36.192 16.8969C33.7836 16.8969 31.8312 14.9445 31.8312 12.5361Z" fill="black"/>
<path fill-rule="evenodd" clip-rule="evenodd" d="M41.1 8.83037C41.1809 8.97497 41.1292 9.15776 40.9846 9.23864C39.9297 9.82866 38.8253 10.6602 37.9464 11.6316C37.0654 12.6055 36.4299 13.6989 36.2727 14.813C36.2523 14.9569 36.1317 15.0656 35.9864 15.0709C35.8413 15.0761 35.7133 14.9767 35.6825 14.8348C35.6824 14.8347 35.6824 14.8346 35.6824 14.8345L35.6823 14.8343L35.682 14.8328L35.6795 14.8221C35.677 14.8119 35.6731 14.7958 35.6673 14.7742C35.6558 14.731 35.6374 14.666 35.6104 14.5829C35.5564 14.4165 35.4684 14.1782 35.3341 13.8975C35.0652 13.3356 34.613 12.6079 33.8801 11.9449C33.7572 11.8337 33.7478 11.644 33.8589 11.5211C33.9701 11.3983 34.1598 11.3888 34.2826 11.4999C35.0863 12.227 35.5812 13.0238 35.8753 13.6386C35.8924 13.6743 35.9088 13.7094 35.9246 13.7439C36.2484 12.8365 36.8179 11.9848 37.5015 11.2291C38.43 10.2027 39.5881 9.33223 40.6917 8.71498C40.8363 8.6341 41.0191 8.68576 41.1 8.83037Z" fill="black"/>
<path d="M34.8598 26.8801H39.0243C41.8234 26.8801 39.8554 24.5294 37.6172 21.6026C35.3791 18.6758 35.2845 19.4299 34.0494 22.3802C32.2878 26.5885 30.7636 26.8801 34.8598 26.8801Z" fill="#FCFEFF"/>
<path fill-rule="evenodd" clip-rule="evenodd" d="M33.9775 21.7717C33.9122 21.9293 33.8441 22.0938 33.7727 22.2644C33.3378 23.3033 32.9177 24.1005 32.5915 24.7187L32.5858 24.7295C32.4261 25.0322 32.2855 25.2987 32.1796 25.527C32.0741 25.7543 31.9902 25.9695 31.9612 26.1641C31.9308 26.3685 31.9568 26.585 32.1131 26.7636C32.2555 26.9262 32.467 27.0099 32.6903 27.0612C33.1363 27.1635 33.8476 27.1801 34.8598 27.1801H39.0243C39.7342 27.1801 40.2854 27.0373 40.5511 26.6313C40.8176 26.2242 40.6986 25.7024 40.4841 25.2175C40.2597 24.7103 39.8754 24.1207 39.4183 23.4866C39.06 22.9895 38.6479 22.4529 38.2194 21.8949C38.0991 21.7383 37.9776 21.58 37.8555 21.4204C37.2965 20.6893 36.8541 20.1645 36.4848 19.847C36.1261 19.5386 35.7394 19.3443 35.3414 19.5108C35.1601 19.5866 35.0149 19.7246 34.8931 19.8831C34.7705 20.0425 34.6566 20.2424 34.5443 20.4695C34.3735 20.8148 34.1905 21.257 33.9775 21.7717ZM36.0936 20.302C36.4101 20.5741 36.8189 21.0526 37.3789 21.7849C37.503 21.9472 37.626 22.1073 37.7471 22.265C38.1746 22.8217 38.5792 23.3485 38.9316 23.8374C39.3855 24.4671 39.7379 25.014 39.9354 25.4603C40.1427 25.9289 40.1309 26.1777 40.049 26.3028C39.9664 26.4291 39.714 26.5801 39.0243 26.5801H34.8598C33.824 26.5801 33.1897 26.5602 32.8245 26.4764C32.6422 26.4345 32.5816 26.3878 32.5645 26.3683C32.5644 26.3681 32.5642 26.3679 32.564 26.3677C32.5597 26.363 32.5412 26.3433 32.5547 26.2525C32.5703 26.1476 32.6226 25.9976 32.7238 25.7797C32.8232 25.5656 32.9576 25.3107 33.1222 24.9987C33.4493 24.3787 33.8802 23.5614 34.3262 22.4961C34.4013 22.3165 34.4718 22.1464 34.5384 21.9855C34.749 21.4767 34.9211 21.0612 35.0821 20.7355C35.1873 20.5228 35.281 20.363 35.3687 20.2488C35.4573 20.1337 35.5253 20.0842 35.5729 20.0643C35.6327 20.0393 35.7665 20.0208 36.0936 20.302Z" fill="#07182B"/>
<path fill-rule="evenodd" clip-rule="evenodd" d="M36.098 21.8655C35.9348 21.8942 35.8259 22.0499 35.8547 22.213C35.8731 22.3173 35.8895 22.4089 35.9042 22.4909C35.954 22.7683 35.9838 22.9346 36.0027 23.1038C36.0267 23.3173 36.0331 23.5359 36.0331 23.9906C36.0331 24.1562 36.1674 24.2906 36.3331 24.2906C36.4987 24.2906 36.6331 24.1562 36.6331 23.9906C36.6331 23.5353 36.627 23.287 36.599 23.037C36.5776 22.8464 36.5433 22.6549 36.4924 22.3714C36.4781 22.2918 36.4625 22.2049 36.4456 22.1088C36.4168 21.9456 36.2612 21.8367 36.098 21.8655Z" fill="#07182B"/>
<path fill-rule="evenodd" clip-rule="evenodd" d="M36.5915 25.0274C36.5238 24.9768 36.444 24.9526 36.3636 24.9526C36.1727 24.9526 36.046 25.0735 35.9848 25.1534C35.9222 25.2352 35.8703 25.3471 35.863 25.46C35.8602 25.5034 35.8575 25.6402 35.9705 25.7447C36.1106 25.8741 36.2762 25.8276 36.3399 25.7999C36.3554 25.7932 36.3704 25.7856 36.3847 25.7773C36.4021 25.7827 36.4208 25.7868 36.4408 25.7891C36.5231 25.7985 36.5878 25.7726 36.625 25.7517C36.6612 25.7313 36.6856 25.7078 36.6985 25.6943C36.7239 25.6677 36.7405 25.6411 36.7479 25.6287C36.7572 25.6133 36.7654 25.5977 36.7722 25.584C36.8246 25.4793 36.8099 25.3586 36.7446 25.2707C36.7375 25.2418 36.7275 25.2106 36.7133 25.18C36.6921 25.134 36.6552 25.0751 36.5915 25.0274Z" fill="#07182B"/>
<path d="M40.272 12.488C40.272 14.7308 38.4539 16.5488 36.2112 16.5488C33.9685 16.5488 32.1504 14.7308 32.1504 12.488C32.1504 10.2453 33.9685 8.42725 36.2112 8.42725C38.4539 8.42725 40.272 10.2453 40.272 12.488Z" fill="white"/>
<path fill-rule="evenodd" clip-rule="evenodd" d="M36.2111 8.72744C34.1341 8.72744 32.4503 10.4112 32.4503 12.4882C32.4503 14.5653 34.1341 16.249 36.2111 16.249C38.2882 16.249 39.9719 14.5653 39.9719 12.4882C39.9719 10.4112 38.2882 8.72744 36.2111 8.72744ZM31.8503 12.4882C31.8503 10.0798 33.8027 8.12744 36.2111 8.12744C38.6195 8.12744 40.5719 10.0798 40.5719 12.4882C40.5719 14.8966 38.6195 16.849 36.2111 16.849C33.8027 16.849 31.8503 14.8966 31.8503 12.4882Z" fill="black"/>
<path fill-rule="evenodd" clip-rule="evenodd" d="M41.1191 8.78251C41.2 8.92712 41.1484 9.10991 41.0038 9.19079C39.9489 9.78081 38.8444 10.6123 37.9656 11.5838C37.0845 12.5577 36.4491 13.651 36.2918 14.7651C36.2715 14.9091 36.1509 15.0178 36.0056 15.023C35.8605 15.0282 35.7325 14.9288 35.7016 14.7869C35.7016 14.7868 35.7016 14.7867 35.7016 14.7866L35.7015 14.7865L35.7012 14.785L35.6987 14.7742C35.6962 14.764 35.6922 14.7479 35.6865 14.7263C35.675 14.6831 35.6565 14.6181 35.6295 14.535C35.5755 14.3686 35.4875 14.1304 35.3532 13.8497C35.0844 13.2877 34.6321 12.5601 33.8993 11.897C33.7764 11.7858 33.7669 11.5961 33.8781 11.4733C33.9892 11.3504 34.179 11.3409 34.3018 11.4521C35.1055 12.1792 35.6003 12.9759 35.8945 13.5907C35.9116 13.6265 35.928 13.6616 35.9438 13.6961C36.2676 12.7887 36.837 11.9369 37.5207 11.1812C38.4492 10.1549 39.6073 9.28438 40.7109 8.66713C40.8555 8.58625 41.0383 8.63791 41.1191 8.78251Z" fill="black"/>
</g>
<defs>
<linearGradient id="paint0_linear_157_366484" x1="27.206" y1="30.8075" x2="35.5992" y2="39.7411" gradientUnits="userSpaceOnUse">
<stop stop-color="#FF6FAB"/>
<stop offset="1" stop-color="#CE0056"/>
</linearGradient>
<linearGradient id="paint1_linear_157_366484" x1="9.38833" y1="8.97942" x2="27.74" y2="25.386" gradientUnits="userSpaceOnUse">
<stop stop-color="#FF6FAB"/>
<stop offset="1" stop-color="#CE0056"/>
</linearGradient>
</defs>
</svg>
