<svg width="12" height="12" viewBox="0 0 12 12" fill="none" xmlns="http://www.w3.org/2000/svg">
<g clip-path="url(#clip0)">
<path d="M0.360848 1.13672H11.6401C11.8383 1.13672 12.0005 1.29888 12.0005 1.49708C12.0005 1.69528 11.8383 1.85744 11.6401 1.85744H0.360848C0.16265 1.85744 0.000488281 1.69528 0.000488281 1.49708C0.000488281 1.29888 0.16265 1.13672 0.360848 1.13672Z" fill="black" fill-opacity="0.6"/>
<path d="M0.361031 4.125H8.25292C8.45112 4.125 8.61328 4.28716 8.61328 4.48536C8.61328 4.68356 8.45112 4.84572 8.25292 4.84572H0.361031C0.162832 4.84572 0.000670433 4.68356 0.000670433 4.48536C0.000670433 4.28716 0.162832 4.125 0.361031 4.125Z" fill="black" fill-opacity="0.6"/>
<path d="M0.360848 7.15234H11.6401C11.8383 7.15234 12.0005 7.3145 12.0005 7.5127C12.0005 7.71089 11.8383 7.87305 11.6401 7.87305H0.360848C0.16265 7.87305 0.000488281 7.71089 0.000488281 7.5127C0.000488281 7.3145 0.16265 7.15234 0.360848 7.15234Z" fill="black" fill-opacity="0.6"/>
<path d="M0.360804 10.1445H5.44189C5.64008 10.1445 5.80225 10.3067 5.80225 10.5049C5.80225 10.7031 5.64008 10.8653 5.44189 10.8653H0.360804C0.162605 10.8653 0.000442982 10.7031 0.000442982 10.5049C0.000442982 10.3067 0.162605 10.1445 0.360804 10.1445Z" fill="black" fill-opacity="0.6"/>
</g>
<defs>
<clipPath id="clip0">
<rect width="12" height="12" fill="white" transform="matrix(-1 0 0 1 12.0005 0)"/>
</clipPath>
</defs>
</svg>
