<svg width="12" height="12" viewBox="0 0 12 12" fill="none" xmlns="http://www.w3.org/2000/svg">
<path d="M0.36036 1.13672H11.6396C11.8378 1.13672 12 1.29888 12 1.49708C12 1.69528 11.8378 1.85744 11.6396 1.85744H0.36036C0.162162 1.85744 0 1.69528 0 1.49708C0 1.29888 0.162162 1.13672 0.36036 1.13672Z" fill="#858CDD"/>
<path d="M0.360542 4.125H8.25243C8.45063 4.125 8.61279 4.28716 8.61279 4.48536C8.61279 4.68356 8.45063 4.84572 8.25243 4.84572H0.360542C0.162344 4.84572 0.000182152 4.68356 0.000182152 4.48536C0.000182152 4.28716 0.162344 4.125 0.360542 4.125Z" fill="#858CDD"/>
<path d="M0.36036 7.15234H11.6396C11.8378 7.15234 12 7.3145 12 7.5127C12 7.71089 11.8378 7.87305 11.6396 7.87305H0.36036C0.162162 7.87305 0 7.71089 0 7.5127C0 7.3145 0.162162 7.15234 0.36036 7.15234Z" fill="#858CDD"/>
<path d="M0.360315 10.1445H5.4414C5.6396 10.1445 5.80176 10.3067 5.80176 10.5049C5.80176 10.7031 5.6396 10.8653 5.4414 10.8653H0.360315C0.162117 10.8653 -4.52995e-05 10.7031 -4.52995e-05 10.5049C-4.52995e-05 10.3067 0.162117 10.1445 0.360315 10.1445Z" fill="#858CDD"/>
<rect x="-0.141421" width="15.2184" height="0.890909" rx="0.445455" transform="matrix(-0.707107 -0.707107 -0.707107 0.707107 11.4324 10.8023)" fill="#858CDD" stroke="white" stroke-width="0.2"/>
</svg>
