<svg width="15" height="16" viewBox="0 0 15 16" fill="none" xmlns="http://www.w3.org/2000/svg">
<g clip-path="url(#clip0)">
<path d="M14.6073 1.97255C14.3315 1.67929 13.944 1.51172 13.539 1.51172C12.7326 1.51172 12.0797 2.16457 12.0797 2.97103C12.0797 3.1002 12.0972 3.22938 12.1321 3.35506L10.5506 4.47572C9.985 3.90317 9.05984 3.89619 8.48729 4.46176C8.08231 4.86324 7.94615 5.46023 8.14166 5.99788L6.68235 7.22677C6.22151 6.56694 5.31381 6.40285 4.65049 6.86369C4.39912 7.03824 4.2106 7.28961 4.10935 7.57588L2.89792 7.08363C2.76176 6.28764 2.01116 5.75349 1.21517 5.88965C0.419185 6.0258 -0.114964 6.77641 0.0211916 7.57239C0.157347 8.36838 0.907949 8.90253 1.70394 8.76638C2.22761 8.6791 2.66052 8.31252 2.83857 7.81328L4.05001 8.30554C4.18616 9.10153 4.93676 9.63568 5.73275 9.49952C6.43448 9.38082 6.94768 8.77336 6.94768 8.06116C6.94768 8.01577 6.94419 7.9669 6.9407 7.92151L8.53267 6.57741C9.12966 7.11854 10.0513 7.07665 10.5925 6.47966C10.9381 6.09912 11.0568 5.56497 10.9102 5.07621L12.4742 3.96601C13.0258 4.55602 13.9475 4.58395 14.5375 4.03584C15.1275 3.48423 15.1554 2.56256 14.6073 1.97255ZM1.45955 8.09258C1.04061 8.09258 0.698479 7.75044 0.698479 7.3315C0.698479 6.91256 1.04061 6.57043 1.45955 6.57043C1.8785 6.57043 2.22063 6.91256 2.22063 7.3315C2.22063 7.75044 1.8785 8.09258 1.45955 8.09258ZM5.48488 8.82573C5.06594 8.82573 4.7238 8.48359 4.7238 8.06465C4.7238 7.64571 5.06594 7.30357 5.48488 7.30357C5.90382 7.30357 6.24595 7.64571 6.24595 8.06465C6.24595 8.48359 5.90731 8.82573 5.48488 8.82573ZM9.51369 6.2632C9.09475 6.2632 8.75261 5.92107 8.75261 5.50213C8.75261 5.08319 9.09475 4.74105 9.51369 4.74105C9.93263 4.74105 10.2748 5.08319 10.2748 5.50213C10.2748 5.92107 9.93263 6.2632 9.51369 6.2632ZM13.539 3.7321C13.1201 3.7321 12.7779 3.38997 12.7779 2.97103C12.7779 2.55209 13.1201 2.20995 13.539 2.20995C13.958 2.20995 14.3001 2.55209 14.3001 2.97103C14.3001 3.39346 13.9614 3.7321 13.539 3.7321Z" fill="#777777"/>
<path d="M14.5166 5.58948H12.5615C12.3695 5.58948 12.2124 5.74658 12.2124 5.93859V14.2476C12.2124 14.4396 12.3695 14.5967 12.5615 14.5967H14.5166C14.7086 14.5967 14.8657 14.4396 14.8657 14.2476V5.93859C14.8657 5.74658 14.7086 5.58948 14.5166 5.58948ZM14.1675 13.9334H12.9106V6.28771H14.1675V13.9334Z" fill="#777777"/>
<path d="M10.5014 8.10315H8.54638C8.35437 8.10315 8.19727 8.26025 8.19727 8.45227V14.2476C8.19727 14.4396 8.35437 14.5967 8.54638 14.5967H10.5014C10.6935 14.5967 10.8506 14.4396 10.8506 14.2476V8.45227C10.8506 8.26025 10.6935 8.10315 10.5014 8.10315ZM10.1523 13.9334H8.8955V8.80138H10.1523V13.9334Z" fill="#777777"/>
<path d="M6.45188 10.7214H4.49682C4.30481 10.7214 4.14771 10.8785 4.14771 11.0705V14.2824C4.14771 14.4744 4.30481 14.6315 4.49682 14.6315H6.45188C6.6439 14.6315 6.801 14.4744 6.801 14.2824V11.0705C6.801 10.8785 6.6439 10.7214 6.45188 10.7214ZM6.10277 13.9333H4.84594V11.4196H6.10277V13.9333Z" fill="#777777"/>
<path d="M2.43711 9.98822H0.482052C0.290037 9.98822 0.132935 10.1453 0.132935 10.3373V14.2824C0.132935 14.4744 0.290037 14.6315 0.482052 14.6315H2.43711C2.62912 14.6315 2.78623 14.4744 2.78623 14.2824V10.3373C2.78623 10.1453 2.62912 9.98822 2.43711 9.98822ZM2.08799 13.9332H0.831169V10.6865H2.08799V13.9332Z" fill="#777777"/>
</g>
<defs>
<clipPath id="clip0">
<rect width="15" height="15" fill="white" transform="translate(0 0.572266)"/>
</clipPath>
</defs>
</svg>
