<svg width="39" height="39" viewBox="0 0 39 39" fill="none" xmlns="http://www.w3.org/2000/svg">
<circle cx="19.0384" cy="19.9037" r="18.0612" stroke="#5B44BA" stroke-width="1.95455"/>
<path d="M27.3318 19.1926L21.1439 12.5809C20.9672 12.3922 20.7318 12.2886 20.4808 12.2886C20.2295 12.2886 19.9942 12.3923 19.8175 12.5809L19.2557 13.1813C19.0792 13.3698 18.982 13.6215 18.982 13.8898C18.982 14.158 19.0792 14.4182 19.2557 14.6066L22.8657 18.4722H11.3967C10.8796 18.4722 10.471 18.9048 10.471 19.4574V20.3063C10.471 20.8589 10.8796 21.3351 11.3967 21.3351H22.9066L19.2559 25.2223C19.0794 25.411 18.9821 25.6558 18.9821 25.9242C18.9821 26.1923 19.0794 26.4407 19.2559 26.6293L19.8177 27.2278C19.9943 27.4165 20.2296 27.5193 20.4809 27.5193C20.7319 27.5193 20.9674 27.4152 21.144 27.2264L27.3319 20.6148C27.509 20.4255 27.6063 20.1728 27.6056 19.9041C27.6062 19.6346 27.509 19.3817 27.3318 19.1926Z" fill="#5B44BA"/>
</svg>