<svg width="16" height="16" viewBox="0 0 16 16" fill="none" xmlns="http://www.w3.org/2000/svg">
<rect x="8.13171" y="12.9618" width="6.59726" height="0.540759" rx="0.27038" stroke="black" stroke-width="0.540759"/>
<path d="M6.53976 7.64628L6.89331 7.99983L6.53976 8.35338L0.602772 14.2904L0.250847 13.9385L0.602772 14.2904C0.572514 14.3206 0.572514 14.3686 0.602772 14.3989C0.633024 14.4291 0.680989 14.4291 0.711249 14.3989C0.711257 14.3989 0.711264 14.3989 0.711271 14.3989L7.05604 8.05411C7.07122 8.03893 7.07861 8.02001 7.07861 7.99986C7.07861 7.9797 7.07122 7.96078 7.05605 7.94561L0.711249 1.60082C0.680992 1.57056 0.633028 1.57056 0.602771 1.60082C0.572514 1.63107 0.572514 1.67904 0.602771 1.70929L6.53976 7.64628Z" stroke="black"/>
</svg>
