<svg width="15" height="15" viewBox="0 0 15 15" fill="none" xmlns="http://www.w3.org/2000/svg">
<path d="M14.5094 11.565C14.8349 10.8784 14.9999 10.1421 14.9999 9.37382C14.9999 6.6314 12.8231 4.38511 10.0972 4.25322C9.48296 2.04048 7.46513 0.49707 5.15635 0.49707C2.31325 0.49707 0.000225769 2.79697 0.000225769 5.6239C0.000225769 6.39217 0.165163 7.12853 0.490703 7.81508L0.00875096 10.2251C-0.0525953 10.5319 0.218043 10.8031 0.524891 10.7424L2.96465 10.26C3.57583 10.5499 4.22597 10.7119 4.90318 10.7443C5.7571 13.8189 9.18678 15.3611 12.0354 14.0099C14.7074 14.5382 14.499 14.5006 14.5604 14.5006C14.8381 14.5006 15.0455 14.2462 14.9913 13.975L14.5094 11.565ZM3.22538 9.40879C3.13747 9.36385 3.03692 9.34982 2.94013 9.36898L0.999548 9.75267L1.38183 7.8411C1.40126 7.74398 1.38731 7.64308 1.34217 7.55487C1.03494 6.95383 0.879111 6.30419 0.879111 5.6239C0.879111 3.28158 2.79787 1.37596 5.15635 1.37596C6.99953 1.37596 8.62265 2.57446 9.18988 4.28849C6.50325 4.63199 4.47979 7.05616 4.73938 9.85158C4.20985 9.80069 3.70256 9.65274 3.22538 9.40879ZM13.6183 11.591L14.0006 13.5026L12.06 13.1189C11.9631 13.0998 11.8627 13.1138 11.7747 13.1587C11.1737 13.4659 10.5241 13.6218 9.84377 13.6218C7.50146 13.6218 5.59583 11.7161 5.59583 9.37382C5.59583 7.0315 7.50146 5.12587 9.84377 5.12587C12.2023 5.12587 14.121 7.0315 14.121 9.37382C14.121 10.0541 13.9652 10.7037 13.658 11.3048C13.6128 11.393 13.5989 11.4939 13.6183 11.591Z" fill="#777777"/>
</svg>
