<svg width="200" height="191" viewBox="0 0 200 191" fill="none" xmlns="http://www.w3.org/2000/svg">
<path  d="M181.953 131.874C173.708 131.874 166.743 137.439 164.594 145.013H147.172V125.779H164.961C184.282 125.779 200 110.043 200 90.7011C200 75.1932 189.726 61.5698 175.14 57.1327C170.731 39.4592 154.795 26.7834 136.338 26.7834C129.183 26.7834 122.329 28.6305 116.281 32.1593C109.875 26.2947 101.475 23 92.6493 23C73.7188 23 58.2464 38.1071 57.6289 56.91C42.6463 61.1024 32 74.8352 32 90.7011C32 110.043 47.7185 125.779 67.0395 125.779H84.8281V145.013H67.406C65.2578 137.439 58.2917 131.874 50.0469 131.874C40.0958 131.874 32 139.978 32 149.94C32 159.902 40.0958 168.006 50.0469 168.006C58.2917 168.006 65.2574 162.441 67.406 154.867H89.75C92.4682 154.867 94.6719 152.661 94.6719 149.94V125.779H111.078V155.556C103.513 157.706 97.9531 164.68 97.9531 172.934C97.9531 182.895 106.049 191 116 191C125.951 191 134.047 182.895 134.047 172.934C134.047 164.68 128.487 157.707 120.922 155.556V125.779H137.328V149.94C137.328 152.661 139.532 154.867 142.25 154.867H164.594C166.742 162.441 173.708 168.006 181.953 168.006C191.904 168.006 200 159.902 200 149.94C200 139.978 191.904 131.874 181.953 131.874ZM50.0469 158.152C45.5237 158.152 41.8438 154.468 41.8438 149.94C41.8438 145.412 45.5237 141.728 50.0469 141.728C54.5701 141.728 58.25 145.412 58.25 149.94C58.25 154.468 54.5701 158.152 50.0469 158.152ZM124.203 172.934C124.203 177.462 120.523 181.146 116 181.146C111.477 181.146 107.797 177.462 107.797 172.934C107.797 168.405 111.477 164.722 116 164.722C120.523 164.722 124.203 168.405 124.203 172.934ZM67.0395 115.924C53.1467 115.924 41.8438 104.609 41.8438 90.7011C41.8438 78.2704 51.0992 67.5413 63.372 65.7445C65.9619 65.3654 67.802 63.0234 67.5605 60.4146C67.4893 59.6449 67.4532 58.8586 67.4532 58.0771C67.4532 44.1696 78.7562 32.8547 92.649 32.8547C100.061 32.8547 107.051 36.0804 111.826 41.7047C113.503 43.6792 116.42 44.0162 118.502 42.4763C123.664 38.6567 129.831 36.6378 136.338 36.6378C151.309 36.6378 163.76 47.635 166.087 61.9407C166.416 63.9635 167.962 65.5711 169.969 65.9777C181.666 68.3484 190.156 78.7458 190.156 90.7011C190.156 104.609 178.853 115.924 164.96 115.924H67.0395ZM181.953 158.152C177.43 158.152 173.75 154.468 173.75 149.94C173.75 145.412 177.43 141.728 181.953 141.728C186.476 141.728 190.156 145.412 190.156 149.94C190.156 154.468 186.476 158.152 181.953 158.152Z"/>
<circle  cx="16" cy="16" r="11.5" fill="#1C2126"  stroke-width="9"/>
<circle  cx="192" cy="37" r="6" fill="#1C2126"  stroke-width="4"/>
<circle  cx="8" cy="122" r="6" fill="#1C2126"  stroke-width="4"/>
</svg>
