<svg width="16" height="16" viewBox="0 0 16 16" fill="none" xmlns="http://www.w3.org/2000/svg">
<g clip-path="url(#clip0)">
<path d="M4.83033 15.0507H4.83025C4.38898 15.05 3.96735 14.8677 3.66436 14.5467C3.36007 14.2266 3.18686 13.7816 3.18686 13.3092V5.55715C2.59749 5.38143 2.21951 4.80291 2.29952 4.18922L2.29952 4.18921C2.38132 3.56284 2.91496 3.09428 3.54672 3.09415H3.54673H5.11553V2.74908V2.74893H5.16553L4.83033 15.0507ZM4.83033 15.0507H10.8125H10.8126M4.83033 15.0507H10.8126M10.8126 15.0507C11.2539 15.05 11.6755 14.8677 11.9784 14.5467C12.2827 14.2266 12.4559 13.7816 12.4559 13.3092V5.55715C13.0453 5.38143 13.4233 4.80291 13.3433 4.18922L13.3433 4.18921M10.8126 15.0507L13.3433 4.18921M13.3433 4.18921C13.2615 3.56284 12.7278 3.09428 12.0961 3.09415H10.5273L13.3433 4.18921ZM10.1477 1.82725L10.1478 1.82726C10.3925 2.07145 10.5292 2.40337 10.5273 2.74904V2.74893H10.4773L10.5273 2.74921L10.1477 1.82725ZM10.1477 1.82725C9.90304 1.58319 9.57063 1.44727 9.22497 1.45004M10.1477 1.82725L9.22497 1.45004M6.41763 2.13239C6.25287 2.12955 6.09405 2.1934 5.97733 2.30962C5.8605 2.42584 5.79578 2.5843 5.79788 2.74893L6.41763 2.13239ZM6.41763 2.13239H9.22517H6.41763ZM9.22497 1.45004H9.22517V1.50004C9.55752 1.49732 9.87716 1.62799 10.1124 1.86266L9.22497 1.45004ZM9.22497 1.45004H6.41783H6.41763H9.22497ZM10.4773 3.09415V3.14415H10.5273L10.4773 3.09415ZM5.84788 2.74893H5.84788L5.84787 2.7483C5.84595 2.5972 5.90534 2.45176 6.01259 2.34507L6.01261 2.34505C6.11972 2.2384 6.2655 2.17978 6.41677 2.18238V2.18239H6.41763L9.22517 2.1824L9.22603 2.18238C9.3773 2.17978 9.52308 2.2384 9.63019 2.34505L9.63023 2.34509C9.73745 2.45164 9.79685 2.59718 9.79493 2.7483H9.79492V2.74893V3.09415H5.84788V2.74893ZM9.68688 6.34066C9.48463 6.34066 9.32071 6.50459 9.32071 6.70684V12.6826C9.32071 12.8847 9.48462 13.0488 9.68688 13.0488C9.88915 13.0488 10.0531 12.8847 10.0531 12.6826V6.70684C10.0531 6.50459 9.88914 6.34066 9.68688 6.34066ZM5.95594 6.34066C5.75368 6.34066 5.58976 6.50459 5.58976 6.70684V12.6826C5.58976 12.8847 5.75367 13.0488 5.95594 13.0488C6.1582 13.0488 6.32211 12.8847 6.32211 12.6826V6.70684C6.32211 6.50459 6.15819 6.34066 5.95594 6.34066ZM10.8125 14.3184H4.83033C4.32185 14.3184 3.91921 13.8811 3.91921 13.3092V5.59709H11.7236V13.3092C11.7236 13.8811 11.321 14.3184 10.8125 14.3184ZM3.54673 3.8265H12.0961C12.3828 3.8265 12.6152 4.05891 12.6152 4.34562C12.6152 4.63233 12.3828 4.86474 12.0961 4.86474H3.54673C3.26002 4.86474 3.02762 4.63233 3.02762 4.34562C3.02762 4.05891 3.26002 3.8265 3.54673 3.8265ZM7.8214 6.34066C7.61915 6.34066 7.45523 6.50459 7.45523 6.70684V12.6826C7.45523 12.8847 7.61914 13.0488 7.8214 13.0488C8.02367 13.0488 8.18758 12.8847 8.18758 12.6826V6.70684C8.18758 6.50459 8.02365 6.34066 7.8214 6.34066Z" fill="#CA2C2C" stroke="#CA2C2C" stroke-width="0.1"/>
</g>
<defs>
<clipPath id="clip0">
<rect width="15" height="15" fill="white" transform="translate(0.325195 0.75)"/>
</clipPath>
</defs>
</svg>
