<svg width="13" height="15" viewBox="0 0 13 15" fill="none" xmlns="http://www.w3.org/2000/svg">
<path d="M12.0841 3.6443L8.56859 0.12876C8.48653 0.0466699 8.37453 0 8.25781 0H2.10547C1.37853 0 0.787109 0.591416 0.787109 1.31836V13.6816C0.787109 14.4086 1.37853 15 2.10547 15H10.8945C11.6215 15 12.2129 14.4086 12.2129 13.6816V3.95508C12.2129 3.83525 12.1626 3.72272 12.0841 3.6443ZM8.69727 1.50038L10.7125 3.51562H9.13672C8.8944 3.51562 8.69727 3.31849 8.69727 3.07617V1.50038ZM10.8945 14.1211H2.10547C1.86315 14.1211 1.66602 13.924 1.66602 13.6816V1.31836C1.66602 1.07604 1.86315 0.878906 2.10547 0.878906H7.81836V3.07617C7.81836 3.80312 8.40978 4.39453 9.13672 4.39453H11.334V13.6816C11.334 13.924 11.1368 14.1211 10.8945 14.1211Z" fill="#1C0732"/>
<path d="M9.13672 6.21094H3.86328C3.62059 6.21094 3.42383 6.4077 3.42383 6.65039C3.42383 6.89309 3.62059 7.08984 3.86328 7.08984H9.13672C9.37941 7.08984 9.57617 6.89309 9.57617 6.65039C9.57617 6.4077 9.37941 6.21094 9.13672 6.21094Z" fill="#1C0732"/>
<path d="M9.13672 7.96875H3.86328C3.62059 7.96875 3.42383 8.16551 3.42383 8.4082C3.42383 8.6509 3.62059 8.84766 3.86328 8.84766H9.13672C9.37941 8.84766 9.57617 8.6509 9.57617 8.4082C9.57617 8.16551 9.37941 7.96875 9.13672 7.96875Z" fill="#1C0732"/>
<path d="M9.13672 9.72656H3.86328C3.62059 9.72656 3.42383 9.92332 3.42383 10.166C3.42383 10.4087 3.62059 10.6055 3.86328 10.6055H9.13672C9.37941 10.6055 9.57617 10.4087 9.57617 10.166C9.57617 9.92332 9.37941 9.72656 9.13672 9.72656Z" fill="#1C0732"/>
<path d="M7.37891 11.4844H3.86328C3.62059 11.4844 3.42383 11.6811 3.42383 11.9238C3.42383 12.1665 3.62059 12.3633 3.86328 12.3633H7.37891C7.6216 12.3633 7.81836 12.1665 7.81836 11.9238C7.81836 11.6811 7.6216 11.4844 7.37891 11.4844Z" fill="#1C0732"/>
</svg>
