<svg width="15" height="15" viewBox="0 0 15 15" fill="none" xmlns="http://www.w3.org/2000/svg">
<g clip-path="url(#clip0)">
<g clip-path="url(#clip1)">
<path d="M13.9283 9.64453C13.6324 9.64453 13.3925 9.88438 13.3925 10.1803V13.3945C13.3925 13.6904 13.1527 13.9303 12.8568 13.9303H2.14257C1.8467 13.9303 1.60685 13.6904 1.60685 13.3945V10.1803C1.60685 9.88438 1.367 9.64453 1.07112 9.64453C0.775247 9.64453 0.5354 9.88438 0.5354 10.1803V13.3945C0.5354 14.2821 1.25494 15.0017 2.14254 15.0017H12.8568C13.7444 15.0017 14.464 14.2821 14.464 13.3945V10.1803C14.464 9.88438 14.2241 9.64453 13.9283 9.64453Z" fill="#696F8C"/>
<path d="M10.5449 9.2641C10.3373 9.06362 10.0082 9.06362 9.80061 9.2641L8.03543 11.0282V0.535724C8.03543 0.239847 7.79558 0 7.49971 0C7.20383 0 6.96398 0.239847 6.96398 0.535724V11.0282L5.19987 9.2641C4.98705 9.05857 4.64792 9.06447 4.44238 9.27726C4.24186 9.48487 4.24186 9.81398 4.44238 10.0216L7.12093 12.7002C7.32989 12.9096 7.66908 12.9101 7.87855 12.7011C7.87886 12.7008 7.87917 12.7005 7.87952 12.7002L10.5581 10.0216C10.7636 9.80877 10.7577 9.46964 10.5449 9.2641Z" fill="#696F8C"/>
</g>
</g>
<defs>
<clipPath id="clip0">
<rect width="15" height="15" fill="white"/>
</clipPath>
<clipPath id="clip1">
<rect width="15" height="15" fill="white"/>
</clipPath>
</defs>
</svg>
