<svg width="24" height="26" viewBox="0 0 24 26" fill="none" xmlns="http://www.w3.org/2000/svg">
<mask id="path-1-inside-1" fill="white">
<path d="M24 17.4994V22.833C24 23.5403 23.719 24.2186 23.219 24.7187C22.7189 25.2188 22.0406 25.4998 21.3333 25.4998H2.66667C1.95942 25.4998 1.28115 25.2188 0.781048 24.7187C0.280951 24.2186 0 23.5403 0 22.833L0 17.4994"/>
</mask>
<path d="M25.5 17.4994C25.5 16.671 24.8284 15.9994 24 15.9994C23.1716 15.9994 22.5 16.671 22.5 17.4994H25.5ZM21.3333 25.4998V26.9998V25.4998ZM0 22.833H-1.5H0ZM1.5 17.4994C1.5 16.671 0.828427 15.9994 0 15.9994C-0.828427 15.9994 -1.5 16.671 -1.5 17.4994H1.5ZM22.5 17.4994V22.833H25.5V17.4994H22.5ZM22.5 22.833C22.5 23.1424 22.3771 23.4392 22.1583 23.658L24.2796 25.7793C25.061 24.9979 25.5 23.9381 25.5 22.833H22.5ZM22.1583 23.658C21.9395 23.8768 21.6427 23.9998 21.3333 23.9998V26.9998C22.4384 26.9998 23.4982 26.5607 24.2796 25.7793L22.1583 23.658ZM21.3333 23.9998H2.66667V26.9998H21.3333V23.9998ZM2.66667 23.9998C2.35727 23.9998 2.06053 23.8768 1.84173 23.658L-0.279634 25.7793C0.501763 26.5607 1.56158 26.9998 2.66667 26.9998V23.9998ZM1.84173 23.658C1.62293 23.4392 1.5 23.1424 1.5 22.833H-1.5C-1.5 23.9381 -1.06103 24.9979 -0.279634 25.7793L1.84173 23.658ZM1.5 22.833L1.5 17.4994H-1.5L-1.5 22.833H1.5Z" fill="#00CC9A" mask="url(#path-1-inside-1)"/>
<path d="M18.6668 10.833L12.0002 17.5L5.3335 10.833" stroke="#00CC9A" stroke-width="1.5" stroke-linecap="round" stroke-linejoin="round"/>
<path d="M12 17.501V1.50024" stroke="#00CC9A" stroke-width="1.5" stroke-linecap="round" stroke-linejoin="round"/>
</svg>
