<svg width="15" height="15" viewBox="0 0 15 15" fill="none" xmlns="http://www.w3.org/2000/svg">
<path d="M14.8431 7.1209L13.7722 6.04997L7.87911 0.156868C7.66992 -0.0522893 7.33077 -0.0522893 7.12158 0.156868L1.22845 6.04997L0.156988 7.12146C-0.0485593 7.33429 -0.0426893 7.67344 0.170141 7.87899C0.37776 8.07951 0.706893 8.07951 0.914512 7.87899L1.07093 7.72147V14.4643C1.07093 14.7601 1.31079 15 1.60668 15H13.3929C13.6888 15 13.9287 14.7601 13.9287 14.4643V7.72147L14.0856 7.87846C14.2984 8.084 14.6376 8.0781 14.8431 7.8653C15.0437 7.65768 15.0437 7.32852 14.8431 7.1209ZM9.10703 13.9285H5.8926V9.64262H9.10703V13.9285ZM12.8572 13.9285H10.1785V9.10691C10.1785 8.81102 9.93863 8.57116 9.64274 8.57116H5.35685C5.06096 8.57116 4.82111 8.81102 4.82111 9.10691V13.9285H2.14243V6.65001L7.49978 1.29262L12.8572 6.65001V13.9285Z" fill="#777777"/>
</svg>
