<svg width="15" height="15" viewBox="0 0 15 15" fill="none" xmlns="http://www.w3.org/2000/svg">
<path d="M9.69695 6.51732V0.878906H10.5759V0H4.42352V0.878906H5.30242V6.51732L1.01377 12.9504C0.743538 13.3557 0.718489 13.8743 0.948352 14.3038C1.17819 14.7332 1.62356 15 2.11068 15H12.8887C13.3758 15 13.8212 14.7332 14.0511 14.3037C14.2809 13.8742 14.2558 13.3557 13.9856 12.9503L9.69695 6.51732ZM6.18133 6.78346V0.878906H8.81805V6.78346L9.94756 8.47772C9.72751 8.4358 9.4934 8.4082 9.2575 8.4082C8.28602 8.4082 7.34283 8.8742 7.30317 8.89403C7.08449 9.00337 6.3778 9.28711 5.74188 9.28711C5.34868 9.28711 4.94685 9.18296 4.64907 9.08183L6.18133 6.78346ZM13.2761 13.889C13.2388 13.9588 13.1263 14.1211 12.8887 14.1211H2.11068C1.87311 14.1211 1.76058 13.9588 1.72323 13.889C1.6859 13.8192 1.61324 13.6356 1.74502 13.4379L4.14704 9.83487C4.51677 9.97723 5.12336 10.166 5.74188 10.166C6.71336 10.166 7.65655 9.70002 7.69621 9.68019C7.91486 9.57085 8.62155 9.28711 9.2575 9.28711C9.85932 9.28711 10.4817 9.53098 10.7188 9.63448L13.2544 13.4379C13.3861 13.6356 13.3135 13.8192 13.2761 13.889Z" fill="#777777"/>
<path d="M8.81812 10.6055H9.69702V11.4844H8.81812V10.6055Z" fill="#777777"/>
<path d="M7.0603 12.3633H7.93921V13.2422H7.0603V12.3633Z" fill="#777777"/>
<path d="M5.30249 11.4844H6.1814V12.3633H5.30249V11.4844Z" fill="#777777"/>
<path d="M7.0603 7.08984H7.93921V7.96875H7.0603V7.08984Z" fill="#777777"/>
</svg>
