<svg width="15" height="16" viewBox="0 0 15 16" fill="none" xmlns="http://www.w3.org/2000/svg">
<path d="M9.69793 7.48119V1.84277H10.5768V0.963867H4.42449V1.84277H5.3034V7.48119L1.01475 13.9142C0.744514 14.3196 0.719466 14.8381 0.949329 15.2676C1.17916 15.6971 1.62453 15.9639 2.11165 15.9639H12.8897C13.3768 15.9639 13.8222 15.6971 14.052 15.2676C14.2819 14.8381 14.2568 14.3195 13.9866 13.9142L9.69793 7.48119ZM6.18231 7.74732V1.84277H8.81903V7.74732L9.94854 9.44159C9.72849 9.39967 9.49438 9.37207 9.25848 9.37207C8.28699 9.37207 7.34381 9.83807 7.30414 9.8579C7.08547 9.96724 6.37877 10.251 5.74285 10.251C5.34966 10.251 4.94782 10.1468 4.65005 10.0457L6.18231 7.74732ZM13.2771 14.8529C13.2398 14.9227 13.1272 15.085 12.8897 15.085H2.11165C1.87408 15.085 1.76156 14.9227 1.7242 14.8529C1.68688 14.7831 1.61422 14.5995 1.746 14.4018L4.14802 10.7987C4.51775 10.9411 5.12434 11.1299 5.74285 11.1299C6.71434 11.1299 7.65752 10.6639 7.69719 10.6441C7.91583 10.5347 8.62253 10.251 9.25848 10.251C9.86029 10.251 10.4826 10.4948 10.7197 10.5983L13.2553 14.4017C13.3871 14.5995 13.3145 14.7831 13.2771 14.8529Z" fill="#777777"/>
<path d="M8.81906 11.5693H9.69796V12.4482H8.81906V11.5693Z" fill="#777777"/>
<path d="M7.06124 13.3271H7.94015V14.2061H7.06124V13.3271Z" fill="#777777"/>
<path d="M5.30343 12.4482H6.18234V13.3271H5.30343V12.4482Z" fill="#777777"/>
<path d="M7.06124 8.05371H7.94015V8.93262H7.06124V8.05371Z" fill="#777777"/>
</svg>
