<svg width="15" height="16" viewBox="0 0 15 16" fill="none" xmlns="http://www.w3.org/2000/svg">
<g clip-path="url(#clip0)">
<path d="M14.6073 1.41225C14.3315 1.11899 13.944 0.951416 13.539 0.951416C12.7326 0.951416 12.0797 1.60427 12.0797 2.41073C12.0797 2.5399 12.0972 2.66907 12.1321 2.79475L10.5506 3.91542C9.985 3.34287 9.05984 3.33589 8.48729 3.90146C8.08231 4.30294 7.94615 4.89993 8.14166 5.43757L6.68235 6.66647C6.22151 6.00663 5.31381 5.84255 4.65049 6.30338C4.39912 6.47794 4.2106 6.72931 4.10935 7.01558L2.89792 6.52333C2.76176 5.72734 2.01116 5.19319 1.21517 5.32935C0.419185 5.4655 -0.114964 6.2161 0.0211916 7.01209C0.157347 7.80808 0.907949 8.34223 1.70394 8.20607C2.22761 8.11879 2.66052 7.75222 2.83857 7.25298L4.05001 7.74524C4.18616 8.54122 4.93676 9.07537 5.73275 8.93922C6.43448 8.82052 6.94768 8.21305 6.94768 7.50086C6.94768 7.45547 6.94419 7.40659 6.9407 7.36121L8.53267 6.01711C9.12966 6.55824 10.0513 6.51635 10.5925 5.91935C10.9381 5.53882 11.0568 5.00467 10.9102 4.5159L12.4742 3.40571C13.0258 3.99572 13.9475 4.02365 14.5375 3.47553C15.1275 2.92393 15.1554 2.00226 14.6073 1.41225ZM1.45955 7.53228C1.04061 7.53228 0.698479 7.19014 0.698479 6.7712C0.698479 6.35226 1.04061 6.01012 1.45955 6.01012C1.8785 6.01012 2.22063 6.35226 2.22063 6.7712C2.22063 7.19014 1.8785 7.53228 1.45955 7.53228ZM5.48488 8.26542C5.06594 8.26542 4.7238 7.92329 4.7238 7.50435C4.7238 7.08541 5.06594 6.74327 5.48488 6.74327C5.90382 6.74327 6.24595 7.08541 6.24595 7.50435C6.24595 7.92329 5.90731 8.26542 5.48488 8.26542ZM9.51369 5.7029C9.09475 5.7029 8.75261 5.36077 8.75261 4.94183C8.75261 4.52289 9.09475 4.18075 9.51369 4.18075C9.93263 4.18075 10.2748 4.52289 10.2748 4.94183C10.2748 5.36077 9.93263 5.7029 9.51369 5.7029ZM13.539 3.1718C13.1201 3.1718 12.7779 2.82967 12.7779 2.41073C12.7779 1.99179 13.1201 1.64965 13.539 1.64965C13.958 1.64965 14.3001 1.99179 14.3001 2.41073C14.3001 2.83316 13.9614 3.1718 13.539 3.1718Z" fill="#101217"/>
<path d="M14.5166 5.02917H12.5615C12.3695 5.02917 12.2124 5.18628 12.2124 5.37829V13.6873C12.2124 13.8793 12.3695 14.0364 12.5615 14.0364H14.5166C14.7086 14.0364 14.8657 13.8793 14.8657 13.6873V5.37829C14.8657 5.18628 14.7086 5.02917 14.5166 5.02917ZM14.1675 13.3731H12.9106V5.72741H14.1675V13.3731Z" fill="#101217"/>
<path d="M10.5014 7.54285H8.54638C8.35437 7.54285 8.19727 7.69995 8.19727 7.89196V13.6873C8.19727 13.8793 8.35437 14.0364 8.54638 14.0364H10.5014C10.6935 14.0364 10.8506 13.8793 10.8506 13.6873V7.89196C10.8506 7.69995 10.6935 7.54285 10.5014 7.54285ZM10.1523 13.3731H8.8955V8.24108H10.1523V13.3731Z" fill="#101217"/>
<path d="M6.45188 10.1611H4.49682C4.30481 10.1611 4.14771 10.3182 4.14771 10.5102V13.7221C4.14771 13.9141 4.30481 14.0712 4.49682 14.0712H6.45188C6.6439 14.0712 6.801 13.9141 6.801 13.7221V10.5102C6.801 10.3182 6.6439 10.1611 6.45188 10.1611ZM6.10277 13.373H4.84594V10.8593H6.10277V13.373Z" fill="#101217"/>
<path d="M2.43711 9.42792H0.482052C0.290037 9.42792 0.132935 9.58502 0.132935 9.77703V13.7221C0.132935 13.9141 0.290037 14.0712 0.482052 14.0712H2.43711C2.62912 14.0712 2.78623 13.9141 2.78623 13.7221V9.77703C2.78623 9.58502 2.62912 9.42792 2.43711 9.42792ZM2.08799 13.3729H0.831169V10.1262H2.08799V13.3729Z" fill="#101217"/>
</g>
<defs>
<clipPath id="clip0">
<rect width="15" height="15" fill="white" transform="translate(0 0.0112305)"/>
</clipPath>
</defs>
</svg>
