<svg width="17" height="16" viewBox="0 0 17 16" fill="none" xmlns="http://www.w3.org/2000/svg">
<path d="M9.97229 9.33594H7.03111C6.78499 9.33594 6.58548 9.53545 6.58548 9.78157V15.5525C6.58548 15.7986 6.78499 15.9982 7.03111 15.9982H9.97229C10.2184 15.9982 10.4179 15.7986 10.4179 15.5525V9.78157C10.4179 9.53545 10.2184 9.33594 9.97229 9.33594ZM9.52665 15.1069H7.47675V10.2272H9.52665V15.1069Z" fill="#696F8C"/>
<path d="M15.8101 5.83594H12.8466C12.6004 5.83594 12.4009 6.03545 12.4009 6.28157V15.5508C12.4009 15.7969 12.6004 15.9964 12.8466 15.9964H15.8101C16.0562 15.9964 16.2557 15.7969 16.2557 15.5508V6.28157C16.2557 6.03549 16.0562 5.83594 15.8101 5.83594ZM15.3644 15.1051H13.2922V6.72721H15.3644V15.1051Z" fill="#696F8C"/>
<path d="M4.15725 11.5H1.19377C0.947648 11.5 0.748138 11.6995 0.748138 11.9456V15.5553C0.748138 15.8014 0.947648 16.0009 1.19377 16.0009H4.15725C4.40337 16.0009 4.60288 15.8014 4.60288 15.5553V11.9456C4.60288 11.6996 4.40337 11.5 4.15725 11.5ZM3.71161 15.1096H1.63941V12.3913H3.71161V15.1096Z" fill="#696F8C"/>
<path d="M16.2995 0.446908C16.2317 0.353508 16.1251 0.296103 16.0098 0.290942L11.9545 0.00127327C11.7084 -0.0171936 11.4939 0.167389 11.4754 0.413471C11.457 0.659596 11.6415 0.874076 11.8876 0.892542L14.7578 1.08745L9.48123 5.21523L5.44826 2.05122C5.27604 1.91483 5.03017 1.9243 4.86892 2.07348L0.724546 6.03958C0.548365 6.20672 0.538471 6.48419 0.702284 6.66349C0.781781 6.76665 0.9064 6.82483 1.03652 6.81945C1.15406 6.81779 1.26618 6.76972 1.34845 6.68575L5.2032 2.98697L9.1916 6.12867C9.35439 6.25901 9.58585 6.25901 9.74864 6.12867L15.4528 1.6899L15.2299 4.45762C15.2288 4.69961 15.4124 4.90249 15.6533 4.92552H15.6755C15.9053 4.92667 16.0982 4.753 16.1212 4.52445L16.4108 0.758839C16.4272 0.642878 16.3856 0.526277 16.2995 0.446908Z" fill="#696F8C"/>
</svg>
