<svg width="15" height="18" viewBox="0 0 15 18" fill="none" xmlns="http://www.w3.org/2000/svg">
<path d="M12.4655 6.57568H6.7329C6.02934 6.57568 5.45898 7.2416 5.45898 8.06305V14.7562C5.45898 15.5777 6.02934 16.2436 6.7329 16.2436H12.4655C13.1691 16.2436 13.7395 15.5777 13.7395 14.7562V8.06305C13.7395 7.2416 13.1691 6.57568 12.4655 6.57568Z" stroke="#696F8C" stroke-width="1.70732" stroke-linecap="round" stroke-linejoin="round"/>
<path d="M2.91098 11.0424H2.27398C1.9361 11.0424 1.61206 10.8857 1.37314 10.6068C1.13422 10.3278 1 9.9495 1 9.55503V2.86188C1 2.4674 1.13422 2.08909 1.37314 1.81015C1.61206 1.53122 1.9361 1.37451 2.27398 1.37451H8.00691C8.34479 1.37451 8.66883 1.53122 8.90775 1.81015C9.14667 2.08909 9.28089 2.4674 9.28089 2.86188V3.60556" stroke="#696F8C" stroke-width="1.70732" stroke-linecap="round" stroke-linejoin="round"/>
</svg>
