<svg width="18" height="19" viewBox="0 0 18 19" fill="none" xmlns="http://www.w3.org/2000/svg">
<path d="M1.61719 4.32129H3.27769H16.5617" stroke="#CA2C2C" stroke-width="1.70732" stroke-linecap="round" stroke-linejoin="round"/>
<path d="M5.76808 4.32378V2.66189C5.76808 2.22113 5.94302 1.79842 6.25442 1.48676C6.56583 1.17509 6.98818 1 7.42857 1H10.7495C11.1899 1 11.6123 1.17509 11.9237 1.48676C12.2351 1.79842 12.41 2.22113 12.41 2.66189V4.32378M14.9008 4.32378V15.957C14.9008 16.3978 14.7258 16.8205 14.4144 17.1321C14.103 17.4438 13.6807 17.6189 13.2403 17.6189H4.93783C4.49744 17.6189 4.07509 17.4438 3.76369 17.1321C3.45229 16.8205 3.27734 16.3978 3.27734 15.957V4.32378H14.9008Z" stroke="#CA2C2C" stroke-width="1.70732" stroke-linecap="round" stroke-linejoin="round"/>
<path d="M7.42773 8.47607V13.4617" stroke="#CA2C2C" stroke-width="1.70732" stroke-linecap="round" stroke-linejoin="round"/>
<path d="M10.75 8.47607V13.4617" stroke="#CA2C2C" stroke-width="1.70732" stroke-linecap="round" stroke-linejoin="round"/>
</svg>
