<svg width="16" height="16" viewBox="0 0 16 16" fill="none" xmlns="http://www.w3.org/2000/svg">
<path d="M3 2.5L13 13.5" stroke="black" stroke-linecap="round" stroke-linejoin="round"/>
<path d="M9.68155 9.84987C9.19092 10.2958 8.54325 10.5286 7.88099 10.497C7.21874 10.4655 6.59614 10.1721 6.15016 9.68155C5.70417 9.19097 5.47132 8.54332 5.50283 7.88106C5.53433 7.2188 5.82762 6.59618 6.31816 6.15015" stroke="black" stroke-linecap="round" stroke-linejoin="round"/>
<path d="M4.62465 4.28711C2.07657 5.57746 1 8.00001 1 8.00001C1 8.00001 3 12.4995 8 12.4995C9.1715 12.5089 10.3284 12.239 11.3748 11.7124" stroke="black" stroke-linecap="round" stroke-linejoin="round"/>
<path d="M13.0378 10.5687C14.4004 9.34827 14.9997 8.00001 14.9997 8.00001C14.9997 8.00001 12.9997 3.49952 7.99967 3.49952C7.56662 3.49881 7.13426 3.53402 6.70703 3.60478" stroke="black" stroke-linecap="round" stroke-linejoin="round"/>
<path d="M8.4707 5.54443C9.00206 5.64647 9.48601 5.91803 9.84997 6.31839C10.2139 6.71875 10.4383 7.22633 10.4893 7.76498" stroke="black" stroke-linecap="round" stroke-linejoin="round"/>
</svg>
