<svg width="15" height="13" viewBox="0 0 15 13" fill="none" xmlns="http://www.w3.org/2000/svg">
<path d="M14.5601 2.04282H9.45206C9.39801 1.91696 9.31973 1.7991 9.2171 1.6965L8.40974 0.88914C8.19977 0.67914 7.92054 0.563477 7.62353 0.563477C7.32655 0.563477 7.04735 0.67914 6.83732 0.889111L6.02996 1.69647C5.92736 1.79907 5.84905 1.91693 5.795 2.04279H0.439892C0.196963 2.04279 0 2.23972 0 2.48265C0 2.72558 0.196963 2.92257 0.439892 2.92257H5.79506C5.84911 3.04843 5.92739 3.16629 6.03002 3.26889L6.83738 4.07625C7.04738 4.28625 7.32661 4.40189 7.62359 4.40189C7.9206 4.40189 8.1998 4.28622 8.4098 4.07625L9.21716 3.26889C9.31976 3.16629 9.39807 3.04843 9.45212 2.92257H14.5601C14.8031 2.92257 15 2.72561 15 2.48268C15 2.23975 14.8031 2.04282 14.5601 2.04282ZM8.59507 2.64686L7.78771 3.45422C7.74388 3.49805 7.68561 3.52219 7.62359 3.52219C7.56157 3.52219 7.5033 3.49805 7.45947 3.45422L6.65211 2.64686C6.56161 2.55633 6.56161 2.40909 6.65211 2.31859L7.45947 1.51126C7.5033 1.46743 7.56157 1.44329 7.62359 1.44329C7.68561 1.44329 7.74388 1.46743 7.78771 1.51126L8.59507 2.31862C8.68557 2.40912 8.68557 2.55636 8.59507 2.64686Z" fill="#777777"/>
<path d="M14.5601 6.11881H5.97974C5.92473 5.99113 5.84542 5.87374 5.74414 5.77249L4.93681 4.96513C4.72681 4.75513 4.44758 4.6395 4.1506 4.6395C3.85359 4.6395 3.57439 4.75516 3.36439 4.96513L2.55703 5.77249C2.45443 5.87509 2.37612 5.99295 2.32207 6.11881H0.439892C0.196963 6.11881 0 6.31574 0 6.55867C0 6.8016 0.196963 6.99856 0.439892 6.99856H2.32212C2.37618 7.12442 2.45446 7.24228 2.55708 7.34488L3.36445 8.15224C3.57442 8.36224 3.85364 8.47791 4.15066 8.47791C4.44764 8.47791 4.72684 8.36224 4.93687 8.15224L5.7442 7.34491C5.84545 7.24366 5.92478 7.12627 5.9798 6.99859H14.5601C14.8031 6.99859 15 6.80163 15 6.5587C15 6.31577 14.803 6.11881 14.5601 6.11881ZM5.12208 6.72282L4.31475 7.53015C4.27092 7.57398 4.21265 7.59812 4.15063 7.59812C4.08861 7.59812 4.03033 7.57398 3.98651 7.53015L3.17914 6.72279C3.08865 6.63229 3.08865 6.48505 3.17914 6.39455L3.98651 5.58719C4.03033 5.54336 4.08861 5.51922 4.15063 5.51922C4.21265 5.51922 4.27092 5.54336 4.31475 5.58719L5.12208 6.39455C5.16591 6.43838 5.19005 6.49665 5.19005 6.55864C5.19005 6.62066 5.16591 6.67896 5.12208 6.72282Z" fill="#777777"/>
<path d="M14.5601 10.0778H12.3846C12.3305 9.95196 12.2523 9.8341 12.1496 9.73151L11.3423 8.92414C11.1323 8.71414 10.8531 8.59848 10.5561 8.59848C10.2591 8.59848 9.97987 8.71414 9.76985 8.92411L8.96248 9.73148C8.85989 9.83407 8.78158 9.95193 8.72752 10.0778H0.439892C0.196963 10.0778 0 10.2748 0 10.5177C0 10.7606 0.196963 10.9576 0.439892 10.9576H8.72761C8.78166 11.0834 8.85994 11.2013 8.96257 11.3039L9.76993 12.1113C9.97993 12.3213 10.2592 12.4369 10.5561 12.4369C10.8532 12.4369 11.1324 12.3212 11.3424 12.1113L12.1497 11.3039C12.2523 11.2013 12.3306 11.0834 12.3847 10.9576H14.5602C14.8031 10.9576 15.0001 10.7606 15.0001 10.5177C15 10.2748 14.803 10.0778 14.5601 10.0778ZM11.5276 10.6818L10.7202 11.4892C10.6764 11.533 10.6181 11.5572 10.5561 11.5572C10.4941 11.5572 10.4358 11.533 10.392 11.4892L9.58463 10.6818C9.49413 10.5913 9.49413 10.4441 9.58463 10.3536L10.392 9.54626C10.4358 9.50243 10.4941 9.47829 10.5561 9.47829C10.6181 9.47829 10.6764 9.50243 10.7202 9.54626L11.5276 10.3536C11.6181 10.4441 11.6181 10.5913 11.5276 10.6818Z" fill="#777777"/>
</svg>
