<svg width="43" height="45" viewBox="0 0 43 45" fill="none" xmlns="http://www.w3.org/2000/svg">
<path d="M9.17062 28.42C9.17062 30.9981 7.15868 33.0819 4.66923 33.0819C2.17978 33.0819 0.167847 30.9981 0.167847 28.42C0.167847 25.8421 2.17978 23.7585 4.6694 23.7585H9.17045V28.4202L9.17062 28.42ZM11.4214 28.42C11.4214 25.8421 13.4333 23.7585 15.9228 23.7585C18.4122 23.7585 20.4242 25.8421 20.4242 28.4202V40.0743C20.4242 42.6524 18.4122 44.7362 15.9226 44.7362C13.4335 44.7362 11.4214 42.6524 11.4214 40.0743V28.4202V28.42Z" fill="#E01E5A"/>
<path d="M15.9236 9.7C13.4342 9.7 11.4221 7.61642 11.4221 5.03832C11.4221 2.46023 13.4343 0.376648 15.9236 0.376648C18.4129 0.376648 20.425 2.46023 20.425 5.03832V9.70017H15.9234L15.9236 9.7ZM15.9236 12.0662C18.413 12.0662 20.425 14.1498 20.425 16.7279C20.425 19.306 18.413 21.3896 15.9234 21.3896H4.63618C2.14657 21.3896 0.134644 19.306 0.134644 16.7277C0.134644 14.15 2.14657 12.0662 4.63602 12.0662H15.9234H15.9236Z" fill="#36C5F0"/>
<path d="M33.9633 16.7279C33.9633 14.1498 35.9752 12.066 38.4645 12.066C40.9539 12.066 42.966 14.1498 42.966 16.7279C42.966 19.306 40.9539 21.3896 38.4645 21.3896H33.9633V16.7277V16.7279ZM31.7125 16.7279C31.7125 19.306 29.7004 21.3896 27.2109 21.3896C24.7217 21.3896 22.7097 19.306 22.7097 16.7277V5.0385C22.7097 2.46023 24.7217 0.376648 27.2109 0.376648C29.7002 0.376648 31.7123 2.46023 31.7123 5.03832V16.7277L31.7125 16.7279Z" fill="#2EB67D"/>
<path d="M27.2109 35.4128C29.7004 35.4128 31.7125 37.4964 31.7125 40.0743C31.7125 42.6524 29.7004 44.7362 27.2109 44.7362C24.7216 44.7362 22.7097 42.6524 22.7097 40.0743V35.4128H27.2111H27.2109ZM27.2109 33.0819C24.7216 33.0819 22.7097 30.9981 22.7097 28.42C22.7097 25.8421 24.7216 23.7585 27.2111 23.7585H38.4985C40.988 23.7585 43.0001 25.8421 43.0001 28.4202C43.0001 30.9981 40.988 33.0819 38.4985 33.0819H27.2111H27.2109Z" fill="#ECB22E"/>
</svg>
