<svg width="19" height="19" viewBox="0 0 19 19" fill="none" xmlns="http://www.w3.org/2000/svg">
<path fill-rule="evenodd" clip-rule="evenodd" d="M9.28602 19C14.3228 19 18.406 14.7467 18.406 9.5C18.406 4.25328 14.3228 0 9.28602 0C4.24918 0 0.166016 4.25328 0.166016 9.5C0.166016 14.7467 4.24918 19 9.28602 19ZM13.846 9.5C13.846 12.1232 11.8044 14.25 9.28602 14.25C6.76759 14.25 4.72602 12.1232 4.72602 9.5C4.72602 6.87683 6.76759 4.75 9.28602 4.75C11.8044 4.75 13.846 6.87683 13.846 9.5ZM16.886 9.5C16.886 13.8723 13.4834 17.4167 9.28602 17.4167C5.08864 17.4167 1.68602 13.8723 1.68602 9.5C1.68602 5.12767 5.08864 1.58333 9.28602 1.58333C13.4834 1.58333 16.886 5.12767 16.886 9.5Z" fill="#5B44BA"/>
</svg>
