<svg width="15" height="15" viewBox="0 0 15 15" fill="none" xmlns="http://www.w3.org/2000/svg">
<g clip-path="url(#clip0)">
<path d="M14.1775 2.15706C13.65 1.62922 12.9344 1.33276 12.1882 1.33302C11.4423 1.33126 10.7266 1.62762 10.2003 2.15615L6.56882 5.78765C5.85032 6.50729 5.57564 7.55841 5.85026 8.53755C5.93066 8.8226 6.22693 8.9885 6.51198 8.9081C6.79703 8.82769 6.96293 8.53142 6.88253 8.24637C6.71323 7.64086 6.88309 6.99111 7.32707 6.54593L10.9585 2.91496C11.6375 2.23586 12.7384 2.23574 13.4175 2.91471C14.0966 3.59366 14.0967 4.69458 13.4178 5.37368L9.78632 9.00515C9.54834 9.24345 9.2461 9.40725 8.91653 9.47653C8.62658 9.53689 8.44047 9.82087 8.50083 10.1108C8.55274 10.3602 8.77284 10.5386 9.02751 10.5378C9.06499 10.5378 9.10238 10.5338 9.13905 10.526C9.67167 10.4137 10.16 10.1487 10.5446 9.76344L14.1761 6.1325C15.2742 5.03509 15.2749 3.25525 14.1775 2.15706Z" fill="#777777"/>
<path d="M9.13415 6.47721C9.05374 6.19216 8.75747 6.02625 8.47242 6.10666C8.18737 6.18707 8.02147 6.48333 8.10188 6.76838C8.27117 7.3739 8.10131 8.02365 7.65733 8.46882L4.02583 12.1003C3.34689 12.7794 2.24596 12.7796 1.56686 12.1006C0.887759 11.4216 0.887633 10.3207 1.56658 9.64161L5.19808 6.00957C5.43569 5.77134 5.73758 5.60754 6.06681 5.53819C6.35723 5.48009 6.54557 5.19759 6.48747 4.9072C6.42937 4.61681 6.14687 4.42844 5.85647 4.48653C5.85292 4.48726 5.84941 4.48798 5.84589 4.48876C5.31318 4.60122 4.82464 4.86616 4.43983 5.25132L0.808327 8.88282C-0.281225 9.98918 -0.267588 11.7693 0.838774 12.8589C1.93307 13.9365 3.68963 13.9366 4.78408 12.8591L8.41555 9.22707C9.13409 8.50744 9.40877 7.45631 9.13415 6.47721Z" fill="#777777"/>
</g>
<defs>
<clipPath id="clip0">
<rect width="15" height="15" fill="white"/>
</clipPath>
</defs>
</svg>
