<svg width="16" height="16" viewBox="0 0 16 16" fill="none" xmlns="http://www.w3.org/2000/svg">
<path d="M8.66671 1.36667V3.38667C10.9267 3.71334 12.6667 5.64667 12.6667 8C12.6667 8.6 12.5467 9.16667 12.3467 9.69334L14.08 10.7133C14.4534 9.88667 14.6667 8.96667 14.6667 8C14.6667 4.54667 12.0334 1.7 8.66671 1.36667ZM8.00004 12.6667C5.42004 12.6667 3.33337 10.58 3.33337 8C3.33337 5.64667 5.07337 3.71334 7.33337 3.38667V1.36667C3.96004 1.7 1.33337 4.54 1.33337 8C1.33337 11.68 4.31337 14.6667 7.99337 14.6667C10.2 14.6667 12.1534 13.5933 13.3667 11.94L11.6334 10.92C10.78 11.9867 9.47337 12.6667 8.00004 12.6667Z" fill="black"/>
</svg>
