<svg width="16" height="16" viewBox="0 0 16 16" fill="none" xmlns="http://www.w3.org/2000/svg">
<path d="M8 8V2" fill="#1C0732" stroke-linecap="round" stroke-linejoin="round"/>
<path d="M13.197 5L2.80469 11" stroke="black" stroke-linecap="round" stroke-linejoin="round"/>
<path d="M2.10005 9.09726C1.84027 7.6914 2.09022 6.23897 2.80499 5.00081C3.51977 3.76265 4.65255 2.81988 5.99992 2.3418V6.84568L2.10005 9.09726Z" stroke="black" stroke-linecap="round" stroke-linejoin="round"/>
<path d="M8.00013 2C9.05134 2.00019 10.0841 2.27657 10.9949 2.80144C11.9056 3.32632 12.6626 4.08127 13.1898 4.9907C13.717 5.90013 13.9961 6.93213 13.999 7.98333C14.0019 9.03454 13.7286 10.0681 13.2064 10.9804C12.6843 11.8928 11.9316 12.6519 11.0237 13.1818C10.1158 13.7118 9.08466 13.9939 8.03347 13.9999C6.98227 14.0059 5.94794 13.7357 5.03405 13.2162C4.12016 12.6968 3.35879 11.9463 2.82617 11.04" stroke="black" stroke-linecap="round" stroke-linejoin="round"/>
</svg>
