<svg width="17" height="16" viewBox="0 0 17 16" fill="none" xmlns="http://www.w3.org/2000/svg">
<path d="M8.5 8V2" stroke="#1C0732" stroke-linecap="round" stroke-linejoin="round"/>
<path d="M13.696 5L3.30371 11" stroke="#1C0732" stroke-linecap="round" stroke-linejoin="round"/>
<path d="M2.60005 9.09678C2.34027 7.69091 2.59022 6.23848 3.30499 5.00032C4.01977 3.76216 5.15255 2.81939 6.49992 2.34131V6.84519L2.60005 9.09678Z" stroke="#1C0732" stroke-linecap="round" stroke-linejoin="round"/>
<path d="M8.50013 2C9.55134 2.00019 10.5841 2.27657 11.4949 2.80144C12.4056 3.32632 13.1626 4.08127 13.6898 4.9907C14.217 5.90013 14.4961 6.93213 14.499 7.98333C14.5019 9.03454 14.2286 10.0681 13.7064 10.9804C13.1843 11.8928 12.4316 12.6519 11.5237 13.1818C10.6158 13.7118 9.58466 13.9939 8.53347 13.9999C7.48227 14.0059 6.44794 13.7357 5.53405 13.2162C4.62016 12.6968 3.85879 11.9463 3.32617 11.04" stroke="#1C0732" stroke-linecap="round" stroke-linejoin="round"/>
</svg>
