<svg width="19" height="20" viewBox="0 0 19 20" fill="none" xmlns="http://www.w3.org/2000/svg">
<path d="M1.5 12.1784H1V12.6784V18.0117V18.5117H1.5H6.60958H7.10958V18.0117V12.6784V12.1784H6.60958H1.5ZM11.3581 4.86582L11.0267 5.21172L11.3581 5.55762L14.2485 8.57461L14.6096 8.95146L14.9706 8.57461L17.861 5.55762L18.1924 5.21172L17.861 4.86582L14.9706 1.84883L14.6096 1.47198L14.2485 1.84883L11.3581 4.86582ZM4.05479 7.84505C5.76189 7.84505 7.10958 6.40688 7.10958 4.67839C7.10958 2.9499 5.76189 1.51172 4.05479 1.51172C2.3477 1.51172 1 2.9499 1 4.67839C1 6.40688 2.3477 7.84505 4.05479 7.84505ZM14.274 18.5117C15.9811 18.5117 17.3287 17.0735 17.3287 15.3451C17.3287 13.6166 15.9811 12.1784 14.274 12.1784C12.5669 12.1784 11.2192 13.6166 11.2192 15.3451C11.2192 17.0735 12.5669 18.5117 14.274 18.5117Z" stroke="#1C0732"/>
</svg>
