<svg width="15" height="15" viewBox="0 0 15 15" fill="none" xmlns="http://www.w3.org/2000/svg">
<path d="M1.5 9.5H1V10V14V14.5H1.5H5.33219H5.83219V14V10V9.5H5.33219H1.5ZM8.80333 4.0541L8.47194 4.4L8.80333 4.7459L10.9711 7.00864L11.3322 7.3855L11.6932 7.00864L13.861 4.7459L14.1924 4.4L13.861 4.0541L11.6932 1.79136L11.3322 1.4145L10.9711 1.79136L8.80333 4.0541ZM3.41609 6.5C4.77045 6.5 5.83219 5.3603 5.83219 4C5.83219 2.6397 4.77045 1.5 3.41609 1.5C2.06174 1.5 1 2.6397 1 4C1 5.3603 2.06174 6.5 3.41609 6.5ZM11.0805 14.5C12.4348 14.5 13.4966 13.3603 13.4966 12C13.4966 10.6397 12.4348 9.5 11.0805 9.5C9.72612 9.5 8.66438 10.6397 8.66438 12C8.66438 13.3603 9.72612 14.5 11.0805 14.5Z" stroke="#696F8C"/>
</svg>
