<svg width="16" height="16" viewBox="0 0 16 16" fill="none" xmlns="http://www.w3.org/2000/svg">
<path d="M5.38462 9.84616H0.769231C0.346154 9.84616 0 10.1923 0 10.6154V15.2308C0 15.6539 0.346154 16 0.769231 16H5.38462C5.80769 16 6.15385 15.6539 6.15385 15.2308V10.6154C6.15385 10.1923 5.80769 9.84616 5.38462 9.84616ZM5.38462 15.2308H0.769231V10.6154H5.38462V15.2308Z" fill="black"/>
<path d="M11.8461 0.461553L9.07689 3.23078C8.82305 3.48463 8.82305 3.90001 9.07689 4.15386L11.8461 6.92309C12.1 7.17694 12.5154 7.17694 12.7692 6.92309L15.5384 4.15386C15.7923 3.90001 15.7923 3.48463 15.5384 3.23078L12.7692 0.461553C12.5154 0.207707 12.1 0.207707 11.8461 0.461553ZM15.0769 3.69232L12.3077 6.46155L9.53843 3.69232L12.3077 0.923091L15.0769 3.69232Z" fill="black"/>
<path d="M12.3076 9.84616C10.6092 9.84616 9.23071 11.2246 9.23071 12.9231C9.23071 14.6215 10.6092 16 12.3076 16C14.0061 16 15.3846 14.6215 15.3846 12.9231C15.3846 11.2246 14.0061 9.84616 12.3076 9.84616ZM12.3076 15.3846C10.9476 15.3846 9.8461 14.2831 9.8461 12.9231C9.8461 11.5631 10.9476 10.4615 12.3076 10.4615C13.6676 10.4615 14.7692 11.5631 14.7692 12.9231C14.7692 14.2831 13.6676 15.3846 12.3076 15.3846Z" fill="black"/>
<path d="M3.07692 0.615387C1.37846 0.615387 0 1.99385 0 3.69231C0 5.39077 1.37846 6.76923 3.07692 6.76923C4.77539 6.76923 6.15385 5.39077 6.15385 3.69231C6.15385 1.99385 4.77539 0.615387 3.07692 0.615387ZM3.07692 6.15385C1.71692 6.15385 0.615385 5.05231 0.615385 3.69231C0.615385 2.33231 1.71692 1.23077 3.07692 1.23077C4.43692 1.23077 5.53846 2.33231 5.53846 3.69231C5.53846 5.05231 4.43692 6.15385 3.07692 6.15385Z" fill="black"/>
</svg>
